<?xml version="1.0" encoding="UTF-8" standalone="no"?>
<!DOCTYPE svg PUBLIC "-//W3C//DTD SVG 1.1//EN"
 "http://www.w3.org/Graphics/SVG/1.1/DTD/svg11.dtd">
<!-- Generated by graphviz version 15.1.0 (20260618.0150)
 -->
<!-- Title: Core/Inc/adc.h Pages: 1 -->
<svg width="361pt" height="103pt"
 viewBox="0.00 0.00 361.00 103.00" xmlns="http://www.w3.org/2000/svg" xmlns:xlink="http://www.w3.org/1999/xlink">
<g id="graph0" class="graph" transform="scale(1 1) rotate(0) translate(4 98.75)">
<title>Core/Inc/adc.h</title>
<!-- Node1 -->
<g id="Node000001" class="node">
<title>Node1</title>
<g id="a_Node000001"><a xlink:title="This file contains all the function prototypes for the adc.c file">
<polygon fill="#999999" stroke="#666666" points="233.12,-94.75 139.88,-94.75 139.88,-72.5 233.12,-72.5 233.12,-94.75"/>
<text xml:space="preserve" text-anchor="middle" x="186.5" y="-79.35" font-family="Helvetica,sans-Serif" font-size="12.00">Core/Inc/adc.h</text>
</a>
</g>
</g>
<!-- Node2 -->
<g id="Node000002" class="node">
<title>Node2</title>
<g id="a_Node000002"><a xlink:href="bsp__adc_8c.html" target="_top" xlink:title="ADC 采样 BSP（电流/母线电压注入组 + 温度规则组）">
<polygon fill="white" stroke="#666666" points="121,-36.5 0,-36.5 0,0 121,0 121,-36.5"/>
<text xml:space="preserve" text-anchor="start" x="8" y="-21.1" font-family="Helvetica,sans-Serif" font-size="12.00">Application/bsp/bsp</text>
<text xml:space="preserve" text-anchor="middle" x="60.5" y="-6.85" font-family="Helvetica,sans-Serif" font-size="12.00">_adc.c</text>
</a>
</g>
</g>
<!-- Node1&#45;&gt;Node2 -->
<g id="edge1_Node000001_Node000002" class="edge">
<title>Node1&#45;&gt;Node2</title>
<g id="a_edge1_Node000001_Node000002"><a xlink:title=" ">
<path fill="none" stroke="#63b8ff" d="M155.34,-66.95C137.19,-57.82 114.25,-46.29 95.48,-36.85"/>
<polygon fill="#63b8ff" stroke="#63b8ff" points="153.55,-69.97 164.06,-71.34 156.7,-63.72 153.55,-69.97"/>
</a>
</g>
</g>
<!-- Node3 -->
<g id="Node000003" class="node">
<title>Node3</title>
<g id="a_Node000003"><a xlink:href="adc_8c.html" target="_top" xlink:title="This file provides code for the configuration of the ADC instances.">
<polygon fill="white" stroke="#666666" points="233.88,-29.38 139.12,-29.38 139.12,-7.12 233.88,-7.12 233.88,-29.38"/>
<text xml:space="preserve" text-anchor="middle" x="186.5" y="-13.97" font-family="Helvetica,sans-Serif" font-size="12.00">Core/Src/adc.c</text>
</a>
</g>
</g>
<!-- Node1&#45;&gt;Node3 -->
<g id="edge2_Node000001_Node000003" class="edge">
<title>Node1&#45;&gt;Node3</title>
<g id="a_edge2_Node000001_Node000003"><a xlink:title=" ">
<path fill="none" stroke="#63b8ff" d="M186.5,-60.79C186.5,-50.19 186.5,-37.95 186.5,-29.52"/>
<polygon fill="#63b8ff" stroke="#63b8ff" points="183,-60.65 186.5,-70.65 190,-60.65 183,-60.65"/>
</a>
</g>
</g>
<!-- Node4 -->
<g id="Node000004" class="node">
<title>Node4</title>
<g id="a_Node000004"><a xlink:href="main_8c.html" target="_top" xlink:title=": Main program body">
<polygon fill="white" stroke="#666666" points="353.25,-29.38 251.75,-29.38 251.75,-7.12 353.25,-7.12 353.25,-29.38"/>
<text xml:space="preserve" text-anchor="middle" x="302.5" y="-13.97" font-family="Helvetica,sans-Serif" font-size="12.00">Core/Src/main.c</text>
</a>
</g>
</g>
<!-- Node1&#45;&gt;Node4 -->
<g id="edge3_Node000001_Node000004" class="edge">
<title>Node1&#45;&gt;Node4</title>
<g id="a_edge3_Node000001_Node000004"><a xlink:title=" ">
<path fill="none" stroke="#63b8ff" d="M215.99,-66.51C237.17,-54.94 265.09,-39.69 283.41,-29.68"/>
<polygon fill="#63b8ff" stroke="#63b8ff" points="214.34,-63.43 207.24,-71.29 217.7,-69.57 214.34,-63.43"/>
</a>
</g>
</g>
</g>
</svg>
