<?xml version="1.0" encoding="UTF-8" standalone="no"?>
<!DOCTYPE svg PUBLIC "-//W3C//DTD SVG 1.1//EN"
 "http://www.w3.org/Graphics/SVG/1.1/DTD/svg11.dtd">
<!-- Generated by graphviz version 15.1.0 (20260618.0150)
 -->
<!-- Title: APP_PARAMS_Init Pages: 1 -->
<svg width="502pt" height="70pt"
 viewBox="0.00 0.00 502.00 70.00" xmlns="http://www.w3.org/2000/svg" xmlns:xlink="http://www.w3.org/1999/xlink">
<g id="graph0" class="graph" transform="scale(1 1) rotate(0) translate(4 66.25)">
<title>APP_PARAMS_Init</title>
<!-- Node1 -->
<g id="Node000001" class="node">
<title>Node1</title>
<g id="a_Node000001"><a xlink:title="参数初始化：从 Flash 加载，失败（首次上电/版本不符）则用默认值">
<polygon fill="#999999" stroke="#666666" points="120.25,-42.25 0,-42.25 0,-20 120.25,-20 120.25,-42.25"/>
<text xml:space="preserve" text-anchor="middle" x="60.12" y="-26.85" font-family="Helvetica,sans-Serif" font-size="12.00">APP_PARAMS_Init</text>
</a>
</g>
</g>
<!-- Node2 -->
<g id="Node000002" class="node">
<title>Node2</title>
<g id="a_Node000002"><a xlink:href="app__params_8c.html#afa4da68e24e6b332803f4e131cd9ea31" target="_top" xlink:title="加载编译期默认参数">
<polygon fill="white" stroke="#666666" points="332,-62.25 156.25,-62.25 156.25,-40 332,-40 332,-62.25"/>
<text xml:space="preserve" text-anchor="middle" x="244.12" y="-46.85" font-family="Helvetica,sans-Serif" font-size="12.00">APP_PARAMS_LoadDefaults</text>
</a>
</g>
</g>
<!-- Node1&#45;&gt;Node2 -->
<g id="edge1_Node000001_Node000002" class="edge">
<title>Node1&#45;&gt;Node2</title>
<g id="a_edge1_Node000001_Node000002"><a xlink:title=" ">
<path fill="none" stroke="#63b8ff" d="M120.72,-37.67C128.49,-38.53 136.6,-39.42 144.8,-40.32"/>
<polygon fill="#63b8ff" stroke="#63b8ff" points="144.18,-43.77 154.5,-41.39 144.94,-36.81 144.18,-43.77"/>
</a>
</g>
</g>
<!-- Node3 -->
<g id="Node000003" class="node">
<title>Node3</title>
<g id="a_Node000003"><a xlink:href="bsp__flash_8c.html#abe117545b4c559768b5c43cc0da8777d" target="_top" xlink:title="从参数页加载参数">
<polygon fill="white" stroke="#666666" points="325.25,-22.25 163,-22.25 163,0 325.25,0 325.25,-22.25"/>
<text xml:space="preserve" text-anchor="middle" x="244.12" y="-6.85" font-family="Helvetica,sans-Serif" font-size="12.00">BSP_FLASH_LoadParams</text>
</a>
</g>
</g>
<!-- Node1&#45;&gt;Node3 -->
<g id="edge2_Node000001_Node000003" class="edge">
<title>Node1&#45;&gt;Node3</title>
<g id="a_edge2_Node000001_Node000003"><a xlink:title=" ">
<path fill="none" stroke="#63b8ff" d="M120.72,-24.58C130.54,-23.5 140.92,-22.36 151.31,-21.21"/>
<polygon fill="#63b8ff" stroke="#63b8ff" points="151.5,-24.71 161.06,-20.14 150.74,-17.76 151.5,-24.71"/>
</a>
</g>
</g>
<!-- Node4 -->
<g id="Node000004" class="node">
<title>Node4</title>
<g id="a_Node000004"><a xlink:href="bsp__flash_8c.html#aa1c7fee83ecbb51032b9dad44332a207" target="_top" xlink:title="硬件 CRC32 计算（默认多项式 0x4C11DB7，全字复位初值）">
<polygon fill="white" stroke="#666666" points="494.25,-22.25 368,-22.25 368,0 494.25,0 494.25,-22.25"/>
<text xml:space="preserve" text-anchor="middle" x="431.12" y="-6.85" font-family="Helvetica,sans-Serif" font-size="12.00">BSP_FLASH_Crc32</text>
</a>
</g>
</g>
<!-- Node3&#45;&gt;Node4 -->
<g id="edge3_Node000003_Node000004" class="edge">
<title>Node3&#45;&gt;Node4</title>
<g id="a_edge3_Node000003_Node000004"><a xlink:title=" ">
<path fill="none" stroke="#63b8ff" d="M325.73,-11.12C335.92,-11.12 346.3,-11.12 356.37,-11.12"/>
<polygon fill="#63b8ff" stroke="#63b8ff" points="356.08,-14.63 366.08,-11.13 356.08,-7.63 356.08,-14.63"/>
</a>
</g>
</g>
</g>
</svg>
