<?xml version="1.0" encoding="UTF-8" standalone="no"?>
<!DOCTYPE svg PUBLIC "-//W3C//DTD SVG 1.1//EN"
 "http://www.w3.org/Graphics/SVG/1.1/DTD/svg11.dtd">
<!-- Generated by graphviz version 15.1.0 (20260618.0150)
 -->
<!-- Title: APP_PARAMS_IsSavePending Pages: 1 -->
<svg width="383pt" height="30pt"
 viewBox="0.00 0.00 383.00 30.00" xmlns="http://www.w3.org/2000/svg" xmlns:xlink="http://www.w3.org/1999/xlink">
<g id="graph0" class="graph" transform="scale(1 1) rotate(0) translate(4 26.25)">
<title>APP_PARAMS_IsSavePending</title>
<!-- Node1 -->
<g id="Node000001" class="node">
<title>Node1</title>
<g id="a_Node000001"><a xlink:title="查询是否有挂起的保存请求">
<polygon fill="#999999" stroke="#666666" points="375,-22.25 188.75,-22.25 188.75,0 375,0 375,-22.25"/>
<text xml:space="preserve" text-anchor="middle" x="281.88" y="-6.85" font-family="Helvetica,sans-Serif" font-size="12.00">APP_PARAMS_IsSavePending</text>
</a>
</g>
</g>
<!-- Node2 -->
<g id="Node000002" class="node">
<title>Node2</title>
<g id="a_Node000002"><a xlink:href="app__main_8c.html#a6709d26bb67f905916b7c7f048b8396c" target="_top" xlink:title="后台超级循环体（main 的 while(1) 内调用）">
<polygon fill="white" stroke="#666666" points="152.75,-22.25 78.25,-22.25 78.25,0 152.75,0 152.75,-22.25"/>
<text xml:space="preserve" text-anchor="middle" x="115.5" y="-6.85" font-family="Helvetica,sans-Serif" font-size="12.00">APP_Loop</text>
</a>
</g>
</g>
<!-- Node1&#45;&gt;Node2 -->
<g id="edge1_Node000001_Node000002" class="edge">
<title>Node1&#45;&gt;Node2</title>
<g id="a_edge1_Node000001_Node000002"><a xlink:title=" ">
<path fill="none" stroke="#63b8ff" d="M177.22,-11.12C168.68,-11.12 160.47,-11.12 153,-11.12"/>
<polygon fill="#63b8ff" stroke="#63b8ff" points="177.08,-14.63 187.08,-11.13 177.08,-7.63 177.08,-14.63"/>
</a>
</g>
</g>
<!-- Node3 -->
<g id="Node000003" class="node">
<title>Node3</title>
<g id="a_Node000003"><a xlink:href="main_8c.html#a840291bc02cba5474a4cb46a9b9566fe" target="_top" xlink:title="The application entry point.">
<polygon fill="white" stroke="#666666" points="42.25,-22.25 0,-22.25 0,0 42.25,0 42.25,-22.25"/>
<text xml:space="preserve" text-anchor="middle" x="21.12" y="-6.85" font-family="Helvetica,sans-Serif" font-size="12.00">main</text>
</a>
</g>
</g>
<!-- Node2&#45;&gt;Node3 -->
<g id="edge2_Node000002_Node000003" class="edge">
<title>Node2&#45;&gt;Node3</title>
<g id="a_edge2_Node000002_Node000003"><a xlink:title=" ">
<path fill="none" stroke="#63b8ff" d="M66.58,-11.12C58.16,-11.12 49.83,-11.12 42.69,-11.12"/>
<polygon fill="#63b8ff" stroke="#63b8ff" points="66.48,-14.63 76.48,-11.13 66.48,-7.63 66.48,-14.63"/>
</a>
</g>
</g>
</g>
</svg>
