<?xml version="1.0" encoding="UTF-8" standalone="no"?>
<!DOCTYPE svg PUBLIC "-//W3C//DTD SVG 1.1//EN"
 "http://www.w3.org/Graphics/SVG/1.1/DTD/svg11.dtd">
<!-- Generated by graphviz version 15.1.0 (20260618.0150)
 -->
<!-- Title: Application/app/app_params.h Pages: 1 -->
<!--zoomable 117 -->

<svg id="main" version="1.1" xmlns="http://www.w3.org/2000/svg" xmlns:xlink="http://www.w3.org/1999/xlink" xml:space="preserve" onload="init(evt)">

<style type="text/css"><![CDATA[
.node, .edge {opacity: 0.7;}
.node.selected, .edge.selected {opacity: 1;}
.edge:hover path { stroke: red; }
.edge:hover polygon { stroke: red; fill: red; }
]]></style>

<defs>
  <circle id="rim" cx="0" cy="0" r="7"/>
  <circle id="rim2" cx="0" cy="0" r="3.5"/>
  <g id="zoomPlus">
    <use xlink:href="#rim" fill="#404040"><set attributeName="fill" to="#808080" begin="zoomplus.mouseover" end="zoomplus.mouseout"/></use>
    <path d="M-4,0h8M0,-4v8" fill="none" stroke="white" stroke-width="1.5" pointer-events="none"/>
  </g>
  <g id="zoomMin">
    <use xlink:href="#rim" fill="#404040"><set attributeName="fill" to="#808080" begin="zoomminus.mouseover" end="zoomminus.mouseout"/></use>
    <path d="M-4,0h8" fill="none" stroke="white" stroke-width="1.5" pointer-events="none"/>
  </g>
  <g id="arrowUp" transform="translate(30 24)">
    <use xlink:href="#rim"/>
    <path pointer-events="none" fill="none" stroke="white" stroke-width="1.5" d="M0,-3.0v7 M-2.5,-0.5L0,-3.0L2.5,-0.5"/>
  </g>
  <g id="arrowRight" transform="rotate(90) translate(36 -43)">
    <use xlink:href="#rim"/>
    <path pointer-events="none" fill="none" stroke="white" stroke-width="1.5" d="M0,-3.0v7 M-2.5,-0.5L0,-3.0L2.5,-0.5"/>
  </g>
  <g id="arrowDown" transform="rotate(180) translate(-30 -48)">
    <use xlink:href="#rim"/>
    <path pointer-events="none" fill="none" stroke="white" stroke-width="1.5" d="M0,-3.0v7 M-2.5,-0.5L0,-3.0L2.5,-0.5"/>
  </g>
  <g id="arrowLeft" transform="rotate(270) translate(-36 17)">
    <use xlink:href="#rim"/>
    <path pointer-events="none" fill="none" stroke="white" stroke-width="1.5" d="M0,-3.0v7 M-2.5,-0.5L0,-3.0L2.5,-0.5"/>
  </g>
  <g id="resetDef">
    <use xlink:href="#rim2" fill="#404040"><set attributeName="fill" to="#808080" begin="reset.mouseover" end="reset.mouseout"/></use>
  </g>
</defs>
<script type="application/ecmascript">
var viewWidth = 1102;
var viewHeight = 117;
var sectionId = 'dynsection-1';
</script>
<script type="application/ecmascript" xlink:href="svg.min.js"/>
<svg id="graph" class="graph">
<g id="viewport">
<title>Application/app/app_params.h</title>
<!-- Node1 -->
<g id="Node000001" class="node">
<title>Node1</title>
<g id="a_Node000001"><a xlink:title="运行参数管理头文件（RAM 副本 + Flash 持久化）">
<polygon fill="#999999" stroke="#666666" points="615.5,-109 493,-109 493,-72.5 615.5,-72.5 615.5,-109"/>
<text xml:space="preserve" text-anchor="start" x="501" y="-93.6" font-family="Helvetica,sans-Serif" font-size="12.00">Application/app/app</text>
<text xml:space="preserve" text-anchor="middle" x="554.25" y="-79.35" font-family="Helvetica,sans-Serif" font-size="12.00">_params.h</text>
</a>
</g>
</g>
<!-- Node2 -->
<g id="Node000002" class="node">
<title>Node2</title>
<g id="a_Node000002"><a xlink:href="app__can__protocol_8c.html" target="_top" xlink:title="CAN 应用协议（MIT 运控协议 + 配置协议）">
<polygon fill="white" stroke="#666666" points="122.5,-36.5 0,-36.5 0,0 122.5,0 122.5,-36.5"/>
<text xml:space="preserve" text-anchor="start" x="8" y="-21.1" font-family="Helvetica,sans-Serif" font-size="12.00">Application/app/app</text>
<text xml:space="preserve" text-anchor="middle" x="61.25" y="-6.85" font-family="Helvetica,sans-Serif" font-size="12.00">_can_protocol.c</text>
</a>
</g>
</g>
<!-- Node1&#45;&gt;Node2 -->
<g id="edge1_Node000001_Node000002" class="edge">
<title>Node1&#45;&gt;Node2</title>
<g id="a_edge1_Node000001_Node000002"><a xlink:title=" ">
<path fill="none" stroke="#63b8ff" d="M481.51,-83.09C397.1,-74.78 253.93,-58.89 132.25,-36.5 129.13,-35.93 125.94,-35.3 122.73,-34.64"/>
<polygon fill="#63b8ff" stroke="#63b8ff" points="480.97,-86.55 491.26,-84.04 481.65,-79.59 480.97,-86.55"/>
</a>
</g>
</g>
<!-- Node3 -->
<g id="Node000003" class="node">
<title>Node3</title>
<g id="a_Node000003"><a xlink:href="app__led_8c.html" target="_top" xlink:title="状态灯语模块（单颗 WS2812，亮度全局可调）">
<polygon fill="white" stroke="#666666" points="263.5,-36.5 141,-36.5 141,0 263.5,0 263.5,-36.5"/>
<text xml:space="preserve" text-anchor="start" x="149" y="-21.1" font-family="Helvetica,sans-Serif" font-size="12.00">Application/app/app</text>
<text xml:space="preserve" text-anchor="middle" x="202.25" y="-6.85" font-family="Helvetica,sans-Serif" font-size="12.00">_led.c</text>
</a>
</g>
</g>
<!-- Node1&#45;&gt;Node3 -->
<g id="edge2_Node000001_Node000003" class="edge">
<title>Node1&#45;&gt;Node3</title>
<g id="a_edge2_Node000001_Node000003"><a xlink:title=" ">
<path fill="none" stroke="#63b8ff" d="M481.63,-77.04C424.77,-66.84 343.77,-51.74 273.25,-36.5 270.15,-35.83 266.98,-35.13 263.78,-34.4"/>
<polygon fill="#63b8ff" stroke="#63b8ff" points="480.72,-80.43 491.18,-78.75 481.96,-73.54 480.72,-80.43"/>
</a>
</g>
</g>
<!-- Node4 -->
<g id="Node000004" class="node">
<title>Node4</title>
<g id="a_Node000004"><a xlink:href="app__main_8c.html" target="_top" xlink:title="应用入口模块（前后台调度）">
<polygon fill="white" stroke="#666666" points="404.5,-36.5 282,-36.5 282,0 404.5,0 404.5,-36.5"/>
<text xml:space="preserve" text-anchor="start" x="290" y="-21.1" font-family="Helvetica,sans-Serif" font-size="12.00">Application/app/app</text>
<text xml:space="preserve" text-anchor="middle" x="343.25" y="-6.85" font-family="Helvetica,sans-Serif" font-size="12.00">_main.c</text>
</a>
</g>
</g>
<!-- Node1&#45;&gt;Node4 -->
<g id="edge3_Node000001_Node000004" class="edge">
<title>Node1&#45;&gt;Node4</title>
<g id="a_edge3_Node000001_Node000004"><a xlink:title=" ">
<path fill="none" stroke="#63b8ff" d="M490.45,-68.43C460.35,-58.37 424.84,-46.51 396.24,-36.96"/>
<polygon fill="#63b8ff" stroke="#63b8ff" points="489.25,-71.72 499.84,-71.57 491.47,-65.08 489.25,-71.72"/>
</a>
</g>
</g>
<!-- Node5 -->
<g id="Node000005" class="node">
<title>Node5</title>
<g id="a_Node000005"><a xlink:href="app__monitor_8c.html" target="_top" xlink:title="调试数据打印模块">
<polygon fill="white" stroke="#666666" points="545.5,-36.5 423,-36.5 423,0 545.5,0 545.5,-36.5"/>
<text xml:space="preserve" text-anchor="start" x="431" y="-21.1" font-family="Helvetica,sans-Serif" font-size="12.00">Application/app/app</text>
<text xml:space="preserve" text-anchor="middle" x="484.25" y="-6.85" font-family="Helvetica,sans-Serif" font-size="12.00">_monitor.c</text>
</a>
</g>
</g>
<!-- Node1&#45;&gt;Node5 -->
<g id="edge4_Node000001_Node000005" class="edge">
<title>Node1&#45;&gt;Node5</title>
<g id="a_edge4_Node000001_Node000005"><a xlink:title=" ">
<path fill="none" stroke="#63b8ff" d="M529.02,-64.33C520.01,-55.26 510.06,-45.25 501.84,-36.97"/>
<polygon fill="#63b8ff" stroke="#63b8ff" points="526.35,-66.62 535.88,-71.25 531.32,-61.69 526.35,-66.62"/>
</a>
</g>
</g>
<!-- Node6 -->
<g id="Node000006" class="node">
<title>Node6</title>
<g id="a_Node000006"><a xlink:href="app__params_8c.html" target="_top" xlink:title="运行参数管理（RAM 副本 + Flash 持久化）">
<polygon fill="white" stroke="#666666" points="686.5,-36.5 564,-36.5 564,0 686.5,0 686.5,-36.5"/>
<text xml:space="preserve" text-anchor="start" x="572" y="-21.1" font-family="Helvetica,sans-Serif" font-size="12.00">Application/app/app</text>
<text xml:space="preserve" text-anchor="middle" x="625.25" y="-6.85" font-family="Helvetica,sans-Serif" font-size="12.00">_params.c</text>
</a>
</g>
</g>
<!-- Node1&#45;&gt;Node6 -->
<g id="edge5_Node000001_Node000006" class="edge">
<title>Node1&#45;&gt;Node6</title>
<g id="a_edge5_Node000001_Node000006"><a xlink:title=" ">
<path fill="none" stroke="#63b8ff" d="M579.85,-64.33C588.98,-55.26 599.07,-45.25 607.41,-36.97"/>
<polygon fill="#63b8ff" stroke="#63b8ff" points="577.5,-61.73 572.87,-71.26 582.44,-66.69 577.5,-61.73"/>
</a>
</g>
</g>
<!-- Node7 -->
<g id="Node000007" class="node">
<title>Node7</title>
<g id="a_Node000007"><a xlink:href="app__shell_8c.html" target="_top" xlink:title="调试 shell 模块（USART3，行式命令）">
<polygon fill="white" stroke="#666666" points="827.5,-36.5 705,-36.5 705,0 827.5,0 827.5,-36.5"/>
<text xml:space="preserve" text-anchor="start" x="713" y="-21.1" font-family="Helvetica,sans-Serif" font-size="12.00">Application/app/app</text>
<text xml:space="preserve" text-anchor="middle" x="766.25" y="-6.85" font-family="Helvetica,sans-Serif" font-size="12.00">_shell.c</text>
</a>
</g>
</g>
<!-- Node1&#45;&gt;Node7 -->
<g id="edge6_Node000001_Node000007" class="edge">
<title>Node1&#45;&gt;Node7</title>
<g id="a_edge6_Node000001_Node000007"><a xlink:title=" ">
<path fill="none" stroke="#63b8ff" d="M618.35,-68.43C648.6,-58.37 684.27,-46.51 713.01,-36.96"/>
<polygon fill="#63b8ff" stroke="#63b8ff" points="617.29,-65.1 608.91,-71.57 619.5,-71.74 617.29,-65.1"/>
</a>
</g>
</g>
<!-- Node8 -->
<g id="Node000008" class="node">
<title>Node8</title>
<g id="a_Node000008"><a xlink:href="calibration_8c.html" target="_top" xlink:title="预定位校准模块（编码器方向/极对数/电角度偏置）">
<polygon fill="white" stroke="#666666" points="960.75,-36.5 845.75,-36.5 845.75,0 960.75,0 960.75,-36.5"/>
<text xml:space="preserve" text-anchor="start" x="853.75" y="-21.1" font-family="Helvetica,sans-Serif" font-size="12.00">Application/control</text>
<text xml:space="preserve" text-anchor="middle" x="903.25" y="-6.85" font-family="Helvetica,sans-Serif" font-size="12.00">/calibration.c</text>
</a>
</g>
</g>
<!-- Node1&#45;&gt;Node8 -->
<g id="edge7_Node000001_Node000008" class="edge">
<title>Node1&#45;&gt;Node8</title>
<g id="a_edge7_Node000001_Node000008"><a xlink:title=" ">
<path fill="none" stroke="#63b8ff" d="M626.91,-77.38C684.02,-67.33 765.47,-52.28 836.25,-36.5 839.3,-35.82 842.42,-35.1 845.56,-34.36"/>
<polygon fill="#63b8ff" stroke="#63b8ff" points="626.56,-73.88 617.31,-79.06 627.77,-80.78 626.56,-73.88"/>
</a>
</g>
</g>
<!-- Node9 -->
<g id="Node000009" class="node">
<title>Node9</title>
<g id="a_Node000009"><a xlink:href="motor__ctrl_8c.html" target="_top" xlink:title="电机控制核心模块（模式状态机 + 20kHz FOC 主循环）">
<polygon fill="white" stroke="#666666" points="1093.75,-36.5 978.75,-36.5 978.75,0 1093.75,0 1093.75,-36.5"/>
<text xml:space="preserve" text-anchor="start" x="986.75" y="-21.1" font-family="Helvetica,sans-Serif" font-size="12.00">Application/control</text>
<text xml:space="preserve" text-anchor="middle" x="1036.25" y="-6.85" font-family="Helvetica,sans-Serif" font-size="12.00">/motor_ctrl.c</text>
</a>
</g>
</g>
<!-- Node1&#45;&gt;Node9 -->
<g id="edge8_Node000001_Node000009" class="edge">
<title>Node1&#45;&gt;Node9</title>
<g id="a_edge8_Node000001_Node000009"><a xlink:title=" ">
<path fill="none" stroke="#63b8ff" d="M627.35,-83.26C710.79,-75.19 851.12,-59.59 970.25,-36.5 972.92,-35.98 975.65,-35.42 978.4,-34.82"/>
<polygon fill="#63b8ff" stroke="#63b8ff" points="627.09,-79.77 617.47,-84.2 627.76,-86.74 627.09,-79.77"/>
</a>
</g>
</g>
</g>
</svg>

<g id="navigator" transform="translate(0 0)" fill="#404254">
  <rect fill="#f2f5e9" fill-opacity="0.5" stroke="#606060" stroke-width=".5" x="0" y="0" width="60" height="60"/>
  <use id="zoomplus" xlink:href="#zoomPlus" x="17" y="9" onmousedown="handleZoom(evt,'in')"/>
  <use id="zoomminus" xlink:href="#zoomMin" x="42" y="9" onmousedown="handleZoom(evt,'out')"/>
  <use id="reset" xlink:href="#resetDef" x="30" y="36" onmousedown="handleReset()"/>
   <use id="arrowup" xlink:href="#arrowUp" x="0" y="0" onmousedown="handlePan(0,-1)"/>
  <use id="arrowright" xlink:href="#arrowRight" x="0" y="0" onmousedown="handlePan(1,0)"/>
  <use id="arrowdown" xlink:href="#arrowDown" x="0" y="0" onmousedown="handlePan(0,1)"/>
  <use id="arrowleft" xlink:href="#arrowLeft" x="0" y="0" onmousedown="handlePan(-1,0)"/>
</g>
<svg viewBox="0 0 15 15" width="100%" height="30px" preserveAspectRatio="xMaxYMin meet">
 <g id="arrow_out" transform="scale(0.3 0.3)">
  <a xlink:href="app__params_8h__dep__incl_org.svg" target="_base">
   <rect id="button" ry="5" rx="5" y="6" x="6" height="38" width="38"
        fill="#f2f5e9" fill-opacity="0.5" stroke="#606060" stroke-width="1.0"/>
   <path id="arrow"
     d="M 11.500037,31.436501 C 11.940474,20.09759 22.043105,11.32322 32.158766,21.979434 L 37.068811,17.246167 C 37.068811,17.246167 37.088388,32 37.088388,32 L 22.160133,31.978069 C 22.160133,31.978069 26.997745,27.140456 26.997745,27.140456 C 18.528582,18.264221 13.291696,25.230495 11.500037,31.436501 z"
     style="fill:#404040;"/>
  </a>
 </g>
</svg>

<style type='text/css'>
<![CDATA[
[data-mouse-over-selected='false'] { opacity: 0.7; }
[data-mouse-over-selected='true']  { opacity: 1.0; }
]]>
</style>
<script type="application/ecmascript"><![CDATA[
document.addEventListener('DOMContentLoaded', (event) => {
  highlightEdges();
  highlightAdjacentNodes();
});
]]></script>
</svg>
