<?xml version="1.0" encoding="UTF-8" standalone="no"?>
<!DOCTYPE svg PUBLIC "-//W3C//DTD SVG 1.1//EN"
 "http://www.w3.org/Graphics/SVG/1.1/DTD/svg11.dtd">
<!-- Generated by graphviz version 15.1.0 (20260618.0150)
 -->
<!-- Title: APP_PARAMS_Save Pages: 1 -->
<svg width="586pt" height="30pt"
 viewBox="0.00 0.00 586.00 30.00" xmlns="http://www.w3.org/2000/svg" xmlns:xlink="http://www.w3.org/1999/xlink">
<g id="graph0" class="graph" transform="scale(1 1) rotate(0) translate(4 26.25)">
<title>APP_PARAMS_Save</title>
<!-- Node1 -->
<g id="Node000001" class="node">
<title>Node1</title>
<g id="a_Node000001"><a xlink:title="立即保存参数（仅限电机封波状态下调用）">
<polygon fill="#999999" stroke="#666666" points="577.75,-22.25 445.5,-22.25 445.5,0 577.75,0 577.75,-22.25"/>
<text xml:space="preserve" text-anchor="middle" x="511.62" y="-6.85" font-family="Helvetica,sans-Serif" font-size="12.00">APP_PARAMS_Save</text>
</a>
</g>
</g>
<!-- Node2 -->
<g id="Node000002" class="node">
<title>Node2</title>
<g id="a_Node000002"><a xlink:href="app__params_8c.html#a9afc1399fb8fb19c72cd51a7a6e38051" target="_top" xlink:title="处理挂起的保存请求（后台循环调用）">
<polygon fill="white" stroke="#666666" points="409.5,-22.25 188.75,-22.25 188.75,0 409.5,0 409.5,-22.25"/>
<text xml:space="preserve" text-anchor="middle" x="299.12" y="-6.85" font-family="Helvetica,sans-Serif" font-size="12.00">APP_PARAMS_ProcessSaveRequest</text>
</a>
</g>
</g>
<!-- Node1&#45;&gt;Node2 -->
<g id="edge1_Node000001_Node000002" class="edge">
<title>Node1&#45;&gt;Node2</title>
<g id="a_edge1_Node000001_Node000002"><a xlink:title=" ">
<path fill="none" stroke="#63b8ff" d="M433.8,-11.12C425.9,-11.12 417.78,-11.12 409.62,-11.12"/>
<polygon fill="#63b8ff" stroke="#63b8ff" points="433.66,-14.63 443.66,-11.13 433.66,-7.63 433.66,-14.63"/>
</a>
</g>
</g>
<!-- Node3 -->
<g id="Node000003" class="node">
<title>Node3</title>
<g id="a_Node000003"><a xlink:href="app__main_8c.html#a6709d26bb67f905916b7c7f048b8396c" target="_top" xlink:title="后台超级循环体（main 的 while(1) 内调用）">
<polygon fill="white" stroke="#666666" points="152.75,-22.25 78.25,-22.25 78.25,0 152.75,0 152.75,-22.25"/>
<text xml:space="preserve" text-anchor="middle" x="115.5" y="-6.85" font-family="Helvetica,sans-Serif" font-size="12.00">APP_Loop</text>
</a>
</g>
</g>
<!-- Node2&#45;&gt;Node3 -->
<g id="edge2_Node000002_Node000003" class="edge">
<title>Node2&#45;&gt;Node3</title>
<g id="a_edge2_Node000002_Node000003"><a xlink:title=" ">
<path fill="none" stroke="#63b8ff" d="M176.98,-11.12C168.54,-11.12 160.49,-11.12 153.17,-11.12"/>
<polygon fill="#63b8ff" stroke="#63b8ff" points="176.77,-14.63 186.77,-11.13 176.77,-7.63 176.77,-14.63"/>
</a>
</g>
</g>
<!-- Node4 -->
<g id="Node000004" class="node">
<title>Node4</title>
<g id="a_Node000004"><a xlink:href="main_8c.html#a840291bc02cba5474a4cb46a9b9566fe" target="_top" xlink:title="The application entry point.">
<polygon fill="white" stroke="#666666" points="42.25,-22.25 0,-22.25 0,0 42.25,0 42.25,-22.25"/>
<text xml:space="preserve" text-anchor="middle" x="21.12" y="-6.85" font-family="Helvetica,sans-Serif" font-size="12.00">main</text>
</a>
</g>
</g>
<!-- Node3&#45;&gt;Node4 -->
<g id="edge3_Node000003_Node000004" class="edge">
<title>Node3&#45;&gt;Node4</title>
<g id="a_edge3_Node000003_Node000004"><a xlink:title=" ">
<path fill="none" stroke="#63b8ff" d="M66.58,-11.12C58.16,-11.12 49.83,-11.12 42.69,-11.12"/>
<polygon fill="#63b8ff" stroke="#63b8ff" points="66.48,-14.63 76.48,-11.13 66.48,-7.63 66.48,-14.63"/>
</a>
</g>
</g>
</g>
</svg>
