<?xml version="1.0" encoding="UTF-8" standalone="no"?>
<!DOCTYPE svg PUBLIC "-//W3C//DTD SVG 1.1//EN"
 "http://www.w3.org/Graphics/SVG/1.1/DTD/svg11.dtd">
<!-- Generated by graphviz version 15.1.0 (20260618.0150)
 -->
<!-- Title: Application/app/app_monitor.h Pages: 1 -->
<svg width="413pt" height="117pt"
 viewBox="0.00 0.00 413.00 117.00" xmlns="http://www.w3.org/2000/svg" xmlns:xlink="http://www.w3.org/1999/xlink">
<g id="graph0" class="graph" transform="scale(1 1) rotate(0) translate(4 113)">
<title>Application/app/app_monitor.h</title>
<!-- Node1 -->
<g id="Node000001" class="node">
<title>Node1</title>
<g id="a_Node000001"><a xlink:title="调试数据打印模块头文件">
<polygon fill="#999999" stroke="#666666" points="263.5,-109 141,-109 141,-72.5 263.5,-72.5 263.5,-109"/>
<text xml:space="preserve" text-anchor="start" x="149" y="-93.6" font-family="Helvetica,sans-Serif" font-size="12.00">Application/app/app</text>
<text xml:space="preserve" text-anchor="middle" x="202.25" y="-79.35" font-family="Helvetica,sans-Serif" font-size="12.00">_monitor.h</text>
</a>
</g>
</g>
<!-- Node2 -->
<g id="Node000002" class="node">
<title>Node2</title>
<g id="a_Node000002"><a xlink:href="app__main_8c.html" target="_top" xlink:title="应用入口模块（前后台调度）">
<polygon fill="white" stroke="#666666" points="122.5,-36.5 0,-36.5 0,0 122.5,0 122.5,-36.5"/>
<text xml:space="preserve" text-anchor="start" x="8" y="-21.1" font-family="Helvetica,sans-Serif" font-size="12.00">Application/app/app</text>
<text xml:space="preserve" text-anchor="middle" x="61.25" y="-6.85" font-family="Helvetica,sans-Serif" font-size="12.00">_main.c</text>
</a>
</g>
</g>
<!-- Node1&#45;&gt;Node2 -->
<g id="edge1_Node000001_Node000002" class="edge">
<title>Node1&#45;&gt;Node2</title>
<g id="a_edge1_Node000001_Node000002"><a xlink:title=" ">
<path fill="none" stroke="#63b8ff" d="M156.82,-67.04C137.27,-57.26 114.77,-46.01 96.51,-36.88"/>
<polygon fill="#63b8ff" stroke="#63b8ff" points="155.17,-70.12 165.68,-71.46 158.3,-63.86 155.17,-70.12"/>
</a>
</g>
</g>
<!-- Node3 -->
<g id="Node000003" class="node">
<title>Node3</title>
<g id="a_Node000003"><a xlink:href="app__monitor_8c.html" target="_top" xlink:title="调试数据打印模块">
<polygon fill="white" stroke="#666666" points="263.5,-36.5 141,-36.5 141,0 263.5,0 263.5,-36.5"/>
<text xml:space="preserve" text-anchor="start" x="149" y="-21.1" font-family="Helvetica,sans-Serif" font-size="12.00">Application/app/app</text>
<text xml:space="preserve" text-anchor="middle" x="202.25" y="-6.85" font-family="Helvetica,sans-Serif" font-size="12.00">_monitor.c</text>
</a>
</g>
</g>
<!-- Node1&#45;&gt;Node3 -->
<g id="edge2_Node000001_Node000003" class="edge">
<title>Node1&#45;&gt;Node3</title>
<g id="a_edge2_Node000001_Node000003"><a xlink:title=" ">
<path fill="none" stroke="#63b8ff" d="M202.25,-60.97C202.25,-52.84 202.25,-44.23 202.25,-36.97"/>
<polygon fill="#63b8ff" stroke="#63b8ff" points="198.75,-60.81 202.25,-70.81 205.75,-60.81 198.75,-60.81"/>
</a>
</g>
</g>
<!-- Node4 -->
<g id="Node000004" class="node">
<title>Node4</title>
<g id="a_Node000004"><a xlink:href="app__shell_8c.html" target="_top" xlink:title="调试 shell 模块（USART3，行式命令）">
<polygon fill="white" stroke="#666666" points="404.5,-36.5 282,-36.5 282,0 404.5,0 404.5,-36.5"/>
<text xml:space="preserve" text-anchor="start" x="290" y="-21.1" font-family="Helvetica,sans-Serif" font-size="12.00">Application/app/app</text>
<text xml:space="preserve" text-anchor="middle" x="343.25" y="-6.85" font-family="Helvetica,sans-Serif" font-size="12.00">_shell.c</text>
</a>
</g>
</g>
<!-- Node1&#45;&gt;Node4 -->
<g id="edge3_Node000001_Node000004" class="edge">
<title>Node1&#45;&gt;Node4</title>
<g id="a_edge3_Node000001_Node000004"><a xlink:title=" ">
<path fill="none" stroke="#63b8ff" d="M247.68,-67.04C267.23,-57.26 289.73,-46.01 307.99,-36.88"/>
<polygon fill="#63b8ff" stroke="#63b8ff" points="246.2,-63.86 238.82,-71.46 249.33,-70.12 246.2,-63.86"/>
</a>
</g>
</g>
</g>
</svg>
