<?xml version="1.0" encoding="UTF-8" standalone="no"?>
<!DOCTYPE svg PUBLIC "-//W3C//DTD SVG 1.1//EN"
 "http://www.w3.org/Graphics/SVG/1.1/DTD/svg11.dtd">
<!-- Generated by graphviz version 15.1.0 (20260618.0150)
 -->
<!-- Title: APP_SHELL_Boot0 Pages: 1 -->
<svg width="609pt" height="70pt"
 viewBox="0.00 0.00 609.00 70.00" xmlns="http://www.w3.org/2000/svg" xmlns:xlink="http://www.w3.org/1999/xlink">
<g id="graph0" class="graph" transform="scale(1 1) rotate(0) translate(4 66.25)">
<title>APP_SHELL_Boot0</title>
<!-- Node1 -->
<g id="Node000001" class="node">
<title>Node1</title>
<g id="a_Node000001"><a xlink:title="boot0 命令：检查/编程 nSWBOOT0 选项字节">
<polygon fill="#999999" stroke="#666666" points="124.75,-42.25 0,-42.25 0,-20 124.75,-20 124.75,-42.25"/>
<text xml:space="preserve" text-anchor="middle" x="62.38" y="-26.85" font-family="Helvetica,sans-Serif" font-size="12.00">APP_SHELL_Boot0</text>
</a>
</g>
</g>
<!-- Node2 -->
<g id="Node000002" class="node">
<title>Node2</title>
<g id="a_Node000002"><a xlink:href="bsp__uart_8c.html#af10770a9f83f7f036bd67db7c13ba8f0" target="_top" xlink:title="阻塞等待 TX 缓冲发空（仅限故障复位前等场景，不得在 ISR 中调用）">
<polygon fill="white" stroke="#666666" points="278,-62.25 160.75,-62.25 160.75,-40 278,-40 278,-62.25"/>
<text xml:space="preserve" text-anchor="middle" x="219.38" y="-46.85" font-family="Helvetica,sans-Serif" font-size="12.00">BSP_UART_Flush</text>
</a>
</g>
</g>
<!-- Node1&#45;&gt;Node2 -->
<g id="edge1_Node000001_Node000002" class="edge">
<title>Node1&#45;&gt;Node2</title>
<g id="a_edge1_Node000001_Node000002"><a xlink:title=" ">
<path fill="none" stroke="#63b8ff" d="M125.08,-39.09C133,-40.11 141.15,-41.16 149.18,-42.2"/>
<polygon fill="#63b8ff" stroke="#63b8ff" points="148.54,-45.64 158.91,-43.45 149.44,-38.7 148.54,-45.64"/>
</a>
</g>
</g>
<!-- Node3 -->
<g id="Node000003" class="node">
<title>Node3</title>
<g id="a_Node000003"><a xlink:href="bsp__uart_8c.html#ac8fe8954e03174bb365847f52531e218" target="_top" xlink:title="格式化打印到调试串口（非阻塞）">
<polygon fill="white" stroke="#666666" points="276.88,-22.25 161.88,-22.25 161.88,0 276.88,0 276.88,-22.25"/>
<text xml:space="preserve" text-anchor="middle" x="219.38" y="-6.85" font-family="Helvetica,sans-Serif" font-size="12.00">BSP_UART_Printf</text>
</a>
</g>
</g>
<!-- Node1&#45;&gt;Node3 -->
<g id="edge2_Node000001_Node000003" class="edge">
<title>Node1&#45;&gt;Node3</title>
<g id="a_edge2_Node000001_Node000003"><a xlink:title=" ">
<path fill="none" stroke="#63b8ff" d="M125.08,-23.16C133.32,-22.1 141.81,-21 150.16,-19.93"/>
<polygon fill="#63b8ff" stroke="#63b8ff" points="150.44,-23.42 159.91,-18.67 149.54,-16.48 150.44,-23.42"/>
</a>
</g>
</g>
<!-- Node4 -->
<g id="Node000004" class="node">
<title>Node4</title>
<g id="a_Node000004"><a xlink:href="bsp__uart_8c.html#a67e2eb7d361398076d0800612430f13c" target="_top" xlink:title="向 TX 环形缓冲写入数据（非阻塞）">
<polygon fill="white" stroke="#666666" points="429,-22.25 314,-22.25 314,0 429,0 429,-22.25"/>
<text xml:space="preserve" text-anchor="middle" x="371.5" y="-6.85" font-family="Helvetica,sans-Serif" font-size="12.00">BSP_UART_Write</text>
</a>
</g>
</g>
<!-- Node3&#45;&gt;Node4 -->
<g id="edge3_Node000003_Node000004" class="edge">
<title>Node3&#45;&gt;Node4</title>
<g id="a_edge3_Node000003_Node000004"><a xlink:title=" ">
<path fill="none" stroke="#63b8ff" d="M277.13,-11.12C285.35,-11.12 293.88,-11.12 302.3,-11.12"/>
<polygon fill="#63b8ff" stroke="#63b8ff" points="302.15,-14.63 312.15,-11.13 302.15,-7.63 302.15,-14.63"/>
</a>
</g>
</g>
<!-- Node5 -->
<g id="Node000005" class="node">
<title>Node5</title>
<g id="a_Node000005"><a xlink:href="bsp__uart_8c.html#ad4dee4b2dd593f1d4c141de95156546d" target="_top" xlink:title="若 DMA 空闲且缓冲有数据，则启动下一段 DMA 传输">
<polygon fill="white" stroke="#666666" points="601,-22.25 465,-22.25 465,0 601,0 601,-22.25"/>
<text xml:space="preserve" text-anchor="middle" x="533" y="-6.85" font-family="Helvetica,sans-Serif" font-size="12.00">BSP_UART_KickDma</text>
</a>
</g>
</g>
<!-- Node4&#45;&gt;Node5 -->
<g id="edge4_Node000004_Node000005" class="edge">
<title>Node4&#45;&gt;Node5</title>
<g id="a_edge4_Node000004_Node000005"><a xlink:title=" ">
<path fill="none" stroke="#63b8ff" d="M429.18,-11.12C436.97,-11.12 445.08,-11.12 453.18,-11.12"/>
<polygon fill="#63b8ff" stroke="#63b8ff" points="453.08,-14.63 463.08,-11.13 453.08,-7.63 453.08,-14.63"/>
</a>
</g>
</g>
</g>
</svg>
