<?xml version="1.0" encoding="UTF-8" standalone="no"?>
<!DOCTYPE svg PUBLIC "-//W3C//DTD SVG 1.1//EN"
 "http://www.w3.org/Graphics/SVG/1.1/DTD/svg11.dtd">
<!-- Generated by graphviz version 15.1.0 (20260618.0150)
 -->
<!-- Title: APP_CAN_RxHandler Pages: 1 -->
<svg width="918pt" height="822pt"
 viewBox="0.00 0.00 918.00 822.00" xmlns="http://www.w3.org/2000/svg" xmlns:xlink="http://www.w3.org/1999/xlink">
<g id="graph0" class="graph" transform="scale(1 1) rotate(0) translate(4 818.25)">
<title>APP_CAN_RxHandler</title>
<!-- Node1 -->
<g id="Node000001" class="node">
<title>Node1</title>
<g id="a_Node000001"><a xlink:title="CAN 接收分发（ISR 上下文）">
<polygon fill="#999999" stroke="#666666" points="138.25,-318.25 0,-318.25 0,-296 138.25,-296 138.25,-318.25"/>
<text xml:space="preserve" text-anchor="middle" x="69.12" y="-302.85" font-family="Helvetica,sans-Serif" font-size="12.00">APP_CAN_RxHandler</text>
</a>
</g>
</g>
<!-- Node2 -->
<g id="Node000002" class="node">
<title>Node2</title>
<g id="a_Node000002"><a xlink:href="app__can__protocol_8c.html#a962b5bb63f0dca9cd0efbd25455d6002" target="_top" xlink:title="配置通道处理">
<polygon fill="white" stroke="#666666" points="312.5,-476.25 174.25,-476.25 174.25,-454 312.5,-454 312.5,-476.25"/>
<text xml:space="preserve" text-anchor="middle" x="243.38" y="-460.85" font-family="Helvetica,sans-Serif" font-size="12.00">APP_CAN_HandleCfg</text>
</a>
</g>
</g>
<!-- Node1&#45;&gt;Node2 -->
<g id="edge1_Node000001_Node000002" class="edge">
<title>Node1&#45;&gt;Node2</title>
<g id="a_edge1_Node000001_Node000002"><a xlink:title=" ">
<path fill="none" stroke="#63b8ff" d="M82.79,-318.74C112.3,-345.81 185.85,-413.27 221.86,-446.3"/>
<polygon fill="#63b8ff" stroke="#63b8ff" points="219.3,-448.71 229.04,-452.89 224.03,-443.55 219.3,-448.71"/>
</a>
</g>
</g>
<!-- Node31 -->
<g id="Node000031" class="node">
<title>Node31</title>
<g id="a_Node000031"><a xlink:href="app__can__protocol_8c.html#a287ab0ebbb13b297320ec4082c51365b" target="_top" xlink:title="MIT 运控通道处理">
<polygon fill="white" stroke="#666666" points="311,-180.25 175.75,-180.25 175.75,-158 311,-158 311,-180.25"/>
<text xml:space="preserve" text-anchor="middle" x="243.38" y="-164.85" font-family="Helvetica,sans-Serif" font-size="12.00">APP_CAN_HandleMit</text>
</a>
</g>
</g>
<!-- Node1&#45;&gt;Node31 -->
<g id="edge38_Node000001_Node000031" class="edge">
<title>Node1&#45;&gt;Node31</title>
<g id="a_edge38_Node000001_Node000031"><a xlink:title=" ">
<path fill="none" stroke="#63b8ff" d="M84.51,-295.6C114.35,-271.69 183.18,-216.55 219.3,-187.61"/>
<polygon fill="#63b8ff" stroke="#63b8ff" points="221.35,-190.45 226.97,-181.47 216.97,-184.99 221.35,-190.45"/>
</a>
</g>
</g>
<!-- Node3 -->
<g id="Node000003" class="node">
<title>Node3</title>
<g id="a_Node000003"><a xlink:href="app__can__protocol_8c.html#a966f37b5d2949acd6d6432af5cbcbcec" target="_top" xlink:title="配置通道应答：cmd + 状态 + float 值">
<polygon fill="white" stroke="#666666" points="502.88,-536.25 372.12,-536.25 372.12,-514 502.88,-514 502.88,-536.25"/>
<text xml:space="preserve" text-anchor="middle" x="437.5" y="-520.85" font-family="Helvetica,sans-Serif" font-size="12.00">APP_CAN_CfgReply</text>
</a>
</g>
</g>
<!-- Node2&#45;&gt;Node3 -->
<g id="edge2_Node000002_Node000003" class="edge">
<title>Node2&#45;&gt;Node3</title>
<g id="a_edge2_Node000002_Node000003"><a xlink:title=" ">
<path fill="none" stroke="#63b8ff" d="M271.41,-476.74C292.21,-485.37 321.82,-497.01 348.5,-505.12 355.09,-507.13 362.01,-509.03 368.96,-510.82"/>
<polygon fill="#63b8ff" stroke="#63b8ff" points="367.83,-514.14 378.38,-513.15 369.51,-507.35 367.83,-514.14"/>
</a>
</g>
</g>
<!-- Node4 -->
<g id="Node000004" class="node">
<title>Node4</title>
<g id="a_Node000004"><a xlink:href="bsp__can_8c.html#a70c1a9dd4f5e80dddb8aa8c476c15af7" target="_top" xlink:title="发送一帧经典 CAN 数据帧（非阻塞，入 TX FIFO）">
<polygon fill="white" stroke="#666666" points="697.38,-537.25 588.38,-537.25 588.38,-515 697.38,-515 697.38,-537.25"/>
<text xml:space="preserve" text-anchor="middle" x="642.88" y="-521.85" font-family="Helvetica,sans-Serif" font-size="12.00">BSP_CAN_Send</text>
</a>
</g>
</g>
<!-- Node2&#45;&gt;Node4 -->
<g id="edge11_Node000002_Node000004" class="edge">
<title>Node2&#45;&gt;Node4</title>
<g id="a_edge11_Node000002_Node000004"><a xlink:title=" ">
<path fill="none" stroke="#63b8ff" d="M249.94,-476.55C262.99,-501.86 298.31,-562.23 348.5,-585.12 420.47,-617.96 449.59,-603.65 526.5,-585.12 559.5,-577.18 593.68,-558.1 616.19,-543.78"/>
<polygon fill="#63b8ff" stroke="#63b8ff" points="617.94,-546.81 624.39,-538.41 614.11,-540.95 617.94,-546.81"/>
</a>
</g>
</g>
<!-- Node5 -->
<g id="Node000005" class="node">
<title>Node5</title>
<g id="a_Node000005"><a xlink:href="app__can__protocol_8c.html#ae97d64d8caba7a4aee7b6ef40a26afb7" target="_top" xlink:title="按索引读参数（CAN 配置通道与 shell 共用）">
<polygon fill="white" stroke="#666666" points="526.5,-418.25 348.5,-418.25 348.5,-396 526.5,-396 526.5,-418.25"/>
<text xml:space="preserve" text-anchor="middle" x="437.5" y="-402.85" font-family="Helvetica,sans-Serif" font-size="12.00">APP_CAN_GetParamByIndex</text>
</a>
</g>
</g>
<!-- Node2&#45;&gt;Node5 -->
<g id="edge4_Node000002_Node000005" class="edge">
<title>Node2&#45;&gt;Node5</title>
<g id="a_edge4_Node000002_Node000005"><a xlink:title=" ">
<path fill="none" stroke="#63b8ff" d="M279.95,-453.56C300.03,-447.1 325.62,-439 348.5,-432.12 359.91,-428.7 372.19,-425.13 383.85,-421.8"/>
<polygon fill="#63b8ff" stroke="#63b8ff" points="384.67,-425.21 393.34,-419.11 382.76,-418.47 384.67,-425.21"/>
</a>
</g>
</g>
<!-- Node6 -->
<g id="Node000006" class="node">
<title>Node6</title>
<g id="a_Node000006"><a xlink:href="app__can__protocol_8c.html#a1c22c988dc67c917a70b53b3386fcfca" target="_top" xlink:title="按索引写参数（只读项与非法值拒绝，CAN 配置通道与 shell 共用）">
<polygon fill="white" stroke="#666666" points="526.12,-496.25 348.88,-496.25 348.88,-474 526.12,-474 526.12,-496.25"/>
<text xml:space="preserve" text-anchor="middle" x="437.5" y="-480.85" font-family="Helvetica,sans-Serif" font-size="12.00">APP_CAN_SetParamByIndex</text>
</a>
</g>
</g>
<!-- Node2&#45;&gt;Node6 -->
<g id="edge5_Node000002_Node000006" class="edge">
<title>Node2&#45;&gt;Node6</title>
<g id="a_edge5_Node000002_Node000006"><a xlink:title=" ">
<path fill="none" stroke="#63b8ff" d="M312.92,-472.26C320.85,-473.09 329.05,-473.94 337.28,-474.8"/>
<polygon fill="#63b8ff" stroke="#63b8ff" points="336.69,-478.25 347,-475.81 337.41,-471.29 336.69,-478.25"/>
</a>
</g>
</g>
<!-- Node8 -->
<g id="Node000008" class="node">
<title>Node8</title>
<g id="a_Node000008"><a xlink:href="motor__ctrl_8c.html#acd57a3a6a71d8ec4261dca794251a12a" target="_top" xlink:title="参数修改后刷新 PID 增益（shell/CAN 调参后调用）">
<polygon fill="white" stroke="#666666" points="708.62,-457.25 577.12,-457.25 577.12,-435 708.62,-435 708.62,-457.25"/>
<text xml:space="preserve" text-anchor="middle" x="642.88" y="-441.85" font-family="Helvetica,sans-Serif" font-size="12.00">MC_ApplyPidParams</text>
</a>
</g>
</g>
<!-- Node2&#45;&gt;Node8 -->
<g id="edge12_Node000002_Node000008" class="edge">
<title>Node2&#45;&gt;Node8</title>
<g id="a_edge12_Node000002_Node000008"><a xlink:title=" ">
<path fill="none" stroke="#63b8ff" d="M312.71,-461.86C382.98,-458.5 492.19,-453.28 565.32,-449.78"/>
<polygon fill="#63b8ff" stroke="#63b8ff" points="565.41,-453.28 575.23,-449.31 565.07,-446.29 565.41,-453.28"/>
</a>
</g>
</g>
<!-- Node10 -->
<g id="Node000010" class="node">
<title>Node10</title>
<g id="a_Node000010"><a xlink:href="app__params_8c.html#afa4da68e24e6b332803f4e131cd9ea31" target="_top" xlink:title="加载编译期默认参数">
<polygon fill="white" stroke="#666666" points="525.38,-814.25 349.62,-814.25 349.62,-792 525.38,-792 525.38,-814.25"/>
<text xml:space="preserve" text-anchor="middle" x="437.5" y="-798.85" font-family="Helvetica,sans-Serif" font-size="12.00">APP_PARAMS_LoadDefaults</text>
</a>
</g>
</g>
<!-- Node2&#45;&gt;Node10 -->
<g id="edge9_Node000002_Node000010" class="edge">
<title>Node2&#45;&gt;Node10</title>
<g id="a_edge9_Node000002_Node000010"><a xlink:title=" ">
<path fill="none" stroke="#63b8ff" d="M244.36,-476.48C244.95,-522.49 253.6,-696.66 348.5,-783.12 349.29,-783.84 350.09,-784.53 350.91,-785.2"/>
<polygon fill="#63b8ff" stroke="#63b8ff" points="348.86,-788.04 359.12,-790.67 352.74,-782.21 348.86,-788.04"/>
</a>
</g>
</g>
<!-- Node11 -->
<g id="Node000011" class="node">
<title>Node11</title>
<g id="a_Node000011"><a xlink:href="app__params_8c.html#a2c145abd191edf697c7d319f120390fb" target="_top" xlink:title="请求保存参数（任意上下文安全，后台择机执行）">
<polygon fill="white" stroke="#666666" points="526.12,-774.25 348.88,-774.25 348.88,-752 526.12,-752 526.12,-774.25"/>
<text xml:space="preserve" text-anchor="middle" x="437.5" y="-758.85" font-family="Helvetica,sans-Serif" font-size="12.00">APP_PARAMS_RequestSave</text>
</a>
</g>
</g>
<!-- Node2&#45;&gt;Node11 -->
<g id="edge10_Node000002_Node000011" class="edge">
<title>Node2&#45;&gt;Node11</title>
<g id="a_edge10_Node000002_Node000011"><a xlink:title=" ">
<path fill="none" stroke="#63b8ff" d="M244.96,-476.5C247.8,-518.9 263.69,-669.04 348.5,-743.12 349.44,-743.95 350.41,-744.74 351.41,-745.5"/>
<polygon fill="#63b8ff" stroke="#63b8ff" points="349.36,-748.35 359.68,-750.75 353.11,-742.44 349.36,-748.35"/>
</a>
</g>
</g>
<!-- Node12 -->
<g id="Node000012" class="node">
<title>Node12</title>
<g id="a_Node000012"><a xlink:href="motor__ctrl_8c.html#a827231f68dfabeb070811b39e11a267c" target="_top" xlink:title="清除故障（故障源已消失时）">
<polygon fill="white" stroke="#666666" points="486.38,-734.25 388.62,-734.25 388.62,-712 486.38,-712 486.38,-734.25"/>
<text xml:space="preserve" text-anchor="middle" x="437.5" y="-718.85" font-family="Helvetica,sans-Serif" font-size="12.00">MC_ClearFault</text>
</a>
</g>
</g>
<!-- Node2&#45;&gt;Node12 -->
<g id="edge13_Node000002_Node000012" class="edge">
<title>Node2&#45;&gt;Node12</title>
<g id="a_edge13_Node000002_Node000012"><a xlink:title=" ">
<path fill="none" stroke="#63b8ff" d="M245.78,-476.73C251.12,-515.46 273.77,-641.33 348.5,-703.12 356.83,-710.02 367.07,-714.65 377.58,-717.73"/>
<polygon fill="#63b8ff" stroke="#63b8ff" points="376.54,-721.08 387.09,-720.06 378.21,-714.28 376.54,-721.08"/>
</a>
</g>
</g>
<!-- Node14 -->
<g id="Node000014" class="node">
<title>Node14</title>
<g id="a_Node000014"><a xlink:href="motor__ctrl_8c.html#aceb46c7be868a0b12dffa105e3d0581e" target="_top" xlink:title="封波（ISR 安全）">
<polygon fill="white" stroke="#666666" points="478.88,-180.25 396.12,-180.25 396.12,-158 478.88,-158 478.88,-180.25"/>
<text xml:space="preserve" text-anchor="middle" x="437.5" y="-164.85" font-family="Helvetica,sans-Serif" font-size="12.00">MC_Disable</text>
</a>
</g>
</g>
<!-- Node2&#45;&gt;Node14 -->
<g id="edge15_Node000002_Node000014" class="edge">
<title>Node2&#45;&gt;Node14</title>
<g id="a_edge15_Node000002_Node000014"><a xlink:title=" ">
<path fill="none" stroke="#63b8ff" d="M245.01,-453.53C248,-411.04 264.33,-262.47 348.5,-189.12 358.55,-180.37 371.64,-175.22 384.64,-172.26"/>
<polygon fill="#63b8ff" stroke="#63b8ff" points="385.27,-175.7 394.47,-170.45 384,-168.81 385.27,-175.7"/>
</a>
</g>
</g>
<!-- Node18 -->
<g id="Node000018" class="node">
<title>Node18</title>
<g id="a_Node000018"><a xlink:href="motor__ctrl_8c.html#a8d1ee75d00d8c0f2d2d78f89d002efec" target="_top" xlink:title="使能功率输出">
<polygon fill="white" stroke="#666666" points="477.38,-298.25 397.62,-298.25 397.62,-276 477.38,-276 477.38,-298.25"/>
<text xml:space="preserve" text-anchor="middle" x="437.5" y="-282.85" font-family="Helvetica,sans-Serif" font-size="12.00">MC_Enable</text>
</a>
</g>
</g>
<!-- Node2&#45;&gt;Node18 -->
<g id="edge20_Node000002_Node000018" class="edge">
<title>Node2&#45;&gt;Node18</title>
<g id="a_edge20_Node000002_Node000018"><a xlink:title=" ">
<path fill="none" stroke="#63b8ff" d="M248.37,-453.81C259.35,-424.49 292.87,-345.66 348.5,-307.12 359.67,-299.39 373.37,-294.6 386.6,-291.65"/>
<polygon fill="#63b8ff" stroke="#63b8ff" points="386.88,-295.16 396.06,-289.86 385.58,-288.28 386.88,-295.16"/>
</a>
</g>
</g>
<!-- Node21 -->
<g id="Node000021" class="node">
<title>Node21</title>
<g id="a_Node000021"><a xlink:href="protection_8c.html#a06029022ac7e5b95690b0119794c83d6" target="_top" xlink:title="喂 CAN 指令看门狗（收到有效运动指令时调用）">
<polygon fill="white" stroke="#666666" points="723.25,-219.25 562.5,-219.25 562.5,-197 723.25,-197 723.25,-219.25"/>
<text xml:space="preserve" text-anchor="middle" x="642.88" y="-203.85" font-family="Helvetica,sans-Serif" font-size="12.00">PROT_FeedCanWatchdog</text>
</a>
</g>
</g>
<!-- Node2&#45;&gt;Node21 -->
<g id="edge37_Node000002_Node000021" class="edge">
<title>Node2&#45;&gt;Node21</title>
<g id="a_edge37_Node000002_Node000021"><a xlink:title=" ">
<path fill="none" stroke="#63b8ff" d="M246.7,-453.96C254.43,-419.87 282.58,-316.47 348.5,-267.12 352.98,-263.77 484.27,-238.22 569.68,-221.86"/>
<polygon fill="#63b8ff" stroke="#63b8ff" points="570.24,-225.31 579.41,-220 568.93,-218.44 570.24,-225.31"/>
</a>
</g>
</g>
<!-- Node22 -->
<g id="Node000022" class="node">
<title>Node22</title>
<g id="a_Node000022"><a xlink:href="motor__ctrl_8c.html#ab0638fb9fe58dcbe6f0fb3d5ed81d28c" target="_top" xlink:title="切换控制模式（仅封波状态允许）">
<polygon fill="white" stroke="#666666" points="482.25,-220.25 392.75,-220.25 392.75,-198 482.25,-198 482.25,-220.25"/>
<text xml:space="preserve" text-anchor="middle" x="437.5" y="-204.85" font-family="Helvetica,sans-Serif" font-size="12.00">MC_SetMode</text>
</a>
</g>
</g>
<!-- Node2&#45;&gt;Node22 -->
<g id="edge26_Node000002_Node000022" class="edge">
<title>Node2&#45;&gt;Node22</title>
<g id="a_edge26_Node000002_Node000022"><a xlink:title=" ">
<path fill="none" stroke="#63b8ff" d="M246.07,-453.74C252.24,-416.29 277.07,-295.78 348.5,-234.12 357.89,-226.02 369.74,-220.53 381.67,-216.82"/>
<polygon fill="#63b8ff" stroke="#63b8ff" points="382.38,-220.26 391.13,-214.28 380.56,-213.5 382.38,-220.26"/>
</a>
</g>
</g>
<!-- Node23 -->
<g id="Node000023" class="node">
<title>Node23</title>
<g id="a_Node000023"><a xlink:href="motor__ctrl_8c.html#a99b65c0c0b41906fc3146d52e1b879be" target="_top" xlink:title="设置输出轴位置给定（POSITION 模式）">
<polygon fill="white" stroke="#666666" points="487.12,-654.25 387.88,-654.25 387.88,-632 487.12,-632 487.12,-654.25"/>
<text xml:space="preserve" text-anchor="middle" x="437.5" y="-638.85" font-family="Helvetica,sans-Serif" font-size="12.00">MC_SetPosRef</text>
</a>
</g>
</g>
<!-- Node2&#45;&gt;Node23 -->
<g id="edge27_Node000002_Node000023" class="edge">
<title>Node2&#45;&gt;Node23</title>
<g id="a_edge27_Node000002_Node000023"><a xlink:title=" ">
<path fill="none" stroke="#63b8ff" d="M248.77,-476.33C260.45,-504.66 295.08,-579.59 348.5,-618.12 356.92,-624.2 366.77,-628.8 376.78,-632.29"/>
<polygon fill="#63b8ff" stroke="#63b8ff" points="375.61,-635.59 386.2,-635.2 377.68,-628.9 375.61,-635.59"/>
</a>
</g>
</g>
<!-- Node24 -->
<g id="Node000024" class="node">
<title>Node24</title>
<g id="a_Node000024"><a xlink:href="motor__ctrl_8c.html#ad9fdc2a937331479bd701139807ad7b2" target="_top" xlink:title="设置输出轴速度给定（SPEED 模式）">
<polygon fill="white" stroke="#666666" points="494.25,-694.25 380.75,-694.25 380.75,-672 494.25,-672 494.25,-694.25"/>
<text xml:space="preserve" text-anchor="middle" x="437.5" y="-678.85" font-family="Helvetica,sans-Serif" font-size="12.00">MC_SetSpeedRef</text>
</a>
</g>
</g>
<!-- Node2&#45;&gt;Node24 -->
<g id="edge28_Node000002_Node000024" class="edge">
<title>Node2&#45;&gt;Node24</title>
<g id="a_edge28_Node000002_Node000024"><a xlink:title=" ">
<path fill="none" stroke="#63b8ff" d="M246.87,-476.7C254.92,-511.06 283.51,-613.2 348.5,-663.12 354.83,-667.99 362.13,-671.71 369.77,-674.55"/>
<polygon fill="#63b8ff" stroke="#63b8ff" points="368.67,-677.88 379.26,-677.55 370.78,-671.2 368.67,-677.88"/>
</a>
</g>
</g>
<!-- Node26 -->
<g id="Node000026" class="node">
<title>Node26</title>
<g id="a_Node000026"><a xlink:href="motor__ctrl_8c.html#aef22984edf5c5a02be46b64d26f8534a" target="_top" xlink:title="设置输出轴转矩给定（TORQUE 模式，内部折算为 iq）">
<polygon fill="white" stroke="#666666" points="485.62,-576.25 389.38,-576.25 389.38,-554 485.62,-554 485.62,-576.25"/>
<text xml:space="preserve" text-anchor="middle" x="437.5" y="-560.85" font-family="Helvetica,sans-Serif" font-size="12.00">MC_SetTorque</text>
</a>
</g>
</g>
<!-- Node2&#45;&gt;Node26 -->
<g id="edge30_Node000002_Node000026" class="edge">
<title>Node2&#45;&gt;Node26</title>
<g id="a_edge30_Node000002_Node000026"><a xlink:title=" ">
<path fill="none" stroke="#63b8ff" d="M255.74,-476.6C273.76,-494.13 310.74,-527.38 348.5,-545.12 357.77,-549.48 368.04,-552.92 378.2,-555.62"/>
<polygon fill="#63b8ff" stroke="#63b8ff" points="377.11,-558.95 387.65,-557.91 378.76,-552.15 377.11,-558.95"/>
</a>
</g>
</g>
<!-- Node27 -->
<g id="Node000027" class="node">
<title>Node27</title>
<g id="a_Node000027"><a xlink:href="motor__ctrl_8c.html#a64722c426a5d2fd53b95c12a85f22120" target="_top" xlink:title="以当前位置为输出轴零位">
<polygon fill="white" stroke="#666666" points="492.75,-140.25 382.25,-140.25 382.25,-118 492.75,-118 492.75,-140.25"/>
<text xml:space="preserve" text-anchor="middle" x="437.5" y="-124.85" font-family="Helvetica,sans-Serif" font-size="12.00">MC_SetZeroHere</text>
</a>
</g>
</g>
<!-- Node2&#45;&gt;Node27 -->
<g id="edge31_Node000002_Node000027" class="edge">
<title>Node2&#45;&gt;Node27</title>
<g id="a_edge31_Node000002_Node000027"><a xlink:title=" ">
<path fill="none" stroke="#63b8ff" d="M244.39,-453.52C245.12,-407.33 254.27,-234.82 348.5,-149.12 355.02,-143.2 362.92,-138.91 371.29,-135.82"/>
<polygon fill="#63b8ff" stroke="#63b8ff" points="372.07,-139.24 380.61,-132.97 370.03,-132.55 372.07,-139.24"/>
</a>
</g>
</g>
<!-- Node28 -->
<g id="Node000028" class="node">
<title>Node28</title>
<g id="a_Node000028"><a xlink:href="motor__ctrl_8c.html#afb3414a066c16e68add2218d01f59942" target="_top" xlink:title="启动预定位校准（封波状态下）">
<polygon fill="white" stroke="#666666" points="499.88,-338.25 375.12,-338.25 375.12,-316 499.88,-316 499.88,-338.25"/>
<text xml:space="preserve" text-anchor="middle" x="437.5" y="-322.85" font-family="Helvetica,sans-Serif" font-size="12.00">MC_StartCalibration</text>
</a>
</g>
</g>
<!-- Node2&#45;&gt;Node28 -->
<g id="edge32_Node000002_Node000028" class="edge">
<title>Node2&#45;&gt;Node28</title>
<g id="a_edge32_Node000002_Node000028"><a xlink:title=" ">
<path fill="none" stroke="#63b8ff" d="M251.04,-453.59C265.5,-429.66 302.21,-374.6 348.5,-347.12 353.43,-344.2 358.74,-341.7 364.23,-339.57"/>
<polygon fill="#63b8ff" stroke="#63b8ff" points="365.19,-342.94 373.52,-336.4 362.93,-336.32 365.19,-342.94"/>
</a>
</g>
</g>
<!-- Node3&#45;&gt;Node4 -->
<g id="edge3_Node000003_Node000004" class="edge">
<title>Node3&#45;&gt;Node4</title>
<g id="a_edge3_Node000003_Node000004"><a xlink:title=" ">
<path fill="none" stroke="#63b8ff" d="M503.13,-525.44C526.62,-525.56 553.16,-525.69 576.7,-525.8"/>
<polygon fill="#63b8ff" stroke="#63b8ff" points="576.46,-529.3 586.47,-525.85 576.49,-522.3 576.46,-529.3"/>
</a>
</g>
</g>
<!-- Node7 -->
<g id="Node000007" class="node">
<title>Node7</title>
<g id="a_Node000007"><a xlink:href="bsp__can_8c.html#ab09830a7aa5df9b3a6fa393538f81ab8" target="_top" xlink:title="切换 120 欧终端电阻（TS5A3159 模拟开关）">
<polygon fill="white" stroke="#666666" points="723.25,-497.25 562.5,-497.25 562.5,-475 723.25,-475 723.25,-497.25"/>
<text xml:space="preserve" text-anchor="middle" x="642.88" y="-481.85" font-family="Helvetica,sans-Serif" font-size="12.00">BSP_CAN_SetTermination</text>
</a>
</g>
</g>
<!-- Node6&#45;&gt;Node7 -->
<g id="edge6_Node000006_Node000007" class="edge">
<title>Node6&#45;&gt;Node7</title>
<g id="a_edge6_Node000006_Node000007"><a xlink:title=" ">
<path fill="none" stroke="#63b8ff" d="M526.52,-485.56C534.55,-485.6 542.69,-485.64 550.74,-485.68"/>
<polygon fill="#63b8ff" stroke="#63b8ff" points="550.51,-489.18 560.53,-485.73 550.55,-482.18 550.51,-489.18"/>
</a>
</g>
</g>
<!-- Node6&#45;&gt;Node8 -->
<g id="edge7_Node000006_Node000008" class="edge">
<title>Node6&#45;&gt;Node8</title>
<g id="a_edge7_Node000006_Node000008"><a xlink:title=" ">
<path fill="none" stroke="#63b8ff" d="M498.97,-473.53C521.31,-469.25 546.84,-464.35 570.08,-459.89"/>
<polygon fill="#63b8ff" stroke="#63b8ff" points="570.64,-463.35 579.8,-458.03 569.32,-456.47 570.64,-463.35"/>
</a>
</g>
</g>
<!-- Node9 -->
<g id="Node000009" class="node">
<title>Node9</title>
<g id="a_Node000009"><a xlink:href="pid_8c.html#a8977cc689f8f72deff8a981ff5da901f" target="_top" xlink:title="运行中修改增益（不复位积分，保证无扰切换）">
<polygon fill="white" stroke="#666666" points="881,-457.25 788.5,-457.25 788.5,-435 881,-435 881,-457.25"/>
<text xml:space="preserve" text-anchor="middle" x="834.75" y="-441.85" font-family="Helvetica,sans-Serif" font-size="12.00">PID_SetGains</text>
</a>
</g>
</g>
<!-- Node8&#45;&gt;Node9 -->
<g id="edge8_Node000008_Node000009" class="edge">
<title>Node8&#45;&gt;Node9</title>
<g id="a_edge8_Node000008_Node000009"><a xlink:title=" ">
<path fill="none" stroke="#63b8ff" d="M708.95,-446.12C730.96,-446.12 755.36,-446.12 776.7,-446.12"/>
<polygon fill="#63b8ff" stroke="#63b8ff" points="776.69,-449.63 786.69,-446.13 776.69,-442.63 776.69,-449.63"/>
</a>
</g>
</g>
<!-- Node13 -->
<g id="Node000013" class="node">
<title>Node13</title>
<g id="a_Node000013"><a xlink:href="protection_8c.html#a2edece24ac432f98c28ec146bfc9eb54" target="_top" xlink:title="初始化保护模块">
<polygon fill="white" stroke="#666666" points="679,-734.25 606.75,-734.25 606.75,-712 679,-712 679,-734.25"/>
<text xml:space="preserve" text-anchor="middle" x="642.88" y="-718.85" font-family="Helvetica,sans-Serif" font-size="12.00">PROT_Init</text>
</a>
</g>
</g>
<!-- Node12&#45;&gt;Node13 -->
<g id="edge14_Node000012_Node000013" class="edge">
<title>Node12&#45;&gt;Node13</title>
<g id="a_edge14_Node000012_Node000013"><a xlink:title=" ">
<path fill="none" stroke="#63b8ff" d="M486.7,-723.12C519.44,-723.12 562.53,-723.12 594.99,-723.12"/>
<polygon fill="#63b8ff" stroke="#63b8ff" points="594.92,-726.63 604.92,-723.13 594.92,-719.63 594.92,-726.63"/>
</a>
</g>
</g>
<!-- Node15 -->
<g id="Node000015" class="node">
<title>Node15</title>
<g id="a_Node000015"><a xlink:href="bsp__pwm_8c.html#a2664b56ad93d867fb05741e710ff942d" target="_top" xlink:title="封波（输出高阻，电机 freewheel）">
<polygon fill="white" stroke="#666666" points="705.25,-179.25 580.5,-179.25 580.5,-157 705.25,-157 705.25,-179.25"/>
<text xml:space="preserve" text-anchor="middle" x="642.88" y="-163.85" font-family="Helvetica,sans-Serif" font-size="12.00">BSP_PWM_Disable</text>
</a>
</g>
</g>
<!-- Node14&#45;&gt;Node15 -->
<g id="edge16_Node000014_Node000015" class="edge">
<title>Node14&#45;&gt;Node15</title>
<g id="a_edge16_Node000014_Node000015"><a xlink:title=" ">
<path fill="none" stroke="#63b8ff" d="M479.17,-168.93C504.76,-168.8 538.54,-168.63 568.68,-168.48"/>
<polygon fill="#63b8ff" stroke="#63b8ff" points="568.54,-171.99 578.52,-168.44 568.5,-164.99 568.54,-171.99"/>
</a>
</g>
</g>
<!-- Node16 -->
<g id="Node000016" class="node">
<title>Node16</title>
<g id="a_Node000016"><a xlink:href="foc_8c.html#aa25cf599086b4ad815ae5ad72dcfdec4" target="_top" xlink:title="复位电流环状态（封波后重新使能前调用，防止积分残留冲击）">
<polygon fill="white" stroke="#666666" points="682.75,-259.25 603,-259.25 603,-237 682.75,-237 682.75,-259.25"/>
<text xml:space="preserve" text-anchor="middle" x="642.88" y="-243.85" font-family="Helvetica,sans-Serif" font-size="12.00">FOC_Reset</text>
</a>
</g>
</g>
<!-- Node14&#45;&gt;Node16 -->
<g id="edge17_Node000014_Node000016" class="edge">
<title>Node14&#45;&gt;Node16</title>
<g id="a_edge17_Node000014_Node000016"><a xlink:title=" ">
<path fill="none" stroke="#63b8ff" d="M479.37,-173.19C494.9,-176.04 512.26,-180.89 526.5,-189.12 546.92,-200.94 542.22,-216.08 562.5,-228.12 571.38,-233.4 581.62,-237.3 591.73,-240.16"/>
<polygon fill="#63b8ff" stroke="#63b8ff" points="590.56,-243.48 601.11,-242.52 592.27,-236.69 590.56,-243.48"/>
</a>
</g>
</g>
<!-- Node17 -->
<g id="Node000017" class="node">
<title>Node17</title>
<g id="a_Node000017"><a xlink:href="pid_8c.html#acb76685b15d3fde29d9bd5548b3268c1" target="_top" xlink:title="复位 PID 内部状态（积分/历史误差/输出）">
<polygon fill="white" stroke="#666666" points="872,-259.25 797.5,-259.25 797.5,-237 872,-237 872,-259.25"/>
<text xml:space="preserve" text-anchor="middle" x="834.75" y="-243.85" font-family="Helvetica,sans-Serif" font-size="12.00">PID_Reset</text>
</a>
</g>
</g>
<!-- Node14&#45;&gt;Node17 -->
<g id="edge19_Node000014_Node000017" class="edge">
<title>Node14&#45;&gt;Node17</title>
<g id="a_edge19_Node000014_Node000017"><a xlink:title=" ">
<path fill="none" stroke="#63b8ff" d="M479.33,-160.44C503.41,-155.76 534.54,-150.48 562.5,-148.12 633.69,-142.14 656.58,-122.44 723.25,-148.12 764.42,-163.99 799.76,-203.08 818.78,-227.42"/>
<polygon fill="#63b8ff" stroke="#63b8ff" points="815.95,-229.48 824.77,-235.34 821.53,-225.25 815.95,-229.48"/>
</a>
</g>
</g>
<!-- Node16&#45;&gt;Node17 -->
<g id="edge18_Node000016_Node000017" class="edge">
<title>Node16&#45;&gt;Node17</title>
<g id="a_edge18_Node000016_Node000017"><a xlink:title=" ">
<path fill="none" stroke="#63b8ff" d="M683.22,-248.12C713.01,-248.12 754.09,-248.12 785.81,-248.12"/>
<polygon fill="#63b8ff" stroke="#63b8ff" points="785.52,-251.63 795.52,-248.13 785.52,-244.63 785.52,-251.63"/>
</a>
</g>
</g>
<!-- Node18&#45;&gt;Node16 -->
<g id="edge23_Node000018_Node000016" class="edge">
<title>Node18&#45;&gt;Node16</title>
<g id="a_edge23_Node000018_Node000016"><a xlink:title=" ">
<path fill="none" stroke="#63b8ff" d="M477.71,-279.61C510.21,-273.37 556.6,-264.48 591.79,-257.73"/>
<polygon fill="#63b8ff" stroke="#63b8ff" points="592.13,-261.23 601.3,-255.91 590.82,-254.35 592.13,-261.23"/>
</a>
</g>
</g>
<!-- Node18&#45;&gt;Node17 -->
<g id="edge24_Node000018_Node000017" class="edge">
<title>Node18&#45;&gt;Node17</title>
<g id="a_edge24_Node000018_Node000017"><a xlink:title=" ">
<path fill="none" stroke="#63b8ff" d="M477.78,-285.9C532.83,-283.87 635.97,-278.9 723.25,-268.12 743.86,-265.58 766.44,-261.69 785.79,-258.02"/>
<polygon fill="#63b8ff" stroke="#63b8ff" points="786.44,-261.46 795.59,-256.12 785.11,-254.59 786.44,-261.46"/>
</a>
</g>
</g>
<!-- Node19 -->
<g id="Node000019" class="node">
<title>Node19</title>
<g id="a_Node000019"><a xlink:href="bsp__pwm_8c.html#a4bdefcd18b0b080f1e8db825e33c80e8" target="_top" xlink:title="使能功率输出（解除封波）">
<polygon fill="white" stroke="#666666" points="703.75,-337.25 582,-337.25 582,-315 703.75,-315 703.75,-337.25"/>
<text xml:space="preserve" text-anchor="middle" x="642.88" y="-321.85" font-family="Helvetica,sans-Serif" font-size="12.00">BSP_PWM_Enable</text>
</a>
</g>
</g>
<!-- Node18&#45;&gt;Node19 -->
<g id="edge21_Node000018_Node000019" class="edge">
<title>Node18&#45;&gt;Node19</title>
<g id="a_edge21_Node000018_Node000019"><a xlink:title=" ">
<path fill="none" stroke="#63b8ff" d="M477.71,-294.64C503.93,-299.67 539.19,-306.43 570.31,-312.4"/>
<polygon fill="#63b8ff" stroke="#63b8ff" points="569.59,-315.83 580.07,-314.27 570.91,-308.95 569.59,-315.83"/>
</a>
</g>
</g>
<!-- Node18&#45;&gt;Node21 -->
<g id="edge25_Node000018_Node000021" class="edge">
<title>Node18&#45;&gt;Node21</title>
<g id="a_edge25_Node000018_Node000021"><a xlink:title=" ">
<path fill="none" stroke="#63b8ff" d="M477.78,-280.22C493.6,-276.37 511.59,-270.6 526.5,-262.12 545.63,-251.25 543.21,-238.71 562.5,-228.12 565.36,-226.55 568.35,-225.11 571.42,-223.77"/>
<polygon fill="#63b8ff" stroke="#63b8ff" points="572.61,-227.06 580.67,-220.18 570.08,-220.53 572.61,-227.06"/>
</a>
</g>
</g>
<!-- Node20 -->
<g id="Node000020" class="node">
<title>Node20</title>
<g id="a_Node000020"><a xlink:href="bsp__pwm_8c.html#af4a87e2cef845a3eba6d0170011ff08d" target="_top" xlink:title="三相占空比清零（低侧全导通：自举预充/动态刹车态）">
<polygon fill="white" stroke="#666666" points="910.25,-337.25 759.25,-337.25 759.25,-315 910.25,-315 910.25,-337.25"/>
<text xml:space="preserve" text-anchor="middle" x="834.75" y="-321.85" font-family="Helvetica,sans-Serif" font-size="12.00">BSP_PWM_SetDutyZero</text>
</a>
</g>
</g>
<!-- Node19&#45;&gt;Node20 -->
<g id="edge22_Node000019_Node000020" class="edge">
<title>Node19&#45;&gt;Node20</title>
<g id="a_edge22_Node000019_Node000020"><a xlink:title=" ">
<path fill="none" stroke="#63b8ff" d="M704.21,-326.12C718.06,-326.12 733.04,-326.12 747.74,-326.12"/>
<polygon fill="#63b8ff" stroke="#63b8ff" points="747.38,-329.63 757.38,-326.13 747.38,-322.63 747.38,-329.63"/>
</a>
</g>
</g>
<!-- Node25 -->
<g id="Node000025" class="node">
<title>Node25</title>
<g id="a_Node000025"><a xlink:href="motor__ctrl_8c.html#a5cbc0a7993d542a75e755f2e4dc5ab1e" target="_top" xlink:title="对称限幅">
<polygon fill="white" stroke="#666666" points="681.25,-694.25 604.5,-694.25 604.5,-672 681.25,-672 681.25,-694.25"/>
<text xml:space="preserve" text-anchor="middle" x="642.88" y="-678.85" font-family="Helvetica,sans-Serif" font-size="12.00">MC_Clamp</text>
</a>
</g>
</g>
<!-- Node24&#45;&gt;Node25 -->
<g id="edge29_Node000024_Node000025" class="edge">
<title>Node24&#45;&gt;Node25</title>
<g id="a_edge29_Node000024_Node000025"><a xlink:title=" ">
<path fill="none" stroke="#63b8ff" d="M494.61,-683.12C525.44,-683.12 563.31,-683.12 592.93,-683.12"/>
<polygon fill="#63b8ff" stroke="#63b8ff" points="592.74,-686.63 602.74,-683.13 592.74,-679.63 592.74,-686.63"/>
</a>
</g>
</g>
<!-- Node28&#45;&gt;Node16 -->
<g id="edge36_Node000028_Node000016" class="edge">
<title>Node28&#45;&gt;Node16</title>
<g id="a_edge36_Node000028_Node000016"><a xlink:title=" ">
<path fill="none" stroke="#63b8ff" d="M498.72,-315.54C508.13,-313.13 517.66,-310.33 526.5,-307.12 557.31,-295.94 590.42,-278.38 613.23,-265.32"/>
<polygon fill="#63b8ff" stroke="#63b8ff" points="614.75,-268.49 621.63,-260.44 611.23,-262.44 614.75,-268.49"/>
</a>
</g>
</g>
<!-- Node28&#45;&gt;Node19 -->
<g id="edge33_Node000028_Node000019" class="edge">
<title>Node28&#45;&gt;Node19</title>
<g id="a_edge33_Node000028_Node000019"><a xlink:title=" ">
<path fill="none" stroke="#63b8ff" d="M500.35,-326.82C522.44,-326.71 547.52,-326.59 570.36,-326.48"/>
<polygon fill="#63b8ff" stroke="#63b8ff" points="570.22,-329.98 580.2,-326.43 570.19,-322.98 570.22,-329.98"/>
</a>
</g>
</g>
<!-- Node29 -->
<g id="Node000029" class="node">
<title>Node29</title>
<g id="a_Node000029"><a xlink:href="calibration_8c.html#a799bd918d9fd1f5b3c231d1d92b7fe0d" target="_top" xlink:title="启动校准状态机">
<polygon fill="white" stroke="#666666" points="678.62,-377.25 607.12,-377.25 607.12,-355 678.62,-355 678.62,-377.25"/>
<text xml:space="preserve" text-anchor="middle" x="642.88" y="-361.85" font-family="Helvetica,sans-Serif" font-size="12.00">CAL_Start</text>
</a>
</g>
</g>
<!-- Node28&#45;&gt;Node29 -->
<g id="edge34_Node000028_Node000029" class="edge">
<title>Node28&#45;&gt;Node29</title>
<g id="a_edge34_Node000028_Node000029"><a xlink:title=" ">
<path fill="none" stroke="#63b8ff" d="M498.97,-338.72C529.98,-344.67 567.15,-351.79 595.8,-357.29"/>
<polygon fill="#63b8ff" stroke="#63b8ff" points="594.76,-360.65 605.24,-359.1 596.08,-353.78 594.76,-360.65"/>
</a>
</g>
</g>
<!-- Node30 -->
<g id="Node000030" class="node">
<title>Node30</title>
<g id="a_Node000030"><a xlink:href="bsp__encoder_8c.html#a3daa1572c53aadb74b5ef71eb5422da8" target="_top" xlink:title="读取方向反转标志">
<polygon fill="white" stroke="#666666" points="899,-377.25 770.5,-377.25 770.5,-355 899,-355 899,-377.25"/>
<text xml:space="preserve" text-anchor="middle" x="834.75" y="-361.85" font-family="Helvetica,sans-Serif" font-size="12.00">BSP_ENC_GetInvert</text>
</a>
</g>
</g>
<!-- Node29&#45;&gt;Node30 -->
<g id="edge35_Node000029_Node000030" class="edge">
<title>Node29&#45;&gt;Node30</title>
<g id="a_edge35_Node000029_Node000030"><a xlink:title=" ">
<path fill="none" stroke="#63b8ff" d="M678.7,-366.12C701.19,-366.12 731.32,-366.12 759.04,-366.12"/>
<polygon fill="#63b8ff" stroke="#63b8ff" points="758.83,-369.63 768.83,-366.13 758.83,-362.63 758.83,-369.63"/>
</a>
</g>
</g>
<!-- Node31&#45;&gt;Node14 -->
<g id="edge42_Node000031_Node000014" class="edge">
<title>Node31&#45;&gt;Node14</title>
<g id="a_edge42_Node000031_Node000014"><a xlink:title=" ">
<path fill="none" stroke="#63b8ff" d="M311.3,-169.12C335.28,-169.12 361.93,-169.12 384.46,-169.12"/>
<polygon fill="#63b8ff" stroke="#63b8ff" points="384.32,-172.63 394.32,-169.13 384.32,-165.63 384.32,-172.63"/>
</a>
</g>
</g>
<!-- Node31&#45;&gt;Node18 -->
<g id="edge43_Node000031_Node000018" class="edge">
<title>Node31&#45;&gt;Node18</title>
<g id="a_edge43_Node000031_Node000018"><a xlink:title=" ">
<path fill="none" stroke="#63b8ff" d="M263.15,-180.65C296.94,-201.41 368.17,-245.16 408.01,-269.63"/>
<polygon fill="#63b8ff" stroke="#63b8ff" points="406.01,-272.51 416.36,-274.76 409.67,-266.54 406.01,-272.51"/>
</a>
</g>
</g>
<!-- Node31&#45;&gt;Node21 -->
<g id="edge48_Node000031_Node000021" class="edge">
<title>Node31&#45;&gt;Node21</title>
<g id="a_edge48_Node000031_Node000021"><a xlink:title=" ">
<path fill="none" stroke="#63b8ff" d="M258.46,-157.74C277.52,-143.13 313.23,-118.56 348.5,-109.12 424.92,-88.68 459.97,-66.33 526.5,-109.12 558.95,-130 532.87,-163.42 562.5,-188.12 563.64,-189.07 564.81,-189.98 566.02,-190.84"/>
<polygon fill="#63b8ff" stroke="#63b8ff" points="564.17,-193.81 574.56,-195.88 567.73,-187.78 564.17,-193.81"/>
</a>
</g>
</g>
<!-- Node31&#45;&gt;Node22 -->
<g id="edge45_Node000031_Node000022" class="edge">
<title>Node31&#45;&gt;Node22</title>
<g id="a_edge45_Node000031_Node000022"><a xlink:title=" ">
<path fill="none" stroke="#63b8ff" d="M300.2,-180.75C325.78,-186.07 356,-192.36 381.47,-197.67"/>
<polygon fill="#63b8ff" stroke="#63b8ff" points="380.46,-201.03 390.96,-199.64 381.88,-194.18 380.46,-201.03"/>
</a>
</g>
</g>
<!-- Node31&#45;&gt;Node27 -->
<g id="edge46_Node000031_Node000027" class="edge">
<title>Node31&#45;&gt;Node27</title>
<g id="a_edge46_Node000031_Node000027"><a xlink:title=" ">
<path fill="none" stroke="#63b8ff" d="M300.2,-157.5C322.29,-152.9 347.85,-147.58 370.82,-142.8"/>
<polygon fill="#63b8ff" stroke="#63b8ff" points="371.3,-146.27 380.38,-140.81 369.87,-139.42 371.3,-146.27"/>
</a>
</g>
</g>
<!-- Node32 -->
<g id="Node000032" class="node">
<title>Node32</title>
<g id="a_Node000032"><a xlink:href="app__can__protocol_8c.html#a3f462aec782e36efd750a47844167fae" target="_top" xlink:title="发送 MIT 反馈帧（B0=ID，P16 V12 T12，发往主机 ID）">
<polygon fill="white" stroke="#666666" points="526.5,-378.25 348.5,-378.25 348.5,-356 526.5,-356 526.5,-378.25"/>
<text xml:space="preserve" text-anchor="middle" x="437.5" y="-362.85" font-family="Helvetica,sans-Serif" font-size="12.00">APP_CAN_SendMitFeedback</text>
</a>
</g>
</g>
<!-- Node31&#45;&gt;Node32 -->
<g id="edge39_Node000031_Node000032" class="edge">
<title>Node31&#45;&gt;Node32</title>
<g id="a_edge39_Node000031_Node000032"><a xlink:title=" ">
<path fill="none" stroke="#63b8ff" d="M247.51,-180.45C256.94,-212.24 288.15,-302.89 348.5,-347.12 350.06,-348.27 351.68,-349.35 353.35,-350.37"/>
<polygon fill="#63b8ff" stroke="#63b8ff" points="351.49,-353.35 361.97,-354.89 354.73,-347.15 351.49,-353.35"/>
</a>
</g>
</g>
<!-- Node34 -->
<g id="Node000034" class="node">
<title>Node34</title>
<g id="a_Node000034"><a xlink:href="motor__ctrl_8c.html#a594eac2b46116c156ad61f86ae7e4678" target="_top" xlink:title="设置 MIT 阻抗指令（五元组原子更新）">
<polygon fill="white" stroke="#666666" points="502.88,-22.25 372.12,-22.25 372.12,0 502.88,0 502.88,-22.25"/>
<text xml:space="preserve" text-anchor="middle" x="437.5" y="-6.85" font-family="Helvetica,sans-Serif" font-size="12.00">MC_SetMitCommand</text>
</a>
</g>
</g>
<!-- Node31&#45;&gt;Node34 -->
<g id="edge44_Node000031_Node000034" class="edge">
<title>Node31&#45;&gt;Node34</title>
<g id="a_edge44_Node000031_Node000034"><a xlink:title=" ">
<path fill="none" stroke="#63b8ff" d="M249.52,-157.69C262.19,-130.93 297.59,-64.04 348.5,-31.12 352.5,-28.54 356.78,-26.29 361.24,-24.33"/>
<polygon fill="#63b8ff" stroke="#63b8ff" points="362.37,-27.64 370.45,-20.79 359.86,-21.1 362.37,-27.64"/>
</a>
</g>
</g>
<!-- Node35 -->
<g id="Node000035" class="node">
<title>Node35</title>
<g id="a_Node000035"><a xlink:href="app__can__protocol_8c.html#a53bb63a1ac49bb84cd3f88ef1cc02112" target="_top" xlink:title="mini&#45;cheetah 解包：无符号整数 &#45;&gt; float">
<polygon fill="white" stroke="#666666" points="489.75,-62.25 385.25,-62.25 385.25,-40 489.75,-40 489.75,-62.25"/>
<text xml:space="preserve" text-anchor="middle" x="437.5" y="-46.85" font-family="Helvetica,sans-Serif" font-size="12.00">MIT_UintToFloat</text>
</a>
</g>
</g>
<!-- Node31&#45;&gt;Node35 -->
<g id="edge47_Node000031_Node000035" class="edge">
<title>Node31&#45;&gt;Node35</title>
<g id="a_edge47_Node000031_Node000035"><a xlink:title=" ">
<path fill="none" stroke="#63b8ff" d="M254.06,-157.57C271.13,-137.95 308.57,-98.09 348.5,-76.12 356.51,-71.72 365.37,-68.03 374.3,-64.96"/>
<polygon fill="#63b8ff" stroke="#63b8ff" points="375.24,-68.33 383.71,-61.97 373.12,-61.66 375.24,-68.33"/>
</a>
</g>
</g>
<!-- Node32&#45;&gt;Node4 -->
<g id="edge40_Node000032_Node000004" class="edge">
<title>Node32&#45;&gt;Node4</title>
<g id="a_edge40_Node000032_Node000004"><a xlink:title=" ">
<path fill="none" stroke="#63b8ff" d="M514.71,-378.64C518.96,-381.01 522.95,-383.81 526.5,-387.12 566.92,-424.8 522.52,-467.98 562.5,-506.12 566.93,-510.36 572.13,-513.73 577.7,-516.41"/>
<polygon fill="#63b8ff" stroke="#63b8ff" points="576.06,-519.53 586.64,-519.98 578.65,-513.02 576.06,-519.53"/>
</a>
</g>
</g>
<!-- Node33 -->
<g id="Node000033" class="node">
<title>Node33</title>
<g id="a_Node000033"><a xlink:href="app__can__protocol_8c.html#a374783cd12e7c5b94cb6926640bc0980" target="_top" xlink:title="mini&#45;cheetah 打包：float &#45;&gt; 无符号整数">
<polygon fill="white" stroke="#666666" points="695.12,-417.25 590.62,-417.25 590.62,-395 695.12,-395 695.12,-417.25"/>
<text xml:space="preserve" text-anchor="middle" x="642.88" y="-401.85" font-family="Helvetica,sans-Serif" font-size="12.00">MIT_FloatToUint</text>
</a>
</g>
</g>
<!-- Node32&#45;&gt;Node33 -->
<g id="edge41_Node000032_Node000033" class="edge">
<title>Node32&#45;&gt;Node33</title>
<g id="a_edge41_Node000032_Node000033"><a xlink:title=" ">
<path fill="none" stroke="#63b8ff" d="M498.97,-378.72C524.26,-383.57 553.65,-389.21 579.18,-394.1"/>
<polygon fill="#63b8ff" stroke="#63b8ff" points="578.27,-397.49 588.75,-395.94 579.59,-390.62 578.27,-397.49"/>
</a>
</g>
</g>
</g>
</svg>
