<?xml version="1.0" encoding="UTF-8" standalone="no"?>
<!DOCTYPE svg PUBLIC "-//W3C//DTD SVG 1.1//EN"
 "http://www.w3.org/Graphics/SVG/1.1/DTD/svg11.dtd">
<!-- Generated by graphviz version 15.1.0 (20260618.0150)
 -->
<!-- Title: APP_PARAMS_LoadDefaults Pages: 1 -->
<svg width="1015pt" height="109pt"
 viewBox="0.00 0.00 1015.00 109.00" xmlns="http://www.w3.org/2000/svg" xmlns:xlink="http://www.w3.org/1999/xlink">
<g id="graph0" class="graph" transform="scale(1 1) rotate(0) translate(4 105.25)">
<title>APP_PARAMS_LoadDefaults</title>
<!-- Node1 -->
<g id="Node000001" class="node">
<title>Node1</title>
<g id="a_Node000001"><a xlink:title="加载编译期默认参数">
<polygon fill="#999999" stroke="#666666" points="1006.75,-61.25 831,-61.25 831,-39 1006.75,-39 1006.75,-61.25"/>
<text xml:space="preserve" text-anchor="middle" x="918.88" y="-45.85" font-family="Helvetica,sans-Serif" font-size="12.00">APP_PARAMS_LoadDefaults</text>
</a>
</g>
</g>
<!-- Node2 -->
<g id="Node000002" class="node">
<title>Node2</title>
<g id="a_Node000002"><a xlink:href="app__can__protocol_8c.html#a962b5bb63f0dca9cd0efbd25455d6002" target="_top" xlink:title="配置通道处理">
<polygon fill="white" stroke="#666666" points="795,-61.25 656.75,-61.25 656.75,-39 795,-39 795,-61.25"/>
<text xml:space="preserve" text-anchor="middle" x="725.88" y="-45.85" font-family="Helvetica,sans-Serif" font-size="12.00">APP_CAN_HandleCfg</text>
</a>
</g>
</g>
<!-- Node1&#45;&gt;Node2 -->
<g id="edge1_Node000001_Node000002" class="edge">
<title>Node1&#45;&gt;Node2</title>
<g id="a_edge1_Node000001_Node000002"><a xlink:title=" ">
<path fill="none" stroke="#63b8ff" d="M819.29,-50.12C811.17,-50.12 803.09,-50.12 795.27,-50.12"/>
<polygon fill="#63b8ff" stroke="#63b8ff" points="819.25,-53.63 829.25,-50.13 819.25,-46.63 819.25,-53.63"/>
</a>
</g>
</g>
<!-- Node9 -->
<g id="Node000009" class="node">
<title>Node9</title>
<g id="a_Node000009"><a xlink:href="app__params_8c.html#a163333fe5d5fee3e7e1f80840ee66f28" target="_top" xlink:title="参数初始化：从 Flash 加载，失败（首次上电/版本不符）则用默认值">
<polygon fill="white" stroke="#666666" points="446.5,-22.25 326.25,-22.25 326.25,0 446.5,0 446.5,-22.25"/>
<text xml:space="preserve" text-anchor="middle" x="386.38" y="-6.85" font-family="Helvetica,sans-Serif" font-size="12.00">APP_PARAMS_Init</text>
</a>
</g>
</g>
<!-- Node1&#45;&gt;Node9 -->
<g id="edge9_Node000001_Node000009" class="edge">
<title>Node1&#45;&gt;Node9</title>
<g id="a_edge9_Node000001_Node000009"><a xlink:title=" ">
<path fill="none" stroke="#63b8ff" d="M844.21,-36.72C828.04,-34.18 810.98,-31.79 795,-30.12 671.69,-17.26 526.48,-13.1 446.94,-11.76"/>
<polygon fill="#63b8ff" stroke="#63b8ff" points="843.31,-40.12 853.74,-38.26 844.43,-33.21 843.31,-40.12"/>
</a>
</g>
</g>
<!-- Node10 -->
<g id="Node000010" class="node">
<title>Node10</title>
<g id="a_Node000010"><a xlink:href="app__shell_8c.html#ad6303a346f63752b165b847c5dcefbb7" target="_top" xlink:title="解析并执行一行命令">
<polygon fill="white" stroke="#666666" points="794.25,-101.25 657.5,-101.25 657.5,-79 794.25,-79 794.25,-101.25"/>
<text xml:space="preserve" text-anchor="middle" x="725.88" y="-85.85" font-family="Helvetica,sans-Serif" font-size="12.00">APP_SHELL_Execute</text>
</a>
</g>
</g>
<!-- Node1&#45;&gt;Node10 -->
<g id="edge11_Node000001_Node000010" class="edge">
<title>Node1&#45;&gt;Node10</title>
<g id="a_edge11_Node000001_Node000010"><a xlink:title=" ">
<path fill="none" stroke="#63b8ff" d="M851.18,-64.09C828.64,-68.81 803.74,-74.03 782.18,-78.54"/>
<polygon fill="#63b8ff" stroke="#63b8ff" points="851.82,-67.53 860.89,-62.06 850.39,-60.68 851.82,-67.53"/>
</a>
</g>
</g>
<!-- Node3 -->
<g id="Node000003" class="node">
<title>Node3</title>
<g id="a_Node000003"><a xlink:href="app__can__protocol_8c.html#a0c342291cd7188f387f12f9b2157c4e9" target="_top" xlink:title="CAN 接收分发（ISR 上下文）">
<polygon fill="white" stroke="#666666" points="620.75,-61.25 482.5,-61.25 482.5,-39 620.75,-39 620.75,-61.25"/>
<text xml:space="preserve" text-anchor="middle" x="551.62" y="-45.85" font-family="Helvetica,sans-Serif" font-size="12.00">APP_CAN_RxHandler</text>
</a>
</g>
</g>
<!-- Node2&#45;&gt;Node3 -->
<g id="edge2_Node000002_Node000003" class="edge">
<title>Node2&#45;&gt;Node3</title>
<g id="a_edge2_Node000002_Node000003"><a xlink:title=" ">
<path fill="none" stroke="#63b8ff" d="M644.83,-50.12C636.95,-50.12 629,-50.12 621.24,-50.12"/>
<polygon fill="#63b8ff" stroke="#63b8ff" points="644.79,-53.63 654.79,-50.13 644.79,-46.63 644.79,-53.63"/>
</a>
</g>
</g>
<!-- Node4 -->
<g id="Node000004" class="node">
<title>Node4</title>
<g id="a_Node000004"><a xlink:href="app__can__protocol_8c.html#af389bd7cff6ae0b5df76c2feb46f25f6" target="_top" xlink:title="初始化 CAN 应用协议（按持久化参数配置 BSP）">
<polygon fill="white" stroke="#666666" points="434.5,-62.25 338.25,-62.25 338.25,-40 434.5,-40 434.5,-62.25"/>
<text xml:space="preserve" text-anchor="middle" x="386.38" y="-46.85" font-family="Helvetica,sans-Serif" font-size="12.00">APP_CAN_Init</text>
</a>
</g>
</g>
<!-- Node3&#45;&gt;Node4 -->
<g id="edge3_Node000003_Node000004" class="edge">
<title>Node3&#45;&gt;Node4</title>
<g id="a_edge3_Node000003_Node000004"><a xlink:title=" ">
<path fill="none" stroke="#63b8ff" d="M470.95,-50.61C458.5,-50.69 445.98,-50.77 434.57,-50.84"/>
<polygon fill="#63b8ff" stroke="#63b8ff" points="470.85,-54.11 480.82,-50.55 470.8,-47.11 470.85,-54.11"/>
</a>
</g>
</g>
<!-- Node5 -->
<g id="Node000005" class="node">
<title>Node5</title>
<g id="a_Node000005"><a xlink:href="app__can__protocol_8c.html#a6c2f3bebbd2597376fd87038ef059996" target="_top" xlink:title="后台轮询：处理通信参数变更后的重新初始化">
<polygon fill="white" stroke="#666666" points="290.25,-62.25 188.75,-62.25 188.75,-40 290.25,-40 290.25,-62.25"/>
<text xml:space="preserve" text-anchor="middle" x="239.5" y="-46.85" font-family="Helvetica,sans-Serif" font-size="12.00">APP_CAN_Poll</text>
</a>
</g>
</g>
<!-- Node4&#45;&gt;Node5 -->
<g id="edge4_Node000004_Node000005" class="edge">
<title>Node4&#45;&gt;Node5</title>
<g id="a_edge4_Node000004_Node000005"><a xlink:title=" ">
<path fill="none" stroke="#63b8ff" d="M326.66,-51.12C314.68,-51.12 302.18,-51.12 290.54,-51.12"/>
<polygon fill="#63b8ff" stroke="#63b8ff" points="326.42,-54.63 336.42,-51.13 326.42,-47.63 326.42,-54.63"/>
</a>
</g>
</g>
<!-- Node8 -->
<g id="Node000008" class="node">
<title>Node8</title>
<g id="a_Node000008"><a xlink:href="app__main_8c.html#a4759d3fdff6b33e2c0a0ae151452112f" target="_top" xlink:title="应用初始化（main 的 USER CODE BEGIN 2 调用）">
<polygon fill="white" stroke="#666666" points="271.12,-22.25 207.88,-22.25 207.88,0 271.12,0 271.12,-22.25"/>
<text xml:space="preserve" text-anchor="middle" x="239.5" y="-6.85" font-family="Helvetica,sans-Serif" font-size="12.00">APP_Init</text>
</a>
</g>
</g>
<!-- Node4&#45;&gt;Node8 -->
<g id="edge7_Node000004_Node000008" class="edge">
<title>Node4&#45;&gt;Node8</title>
<g id="a_edge7_Node000004_Node000008"><a xlink:title=" ">
<path fill="none" stroke="#63b8ff" d="M332.62,-36.56C312,-30.87 289.08,-24.54 271.26,-19.62"/>
<polygon fill="#63b8ff" stroke="#63b8ff" points="331.44,-39.86 342.01,-39.15 333.3,-33.12 331.44,-39.86"/>
</a>
</g>
</g>
<!-- Node6 -->
<g id="Node000006" class="node">
<title>Node6</title>
<g id="a_Node000006"><a xlink:href="app__main_8c.html#a6709d26bb67f905916b7c7f048b8396c" target="_top" xlink:title="后台超级循环体（main 的 while(1) 内调用）">
<polygon fill="white" stroke="#666666" points="152.75,-62.25 78.25,-62.25 78.25,-40 152.75,-40 152.75,-62.25"/>
<text xml:space="preserve" text-anchor="middle" x="115.5" y="-46.85" font-family="Helvetica,sans-Serif" font-size="12.00">APP_Loop</text>
</a>
</g>
</g>
<!-- Node5&#45;&gt;Node6 -->
<g id="edge5_Node000005_Node000006" class="edge">
<title>Node5&#45;&gt;Node6</title>
<g id="a_edge5_Node000005_Node000006"><a xlink:title=" ">
<path fill="none" stroke="#63b8ff" d="M177.03,-51.12C168.86,-51.12 160.7,-51.12 153.14,-51.12"/>
<polygon fill="#63b8ff" stroke="#63b8ff" points="177.01,-54.63 187.01,-51.13 177.01,-47.63 177.01,-54.63"/>
</a>
</g>
</g>
<!-- Node7 -->
<g id="Node000007" class="node">
<title>Node7</title>
<g id="a_Node000007"><a xlink:href="main_8c.html#a840291bc02cba5474a4cb46a9b9566fe" target="_top" xlink:title="The application entry point.">
<polygon fill="white" stroke="#666666" points="42.25,-42.25 0,-42.25 0,-20 42.25,-20 42.25,-42.25"/>
<text xml:space="preserve" text-anchor="middle" x="21.12" y="-26.85" font-family="Helvetica,sans-Serif" font-size="12.00">main</text>
</a>
</g>
</g>
<!-- Node6&#45;&gt;Node7 -->
<g id="edge6_Node000006_Node000007" class="edge">
<title>Node6&#45;&gt;Node7</title>
<g id="a_edge6_Node000006_Node000007"><a xlink:title=" ">
<path fill="none" stroke="#63b8ff" d="M66.86,-40.81C58.35,-38.97 49.91,-37.14 42.69,-35.58"/>
<polygon fill="#63b8ff" stroke="#63b8ff" points="66,-44.2 76.51,-42.9 67.48,-37.36 66,-44.2"/>
</a>
</g>
</g>
<!-- Node8&#45;&gt;Node7 -->
<g id="edge8_Node000008_Node000007" class="edge">
<title>Node8&#45;&gt;Node7</title>
<g id="a_edge8_Node000008_Node000007"><a xlink:title=" ">
<path fill="none" stroke="#63b8ff" d="M196.05,-15.05C149.8,-19.32 77.74,-25.98 42.68,-29.23"/>
<polygon fill="#63b8ff" stroke="#63b8ff" points="196.36,-18.54 205.99,-14.13 195.71,-11.57 196.36,-18.54"/>
</a>
</g>
</g>
<!-- Node9&#45;&gt;Node8 -->
<g id="edge10_Node000009_Node000008" class="edge">
<title>Node9&#45;&gt;Node8</title>
<g id="a_edge10_Node000009_Node000008"><a xlink:title=" ">
<path fill="none" stroke="#63b8ff" d="M314.94,-11.12C299.63,-11.12 284.2,-11.12 271.39,-11.12"/>
<polygon fill="#63b8ff" stroke="#63b8ff" points="314.52,-14.63 324.52,-11.13 314.52,-7.63 314.52,-14.63"/>
</a>
</g>
</g>
<!-- Node11 -->
<g id="Node000011" class="node">
<title>Node11</title>
<g id="a_Node000011"><a xlink:href="app__shell_8c.html#ab93a15148be82ad3c0999b099de7c29e" target="_top" xlink:title="shell 轮询（后台调用）">
<polygon fill="white" stroke="#666666" points="608.75,-101.25 494.5,-101.25 494.5,-79 608.75,-79 608.75,-101.25"/>
<text xml:space="preserve" text-anchor="middle" x="551.62" y="-85.85" font-family="Helvetica,sans-Serif" font-size="12.00">APP_SHELL_Poll</text>
</a>
</g>
</g>
<!-- Node10&#45;&gt;Node11 -->
<g id="edge12_Node000010_Node000011" class="edge">
<title>Node10&#45;&gt;Node11</title>
<g id="a_edge12_Node000010_Node000011"><a xlink:title=" ">
<path fill="none" stroke="#63b8ff" d="M645.98,-90.12C633.56,-90.12 620.94,-90.12 609.16,-90.12"/>
<polygon fill="#63b8ff" stroke="#63b8ff" points="645.78,-93.63 655.78,-90.13 645.78,-86.63 645.78,-93.63"/>
</a>
</g>
</g>
<!-- Node11&#45;&gt;Node6 -->
<g id="edge13_Node000011_Node000006" class="edge">
<title>Node11&#45;&gt;Node6</title>
<g id="a_edge13_Node000011_Node000006"><a xlink:title=" ">
<path fill="none" stroke="#63b8ff" d="M482.8,-90.94C409.73,-90.81 290.28,-87.64 188.75,-71.12 176.67,-69.16 163.73,-65.94 152.17,-62.66"/>
<polygon fill="#63b8ff" stroke="#63b8ff" points="482.61,-94.44 492.6,-90.94 482.6,-87.44 482.61,-94.44"/>
</a>
</g>
</g>
</g>
</svg>
