<?xml version="1.0" encoding="UTF-8" standalone="no"?>
<!DOCTYPE svg PUBLIC "-//W3C//DTD SVG 1.1//EN"
 "http://www.w3.org/Graphics/SVG/1.1/DTD/svg11.dtd">
<!-- Generated by graphviz version 15.1.0 (20260618.0150)
 -->
<!-- Title: APP_CAN_Poll Pages: 1 -->
<!--zoomable 940 -->

<svg id="main" version="1.1" xmlns="http://www.w3.org/2000/svg" xmlns:xlink="http://www.w3.org/1999/xlink" xml:space="preserve" onload="init(evt)">

<style type="text/css"><![CDATA[
.node, .edge {opacity: 0.7;}
.node.selected, .edge.selected {opacity: 1;}
.edge:hover path { stroke: red; }
.edge:hover polygon { stroke: red; fill: red; }
]]></style>

<defs>
  <circle id="rim" cx="0" cy="0" r="7"/>
  <circle id="rim2" cx="0" cy="0" r="3.5"/>
  <g id="zoomPlus">
    <use xlink:href="#rim" fill="#404040"><set attributeName="fill" to="#808080" begin="zoomplus.mouseover" end="zoomplus.mouseout"/></use>
    <path d="M-4,0h8M0,-4v8" fill="none" stroke="white" stroke-width="1.5" pointer-events="none"/>
  </g>
  <g id="zoomMin">
    <use xlink:href="#rim" fill="#404040"><set attributeName="fill" to="#808080" begin="zoomminus.mouseover" end="zoomminus.mouseout"/></use>
    <path d="M-4,0h8" fill="none" stroke="white" stroke-width="1.5" pointer-events="none"/>
  </g>
  <g id="arrowUp" transform="translate(30 24)">
    <use xlink:href="#rim"/>
    <path pointer-events="none" fill="none" stroke="white" stroke-width="1.5" d="M0,-3.0v7 M-2.5,-0.5L0,-3.0L2.5,-0.5"/>
  </g>
  <g id="arrowRight" transform="rotate(90) translate(36 -43)">
    <use xlink:href="#rim"/>
    <path pointer-events="none" fill="none" stroke="white" stroke-width="1.5" d="M0,-3.0v7 M-2.5,-0.5L0,-3.0L2.5,-0.5"/>
  </g>
  <g id="arrowDown" transform="rotate(180) translate(-30 -48)">
    <use xlink:href="#rim"/>
    <path pointer-events="none" fill="none" stroke="white" stroke-width="1.5" d="M0,-3.0v7 M-2.5,-0.5L0,-3.0L2.5,-0.5"/>
  </g>
  <g id="arrowLeft" transform="rotate(270) translate(-36 17)">
    <use xlink:href="#rim"/>
    <path pointer-events="none" fill="none" stroke="white" stroke-width="1.5" d="M0,-3.0v7 M-2.5,-0.5L0,-3.0L2.5,-0.5"/>
  </g>
  <g id="resetDef">
    <use xlink:href="#rim2" fill="#404040"><set attributeName="fill" to="#808080" begin="reset.mouseover" end="reset.mouseout"/></use>
  </g>
</defs>
<script type="application/ecmascript">
var viewWidth = 1238;
var viewHeight = 940;
var sectionId = 'dynsection-11';
</script>
<script type="application/ecmascript" xlink:href="svg.min.js"/>
<svg id="graph" class="graph">
<g id="viewport">
<title>APP_CAN_Poll</title>
<!-- Node1 -->
<g id="Node000001" class="node">
<title>Node1</title>
<g id="a_Node000001"><a xlink:title="后台轮询：处理通信参数变更后的重新初始化">
<polygon fill="#999999" stroke="#666666" points="101.5,-81.25 0,-81.25 0,-59 101.5,-59 101.5,-81.25"/>
<text xml:space="preserve" text-anchor="middle" x="50.75" y="-65.85" font-family="Helvetica,sans-Serif" font-size="12.00">APP_CAN_Poll</text>
</a>
</g>
</g>
<!-- Node2 -->
<g id="Node000002" class="node">
<title>Node2</title>
<g id="a_Node000002"><a xlink:href="app__can__protocol_8c.html#af389bd7cff6ae0b5df76c2feb46f25f6" target="_top" xlink:title="初始化 CAN 应用协议（按持久化参数配置 BSP）">
<polygon fill="white" stroke="#666666" points="233.75,-81.25 137.5,-81.25 137.5,-59 233.75,-59 233.75,-81.25"/>
<text xml:space="preserve" text-anchor="middle" x="185.62" y="-65.85" font-family="Helvetica,sans-Serif" font-size="12.00">APP_CAN_Init</text>
</a>
</g>
</g>
<!-- Node1&#45;&gt;Node2 -->
<g id="edge1_Node000001_Node000002" class="edge">
<title>Node1&#45;&gt;Node2</title>
<g id="a_edge1_Node000001_Node000002"><a xlink:title=" ">
<path fill="none" stroke="#63b8ff" d="M101.98,-70.12C109.88,-70.12 118.09,-70.12 126.15,-70.12"/>
<polygon fill="#63b8ff" stroke="#63b8ff" points="125.88,-73.63 135.88,-70.13 125.88,-66.63 125.88,-73.63"/>
</a>
</g>
</g>
<!-- Node3 -->
<g id="Node000003" class="node">
<title>Node3</title>
<g id="a_Node000003"><a xlink:href="app__can__protocol_8c.html#a0c342291cd7188f387f12f9b2157c4e9" target="_top" xlink:title="CAN 接收分发（ISR 上下文）">
<polygon fill="white" stroke="#666666" points="432.75,-458.25 294.5,-458.25 294.5,-436 432.75,-436 432.75,-458.25"/>
<text xml:space="preserve" text-anchor="middle" x="363.62" y="-442.85" font-family="Helvetica,sans-Serif" font-size="12.00">APP_CAN_RxHandler</text>
</a>
</g>
</g>
<!-- Node2&#45;&gt;Node3 -->
<g id="edge2_Node000002_Node000003" class="edge">
<title>Node2&#45;&gt;Node3</title>
<g id="a_edge2_Node000002_Node000003"><a xlink:title=" ">
<path fill="none" stroke="#63b8ff" d="M191.89,-81.41C216.38,-133.86 319.31,-354.34 352.36,-425.14"/>
<polygon fill="#63b8ff" stroke="#63b8ff" points="349.16,-426.56 356.57,-434.15 355.51,-423.6 349.16,-426.56"/>
</a>
</g>
</g>
<!-- Node9 -->
<g id="Node000009" class="node">
<title>Node9</title>
<g id="a_Node000009"><a xlink:href="bsp__can_8c.html#ab09830a7aa5df9b3a6fa393538f81ab8" target="_top" xlink:title="切换 120 欧终端电阻（TS5A3159 模拟开关）">
<polygon fill="white" stroke="#666666" points="1042.5,-150.25 881.75,-150.25 881.75,-128 1042.5,-128 1042.5,-150.25"/>
<text xml:space="preserve" text-anchor="middle" x="962.12" y="-134.85" font-family="Helvetica,sans-Serif" font-size="12.00">BSP_CAN_SetTermination</text>
</a>
</g>
</g>
<!-- Node2&#45;&gt;Node9 -->
<g id="edge54_Node000002_Node000009" class="edge">
<title>Node2&#45;&gt;Node9</title>
<g id="a_edge54_Node000002_Node000009"><a xlink:title=" ">
<path fill="none" stroke="#63b8ff" d="M234.09,-71.73C364.73,-76.33 727.71,-90.47 845.75,-109.12 868.17,-112.67 892.56,-118.68 913.12,-124.4"/>
<polygon fill="#63b8ff" stroke="#63b8ff" points="912.07,-127.74 922.65,-127.11 913.99,-121.01 912.07,-127.74"/>
</a>
</g>
</g>
<!-- Node38 -->
<g id="Node000038" class="node">
<title>Node38</title>
<g id="a_Node000038"><a xlink:href="bsp__can_8c.html#a8bb055feb01e6f0fdee0f7921f821e5c" target="_top" xlink:title="初始化 CAN（重配位时序 + 滤波器 + 中断）">
<polygon fill="white" stroke="#666666" points="411.75,-62.25 315.5,-62.25 315.5,-40 411.75,-40 411.75,-62.25"/>
<text xml:space="preserve" text-anchor="middle" x="363.62" y="-46.85" font-family="Helvetica,sans-Serif" font-size="12.00">BSP_CAN_Init</text>
</a>
</g>
</g>
<!-- Node2&#45;&gt;Node38 -->
<g id="edge51_Node000002_Node000038" class="edge">
<title>Node2&#45;&gt;Node38</title>
<g id="a_edge51_Node000002_Node000038"><a xlink:title=" ">
<path fill="none" stroke="#63b8ff" d="M233.79,-65.03C255.31,-62.71 281,-59.94 303.77,-57.48"/>
<polygon fill="#63b8ff" stroke="#63b8ff" points="303.95,-60.98 313.52,-56.43 303.2,-54.02 303.95,-60.98"/>
</a>
</g>
</g>
<!-- Node40 -->
<g id="Node000040" class="node">
<title>Node40</title>
<g id="a_Node000040"><a xlink:href="bsp__can_8c.html#a9792d3480dca4b5570e43d806dfdb092" target="_top" xlink:title="注册接收回调（ISR 上下文执行，须轻量）">
<polygon fill="white" stroke="#666666" points="457.5,-22.25 269.75,-22.25 269.75,0 457.5,0 457.5,-22.25"/>
<text xml:space="preserve" text-anchor="middle" x="363.62" y="-6.85" font-family="Helvetica,sans-Serif" font-size="12.00">BSP_CAN_RegisterRxCallback</text>
</a>
</g>
</g>
<!-- Node2&#45;&gt;Node40 -->
<g id="edge53_Node000002_Node000040" class="edge">
<title>Node2&#45;&gt;Node40</title>
<g id="a_edge53_Node000002_Node000040"><a xlink:title=" ">
<path fill="none" stroke="#63b8ff" d="M207.6,-58.65C224.09,-50.04 247.85,-38.51 269.75,-31.12 275.86,-29.06 282.26,-27.17 288.74,-25.43"/>
<polygon fill="#63b8ff" stroke="#63b8ff" points="289.35,-28.89 298.18,-23.03 287.63,-22.1 289.35,-28.89"/>
</a>
</g>
</g>
<!-- Node4 -->
<g id="Node000004" class="node">
<title>Node4</title>
<g id="a_Node000004"><a xlink:href="app__can__protocol_8c.html#a962b5bb63f0dca9cd0efbd25455d6002" target="_top" xlink:title="配置通道处理">
<polygon fill="white" stroke="#666666" points="631.75,-458.25 493.5,-458.25 493.5,-436 631.75,-436 631.75,-458.25"/>
<text xml:space="preserve" text-anchor="middle" x="562.62" y="-442.85" font-family="Helvetica,sans-Serif" font-size="12.00">APP_CAN_HandleCfg</text>
</a>
</g>
</g>
<!-- Node3&#45;&gt;Node4 -->
<g id="edge3_Node000003_Node000004" class="edge">
<title>Node3&#45;&gt;Node4</title>
<g id="a_edge3_Node000003_Node000004"><a xlink:title=" ">
<path fill="none" stroke="#63b8ff" d="M433.25,-447.12C449.04,-447.12 465.96,-447.12 482.16,-447.12"/>
<polygon fill="#63b8ff" stroke="#63b8ff" points="481.73,-450.63 491.73,-447.13 481.73,-443.63 481.73,-450.63"/>
</a>
</g>
</g>
<!-- Node33 -->
<g id="Node000033" class="node">
<title>Node33</title>
<g id="a_Node000033"><a xlink:href="app__can__protocol_8c.html#a287ab0ebbb13b297320ec4082c51365b" target="_top" xlink:title="MIT 运控通道处理">
<polygon fill="white" stroke="#666666" points="630.25,-774.25 495,-774.25 495,-752 630.25,-752 630.25,-774.25"/>
<text xml:space="preserve" text-anchor="middle" x="562.62" y="-758.85" font-family="Helvetica,sans-Serif" font-size="12.00">APP_CAN_HandleMit</text>
</a>
</g>
</g>
<!-- Node3&#45;&gt;Node33 -->
<g id="edge40_Node000003_Node000033" class="edge">
<title>Node3&#45;&gt;Node33</title>
<g id="a_edge40_Node000003_Node000033"><a xlink:title=" ">
<path fill="none" stroke="#63b8ff" d="M371.87,-458.75C401.08,-505.6 510.42,-680.99 548.47,-742.03"/>
<polygon fill="#63b8ff" stroke="#63b8ff" points="545.46,-743.81 553.72,-750.45 551.4,-740.11 545.46,-743.81"/>
</a>
</g>
</g>
<!-- Node5 -->
<g id="Node000005" class="node">
<title>Node5</title>
<g id="a_Node000005"><a xlink:href="app__can__protocol_8c.html#a966f37b5d2949acd6d6432af5cbcbcec" target="_top" xlink:title="配置通道应答：cmd + 状态 + float 值">
<polygon fill="white" stroke="#666666" points="822.12,-498.25 691.38,-498.25 691.38,-476 822.12,-476 822.12,-498.25"/>
<text xml:space="preserve" text-anchor="middle" x="756.75" y="-482.85" font-family="Helvetica,sans-Serif" font-size="12.00">APP_CAN_CfgReply</text>
</a>
</g>
</g>
<!-- Node4&#45;&gt;Node5 -->
<g id="edge4_Node000004_Node000005" class="edge">
<title>Node4&#45;&gt;Node5</title>
<g id="a_edge4_Node000004_Node000005"><a xlink:title=" ">
<path fill="none" stroke="#63b8ff" d="M619.45,-458.75C641.16,-463.27 666.21,-468.48 688.86,-473.2"/>
<polygon fill="#63b8ff" stroke="#63b8ff" points="688.13,-476.62 698.63,-475.23 689.56,-469.77 688.13,-476.62"/>
</a>
</g>
</g>
<!-- Node6 -->
<g id="Node000006" class="node">
<title>Node6</title>
<g id="a_Node000006"><a xlink:href="bsp__can_8c.html#a70c1a9dd4f5e80dddb8aa8c476c15af7" target="_top" xlink:title="发送一帧经典 CAN 数据帧（非阻塞，入 TX FIFO）">
<polygon fill="white" stroke="#666666" points="1016.62,-577.25 907.62,-577.25 907.62,-555 1016.62,-555 1016.62,-577.25"/>
<text xml:space="preserve" text-anchor="middle" x="962.12" y="-561.85" font-family="Helvetica,sans-Serif" font-size="12.00">BSP_CAN_Send</text>
</a>
</g>
</g>
<!-- Node4&#45;&gt;Node6 -->
<g id="edge13_Node000004_Node000006" class="edge">
<title>Node4&#45;&gt;Node6</title>
<g id="a_edge13_Node000004_Node000006"><a xlink:title=" ">
<path fill="none" stroke="#63b8ff" d="M571.16,-458.43C586.4,-480.2 623.25,-527.52 667.75,-547.12 740.96,-579.38 834.51,-579.26 896.04,-574.32"/>
<polygon fill="#63b8ff" stroke="#63b8ff" points="895.98,-577.83 905.63,-573.48 895.36,-570.86 895.98,-577.83"/>
</a>
</g>
</g>
<!-- Node7 -->
<g id="Node000007" class="node">
<title>Node7</title>
<g id="a_Node000007"><a xlink:href="app__can__protocol_8c.html#ae97d64d8caba7a4aee7b6ef40a26afb7" target="_top" xlink:title="按索引读参数（CAN 配置通道与 shell 共用）">
<polygon fill="white" stroke="#666666" points="845.75,-538.25 667.75,-538.25 667.75,-516 845.75,-516 845.75,-538.25"/>
<text xml:space="preserve" text-anchor="middle" x="756.75" y="-522.85" font-family="Helvetica,sans-Serif" font-size="12.00">APP_CAN_GetParamByIndex</text>
</a>
</g>
</g>
<!-- Node4&#45;&gt;Node7 -->
<g id="edge6_Node000004_Node000007" class="edge">
<title>Node4&#45;&gt;Node7</title>
<g id="a_edge6_Node000004_Node000007"><a xlink:title=" ">
<path fill="none" stroke="#63b8ff" d="M579.8,-458.51C599.64,-471.98 634.72,-494.2 667.75,-507.12 672.69,-509.06 677.86,-510.83 683.11,-512.45"/>
<polygon fill="#63b8ff" stroke="#63b8ff" points="681.94,-515.75 692.52,-515.14 683.87,-509.02 681.94,-515.75"/>
</a>
</g>
</g>
<!-- Node8 -->
<g id="Node000008" class="node">
<title>Node8</title>
<g id="a_Node000008"><a xlink:href="app__can__protocol_8c.html#a1c22c988dc67c917a70b53b3386fcfca" target="_top" xlink:title="按索引写参数（只读项与非法值拒绝，CAN 配置通道与 shell 共用）">
<polygon fill="white" stroke="#666666" points="845.38,-220.25 668.12,-220.25 668.12,-198 845.38,-198 845.38,-220.25"/>
<text xml:space="preserve" text-anchor="middle" x="756.75" y="-204.85" font-family="Helvetica,sans-Serif" font-size="12.00">APP_CAN_SetParamByIndex</text>
</a>
</g>
</g>
<!-- Node4&#45;&gt;Node8 -->
<g id="edge7_Node000004_Node000008" class="edge">
<title>Node4&#45;&gt;Node8</title>
<g id="a_edge7_Node000004_Node000008"><a xlink:title=" ">
<path fill="none" stroke="#63b8ff" d="M565.76,-435.88C573.07,-400.47 600.49,-290.37 667.75,-234.12 671.69,-230.83 676.05,-227.96 680.65,-225.48"/>
<polygon fill="#63b8ff" stroke="#63b8ff" points="682.09,-228.66 689.66,-221.25 679.12,-222.32 682.09,-228.66"/>
</a>
</g>
</g>
<!-- Node10 -->
<g id="Node000010" class="node">
<title>Node10</title>
<g id="a_Node000010"><a xlink:href="motor__ctrl_8c.html#acd57a3a6a71d8ec4261dca794251a12a" target="_top" xlink:title="参数修改后刷新 PID 增益（shell/CAN 调参后调用）">
<polygon fill="white" stroke="#666666" points="1027.88,-239.25 896.38,-239.25 896.38,-217 1027.88,-217 1027.88,-239.25"/>
<text xml:space="preserve" text-anchor="middle" x="962.12" y="-223.85" font-family="Helvetica,sans-Serif" font-size="12.00">MC_ApplyPidParams</text>
</a>
</g>
</g>
<!-- Node4&#45;&gt;Node10 -->
<g id="edge14_Node000004_Node000010" class="edge">
<title>Node4&#45;&gt;Node10</title>
<g id="a_edge14_Node000004_Node000010"><a xlink:title=" ">
<path fill="none" stroke="#63b8ff" d="M566.4,-435.86C575.03,-403.39 604.72,-309.26 667.75,-267.12 702.23,-244.07 809.92,-234.58 884.76,-230.72"/>
<polygon fill="#63b8ff" stroke="#63b8ff" points="884.68,-234.23 894.49,-230.24 884.34,-227.24 884.68,-234.23"/>
</a>
</g>
</g>
<!-- Node12 -->
<g id="Node000012" class="node">
<title>Node12</title>
<g id="a_Node000012"><a xlink:href="app__params_8c.html#afa4da68e24e6b332803f4e131cd9ea31" target="_top" xlink:title="加载编译期默认参数">
<polygon fill="white" stroke="#666666" points="844.62,-378.25 668.88,-378.25 668.88,-356 844.62,-356 844.62,-378.25"/>
<text xml:space="preserve" text-anchor="middle" x="756.75" y="-362.85" font-family="Helvetica,sans-Serif" font-size="12.00">APP_PARAMS_LoadDefaults</text>
</a>
</g>
</g>
<!-- Node4&#45;&gt;Node12 -->
<g id="edge11_Node000004_Node000012" class="edge">
<title>Node4&#45;&gt;Node12</title>
<g id="a_edge11_Node000004_Node000012"><a xlink:title=" ">
<path fill="none" stroke="#63b8ff" d="M579.8,-435.74C599.64,-422.27 634.72,-400.05 667.75,-387.12 672.69,-385.19 677.86,-383.42 683.11,-381.8"/>
<polygon fill="#63b8ff" stroke="#63b8ff" points="683.87,-385.23 692.52,-379.11 681.94,-378.5 683.87,-385.23"/>
</a>
</g>
</g>
<!-- Node13 -->
<g id="Node000013" class="node">
<title>Node13</title>
<g id="a_Node000013"><a xlink:href="app__params_8c.html#a2c145abd191edf697c7d319f120390fb" target="_top" xlink:title="请求保存参数（任意上下文安全，后台择机执行）">
<polygon fill="white" stroke="#666666" points="845.38,-338.25 668.12,-338.25 668.12,-316 845.38,-316 845.38,-338.25"/>
<text xml:space="preserve" text-anchor="middle" x="756.75" y="-322.85" font-family="Helvetica,sans-Serif" font-size="12.00">APP_PARAMS_RequestSave</text>
</a>
</g>
</g>
<!-- Node4&#45;&gt;Node13 -->
<g id="edge12_Node000004_Node000013" class="edge">
<title>Node4&#45;&gt;Node13</title>
<g id="a_edge12_Node000004_Node000013"><a xlink:title=" ">
<path fill="none" stroke="#63b8ff" d="M571.95,-435.78C588,-414.79 625.39,-369.96 667.75,-347.12 670.76,-345.5 673.89,-344.02 677.1,-342.65"/>
<polygon fill="#63b8ff" stroke="#63b8ff" points="678.07,-346.02 686.18,-339.21 675.59,-339.48 678.07,-346.02"/>
</a>
</g>
</g>
<!-- Node14 -->
<g id="Node000014" class="node">
<title>Node14</title>
<g id="a_Node000014"><a xlink:href="motor__ctrl_8c.html#a827231f68dfabeb070811b39e11a267c" target="_top" xlink:title="清除故障（故障源已消失时）">
<polygon fill="white" stroke="#666666" points="805.62,-418.25 707.88,-418.25 707.88,-396 805.62,-396 805.62,-418.25"/>
<text xml:space="preserve" text-anchor="middle" x="756.75" y="-402.85" font-family="Helvetica,sans-Serif" font-size="12.00">MC_ClearFault</text>
</a>
</g>
</g>
<!-- Node4&#45;&gt;Node14 -->
<g id="edge15_Node000004_Node000014" class="edge">
<title>Node4&#45;&gt;Node14</title>
<g id="a_edge15_Node000004_Node000014"><a xlink:title=" ">
<path fill="none" stroke="#63b8ff" d="M619.45,-435.5C643.67,-430.46 672.04,-424.55 696.61,-419.44"/>
<polygon fill="#63b8ff" stroke="#63b8ff" points="697.05,-422.92 706.12,-417.46 695.62,-416.07 697.05,-422.92"/>
</a>
</g>
</g>
<!-- Node16 -->
<g id="Node000016" class="node">
<title>Node16</title>
<g id="a_Node000016"><a xlink:href="motor__ctrl_8c.html#aceb46c7be868a0b12dffa105e3d0581e" target="_top" xlink:title="封波（ISR 安全）">
<polygon fill="white" stroke="#666666" points="798.12,-814.25 715.38,-814.25 715.38,-792 798.12,-792 798.12,-814.25"/>
<text xml:space="preserve" text-anchor="middle" x="756.75" y="-798.85" font-family="Helvetica,sans-Serif" font-size="12.00">MC_Disable</text>
</a>
</g>
</g>
<!-- Node4&#45;&gt;Node16 -->
<g id="edge17_Node000004_Node000016" class="edge">
<title>Node4&#45;&gt;Node16</title>
<g id="a_edge17_Node000004_Node000016"><a xlink:title=" ">
<path fill="none" stroke="#63b8ff" d="M563.38,-458.46C563.02,-505.98 568.26,-691.02 667.75,-783.12 677.72,-792.36 691.03,-797.63 704.28,-800.56"/>
<polygon fill="#63b8ff" stroke="#63b8ff" points="703.37,-803.96 713.83,-802.25 704.59,-797.06 703.37,-803.96"/>
</a>
</g>
</g>
<!-- Node20 -->
<g id="Node000020" class="node">
<title>Node20</title>
<g id="a_Node000020"><a xlink:href="motor__ctrl_8c.html#a8d1ee75d00d8c0f2d2d78f89d002efec" target="_top" xlink:title="使能功率输出">
<polygon fill="white" stroke="#666666" points="796.62,-616.25 716.88,-616.25 716.88,-594 796.62,-594 796.62,-616.25"/>
<text xml:space="preserve" text-anchor="middle" x="756.75" y="-600.85" font-family="Helvetica,sans-Serif" font-size="12.00">MC_Enable</text>
</a>
</g>
</g>
<!-- Node4&#45;&gt;Node20 -->
<g id="edge22_Node000004_Node000020" class="edge">
<title>Node4&#45;&gt;Node20</title>
<g id="a_edge22_Node000004_Node000020"><a xlink:title=" ">
<path fill="none" stroke="#63b8ff" d="M569.4,-458.74C582.9,-484.64 619.07,-547.41 667.75,-580.12 679.08,-587.74 692.72,-593.06 705.84,-596.76"/>
<polygon fill="#63b8ff" stroke="#63b8ff" points="704.66,-600.07 715.21,-599.14 706.38,-593.29 704.66,-600.07"/>
</a>
</g>
</g>
<!-- Node23 -->
<g id="Node000023" class="node">
<title>Node23</title>
<g id="a_Node000023"><a xlink:href="protection_8c.html#a06029022ac7e5b95690b0119794c83d6" target="_top" xlink:title="喂 CAN 指令看门狗（收到有效运动指令时调用）">
<polygon fill="white" stroke="#666666" points="1042.5,-695.25 881.75,-695.25 881.75,-673 1042.5,-673 1042.5,-695.25"/>
<text xml:space="preserve" text-anchor="middle" x="962.12" y="-679.85" font-family="Helvetica,sans-Serif" font-size="12.00">PROT_FeedCanWatchdog</text>
</a>
</g>
</g>
<!-- Node4&#45;&gt;Node23 -->
<g id="edge39_Node000004_Node000023" class="edge">
<title>Node4&#45;&gt;Node23</title>
<g id="a_edge39_Node000004_Node000023"><a xlink:title=" ">
<path fill="none" stroke="#63b8ff" d="M566.71,-458.53C575.99,-490.52 606.85,-581.65 667.75,-625.12 672.3,-628.37 803.57,-653.97 888.96,-670.36"/>
<polygon fill="#63b8ff" stroke="#63b8ff" points="888.2,-673.78 898.68,-672.23 889.52,-666.9 888.2,-673.78"/>
</a>
</g>
</g>
<!-- Node24 -->
<g id="Node000024" class="node">
<title>Node24</title>
<g id="a_Node000024"><a xlink:href="motor__ctrl_8c.html#ab0638fb9fe58dcbe6f0fb3d5ed81d28c" target="_top" xlink:title="切换控制模式（仅封波状态允许）">
<polygon fill="white" stroke="#666666" points="801.5,-694.25 712,-694.25 712,-672 801.5,-672 801.5,-694.25"/>
<text xml:space="preserve" text-anchor="middle" x="756.75" y="-678.85" font-family="Helvetica,sans-Serif" font-size="12.00">MC_SetMode</text>
</a>
</g>
</g>
<!-- Node4&#45;&gt;Node24 -->
<g id="edge28_Node000004_Node000024" class="edge">
<title>Node4&#45;&gt;Node24</title>
<g id="a_edge28_Node000004_Node000024"><a xlink:title=" ">
<path fill="none" stroke="#63b8ff" d="M565.79,-458.27C573.21,-493.35 600.9,-602.43 667.75,-658.12 677.19,-665.99 688.95,-671.38 700.78,-675.08"/>
<polygon fill="#63b8ff" stroke="#63b8ff" points="699.56,-678.37 710.13,-677.62 701.4,-671.62 699.56,-678.37"/>
</a>
</g>
</g>
<!-- Node25 -->
<g id="Node000025" class="node">
<title>Node25</title>
<g id="a_Node000025"><a xlink:href="motor__ctrl_8c.html#a99b65c0c0b41906fc3146d52e1b879be" target="_top" xlink:title="设置输出轴位置给定（POSITION 模式）">
<polygon fill="white" stroke="#666666" points="806.38,-180.25 707.12,-180.25 707.12,-158 806.38,-158 806.38,-180.25"/>
<text xml:space="preserve" text-anchor="middle" x="756.75" y="-164.85" font-family="Helvetica,sans-Serif" font-size="12.00">MC_SetPosRef</text>
</a>
</g>
</g>
<!-- Node4&#45;&gt;Node25 -->
<g id="edge29_Node000004_Node000025" class="edge">
<title>Node4&#45;&gt;Node25</title>
<g id="a_edge29_Node000004_Node000025"><a xlink:title=" ">
<path fill="none" stroke="#63b8ff" d="M564.58,-435.72C568.62,-395.21 587.94,-257.08 667.75,-189.12 675.72,-182.34 685.53,-177.73 695.67,-174.63"/>
<polygon fill="#63b8ff" stroke="#63b8ff" points="696.43,-178.05 705.26,-172.19 694.71,-171.26 696.43,-178.05"/>
</a>
</g>
</g>
<!-- Node26 -->
<g id="Node000026" class="node">
<title>Node26</title>
<g id="a_Node000026"><a xlink:href="motor__ctrl_8c.html#ad9fdc2a937331479bd701139807ad7b2" target="_top" xlink:title="设置输出轴速度给定（SPEED 模式）">
<polygon fill="white" stroke="#666666" points="813.5,-298.25 700,-298.25 700,-276 813.5,-276 813.5,-298.25"/>
<text xml:space="preserve" text-anchor="middle" x="756.75" y="-282.85" font-family="Helvetica,sans-Serif" font-size="12.00">MC_SetSpeedRef</text>
</a>
</g>
</g>
<!-- Node4&#45;&gt;Node26 -->
<g id="edge30_Node000004_Node000026" class="edge">
<title>Node4&#45;&gt;Node26</title>
<g id="a_edge30_Node000004_Node000026"><a xlink:title=" ">
<path fill="none" stroke="#63b8ff" d="M568.73,-435.52C581.29,-408.38 616.48,-340.52 667.75,-307.12 674.19,-302.93 681.39,-299.61 688.83,-296.98"/>
<polygon fill="#63b8ff" stroke="#63b8ff" points="689.85,-300.33 698.38,-294.05 687.79,-293.64 689.85,-300.33"/>
</a>
</g>
</g>
<!-- Node28 -->
<g id="Node000028" class="node">
<title>Node28</title>
<g id="a_Node000028"><a xlink:href="motor__ctrl_8c.html#aef22984edf5c5a02be46b64d26f8534a" target="_top" xlink:title="设置输出轴转矩给定（TORQUE 模式，内部折算为 iq）">
<polygon fill="white" stroke="#666666" points="804.88,-140.25 708.62,-140.25 708.62,-118 804.88,-118 804.88,-140.25"/>
<text xml:space="preserve" text-anchor="middle" x="756.75" y="-124.85" font-family="Helvetica,sans-Serif" font-size="12.00">MC_SetTorque</text>
</a>
</g>
</g>
<!-- Node4&#45;&gt;Node28 -->
<g id="edge32_Node000004_Node000028" class="edge">
<title>Node4&#45;&gt;Node28</title>
<g id="a_edge32_Node000004_Node000028"><a xlink:title=" ">
<path fill="none" stroke="#63b8ff" d="M563.9,-435.57C565.62,-391.06 578.04,-229.26 667.75,-149.12 676.08,-141.69 686.58,-136.84 697.41,-133.72"/>
<polygon fill="#63b8ff" stroke="#63b8ff" points="697.89,-137.21 706.81,-131.49 696.27,-130.39 697.89,-137.21"/>
</a>
</g>
</g>
<!-- Node29 -->
<g id="Node000029" class="node">
<title>Node29</title>
<g id="a_Node000029"><a xlink:href="motor__ctrl_8c.html#a64722c426a5d2fd53b95c12a85f22120" target="_top" xlink:title="以当前位置为输出轴零位">
<polygon fill="white" stroke="#666666" points="812,-734.25 701.5,-734.25 701.5,-712 812,-712 812,-734.25"/>
<text xml:space="preserve" text-anchor="middle" x="756.75" y="-718.85" font-family="Helvetica,sans-Serif" font-size="12.00">MC_SetZeroHere</text>
</a>
</g>
</g>
<!-- Node4&#45;&gt;Node29 -->
<g id="edge33_Node000004_Node000029" class="edge">
<title>Node4&#45;&gt;Node29</title>
<g id="a_edge33_Node000004_Node000029"><a xlink:title=" ">
<path fill="none" stroke="#63b8ff" d="M564.64,-458.73C568.84,-499.28 588.57,-635.89 667.75,-703.12 674.31,-708.7 682.11,-712.8 690.31,-715.8"/>
<polygon fill="#63b8ff" stroke="#63b8ff" points="689.22,-719.13 699.8,-718.71 691.27,-712.43 689.22,-719.13"/>
</a>
</g>
</g>
<!-- Node30 -->
<g id="Node000030" class="node">
<title>Node30</title>
<g id="a_Node000030"><a xlink:href="motor__ctrl_8c.html#afb3414a066c16e68add2218d01f59942" target="_top" xlink:title="启动预定位校准（封波状态下）">
<polygon fill="white" stroke="#666666" points="819.12,-458.25 694.38,-458.25 694.38,-436 819.12,-436 819.12,-458.25"/>
<text xml:space="preserve" text-anchor="middle" x="756.75" y="-442.85" font-family="Helvetica,sans-Serif" font-size="12.00">MC_StartCalibration</text>
</a>
</g>
</g>
<!-- Node4&#45;&gt;Node30 -->
<g id="edge34_Node000004_Node000030" class="edge">
<title>Node4&#45;&gt;Node30</title>
<g id="a_edge34_Node000004_Node000030"><a xlink:title=" ">
<path fill="none" stroke="#63b8ff" d="M632.17,-447.12C648.55,-447.12 666.08,-447.12 682.65,-447.12"/>
<polygon fill="#63b8ff" stroke="#63b8ff" points="682.43,-450.63 692.43,-447.13 682.43,-443.63 682.43,-450.63"/>
</a>
</g>
</g>
<!-- Node5&#45;&gt;Node6 -->
<g id="edge5_Node000005_Node000006" class="edge">
<title>Node5&#45;&gt;Node6</title>
<g id="a_edge5_Node000005_Node000006"><a xlink:title=" ">
<path fill="none" stroke="#63b8ff" d="M819.01,-498.68C828.1,-501.08 837.26,-503.88 845.75,-507.12 862.85,-513.66 865.53,-518.64 881.75,-527.12 896.39,-534.78 912.74,-542.89 926.78,-549.72"/>
<polygon fill="#63b8ff" stroke="#63b8ff" points="925.11,-552.8 935.64,-554 928.16,-546.5 925.11,-552.8"/>
</a>
</g>
</g>
<!-- Node8&#45;&gt;Node9 -->
<g id="edge8_Node000008_Node000009" class="edge">
<title>Node8&#45;&gt;Node9</title>
<g id="a_edge8_Node000008_Node000009"><a xlink:title=" ">
<path fill="none" stroke="#63b8ff" d="M815.92,-197.51C825.96,-195.05 836.22,-192.24 845.75,-189.12 874.23,-179.81 905.34,-166.11 928.07,-155.4"/>
<polygon fill="#63b8ff" stroke="#63b8ff" points="929.31,-158.69 936.83,-151.22 926.29,-152.37 929.31,-158.69"/>
</a>
</g>
</g>
<!-- Node8&#45;&gt;Node10 -->
<g id="edge9_Node000008_Node000010" class="edge">
<title>Node8&#45;&gt;Node10</title>
<g id="a_edge9_Node000008_Node000010"><a xlink:title=" ">
<path fill="none" stroke="#63b8ff" d="M845.77,-217.35C858.67,-218.55 871.88,-219.79 884.53,-220.97"/>
<polygon fill="#63b8ff" stroke="#63b8ff" points="884.18,-224.45 894.46,-221.9 884.83,-217.48 884.18,-224.45"/>
</a>
</g>
</g>
<!-- Node11 -->
<g id="Node000011" class="node">
<title>Node11</title>
<g id="a_Node000011"><a xlink:href="pid_8c.html#a8977cc689f8f72deff8a981ff5da901f" target="_top" xlink:title="运行中修改增益（不复位积分，保证无扰切换）">
<polygon fill="white" stroke="#666666" points="1200.25,-239.25 1107.75,-239.25 1107.75,-217 1200.25,-217 1200.25,-239.25"/>
<text xml:space="preserve" text-anchor="middle" x="1154" y="-223.85" font-family="Helvetica,sans-Serif" font-size="12.00">PID_SetGains</text>
</a>
</g>
</g>
<!-- Node10&#45;&gt;Node11 -->
<g id="edge10_Node000010_Node000011" class="edge">
<title>Node10&#45;&gt;Node11</title>
<g id="a_edge10_Node000010_Node000011"><a xlink:title=" ">
<path fill="none" stroke="#63b8ff" d="M1028.2,-228.12C1050.21,-228.12 1074.61,-228.12 1095.95,-228.12"/>
<polygon fill="#63b8ff" stroke="#63b8ff" points="1095.94,-231.63 1105.94,-228.13 1095.94,-224.63 1095.94,-231.63"/>
</a>
</g>
</g>
<!-- Node15 -->
<g id="Node000015" class="node">
<title>Node15</title>
<g id="a_Node000015"><a xlink:href="protection_8c.html#a2edece24ac432f98c28ec146bfc9eb54" target="_top" xlink:title="初始化保护模块">
<polygon fill="white" stroke="#666666" points="998.25,-418.25 926,-418.25 926,-396 998.25,-396 998.25,-418.25"/>
<text xml:space="preserve" text-anchor="middle" x="962.12" y="-402.85" font-family="Helvetica,sans-Serif" font-size="12.00">PROT_Init</text>
</a>
</g>
</g>
<!-- Node14&#45;&gt;Node15 -->
<g id="edge16_Node000014_Node000015" class="edge">
<title>Node14&#45;&gt;Node15</title>
<g id="a_edge16_Node000014_Node000015"><a xlink:title=" ">
<path fill="none" stroke="#63b8ff" d="M805.95,-407.12C838.69,-407.12 881.78,-407.12 914.24,-407.12"/>
<polygon fill="#63b8ff" stroke="#63b8ff" points="914.17,-410.63 924.17,-407.13 914.17,-403.63 914.17,-410.63"/>
</a>
</g>
</g>
<!-- Node17 -->
<g id="Node000017" class="node">
<title>Node17</title>
<g id="a_Node000017"><a xlink:href="bsp__pwm_8c.html#a2664b56ad93d867fb05741e710ff942d" target="_top" xlink:title="封波（输出高阻，电机 freewheel）">
<polygon fill="white" stroke="#666666" points="1024.5,-833.25 899.75,-833.25 899.75,-811 1024.5,-811 1024.5,-833.25"/>
<text xml:space="preserve" text-anchor="middle" x="962.12" y="-817.85" font-family="Helvetica,sans-Serif" font-size="12.00">BSP_PWM_Disable</text>
</a>
</g>
</g>
<!-- Node16&#45;&gt;Node17 -->
<g id="edge18_Node000016_Node000017" class="edge">
<title>Node16&#45;&gt;Node17</title>
<g id="a_edge18_Node000016_Node000017"><a xlink:title=" ">
<path fill="none" stroke="#63b8ff" d="M798.42,-806.92C824.01,-809.32 857.79,-812.47 887.93,-815.29"/>
<polygon fill="#63b8ff" stroke="#63b8ff" points="887.49,-818.76 897.78,-816.21 888.14,-811.79 887.49,-818.76"/>
</a>
</g>
</g>
<!-- Node18 -->
<g id="Node000018" class="node">
<title>Node18</title>
<g id="a_Node000018"><a xlink:href="foc_8c.html#aa25cf599086b4ad815ae5ad72dcfdec4" target="_top" xlink:title="复位电流环状态（封波后重新使能前调用，防止积分残留冲击）">
<polygon fill="white" stroke="#666666" points="1002,-655.25 922.25,-655.25 922.25,-633 1002,-633 1002,-655.25"/>
<text xml:space="preserve" text-anchor="middle" x="962.12" y="-639.85" font-family="Helvetica,sans-Serif" font-size="12.00">FOC_Reset</text>
</a>
</g>
</g>
<!-- Node16&#45;&gt;Node18 -->
<g id="edge19_Node000016_Node000018" class="edge">
<title>Node16&#45;&gt;Node18</title>
<g id="a_edge19_Node000016_Node000018"><a xlink:title=" ">
<path fill="none" stroke="#63b8ff" d="M798.22,-802.56C814.79,-800.32 833.03,-794.98 845.75,-783.12 886.17,-745.45 841.77,-702.27 881.75,-664.12 889.76,-656.48 900.25,-651.64 910.97,-648.6"/>
<polygon fill="#63b8ff" stroke="#63b8ff" points="911.68,-652.02 920.65,-646.38 910.12,-645.2 911.68,-652.02"/>
</a>
</g>
</g>
<!-- Node19 -->
<g id="Node000019" class="node">
<title>Node19</title>
<g id="a_Node000019"><a xlink:href="pid_8c.html#acb76685b15d3fde29d9bd5548b3268c1" target="_top" xlink:title="复位 PID 内部状态（积分/历史误差/输出）">
<polygon fill="white" stroke="#666666" points="1191.25,-655.25 1116.75,-655.25 1116.75,-633 1191.25,-633 1191.25,-655.25"/>
<text xml:space="preserve" text-anchor="middle" x="1154" y="-639.85" font-family="Helvetica,sans-Serif" font-size="12.00">PID_Reset</text>
</a>
</g>
</g>
<!-- Node16&#45;&gt;Node19 -->
<g id="edge21_Node000016_Node000019" class="edge">
<title>Node16&#45;&gt;Node19</title>
<g id="a_edge21_Node000016_Node000019"><a xlink:title=" ">
<path fill="none" stroke="#63b8ff" d="M798.55,-800.93C866.85,-796.69 1000.93,-785.84 1042.5,-764.12 1086.8,-740.99 1122.53,-692.73 1140.45,-664.98"/>
<polygon fill="#63b8ff" stroke="#63b8ff" points="1143.28,-667.06 1145.63,-656.72 1137.35,-663.34 1143.28,-667.06"/>
</a>
</g>
</g>
<!-- Node18&#45;&gt;Node19 -->
<g id="edge20_Node000018_Node000019" class="edge">
<title>Node18&#45;&gt;Node19</title>
<g id="a_edge20_Node000018_Node000019"><a xlink:title=" ">
<path fill="none" stroke="#63b8ff" d="M1002.47,-644.12C1032.26,-644.12 1073.34,-644.12 1105.06,-644.12"/>
<polygon fill="#63b8ff" stroke="#63b8ff" points="1104.77,-647.63 1114.77,-644.13 1104.77,-640.63 1104.77,-647.63"/>
</a>
</g>
</g>
<!-- Node20&#45;&gt;Node18 -->
<g id="edge25_Node000020_Node000018" class="edge">
<title>Node20&#45;&gt;Node18</title>
<g id="a_edge25_Node000020_Node000018"><a xlink:title=" ">
<path fill="none" stroke="#63b8ff" d="M796.96,-612.64C829.46,-618.88 875.85,-627.77 911.04,-634.52"/>
<polygon fill="#63b8ff" stroke="#63b8ff" points="910.07,-637.9 920.55,-636.34 911.38,-631.02 910.07,-637.9"/>
</a>
</g>
</g>
<!-- Node20&#45;&gt;Node19 -->
<g id="edge26_Node000020_Node000019" class="edge">
<title>Node20&#45;&gt;Node19</title>
<g id="a_edge26_Node000020_Node000019"><a xlink:title=" ">
<path fill="none" stroke="#63b8ff" d="M797.03,-606.35C852.08,-608.38 955.22,-613.35 1042.5,-624.12 1063.11,-626.67 1085.69,-630.56 1105.04,-634.23"/>
<polygon fill="#63b8ff" stroke="#63b8ff" points="1104.36,-637.66 1114.84,-636.13 1105.69,-630.79 1104.36,-637.66"/>
</a>
</g>
</g>
<!-- Node21 -->
<g id="Node000021" class="node">
<title>Node21</title>
<g id="a_Node000021"><a xlink:href="bsp__pwm_8c.html#a4bdefcd18b0b080f1e8db825e33c80e8" target="_top" xlink:title="使能功率输出（解除封波）">
<polygon fill="white" stroke="#666666" points="1023,-518.25 901.25,-518.25 901.25,-496 1023,-496 1023,-518.25"/>
<text xml:space="preserve" text-anchor="middle" x="962.12" y="-502.85" font-family="Helvetica,sans-Serif" font-size="12.00">BSP_PWM_Enable</text>
</a>
</g>
</g>
<!-- Node20&#45;&gt;Node21 -->
<g id="edge23_Node000020_Node000021" class="edge">
<title>Node20&#45;&gt;Node21</title>
<g id="a_edge23_Node000020_Node000021"><a xlink:title=" ">
<path fill="none" stroke="#63b8ff" d="M781.48,-593.69C817.43,-576.37 885.88,-543.38 927.12,-523.51"/>
<polygon fill="#63b8ff" stroke="#63b8ff" points="928.38,-526.79 935.87,-519.29 925.34,-520.48 928.38,-526.79"/>
</a>
</g>
</g>
<!-- Node20&#45;&gt;Node23 -->
<g id="edge27_Node000020_Node000023" class="edge">
<title>Node20&#45;&gt;Node23</title>
<g id="a_edge27_Node000020_Node000023"><a xlink:title=" ">
<path fill="none" stroke="#63b8ff" d="M797.03,-612.03C812.85,-615.88 830.84,-621.65 845.75,-630.12 864.88,-641 862.46,-653.54 881.75,-664.12 884.61,-665.7 887.6,-667.14 890.67,-668.48"/>
<polygon fill="#63b8ff" stroke="#63b8ff" points="889.33,-671.72 899.92,-672.07 891.86,-665.19 889.33,-671.72"/>
</a>
</g>
</g>
<!-- Node22 -->
<g id="Node000022" class="node">
<title>Node22</title>
<g id="a_Node000022"><a xlink:href="bsp__pwm_8c.html#af4a87e2cef845a3eba6d0170011ff08d" target="_top" xlink:title="三相占空比清零（低侧全导通：自举预充/动态刹车态）">
<polygon fill="white" stroke="#666666" points="1229.5,-518.25 1078.5,-518.25 1078.5,-496 1229.5,-496 1229.5,-518.25"/>
<text xml:space="preserve" text-anchor="middle" x="1154" y="-502.85" font-family="Helvetica,sans-Serif" font-size="12.00">BSP_PWM_SetDutyZero</text>
</a>
</g>
</g>
<!-- Node21&#45;&gt;Node22 -->
<g id="edge24_Node000021_Node000022" class="edge">
<title>Node21&#45;&gt;Node22</title>
<g id="a_edge24_Node000021_Node000022"><a xlink:title=" ">
<path fill="none" stroke="#63b8ff" d="M1023.46,-507.12C1037.31,-507.12 1052.29,-507.12 1066.99,-507.12"/>
<polygon fill="#63b8ff" stroke="#63b8ff" points="1066.63,-510.63 1076.63,-507.13 1066.63,-503.63 1066.63,-510.63"/>
</a>
</g>
</g>
<!-- Node27 -->
<g id="Node000027" class="node">
<title>Node27</title>
<g id="a_Node000027"><a xlink:href="motor__ctrl_8c.html#a5cbc0a7993d542a75e755f2e4dc5ab1e" target="_top" xlink:title="对称限幅">
<polygon fill="white" stroke="#666666" points="1000.5,-298.25 923.75,-298.25 923.75,-276 1000.5,-276 1000.5,-298.25"/>
<text xml:space="preserve" text-anchor="middle" x="962.12" y="-282.85" font-family="Helvetica,sans-Serif" font-size="12.00">MC_Clamp</text>
</a>
</g>
</g>
<!-- Node26&#45;&gt;Node27 -->
<g id="edge31_Node000026_Node000027" class="edge">
<title>Node26&#45;&gt;Node27</title>
<g id="a_edge31_Node000026_Node000027"><a xlink:title=" ">
<path fill="none" stroke="#63b8ff" d="M813.86,-287.12C844.69,-287.12 882.56,-287.12 912.18,-287.12"/>
<polygon fill="#63b8ff" stroke="#63b8ff" points="911.99,-290.63 921.99,-287.13 911.99,-283.63 911.99,-290.63"/>
</a>
</g>
</g>
<!-- Node30&#45;&gt;Node18 -->
<g id="edge38_Node000030_Node000018" class="edge">
<title>Node30&#45;&gt;Node18</title>
<g id="a_edge38_Node000030_Node000018"><a xlink:title=" ">
<path fill="none" stroke="#63b8ff" d="M819.62,-452.46C829.25,-455.62 838.41,-460.29 845.75,-467.12 886.17,-504.8 849.79,-541.05 881.75,-586.12 893.77,-603.07 912.3,-617.02 928.44,-626.98"/>
<polygon fill="#63b8ff" stroke="#63b8ff" points="926.4,-629.84 936.8,-631.9 929.95,-623.81 926.4,-629.84"/>
</a>
</g>
</g>
<!-- Node30&#45;&gt;Node21 -->
<g id="edge35_Node000030_Node000021" class="edge">
<title>Node30&#45;&gt;Node21</title>
<g id="a_edge35_Node000030_Node000021"><a xlink:title=" ">
<path fill="none" stroke="#63b8ff" d="M812.91,-458.68C823.85,-461.25 835.21,-464.11 845.75,-467.12 870.86,-474.31 898.52,-483.84 920.46,-491.8"/>
<polygon fill="#63b8ff" stroke="#63b8ff" points="919.04,-495 929.63,-495.16 921.44,-488.43 919.04,-495"/>
</a>
</g>
</g>
<!-- Node31 -->
<g id="Node000031" class="node">
<title>Node31</title>
<g id="a_Node000031"><a xlink:href="calibration_8c.html#a799bd918d9fd1f5b3c231d1d92b7fe0d" target="_top" xlink:title="启动校准状态机">
<polygon fill="white" stroke="#666666" points="997.88,-458.25 926.38,-458.25 926.38,-436 997.88,-436 997.88,-458.25"/>
<text xml:space="preserve" text-anchor="middle" x="962.12" y="-442.85" font-family="Helvetica,sans-Serif" font-size="12.00">CAL_Start</text>
</a>
</g>
</g>
<!-- Node30&#45;&gt;Node31 -->
<g id="edge36_Node000030_Node000031" class="edge">
<title>Node30&#45;&gt;Node31</title>
<g id="a_edge36_Node000030_Node000031"><a xlink:title=" ">
<path fill="none" stroke="#63b8ff" d="M819.6,-447.12C850.31,-447.12 886.78,-447.12 915,-447.12"/>
<polygon fill="#63b8ff" stroke="#63b8ff" points="914.65,-450.63 924.65,-447.13 914.65,-443.63 914.65,-450.63"/>
</a>
</g>
</g>
<!-- Node32 -->
<g id="Node000032" class="node">
<title>Node32</title>
<g id="a_Node000032"><a xlink:href="bsp__encoder_8c.html#a3daa1572c53aadb74b5ef71eb5422da8" target="_top" xlink:title="读取方向反转标志">
<polygon fill="white" stroke="#666666" points="1218.25,-458.25 1089.75,-458.25 1089.75,-436 1218.25,-436 1218.25,-458.25"/>
<text xml:space="preserve" text-anchor="middle" x="1154" y="-442.85" font-family="Helvetica,sans-Serif" font-size="12.00">BSP_ENC_GetInvert</text>
</a>
</g>
</g>
<!-- Node31&#45;&gt;Node32 -->
<g id="edge37_Node000031_Node000032" class="edge">
<title>Node31&#45;&gt;Node32</title>
<g id="a_edge37_Node000031_Node000032"><a xlink:title=" ">
<path fill="none" stroke="#63b8ff" d="M997.95,-447.12C1020.44,-447.12 1050.57,-447.12 1078.29,-447.12"/>
<polygon fill="#63b8ff" stroke="#63b8ff" points="1078.08,-450.63 1088.08,-447.13 1078.08,-443.63 1078.08,-450.63"/>
</a>
</g>
</g>
<!-- Node33&#45;&gt;Node16 -->
<g id="edge44_Node000033_Node000016" class="edge">
<title>Node33&#45;&gt;Node16</title>
<g id="a_edge44_Node000033_Node000016"><a xlink:title=" ">
<path fill="none" stroke="#63b8ff" d="M619.45,-774.75C646.09,-780.29 677.76,-786.89 703.87,-792.32"/>
<polygon fill="#63b8ff" stroke="#63b8ff" points="703.08,-795.73 713.58,-794.35 704.5,-788.88 703.08,-795.73"/>
</a>
</g>
</g>
<!-- Node33&#45;&gt;Node20 -->
<g id="edge45_Node000033_Node000020" class="edge">
<title>Node33&#45;&gt;Node20</title>
<g id="a_edge45_Node000033_Node000020"><a xlink:title=" ">
<path fill="none" stroke="#63b8ff" d="M574.26,-751.62C592.45,-732.25 631.13,-692.38 667.75,-663.12 686.39,-648.23 708.88,-633.46 726.45,-622.55"/>
<polygon fill="#63b8ff" stroke="#63b8ff" points="728.18,-625.6 734.88,-617.4 724.52,-619.63 728.18,-625.6"/>
</a>
</g>
</g>
<!-- Node33&#45;&gt;Node23 -->
<g id="edge50_Node000033_Node000023" class="edge">
<title>Node33&#45;&gt;Node23</title>
<g id="a_edge50_Node000033_Node000023"><a xlink:title=" ">
<path fill="none" stroke="#63b8ff" d="M577.71,-774.51C596.77,-789.12 632.48,-813.69 667.75,-823.12 744.17,-843.57 780.95,-868.51 845.75,-823.12 884.1,-796.27 850.65,-759.13 881.75,-724.12 890.63,-714.13 902.59,-706.32 914.52,-700.36"/>
<polygon fill="#63b8ff" stroke="#63b8ff" points="915.92,-703.57 923.55,-696.22 913.01,-697.21 915.92,-703.57"/>
</a>
</g>
</g>
<!-- Node33&#45;&gt;Node24 -->
<g id="edge47_Node000033_Node000024" class="edge">
<title>Node33&#45;&gt;Node24</title>
<g id="a_edge47_Node000033_Node000024"><a xlink:title=" ">
<path fill="none" stroke="#63b8ff" d="M579.8,-751.74C599.64,-738.27 634.72,-716.05 667.75,-703.12 678.14,-699.06 689.57,-695.7 700.65,-692.98"/>
<polygon fill="#63b8ff" stroke="#63b8ff" points="701.12,-696.46 710.08,-690.81 699.55,-689.64 701.12,-696.46"/>
</a>
</g>
</g>
<!-- Node33&#45;&gt;Node29 -->
<g id="edge48_Node000033_Node000029" class="edge">
<title>Node33&#45;&gt;Node29</title>
<g id="a_edge48_Node000033_Node000029"><a xlink:title=" ">
<path fill="none" stroke="#63b8ff" d="M619.45,-751.5C641.54,-746.9 667.1,-741.58 690.07,-736.8"/>
<polygon fill="#63b8ff" stroke="#63b8ff" points="690.55,-740.27 699.63,-734.81 689.12,-733.42 690.55,-740.27"/>
</a>
</g>
</g>
<!-- Node34 -->
<g id="Node000034" class="node">
<title>Node34</title>
<g id="a_Node000034"><a xlink:href="app__can__protocol_8c.html#a3f462aec782e36efd750a47844167fae" target="_top" xlink:title="发送 MIT 反馈帧（B0=ID，P16 V12 T12，发往主机 ID）">
<polygon fill="white" stroke="#666666" points="845.75,-774.25 667.75,-774.25 667.75,-752 845.75,-752 845.75,-774.25"/>
<text xml:space="preserve" text-anchor="middle" x="756.75" y="-758.85" font-family="Helvetica,sans-Serif" font-size="12.00">APP_CAN_SendMitFeedback</text>
</a>
</g>
</g>
<!-- Node33&#45;&gt;Node34 -->
<g id="edge41_Node000033_Node000034" class="edge">
<title>Node33&#45;&gt;Node34</title>
<g id="a_edge41_Node000033_Node000034"><a xlink:title=" ">
<path fill="none" stroke="#63b8ff" d="M630.55,-763.12C638.83,-763.12 647.44,-763.12 656.08,-763.12"/>
<polygon fill="#63b8ff" stroke="#63b8ff" points="655.92,-766.63 665.92,-763.13 655.92,-759.63 655.92,-766.63"/>
</a>
</g>
</g>
<!-- Node36 -->
<g id="Node000036" class="node">
<title>Node36</title>
<g id="a_Node000036"><a xlink:href="motor__ctrl_8c.html#a594eac2b46116c156ad61f86ae7e4678" target="_top" xlink:title="设置 MIT 阻抗指令（五元组原子更新）">
<polygon fill="white" stroke="#666666" points="822.12,-932.25 691.38,-932.25 691.38,-910 822.12,-910 822.12,-932.25"/>
<text xml:space="preserve" text-anchor="middle" x="756.75" y="-916.85" font-family="Helvetica,sans-Serif" font-size="12.00">MC_SetMitCommand</text>
</a>
</g>
</g>
<!-- Node33&#45;&gt;Node36 -->
<g id="edge46_Node000033_Node000036" class="edge">
<title>Node33&#45;&gt;Node36</title>
<g id="a_edge46_Node000033_Node000036"><a xlink:title=" ">
<path fill="none" stroke="#63b8ff" d="M568.77,-774.56C581.44,-801.32 616.84,-868.21 667.75,-901.12 671.75,-903.71 676.03,-905.96 680.49,-907.92"/>
<polygon fill="#63b8ff" stroke="#63b8ff" points="679.11,-911.15 689.7,-911.46 681.62,-904.61 679.11,-911.15"/>
</a>
</g>
</g>
<!-- Node37 -->
<g id="Node000037" class="node">
<title>Node37</title>
<g id="a_Node000037"><a xlink:href="app__can__protocol_8c.html#a53bb63a1ac49bb84cd3f88ef1cc02112" target="_top" xlink:title="mini&#45;cheetah 解包：无符号整数 &#45;&gt; float">
<polygon fill="white" stroke="#666666" points="809,-892.25 704.5,-892.25 704.5,-870 809,-870 809,-892.25"/>
<text xml:space="preserve" text-anchor="middle" x="756.75" y="-876.85" font-family="Helvetica,sans-Serif" font-size="12.00">MIT_UintToFloat</text>
</a>
</g>
</g>
<!-- Node33&#45;&gt;Node37 -->
<g id="edge49_Node000033_Node000037" class="edge">
<title>Node33&#45;&gt;Node37</title>
<g id="a_edge49_Node000033_Node000037"><a xlink:title=" ">
<path fill="none" stroke="#63b8ff" d="M573.31,-774.68C590.38,-794.3 627.82,-834.16 667.75,-856.12 675.76,-860.53 684.62,-864.22 693.55,-867.29"/>
<polygon fill="#63b8ff" stroke="#63b8ff" points="692.37,-870.59 702.96,-870.28 694.49,-863.92 692.37,-870.59"/>
</a>
</g>
</g>
<!-- Node34&#45;&gt;Node6 -->
<g id="edge42_Node000034_Node000006" class="edge">
<title>Node34&#45;&gt;Node6</title>
<g id="a_edge42_Node000034_Node000006"><a xlink:title=" ">
<path fill="none" stroke="#63b8ff" d="M833.96,-751.61C838.21,-749.24 842.2,-746.44 845.75,-743.12 886.17,-705.45 849.79,-669.2 881.75,-624.12 893.77,-607.18 912.3,-593.23 928.44,-583.27"/>
<polygon fill="#63b8ff" stroke="#63b8ff" points="929.95,-586.44 936.8,-578.35 926.4,-580.41 929.95,-586.44"/>
</a>
</g>
</g>
<!-- Node35 -->
<g id="Node000035" class="node">
<title>Node35</title>
<g id="a_Node000035"><a xlink:href="app__can__protocol_8c.html#a374783cd12e7c5b94cb6926640bc0980" target="_top" xlink:title="mini&#45;cheetah 打包：float &#45;&gt; 无符号整数">
<polygon fill="white" stroke="#666666" points="1014.38,-755.25 909.88,-755.25 909.88,-733 1014.38,-733 1014.38,-755.25"/>
<text xml:space="preserve" text-anchor="middle" x="962.12" y="-739.85" font-family="Helvetica,sans-Serif" font-size="12.00">MIT_FloatToUint</text>
</a>
</g>
</g>
<!-- Node34&#45;&gt;Node35 -->
<g id="edge43_Node000034_Node000035" class="edge">
<title>Node34&#45;&gt;Node35</title>
<g id="a_edge43_Node000034_Node000035"><a xlink:title=" ">
<path fill="none" stroke="#63b8ff" d="M846.07,-754.87C863.66,-753.23 881.8,-751.54 898.32,-749.99"/>
<polygon fill="#63b8ff" stroke="#63b8ff" points="898.34,-753.51 907.97,-749.09 897.69,-746.54 898.34,-753.51"/>
</a>
</g>
</g>
<!-- Node39 -->
<g id="Node000039" class="node">
<title>Node39</title>
<g id="a_Node000039"><a xlink:href="main_8c.html#a1730ffe1e560465665eb47d9264826f9" target="_top" xlink:title="This function is executed in case of error occurrence.">
<polygon fill="white" stroke="#666666" points="608.5,-62.25 516.75,-62.25 516.75,-40 608.5,-40 608.5,-62.25"/>
<text xml:space="preserve" text-anchor="middle" x="562.62" y="-46.85" font-family="Helvetica,sans-Serif" font-size="12.00">Error_Handler</text>
</a>
</g>
</g>
<!-- Node38&#45;&gt;Node39 -->
<g id="edge52_Node000038_Node000039" class="edge">
<title>Node38&#45;&gt;Node39</title>
<g id="a_edge52_Node000038_Node000039"><a xlink:title=" ">
<path fill="none" stroke="#63b8ff" d="M412.06,-51.12C440,-51.12 475.52,-51.12 504.94,-51.12"/>
<polygon fill="#63b8ff" stroke="#63b8ff" points="504.78,-54.63 514.78,-51.13 504.78,-47.63 504.78,-54.63"/>
</a>
</g>
</g>
</g>
</svg>

<g id="navigator" transform="translate(0 0)" fill="#404254">
  <rect fill="#f2f5e9" fill-opacity="0.5" stroke="#606060" stroke-width=".5" x="0" y="0" width="60" height="60"/>
  <use id="zoomplus" xlink:href="#zoomPlus" x="17" y="9" onmousedown="handleZoom(evt,'in')"/>
  <use id="zoomminus" xlink:href="#zoomMin" x="42" y="9" onmousedown="handleZoom(evt,'out')"/>
  <use id="reset" xlink:href="#resetDef" x="30" y="36" onmousedown="handleReset()"/>
   <use id="arrowup" xlink:href="#arrowUp" x="0" y="0" onmousedown="handlePan(0,-1)"/>
  <use id="arrowright" xlink:href="#arrowRight" x="0" y="0" onmousedown="handlePan(1,0)"/>
  <use id="arrowdown" xlink:href="#arrowDown" x="0" y="0" onmousedown="handlePan(0,1)"/>
  <use id="arrowleft" xlink:href="#arrowLeft" x="0" y="0" onmousedown="handlePan(-1,0)"/>
</g>
<svg viewBox="0 0 15 15" width="100%" height="30px" preserveAspectRatio="xMaxYMin meet">
 <g id="arrow_out" transform="scale(0.3 0.3)">
  <a xlink:href="app__can__protocol_8c_a6c2f3bebbd2597376fd87038ef059996_cgraph_org.svg" target="_base">
   <rect id="button" ry="5" rx="5" y="6" x="6" height="38" width="38"
        fill="#f2f5e9" fill-opacity="0.5" stroke="#606060" stroke-width="1.0"/>
   <path id="arrow"
     d="M 11.500037,31.436501 C 11.940474,20.09759 22.043105,11.32322 32.158766,21.979434 L 37.068811,17.246167 C 37.068811,17.246167 37.088388,32 37.088388,32 L 22.160133,31.978069 C 22.160133,31.978069 26.997745,27.140456 26.997745,27.140456 C 18.528582,18.264221 13.291696,25.230495 11.500037,31.436501 z"
     style="fill:#404040;"/>
  </a>
 </g>
</svg>

<style type='text/css'>
<![CDATA[
[data-mouse-over-selected='false'] { opacity: 0.7; }
[data-mouse-over-selected='true']  { opacity: 1.0; }
]]>
</style>
<script type="application/ecmascript"><![CDATA[
document.addEventListener('DOMContentLoaded', (event) => {
  highlightEdges();
  highlightAdjacentNodes();
});
]]></script>
</svg>
