<?xml version="1.0" encoding="UTF-8" standalone="no"?>
<!DOCTYPE svg PUBLIC "-//W3C//DTD SVG 1.1//EN"
 "http://www.w3.org/Graphics/SVG/1.1/DTD/svg11.dtd">
<!-- Generated by graphviz version 15.1.0 (20260618.0150)
 -->
<!-- Title: APP_MON_Poll Pages: 1 -->
<svg width="596pt" height="150pt"
 viewBox="0.00 0.00 596.00 150.00" xmlns="http://www.w3.org/2000/svg" xmlns:xlink="http://www.w3.org/1999/xlink">
<g id="graph0" class="graph" transform="scale(1 1) rotate(0) translate(4 146.25)">
<title>APP_MON_Poll</title>
<!-- Node1 -->
<g id="Node000001" class="node">
<title>Node1</title>
<g id="a_Node000001"><a xlink:title="周期日志轮询（后台调用）">
<polygon fill="#999999" stroke="#666666" points="103,-82.25 0,-82.25 0,-60 103,-60 103,-82.25"/>
<text xml:space="preserve" text-anchor="middle" x="51.5" y="-66.85" font-family="Helvetica,sans-Serif" font-size="12.00">APP_MON_Poll</text>
</a>
</g>
</g>
<!-- Node2 -->
<g id="Node000002" class="node">
<title>Node2</title>
<g id="a_Node000002"><a xlink:href="app__main_8c.html#ac8ace74f779c511fb8d2815fc84da4cd" target="_top" xlink:title="读取 MOS 温度缓存 [C]">
<polygon fill="white" stroke="#666666" points="260.75,-142.25 142.75,-142.25 142.75,-120 260.75,-120 260.75,-142.25"/>
<text xml:space="preserve" text-anchor="middle" x="201.75" y="-126.85" font-family="Helvetica,sans-Serif" font-size="12.00">APP_GetMosTemp</text>
</a>
</g>
</g>
<!-- Node1&#45;&gt;Node2 -->
<g id="edge1_Node000001_Node000002" class="edge">
<title>Node1&#45;&gt;Node2</title>
<g id="a_edge1_Node000001_Node000002"><a xlink:title=" ">
<path fill="none" stroke="#63b8ff" d="M75.3,-82.58C92.56,-91.03 116.97,-102.5 139,-111.12 143.13,-112.74 147.45,-114.34 151.81,-115.87"/>
<polygon fill="#63b8ff" stroke="#63b8ff" points="150.59,-119.16 161.18,-119.08 152.85,-112.53 150.59,-119.16"/>
</a>
</g>
</g>
<!-- Node3 -->
<g id="Node000003" class="node">
<title>Node3</title>
<g id="a_Node000003"><a xlink:href="app__main_8c.html#af1c8ed1fa98ee3361a1d12b25d58e298" target="_top" xlink:title="读取电机温度缓存 [C]">
<polygon fill="white" stroke="#666666" points="264.5,-102.25 139,-102.25 139,-80 264.5,-80 264.5,-102.25"/>
<text xml:space="preserve" text-anchor="middle" x="201.75" y="-86.85" font-family="Helvetica,sans-Serif" font-size="12.00">APP_GetMotorTemp</text>
</a>
</g>
</g>
<!-- Node1&#45;&gt;Node3 -->
<g id="edge2_Node000001_Node000003" class="edge">
<title>Node1&#45;&gt;Node3</title>
<g id="a_edge2_Node000001_Node000003"><a xlink:title=" ">
<path fill="none" stroke="#63b8ff" d="M103.1,-77.95C110.95,-79.01 119.18,-80.12 127.4,-81.23"/>
<polygon fill="#63b8ff" stroke="#63b8ff" points="126.69,-84.67 137.07,-82.53 127.63,-77.73 126.69,-84.67"/>
</a>
</g>
</g>
<!-- Node4 -->
<g id="Node000004" class="node">
<title>Node4</title>
<g id="a_Node000004"><a xlink:href="bsp__uart_8c.html#ac8fe8954e03174bb365847f52531e218" target="_top" xlink:title="格式化打印到调试串口（非阻塞）">
<polygon fill="white" stroke="#666666" points="259.25,-62.25 144.25,-62.25 144.25,-40 259.25,-40 259.25,-62.25"/>
<text xml:space="preserve" text-anchor="middle" x="201.75" y="-46.85" font-family="Helvetica,sans-Serif" font-size="12.00">BSP_UART_Printf</text>
</a>
</g>
</g>
<!-- Node1&#45;&gt;Node4 -->
<g id="edge3_Node000001_Node000004" class="edge">
<title>Node1&#45;&gt;Node4</title>
<g id="a_edge3_Node000001_Node000004"><a xlink:title=" ">
<path fill="none" stroke="#63b8ff" d="M103.1,-64.3C112.61,-63.02 122.7,-61.66 132.63,-60.31"/>
<polygon fill="#63b8ff" stroke="#63b8ff" points="132.81,-63.82 142.25,-59.02 131.88,-56.88 132.81,-63.82"/>
</a>
</g>
</g>
<!-- Node7 -->
<g id="Node000007" class="node">
<title>Node7</title>
<g id="a_Node000007"><a xlink:href="bsp__uart_8c.html#ad53db0bf6b7aefc698e0d23d6fdda51e" target="_top" xlink:title="查询 TX 环形缓冲剩余空间">
<polygon fill="white" stroke="#666666" points="264.5,-22.25 139,-22.25 139,0 264.5,0 264.5,-22.25"/>
<text xml:space="preserve" text-anchor="middle" x="201.75" y="-6.85" font-family="Helvetica,sans-Serif" font-size="12.00">BSP_UART_TxFree</text>
</a>
</g>
</g>
<!-- Node1&#45;&gt;Node7 -->
<g id="edge6_Node000001_Node000007" class="edge">
<title>Node1&#45;&gt;Node7</title>
<g id="a_edge6_Node000001_Node000007"><a xlink:title=" ">
<path fill="none" stroke="#63b8ff" d="M75.3,-59.67C92.56,-51.22 116.97,-39.75 139,-31.12 143.13,-29.51 147.45,-27.91 151.81,-26.38"/>
<polygon fill="#63b8ff" stroke="#63b8ff" points="152.85,-29.72 161.18,-23.17 150.59,-23.09 152.85,-29.72"/>
</a>
</g>
</g>
<!-- Node5 -->
<g id="Node000005" class="node">
<title>Node5</title>
<g id="a_Node000005"><a xlink:href="bsp__uart_8c.html#a67e2eb7d361398076d0800612430f13c" target="_top" xlink:title="向 TX 环形缓冲写入数据（非阻塞）">
<polygon fill="white" stroke="#666666" points="415.5,-62.25 300.5,-62.25 300.5,-40 415.5,-40 415.5,-62.25"/>
<text xml:space="preserve" text-anchor="middle" x="358" y="-46.85" font-family="Helvetica,sans-Serif" font-size="12.00">BSP_UART_Write</text>
</a>
</g>
</g>
<!-- Node4&#45;&gt;Node5 -->
<g id="edge4_Node000004_Node000005" class="edge">
<title>Node4&#45;&gt;Node5</title>
<g id="a_edge4_Node000004_Node000005"><a xlink:title=" ">
<path fill="none" stroke="#63b8ff" d="M259.75,-51.12C269.25,-51.12 279.19,-51.12 288.93,-51.12"/>
<polygon fill="#63b8ff" stroke="#63b8ff" points="288.72,-54.63 298.72,-51.13 288.72,-47.63 288.72,-54.63"/>
</a>
</g>
</g>
<!-- Node6 -->
<g id="Node000006" class="node">
<title>Node6</title>
<g id="a_Node000006"><a xlink:href="bsp__uart_8c.html#ad4dee4b2dd593f1d4c141de95156546d" target="_top" xlink:title="若 DMA 空闲且缓冲有数据，则启动下一段 DMA 传输">
<polygon fill="white" stroke="#666666" points="587.5,-62.25 451.5,-62.25 451.5,-40 587.5,-40 587.5,-62.25"/>
<text xml:space="preserve" text-anchor="middle" x="519.5" y="-46.85" font-family="Helvetica,sans-Serif" font-size="12.00">BSP_UART_KickDma</text>
</a>
</g>
</g>
<!-- Node5&#45;&gt;Node6 -->
<g id="edge5_Node000005_Node000006" class="edge">
<title>Node5&#45;&gt;Node6</title>
<g id="a_edge5_Node000005_Node000006"><a xlink:title=" ">
<path fill="none" stroke="#63b8ff" d="M415.68,-51.12C423.47,-51.12 431.58,-51.12 439.68,-51.12"/>
<polygon fill="#63b8ff" stroke="#63b8ff" points="439.58,-54.63 449.58,-51.13 439.58,-47.63 439.58,-54.63"/>
</a>
</g>
</g>
</g>
</svg>
