<?xml version="1.0" encoding="UTF-8" standalone="no"?>
<!DOCTYPE svg PUBLIC "-//W3C//DTD SVG 1.1//EN"
 "http://www.w3.org/Graphics/SVG/1.1/DTD/svg11.dtd">
<!-- Generated by graphviz version 15.1.0 (20260618.0150)
 -->
<!-- Title: APP_PARAMS_ProcessSaveRequest Pages: 1 -->
<svg width="758pt" height="30pt"
 viewBox="0.00 0.00 758.00 30.00" xmlns="http://www.w3.org/2000/svg" xmlns:xlink="http://www.w3.org/1999/xlink">
<g id="graph0" class="graph" transform="scale(1 1) rotate(0) translate(4 26.25)">
<title>APP_PARAMS_ProcessSaveRequest</title>
<!-- Node1 -->
<g id="Node000001" class="node">
<title>Node1</title>
<g id="a_Node000001"><a xlink:title="处理挂起的保存请求（后台循环调用）">
<polygon fill="#999999" stroke="#666666" points="220.75,-22.25 0,-22.25 0,0 220.75,0 220.75,-22.25"/>
<text xml:space="preserve" text-anchor="middle" x="110.38" y="-6.85" font-family="Helvetica,sans-Serif" font-size="12.00">APP_PARAMS_ProcessSaveRequest</text>
</a>
</g>
</g>
<!-- Node2 -->
<g id="Node000002" class="node">
<title>Node2</title>
<g id="a_Node000002"><a xlink:href="app__params_8c.html#ac523ba0893e64080fcd28850bbf687fa" target="_top" xlink:title="立即保存参数（仅限电机封波状态下调用）">
<polygon fill="white" stroke="#666666" points="389,-22.25 256.75,-22.25 256.75,0 389,0 389,-22.25"/>
<text xml:space="preserve" text-anchor="middle" x="322.88" y="-6.85" font-family="Helvetica,sans-Serif" font-size="12.00">APP_PARAMS_Save</text>
</a>
</g>
</g>
<!-- Node1&#45;&gt;Node2 -->
<g id="edge1_Node000001_Node000002" class="edge">
<title>Node1&#45;&gt;Node2</title>
<g id="a_edge1_Node000001_Node000002"><a xlink:title=" ">
<path fill="none" stroke="#63b8ff" d="M221.25,-11.12C229.19,-11.12 237.1,-11.12 244.79,-11.12"/>
<polygon fill="#63b8ff" stroke="#63b8ff" points="244.76,-14.63 254.76,-11.13 244.76,-7.63 244.76,-14.63"/>
</a>
</g>
</g>
<!-- Node3 -->
<g id="Node000003" class="node">
<title>Node3</title>
<g id="a_Node000003"><a xlink:href="bsp__flash_8c.html#a26214159159f35bf8008eb4cd97a626e" target="_top" xlink:title="保存参数到参数页（擦除 + 双字编程）">
<polygon fill="white" stroke="#666666" points="588,-22.25 425,-22.25 425,0 588,0 588,-22.25"/>
<text xml:space="preserve" text-anchor="middle" x="506.5" y="-6.85" font-family="Helvetica,sans-Serif" font-size="12.00">BSP_FLASH_SaveParams</text>
</a>
</g>
</g>
<!-- Node2&#45;&gt;Node3 -->
<g id="edge2_Node000002_Node000003" class="edge">
<title>Node2&#45;&gt;Node3</title>
<g id="a_edge2_Node000002_Node000003"><a xlink:title=" ">
<path fill="none" stroke="#63b8ff" d="M389.45,-11.12C397.18,-11.12 405.18,-11.12 413.2,-11.12"/>
<polygon fill="#63b8ff" stroke="#63b8ff" points="413,-14.63 423,-11.13 413,-7.63 413,-14.63"/>
</a>
</g>
</g>
<!-- Node4 -->
<g id="Node000004" class="node">
<title>Node4</title>
<g id="a_Node000004"><a xlink:href="bsp__flash_8c.html#aa1c7fee83ecbb51032b9dad44332a207" target="_top" xlink:title="硬件 CRC32 计算（默认多项式 0x4C11DB7，全字复位初值）">
<polygon fill="white" stroke="#666666" points="750.25,-22.25 624,-22.25 624,0 750.25,0 750.25,-22.25"/>
<text xml:space="preserve" text-anchor="middle" x="687.12" y="-6.85" font-family="Helvetica,sans-Serif" font-size="12.00">BSP_FLASH_Crc32</text>
</a>
</g>
</g>
<!-- Node3&#45;&gt;Node4 -->
<g id="edge3_Node000003_Node000004" class="edge">
<title>Node3&#45;&gt;Node4</title>
<g id="a_edge3_Node000003_Node000004"><a xlink:title=" ">
<path fill="none" stroke="#63b8ff" d="M588.45,-11.12C596.39,-11.12 604.42,-11.12 612.28,-11.12"/>
<polygon fill="#63b8ff" stroke="#63b8ff" points="612.14,-14.63 622.14,-11.13 612.14,-7.63 612.14,-14.63"/>
</a>
</g>
</g>
</g>
</svg>
