<?xml version="1.0" encoding="UTF-8" standalone="no"?>
<!DOCTYPE svg PUBLIC "-//W3C//DTD SVG 1.1//EN"
 "http://www.w3.org/Graphics/SVG/1.1/DTD/svg11.dtd">
<!-- Generated by graphviz version 15.1.0 (20260618.0150)
 -->
<!-- Title: Application/app/app_main.c Pages: 1 -->
<!--zoomable 278 -->

<svg id="main" version="1.1" xmlns="http://www.w3.org/2000/svg" xmlns:xlink="http://www.w3.org/1999/xlink" xml:space="preserve" onload="init(evt)">

<style type="text/css"><![CDATA[
.node, .edge {opacity: 0.7;}
.node.selected, .edge.selected {opacity: 1;}
.edge:hover path { stroke: red; }
.edge:hover polygon { stroke: red; fill: red; }
]]></style>

<defs>
  <circle id="rim" cx="0" cy="0" r="7"/>
  <circle id="rim2" cx="0" cy="0" r="3.5"/>
  <g id="zoomPlus">
    <use xlink:href="#rim" fill="#404040"><set attributeName="fill" to="#808080" begin="zoomplus.mouseover" end="zoomplus.mouseout"/></use>
    <path d="M-4,0h8M0,-4v8" fill="none" stroke="white" stroke-width="1.5" pointer-events="none"/>
  </g>
  <g id="zoomMin">
    <use xlink:href="#rim" fill="#404040"><set attributeName="fill" to="#808080" begin="zoomminus.mouseover" end="zoomminus.mouseout"/></use>
    <path d="M-4,0h8" fill="none" stroke="white" stroke-width="1.5" pointer-events="none"/>
  </g>
  <g id="arrowUp" transform="translate(30 24)">
    <use xlink:href="#rim"/>
    <path pointer-events="none" fill="none" stroke="white" stroke-width="1.5" d="M0,-3.0v7 M-2.5,-0.5L0,-3.0L2.5,-0.5"/>
  </g>
  <g id="arrowRight" transform="rotate(90) translate(36 -43)">
    <use xlink:href="#rim"/>
    <path pointer-events="none" fill="none" stroke="white" stroke-width="1.5" d="M0,-3.0v7 M-2.5,-0.5L0,-3.0L2.5,-0.5"/>
  </g>
  <g id="arrowDown" transform="rotate(180) translate(-30 -48)">
    <use xlink:href="#rim"/>
    <path pointer-events="none" fill="none" stroke="white" stroke-width="1.5" d="M0,-3.0v7 M-2.5,-0.5L0,-3.0L2.5,-0.5"/>
  </g>
  <g id="arrowLeft" transform="rotate(270) translate(-36 17)">
    <use xlink:href="#rim"/>
    <path pointer-events="none" fill="none" stroke="white" stroke-width="1.5" d="M0,-3.0v7 M-2.5,-0.5L0,-3.0L2.5,-0.5"/>
  </g>
  <g id="resetDef">
    <use xlink:href="#rim2" fill="#404040"><set attributeName="fill" to="#808080" begin="reset.mouseover" end="reset.mouseout"/></use>
  </g>
</defs>
<script type="application/ecmascript">
var viewWidth = 1168;
var viewHeight = 278;
var sectionId = 'dynsection-0';
</script>
<script type="application/ecmascript" xlink:href="svg.min.js"/>
<svg id="graph" class="graph">
<g id="viewport">
<title>Application/app/app_main.c</title>
<!-- Node1 -->
<g id="Node000001" class="node">
<title>Node1</title>
<g id="a_Node000001"><a xlink:title="应用入口模块（前后台调度）">
<polygon fill="#999999" stroke="#666666" points="581.75,-269.5 459.25,-269.5 459.25,-233 581.75,-233 581.75,-269.5"/>
<text xml:space="preserve" text-anchor="start" x="467.25" y="-254.1" font-family="Helvetica,sans-Serif" font-size="12.00">Application/app/app</text>
<text xml:space="preserve" text-anchor="middle" x="520.5" y="-239.85" font-family="Helvetica,sans-Serif" font-size="12.00">_main.c</text>
</a>
</g>
</g>
<!-- Node2 -->
<g id="Node000002" class="node">
<title>Node2</title>
<g id="a_Node000002"><a xlink:href="app__main_8h.html" target="_top" xlink:title="应用入口模块头文件（前后台调度）">
<polygon fill="white" stroke="#666666" points="79,-197 0,-197 0,-174.75 79,-174.75 79,-197"/>
<text xml:space="preserve" text-anchor="middle" x="39.5" y="-181.6" font-family="Helvetica,sans-Serif" font-size="12.00">app_main.h</text>
</a>
</g>
</g>
<!-- Node1&#45;&gt;Node2 -->
<g id="edge1_Node000001_Node000002" class="edge">
<title>Node1&#45;&gt;Node2</title>
<g id="a_edge1_Node000001_Node000002"><a xlink:title=" ">
<path fill="none" stroke="#63b8ff" d="M458.82,-243.76C375.65,-234.73 223.04,-217.2 93.5,-197 92.49,-196.84 91.47,-196.68 90.44,-196.51"/>
<polygon fill="#63b8ff" stroke="#63b8ff" points="91.2,-193.09 80.76,-194.87 90.03,-199.99 91.2,-193.09"/>
</a>
</g>
</g>
<!-- Node3 -->
<g id="Node000003" class="node">
<title>Node3</title>
<g id="a_Node000003"><a xlink:href="app__params_8h.html" target="_top" xlink:title="运行参数管理头文件（RAM 副本 + Flash 持久化）">
<polygon fill="white" stroke="#666666" points="710.75,-138.75 618.25,-138.75 618.25,-116.5 710.75,-116.5 710.75,-138.75"/>
<text xml:space="preserve" text-anchor="middle" x="664.5" y="-123.35" font-family="Helvetica,sans-Serif" font-size="12.00">app_params.h</text>
</a>
</g>
</g>
<!-- Node1&#45;&gt;Node3 -->
<g id="edge2_Node000001_Node000003" class="edge">
<title>Node1&#45;&gt;Node3</title>
<g id="a_edge2_Node000001_Node000003"><a xlink:title=" ">
<path fill="none" stroke="#63b8ff" d="M541.44,-232.56C568.65,-209.58 615.91,-169.66 643.27,-146.56"/>
<polygon fill="#63b8ff" stroke="#63b8ff" points="645.51,-149.24 650.89,-140.12 641,-143.9 645.51,-149.24"/>
</a>
</g>
</g>
<!-- Node7 -->
<g id="Node000007" class="node">
<title>Node7</title>
<g id="a_Node000007"><a xlink:href="app__can__protocol_8h.html" target="_top" xlink:title="CAN 应用协议头文件（MIT 运控协议 + 配置协议）">
<polygon fill="white" stroke="#666666" points="600.38,-138.75 478.62,-138.75 478.62,-116.5 600.38,-116.5 600.38,-138.75"/>
<text xml:space="preserve" text-anchor="middle" x="539.5" y="-123.35" font-family="Helvetica,sans-Serif" font-size="12.00">app_can_protocol.h</text>
</a>
</g>
</g>
<!-- Node1&#45;&gt;Node7 -->
<g id="edge6_Node000001_Node000007" class="edge">
<title>Node1&#45;&gt;Node7</title>
<g id="a_edge6_Node000001_Node000007"><a xlink:title=" ">
<path fill="none" stroke="#63b8ff" d="M523.26,-232.56C526.67,-210.78 532.44,-173.8 536.11,-150.32"/>
<polygon fill="#63b8ff" stroke="#63b8ff" points="539.54,-151.06 537.62,-140.64 532.62,-149.98 539.54,-151.06"/>
</a>
</g>
</g>
<!-- Node8 -->
<g id="Node000008" class="node">
<title>Node8</title>
<g id="a_Node000008"><a xlink:href="app__led_8h.html" target="_top" xlink:title="状态灯语模块头文件">
<polygon fill="white" stroke="#666666" points="301.12,-197 231.88,-197 231.88,-174.75 301.12,-174.75 301.12,-197"/>
<text xml:space="preserve" text-anchor="middle" x="266.5" y="-181.6" font-family="Helvetica,sans-Serif" font-size="12.00">app_led.h</text>
</a>
</g>
</g>
<!-- Node1&#45;&gt;Node8 -->
<g id="edge9_Node000001_Node000008" class="edge">
<title>Node1&#45;&gt;Node8</title>
<g id="a_edge9_Node000001_Node000008"><a xlink:title=" ">
<path fill="none" stroke="#63b8ff" d="M459.01,-234.91C413.92,-223.66 353.66,-208.62 312.65,-198.39"/>
<polygon fill="#63b8ff" stroke="#63b8ff" points="313.64,-195.03 303.09,-196 311.94,-201.82 313.64,-195.03"/>
</a>
</g>
</g>
<!-- Node9 -->
<g id="Node000009" class="node">
<title>Node9</title>
<g id="a_Node000009"><a xlink:href="app__shell_8h.html" target="_top" xlink:title="调试 shell 模块头文件">
<polygon fill="white" stroke="#666666" points="397.62,-197 319.38,-197 319.38,-174.75 397.62,-174.75 397.62,-197"/>
<text xml:space="preserve" text-anchor="middle" x="358.5" y="-181.6" font-family="Helvetica,sans-Serif" font-size="12.00">app_shell.h</text>
</a>
</g>
</g>
<!-- Node1&#45;&gt;Node9 -->
<g id="edge10_Node000001_Node000009" class="edge">
<title>Node1&#45;&gt;Node9</title>
<g id="a_edge10_Node000001_Node000009"><a xlink:title=" ">
<path fill="none" stroke="#63b8ff" d="M475.37,-232.6C450.48,-222.86 419.92,-210.9 396.3,-201.66"/>
<polygon fill="#63b8ff" stroke="#63b8ff" points="397.64,-198.43 387.05,-198.05 395.09,-204.95 397.64,-198.43"/>
</a>
</g>
</g>
<!-- Node10 -->
<g id="Node000010" class="node">
<title>Node10</title>
<g id="a_Node000010"><a xlink:href="app__monitor_8h.html" target="_top" xlink:title="调试数据打印模块头文件">
<polygon fill="white" stroke="#666666" points="506.38,-80.5 414.62,-80.5 414.62,-58.25 506.38,-58.25 506.38,-80.5"/>
<text xml:space="preserve" text-anchor="middle" x="460.5" y="-65.1" font-family="Helvetica,sans-Serif" font-size="12.00">app_monitor.h</text>
</a>
</g>
</g>
<!-- Node1&#45;&gt;Node10 -->
<g id="edge11_Node000001_Node000010" class="edge">
<title>Node1&#45;&gt;Node10</title>
<g id="a_edge11_Node000001_Node000010"><a xlink:title=" ">
<path fill="none" stroke="#63b8ff" d="M510.49,-232.73C498.71,-211.29 479.5,-173.53 469.5,-138.75 465.09,-123.42 462.84,-105.53 461.68,-91.89"/>
<polygon fill="#63b8ff" stroke="#63b8ff" points="465.2,-92.01 461.01,-82.27 458.22,-92.49 465.2,-92.01"/>
</a>
</g>
</g>
<!-- Node11 -->
<g id="Node000011" class="node">
<title>Node11</title>
<g id="a_Node000011"><a xlink:href="motor__ctrl_8h.html" target="_top" xlink:title="电机控制核心模块头文件（模式状态机 + FOC 主循环）">
<polygon fill="white" stroke="#666666" points="213.62,-197 135.38,-197 135.38,-174.75 213.62,-174.75 213.62,-197"/>
<text xml:space="preserve" text-anchor="middle" x="174.5" y="-181.6" font-family="Helvetica,sans-Serif" font-size="12.00">motor_ctrl.h</text>
</a>
</g>
</g>
<!-- Node1&#45;&gt;Node11 -->
<g id="edge13_Node000001_Node000011" class="edge">
<title>Node1&#45;&gt;Node11</title>
<g id="a_edge13_Node000001_Node000011"><a xlink:title=" ">
<path fill="none" stroke="#63b8ff" d="M458.76,-239.79C400.89,-229.86 311.69,-214.22 225.12,-197.47"/>
<polygon fill="#63b8ff" stroke="#63b8ff" points="226,-194.08 215.52,-195.6 224.67,-200.95 226,-194.08"/>
</a>
</g>
</g>
<!-- Node16 -->
<g id="Node000016" class="node">
<title>Node16</title>
<g id="a_Node000016"><a xlink:href="protection_8h.html" target="_top" xlink:title="保护与故障管理模块头文件">
<polygon fill="white" stroke="#666666" points="84.62,-138.75 6.38,-138.75 6.38,-116.5 84.62,-116.5 84.62,-138.75"/>
<text xml:space="preserve" text-anchor="middle" x="45.5" y="-123.35" font-family="Helvetica,sans-Serif" font-size="12.00">protection.h</text>
</a>
</g>
</g>
<!-- Node1&#45;&gt;Node16 -->
<g id="edge30_Node000001_Node000016" class="edge">
<title>Node1&#45;&gt;Node16</title>
<g id="a_edge30_Node000001_Node000016"><a xlink:title=" ">
<path fill="none" stroke="#63b8ff" d="M459.08,-246.15C363.66,-239.09 184.7,-222.83 126.5,-197 100.67,-185.54 76.68,-163.22 61.62,-147.2"/>
<polygon fill="#63b8ff" stroke="#63b8ff" points="64.55,-145.22 55.24,-140.18 59.37,-149.93 64.55,-145.22"/>
</a>
</g>
</g>
<!-- Node17 -->
<g id="Node000017" class="node">
<title>Node17</title>
<g id="a_Node000017"><a xlink:href="bsp__encoder_8h.html" target="_top" xlink:title="MT6701 磁编码器 BSP 头文件（GPIO 位带模拟 SSI）">
<polygon fill="white" stroke="#666666" points="332.88,-138.75 238.12,-138.75 238.12,-116.5 332.88,-116.5 332.88,-138.75"/>
<text xml:space="preserve" text-anchor="middle" x="285.5" y="-123.35" font-family="Helvetica,sans-Serif" font-size="12.00">bsp_encoder.h</text>
</a>
</g>
</g>
<!-- Node1&#45;&gt;Node17 -->
<g id="edge40_Node000001_Node000017" class="edge">
<title>Node1&#45;&gt;Node17</title>
<g id="a_edge40_Node000001_Node000017"><a xlink:title=" ">
<path fill="none" stroke="#63b8ff" d="M493.45,-232.58C477.68,-222.25 457.43,-208.94 439.5,-197 424.78,-187.2 422.2,-182.9 406.5,-174.75 382.04,-162.06 353.26,-150.94 329.91,-142.81"/>
<polygon fill="#63b8ff" stroke="#63b8ff" points="331.28,-139.58 320.69,-139.66 329.02,-146.2 331.28,-139.58"/>
</a>
</g>
</g>
<!-- Node18 -->
<g id="Node000018" class="node">
<title>Node18</title>
<g id="a_Node000018"><a xlink:href="bsp__adc_8h.html" target="_top" xlink:title="ADC 采样 BSP 头文件（电流/母线电压注入组 + 温度规则组）">
<polygon fill="white" stroke="#666666" points="422.25,-138.75 350.75,-138.75 350.75,-116.5 422.25,-116.5 422.25,-138.75"/>
<text xml:space="preserve" text-anchor="middle" x="386.5" y="-123.35" font-family="Helvetica,sans-Serif" font-size="12.00">bsp_adc.h</text>
</a>
</g>
</g>
<!-- Node1&#45;&gt;Node18 -->
<g id="edge39_Node000001_Node000018" class="edge">
<title>Node1&#45;&gt;Node18</title>
<g id="a_edge39_Node000001_Node000018"><a xlink:title=" ">
<path fill="none" stroke="#63b8ff" d="M502.01,-232.68C485.7,-217.26 461.21,-194.31 439.5,-174.75 429.06,-165.35 417.28,-155.07 407.49,-146.6"/>
<polygon fill="#63b8ff" stroke="#63b8ff" points="409.82,-143.99 399.96,-140.12 405.25,-149.3 409.82,-143.99"/>
</a>
</g>
</g>
<!-- Node19 -->
<g id="Node000019" class="node">
<title>Node19</title>
<g id="a_Node000019"><a xlink:href="bsp__clock_8h.html" target="_top" xlink:title="时钟切换 BSP 头文件（HSI &#45;&gt; HSE 20MHz）">
<polygon fill="white" stroke="#666666" points="751.38,-197 671.62,-197 671.62,-174.75 751.38,-174.75 751.38,-197"/>
<text xml:space="preserve" text-anchor="middle" x="711.5" y="-181.6" font-family="Helvetica,sans-Serif" font-size="12.00">bsp_clock.h</text>
</a>
</g>
</g>
<!-- Node1&#45;&gt;Node19 -->
<g id="edge31_Node000001_Node000019" class="edge">
<title>Node1&#45;&gt;Node19</title>
<g id="a_edge31_Node000001_Node000019"><a xlink:title=" ">
<path fill="none" stroke="#63b8ff" d="M573.96,-232.51C603.97,-222.56 640.89,-210.3 668.93,-201"/>
<polygon fill="#63b8ff" stroke="#63b8ff" points="669.76,-204.41 678.15,-197.94 667.55,-197.77 669.76,-204.41"/>
</a>
</g>
</g>
<!-- Node20 -->
<g id="Node000020" class="node">
<title>Node20</title>
<g id="a_Node000020"><a xlink:href="bsp__uart_8h.html" target="_top" xlink:title="USART3 调试串口 BSP 头文件（DMA TX 环形缓冲 + RXNE 中断接收）">
<polygon fill="white" stroke="#666666" points="838.62,-138.75 766.38,-138.75 766.38,-116.5 838.62,-116.5 838.62,-138.75"/>
<text xml:space="preserve" text-anchor="middle" x="802.5" y="-123.35" font-family="Helvetica,sans-Serif" font-size="12.00">bsp_uart.h</text>
</a>
</g>
</g>
<!-- Node1&#45;&gt;Node20 -->
<g id="edge33_Node000001_Node000020" class="edge">
<title>Node1&#45;&gt;Node20</title>
<g id="a_edge33_Node000001_Node000020"><a xlink:title=" ">
<path fill="none" stroke="#63b8ff" d="M582.02,-249.6C633.95,-246.21 708.02,-234.4 760.5,-197 776.86,-185.34 788.12,-165.11 794.83,-149.68"/>
<polygon fill="#63b8ff" stroke="#63b8ff" points="798.06,-151.01 798.52,-140.43 791.56,-148.42 798.06,-151.01"/>
</a>
</g>
</g>
<!-- Node21 -->
<g id="Node000021" class="node">
<title>Node21</title>
<g id="a_Node000021"><a xlink:href="bsp__pwm_8h.html" target="_top" xlink:title="TIM1 三相互补 PWM BSP 头文件">
<polygon fill="white" stroke="#666666" points="934.25,-138.75 856.75,-138.75 856.75,-116.5 934.25,-116.5 934.25,-138.75"/>
<text xml:space="preserve" text-anchor="middle" x="895.5" y="-123.35" font-family="Helvetica,sans-Serif" font-size="12.00">bsp_pwm.h</text>
</a>
</g>
</g>
<!-- Node1&#45;&gt;Node21 -->
<g id="edge36_Node000001_Node000021" class="edge">
<title>Node1&#45;&gt;Node21</title>
<g id="a_edge36_Node000001_Node000021"><a xlink:title=" ">
<path fill="none" stroke="#63b8ff" d="M582,-244.07C636.65,-237.14 717.95,-223.24 784.5,-197 817.37,-184.04 851.42,-161.46 873,-145.82"/>
<polygon fill="#63b8ff" stroke="#63b8ff" points="874.8,-148.83 880.76,-140.07 870.64,-143.2 874.8,-148.83"/>
</a>
</g>
</g>
<!-- Node22 -->
<g id="Node000022" class="node">
<title>Node22</title>
<g id="a_Node000022"><a xlink:href="bsp__ws2812_8h.html" target="_top" xlink:title="WS2812 类 RGB 状态灯 BSP 头文件（TIM2_CH1 PWM + DMA）">
<polygon fill="white" stroke="#666666" points="1046.5,-138.75 952.5,-138.75 952.5,-116.5 1046.5,-116.5 1046.5,-138.75"/>
<text xml:space="preserve" text-anchor="middle" x="999.5" y="-123.35" font-family="Helvetica,sans-Serif" font-size="12.00">bsp_ws2812.h</text>
</a>
</g>
</g>
<!-- Node1&#45;&gt;Node22 -->
<g id="edge41_Node000001_Node000022" class="edge">
<title>Node1&#45;&gt;Node22</title>
<g id="a_edge41_Node000001_Node000022"><a xlink:title=" ">
<path fill="none" stroke="#63b8ff" d="M582.24,-242.69C643.22,-234.42 738.82,-219.3 819.5,-197 871.77,-182.55 930.07,-158.96 965.77,-143.61"/>
<polygon fill="#63b8ff" stroke="#63b8ff" points="966.93,-146.93 974.71,-139.74 964.14,-140.51 966.93,-146.93"/>
</a>
</g>
</g>
<!-- Node23 -->
<g id="Node000023" class="node">
<title>Node23</title>
<g id="a_Node000023"><a xlink:href="board__config_8h.html" target="_top" xlink:title="板级硬件参数统一配置（GIM4310/4305 电机控制器 V0.0 板）">
<polygon fill="white" stroke="#666666" points="1160.25,-138.75 1064.75,-138.75 1064.75,-116.5 1160.25,-116.5 1160.25,-138.75"/>
<text xml:space="preserve" text-anchor="middle" x="1112.5" y="-123.35" font-family="Helvetica,sans-Serif" font-size="12.00">board_config.h</text>
</a>
</g>
</g>
<!-- Node1&#45;&gt;Node23 -->
<g id="edge44_Node000001_Node000023" class="edge">
<title>Node1&#45;&gt;Node23</title>
<g id="a_edge44_Node000001_Node000023"><a xlink:title=" ">
<path fill="none" stroke="#63b8ff" d="M582.15,-243C651.67,-234.31 767.87,-218.22 866.5,-197 938.06,-181.6 1019.66,-157.62 1068.57,-142.53"/>
<polygon fill="#63b8ff" stroke="#63b8ff" points="1069.43,-145.93 1077.94,-139.63 1067.35,-139.25 1069.43,-145.93"/>
</a>
</g>
</g>
<!-- Node24 -->
<g id="Node000024" class="node">
<title>Node24</title>
<g id="a_Node000024"><a xlink:href="motor__config_8h.html" target="_top" xlink:title="电机参数与控制参数统一配置">
<polygon fill="white" stroke="#666666" points="1146.88,-197 1052.12,-197 1052.12,-174.75 1146.88,-174.75 1146.88,-197"/>
<text xml:space="preserve" text-anchor="middle" x="1099.5" y="-181.6" font-family="Helvetica,sans-Serif" font-size="12.00">motor_config.h</text>
</a>
</g>
</g>
<!-- Node1&#45;&gt;Node24 -->
<g id="edge45_Node000001_Node000024" class="edge">
<title>Node1&#45;&gt;Node24</title>
<g id="a_edge45_Node000001_Node000024"><a xlink:title=" ">
<path fill="none" stroke="#63b8ff" d="M582.11,-244.43C677.46,-235.27 866.48,-216.51 1026.5,-197 1031.14,-196.43 1035.95,-195.82 1040.78,-195.19"/>
<polygon fill="#63b8ff" stroke="#63b8ff" points="1041.07,-198.68 1050.51,-193.89 1040.14,-191.75 1041.07,-198.68"/>
</a>
</g>
</g>
<!-- Node4 -->
<g id="Node000004" class="node">
<title>Node4</title>
<g id="a_Node000004"><a xlink:href="main_8h.html" target="_top" xlink:title=": Header for main.c file.">
<polygon fill="white" stroke="#666666" points="711.5,-80.5 659.5,-80.5 659.5,-58.25 711.5,-58.25 711.5,-80.5"/>
<text xml:space="preserve" text-anchor="middle" x="685.5" y="-65.1" font-family="Helvetica,sans-Serif" font-size="12.00">main.h</text>
</a>
</g>
</g>
<!-- Node3&#45;&gt;Node4 -->
<g id="edge3_Node000003_Node000004" class="edge">
<title>Node3&#45;&gt;Node4</title>
<g id="a_edge3_Node000003_Node000004"><a xlink:title=" ">
<path fill="none" stroke="#63b8ff" d="M668.45,-116.04C671.03,-109.13 674.49,-99.86 677.62,-91.48"/>
<polygon fill="#63b8ff" stroke="#63b8ff" points="680.82,-92.92 681.04,-82.33 674.26,-90.47 680.82,-92.92"/>
</a>
</g>
</g>
<!-- Node6 -->
<g id="Node000006" class="node">
<title>Node6</title>
<g id="a_Node000006"><a xlink:title=" ">
<polygon fill="#e0e0e0" stroke="#999999" points="450.62,-22.25 396.38,-22.25 396.38,0 450.62,0 450.62,-22.25"/>
<text xml:space="preserve" text-anchor="middle" x="423.5" y="-6.85" font-family="Helvetica,sans-Serif" font-size="12.00">stdint.h</text>
</a>
</g>
</g>
<!-- Node3&#45;&gt;Node6 -->
<g id="edge5_Node000003_Node000006" class="edge">
<title>Node3&#45;&gt;Node6</title>
<g id="a_edge5_Node000003_Node000006"><a xlink:title=" ">
<path fill="none" stroke="#63b8ff" d="M646.15,-116.05C621.57,-102.06 576.41,-76.99 536.5,-58.25 511.89,-46.69 483.56,-35.13 461.42,-26.48"/>
<polygon fill="#63b8ff" stroke="#63b8ff" points="462.78,-23.25 452.19,-22.9 460.25,-29.77 462.78,-23.25"/>
</a>
</g>
</g>
<!-- Node5 -->
<g id="Node000005" class="node">
<title>Node5</title>
<g id="a_Node000005"><a xlink:title=" ">
<polygon fill="#e0e0e0" stroke="#999999" points="738.88,-22.25 632.12,-22.25 632.12,0 738.88,0 738.88,-22.25"/>
<text xml:space="preserve" text-anchor="middle" x="685.5" y="-6.85" font-family="Helvetica,sans-Serif" font-size="12.00">stm32g4xx_hal.h</text>
</a>
</g>
</g>
<!-- Node4&#45;&gt;Node5 -->
<g id="edge4_Node000004_Node000005" class="edge">
<title>Node4&#45;&gt;Node5</title>
<g id="a_edge4_Node000004_Node000005"><a xlink:title=" ">
<path fill="none" stroke="#63b8ff" d="M685.5,-57.79C685.5,-51.12 685.5,-42.24 685.5,-34.09"/>
<polygon fill="#63b8ff" stroke="#63b8ff" points="689,-34.17 685.5,-24.17 682,-34.17 689,-34.17"/>
</a>
</g>
</g>
<!-- Node7&#45;&gt;Node4 -->
<g id="edge7_Node000007_Node000004" class="edge">
<title>Node7&#45;&gt;Node4</title>
<g id="a_edge7_Node000007_Node000004"><a xlink:title=" ">
<path fill="none" stroke="#63b8ff" d="M566.96,-116.04C589.99,-107.17 623.08,-94.43 648.45,-84.65"/>
<polygon fill="#63b8ff" stroke="#63b8ff" points="649.66,-87.93 657.73,-81.07 647.14,-81.4 649.66,-87.93"/>
</a>
</g>
</g>
<!-- Node7&#45;&gt;Node6 -->
<g id="edge8_Node000007_Node000006" class="edge">
<title>Node7&#45;&gt;Node6</title>
<g id="a_edge8_Node000007_Node000006"><a xlink:title=" ">
<path fill="none" stroke="#63b8ff" d="M538.29,-116.13C536.12,-101.55 530.3,-75.06 515.5,-58.25 501.26,-42.07 480.01,-30.9 461.52,-23.6"/>
<polygon fill="#63b8ff" stroke="#63b8ff" points="462.75,-20.33 452.16,-20.17 460.34,-26.9 462.75,-20.33"/>
</a>
</g>
</g>
<!-- Node10&#45;&gt;Node6 -->
<g id="edge12_Node000010_Node000006" class="edge">
<title>Node10&#45;&gt;Node6</title>
<g id="a_edge12_Node000010_Node000006"><a xlink:title=" ">
<path fill="none" stroke="#63b8ff" d="M453.54,-57.79C448.79,-50.57 442.34,-40.76 436.64,-32.09"/>
<polygon fill="#63b8ff" stroke="#63b8ff" points="439.68,-30.35 431.26,-23.92 433.83,-34.2 439.68,-30.35"/>
</a>
</g>
</g>
<!-- Node12 -->
<g id="Node000012" class="node">
<title>Node12</title>
<g id="a_Node000012"><a xlink:href="foc_8h.html" target="_top" xlink:title="FOC 电流环模块头文件">
<polygon fill="white" stroke="#666666" points="182.25,-138.75 140.75,-138.75 140.75,-116.5 182.25,-116.5 182.25,-138.75"/>
<text xml:space="preserve" text-anchor="middle" x="161.5" y="-123.35" font-family="Helvetica,sans-Serif" font-size="12.00">foc.h</text>
</a>
</g>
</g>
<!-- Node11&#45;&gt;Node12 -->
<g id="edge14_Node000011_Node000012" class="edge">
<title>Node11&#45;&gt;Node12</title>
<g id="a_edge14_Node000011_Node000012"><a xlink:title=" ">
<path fill="none" stroke="#63b8ff" d="M172.05,-174.29C170.49,-167.54 168.41,-158.53 166.51,-150.3"/>
<polygon fill="#63b8ff" stroke="#63b8ff" points="169.94,-149.59 164.28,-140.63 163.12,-151.16 169.94,-149.59"/>
</a>
</g>
</g>
<!-- Node14 -->
<g id="Node000014" class="node">
<title>Node14</title>
<g id="a_Node000014"><a xlink:href="pid_8h.html" target="_top" xlink:title="位置式抗饱和（clamping anti&#45;windup）PID 控制器模块头文件">
<polygon fill="white" stroke="#666666" points="162.62,-80.5 120.38,-80.5 120.38,-58.25 162.62,-58.25 162.62,-80.5"/>
<text xml:space="preserve" text-anchor="middle" x="141.5" y="-65.1" font-family="Helvetica,sans-Serif" font-size="12.00">pid.h</text>
</a>
</g>
</g>
<!-- Node11&#45;&gt;Node14 -->
<g id="edge19_Node000011_Node000014" class="edge">
<title>Node11&#45;&gt;Node14</title>
<g id="a_edge19_Node000011_Node000014"><a xlink:title=" ">
<path fill="none" stroke="#63b8ff" d="M160.33,-174.54C150.16,-166.18 137.28,-153.42 131.5,-138.75 125.58,-123.73 128.65,-105.6 132.89,-91.79"/>
<polygon fill="#63b8ff" stroke="#63b8ff" points="136.19,-92.97 136.22,-82.38 129.59,-90.64 136.19,-92.97"/>
</a>
</g>
</g>
<!-- Node15 -->
<g id="Node000015" class="node">
<title>Node15</title>
<g id="a_Node000015"><a xlink:href="filter_8h.html" target="_top" xlink:title="滤波与状态估计模块头文件（一阶低通滤波器、PLL 速度估计器）">
<polygon fill="white" stroke="#666666" points="320.25,-80.5 272.75,-80.5 272.75,-58.25 320.25,-58.25 320.25,-80.5"/>
<text xml:space="preserve" text-anchor="middle" x="296.5" y="-65.1" font-family="Helvetica,sans-Serif" font-size="12.00">filter.h</text>
</a>
</g>
</g>
<!-- Node11&#45;&gt;Node15 -->
<g id="edge20_Node000011_Node000015" class="edge">
<title>Node11&#45;&gt;Node15</title>
<g id="a_edge20_Node000011_Node000015"><a xlink:title=" ">
<path fill="none" stroke="#63b8ff" d="M181.5,-174.36C191.22,-160.22 209.85,-134.74 229.5,-116.5 241.42,-105.43 256.18,-94.99 268.81,-86.84"/>
<polygon fill="#63b8ff" stroke="#63b8ff" points="270.5,-89.92 277.11,-81.64 266.78,-83.99 270.5,-89.92"/>
</a>
</g>
</g>
<!-- Node11&#45;&gt;Node16 -->
<g id="edge22_Node000011_Node000016" class="edge">
<title>Node11&#45;&gt;Node16</title>
<g id="a_edge22_Node000011_Node000016"><a xlink:title=" ">
<path fill="none" stroke="#63b8ff" d="M150.24,-174.29C130.42,-165.65 102.16,-153.33 79.99,-143.66"/>
<polygon fill="#63b8ff" stroke="#63b8ff" points="81.61,-140.55 71.04,-139.76 78.81,-146.97 81.61,-140.55"/>
</a>
</g>
</g>
<!-- Node11&#45;&gt;Node17 -->
<g id="edge24_Node000011_Node000017" class="edge">
<title>Node11&#45;&gt;Node17</title>
<g id="a_edge24_Node000011_Node000017"><a xlink:title=" ">
<path fill="none" stroke="#63b8ff" d="M195.38,-174.29C212.04,-165.85 235.65,-153.89 254.52,-144.33"/>
<polygon fill="#63b8ff" stroke="#63b8ff" points="256.03,-147.48 263.37,-139.84 252.86,-141.24 256.03,-147.48"/>
</a>
</g>
</g>
<!-- Node11&#45;&gt;Node18 -->
<g id="edge27_Node000011_Node000018" class="edge">
<title>Node11&#45;&gt;Node18</title>
<g id="a_edge27_Node000011_Node000018"><a xlink:title=" ">
<path fill="none" stroke="#63b8ff" d="M213.88,-174.43C249.52,-164.97 302.05,-151.03 339.8,-141.02"/>
<polygon fill="#63b8ff" stroke="#63b8ff" points="340.28,-144.51 349.05,-138.56 338.49,-137.74 340.28,-144.51"/>
</a>
</g>
</g>
<!-- Node13 -->
<g id="Node000013" class="node">
<title>Node13</title>
<g id="a_Node000013"><a xlink:href="foc__math_8h.html" target="_top" xlink:title="FOC 数学基础模块头文件（快速三角函数、坐标变换、角度工具）">
<polygon fill="white" stroke="#666666" points="254.75,-80.5 180.25,-80.5 180.25,-58.25 254.75,-58.25 254.75,-80.5"/>
<text xml:space="preserve" text-anchor="middle" x="217.5" y="-65.1" font-family="Helvetica,sans-Serif" font-size="12.00">foc_math.h</text>
</a>
</g>
</g>
<!-- Node12&#45;&gt;Node13 -->
<g id="edge15_Node000012_Node000013" class="edge">
<title>Node12&#45;&gt;Node13</title>
<g id="a_edge15_Node000012_Node000013"><a xlink:title=" ">
<path fill="none" stroke="#63b8ff" d="M172.03,-116.04C179.62,-108.42 190.06,-97.94 199.02,-88.94"/>
<polygon fill="#63b8ff" stroke="#63b8ff" points="201.37,-91.54 205.95,-81.98 196.41,-86.6 201.37,-91.54"/>
</a>
</g>
</g>
<!-- Node12&#45;&gt;Node14 -->
<g id="edge17_Node000012_Node000014" class="edge">
<title>Node12&#45;&gt;Node14</title>
<g id="a_edge17_Node000012_Node000014"><a xlink:title=" ">
<path fill="none" stroke="#63b8ff" d="M157.74,-116.04C155.28,-109.13 151.98,-99.86 149,-91.48"/>
<polygon fill="#63b8ff" stroke="#63b8ff" points="152.4,-90.58 145.75,-82.33 145.8,-92.93 152.4,-90.58"/>
</a>
</g>
</g>
<!-- Node13&#45;&gt;Node6 -->
<g id="edge16_Node000013_Node000006" class="edge">
<title>Node13&#45;&gt;Node6</title>
<g id="a_edge16_Node000013_Node000006"><a xlink:title=" ">
<path fill="none" stroke="#63b8ff" d="M254.81,-58.19C291.69,-48.12 347.85,-32.78 385.11,-22.61"/>
<polygon fill="#63b8ff" stroke="#63b8ff" points="385.84,-26.04 394.56,-20.03 383.99,-19.28 385.84,-26.04"/>
</a>
</g>
</g>
<!-- Node14&#45;&gt;Node6 -->
<g id="edge18_Node000014_Node000006" class="edge">
<title>Node14&#45;&gt;Node6</title>
<g id="a_edge18_Node000014_Node000006"><a xlink:title=" ">
<path fill="none" stroke="#63b8ff" d="M163.02,-60.7C165.85,-59.81 168.73,-58.97 171.5,-58.25 246.04,-38.96 335.01,-24.66 384.8,-17.43"/>
<polygon fill="#63b8ff" stroke="#63b8ff" points="385.09,-20.93 394.5,-16.04 384.1,-14 385.09,-20.93"/>
</a>
</g>
</g>
<!-- Node15&#45;&gt;Node6 -->
<g id="edge21_Node000015_Node000006" class="edge">
<title>Node15&#45;&gt;Node6</title>
<g id="a_edge21_Node000015_Node000006"><a xlink:title=" ">
<path fill="none" stroke="#63b8ff" d="M320.39,-57.79C339.81,-49.19 367.47,-36.94 389.25,-27.29"/>
<polygon fill="#63b8ff" stroke="#63b8ff" points="390.61,-30.52 398.34,-23.27 387.77,-24.12 390.61,-30.52"/>
</a>
</g>
</g>
<!-- Node16&#45;&gt;Node6 -->
<g id="edge23_Node000016_Node000006" class="edge">
<title>Node16&#45;&gt;Node6</title>
<g id="a_edge23_Node000016_Node000006"><a xlink:title=" ">
<path fill="none" stroke="#63b8ff" d="M52.16,-116.23C62.7,-100.75 84.8,-71.98 111.5,-58.25 158.55,-34.06 312.35,-20.11 384.92,-14.72"/>
<polygon fill="#63b8ff" stroke="#63b8ff" points="385.03,-18.22 394.75,-14.01 384.52,-11.24 385.03,-18.22"/>
</a>
</g>
</g>
<!-- Node17&#45;&gt;Node4 -->
<g id="edge25_Node000017_Node000004" class="edge">
<title>Node17&#45;&gt;Node4</title>
<g id="a_edge25_Node000017_Node000004"><a xlink:title=" ">
<path fill="none" stroke="#63b8ff" d="M333.13,-117.86C335.96,-117.39 338.77,-116.93 341.5,-116.5 452.5,-99.03 584.32,-82.54 647.73,-74.87"/>
<polygon fill="#63b8ff" stroke="#63b8ff" points="648.1,-78.35 657.61,-73.68 647.27,-71.4 648.1,-78.35"/>
</a>
</g>
</g>
<!-- Node17&#45;&gt;Node6 -->
<g id="edge26_Node000017_Node000006" class="edge">
<title>Node17&#45;&gt;Node6</title>
<g id="a_edge26_Node000017_Node000006"><a xlink:title=" ">
<path fill="none" stroke="#63b8ff" d="M298.24,-116.06C321.96,-96.38 373.13,-53.91 402.2,-29.8"/>
<polygon fill="#63b8ff" stroke="#63b8ff" points="404.17,-32.71 409.63,-23.63 399.7,-27.32 404.17,-32.71"/>
</a>
</g>
</g>
<!-- Node18&#45;&gt;Node4 -->
<g id="edge28_Node000018_Node000004" class="edge">
<title>Node18&#45;&gt;Node4</title>
<g id="a_edge28_Node000018_Node000004"><a xlink:title=" ">
<path fill="none" stroke="#63b8ff" d="M422.57,-119.84C479.67,-109.1 590.35,-88.28 648.21,-77.39"/>
<polygon fill="#63b8ff" stroke="#63b8ff" points="648.72,-80.86 657.9,-75.57 647.42,-73.98 648.72,-80.86"/>
</a>
</g>
</g>
<!-- Node18&#45;&gt;Node6 -->
<g id="edge29_Node000018_Node000006" class="edge">
<title>Node18&#45;&gt;Node6</title>
<g id="a_edge29_Node000018_Node000006"><a xlink:title=" ">
<path fill="none" stroke="#63b8ff" d="M389.01,-116.33C392.38,-102.87 398.72,-78.59 405.5,-58.25 408.27,-49.92 411.7,-40.9 414.82,-33.06"/>
<polygon fill="#63b8ff" stroke="#63b8ff" points="417.96,-34.62 418.48,-24.04 411.47,-31.99 417.96,-34.62"/>
</a>
</g>
</g>
<!-- Node19&#45;&gt;Node4 -->
<g id="edge32_Node000019_Node000004" class="edge">
<title>Node19&#45;&gt;Node4</title>
<g id="a_edge32_Node000019_Node000004"><a xlink:title=" ">
<path fill="none" stroke="#63b8ff" d="M715.44,-174.4C719.96,-160.74 725.99,-136.26 719.5,-116.5 716.28,-106.69 710.08,-97.25 703.84,-89.5"/>
<polygon fill="#63b8ff" stroke="#63b8ff" points="706.62,-87.36 697.42,-82.1 701.34,-91.95 706.62,-87.36"/>
</a>
</g>
</g>
<!-- Node20&#45;&gt;Node4 -->
<g id="edge34_Node000020_Node000004" class="edge">
<title>Node20&#45;&gt;Node4</title>
<g id="a_edge34_Node000020_Node000004"><a xlink:title=" ">
<path fill="none" stroke="#63b8ff" d="M780.49,-116.04C762.76,-107.52 737.58,-95.42 717.6,-85.81"/>
<polygon fill="#63b8ff" stroke="#63b8ff" points="719.3,-82.74 708.77,-81.56 716.27,-89.05 719.3,-82.74"/>
</a>
</g>
</g>
<!-- Node20&#45;&gt;Node6 -->
<g id="edge35_Node000020_Node000006" class="edge">
<title>Node20&#45;&gt;Node6</title>
<g id="a_edge35_Node000020_Node000006"><a xlink:title=" ">
<path fill="none" stroke="#63b8ff" d="M793.38,-116.02C779.4,-100.53 751.07,-72.07 720.5,-58.25 634.2,-19.24 520.99,-12.36 462.4,-11.66"/>
<polygon fill="#63b8ff" stroke="#63b8ff" points="462.63,-8.16 452.61,-11.6 462.58,-15.16 462.63,-8.16"/>
</a>
</g>
</g>
<!-- Node21&#45;&gt;Node4 -->
<g id="edge37_Node000021_Node000004" class="edge">
<title>Node21&#45;&gt;Node4</title>
<g id="a_edge37_Node000021_Node000004"><a xlink:title=" ">
<path fill="none" stroke="#63b8ff" d="M856.49,-116.18C818.33,-105.96 760.62,-90.5 722.99,-80.42"/>
<polygon fill="#63b8ff" stroke="#63b8ff" points="724.02,-77.07 713.46,-77.86 722.21,-83.83 724.02,-77.07"/>
</a>
</g>
</g>
<!-- Node21&#45;&gt;Node6 -->
<g id="edge38_Node000021_Node000006" class="edge">
<title>Node21&#45;&gt;Node6</title>
<g id="a_edge38_Node000021_Node000006"><a xlink:title=" ">
<path fill="none" stroke="#63b8ff" d="M878.02,-116.16C851.6,-100.87 799.48,-72.65 751.5,-58.25 649.82,-27.74 524.23,-17.25 462.08,-13.77"/>
<polygon fill="#63b8ff" stroke="#63b8ff" points="462.56,-10.29 452.39,-13.26 462.19,-17.28 462.56,-10.29"/>
</a>
</g>
</g>
<!-- Node22&#45;&gt;Node4 -->
<g id="edge42_Node000022_Node000004" class="edge">
<title>Node22&#45;&gt;Node4</title>
<g id="a_edge42_Node000022_Node000004"><a xlink:title=" ">
<path fill="none" stroke="#63b8ff" d="M952.14,-118.06C949.22,-117.53 946.32,-117.01 943.5,-116.5 865.14,-102.41 773.37,-86.03 723.13,-77.08"/>
<polygon fill="#63b8ff" stroke="#63b8ff" points="723.82,-73.65 713.36,-75.34 722.59,-80.54 723.82,-73.65"/>
</a>
</g>
</g>
<!-- Node22&#45;&gt;Node6 -->
<g id="edge43_Node000022_Node000006" class="edge">
<title>Node22&#45;&gt;Node6</title>
<g id="a_edge43_Node000022_Node000006"><a xlink:title=" ">
<path fill="none" stroke="#63b8ff" d="M973.44,-116.07C934.95,-100.91 860.36,-73.17 794.5,-58.25 675.07,-31.19 530.16,-18.96 462.2,-14.4"/>
<polygon fill="#63b8ff" stroke="#63b8ff" points="462.53,-10.92 452.33,-13.76 462.08,-17.9 462.53,-10.92"/>
</a>
</g>
</g>
<!-- Node24&#45;&gt;Node23 -->
<g id="edge46_Node000024_Node000023" class="edge">
<title>Node24&#45;&gt;Node23</title>
<g id="a_edge46_Node000024_Node000023"><a xlink:title=" ">
<path fill="none" stroke="#63b8ff" d="M1101.95,-174.29C1103.51,-167.54 1105.59,-158.53 1107.49,-150.3"/>
<polygon fill="#63b8ff" stroke="#63b8ff" points="1110.88,-151.16 1109.72,-140.63 1104.06,-149.59 1110.88,-151.16"/>
</a>
</g>
</g>
</g>
</svg>

<g id="navigator" transform="translate(0 0)" fill="#404254">
  <rect fill="#f2f5e9" fill-opacity="0.5" stroke="#606060" stroke-width=".5" x="0" y="0" width="60" height="60"/>
  <use id="zoomplus" xlink:href="#zoomPlus" x="17" y="9" onmousedown="handleZoom(evt,'in')"/>
  <use id="zoomminus" xlink:href="#zoomMin" x="42" y="9" onmousedown="handleZoom(evt,'out')"/>
  <use id="reset" xlink:href="#resetDef" x="30" y="36" onmousedown="handleReset()"/>
   <use id="arrowup" xlink:href="#arrowUp" x="0" y="0" onmousedown="handlePan(0,-1)"/>
  <use id="arrowright" xlink:href="#arrowRight" x="0" y="0" onmousedown="handlePan(1,0)"/>
  <use id="arrowdown" xlink:href="#arrowDown" x="0" y="0" onmousedown="handlePan(0,1)"/>
  <use id="arrowleft" xlink:href="#arrowLeft" x="0" y="0" onmousedown="handlePan(-1,0)"/>
</g>
<svg viewBox="0 0 15 15" width="100%" height="30px" preserveAspectRatio="xMaxYMin meet">
 <g id="arrow_out" transform="scale(0.3 0.3)">
  <a xlink:href="app__main_8c__incl_org.svg" target="_base">
   <rect id="button" ry="5" rx="5" y="6" x="6" height="38" width="38"
        fill="#f2f5e9" fill-opacity="0.5" stroke="#606060" stroke-width="1.0"/>
   <path id="arrow"
     d="M 11.500037,31.436501 C 11.940474,20.09759 22.043105,11.32322 32.158766,21.979434 L 37.068811,17.246167 C 37.068811,17.246167 37.088388,32 37.088388,32 L 22.160133,31.978069 C 22.160133,31.978069 26.997745,27.140456 26.997745,27.140456 C 18.528582,18.264221 13.291696,25.230495 11.500037,31.436501 z"
     style="fill:#404040;"/>
  </a>
 </g>
</svg>

<style type='text/css'>
<![CDATA[
[data-mouse-over-selected='false'] { opacity: 0.7; }
[data-mouse-over-selected='true']  { opacity: 1.0; }
]]>
</style>
<script type="application/ecmascript"><![CDATA[
document.addEventListener('DOMContentLoaded', (event) => {
  highlightEdges();
  highlightAdjacentNodes();
});
]]></script>
</svg>
