<?xml version="1.0" encoding="UTF-8" standalone="no"?>
<!DOCTYPE svg PUBLIC "-//W3C//DTD SVG 1.1//EN"
 "http://www.w3.org/Graphics/SVG/1.1/DTD/svg11.dtd">
<!-- Generated by graphviz version 15.1.0 (20260618.0150)
 -->
<!-- Title: APP_PARAMS_RequestSave Pages: 1 -->
<svg width="992pt" height="109pt"
 viewBox="0.00 0.00 992.00 109.00" xmlns="http://www.w3.org/2000/svg" xmlns:xlink="http://www.w3.org/1999/xlink">
<g id="graph0" class="graph" transform="scale(1 1) rotate(0) translate(4 105.25)">
<title>APP_PARAMS_RequestSave</title>
<!-- Node1 -->
<g id="Node000001" class="node">
<title>Node1</title>
<g id="a_Node000001"><a xlink:title="请求保存参数（任意上下文安全，后台择机执行）">
<polygon fill="#999999" stroke="#666666" points="984.25,-61.25 807,-61.25 807,-39 984.25,-39 984.25,-61.25"/>
<text xml:space="preserve" text-anchor="middle" x="895.62" y="-45.85" font-family="Helvetica,sans-Serif" font-size="12.00">APP_PARAMS_RequestSave</text>
</a>
</g>
</g>
<!-- Node2 -->
<g id="Node000002" class="node">
<title>Node2</title>
<g id="a_Node000002"><a xlink:href="app__can__protocol_8c.html#a962b5bb63f0dca9cd0efbd25455d6002" target="_top" xlink:title="配置通道处理">
<polygon fill="white" stroke="#666666" points="771,-61.25 632.75,-61.25 632.75,-39 771,-39 771,-61.25"/>
<text xml:space="preserve" text-anchor="middle" x="701.88" y="-45.85" font-family="Helvetica,sans-Serif" font-size="12.00">APP_CAN_HandleCfg</text>
</a>
</g>
</g>
<!-- Node1&#45;&gt;Node2 -->
<g id="edge1_Node000001_Node000002" class="edge">
<title>Node1&#45;&gt;Node2</title>
<g id="a_edge1_Node000001_Node000002"><a xlink:title=" ">
<path fill="none" stroke="#63b8ff" d="M795.23,-50.12C787.18,-50.12 779.16,-50.12 771.41,-50.12"/>
<polygon fill="#63b8ff" stroke="#63b8ff" points="795.09,-53.63 805.09,-50.13 795.09,-46.63 795.09,-53.63"/>
</a>
</g>
</g>
<!-- Node9 -->
<g id="Node000009" class="node">
<title>Node9</title>
<g id="a_Node000009"><a xlink:href="app__shell_8c.html#ad6303a346f63752b165b847c5dcefbb7" target="_top" xlink:title="解析并执行一行命令">
<polygon fill="white" stroke="#666666" points="770.25,-101.25 633.5,-101.25 633.5,-79 770.25,-79 770.25,-101.25"/>
<text xml:space="preserve" text-anchor="middle" x="701.88" y="-85.85" font-family="Helvetica,sans-Serif" font-size="12.00">APP_SHELL_Execute</text>
</a>
</g>
</g>
<!-- Node1&#45;&gt;Node9 -->
<g id="edge9_Node000001_Node000009" class="edge">
<title>Node1&#45;&gt;Node9</title>
<g id="a_edge9_Node000001_Node000009"><a xlink:title=" ">
<path fill="none" stroke="#63b8ff" d="M827.67,-64.09C805.04,-68.81 780.04,-74.03 758.4,-78.54"/>
<polygon fill="#63b8ff" stroke="#63b8ff" points="828.35,-67.53 837.42,-62.06 826.92,-60.67 828.35,-67.53"/>
</a>
</g>
</g>
<!-- Node11 -->
<g id="Node000011" class="node">
<title>Node11</title>
<g id="a_Node000011"><a xlink:href="motor__ctrl_8c.html#a5c982a7374da291bb0e5d06d26893def" target="_top" xlink:title="FOC 主循环（ADC 注入完成 ISR，20kHz）">
<polygon fill="white" stroke="#666666" points="411.62,-22.25 337.12,-22.25 337.12,0 411.62,0 411.62,-22.25"/>
<text xml:space="preserve" text-anchor="middle" x="374.38" y="-6.85" font-family="Helvetica,sans-Serif" font-size="12.00">MC_FocIsr</text>
</a>
</g>
</g>
<!-- Node1&#45;&gt;Node11 -->
<g id="edge12_Node000001_Node000011" class="edge">
<title>Node1&#45;&gt;Node11</title>
<g id="a_edge12_Node000001_Node000011"><a xlink:title=" ">
<path fill="none" stroke="#63b8ff" d="M820.51,-36.74C804.24,-34.2 787.08,-31.81 771,-30.12 639.35,-16.36 481.99,-12.55 412.02,-11.51"/>
<polygon fill="#63b8ff" stroke="#63b8ff" points="819.68,-40.16 830.1,-38.29 820.79,-33.24 819.68,-40.16"/>
</a>
</g>
</g>
<!-- Node3 -->
<g id="Node000003" class="node">
<title>Node3</title>
<g id="a_Node000003"><a xlink:href="app__can__protocol_8c.html#a0c342291cd7188f387f12f9b2157c4e9" target="_top" xlink:title="CAN 接收分发（ISR 上下文）">
<polygon fill="white" stroke="#666666" points="596.75,-61.25 458.5,-61.25 458.5,-39 596.75,-39 596.75,-61.25"/>
<text xml:space="preserve" text-anchor="middle" x="527.62" y="-45.85" font-family="Helvetica,sans-Serif" font-size="12.00">APP_CAN_RxHandler</text>
</a>
</g>
</g>
<!-- Node2&#45;&gt;Node3 -->
<g id="edge2_Node000002_Node000003" class="edge">
<title>Node2&#45;&gt;Node3</title>
<g id="a_edge2_Node000002_Node000003"><a xlink:title=" ">
<path fill="none" stroke="#63b8ff" d="M620.83,-50.12C612.95,-50.12 605,-50.12 597.24,-50.12"/>
<polygon fill="#63b8ff" stroke="#63b8ff" points="620.79,-53.63 630.79,-50.13 620.79,-46.63 620.79,-53.63"/>
</a>
</g>
</g>
<!-- Node4 -->
<g id="Node000004" class="node">
<title>Node4</title>
<g id="a_Node000004"><a xlink:href="app__can__protocol_8c.html#af389bd7cff6ae0b5df76c2feb46f25f6" target="_top" xlink:title="初始化 CAN 应用协议（按持久化参数配置 BSP）">
<polygon fill="white" stroke="#666666" points="422.5,-62.25 326.25,-62.25 326.25,-40 422.5,-40 422.5,-62.25"/>
<text xml:space="preserve" text-anchor="middle" x="374.38" y="-46.85" font-family="Helvetica,sans-Serif" font-size="12.00">APP_CAN_Init</text>
</a>
</g>
</g>
<!-- Node3&#45;&gt;Node4 -->
<g id="edge3_Node000003_Node000004" class="edge">
<title>Node3&#45;&gt;Node4</title>
<g id="a_edge3_Node000003_Node000004"><a xlink:title=" ">
<path fill="none" stroke="#63b8ff" d="M446.63,-50.65C438.54,-50.71 430.51,-50.76 422.92,-50.81"/>
<polygon fill="#63b8ff" stroke="#63b8ff" points="446.59,-54.15 456.57,-50.59 446.54,-47.15 446.59,-54.15"/>
</a>
</g>
</g>
<!-- Node5 -->
<g id="Node000005" class="node">
<title>Node5</title>
<g id="a_Node000005"><a xlink:href="app__can__protocol_8c.html#a6c2f3bebbd2597376fd87038ef059996" target="_top" xlink:title="后台轮询：处理通信参数变更后的重新初始化">
<polygon fill="white" stroke="#666666" points="290.25,-62.25 188.75,-62.25 188.75,-40 290.25,-40 290.25,-62.25"/>
<text xml:space="preserve" text-anchor="middle" x="239.5" y="-46.85" font-family="Helvetica,sans-Serif" font-size="12.00">APP_CAN_Poll</text>
</a>
</g>
</g>
<!-- Node4&#45;&gt;Node5 -->
<g id="edge4_Node000004_Node000005" class="edge">
<title>Node4&#45;&gt;Node5</title>
<g id="a_edge4_Node000004_Node000005"><a xlink:title=" ">
<path fill="none" stroke="#63b8ff" d="M314.28,-51.12C306.33,-51.12 298.23,-51.12 290.45,-51.12"/>
<polygon fill="#63b8ff" stroke="#63b8ff" points="314.27,-54.63 324.27,-51.13 314.27,-47.63 314.27,-54.63"/>
</a>
</g>
</g>
<!-- Node8 -->
<g id="Node000008" class="node">
<title>Node8</title>
<g id="a_Node000008"><a xlink:href="app__main_8c.html#a4759d3fdff6b33e2c0a0ae151452112f" target="_top" xlink:title="应用初始化（main 的 USER CODE BEGIN 2 调用）">
<polygon fill="white" stroke="#666666" points="271.12,-22.25 207.88,-22.25 207.88,0 271.12,0 271.12,-22.25"/>
<text xml:space="preserve" text-anchor="middle" x="239.5" y="-6.85" font-family="Helvetica,sans-Serif" font-size="12.00">APP_Init</text>
</a>
</g>
</g>
<!-- Node4&#45;&gt;Node8 -->
<g id="edge7_Node000004_Node000008" class="edge">
<title>Node4&#45;&gt;Node8</title>
<g id="a_edge7_Node000004_Node000008"><a xlink:title=" ">
<path fill="none" stroke="#63b8ff" d="M323.93,-36.24C306.27,-30.92 286.9,-25.09 271.27,-20.39"/>
<polygon fill="#63b8ff" stroke="#63b8ff" points="322.91,-39.59 333.49,-39.12 324.93,-32.88 322.91,-39.59"/>
</a>
</g>
</g>
<!-- Node6 -->
<g id="Node000006" class="node">
<title>Node6</title>
<g id="a_Node000006"><a xlink:href="app__main_8c.html#a6709d26bb67f905916b7c7f048b8396c" target="_top" xlink:title="后台超级循环体（main 的 while(1) 内调用）">
<polygon fill="white" stroke="#666666" points="152.75,-62.25 78.25,-62.25 78.25,-40 152.75,-40 152.75,-62.25"/>
<text xml:space="preserve" text-anchor="middle" x="115.5" y="-46.85" font-family="Helvetica,sans-Serif" font-size="12.00">APP_Loop</text>
</a>
</g>
</g>
<!-- Node5&#45;&gt;Node6 -->
<g id="edge5_Node000005_Node000006" class="edge">
<title>Node5&#45;&gt;Node6</title>
<g id="a_edge5_Node000005_Node000006"><a xlink:title=" ">
<path fill="none" stroke="#63b8ff" d="M177.03,-51.12C168.86,-51.12 160.7,-51.12 153.14,-51.12"/>
<polygon fill="#63b8ff" stroke="#63b8ff" points="177.01,-54.63 187.01,-51.13 177.01,-47.63 177.01,-54.63"/>
</a>
</g>
</g>
<!-- Node7 -->
<g id="Node000007" class="node">
<title>Node7</title>
<g id="a_Node000007"><a xlink:href="main_8c.html#a840291bc02cba5474a4cb46a9b9566fe" target="_top" xlink:title="The application entry point.">
<polygon fill="white" stroke="#666666" points="42.25,-42.25 0,-42.25 0,-20 42.25,-20 42.25,-42.25"/>
<text xml:space="preserve" text-anchor="middle" x="21.12" y="-26.85" font-family="Helvetica,sans-Serif" font-size="12.00">main</text>
</a>
</g>
</g>
<!-- Node6&#45;&gt;Node7 -->
<g id="edge6_Node000006_Node000007" class="edge">
<title>Node6&#45;&gt;Node7</title>
<g id="a_edge6_Node000006_Node000007"><a xlink:title=" ">
<path fill="none" stroke="#63b8ff" d="M66.86,-40.81C58.35,-38.97 49.91,-37.14 42.69,-35.58"/>
<polygon fill="#63b8ff" stroke="#63b8ff" points="66,-44.2 76.51,-42.9 67.48,-37.36 66,-44.2"/>
</a>
</g>
</g>
<!-- Node8&#45;&gt;Node7 -->
<g id="edge8_Node000008_Node000007" class="edge">
<title>Node8&#45;&gt;Node7</title>
<g id="a_edge8_Node000008_Node000007"><a xlink:title=" ">
<path fill="none" stroke="#63b8ff" d="M196.05,-15.05C149.8,-19.32 77.74,-25.98 42.68,-29.23"/>
<polygon fill="#63b8ff" stroke="#63b8ff" points="196.36,-18.54 205.99,-14.13 195.71,-11.57 196.36,-18.54"/>
</a>
</g>
</g>
<!-- Node10 -->
<g id="Node000010" class="node">
<title>Node10</title>
<g id="a_Node000010"><a xlink:href="app__shell_8c.html#ab93a15148be82ad3c0999b099de7c29e" target="_top" xlink:title="shell 轮询（后台调用）">
<polygon fill="white" stroke="#666666" points="584.75,-101.25 470.5,-101.25 470.5,-79 584.75,-79 584.75,-101.25"/>
<text xml:space="preserve" text-anchor="middle" x="527.62" y="-85.85" font-family="Helvetica,sans-Serif" font-size="12.00">APP_SHELL_Poll</text>
</a>
</g>
</g>
<!-- Node9&#45;&gt;Node10 -->
<g id="edge10_Node000009_Node000010" class="edge">
<title>Node9&#45;&gt;Node10</title>
<g id="a_edge10_Node000009_Node000010"><a xlink:title=" ">
<path fill="none" stroke="#63b8ff" d="M621.98,-90.12C609.56,-90.12 596.94,-90.12 585.16,-90.12"/>
<polygon fill="#63b8ff" stroke="#63b8ff" points="621.78,-93.63 631.78,-90.13 621.78,-86.63 621.78,-93.63"/>
</a>
</g>
</g>
<!-- Node10&#45;&gt;Node6 -->
<g id="edge11_Node000010_Node000006" class="edge">
<title>Node10&#45;&gt;Node6</title>
<g id="a_edge11_Node000010_Node000006"><a xlink:title=" ">
<path fill="none" stroke="#63b8ff" d="M458.54,-90.55C389.97,-89.98 281.36,-86.37 188.75,-71.12 176.81,-69.16 164.01,-65.98 152.55,-62.73"/>
<polygon fill="#63b8ff" stroke="#63b8ff" points="458.49,-94.05 468.51,-90.61 458.53,-87.05 458.49,-94.05"/>
</a>
</g>
</g>
<!-- Node11&#45;&gt;Node8 -->
<g id="edge13_Node000011_Node000008" class="edge">
<title>Node11&#45;&gt;Node8</title>
<g id="a_edge13_Node000011_Node000008"><a xlink:title=" ">
<path fill="none" stroke="#63b8ff" d="M325.21,-11.12C307.19,-11.12 287.22,-11.12 271.2,-11.12"/>
<polygon fill="#63b8ff" stroke="#63b8ff" points="325.2,-14.63 335.2,-11.13 325.2,-7.63 325.2,-14.63"/>
</a>
</g>
</g>
</g>
</svg>
