<?xml version="1.0" encoding="UTF-8" standalone="no"?>
<!DOCTYPE svg PUBLIC "-//W3C//DTD SVG 1.1//EN"
 "http://www.w3.org/Graphics/SVG/1.1/DTD/svg11.dtd">
<!-- Generated by graphviz version 15.1.0 (20260618.0150)
 -->
<!-- Title: Application/app/app_led.c Pages: 1 -->
<svg width="713pt" height="278pt"
 viewBox="0.00 0.00 713.00 278.00" xmlns="http://www.w3.org/2000/svg" xmlns:xlink="http://www.w3.org/1999/xlink">
<g id="graph0" class="graph" transform="scale(1 1) rotate(0) translate(4 273.5)">
<title>Application/app/app_led.c</title>
<!-- Node1 -->
<g id="Node000001" class="node">
<title>Node1</title>
<g id="a_Node000001"><a xlink:title="状态灯语模块（单颗 WS2812，亮度全局可调）">
<polygon fill="#999999" stroke="#666666" points="196.88,-269.5 74.38,-269.5 74.38,-233 196.88,-233 196.88,-269.5"/>
<text xml:space="preserve" text-anchor="start" x="82.38" y="-254.1" font-family="Helvetica,sans-Serif" font-size="12.00">Application/app/app</text>
<text xml:space="preserve" text-anchor="middle" x="135.62" y="-239.85" font-family="Helvetica,sans-Serif" font-size="12.00">_led.c</text>
</a>
</g>
</g>
<!-- Node2 -->
<g id="Node000002" class="node">
<title>Node2</title>
<g id="a_Node000002"><a xlink:href="app__led_8h.html" target="_top" xlink:title="状态灯语模块头文件">
<polygon fill="white" stroke="#666666" points="69.25,-197 0,-197 0,-174.75 69.25,-174.75 69.25,-197"/>
<text xml:space="preserve" text-anchor="middle" x="34.62" y="-181.6" font-family="Helvetica,sans-Serif" font-size="12.00">app_led.h</text>
</a>
</g>
</g>
<!-- Node1&#45;&gt;Node2 -->
<g id="edge1_Node000001_Node000002" class="edge">
<title>Node1&#45;&gt;Node2</title>
<g id="a_edge1_Node000001_Node000002"><a xlink:title=" ">
<path fill="none" stroke="#63b8ff" d="M107.49,-232.6C93.02,-223.52 75.49,-212.52 61.25,-203.58"/>
<polygon fill="#63b8ff" stroke="#63b8ff" points="63.16,-200.65 52.83,-198.3 59.44,-206.58 63.16,-200.65"/>
</a>
</g>
</g>
<!-- Node3 -->
<g id="Node000003" class="node">
<title>Node3</title>
<g id="a_Node000003"><a xlink:href="app__params_8h.html" target="_top" xlink:title="运行参数管理头文件（RAM 副本 + Flash 持久化）">
<polygon fill="white" stroke="#666666" points="255.88,-138.75 163.38,-138.75 163.38,-116.5 255.88,-116.5 255.88,-138.75"/>
<text xml:space="preserve" text-anchor="middle" x="209.62" y="-123.35" font-family="Helvetica,sans-Serif" font-size="12.00">app_params.h</text>
</a>
</g>
</g>
<!-- Node1&#45;&gt;Node3 -->
<g id="edge2_Node000001_Node000003" class="edge">
<title>Node1&#45;&gt;Node3</title>
<g id="a_edge2_Node000001_Node000003"><a xlink:title=" ">
<path fill="none" stroke="#63b8ff" d="M146.39,-232.56C159.94,-210.28 183.18,-172.09 197.4,-148.72"/>
<polygon fill="#63b8ff" stroke="#63b8ff" points="200.23,-150.8 202.44,-140.43 194.25,-147.16 200.23,-150.8"/>
</a>
</g>
</g>
<!-- Node4 -->
<g id="Node000004" class="node">
<title>Node4</title>
<g id="a_Node000004"><a xlink:href="main_8h.html" target="_top" xlink:title=": Header for main.c file.">
<polygon fill="white" stroke="#666666" points="235.62,-80.5 183.62,-80.5 183.62,-58.25 235.62,-58.25 235.62,-80.5"/>
<text xml:space="preserve" text-anchor="middle" x="209.62" y="-65.1" font-family="Helvetica,sans-Serif" font-size="12.00">main.h</text>
</a>
</g>
</g>
<!-- Node1&#45;&gt;Node4 -->
<g id="edge26_Node000001_Node000004" class="edge">
<title>Node1&#45;&gt;Node4</title>
<g id="a_edge26_Node000001_Node000004"><a xlink:title=" ">
<path fill="none" stroke="#63b8ff" d="M134.27,-232.54C133.04,-205.67 133.9,-153.82 154.62,-116.5 161,-105.02 171.44,-95.18 181.52,-87.57"/>
<polygon fill="#63b8ff" stroke="#63b8ff" points="183.51,-90.45 189.69,-81.85 179.49,-84.72 183.51,-90.45"/>
</a>
</g>
</g>
<!-- Node7 -->
<g id="Node000007" class="node">
<title>Node7</title>
<g id="a_Node000007"><a xlink:href="motor__ctrl_8h.html" target="_top" xlink:title="电机控制核心模块头文件（模式状态机 + FOC 主循环）">
<polygon fill="white" stroke="#666666" points="525.75,-197 447.5,-197 447.5,-174.75 525.75,-174.75 525.75,-197"/>
<text xml:space="preserve" text-anchor="middle" x="486.62" y="-181.6" font-family="Helvetica,sans-Serif" font-size="12.00">motor_ctrl.h</text>
</a>
</g>
</g>
<!-- Node1&#45;&gt;Node7 -->
<g id="edge6_Node000001_Node000007" class="edge">
<title>Node1&#45;&gt;Node7</title>
<g id="a_edge6_Node000001_Node000007"><a xlink:title=" ">
<path fill="none" stroke="#63b8ff" d="M197.17,-239.14C265.09,-226.87 373.15,-207.36 436.25,-195.97"/>
<polygon fill="#63b8ff" stroke="#63b8ff" points="436.78,-199.43 446,-194.21 435.54,-192.54 436.78,-199.43"/>
</a>
</g>
</g>
<!-- Node15 -->
<g id="Node000015" class="node">
<title>Node15</title>
<g id="a_Node000015"><a xlink:href="bsp__ws2812_8h.html" target="_top" xlink:title="WS2812 类 RGB 状态灯 BSP 头文件（TIM2_CH1 PWM + DMA）">
<polygon fill="white" stroke="#666666" points="107.62,-138.75 13.62,-138.75 13.62,-116.5 107.62,-116.5 107.62,-138.75"/>
<text xml:space="preserve" text-anchor="middle" x="60.62" y="-123.35" font-family="Helvetica,sans-Serif" font-size="12.00">bsp_ws2812.h</text>
</a>
</g>
</g>
<!-- Node1&#45;&gt;Node15 -->
<g id="edge23_Node000001_Node000015" class="edge">
<title>Node1&#45;&gt;Node15</title>
<g id="a_edge23_Node000001_Node000015"><a xlink:title=" ">
<path fill="none" stroke="#63b8ff" d="M124.72,-232.56C110.98,-210.28 87.42,-172.09 73.02,-148.72"/>
<polygon fill="#63b8ff" stroke="#63b8ff" points="76.13,-147.1 67.9,-140.43 70.17,-150.78 76.13,-147.1"/>
</a>
</g>
</g>
<!-- Node3&#45;&gt;Node4 -->
<g id="edge3_Node000003_Node000004" class="edge">
<title>Node3&#45;&gt;Node4</title>
<g id="a_edge3_Node000003_Node000004"><a xlink:title=" ">
<path fill="none" stroke="#63b8ff" d="M209.62,-116.04C209.62,-109.37 209.62,-100.49 209.62,-92.34"/>
<polygon fill="#63b8ff" stroke="#63b8ff" points="213.13,-92.42 209.63,-82.42 206.13,-92.42 213.13,-92.42"/>
</a>
</g>
</g>
<!-- Node6 -->
<g id="Node000006" class="node">
<title>Node6</title>
<g id="a_Node000006"><a xlink:title=" ">
<polygon fill="#e0e0e0" stroke="#999999" points="431.75,-22.25 377.5,-22.25 377.5,0 431.75,0 431.75,-22.25"/>
<text xml:space="preserve" text-anchor="middle" x="404.62" y="-6.85" font-family="Helvetica,sans-Serif" font-size="12.00">stdint.h</text>
</a>
</g>
</g>
<!-- Node3&#45;&gt;Node6 -->
<g id="edge5_Node000003_Node000006" class="edge">
<title>Node3&#45;&gt;Node6</title>
<g id="a_edge5_Node000003_Node000006"><a xlink:title=" ">
<path fill="none" stroke="#63b8ff" d="M227.62,-116.06C261.79,-95.99 336.29,-52.25 376.89,-28.41"/>
<polygon fill="#63b8ff" stroke="#63b8ff" points="378.52,-31.51 385.37,-23.43 374.97,-25.48 378.52,-31.51"/>
</a>
</g>
</g>
<!-- Node5 -->
<g id="Node000005" class="node">
<title>Node5</title>
<g id="a_Node000005"><a xlink:title=" ">
<polygon fill="#e0e0e0" stroke="#999999" points="263,-22.25 156.25,-22.25 156.25,0 263,0 263,-22.25"/>
<text xml:space="preserve" text-anchor="middle" x="209.62" y="-6.85" font-family="Helvetica,sans-Serif" font-size="12.00">stm32g4xx_hal.h</text>
</a>
</g>
</g>
<!-- Node4&#45;&gt;Node5 -->
<g id="edge4_Node000004_Node000005" class="edge">
<title>Node4&#45;&gt;Node5</title>
<g id="a_edge4_Node000004_Node000005"><a xlink:title=" ">
<path fill="none" stroke="#63b8ff" d="M209.62,-57.79C209.62,-51.12 209.62,-42.24 209.62,-34.09"/>
<polygon fill="#63b8ff" stroke="#63b8ff" points="213.13,-34.17 209.63,-24.17 206.13,-34.17 213.13,-34.17"/>
</a>
</g>
</g>
<!-- Node8 -->
<g id="Node000008" class="node">
<title>Node8</title>
<g id="a_Node000008"><a xlink:href="foc_8h.html" target="_top" xlink:title="FOC 电流环模块头文件">
<polygon fill="white" stroke="#666666" points="556.38,-138.75 514.88,-138.75 514.88,-116.5 556.38,-116.5 556.38,-138.75"/>
<text xml:space="preserve" text-anchor="middle" x="535.62" y="-123.35" font-family="Helvetica,sans-Serif" font-size="12.00">foc.h</text>
</a>
</g>
</g>
<!-- Node7&#45;&gt;Node8 -->
<g id="edge7_Node000007_Node000008" class="edge">
<title>Node7&#45;&gt;Node8</title>
<g id="a_edge7_Node000007_Node000008"><a xlink:title=" ">
<path fill="none" stroke="#63b8ff" d="M495.84,-174.29C502.34,-166.83 511.24,-156.62 518.97,-147.75"/>
<polygon fill="#63b8ff" stroke="#63b8ff" points="521.53,-150.14 525.46,-140.3 516.25,-145.54 521.53,-150.14"/>
</a>
</g>
</g>
<!-- Node10 -->
<g id="Node000010" class="node">
<title>Node10</title>
<g id="a_Node000010"><a xlink:href="pid_8h.html" target="_top" xlink:title="位置式抗饱和（clamping anti&#45;windup）PID 控制器模块头文件">
<polygon fill="white" stroke="#666666" points="450.75,-80.5 408.5,-80.5 408.5,-58.25 450.75,-58.25 450.75,-80.5"/>
<text xml:space="preserve" text-anchor="middle" x="429.62" y="-65.1" font-family="Helvetica,sans-Serif" font-size="12.00">pid.h</text>
</a>
</g>
</g>
<!-- Node7&#45;&gt;Node10 -->
<g id="edge12_Node000007_Node000010" class="edge">
<title>Node7&#45;&gt;Node10</title>
<g id="a_edge12_Node000007_Node000010"><a xlink:title=" ">
<path fill="none" stroke="#63b8ff" d="M485.15,-174.65C482.86,-160.84 477.64,-135.73 467.62,-116.5 462.53,-106.71 455.11,-97.09 448.17,-89.19"/>
<polygon fill="#63b8ff" stroke="#63b8ff" points="450.8,-86.89 441.45,-81.92 445.66,-91.64 450.8,-86.89"/>
</a>
</g>
</g>
<!-- Node11 -->
<g id="Node000011" class="node">
<title>Node11</title>
<g id="a_Node000011"><a xlink:href="filter_8h.html" target="_top" xlink:title="滤波与状态估计模块头文件（一阶低通滤波器、PLL 速度估计器）">
<polygon fill="white" stroke="#666666" points="608.38,-80.5 560.88,-80.5 560.88,-58.25 608.38,-58.25 608.38,-80.5"/>
<text xml:space="preserve" text-anchor="middle" x="584.62" y="-65.1" font-family="Helvetica,sans-Serif" font-size="12.00">filter.h</text>
</a>
</g>
</g>
<!-- Node7&#45;&gt;Node11 -->
<g id="edge13_Node000007_Node000011" class="edge">
<title>Node7&#45;&gt;Node11</title>
<g id="a_edge13_Node000007_Node000011"><a xlink:title=" ">
<path fill="none" stroke="#63b8ff" d="M515.65,-174.41C532.53,-166.92 552.92,-155.23 565.62,-138.75 575.98,-125.32 580.69,-106.56 582.84,-92.08"/>
<polygon fill="#63b8ff" stroke="#63b8ff" points="586.31,-92.55 583.97,-82.22 579.35,-91.75 586.31,-92.55"/>
</a>
</g>
</g>
<!-- Node12 -->
<g id="Node000012" class="node">
<title>Node12</title>
<g id="a_Node000012"><a xlink:href="protection_8h.html" target="_top" xlink:title="保护与故障管理模块头文件">
<polygon fill="white" stroke="#666666" points="704.75,-80.5 626.5,-80.5 626.5,-58.25 704.75,-58.25 704.75,-80.5"/>
<text xml:space="preserve" text-anchor="middle" x="665.62" y="-65.1" font-family="Helvetica,sans-Serif" font-size="12.00">protection.h</text>
</a>
</g>
</g>
<!-- Node7&#45;&gt;Node12 -->
<g id="edge15_Node000007_Node000012" class="edge">
<title>Node7&#45;&gt;Node12</title>
<g id="a_edge15_Node000007_Node000012"><a xlink:title=" ">
<path fill="none" stroke="#63b8ff" d="M514.13,-174.42C534.6,-166.09 562.82,-153.42 585.62,-138.75 608.49,-124.04 631.8,-103.33 647.32,-88.57"/>
<polygon fill="#63b8ff" stroke="#63b8ff" points="649.65,-91.17 654.4,-81.7 644.78,-86.15 649.65,-91.17"/>
</a>
</g>
</g>
<!-- Node13 -->
<g id="Node000013" class="node">
<title>Node13</title>
<g id="a_Node000013"><a xlink:href="bsp__encoder_8h.html" target="_top" xlink:title="MT6701 磁编码器 BSP 头文件（GPIO 位带模拟 SSI）">
<polygon fill="white" stroke="#666666" points="369,-138.75 274.25,-138.75 274.25,-116.5 369,-116.5 369,-138.75"/>
<text xml:space="preserve" text-anchor="middle" x="321.62" y="-123.35" font-family="Helvetica,sans-Serif" font-size="12.00">bsp_encoder.h</text>
</a>
</g>
</g>
<!-- Node7&#45;&gt;Node13 -->
<g id="edge17_Node000007_Node000013" class="edge">
<title>Node7&#45;&gt;Node13</title>
<g id="a_edge17_Node000007_Node000013"><a xlink:title=" ">
<path fill="none" stroke="#63b8ff" d="M455.59,-174.29C429.43,-165.38 391.78,-152.54 363.05,-142.75"/>
<polygon fill="#63b8ff" stroke="#63b8ff" points="364.55,-139.56 353.95,-139.65 362.29,-146.19 364.55,-139.56"/>
</a>
</g>
</g>
<!-- Node14 -->
<g id="Node000014" class="node">
<title>Node14</title>
<g id="a_Node000014"><a xlink:href="bsp__adc_8h.html" target="_top" xlink:title="ADC 采样 BSP 头文件（电流/母线电压注入组 + 温度规则组）">
<polygon fill="white" stroke="#666666" points="458.38,-138.75 386.88,-138.75 386.88,-116.5 458.38,-116.5 458.38,-138.75"/>
<text xml:space="preserve" text-anchor="middle" x="422.62" y="-123.35" font-family="Helvetica,sans-Serif" font-size="12.00">bsp_adc.h</text>
</a>
</g>
</g>
<!-- Node7&#45;&gt;Node14 -->
<g id="edge20_Node000007_Node000014" class="edge">
<title>Node7&#45;&gt;Node14</title>
<g id="a_edge20_Node000007_Node000014"><a xlink:title=" ">
<path fill="none" stroke="#63b8ff" d="M474.59,-174.29C465.74,-166.52 453.5,-155.76 443.12,-146.64"/>
<polygon fill="#63b8ff" stroke="#63b8ff" points="445.57,-144.13 435.75,-140.16 440.95,-149.39 445.57,-144.13"/>
</a>
</g>
</g>
<!-- Node9 -->
<g id="Node000009" class="node">
<title>Node9</title>
<g id="a_Node000009"><a xlink:href="foc__math_8h.html" target="_top" xlink:title="FOC 数学基础模块头文件（快速三角函数、坐标变换、角度工具）">
<polygon fill="white" stroke="#666666" points="542.88,-80.5 468.38,-80.5 468.38,-58.25 542.88,-58.25 542.88,-80.5"/>
<text xml:space="preserve" text-anchor="middle" x="505.62" y="-65.1" font-family="Helvetica,sans-Serif" font-size="12.00">foc_math.h</text>
</a>
</g>
</g>
<!-- Node8&#45;&gt;Node9 -->
<g id="edge8_Node000008_Node000009" class="edge">
<title>Node8&#45;&gt;Node9</title>
<g id="a_edge8_Node000008_Node000009"><a xlink:title=" ">
<path fill="none" stroke="#63b8ff" d="M529.98,-116.04C526.21,-108.97 521.13,-99.44 516.58,-90.91"/>
<polygon fill="#63b8ff" stroke="#63b8ff" points="519.75,-89.42 511.95,-82.24 513.57,-92.71 519.75,-89.42"/>
</a>
</g>
</g>
<!-- Node8&#45;&gt;Node10 -->
<g id="edge10_Node000008_Node000010" class="edge">
<title>Node8&#45;&gt;Node10</title>
<g id="a_edge10_Node000008_Node000010"><a xlink:title=" ">
<path fill="none" stroke="#63b8ff" d="M515.69,-116.04C499.85,-107.64 477.44,-95.75 459.46,-86.21"/>
<polygon fill="#63b8ff" stroke="#63b8ff" points="461.28,-83.21 450.81,-81.62 458,-89.4 461.28,-83.21"/>
</a>
</g>
</g>
<!-- Node9&#45;&gt;Node6 -->
<g id="edge9_Node000009_Node000006" class="edge">
<title>Node9&#45;&gt;Node6</title>
<g id="a_edge9_Node000009_Node000006"><a xlink:title=" ">
<path fill="none" stroke="#63b8ff" d="M486.63,-57.79C471.67,-49.47 450.58,-37.72 433.54,-28.23"/>
<polygon fill="#63b8ff" stroke="#63b8ff" points="435.3,-25.2 424.86,-23.39 431.89,-31.32 435.3,-25.2"/>
</a>
</g>
</g>
<!-- Node10&#45;&gt;Node6 -->
<g id="edge11_Node000010_Node000006" class="edge">
<title>Node10&#45;&gt;Node6</title>
<g id="a_edge11_Node000010_Node000006"><a xlink:title=" ">
<path fill="none" stroke="#63b8ff" d="M424.92,-57.79C421.81,-50.8 417.64,-41.4 413.88,-32.95"/>
<polygon fill="#63b8ff" stroke="#63b8ff" points="417.18,-31.76 409.92,-24.04 410.78,-34.6 417.18,-31.76"/>
</a>
</g>
</g>
<!-- Node11&#45;&gt;Node6 -->
<g id="edge14_Node000011_Node000006" class="edge">
<title>Node11&#45;&gt;Node6</title>
<g id="a_edge14_Node000011_Node000006"><a xlink:title=" ">
<path fill="none" stroke="#63b8ff" d="M560.72,-60.91C530.69,-51.52 478.78,-35.3 443.13,-24.16"/>
<polygon fill="#63b8ff" stroke="#63b8ff" points="444.2,-20.83 433.61,-21.18 442.11,-27.51 444.2,-20.83"/>
</a>
</g>
</g>
<!-- Node12&#45;&gt;Node6 -->
<g id="edge16_Node000012_Node000006" class="edge">
<title>Node12&#45;&gt;Node6</title>
<g id="a_edge16_Node000012_Node000006"><a xlink:title=" ">
<path fill="none" stroke="#63b8ff" d="M626.27,-59.89C576.7,-49.21 492.08,-30.97 442.99,-20.39"/>
<polygon fill="#63b8ff" stroke="#63b8ff" points="443.89,-17.01 433.38,-18.32 442.42,-23.85 443.89,-17.01"/>
</a>
</g>
</g>
<!-- Node13&#45;&gt;Node4 -->
<g id="edge18_Node000013_Node000004" class="edge">
<title>Node13&#45;&gt;Node4</title>
<g id="a_edge18_Node000013_Node000004"><a xlink:title=" ">
<path fill="none" stroke="#63b8ff" d="M300.56,-116.04C283.66,-107.56 259.71,-95.53 240.62,-85.94"/>
<polygon fill="#63b8ff" stroke="#63b8ff" points="242.46,-82.95 231.95,-81.59 239.31,-89.2 242.46,-82.95"/>
</a>
</g>
</g>
<!-- Node13&#45;&gt;Node6 -->
<g id="edge19_Node000013_Node000006" class="edge">
<title>Node13&#45;&gt;Node6</title>
<g id="a_edge19_Node000013_Node000006"><a xlink:title=" ">
<path fill="none" stroke="#63b8ff" d="M329.28,-116.06C343.18,-96.89 372.74,-56.1 390.42,-31.71"/>
<polygon fill="#63b8ff" stroke="#63b8ff" points="393.06,-34.04 396.1,-23.89 387.39,-29.93 393.06,-34.04"/>
</a>
</g>
</g>
<!-- Node14&#45;&gt;Node4 -->
<g id="edge21_Node000014_Node000004" class="edge">
<title>Node14&#45;&gt;Node4</title>
<g id="a_edge21_Node000014_Node000004"><a xlink:title=" ">
<path fill="none" stroke="#63b8ff" d="M386.49,-117.08C347.6,-106.81 286.05,-90.56 246.77,-80.19"/>
<polygon fill="#63b8ff" stroke="#63b8ff" points="247.86,-76.85 237.3,-77.68 246.07,-83.62 247.86,-76.85"/>
</a>
</g>
</g>
<!-- Node14&#45;&gt;Node6 -->
<g id="edge22_Node000014_Node000006" class="edge">
<title>Node14&#45;&gt;Node6</title>
<g id="a_edge22_Node000014_Node000006"><a xlink:title=" ">
<path fill="none" stroke="#63b8ff" d="M415.64,-116.17C410.07,-107.16 402.7,-93.56 399.62,-80.5 395.99,-65.07 397.49,-47.18 399.77,-33.57"/>
<polygon fill="#63b8ff" stroke="#63b8ff" points="403.16,-34.44 401.66,-23.96 396.3,-33.09 403.16,-34.44"/>
</a>
</g>
</g>
<!-- Node15&#45;&gt;Node4 -->
<g id="edge24_Node000015_Node000004" class="edge">
<title>Node15&#45;&gt;Node4</title>
<g id="a_edge24_Node000015_Node000004"><a xlink:title=" ">
<path fill="none" stroke="#63b8ff" d="M88.65,-116.04C112.4,-107.08 146.65,-94.15 172.64,-84.34"/>
<polygon fill="#63b8ff" stroke="#63b8ff" points="173.69,-87.68 181.81,-80.88 171.22,-81.13 173.69,-87.68"/>
</a>
</g>
</g>
<!-- Node15&#45;&gt;Node6 -->
<g id="edge25_Node000015_Node000006" class="edge">
<title>Node15&#45;&gt;Node6</title>
<g id="a_edge25_Node000015_Node000006"><a xlink:title=" ">
<path fill="none" stroke="#63b8ff" d="M74.56,-116.09C95.26,-100.95 135.88,-73.24 174.62,-58.25 239.09,-33.31 319.17,-21.17 365.83,-15.81"/>
<polygon fill="#63b8ff" stroke="#63b8ff" points="366.16,-19.3 375.72,-14.73 365.4,-12.34 366.16,-19.3"/>
</a>
</g>
</g>
</g>
</svg>
