<?xml version="1.0" encoding="UTF-8" standalone="no"?>
<!DOCTYPE svg PUBLIC "-//W3C//DTD SVG 1.1//EN"
 "http://www.w3.org/Graphics/SVG/1.1/DTD/svg11.dtd">
<!-- Generated by graphviz version 15.1.0 (20260618.0150)
 -->
<!-- Title: APP_MON_SetLog Pages: 1 -->
<svg width="602pt" height="30pt"
 viewBox="0.00 0.00 602.00 30.00" xmlns="http://www.w3.org/2000/svg" xmlns:xlink="http://www.w3.org/1999/xlink">
<g id="graph0" class="graph" transform="scale(1 1) rotate(0) translate(4 26.25)">
<title>APP_MON_SetLog</title>
<!-- Node1 -->
<g id="Node000001" class="node">
<title>Node1</title>
<g id="a_Node000001"><a xlink:title="设置周期日志开关与速率">
<polygon fill="#999999" stroke="#666666" points="120.25,-22.25 0,-22.25 0,0 120.25,0 120.25,-22.25"/>
<text xml:space="preserve" text-anchor="middle" x="60.12" y="-6.85" font-family="Helvetica,sans-Serif" font-size="12.00">APP_MON_SetLog</text>
</a>
</g>
</g>
<!-- Node2 -->
<g id="Node000002" class="node">
<title>Node2</title>
<g id="a_Node000002"><a xlink:href="bsp__uart_8c.html#ac8fe8954e03174bb365847f52531e218" target="_top" xlink:title="格式化打印到调试串口（非阻塞）">
<polygon fill="white" stroke="#666666" points="271.25,-22.25 156.25,-22.25 156.25,0 271.25,0 271.25,-22.25"/>
<text xml:space="preserve" text-anchor="middle" x="213.75" y="-6.85" font-family="Helvetica,sans-Serif" font-size="12.00">BSP_UART_Printf</text>
</a>
</g>
</g>
<!-- Node1&#45;&gt;Node2 -->
<g id="edge1_Node000001_Node000002" class="edge">
<title>Node1&#45;&gt;Node2</title>
<g id="a_edge1_Node000001_Node000002"><a xlink:title=" ">
<path fill="none" stroke="#63b8ff" d="M120.62,-11.12C128.42,-11.12 136.47,-11.12 144.4,-11.12"/>
<polygon fill="#63b8ff" stroke="#63b8ff" points="144.4,-14.63 154.4,-11.13 144.4,-7.63 144.4,-14.63"/>
</a>
</g>
</g>
<!-- Node3 -->
<g id="Node000003" class="node">
<title>Node3</title>
<g id="a_Node000003"><a xlink:href="bsp__uart_8c.html#a67e2eb7d361398076d0800612430f13c" target="_top" xlink:title="向 TX 环形缓冲写入数据（非阻塞）">
<polygon fill="white" stroke="#666666" points="422.25,-22.25 307.25,-22.25 307.25,0 422.25,0 422.25,-22.25"/>
<text xml:space="preserve" text-anchor="middle" x="364.75" y="-6.85" font-family="Helvetica,sans-Serif" font-size="12.00">BSP_UART_Write</text>
</a>
</g>
</g>
<!-- Node2&#45;&gt;Node3 -->
<g id="edge2_Node000002_Node000003" class="edge">
<title>Node2&#45;&gt;Node3</title>
<g id="a_edge2_Node000002_Node000003"><a xlink:title=" ">
<path fill="none" stroke="#63b8ff" d="M271.51,-11.12C279.44,-11.12 287.67,-11.12 295.78,-11.12"/>
<polygon fill="#63b8ff" stroke="#63b8ff" points="295.64,-14.63 305.64,-11.13 295.64,-7.63 295.64,-14.63"/>
</a>
</g>
</g>
<!-- Node4 -->
<g id="Node000004" class="node">
<title>Node4</title>
<g id="a_Node000004"><a xlink:href="bsp__uart_8c.html#ad4dee4b2dd593f1d4c141de95156546d" target="_top" xlink:title="若 DMA 空闲且缓冲有数据，则启动下一段 DMA 传输">
<polygon fill="white" stroke="#666666" points="594.25,-22.25 458.25,-22.25 458.25,0 594.25,0 594.25,-22.25"/>
<text xml:space="preserve" text-anchor="middle" x="526.25" y="-6.85" font-family="Helvetica,sans-Serif" font-size="12.00">BSP_UART_KickDma</text>
</a>
</g>
</g>
<!-- Node3&#45;&gt;Node4 -->
<g id="edge3_Node000003_Node000004" class="edge">
<title>Node3&#45;&gt;Node4</title>
<g id="a_edge3_Node000003_Node000004"><a xlink:title=" ">
<path fill="none" stroke="#63b8ff" d="M422.43,-11.12C430.22,-11.12 438.33,-11.12 446.43,-11.12"/>
<polygon fill="#63b8ff" stroke="#63b8ff" points="446.33,-14.63 456.33,-11.13 446.33,-7.63 446.33,-14.63"/>
</a>
</g>
</g>
</g>
</svg>
