<?xml version="1.0" encoding="UTF-8" standalone="no"?>
<!DOCTYPE svg PUBLIC "-//W3C//DTD SVG 1.1//EN"
 "http://www.w3.org/Graphics/SVG/1.1/DTD/svg11.dtd">
<!-- Generated by graphviz version 15.1.0 (20260618.0150)
 -->
<!-- Title: APP_CAN_SetParamByIndex Pages: 1 -->
<svg width="511pt" height="70pt"
 viewBox="0.00 0.00 511.00 70.00" xmlns="http://www.w3.org/2000/svg" xmlns:xlink="http://www.w3.org/1999/xlink">
<g id="graph0" class="graph" transform="scale(1 1) rotate(0) translate(4 66.25)">
<title>APP_CAN_SetParamByIndex</title>
<!-- Node1 -->
<g id="Node000001" class="node">
<title>Node1</title>
<g id="a_Node000001"><a xlink:title="按索引写参数（只读项与非法值拒绝，CAN 配置通道与 shell 共用）">
<polygon fill="#999999" stroke="#666666" points="177.25,-42.25 0,-42.25 0,-20 177.25,-20 177.25,-42.25"/>
<text xml:space="preserve" text-anchor="middle" x="88.62" y="-26.85" font-family="Helvetica,sans-Serif" font-size="12.00">APP_CAN_SetParamByIndex</text>
</a>
</g>
</g>
<!-- Node2 -->
<g id="Node000002" class="node">
<title>Node2</title>
<g id="a_Node000002"><a xlink:href="bsp__can_8c.html#ab09830a7aa5df9b3a6fa393538f81ab8" target="_top" xlink:title="切换 120 欧终端电阻（TS5A3159 模拟开关）">
<polygon fill="white" stroke="#666666" points="374,-62.25 213.25,-62.25 213.25,-40 374,-40 374,-62.25"/>
<text xml:space="preserve" text-anchor="middle" x="293.62" y="-46.85" font-family="Helvetica,sans-Serif" font-size="12.00">BSP_CAN_SetTermination</text>
</a>
</g>
</g>
<!-- Node1&#45;&gt;Node2 -->
<g id="edge1_Node000001_Node000002" class="edge">
<title>Node1&#45;&gt;Node2</title>
<g id="a_edge1_Node000001_Node000002"><a xlink:title=" ">
<path fill="none" stroke="#63b8ff" d="M177.48,-39.78C185.49,-40.57 193.62,-41.37 201.66,-42.16"/>
<polygon fill="#63b8ff" stroke="#63b8ff" points="201.14,-45.63 211.44,-43.13 201.83,-38.66 201.14,-45.63"/>
</a>
</g>
</g>
<!-- Node3 -->
<g id="Node000003" class="node">
<title>Node3</title>
<g id="a_Node000003"><a xlink:href="motor__ctrl_8c.html#acd57a3a6a71d8ec4261dca794251a12a" target="_top" xlink:title="参数修改后刷新 PID 增益（shell/CAN 调参后调用）">
<polygon fill="white" stroke="#666666" points="359.38,-22.25 227.88,-22.25 227.88,0 359.38,0 359.38,-22.25"/>
<text xml:space="preserve" text-anchor="middle" x="293.62" y="-6.85" font-family="Helvetica,sans-Serif" font-size="12.00">MC_ApplyPidParams</text>
</a>
</g>
</g>
<!-- Node1&#45;&gt;Node3 -->
<g id="edge2_Node000001_Node000003" class="edge">
<title>Node1&#45;&gt;Node3</title>
<g id="a_edge2_Node000001_Node000003"><a xlink:title=" ">
<path fill="none" stroke="#63b8ff" d="M177.48,-22.47C190.36,-21.2 203.54,-19.9 216.17,-18.66"/>
<polygon fill="#63b8ff" stroke="#63b8ff" points="216.47,-22.14 226.08,-17.68 215.79,-15.18 216.47,-22.14"/>
</a>
</g>
</g>
<!-- Node4 -->
<g id="Node000004" class="node">
<title>Node4</title>
<g id="a_Node000004"><a xlink:href="pid_8c.html#a8977cc689f8f72deff8a981ff5da901f" target="_top" xlink:title="运行中修改增益（不复位积分，保证无扰切换）">
<polygon fill="white" stroke="#666666" points="502.5,-22.25 410,-22.25 410,0 502.5,0 502.5,-22.25"/>
<text xml:space="preserve" text-anchor="middle" x="456.25" y="-6.85" font-family="Helvetica,sans-Serif" font-size="12.00">PID_SetGains</text>
</a>
</g>
</g>
<!-- Node3&#45;&gt;Node4 -->
<g id="edge3_Node000003_Node000004" class="edge">
<title>Node3&#45;&gt;Node4</title>
<g id="a_edge3_Node000003_Node000004"><a xlink:title=" ">
<path fill="none" stroke="#63b8ff" d="M359.49,-11.12C372.43,-11.12 385.91,-11.12 398.55,-11.12"/>
<polygon fill="#63b8ff" stroke="#63b8ff" points="398.35,-14.63 408.35,-11.13 398.35,-7.63 398.35,-14.63"/>
</a>
</g>
</g>
</g>
</svg>
