<?xml version="1.0" encoding="UTF-8" standalone="no"?>
<!DOCTYPE svg PUBLIC "-//W3C//DTD SVG 1.1//EN"
 "http://www.w3.org/Graphics/SVG/1.1/DTD/svg11.dtd">
<!-- Generated by graphviz version 15.1.0 (20260618.0150)
 -->
<!-- Title: Application/app/app_shell.c Pages: 1 -->
<svg width="797pt" height="278pt"
 viewBox="0.00 0.00 797.00 278.00" xmlns="http://www.w3.org/2000/svg" xmlns:xlink="http://www.w3.org/1999/xlink">
<g id="graph0" class="graph" transform="scale(1 1) rotate(0) translate(4 273.5)">
<title>Application/app/app_shell.c</title>
<!-- Node1 -->
<g id="Node000001" class="node">
<title>Node1</title>
<g id="a_Node000001"><a xlink:title="调试 shell 模块（USART3，行式命令）">
<polygon fill="#999999" stroke="#666666" points="411.5,-269.5 289,-269.5 289,-233 411.5,-233 411.5,-269.5"/>
<text xml:space="preserve" text-anchor="start" x="297" y="-254.1" font-family="Helvetica,sans-Serif" font-size="12.00">Application/app/app</text>
<text xml:space="preserve" text-anchor="middle" x="350.25" y="-239.85" font-family="Helvetica,sans-Serif" font-size="12.00">_shell.c</text>
</a>
</g>
</g>
<!-- Node2 -->
<g id="Node000002" class="node">
<title>Node2</title>
<g id="a_Node000002"><a xlink:href="app__shell_8h.html" target="_top" xlink:title="调试 shell 模块头文件">
<polygon fill="white" stroke="#666666" points="208.38,-197 130.12,-197 130.12,-174.75 208.38,-174.75 208.38,-197"/>
<text xml:space="preserve" text-anchor="middle" x="169.25" y="-181.6" font-family="Helvetica,sans-Serif" font-size="12.00">app_shell.h</text>
</a>
</g>
</g>
<!-- Node1&#45;&gt;Node2 -->
<g id="edge1_Node000001_Node000002" class="edge">
<title>Node1&#45;&gt;Node2</title>
<g id="a_edge1_Node000001_Node000002"><a xlink:title=" ">
<path fill="none" stroke="#63b8ff" d="M299.83,-232.6C271.64,-222.73 236.95,-210.58 210.41,-201.29"/>
<polygon fill="#63b8ff" stroke="#63b8ff" points="211.6,-198 201.01,-197.99 209.29,-204.6 211.6,-198"/>
</a>
</g>
</g>
<!-- Node3 -->
<g id="Node000003" class="node">
<title>Node3</title>
<g id="a_Node000003"><a xlink:href="app__params_8h.html" target="_top" xlink:title="运行参数管理头文件（RAM 副本 + Flash 持久化）">
<polygon fill="white" stroke="#666666" points="92.5,-138.75 0,-138.75 0,-116.5 92.5,-116.5 92.5,-138.75"/>
<text xml:space="preserve" text-anchor="middle" x="46.25" y="-123.35" font-family="Helvetica,sans-Serif" font-size="12.00">app_params.h</text>
</a>
</g>
</g>
<!-- Node1&#45;&gt;Node3 -->
<g id="edge2_Node000001_Node000003" class="edge">
<title>Node1&#45;&gt;Node3</title>
<g id="a_edge2_Node000001_Node000003"><a xlink:title=" ">
<path fill="none" stroke="#63b8ff" d="M315.05,-232.64C295.66,-222.66 271.32,-209.67 250.25,-197 235.09,-187.89 233.34,-182.1 217.25,-174.75 196.95,-165.48 144.67,-151.89 103.22,-141.86"/>
<polygon fill="#63b8ff" stroke="#63b8ff" points="104.14,-138.48 93.59,-139.55 102.5,-145.29 104.14,-138.48"/>
</a>
</g>
</g>
<!-- Node7 -->
<g id="Node000007" class="node">
<title>Node7</title>
<g id="a_Node000007"><a xlink:href="app__can__protocol_8h.html" target="_top" xlink:title="CAN 应用协议头文件（MIT 运控协议 + 配置协议）">
<polygon fill="white" stroke="#666666" points="232.12,-138.75 110.38,-138.75 110.38,-116.5 232.12,-116.5 232.12,-138.75"/>
<text xml:space="preserve" text-anchor="middle" x="171.25" y="-123.35" font-family="Helvetica,sans-Serif" font-size="12.00">app_can_protocol.h</text>
</a>
</g>
</g>
<!-- Node1&#45;&gt;Node7 -->
<g id="edge6_Node000001_Node000007" class="edge">
<title>Node1&#45;&gt;Node7</title>
<g id="a_edge6_Node000001_Node000007"><a xlink:title=" ">
<path fill="none" stroke="#63b8ff" d="M328.55,-232.69C308.66,-216.87 278.13,-193.32 250.25,-174.75 234.25,-164.09 215.71,-153.2 200.62,-144.68"/>
<polygon fill="#63b8ff" stroke="#63b8ff" points="202.55,-141.75 192.12,-139.93 199.14,-147.86 202.55,-141.75"/>
</a>
</g>
</g>
<!-- Node8 -->
<g id="Node000008" class="node">
<title>Node8</title>
<g id="a_Node000008"><a xlink:href="app__monitor_8h.html" target="_top" xlink:title="调试数据打印模块头文件">
<polygon fill="white" stroke="#666666" points="399.12,-80.5 307.38,-80.5 307.38,-58.25 399.12,-58.25 399.12,-80.5"/>
<text xml:space="preserve" text-anchor="middle" x="353.25" y="-65.1" font-family="Helvetica,sans-Serif" font-size="12.00">app_monitor.h</text>
</a>
</g>
</g>
<!-- Node1&#45;&gt;Node8 -->
<g id="edge9_Node000001_Node000008" class="edge">
<title>Node1&#45;&gt;Node8</title>
<g id="a_edge9_Node000001_Node000008"><a xlink:title=" ">
<path fill="none" stroke="#63b8ff" d="M350.54,-232.68C351.1,-199.46 352.3,-127.6 352.89,-91.69"/>
<polygon fill="#63b8ff" stroke="#63b8ff" points="356.39,-92.19 353.05,-82.13 349.39,-92.07 356.39,-92.19"/>
</a>
</g>
</g>
<!-- Node9 -->
<g id="Node000009" class="node">
<title>Node9</title>
<g id="a_Node000009"><a xlink:href="motor__ctrl_8h.html" target="_top" xlink:title="电机控制核心模块头文件（模式状态机 + FOC 主循环）">
<polygon fill="white" stroke="#666666" points="514.38,-197 436.12,-197 436.12,-174.75 514.38,-174.75 514.38,-197"/>
<text xml:space="preserve" text-anchor="middle" x="475.25" y="-181.6" font-family="Helvetica,sans-Serif" font-size="12.00">motor_ctrl.h</text>
</a>
</g>
</g>
<!-- Node1&#45;&gt;Node9 -->
<g id="edge11_Node000001_Node000009" class="edge">
<title>Node1&#45;&gt;Node9</title>
<g id="a_edge11_Node000001_Node000009"><a xlink:title=" ">
<path fill="none" stroke="#63b8ff" d="M385.07,-232.6C403.58,-223.21 426.15,-211.77 444.09,-202.68"/>
<polygon fill="#63b8ff" stroke="#63b8ff" points="445.62,-205.82 452.96,-198.18 442.45,-199.58 445.62,-205.82"/>
</a>
</g>
</g>
<!-- Node17 -->
<g id="Node000017" class="node">
<title>Node17</title>
<g id="a_Node000017"><a xlink:href="bsp__uart_8h.html" target="_top" xlink:title="USART3 调试串口 BSP 头文件（DMA TX 环形缓冲 + RXNE 中断接收）">
<polygon fill="white" stroke="#666666" points="322.38,-138.75 250.12,-138.75 250.12,-116.5 322.38,-116.5 322.38,-138.75"/>
<text xml:space="preserve" text-anchor="middle" x="286.25" y="-123.35" font-family="Helvetica,sans-Serif" font-size="12.00">bsp_uart.h</text>
</a>
</g>
</g>
<!-- Node1&#45;&gt;Node17 -->
<g id="edge28_Node000001_Node000017" class="edge">
<title>Node1&#45;&gt;Node17</title>
<g id="a_edge28_Node000001_Node000017"><a xlink:title=" ">
<path fill="none" stroke="#63b8ff" d="M340.94,-232.56C329.27,-210.38 309.3,-172.43 296.99,-149.04"/>
<polygon fill="#63b8ff" stroke="#63b8ff" points="300.24,-147.7 292.49,-140.48 294.05,-150.96 300.24,-147.7"/>
</a>
</g>
</g>
<!-- Node18 -->
<g id="Node000018" class="node">
<title>Node18</title>
<g id="a_Node000018"><a xlink:href="board__config_8h.html" target="_top" xlink:title="板级硬件参数统一配置（GIM4310/4305 电机控制器 V0.0 板）">
<polygon fill="white" stroke="#666666" points="628,-197 532.5,-197 532.5,-174.75 628,-174.75 628,-197"/>
<text xml:space="preserve" text-anchor="middle" x="580.25" y="-181.6" font-family="Helvetica,sans-Serif" font-size="12.00">board_config.h</text>
</a>
</g>
</g>
<!-- Node1&#45;&gt;Node18 -->
<g id="edge31_Node000001_Node000018" class="edge">
<title>Node1&#45;&gt;Node18</title>
<g id="a_edge31_Node000001_Node000018"><a xlink:title=" ">
<path fill="none" stroke="#63b8ff" d="M411.89,-233.27C449.23,-222.98 496.21,-210.03 531.06,-200.43"/>
<polygon fill="#63b8ff" stroke="#63b8ff" points="531.74,-203.87 540.45,-197.84 529.88,-197.12 531.74,-203.87"/>
</a>
</g>
</g>
<!-- Node19 -->
<g id="Node000019" class="node">
<title>Node19</title>
<g id="a_Node000019"><a xlink:title=" ">
<polygon fill="#e0e0e0" stroke="#999999" points="700.75,-197 645.75,-197 645.75,-174.75 700.75,-174.75 700.75,-197"/>
<text xml:space="preserve" text-anchor="middle" x="673.25" y="-181.6" font-family="Helvetica,sans-Serif" font-size="12.00">string.h</text>
</a>
</g>
</g>
<!-- Node1&#45;&gt;Node19 -->
<g id="edge32_Node000001_Node000019" class="edge">
<title>Node1&#45;&gt;Node19</title>
<g id="a_edge32_Node000001_Node000019"><a xlink:title=" ">
<path fill="none" stroke="#63b8ff" d="M411.89,-240.48C467.73,-231.25 552.46,-216.31 634.39,-197.53"/>
<polygon fill="#63b8ff" stroke="#63b8ff" points="634.98,-200.98 643.93,-195.32 633.4,-194.17 634.98,-200.98"/>
</a>
</g>
</g>
<!-- Node20 -->
<g id="Node000020" class="node">
<title>Node20</title>
<g id="a_Node000020"><a xlink:title=" ">
<polygon fill="#e0e0e0" stroke="#999999" points="773.38,-197 719.12,-197 719.12,-174.75 773.38,-174.75 773.38,-197"/>
<text xml:space="preserve" text-anchor="middle" x="746.25" y="-181.6" font-family="Helvetica,sans-Serif" font-size="12.00">stdlib.h</text>
</a>
</g>
</g>
<!-- Node1&#45;&gt;Node20 -->
<g id="edge33_Node000001_Node000020" class="edge">
<title>Node1&#45;&gt;Node20</title>
<g id="a_edge33_Node000001_Node000020"><a xlink:title=" ">
<path fill="none" stroke="#63b8ff" d="M411.83,-243.56C481.46,-235.46 598.36,-220.23 707.6,-197.36"/>
<polygon fill="#63b8ff" stroke="#63b8ff" points="708.29,-200.79 717.34,-195.29 706.83,-193.95 708.29,-200.79"/>
</a>
</g>
</g>
<!-- Node4 -->
<g id="Node000004" class="node">
<title>Node4</title>
<g id="a_Node000004"><a xlink:href="main_8h.html" target="_top" xlink:title=": Header for main.c file.">
<polygon fill="white" stroke="#666666" points="251.25,-80.5 199.25,-80.5 199.25,-58.25 251.25,-58.25 251.25,-80.5"/>
<text xml:space="preserve" text-anchor="middle" x="225.25" y="-65.1" font-family="Helvetica,sans-Serif" font-size="12.00">main.h</text>
</a>
</g>
</g>
<!-- Node3&#45;&gt;Node4 -->
<g id="edge3_Node000003_Node000004" class="edge">
<title>Node3&#45;&gt;Node4</title>
<g id="a_edge3_Node000003_Node000004"><a xlink:title=" ">
<path fill="none" stroke="#63b8ff" d="M79.92,-116.04C110.81,-106.34 156.48,-91.99 188.35,-81.97"/>
<polygon fill="#63b8ff" stroke="#63b8ff" points="189.07,-85.41 197.56,-79.08 186.97,-78.74 189.07,-85.41"/>
</a>
</g>
</g>
<!-- Node6 -->
<g id="Node000006" class="node">
<title>Node6</title>
<g id="a_Node000006"><a xlink:title=" ">
<polygon fill="#e0e0e0" stroke="#999999" points="473.38,-22.25 419.12,-22.25 419.12,0 473.38,0 473.38,-22.25"/>
<text xml:space="preserve" text-anchor="middle" x="446.25" y="-6.85" font-family="Helvetica,sans-Serif" font-size="12.00">stdint.h</text>
</a>
</g>
</g>
<!-- Node3&#45;&gt;Node6 -->
<g id="edge5_Node000003_Node000006" class="edge">
<title>Node3&#45;&gt;Node6</title>
<g id="a_edge5_Node000003_Node000006"><a xlink:title=" ">
<path fill="none" stroke="#63b8ff" d="M61.53,-116.25C84.64,-101.05 130.38,-72.96 173.25,-58.25 253.77,-30.61 353.54,-19.14 407.39,-14.69"/>
<polygon fill="#63b8ff" stroke="#63b8ff" points="407.58,-18.19 417.28,-13.92 407.04,-11.21 407.58,-18.19"/>
</a>
</g>
</g>
<!-- Node5 -->
<g id="Node000005" class="node">
<title>Node5</title>
<g id="a_Node000005"><a xlink:title=" ">
<polygon fill="#e0e0e0" stroke="#999999" points="278.62,-22.25 171.88,-22.25 171.88,0 278.62,0 278.62,-22.25"/>
<text xml:space="preserve" text-anchor="middle" x="225.25" y="-6.85" font-family="Helvetica,sans-Serif" font-size="12.00">stm32g4xx_hal.h</text>
</a>
</g>
</g>
<!-- Node4&#45;&gt;Node5 -->
<g id="edge4_Node000004_Node000005" class="edge">
<title>Node4&#45;&gt;Node5</title>
<g id="a_edge4_Node000004_Node000005"><a xlink:title=" ">
<path fill="none" stroke="#63b8ff" d="M225.25,-57.79C225.25,-51.12 225.25,-42.24 225.25,-34.09"/>
<polygon fill="#63b8ff" stroke="#63b8ff" points="228.75,-34.17 225.25,-24.17 221.75,-34.17 228.75,-34.17"/>
</a>
</g>
</g>
<!-- Node7&#45;&gt;Node4 -->
<g id="edge7_Node000007_Node000004" class="edge">
<title>Node7&#45;&gt;Node4</title>
<g id="a_edge7_Node000007_Node000004"><a xlink:title=" ">
<path fill="none" stroke="#63b8ff" d="M181.41,-116.04C188.72,-108.42 198.79,-97.94 207.43,-88.94"/>
<polygon fill="#63b8ff" stroke="#63b8ff" points="209.69,-91.64 214.09,-82 204.64,-86.79 209.69,-91.64"/>
</a>
</g>
</g>
<!-- Node7&#45;&gt;Node6 -->
<g id="edge8_Node000007_Node000006" class="edge">
<title>Node7&#45;&gt;Node6</title>
<g id="a_edge8_Node000007_Node000006"><a xlink:title=" ">
<path fill="none" stroke="#63b8ff" d="M170.95,-116.07C171.12,-100.92 173.86,-73.19 190.25,-58.25 221.52,-29.76 344.12,-18.27 407.63,-14.15"/>
<polygon fill="#63b8ff" stroke="#63b8ff" points="407.49,-17.67 417.26,-13.56 407.06,-10.68 407.49,-17.67"/>
</a>
</g>
</g>
<!-- Node8&#45;&gt;Node6 -->
<g id="edge10_Node000008_Node000006" class="edge">
<title>Node8&#45;&gt;Node6</title>
<g id="a_edge10_Node000008_Node000006"><a xlink:title=" ">
<path fill="none" stroke="#63b8ff" d="M370.74,-57.79C384.38,-49.55 403.56,-37.94 419.18,-28.5"/>
<polygon fill="#63b8ff" stroke="#63b8ff" points="420.8,-31.61 427.54,-23.44 417.17,-25.62 420.8,-31.61"/>
</a>
</g>
</g>
<!-- Node10 -->
<g id="Node000010" class="node">
<title>Node10</title>
<g id="a_Node000010"><a xlink:href="foc_8h.html" target="_top" xlink:title="FOC 电流环模块头文件">
<polygon fill="white" stroke="#666666" points="713,-138.75 671.5,-138.75 671.5,-116.5 713,-116.5 713,-138.75"/>
<text xml:space="preserve" text-anchor="middle" x="692.25" y="-123.35" font-family="Helvetica,sans-Serif" font-size="12.00">foc.h</text>
</a>
</g>
</g>
<!-- Node9&#45;&gt;Node10 -->
<g id="edge12_Node000009_Node000010" class="edge">
<title>Node9&#45;&gt;Node10</title>
<g id="a_edge12_Node000009_Node000010"><a xlink:title=" ">
<path fill="none" stroke="#63b8ff" d="M514.8,-174.62C556.45,-163.83 621.26,-147.03 659.95,-137"/>
<polygon fill="#63b8ff" stroke="#63b8ff" points="660.8,-140.39 669.6,-134.5 659.05,-133.62 660.8,-140.39"/>
</a>
</g>
</g>
<!-- Node12 -->
<g id="Node000012" class="node">
<title>Node12</title>
<g id="a_Node000012"><a xlink:href="pid_8h.html" target="_top" xlink:title="位置式抗饱和（clamping anti&#45;windup）PID 控制器模块头文件">
<polygon fill="white" stroke="#666666" points="789.38,-80.5 747.12,-80.5 747.12,-58.25 789.38,-58.25 789.38,-80.5"/>
<text xml:space="preserve" text-anchor="middle" x="768.25" y="-65.1" font-family="Helvetica,sans-Serif" font-size="12.00">pid.h</text>
</a>
</g>
</g>
<!-- Node9&#45;&gt;Node12 -->
<g id="edge17_Node000009_Node000012" class="edge">
<title>Node9&#45;&gt;Node12</title>
<g id="a_edge17_Node000009_Node000012"><a xlink:title=" ">
<path fill="none" stroke="#63b8ff" d="M514.78,-176.44C517.65,-175.86 520.49,-175.29 523.25,-174.75 611.45,-157.47 647.01,-187.91 722.25,-138.75 739.69,-127.35 752.18,-106.79 759.7,-91.18"/>
<polygon fill="#63b8ff" stroke="#63b8ff" points="762.8,-92.83 763.68,-82.28 756.41,-89.98 762.8,-92.83"/>
</a>
</g>
</g>
<!-- Node13 -->
<g id="Node000013" class="node">
<title>Node13</title>
<g id="a_Node000013"><a xlink:href="filter_8h.html" target="_top" xlink:title="滤波与状态估计模块头文件（一阶低通滤波器、PLL 速度估计器）">
<polygon fill="white" stroke="#666666" points="541,-80.5 493.5,-80.5 493.5,-58.25 541,-58.25 541,-80.5"/>
<text xml:space="preserve" text-anchor="middle" x="517.25" y="-65.1" font-family="Helvetica,sans-Serif" font-size="12.00">filter.h</text>
</a>
</g>
</g>
<!-- Node9&#45;&gt;Node13 -->
<g id="edge18_Node000009_Node000013" class="edge">
<title>Node9&#45;&gt;Node13</title>
<g id="a_edge18_Node000009_Node000013"><a xlink:title=" ">
<path fill="none" stroke="#63b8ff" d="M514.78,-176.53C535.4,-169.95 558.85,-158.47 571.25,-138.75 582.91,-120.21 564.11,-100.78 545.58,-87.39"/>
<polygon fill="#63b8ff" stroke="#63b8ff" points="547.57,-84.51 537.33,-81.82 543.66,-90.31 547.57,-84.51"/>
</a>
</g>
</g>
<!-- Node14 -->
<g id="Node000014" class="node">
<title>Node14</title>
<g id="a_Node000014"><a xlink:href="protection_8h.html" target="_top" xlink:title="保护与故障管理模块头文件">
<polygon fill="white" stroke="#666666" points="637.38,-80.5 559.12,-80.5 559.12,-58.25 637.38,-58.25 637.38,-80.5"/>
<text xml:space="preserve" text-anchor="middle" x="598.25" y="-65.1" font-family="Helvetica,sans-Serif" font-size="12.00">protection.h</text>
</a>
</g>
</g>
<!-- Node9&#45;&gt;Node14 -->
<g id="edge20_Node000009_Node000014" class="edge">
<title>Node9&#45;&gt;Node14</title>
<g id="a_edge20_Node000009_Node000014"><a xlink:title=" ">
<path fill="none" stroke="#63b8ff" d="M511.06,-174.33C539.95,-165.1 577.36,-151.24 587.25,-138.75 597.53,-125.77 599.93,-106.98 599.96,-92.38"/>
<polygon fill="#63b8ff" stroke="#63b8ff" points="603.46,-92.25 599.57,-82.39 596.46,-92.52 603.46,-92.25"/>
</a>
</g>
</g>
<!-- Node15 -->
<g id="Node000015" class="node">
<title>Node15</title>
<g id="a_Node000015"><a xlink:href="bsp__encoder_8h.html" target="_top" xlink:title="MT6701 磁编码器 BSP 头文件（GPIO 位带模拟 SSI）">
<polygon fill="white" stroke="#666666" points="472.62,-138.75 377.88,-138.75 377.88,-116.5 472.62,-116.5 472.62,-138.75"/>
<text xml:space="preserve" text-anchor="middle" x="425.25" y="-123.35" font-family="Helvetica,sans-Serif" font-size="12.00">bsp_encoder.h</text>
</a>
</g>
</g>
<!-- Node9&#45;&gt;Node15 -->
<g id="edge22_Node000009_Node000015" class="edge">
<title>Node9&#45;&gt;Node15</title>
<g id="a_edge22_Node000009_Node000015"><a xlink:title=" ">
<path fill="none" stroke="#63b8ff" d="M465.85,-174.29C459.21,-166.83 450.14,-156.62 442.25,-147.75"/>
<polygon fill="#63b8ff" stroke="#63b8ff" points="444.88,-145.44 435.62,-140.29 439.65,-150.09 444.88,-145.44"/>
</a>
</g>
</g>
<!-- Node16 -->
<g id="Node000016" class="node">
<title>Node16</title>
<g id="a_Node000016"><a xlink:href="bsp__adc_8h.html" target="_top" xlink:title="ADC 采样 BSP 头文件（电流/母线电压注入组 + 温度规则组）">
<polygon fill="white" stroke="#666666" points="562,-138.75 490.5,-138.75 490.5,-116.5 562,-116.5 562,-138.75"/>
<text xml:space="preserve" text-anchor="middle" x="526.25" y="-123.35" font-family="Helvetica,sans-Serif" font-size="12.00">bsp_adc.h</text>
</a>
</g>
</g>
<!-- Node9&#45;&gt;Node16 -->
<g id="edge25_Node000009_Node000016" class="edge">
<title>Node9&#45;&gt;Node16</title>
<g id="a_edge25_Node000009_Node000016"><a xlink:title=" ">
<path fill="none" stroke="#63b8ff" d="M484.84,-174.29C491.68,-166.75 501.06,-156.41 509.16,-147.47"/>
<polygon fill="#63b8ff" stroke="#63b8ff" points="511.56,-150.04 515.68,-140.28 506.37,-145.34 511.56,-150.04"/>
</a>
</g>
</g>
<!-- Node11 -->
<g id="Node000011" class="node">
<title>Node11</title>
<g id="a_Node000011"><a xlink:href="foc__math_8h.html" target="_top" xlink:title="FOC 数学基础模块头文件（快速三角函数、坐标变换、角度工具）">
<polygon fill="white" stroke="#666666" points="729.5,-80.5 655,-80.5 655,-58.25 729.5,-58.25 729.5,-80.5"/>
<text xml:space="preserve" text-anchor="middle" x="692.25" y="-65.1" font-family="Helvetica,sans-Serif" font-size="12.00">foc_math.h</text>
</a>
</g>
</g>
<!-- Node10&#45;&gt;Node11 -->
<g id="edge13_Node000010_Node000011" class="edge">
<title>Node10&#45;&gt;Node11</title>
<g id="a_edge13_Node000010_Node000011"><a xlink:title=" ">
<path fill="none" stroke="#63b8ff" d="M692.25,-116.04C692.25,-109.37 692.25,-100.49 692.25,-92.34"/>
<polygon fill="#63b8ff" stroke="#63b8ff" points="695.75,-92.42 692.25,-82.42 688.75,-92.42 695.75,-92.42"/>
</a>
</g>
</g>
<!-- Node10&#45;&gt;Node12 -->
<g id="edge15_Node000010_Node000012" class="edge">
<title>Node10&#45;&gt;Node12</title>
<g id="a_edge15_Node000010_Node000012"><a xlink:title=" ">
<path fill="none" stroke="#63b8ff" d="M706.55,-116.04C717.37,-108.03 732.48,-96.85 745.03,-87.56"/>
<polygon fill="#63b8ff" stroke="#63b8ff" points="746.85,-90.57 752.8,-81.81 742.68,-84.94 746.85,-90.57"/>
</a>
</g>
</g>
<!-- Node11&#45;&gt;Node6 -->
<g id="edge14_Node000011_Node000006" class="edge">
<title>Node11&#45;&gt;Node6</title>
<g id="a_edge14_Node000011_Node000006"><a xlink:title=" ">
<path fill="none" stroke="#63b8ff" d="M654.62,-59.77C608.59,-49.24 531.07,-31.52 484.68,-20.91"/>
<polygon fill="#63b8ff" stroke="#63b8ff" points="485.6,-17.53 475.07,-18.71 484.04,-24.36 485.6,-17.53"/>
</a>
</g>
</g>
<!-- Node12&#45;&gt;Node6 -->
<g id="edge16_Node000012_Node000006" class="edge">
<title>Node12&#45;&gt;Node6</title>
<g id="a_edge16_Node000012_Node000006"><a xlink:title=" ">
<path fill="none" stroke="#63b8ff" d="M746.75,-60.63C743.91,-59.76 741.03,-58.93 738.25,-58.25 648.68,-36.23 540.96,-22.39 484.72,-16.1"/>
<polygon fill="#63b8ff" stroke="#63b8ff" points="485.35,-12.65 475.03,-15.04 484.59,-19.61 485.35,-12.65"/>
</a>
</g>
</g>
<!-- Node13&#45;&gt;Node6 -->
<g id="edge19_Node000013_Node000006" class="edge">
<title>Node13&#45;&gt;Node6</title>
<g id="a_edge19_Node000013_Node000006"><a xlink:title=" ">
<path fill="none" stroke="#63b8ff" d="M503.9,-57.79C493.88,-49.86 479.95,-38.82 468.29,-29.59"/>
<polygon fill="#63b8ff" stroke="#63b8ff" points="470.74,-27.06 460.73,-23.6 466.4,-32.55 470.74,-27.06"/>
</a>
</g>
</g>
<!-- Node14&#45;&gt;Node6 -->
<g id="edge21_Node000014_Node000006" class="edge">
<title>Node14&#45;&gt;Node6</title>
<g id="a_edge21_Node000014_Node000006"><a xlink:title=" ">
<path fill="none" stroke="#63b8ff" d="M569.66,-57.79C545.58,-48.88 510.93,-36.06 484.47,-26.27"/>
<polygon fill="#63b8ff" stroke="#63b8ff" points="485.7,-22.99 475.11,-22.8 483.27,-29.56 485.7,-22.99"/>
</a>
</g>
</g>
<!-- Node15&#45;&gt;Node4 -->
<g id="edge23_Node000015_Node000004" class="edge">
<title>Node15&#45;&gt;Node4</title>
<g id="a_edge23_Node000015_Node000004"><a xlink:title=" ">
<path fill="none" stroke="#63b8ff" d="M387.63,-116.04C351.79,-105.97 298.16,-90.88 262.46,-80.84"/>
<polygon fill="#63b8ff" stroke="#63b8ff" points="263.57,-77.52 253,-78.18 261.68,-84.26 263.57,-77.52"/>
</a>
</g>
</g>
<!-- Node15&#45;&gt;Node6 -->
<g id="edge24_Node000015_Node000006" class="edge">
<title>Node15&#45;&gt;Node6</title>
<g id="a_edge24_Node000015_Node000006"><a xlink:title=" ">
<path fill="none" stroke="#63b8ff" d="M427.19,-116.06C430.61,-97.4 437.79,-58.26 442.29,-33.7"/>
<polygon fill="#63b8ff" stroke="#63b8ff" points="445.68,-34.62 444.04,-24.15 438.8,-33.36 445.68,-34.62"/>
</a>
</g>
</g>
<!-- Node16&#45;&gt;Node4 -->
<g id="edge26_Node000016_Node000004" class="edge">
<title>Node16&#45;&gt;Node4</title>
<g id="a_edge26_Node000016_Node000004"><a xlink:title=" ">
<path fill="none" stroke="#63b8ff" d="M490.42,-118.42C487.32,-117.75 484.23,-117.1 481.25,-116.5 403.8,-100.82 312.63,-85.03 262.68,-76.6"/>
<polygon fill="#63b8ff" stroke="#63b8ff" points="263.42,-73.18 252.98,-74.97 262.26,-80.08 263.42,-73.18"/>
</a>
</g>
</g>
<!-- Node16&#45;&gt;Node6 -->
<g id="edge27_Node000016_Node000006" class="edge">
<title>Node16&#45;&gt;Node6</title>
<g id="a_edge27_Node000016_Node000006"><a xlink:title=" ">
<path fill="none" stroke="#63b8ff" d="M515.49,-116.24C506.52,-107.26 493.73,-93.69 484.25,-80.5 473.25,-65.18 463,-46.36 455.92,-32.35"/>
<polygon fill="#63b8ff" stroke="#63b8ff" points="459.2,-31.08 451.65,-23.65 452.92,-34.17 459.2,-31.08"/>
</a>
</g>
</g>
<!-- Node17&#45;&gt;Node4 -->
<g id="edge29_Node000017_Node000004" class="edge">
<title>Node17&#45;&gt;Node4</title>
<g id="a_edge29_Node000017_Node000004"><a xlink:title=" ">
<path fill="none" stroke="#63b8ff" d="M274.78,-116.04C266.43,-108.35 254.91,-97.72 245.08,-88.66"/>
<polygon fill="#63b8ff" stroke="#63b8ff" points="247.51,-86.14 237.78,-81.93 242.76,-91.29 247.51,-86.14"/>
</a>
</g>
</g>
<!-- Node17&#45;&gt;Node6 -->
<g id="edge30_Node000017_Node000006" class="edge">
<title>Node17&#45;&gt;Node6</title>
<g id="a_edge30_Node000017_Node000006"><a xlink:title=" ">
<path fill="none" stroke="#63b8ff" d="M285.01,-116.43C283.81,-101.73 283.93,-74.54 298.25,-58.25 325.59,-27.15 373.53,-16.77 407.43,-13.44"/>
<polygon fill="#63b8ff" stroke="#63b8ff" points="407.58,-16.94 417.27,-12.66 407.02,-9.96 407.58,-16.94"/>
</a>
</g>
</g>
</g>
</svg>
