<?xml version="1.0" encoding="UTF-8" standalone="no"?>
<!DOCTYPE svg PUBLIC "-//W3C//DTD SVG 1.1//EN"
 "http://www.w3.org/Graphics/SVG/1.1/DTD/svg11.dtd">
<!-- Generated by graphviz version 15.1.0 (20260618.0150)
 -->
<!-- Title: APP_MON_PrintStatus Pages: 1 -->
<!--zoomable 430 -->

<svg id="main" version="1.1" xmlns="http://www.w3.org/2000/svg" xmlns:xlink="http://www.w3.org/1999/xlink" xml:space="preserve" onload="init(evt)">

<style type="text/css"><![CDATA[
.node, .edge {opacity: 0.7;}
.node.selected, .edge.selected {opacity: 1;}
.edge:hover path { stroke: red; }
.edge:hover polygon { stroke: red; fill: red; }
]]></style>

<defs>
  <circle id="rim" cx="0" cy="0" r="7"/>
  <circle id="rim2" cx="0" cy="0" r="3.5"/>
  <g id="zoomPlus">
    <use xlink:href="#rim" fill="#404040"><set attributeName="fill" to="#808080" begin="zoomplus.mouseover" end="zoomplus.mouseout"/></use>
    <path d="M-4,0h8M0,-4v8" fill="none" stroke="white" stroke-width="1.5" pointer-events="none"/>
  </g>
  <g id="zoomMin">
    <use xlink:href="#rim" fill="#404040"><set attributeName="fill" to="#808080" begin="zoomminus.mouseover" end="zoomminus.mouseout"/></use>
    <path d="M-4,0h8" fill="none" stroke="white" stroke-width="1.5" pointer-events="none"/>
  </g>
  <g id="arrowUp" transform="translate(30 24)">
    <use xlink:href="#rim"/>
    <path pointer-events="none" fill="none" stroke="white" stroke-width="1.5" d="M0,-3.0v7 M-2.5,-0.5L0,-3.0L2.5,-0.5"/>
  </g>
  <g id="arrowRight" transform="rotate(90) translate(36 -43)">
    <use xlink:href="#rim"/>
    <path pointer-events="none" fill="none" stroke="white" stroke-width="1.5" d="M0,-3.0v7 M-2.5,-0.5L0,-3.0L2.5,-0.5"/>
  </g>
  <g id="arrowDown" transform="rotate(180) translate(-30 -48)">
    <use xlink:href="#rim"/>
    <path pointer-events="none" fill="none" stroke="white" stroke-width="1.5" d="M0,-3.0v7 M-2.5,-0.5L0,-3.0L2.5,-0.5"/>
  </g>
  <g id="arrowLeft" transform="rotate(270) translate(-36 17)">
    <use xlink:href="#rim"/>
    <path pointer-events="none" fill="none" stroke="white" stroke-width="1.5" d="M0,-3.0v7 M-2.5,-0.5L0,-3.0L2.5,-0.5"/>
  </g>
  <g id="resetDef">
    <use xlink:href="#rim2" fill="#404040"><set attributeName="fill" to="#808080" begin="reset.mouseover" end="reset.mouseout"/></use>
  </g>
</defs>
<script type="application/ecmascript">
var viewWidth = 669;
var viewHeight = 430;
var sectionId = 'dynsection-6';
</script>
<script type="application/ecmascript" xlink:href="svg.min.js"/>
<svg id="graph" class="graph">
<g id="viewport">
<title>APP_MON_PrintStatus</title>
<!-- Node1 -->
<g id="Node000001" class="node">
<title>Node1</title>
<g id="a_Node000001"><a xlink:title="打印完整状态快照（shell &quot;status&quot;）">
<polygon fill="#999999" stroke="#666666" points="140.5,-222.25 0,-222.25 0,-200 140.5,-200 140.5,-222.25"/>
<text xml:space="preserve" text-anchor="middle" x="70.25" y="-206.85" font-family="Helvetica,sans-Serif" font-size="12.00">APP_MON_PrintStatus</text>
</a>
</g>
</g>
<!-- Node2 -->
<g id="Node000002" class="node">
<title>Node2</title>
<g id="a_Node000002"><a xlink:href="app__main_8c.html#ac8ace74f779c511fb8d2815fc84da4cd" target="_top" xlink:title="读取 MOS 温度缓存 [C]">
<polygon fill="white" stroke="#666666" points="316.25,-422.25 198.25,-422.25 198.25,-400 316.25,-400 316.25,-422.25"/>
<text xml:space="preserve" text-anchor="middle" x="257.25" y="-406.85" font-family="Helvetica,sans-Serif" font-size="12.00">APP_GetMosTemp</text>
</a>
</g>
</g>
<!-- Node1&#45;&gt;Node2 -->
<g id="edge1_Node000001_Node000002" class="edge">
<title>Node1&#45;&gt;Node2</title>
<g id="a_edge1_Node000001_Node000002"><a xlink:title=" ">
<path fill="none" stroke="#63b8ff" d="M74.47,-222.51C84.13,-254.48 115.98,-345.72 176.5,-391.12 179.9,-393.67 183.58,-395.9 187.44,-397.84"/>
<polygon fill="#63b8ff" stroke="#63b8ff" points="186.02,-401.05 196.6,-401.77 188.78,-394.61 186.02,-401.05"/>
</a>
</g>
</g>
<!-- Node3 -->
<g id="Node000003" class="node">
<title>Node3</title>
<g id="a_Node000003"><a xlink:href="app__main_8c.html#af1c8ed1fa98ee3361a1d12b25d58e298" target="_top" xlink:title="读取电机温度缓存 [C]">
<polygon fill="white" stroke="#666666" points="320,-382.25 194.5,-382.25 194.5,-360 320,-360 320,-382.25"/>
<text xml:space="preserve" text-anchor="middle" x="257.25" y="-366.85" font-family="Helvetica,sans-Serif" font-size="12.00">APP_GetMotorTemp</text>
</a>
</g>
</g>
<!-- Node1&#45;&gt;Node3 -->
<g id="edge2_Node000001_Node000003" class="edge">
<title>Node1&#45;&gt;Node3</title>
<g id="a_edge2_Node000001_Node000003"><a xlink:title=" ">
<path fill="none" stroke="#63b8ff" d="M76.49,-222.65C89.38,-249.63 125.32,-317.16 176.5,-351.12 178.89,-352.71 181.4,-354.18 184,-355.52"/>
<polygon fill="#63b8ff" stroke="#63b8ff" points="182.41,-358.64 192.96,-359.54 185.27,-352.26 182.41,-358.64"/>
</a>
</g>
</g>
<!-- Node4 -->
<g id="Node000004" class="node">
<title>Node4</title>
<g id="a_Node000004"><a xlink:href="bsp__adc_8c.html#a895967199f8a689e1fe2c6919082ab7d" target="_top" xlink:title="读取电流通道零流偏置（监控/诊断显示用）">
<polygon fill="white" stroke="#666666" points="325.25,-342.25 189.25,-342.25 189.25,-320 325.25,-320 325.25,-342.25"/>
<text xml:space="preserve" text-anchor="middle" x="257.25" y="-326.85" font-family="Helvetica,sans-Serif" font-size="12.00">BSP_ADC_GetOffsets</text>
</a>
</g>
</g>
<!-- Node1&#45;&gt;Node4 -->
<g id="edge3_Node000001_Node000004" class="edge">
<title>Node1&#45;&gt;Node4</title>
<g id="a_edge3_Node000001_Node000004"><a xlink:title=" ">
<path fill="none" stroke="#63b8ff" d="M80,-222.71C96.49,-243.68 134.32,-287.93 176.5,-311.12 179.31,-312.67 182.25,-314.1 185.26,-315.42"/>
<polygon fill="#63b8ff" stroke="#63b8ff" points="183.75,-318.59 194.34,-318.96 186.29,-312.07 183.75,-318.59"/>
</a>
</g>
</g>
<!-- Node5 -->
<g id="Node000005" class="node">
<title>Node5</title>
<g id="a_Node000005"><a xlink:href="bsp__can_8c.html#a20451e4448986f136eda4f8d15dcb8ce" target="_top" xlink:title="读取错误事件累计计数（诊断用）">
<polygon fill="white" stroke="#666666" points="330.88,-302.25 183.62,-302.25 183.62,-280 330.88,-280 330.88,-302.25"/>
<text xml:space="preserve" text-anchor="middle" x="257.25" y="-286.85" font-family="Helvetica,sans-Serif" font-size="12.00">BSP_CAN_GetErrCount</text>
</a>
</g>
</g>
<!-- Node1&#45;&gt;Node5 -->
<g id="edge4_Node000001_Node000005" class="edge">
<title>Node1&#45;&gt;Node5</title>
<g id="a_edge4_Node000001_Node000005"><a xlink:title=" ">
<path fill="none" stroke="#63b8ff" d="M88.03,-222.61C108.21,-235.97 143.52,-257.88 176.5,-271.12 181.09,-272.97 185.91,-274.68 190.8,-276.26"/>
<polygon fill="#63b8ff" stroke="#63b8ff" points="189.53,-279.54 200.12,-279.08 191.56,-272.84 189.53,-279.54"/>
</a>
</g>
</g>
<!-- Node6 -->
<g id="Node000006" class="node">
<title>Node6</title>
<g id="a_Node000006"><a xlink:href="bsp__can_8c.html#a6819ca87c7343edcfb4e23bd0447e044" target="_top" xlink:title="读取接收帧累计计数（诊断用）">
<polygon fill="white" stroke="#666666" points="330.5,-262.25 184,-262.25 184,-240 330.5,-240 330.5,-262.25"/>
<text xml:space="preserve" text-anchor="middle" x="257.25" y="-246.85" font-family="Helvetica,sans-Serif" font-size="12.00">BSP_CAN_GetRxCount</text>
</a>
</g>
</g>
<!-- Node1&#45;&gt;Node6 -->
<g id="edge5_Node000001_Node000006" class="edge">
<title>Node1&#45;&gt;Node6</title>
<g id="a_edge5_Node000001_Node000006"><a xlink:title=" ">
<path fill="none" stroke="#63b8ff" d="M124.76,-222.69C145.57,-227.19 169.6,-232.39 191.38,-237.1"/>
<polygon fill="#63b8ff" stroke="#63b8ff" points="190.55,-240.5 201.06,-239.19 192.03,-233.66 190.55,-240.5"/>
</a>
</g>
</g>
<!-- Node7 -->
<g id="Node000007" class="node">
<title>Node7</title>
<g id="a_Node000007"><a xlink:href="bsp__can_8c.html#a6c34b905b8f12697f808c4c3534f6d17" target="_top" xlink:title="查询终端电阻状态">
<polygon fill="white" stroke="#666666" points="338,-222.25 176.5,-222.25 176.5,-200 338,-200 338,-222.25"/>
<text xml:space="preserve" text-anchor="middle" x="257.25" y="-206.85" font-family="Helvetica,sans-Serif" font-size="12.00">BSP_CAN_GetTermination</text>
</a>
</g>
</g>
<!-- Node1&#45;&gt;Node7 -->
<g id="edge6_Node000001_Node000007" class="edge">
<title>Node1&#45;&gt;Node7</title>
<g id="a_edge6_Node000001_Node000007"><a xlink:title=" ">
<path fill="none" stroke="#63b8ff" d="M140.93,-211.12C148.72,-211.12 156.75,-211.12 164.77,-211.12"/>
<polygon fill="#63b8ff" stroke="#63b8ff" points="164.56,-214.63 174.56,-211.13 164.56,-207.63 164.56,-214.63"/>
</a>
</g>
</g>
<!-- Node8 -->
<g id="Node000008" class="node">
<title>Node8</title>
<g id="a_Node000008"><a xlink:href="bsp__clock_8c.html#ab4d0216441ad073522f9bdf7202a53ff" target="_top" xlink:title="查询当前 PLL 源是否为 HSE">
<polygon fill="white" stroke="#666666" points="320.75,-182.25 193.75,-182.25 193.75,-160 320.75,-160 320.75,-182.25"/>
<text xml:space="preserve" text-anchor="middle" x="257.25" y="-166.85" font-family="Helvetica,sans-Serif" font-size="12.00">BSP_CLOCK_IsHse</text>
</a>
</g>
</g>
<!-- Node1&#45;&gt;Node8 -->
<g id="edge7_Node000001_Node000008" class="edge">
<title>Node1&#45;&gt;Node8</title>
<g id="a_edge7_Node000001_Node000008"><a xlink:title=" ">
<path fill="none" stroke="#63b8ff" d="M124.76,-199.56C145.57,-195.06 169.6,-189.86 191.38,-185.15"/>
<polygon fill="#63b8ff" stroke="#63b8ff" points="192.03,-188.59 201.06,-183.06 190.55,-181.75 192.03,-188.59"/>
</a>
</g>
</g>
<!-- Node9 -->
<g id="Node000009" class="node">
<title>Node9</title>
<g id="a_Node000009"><a xlink:href="bsp__uart_8c.html#ac8fe8954e03174bb365847f52531e218" target="_top" xlink:title="格式化打印到调试串口（非阻塞）">
<polygon fill="white" stroke="#666666" points="314.75,-142.25 199.75,-142.25 199.75,-120 314.75,-120 314.75,-142.25"/>
<text xml:space="preserve" text-anchor="middle" x="257.25" y="-126.85" font-family="Helvetica,sans-Serif" font-size="12.00">BSP_UART_Printf</text>
</a>
</g>
</g>
<!-- Node1&#45;&gt;Node9 -->
<g id="edge8_Node000001_Node000009" class="edge">
<title>Node1&#45;&gt;Node9</title>
<g id="a_edge8_Node000001_Node000009"><a xlink:title=" ">
<path fill="none" stroke="#63b8ff" d="M88.03,-199.64C108.21,-186.28 143.52,-164.37 176.5,-151.12 181.09,-149.28 185.91,-147.57 190.8,-145.99"/>
<polygon fill="#63b8ff" stroke="#63b8ff" points="191.56,-149.41 200.12,-143.17 189.53,-142.71 191.56,-149.41"/>
</a>
</g>
</g>
<!-- Node12 -->
<g id="Node000012" class="node">
<title>Node12</title>
<g id="a_Node000012"><a xlink:href="calibration_8c.html#a8bfa245d980e0f628236b3c3db2e315e" target="_top" xlink:title="获取当前校准阶段名称（monitor/shell 显示）">
<polygon fill="white" stroke="#666666" points="323.38,-102.25 191.12,-102.25 191.12,-80 323.38,-80 323.38,-102.25"/>
<text xml:space="preserve" text-anchor="middle" x="257.25" y="-86.85" font-family="Helvetica,sans-Serif" font-size="12.00">CAL_GetPhaseName</text>
</a>
</g>
</g>
<!-- Node1&#45;&gt;Node12 -->
<g id="edge11_Node000001_Node000012" class="edge">
<title>Node1&#45;&gt;Node12</title>
<g id="a_edge11_Node000001_Node000012"><a xlink:title=" ">
<path fill="none" stroke="#63b8ff" d="M80,-199.54C96.49,-178.57 134.32,-134.32 176.5,-111.12 179.31,-109.58 182.25,-108.15 185.26,-106.83"/>
<polygon fill="#63b8ff" stroke="#63b8ff" points="186.29,-110.18 194.34,-103.29 183.75,-103.66 186.29,-110.18"/>
</a>
</g>
</g>
<!-- Node13 -->
<g id="Node000013" class="node">
<title>Node13</title>
<g id="a_Node000013"><a xlink:href="calibration_8c.html#a5be71d98b2d7fc541402fac3accf8454" target="_top" xlink:title="校准进度估计（0~100）">
<polygon fill="white" stroke="#666666" points="314,-62.25 200.5,-62.25 200.5,-40 314,-40 314,-62.25"/>
<text xml:space="preserve" text-anchor="middle" x="257.25" y="-46.85" font-family="Helvetica,sans-Serif" font-size="12.00">CAL_GetProgress</text>
</a>
</g>
</g>
<!-- Node1&#45;&gt;Node13 -->
<g id="edge12_Node000001_Node000013" class="edge">
<title>Node1&#45;&gt;Node13</title>
<g id="a_edge12_Node000001_Node000013"><a xlink:title=" ">
<path fill="none" stroke="#63b8ff" d="M76.49,-199.6C89.38,-172.62 125.32,-105.09 176.5,-71.12 180.63,-68.39 185.1,-66.02 189.75,-63.98"/>
<polygon fill="#63b8ff" stroke="#63b8ff" points="190.63,-67.39 198.72,-60.56 188.13,-60.85 190.63,-67.39"/>
</a>
</g>
</g>
<!-- Node14 -->
<g id="Node000014" class="node">
<title>Node14</title>
<g id="a_Node000014"><a xlink:href="protection_8c.html#a87d1ad0c7e39a4c5c88dc7b62e964da7" target="_top" xlink:title="读取温度降额系数（乘到电流限幅上；0 表示已达过温故障）">
<polygon fill="white" stroke="#666666" points="317.75,-22.25 196.75,-22.25 196.75,0 317.75,0 317.75,-22.25"/>
<text xml:space="preserve" text-anchor="middle" x="257.25" y="-6.85" font-family="Helvetica,sans-Serif" font-size="12.00">PROT_GetDerating</text>
</a>
</g>
</g>
<!-- Node1&#45;&gt;Node14 -->
<g id="edge13_Node000001_Node000014" class="edge">
<title>Node1&#45;&gt;Node14</title>
<g id="a_edge13_Node000001_Node000014"><a xlink:title=" ">
<path fill="none" stroke="#63b8ff" d="M74.47,-199.74C84.13,-167.77 115.98,-76.53 176.5,-31.12 179.47,-28.9 182.66,-26.92 185.99,-25.15"/>
<polygon fill="#63b8ff" stroke="#63b8ff" points="187.28,-28.41 194.96,-21.12 184.41,-22.03 187.28,-28.41"/>
</a>
</g>
</g>
<!-- Node10 -->
<g id="Node000010" class="node">
<title>Node10</title>
<g id="a_Node000010"><a xlink:href="bsp__uart_8c.html#a67e2eb7d361398076d0800612430f13c" target="_top" xlink:title="向 TX 环形缓冲写入数据（非阻塞）">
<polygon fill="white" stroke="#666666" points="489,-142.25 374,-142.25 374,-120 489,-120 489,-142.25"/>
<text xml:space="preserve" text-anchor="middle" x="431.5" y="-126.85" font-family="Helvetica,sans-Serif" font-size="12.00">BSP_UART_Write</text>
</a>
</g>
</g>
<!-- Node9&#45;&gt;Node10 -->
<g id="edge9_Node000009_Node000010" class="edge">
<title>Node9&#45;&gt;Node10</title>
<g id="a_edge9_Node000009_Node000010"><a xlink:title=" ">
<path fill="none" stroke="#63b8ff" d="M315.13,-131.12C330.27,-131.12 346.78,-131.12 362.45,-131.12"/>
<polygon fill="#63b8ff" stroke="#63b8ff" points="362.17,-134.63 372.17,-131.13 362.17,-127.63 362.17,-134.63"/>
</a>
</g>
</g>
<!-- Node11 -->
<g id="Node000011" class="node">
<title>Node11</title>
<g id="a_Node000011"><a xlink:href="bsp__uart_8c.html#ad4dee4b2dd593f1d4c141de95156546d" target="_top" xlink:title="若 DMA 空闲且缓冲有数据，则启动下一段 DMA 传输">
<polygon fill="white" stroke="#666666" points="661,-142.25 525,-142.25 525,-120 661,-120 661,-142.25"/>
<text xml:space="preserve" text-anchor="middle" x="593" y="-126.85" font-family="Helvetica,sans-Serif" font-size="12.00">BSP_UART_KickDma</text>
</a>
</g>
</g>
<!-- Node10&#45;&gt;Node11 -->
<g id="edge10_Node000010_Node000011" class="edge">
<title>Node10&#45;&gt;Node11</title>
<g id="a_edge10_Node000010_Node000011"><a xlink:title=" ">
<path fill="none" stroke="#63b8ff" d="M489.18,-131.12C496.97,-131.12 505.08,-131.12 513.18,-131.12"/>
<polygon fill="#63b8ff" stroke="#63b8ff" points="513.08,-134.63 523.08,-131.13 513.08,-127.63 513.08,-134.63"/>
</a>
</g>
</g>
</g>
</svg>

<g id="navigator" transform="translate(0 0)" fill="#404254">
  <rect fill="#f2f5e9" fill-opacity="0.5" stroke="#606060" stroke-width=".5" x="0" y="0" width="60" height="60"/>
  <use id="zoomplus" xlink:href="#zoomPlus" x="17" y="9" onmousedown="handleZoom(evt,'in')"/>
  <use id="zoomminus" xlink:href="#zoomMin" x="42" y="9" onmousedown="handleZoom(evt,'out')"/>
  <use id="reset" xlink:href="#resetDef" x="30" y="36" onmousedown="handleReset()"/>
   <use id="arrowup" xlink:href="#arrowUp" x="0" y="0" onmousedown="handlePan(0,-1)"/>
  <use id="arrowright" xlink:href="#arrowRight" x="0" y="0" onmousedown="handlePan(1,0)"/>
  <use id="arrowdown" xlink:href="#arrowDown" x="0" y="0" onmousedown="handlePan(0,1)"/>
  <use id="arrowleft" xlink:href="#arrowLeft" x="0" y="0" onmousedown="handlePan(-1,0)"/>
</g>
<svg viewBox="0 0 15 15" width="100%" height="30px" preserveAspectRatio="xMaxYMin meet">
 <g id="arrow_out" transform="scale(0.3 0.3)">
  <a xlink:href="app__monitor_8c_a9bb383e6ceed1252d51dd3ebbc075668_cgraph_org.svg" target="_base">
   <rect id="button" ry="5" rx="5" y="6" x="6" height="38" width="38"
        fill="#f2f5e9" fill-opacity="0.5" stroke="#606060" stroke-width="1.0"/>
   <path id="arrow"
     d="M 11.500037,31.436501 C 11.940474,20.09759 22.043105,11.32322 32.158766,21.979434 L 37.068811,17.246167 C 37.068811,17.246167 37.088388,32 37.088388,32 L 22.160133,31.978069 C 22.160133,31.978069 26.997745,27.140456 26.997745,27.140456 C 18.528582,18.264221 13.291696,25.230495 11.500037,31.436501 z"
     style="fill:#404040;"/>
  </a>
 </g>
</svg>

<style type='text/css'>
<![CDATA[
[data-mouse-over-selected='false'] { opacity: 0.7; }
[data-mouse-over-selected='true']  { opacity: 1.0; }
]]>
</style>
<script type="application/ecmascript"><![CDATA[
document.addEventListener('DOMContentLoaded', (event) => {
  highlightEdges();
  highlightAdjacentNodes();
});
]]></script>
</svg>
