<?xml version="1.0" encoding="UTF-8" standalone="no"?>
<!DOCTYPE svg PUBLIC "-//W3C//DTD SVG 1.1//EN"
 "http://www.w3.org/Graphics/SVG/1.1/DTD/svg11.dtd">
<!-- Generated by graphviz version 15.1.0 (20260618.0150)
 -->
<!-- Title: APP_MON_PrintBanner Pages: 1 -->
<!--zoomable 70 -->

<svg id="main" version="1.1" xmlns="http://www.w3.org/2000/svg" xmlns:xlink="http://www.w3.org/1999/xlink" xml:space="preserve" onload="init(evt)">

<style type="text/css"><![CDATA[
.node, .edge {opacity: 0.7;}
.node.selected, .edge.selected {opacity: 1;}
.edge:hover path { stroke: red; }
.edge:hover polygon { stroke: red; fill: red; }
]]></style>

<defs>
  <circle id="rim" cx="0" cy="0" r="7"/>
  <circle id="rim2" cx="0" cy="0" r="3.5"/>
  <g id="zoomPlus">
    <use xlink:href="#rim" fill="#404040"><set attributeName="fill" to="#808080" begin="zoomplus.mouseover" end="zoomplus.mouseout"/></use>
    <path d="M-4,0h8M0,-4v8" fill="none" stroke="white" stroke-width="1.5" pointer-events="none"/>
  </g>
  <g id="zoomMin">
    <use xlink:href="#rim" fill="#404040"><set attributeName="fill" to="#808080" begin="zoomminus.mouseover" end="zoomminus.mouseout"/></use>
    <path d="M-4,0h8" fill="none" stroke="white" stroke-width="1.5" pointer-events="none"/>
  </g>
  <g id="arrowUp" transform="translate(30 24)">
    <use xlink:href="#rim"/>
    <path pointer-events="none" fill="none" stroke="white" stroke-width="1.5" d="M0,-3.0v7 M-2.5,-0.5L0,-3.0L2.5,-0.5"/>
  </g>
  <g id="arrowRight" transform="rotate(90) translate(36 -43)">
    <use xlink:href="#rim"/>
    <path pointer-events="none" fill="none" stroke="white" stroke-width="1.5" d="M0,-3.0v7 M-2.5,-0.5L0,-3.0L2.5,-0.5"/>
  </g>
  <g id="arrowDown" transform="rotate(180) translate(-30 -48)">
    <use xlink:href="#rim"/>
    <path pointer-events="none" fill="none" stroke="white" stroke-width="1.5" d="M0,-3.0v7 M-2.5,-0.5L0,-3.0L2.5,-0.5"/>
  </g>
  <g id="arrowLeft" transform="rotate(270) translate(-36 17)">
    <use xlink:href="#rim"/>
    <path pointer-events="none" fill="none" stroke="white" stroke-width="1.5" d="M0,-3.0v7 M-2.5,-0.5L0,-3.0L2.5,-0.5"/>
  </g>
  <g id="resetDef">
    <use xlink:href="#rim2" fill="#404040"><set attributeName="fill" to="#808080" begin="reset.mouseover" end="reset.mouseout"/></use>
  </g>
</defs>
<script type="application/ecmascript">
var viewWidth = 640;
var viewHeight = 70;
var sectionId = 'dynsection-5';
</script>
<script type="application/ecmascript" xlink:href="svg.min.js"/>
<svg id="graph" class="graph">
<g id="viewport">
<title>APP_MON_PrintBanner</title>
<!-- Node1 -->
<g id="Node000001" class="node">
<title>Node1</title>
<g id="a_Node000001"><a xlink:title="打印上电横幅">
<polygon fill="#999999" stroke="#666666" points="145.75,-42.25 0,-42.25 0,-20 145.75,-20 145.75,-42.25"/>
<text xml:space="preserve" text-anchor="middle" x="72.88" y="-26.85" font-family="Helvetica,sans-Serif" font-size="12.00">APP_MON_PrintBanner</text>
</a>
</g>
</g>
<!-- Node2 -->
<g id="Node000002" class="node">
<title>Node2</title>
<g id="a_Node000002"><a xlink:href="bsp__clock_8c.html#ab4d0216441ad073522f9bdf7202a53ff" target="_top" xlink:title="查询当前 PLL 源是否为 HSE">
<polygon fill="white" stroke="#666666" points="308.75,-62.25 181.75,-62.25 181.75,-40 308.75,-40 308.75,-62.25"/>
<text xml:space="preserve" text-anchor="middle" x="245.25" y="-46.85" font-family="Helvetica,sans-Serif" font-size="12.00">BSP_CLOCK_IsHse</text>
</a>
</g>
</g>
<!-- Node1&#45;&gt;Node2 -->
<g id="edge1_Node000001_Node000002" class="edge">
<title>Node1&#45;&gt;Node2</title>
<g id="a_edge1_Node000001_Node000002"><a xlink:title=" ">
<path fill="none" stroke="#63b8ff" d="M146.13,-39.61C153.99,-40.53 162,-41.47 169.89,-42.4"/>
<polygon fill="#63b8ff" stroke="#63b8ff" points="169.47,-45.87 179.81,-43.56 170.29,-38.92 169.47,-45.87"/>
</a>
</g>
</g>
<!-- Node3 -->
<g id="Node000003" class="node">
<title>Node3</title>
<g id="a_Node000003"><a xlink:href="bsp__uart_8c.html#ac8fe8954e03174bb365847f52531e218" target="_top" xlink:title="格式化打印到调试串口（非阻塞）">
<polygon fill="white" stroke="#666666" points="302.75,-22.25 187.75,-22.25 187.75,0 302.75,0 302.75,-22.25"/>
<text xml:space="preserve" text-anchor="middle" x="245.25" y="-6.85" font-family="Helvetica,sans-Serif" font-size="12.00">BSP_UART_Printf</text>
</a>
</g>
</g>
<!-- Node1&#45;&gt;Node3 -->
<g id="edge2_Node000001_Node000003" class="edge">
<title>Node1&#45;&gt;Node3</title>
<g id="a_edge2_Node000001_Node000003"><a xlink:title=" ">
<path fill="none" stroke="#63b8ff" d="M146.13,-22.64C156.04,-21.48 166.19,-20.29 176.02,-19.13"/>
<polygon fill="#63b8ff" stroke="#63b8ff" points="176.36,-22.62 185.88,-17.98 175.54,-15.67 176.36,-22.62"/>
</a>
</g>
</g>
<!-- Node4 -->
<g id="Node000004" class="node">
<title>Node4</title>
<g id="a_Node000004"><a xlink:href="bsp__uart_8c.html#a67e2eb7d361398076d0800612430f13c" target="_top" xlink:title="向 TX 环形缓冲写入数据（非阻塞）">
<polygon fill="white" stroke="#666666" points="459.75,-22.25 344.75,-22.25 344.75,0 459.75,0 459.75,-22.25"/>
<text xml:space="preserve" text-anchor="middle" x="402.25" y="-6.85" font-family="Helvetica,sans-Serif" font-size="12.00">BSP_UART_Write</text>
</a>
</g>
</g>
<!-- Node3&#45;&gt;Node4 -->
<g id="edge3_Node000003_Node000004" class="edge">
<title>Node3&#45;&gt;Node4</title>
<g id="a_edge3_Node000003_Node000004"><a xlink:title=" ">
<path fill="none" stroke="#63b8ff" d="M303.09,-11.12C312.88,-11.12 323.15,-11.12 333.2,-11.12"/>
<polygon fill="#63b8ff" stroke="#63b8ff" points="332.91,-14.63 342.91,-11.13 332.91,-7.63 332.91,-14.63"/>
</a>
</g>
</g>
<!-- Node5 -->
<g id="Node000005" class="node">
<title>Node5</title>
<g id="a_Node000005"><a xlink:href="bsp__uart_8c.html#ad4dee4b2dd593f1d4c141de95156546d" target="_top" xlink:title="若 DMA 空闲且缓冲有数据，则启动下一段 DMA 传输">
<polygon fill="white" stroke="#666666" points="631.75,-22.25 495.75,-22.25 495.75,0 631.75,0 631.75,-22.25"/>
<text xml:space="preserve" text-anchor="middle" x="563.75" y="-6.85" font-family="Helvetica,sans-Serif" font-size="12.00">BSP_UART_KickDma</text>
</a>
</g>
</g>
<!-- Node4&#45;&gt;Node5 -->
<g id="edge4_Node000004_Node000005" class="edge">
<title>Node4&#45;&gt;Node5</title>
<g id="a_edge4_Node000004_Node000005"><a xlink:title=" ">
<path fill="none" stroke="#63b8ff" d="M459.93,-11.12C467.72,-11.12 475.83,-11.12 483.93,-11.12"/>
<polygon fill="#63b8ff" stroke="#63b8ff" points="483.83,-14.63 493.83,-11.13 483.83,-7.63 483.83,-14.63"/>
</a>
</g>
</g>
</g>
</svg>

<g id="navigator" transform="translate(0 0)" fill="#404254">
  <rect fill="#f2f5e9" fill-opacity="0.5" stroke="#606060" stroke-width=".5" x="0" y="0" width="60" height="60"/>
  <use id="zoomplus" xlink:href="#zoomPlus" x="17" y="9" onmousedown="handleZoom(evt,'in')"/>
  <use id="zoomminus" xlink:href="#zoomMin" x="42" y="9" onmousedown="handleZoom(evt,'out')"/>
  <use id="reset" xlink:href="#resetDef" x="30" y="36" onmousedown="handleReset()"/>
   <use id="arrowup" xlink:href="#arrowUp" x="0" y="0" onmousedown="handlePan(0,-1)"/>
  <use id="arrowright" xlink:href="#arrowRight" x="0" y="0" onmousedown="handlePan(1,0)"/>
  <use id="arrowdown" xlink:href="#arrowDown" x="0" y="0" onmousedown="handlePan(0,1)"/>
  <use id="arrowleft" xlink:href="#arrowLeft" x="0" y="0" onmousedown="handlePan(-1,0)"/>
</g>
<svg viewBox="0 0 15 15" width="100%" height="30px" preserveAspectRatio="xMaxYMin meet">
 <g id="arrow_out" transform="scale(0.3 0.3)">
  <a xlink:href="app__monitor_8h_a69348472c5378c7ae2787d865d1b626e_cgraph_org.svg" target="_base">
   <rect id="button" ry="5" rx="5" y="6" x="6" height="38" width="38"
        fill="#f2f5e9" fill-opacity="0.5" stroke="#606060" stroke-width="1.0"/>
   <path id="arrow"
     d="M 11.500037,31.436501 C 11.940474,20.09759 22.043105,11.32322 32.158766,21.979434 L 37.068811,17.246167 C 37.068811,17.246167 37.088388,32 37.088388,32 L 22.160133,31.978069 C 22.160133,31.978069 26.997745,27.140456 26.997745,27.140456 C 18.528582,18.264221 13.291696,25.230495 11.500037,31.436501 z"
     style="fill:#404040;"/>
  </a>
 </g>
</svg>

<style type='text/css'>
<![CDATA[
[data-mouse-over-selected='false'] { opacity: 0.7; }
[data-mouse-over-selected='true']  { opacity: 1.0; }
]]>
</style>
<script type="application/ecmascript"><![CDATA[
document.addEventListener('DOMContentLoaded', (event) => {
  highlightEdges();
  highlightAdjacentNodes();
});
]]></script>
</svg>
