<?xml version="1.0" encoding="UTF-8" standalone="no"?>
<!DOCTYPE svg PUBLIC "-//W3C//DTD SVG 1.1//EN"
 "http://www.w3.org/Graphics/SVG/1.1/DTD/svg11.dtd">
<!-- Generated by graphviz version 15.1.0 (20260618.0150)
 -->
<!-- Title: MIT_FloatToUint Pages: 1 -->
<svg width="1131pt" height="70pt"
 viewBox="0.00 0.00 1131.00 70.00" xmlns="http://www.w3.org/2000/svg" xmlns:xlink="http://www.w3.org/1999/xlink">
<g id="graph0" class="graph" transform="scale(1 1) rotate(0) translate(4 66.25)">
<title>MIT_FloatToUint</title>
<!-- Node1 -->
<g id="Node000001" class="node">
<title>Node1</title>
<g id="a_Node000001"><a xlink:title="mini&#45;cheetah 打包：float &#45;&gt; 无符号整数">
<polygon fill="#999999" stroke="#666666" points="1122.5,-41.25 1018,-41.25 1018,-19 1122.5,-19 1122.5,-41.25"/>
<text xml:space="preserve" text-anchor="middle" x="1070.25" y="-25.85" font-family="Helvetica,sans-Serif" font-size="12.00">MIT_FloatToUint</text>
</a>
</g>
</g>
<!-- Node2 -->
<g id="Node000002" class="node">
<title>Node2</title>
<g id="a_Node000002"><a xlink:href="app__can__protocol_8c.html#a3f462aec782e36efd750a47844167fae" target="_top" xlink:title="发送 MIT 反馈帧（B0=ID，P16 V12 T12，发往主机 ID）">
<polygon fill="white" stroke="#666666" points="982,-41.25 804,-41.25 804,-19 982,-19 982,-41.25"/>
<text xml:space="preserve" text-anchor="middle" x="893" y="-25.85" font-family="Helvetica,sans-Serif" font-size="12.00">APP_CAN_SendMitFeedback</text>
</a>
</g>
</g>
<!-- Node1&#45;&gt;Node2 -->
<g id="edge1_Node000001_Node000002" class="edge">
<title>Node1&#45;&gt;Node2</title>
<g id="a_edge1_Node000001_Node000002"><a xlink:title=" ">
<path fill="none" stroke="#63b8ff" d="M1006.14,-30.12C998.42,-30.12 990.42,-30.12 982.41,-30.12"/>
<polygon fill="#63b8ff" stroke="#63b8ff" points="1006.1,-33.63 1016.1,-30.13 1006.1,-26.63 1006.1,-33.63"/>
</a>
</g>
</g>
<!-- Node3 -->
<g id="Node000003" class="node">
<title>Node3</title>
<g id="a_Node000003"><a xlink:href="app__can__protocol_8c.html#a287ab0ebbb13b297320ec4082c51365b" target="_top" xlink:title="MIT 运控通道处理">
<polygon fill="white" stroke="#666666" points="768,-41.25 632.75,-41.25 632.75,-19 768,-19 768,-41.25"/>
<text xml:space="preserve" text-anchor="middle" x="700.38" y="-25.85" font-family="Helvetica,sans-Serif" font-size="12.00">APP_CAN_HandleMit</text>
</a>
</g>
</g>
<!-- Node2&#45;&gt;Node3 -->
<g id="edge2_Node000002_Node000003" class="edge">
<title>Node2&#45;&gt;Node3</title>
<g id="a_edge2_Node000002_Node000003"><a xlink:title=" ">
<path fill="none" stroke="#63b8ff" d="M792.23,-30.12C784.14,-30.12 776.09,-30.12 768.33,-30.12"/>
<polygon fill="#63b8ff" stroke="#63b8ff" points="792.15,-33.63 802.15,-30.13 792.15,-26.63 792.15,-33.63"/>
</a>
</g>
</g>
<!-- Node4 -->
<g id="Node000004" class="node">
<title>Node4</title>
<g id="a_Node000004"><a xlink:href="app__can__protocol_8c.html#a0c342291cd7188f387f12f9b2157c4e9" target="_top" xlink:title="CAN 接收分发（ISR 上下文）">
<polygon fill="white" stroke="#666666" points="596.75,-41.25 458.5,-41.25 458.5,-19 596.75,-19 596.75,-41.25"/>
<text xml:space="preserve" text-anchor="middle" x="527.62" y="-25.85" font-family="Helvetica,sans-Serif" font-size="12.00">APP_CAN_RxHandler</text>
</a>
</g>
</g>
<!-- Node3&#45;&gt;Node4 -->
<g id="edge3_Node000003_Node000004" class="edge">
<title>Node3&#45;&gt;Node4</title>
<g id="a_edge3_Node000003_Node000004"><a xlink:title=" ">
<path fill="none" stroke="#63b8ff" d="M621.13,-30.12C613.11,-30.12 605.01,-30.12 597.11,-30.12"/>
<polygon fill="#63b8ff" stroke="#63b8ff" points="620.87,-33.63 630.87,-30.13 620.87,-26.63 620.87,-33.63"/>
</a>
</g>
</g>
<!-- Node5 -->
<g id="Node000005" class="node">
<title>Node5</title>
<g id="a_Node000005"><a xlink:href="app__can__protocol_8c.html#af389bd7cff6ae0b5df76c2feb46f25f6" target="_top" xlink:title="初始化 CAN 应用协议（按持久化参数配置 BSP）">
<polygon fill="white" stroke="#666666" points="422.5,-41.25 326.25,-41.25 326.25,-19 422.5,-19 422.5,-41.25"/>
<text xml:space="preserve" text-anchor="middle" x="374.38" y="-25.85" font-family="Helvetica,sans-Serif" font-size="12.00">APP_CAN_Init</text>
</a>
</g>
</g>
<!-- Node4&#45;&gt;Node5 -->
<g id="edge4_Node000004_Node000005" class="edge">
<title>Node4&#45;&gt;Node5</title>
<g id="a_edge4_Node000004_Node000005"><a xlink:title=" ">
<path fill="none" stroke="#63b8ff" d="M446.63,-30.12C438.54,-30.12 430.51,-30.12 422.92,-30.12"/>
<polygon fill="#63b8ff" stroke="#63b8ff" points="446.57,-33.63 456.57,-30.13 446.57,-26.63 446.57,-33.63"/>
</a>
</g>
</g>
<!-- Node6 -->
<g id="Node000006" class="node">
<title>Node6</title>
<g id="a_Node000006"><a xlink:href="app__can__protocol_8c.html#a6c2f3bebbd2597376fd87038ef059996" target="_top" xlink:title="后台轮询：处理通信参数变更后的重新初始化">
<polygon fill="white" stroke="#666666" points="290.25,-61.25 188.75,-61.25 188.75,-39 290.25,-39 290.25,-61.25"/>
<text xml:space="preserve" text-anchor="middle" x="239.5" y="-45.85" font-family="Helvetica,sans-Serif" font-size="12.00">APP_CAN_Poll</text>
</a>
</g>
</g>
<!-- Node5&#45;&gt;Node6 -->
<g id="edge5_Node000005_Node000006" class="edge">
<title>Node5&#45;&gt;Node6</title>
<g id="a_edge5_Node000005_Node000006"><a xlink:title=" ">
<path fill="none" stroke="#63b8ff" d="M314.56,-38.98C306.51,-40.19 298.32,-41.42 290.45,-42.61"/>
<polygon fill="#63b8ff" stroke="#63b8ff" points="314.92,-42.46 324.28,-37.51 313.87,-35.54 314.92,-42.46"/>
</a>
</g>
</g>
<!-- Node9 -->
<g id="Node000009" class="node">
<title>Node9</title>
<g id="a_Node000009"><a xlink:href="app__main_8c.html#a4759d3fdff6b33e2c0a0ae151452112f" target="_top" xlink:title="应用初始化（main 的 USER CODE BEGIN 2 调用）">
<polygon fill="white" stroke="#666666" points="147.12,-22.25 83.88,-22.25 83.88,0 147.12,0 147.12,-22.25"/>
<text xml:space="preserve" text-anchor="middle" x="115.5" y="-6.85" font-family="Helvetica,sans-Serif" font-size="12.00">APP_Init</text>
</a>
</g>
</g>
<!-- Node5&#45;&gt;Node9 -->
<g id="edge8_Node000005_Node000009" class="edge">
<title>Node5&#45;&gt;Node9</title>
<g id="a_edge8_Node000005_Node000009"><a xlink:title=" ">
<path fill="none" stroke="#63b8ff" d="M314.56,-25.77C262.57,-21.93 188.76,-16.47 147.49,-13.42"/>
<polygon fill="#63b8ff" stroke="#63b8ff" points="314.22,-29.26 324.45,-26.51 314.74,-22.28 314.22,-29.26"/>
</a>
</g>
</g>
<!-- Node7 -->
<g id="Node000007" class="node">
<title>Node7</title>
<g id="a_Node000007"><a xlink:href="app__main_8c.html#a6709d26bb67f905916b7c7f048b8396c" target="_top" xlink:title="后台超级循环体（main 的 while(1) 内调用）">
<polygon fill="white" stroke="#666666" points="152.75,-62.25 78.25,-62.25 78.25,-40 152.75,-40 152.75,-62.25"/>
<text xml:space="preserve" text-anchor="middle" x="115.5" y="-46.85" font-family="Helvetica,sans-Serif" font-size="12.00">APP_Loop</text>
</a>
</g>
</g>
<!-- Node6&#45;&gt;Node7 -->
<g id="edge6_Node000006_Node000007" class="edge">
<title>Node6&#45;&gt;Node7</title>
<g id="a_edge6_Node000006_Node000007"><a xlink:title=" ">
<path fill="none" stroke="#63b8ff" d="M177.03,-50.63C168.86,-50.7 160.7,-50.76 153.14,-50.82"/>
<polygon fill="#63b8ff" stroke="#63b8ff" points="177.04,-54.13 187.01,-50.55 176.98,-47.13 177.04,-54.13"/>
</a>
</g>
</g>
<!-- Node8 -->
<g id="Node000008" class="node">
<title>Node8</title>
<g id="a_Node000008"><a xlink:href="main_8c.html#a840291bc02cba5474a4cb46a9b9566fe" target="_top" xlink:title="The application entry point.">
<polygon fill="white" stroke="#666666" points="42.25,-42.25 0,-42.25 0,-20 42.25,-20 42.25,-42.25"/>
<text xml:space="preserve" text-anchor="middle" x="21.12" y="-26.85" font-family="Helvetica,sans-Serif" font-size="12.00">main</text>
</a>
</g>
</g>
<!-- Node7&#45;&gt;Node8 -->
<g id="edge7_Node000007_Node000008" class="edge">
<title>Node7&#45;&gt;Node8</title>
<g id="a_edge7_Node000007_Node000008"><a xlink:title=" ">
<path fill="none" stroke="#63b8ff" d="M66.86,-40.81C58.35,-38.97 49.91,-37.14 42.69,-35.58"/>
<polygon fill="#63b8ff" stroke="#63b8ff" points="66,-44.2 76.51,-42.9 67.48,-37.36 66,-44.2"/>
</a>
</g>
</g>
<!-- Node9&#45;&gt;Node8 -->
<g id="edge9_Node000009_Node000008" class="edge">
<title>Node9&#45;&gt;Node8</title>
<g id="a_edge9_Node000009_Node000008"><a xlink:title=" ">
<path fill="none" stroke="#63b8ff" d="M72.48,-20.22C62.15,-22.46 51.54,-24.76 42.74,-26.66"/>
<polygon fill="#63b8ff" stroke="#63b8ff" points="72.97,-23.7 82,-18.16 71.49,-16.86 72.97,-23.7"/>
</a>
</g>
</g>
</g>
</svg>
