<?xml version="1.0" encoding="UTF-8" standalone="no"?>
<!DOCTYPE svg PUBLIC "-//W3C//DTD SVG 1.1//EN"
 "http://www.w3.org/Graphics/SVG/1.1/DTD/svg11.dtd">
<!-- Generated by graphviz version 15.1.0 (20260618.0150)
 -->
<!-- Title: APP_MON_PrintBanner Pages: 1 -->
<!--zoomable 70 -->

<svg id="main" version="1.1" xmlns="http://www.w3.org/2000/svg" xmlns:xlink="http://www.w3.org/1999/xlink" xml:space="preserve" onload="init(evt)">

<style type="text/css"><![CDATA[
.node, .edge {opacity: 0.7;}
.node.selected, .edge.selected {opacity: 1;}
.edge:hover path { stroke: red; }
.edge:hover polygon { stroke: red; fill: red; }
]]></style>

<defs>
  <circle id="rim" cx="0" cy="0" r="7"/>
  <circle id="rim2" cx="0" cy="0" r="3.5"/>
  <g id="zoomPlus">
    <use xlink:href="#rim" fill="#404040"><set attributeName="fill" to="#808080" begin="zoomplus.mouseover" end="zoomplus.mouseout"/></use>
    <path d="M-4,0h8M0,-4v8" fill="none" stroke="white" stroke-width="1.5" pointer-events="none"/>
  </g>
  <g id="zoomMin">
    <use xlink:href="#rim" fill="#404040"><set attributeName="fill" to="#808080" begin="zoomminus.mouseover" end="zoomminus.mouseout"/></use>
    <path d="M-4,0h8" fill="none" stroke="white" stroke-width="1.5" pointer-events="none"/>
  </g>
  <g id="arrowUp" transform="translate(30 24)">
    <use xlink:href="#rim"/>
    <path pointer-events="none" fill="none" stroke="white" stroke-width="1.5" d="M0,-3.0v7 M-2.5,-0.5L0,-3.0L2.5,-0.5"/>
  </g>
  <g id="arrowRight" transform="rotate(90) translate(36 -43)">
    <use xlink:href="#rim"/>
    <path pointer-events="none" fill="none" stroke="white" stroke-width="1.5" d="M0,-3.0v7 M-2.5,-0.5L0,-3.0L2.5,-0.5"/>
  </g>
  <g id="arrowDown" transform="rotate(180) translate(-30 -48)">
    <use xlink:href="#rim"/>
    <path pointer-events="none" fill="none" stroke="white" stroke-width="1.5" d="M0,-3.0v7 M-2.5,-0.5L0,-3.0L2.5,-0.5"/>
  </g>
  <g id="arrowLeft" transform="rotate(270) translate(-36 17)">
    <use xlink:href="#rim"/>
    <path pointer-events="none" fill="none" stroke="white" stroke-width="1.5" d="M0,-3.0v7 M-2.5,-0.5L0,-3.0L2.5,-0.5"/>
  </g>
  <g id="resetDef">
    <use xlink:href="#rim2" fill="#404040"><set attributeName="fill" to="#808080" begin="reset.mouseover" end="reset.mouseout"/></use>
  </g>
</defs>
<script type="application/ecmascript">
var viewWidth = 666;
var viewHeight = 70;
var sectionId = 'dynsection-6';
</script>
<script type="application/ecmascript" xlink:href="svg.min.js"/>
<svg id="graph" class="graph">
<g id="viewport">
<title>APP_MON_PrintBanner</title>
<!-- Node1 -->
<g id="Node000001" class="node">
<title>Node1</title>
<g id="a_Node000001"><a xlink:title="打印上电横幅">
<polygon fill="#999999" stroke="#666666" points="657.5,-41.25 511.75,-41.25 511.75,-19 657.5,-19 657.5,-41.25"/>
<text xml:space="preserve" text-anchor="middle" x="584.62" y="-25.85" font-family="Helvetica,sans-Serif" font-size="12.00">APP_MON_PrintBanner</text>
</a>
</g>
</g>
<!-- Node2 -->
<g id="Node000002" class="node">
<title>Node2</title>
<g id="a_Node000002"><a xlink:href="app__main_8c.html#a4759d3fdff6b33e2c0a0ae151452112f" target="_top" xlink:title="应用初始化（main 的 USER CODE BEGIN 2 调用）">
<polygon fill="white" stroke="#666666" points="277.5,-62.25 214.25,-62.25 214.25,-40 277.5,-40 277.5,-62.25"/>
<text xml:space="preserve" text-anchor="middle" x="245.88" y="-46.85" font-family="Helvetica,sans-Serif" font-size="12.00">APP_Init</text>
</a>
</g>
</g>
<!-- Node1&#45;&gt;Node2 -->
<g id="edge1_Node000001_Node000002" class="edge">
<title>Node1&#45;&gt;Node2</title>
<g id="a_edge1_Node000001_Node000002"><a xlink:title=" ">
<path fill="none" stroke="#63b8ff" d="M500.08,-35.34C428.07,-39.83 328.03,-46.06 277.99,-49.18"/>
<polygon fill="#63b8ff" stroke="#63b8ff" points="500.11,-38.84 509.87,-34.72 499.67,-31.85 500.11,-38.84"/>
</a>
</g>
</g>
<!-- Node4 -->
<g id="Node000004" class="node">
<title>Node4</title>
<g id="a_Node000004"><a xlink:href="app__shell_8c.html#ad6303a346f63752b165b847c5dcefbb7" target="_top" xlink:title="解析并执行一行命令">
<polygon fill="white" stroke="#666666" points="475.75,-22.25 339,-22.25 339,0 475.75,0 475.75,-22.25"/>
<text xml:space="preserve" text-anchor="middle" x="407.38" y="-6.85" font-family="Helvetica,sans-Serif" font-size="12.00">APP_SHELL_Execute</text>
</a>
</g>
</g>
<!-- Node1&#45;&gt;Node4 -->
<g id="edge3_Node000001_Node000004" class="edge">
<title>Node1&#45;&gt;Node4</title>
<g id="a_edge3_Node000001_Node000004"><a xlink:title=" ">
<path fill="none" stroke="#63b8ff" d="M500.01,-21.06C491.96,-20.19 483.87,-19.31 476,-18.46"/>
<polygon fill="#63b8ff" stroke="#63b8ff" points="499.51,-24.53 509.83,-22.12 500.26,-17.57 499.51,-24.53"/>
</a>
</g>
</g>
<!-- Node3 -->
<g id="Node000003" class="node">
<title>Node3</title>
<g id="a_Node000003"><a xlink:href="main_8c.html#a840291bc02cba5474a4cb46a9b9566fe" target="_top" xlink:title="The application entry point.">
<polygon fill="white" stroke="#666666" points="42.25,-41.25 0,-41.25 0,-19 42.25,-19 42.25,-41.25"/>
<text xml:space="preserve" text-anchor="middle" x="21.12" y="-25.85" font-family="Helvetica,sans-Serif" font-size="12.00">main</text>
</a>
</g>
</g>
<!-- Node2&#45;&gt;Node3 -->
<g id="edge2_Node000002_Node000003" class="edge">
<title>Node2&#45;&gt;Node3</title>
<g id="a_edge2_Node000002_Node000003"><a xlink:title=" ">
<path fill="none" stroke="#63b8ff" d="M202.68,-47.15C154.83,-42.64 78.76,-35.46 42.56,-32.05"/>
<polygon fill="#63b8ff" stroke="#63b8ff" points="202.11,-50.61 212.4,-48.06 202.77,-43.64 202.11,-50.61"/>
</a>
</g>
</g>
<!-- Node5 -->
<g id="Node000005" class="node">
<title>Node5</title>
<g id="a_Node000005"><a xlink:href="app__shell_8c.html#ab93a15148be82ad3c0999b099de7c29e" target="_top" xlink:title="shell 轮询（后台调用）">
<polygon fill="white" stroke="#666666" points="303,-22.25 188.75,-22.25 188.75,0 303,0 303,-22.25"/>
<text xml:space="preserve" text-anchor="middle" x="245.88" y="-6.85" font-family="Helvetica,sans-Serif" font-size="12.00">APP_SHELL_Poll</text>
</a>
</g>
</g>
<!-- Node4&#45;&gt;Node5 -->
<g id="edge4_Node000004_Node000005" class="edge">
<title>Node4&#45;&gt;Node5</title>
<g id="a_edge4_Node000004_Node000005"><a xlink:title=" ">
<path fill="none" stroke="#63b8ff" d="M327.23,-11.12C319.07,-11.12 310.9,-11.12 303.06,-11.12"/>
<polygon fill="#63b8ff" stroke="#63b8ff" points="327.22,-14.63 337.22,-11.13 327.22,-7.63 327.22,-14.63"/>
</a>
</g>
</g>
<!-- Node6 -->
<g id="Node000006" class="node">
<title>Node6</title>
<g id="a_Node000006"><a xlink:href="app__main_8c.html#a6709d26bb67f905916b7c7f048b8396c" target="_top" xlink:title="后台超级循环体（main 的 while(1) 内调用）">
<polygon fill="white" stroke="#666666" points="152.75,-22.25 78.25,-22.25 78.25,0 152.75,0 152.75,-22.25"/>
<text xml:space="preserve" text-anchor="middle" x="115.5" y="-6.85" font-family="Helvetica,sans-Serif" font-size="12.00">APP_Loop</text>
</a>
</g>
</g>
<!-- Node5&#45;&gt;Node6 -->
<g id="edge5_Node000005_Node000006" class="edge">
<title>Node5&#45;&gt;Node6</title>
<g id="a_edge5_Node000005_Node000006"><a xlink:title=" ">
<path fill="none" stroke="#63b8ff" d="M177.27,-11.12C168.98,-11.12 160.77,-11.12 153.18,-11.12"/>
<polygon fill="#63b8ff" stroke="#63b8ff" points="177.05,-14.63 187.05,-11.13 177.05,-7.63 177.05,-14.63"/>
</a>
</g>
</g>
<!-- Node6&#45;&gt;Node3 -->
<g id="edge6_Node000006_Node000003" class="edge">
<title>Node6&#45;&gt;Node3</title>
<g id="a_edge6_Node000006_Node000003"><a xlink:title=" ">
<path fill="none" stroke="#63b8ff" d="M66.86,-20.92C58.35,-22.67 49.91,-24.41 42.69,-25.9"/>
<polygon fill="#63b8ff" stroke="#63b8ff" points="67.42,-24.38 76.51,-18.94 66.01,-17.53 67.42,-24.38"/>
</a>
</g>
</g>
</g>
</svg>

<g id="navigator" transform="translate(0 0)" fill="#404254">
  <rect fill="#f2f5e9" fill-opacity="0.5" stroke="#606060" stroke-width=".5" x="0" y="0" width="60" height="60"/>
  <use id="zoomplus" xlink:href="#zoomPlus" x="17" y="9" onmousedown="handleZoom(evt,'in')"/>
  <use id="zoomminus" xlink:href="#zoomMin" x="42" y="9" onmousedown="handleZoom(evt,'out')"/>
  <use id="reset" xlink:href="#resetDef" x="30" y="36" onmousedown="handleReset()"/>
   <use id="arrowup" xlink:href="#arrowUp" x="0" y="0" onmousedown="handlePan(0,-1)"/>
  <use id="arrowright" xlink:href="#arrowRight" x="0" y="0" onmousedown="handlePan(1,0)"/>
  <use id="arrowdown" xlink:href="#arrowDown" x="0" y="0" onmousedown="handlePan(0,1)"/>
  <use id="arrowleft" xlink:href="#arrowLeft" x="0" y="0" onmousedown="handlePan(-1,0)"/>
</g>
<svg viewBox="0 0 15 15" width="100%" height="30px" preserveAspectRatio="xMaxYMin meet">
 <g id="arrow_out" transform="scale(0.3 0.3)">
  <a xlink:href="app__monitor_8h_a69348472c5378c7ae2787d865d1b626e_icgraph_org.svg" target="_base">
   <rect id="button" ry="5" rx="5" y="6" x="6" height="38" width="38"
        fill="#f2f5e9" fill-opacity="0.5" stroke="#606060" stroke-width="1.0"/>
   <path id="arrow"
     d="M 11.500037,31.436501 C 11.940474,20.09759 22.043105,11.32322 32.158766,21.979434 L 37.068811,17.246167 C 37.068811,17.246167 37.088388,32 37.088388,32 L 22.160133,31.978069 C 22.160133,31.978069 26.997745,27.140456 26.997745,27.140456 C 18.528582,18.264221 13.291696,25.230495 11.500037,31.436501 z"
     style="fill:#404040;"/>
  </a>
 </g>
</svg>

<style type='text/css'>
<![CDATA[
[data-mouse-over-selected='false'] { opacity: 0.7; }
[data-mouse-over-selected='true']  { opacity: 1.0; }
]]>
</style>
<script type="application/ecmascript"><![CDATA[
document.addEventListener('DOMContentLoaded', (event) => {
  highlightEdges();
  highlightAdjacentNodes();
});
]]></script>
</svg>
