<?xml version="1.0" encoding="UTF-8" standalone="no"?>
<!DOCTYPE svg PUBLIC "-//W3C//DTD SVG 1.1//EN"
 "http://www.w3.org/Graphics/SVG/1.1/DTD/svg11.dtd">
<!-- Generated by graphviz version 15.1.0 (20260618.0150)
 -->
<!-- Title: APP_CAN_Init Pages: 1 -->
<!--zoomable 940 -->

<svg id="main" version="1.1" xmlns="http://www.w3.org/2000/svg" xmlns:xlink="http://www.w3.org/1999/xlink" xml:space="preserve" onload="init(evt)">

<style type="text/css"><![CDATA[
.node, .edge {opacity: 0.7;}
.node.selected, .edge.selected {opacity: 1;}
.edge:hover path { stroke: red; }
.edge:hover polygon { stroke: red; fill: red; }
]]></style>

<defs>
  <circle id="rim" cx="0" cy="0" r="7"/>
  <circle id="rim2" cx="0" cy="0" r="3.5"/>
  <g id="zoomPlus">
    <use xlink:href="#rim" fill="#404040"><set attributeName="fill" to="#808080" begin="zoomplus.mouseover" end="zoomplus.mouseout"/></use>
    <path d="M-4,0h8M0,-4v8" fill="none" stroke="white" stroke-width="1.5" pointer-events="none"/>
  </g>
  <g id="zoomMin">
    <use xlink:href="#rim" fill="#404040"><set attributeName="fill" to="#808080" begin="zoomminus.mouseover" end="zoomminus.mouseout"/></use>
    <path d="M-4,0h8" fill="none" stroke="white" stroke-width="1.5" pointer-events="none"/>
  </g>
  <g id="arrowUp" transform="translate(30 24)">
    <use xlink:href="#rim"/>
    <path pointer-events="none" fill="none" stroke="white" stroke-width="1.5" d="M0,-3.0v7 M-2.5,-0.5L0,-3.0L2.5,-0.5"/>
  </g>
  <g id="arrowRight" transform="rotate(90) translate(36 -43)">
    <use xlink:href="#rim"/>
    <path pointer-events="none" fill="none" stroke="white" stroke-width="1.5" d="M0,-3.0v7 M-2.5,-0.5L0,-3.0L2.5,-0.5"/>
  </g>
  <g id="arrowDown" transform="rotate(180) translate(-30 -48)">
    <use xlink:href="#rim"/>
    <path pointer-events="none" fill="none" stroke="white" stroke-width="1.5" d="M0,-3.0v7 M-2.5,-0.5L0,-3.0L2.5,-0.5"/>
  </g>
  <g id="arrowLeft" transform="rotate(270) translate(-36 17)">
    <use xlink:href="#rim"/>
    <path pointer-events="none" fill="none" stroke="white" stroke-width="1.5" d="M0,-3.0v7 M-2.5,-0.5L0,-3.0L2.5,-0.5"/>
  </g>
  <g id="resetDef">
    <use xlink:href="#rim2" fill="#404040"><set attributeName="fill" to="#808080" begin="reset.mouseover" end="reset.mouseout"/></use>
  </g>
</defs>
<script type="application/ecmascript">
var viewWidth = 1100;
var viewHeight = 940;
var sectionId = 'dynsection-8';
</script>
<script type="application/ecmascript" xlink:href="svg.min.js"/>
<svg id="graph" class="graph">
<g id="viewport">
<title>APP_CAN_Init</title>
<!-- Node1 -->
<g id="Node000001" class="node">
<title>Node1</title>
<g id="a_Node000001"><a xlink:title="初始化 CAN 应用协议（按持久化参数配置 BSP）">
<polygon fill="#999999" stroke="#666666" points="96.25,-81.25 0,-81.25 0,-59 96.25,-59 96.25,-81.25"/>
<text xml:space="preserve" text-anchor="middle" x="48.12" y="-65.85" font-family="Helvetica,sans-Serif" font-size="12.00">APP_CAN_Init</text>
</a>
</g>
</g>
<!-- Node2 -->
<g id="Node000002" class="node">
<title>Node2</title>
<g id="a_Node000002"><a xlink:href="app__can__protocol_8c.html#a0c342291cd7188f387f12f9b2157c4e9" target="_top" xlink:title="CAN 接收分发（ISR 上下文）">
<polygon fill="white" stroke="#666666" points="295.25,-458.25 157,-458.25 157,-436 295.25,-436 295.25,-458.25"/>
<text xml:space="preserve" text-anchor="middle" x="226.12" y="-442.85" font-family="Helvetica,sans-Serif" font-size="12.00">APP_CAN_RxHandler</text>
</a>
</g>
</g>
<!-- Node1&#45;&gt;Node2 -->
<g id="edge1_Node000001_Node000002" class="edge">
<title>Node1&#45;&gt;Node2</title>
<g id="a_edge1_Node000001_Node000002"><a xlink:title=" ">
<path fill="none" stroke="#63b8ff" d="M54.39,-81.41C78.88,-133.86 181.81,-354.34 214.86,-425.14"/>
<polygon fill="#63b8ff" stroke="#63b8ff" points="211.66,-426.56 219.07,-434.15 218.01,-423.6 211.66,-426.56"/>
</a>
</g>
</g>
<!-- Node8 -->
<g id="Node000008" class="node">
<title>Node8</title>
<g id="a_Node000008"><a xlink:href="bsp__can_8c.html#ab09830a7aa5df9b3a6fa393538f81ab8" target="_top" xlink:title="切换 120 欧终端电阻（TS5A3159 模拟开关）">
<polygon fill="white" stroke="#666666" points="905,-150.25 744.25,-150.25 744.25,-128 905,-128 905,-150.25"/>
<text xml:space="preserve" text-anchor="middle" x="824.62" y="-134.85" font-family="Helvetica,sans-Serif" font-size="12.00">BSP_CAN_SetTermination</text>
</a>
</g>
</g>
<!-- Node1&#45;&gt;Node8 -->
<g id="edge53_Node000001_Node000008" class="edge">
<title>Node1&#45;&gt;Node8</title>
<g id="a_edge53_Node000001_Node000008"><a xlink:title=" ">
<path fill="none" stroke="#63b8ff" d="M96.59,-71.73C227.23,-76.33 590.21,-90.47 708.25,-109.12 730.67,-112.67 755.06,-118.68 775.62,-124.4"/>
<polygon fill="#63b8ff" stroke="#63b8ff" points="774.57,-127.74 785.15,-127.11 776.49,-121.01 774.57,-127.74"/>
</a>
</g>
</g>
<!-- Node37 -->
<g id="Node000037" class="node">
<title>Node37</title>
<g id="a_Node000037"><a xlink:href="bsp__can_8c.html#a8bb055feb01e6f0fdee0f7921f821e5c" target="_top" xlink:title="初始化 CAN（重配位时序 + 滤波器 + 中断）">
<polygon fill="white" stroke="#666666" points="274.25,-62.25 178,-62.25 178,-40 274.25,-40 274.25,-62.25"/>
<text xml:space="preserve" text-anchor="middle" x="226.12" y="-46.85" font-family="Helvetica,sans-Serif" font-size="12.00">BSP_CAN_Init</text>
</a>
</g>
</g>
<!-- Node1&#45;&gt;Node37 -->
<g id="edge50_Node000001_Node000037" class="edge">
<title>Node1&#45;&gt;Node37</title>
<g id="a_edge50_Node000001_Node000037"><a xlink:title=" ">
<path fill="none" stroke="#63b8ff" d="M96.29,-65.03C117.81,-62.71 143.5,-59.94 166.27,-57.48"/>
<polygon fill="#63b8ff" stroke="#63b8ff" points="166.45,-60.98 176.02,-56.43 165.7,-54.02 166.45,-60.98"/>
</a>
</g>
</g>
<!-- Node39 -->
<g id="Node000039" class="node">
<title>Node39</title>
<g id="a_Node000039"><a xlink:href="bsp__can_8c.html#a9792d3480dca4b5570e43d806dfdb092" target="_top" xlink:title="注册接收回调（ISR 上下文执行，须轻量）">
<polygon fill="white" stroke="#666666" points="320,-22.25 132.25,-22.25 132.25,0 320,0 320,-22.25"/>
<text xml:space="preserve" text-anchor="middle" x="226.12" y="-6.85" font-family="Helvetica,sans-Serif" font-size="12.00">BSP_CAN_RegisterRxCallback</text>
</a>
</g>
</g>
<!-- Node1&#45;&gt;Node39 -->
<g id="edge52_Node000001_Node000039" class="edge">
<title>Node1&#45;&gt;Node39</title>
<g id="a_edge52_Node000001_Node000039"><a xlink:title=" ">
<path fill="none" stroke="#63b8ff" d="M70.1,-58.65C86.59,-50.04 110.35,-38.51 132.25,-31.12 138.36,-29.06 144.76,-27.17 151.24,-25.43"/>
<polygon fill="#63b8ff" stroke="#63b8ff" points="151.85,-28.89 160.68,-23.03 150.13,-22.1 151.85,-28.89"/>
</a>
</g>
</g>
<!-- Node3 -->
<g id="Node000003" class="node">
<title>Node3</title>
<g id="a_Node000003"><a xlink:href="app__can__protocol_8c.html#a962b5bb63f0dca9cd0efbd25455d6002" target="_top" xlink:title="配置通道处理">
<polygon fill="white" stroke="#666666" points="494.25,-458.25 356,-458.25 356,-436 494.25,-436 494.25,-458.25"/>
<text xml:space="preserve" text-anchor="middle" x="425.12" y="-442.85" font-family="Helvetica,sans-Serif" font-size="12.00">APP_CAN_HandleCfg</text>
</a>
</g>
</g>
<!-- Node2&#45;&gt;Node3 -->
<g id="edge2_Node000002_Node000003" class="edge">
<title>Node2&#45;&gt;Node3</title>
<g id="a_edge2_Node000002_Node000003"><a xlink:title=" ">
<path fill="none" stroke="#63b8ff" d="M295.75,-447.12C311.54,-447.12 328.46,-447.12 344.66,-447.12"/>
<polygon fill="#63b8ff" stroke="#63b8ff" points="344.23,-450.63 354.23,-447.13 344.23,-443.63 344.23,-450.63"/>
</a>
</g>
</g>
<!-- Node32 -->
<g id="Node000032" class="node">
<title>Node32</title>
<g id="a_Node000032"><a xlink:href="app__can__protocol_8c.html#a287ab0ebbb13b297320ec4082c51365b" target="_top" xlink:title="MIT 运控通道处理">
<polygon fill="white" stroke="#666666" points="492.75,-774.25 357.5,-774.25 357.5,-752 492.75,-752 492.75,-774.25"/>
<text xml:space="preserve" text-anchor="middle" x="425.12" y="-758.85" font-family="Helvetica,sans-Serif" font-size="12.00">APP_CAN_HandleMit</text>
</a>
</g>
</g>
<!-- Node2&#45;&gt;Node32 -->
<g id="edge39_Node000002_Node000032" class="edge">
<title>Node2&#45;&gt;Node32</title>
<g id="a_edge39_Node000002_Node000032"><a xlink:title=" ">
<path fill="none" stroke="#63b8ff" d="M234.37,-458.75C263.58,-505.6 372.92,-680.99 410.97,-742.03"/>
<polygon fill="#63b8ff" stroke="#63b8ff" points="407.96,-743.81 416.22,-750.45 413.9,-740.11 407.96,-743.81"/>
</a>
</g>
</g>
<!-- Node4 -->
<g id="Node000004" class="node">
<title>Node4</title>
<g id="a_Node000004"><a xlink:href="app__can__protocol_8c.html#a966f37b5d2949acd6d6432af5cbcbcec" target="_top" xlink:title="配置通道应答：cmd + 状态 + float 值">
<polygon fill="white" stroke="#666666" points="684.62,-498.25 553.88,-498.25 553.88,-476 684.62,-476 684.62,-498.25"/>
<text xml:space="preserve" text-anchor="middle" x="619.25" y="-482.85" font-family="Helvetica,sans-Serif" font-size="12.00">APP_CAN_CfgReply</text>
</a>
</g>
</g>
<!-- Node3&#45;&gt;Node4 -->
<g id="edge3_Node000003_Node000004" class="edge">
<title>Node3&#45;&gt;Node4</title>
<g id="a_edge3_Node000003_Node000004"><a xlink:title=" ">
<path fill="none" stroke="#63b8ff" d="M481.95,-458.75C503.66,-463.27 528.71,-468.48 551.36,-473.2"/>
<polygon fill="#63b8ff" stroke="#63b8ff" points="550.63,-476.62 561.13,-475.23 552.06,-469.77 550.63,-476.62"/>
</a>
</g>
</g>
<!-- Node5 -->
<g id="Node000005" class="node">
<title>Node5</title>
<g id="a_Node000005"><a xlink:href="bsp__can_8c.html#a70c1a9dd4f5e80dddb8aa8c476c15af7" target="_top" xlink:title="发送一帧经典 CAN 数据帧（非阻塞，入 TX FIFO）">
<polygon fill="white" stroke="#666666" points="879.12,-577.25 770.12,-577.25 770.12,-555 879.12,-555 879.12,-577.25"/>
<text xml:space="preserve" text-anchor="middle" x="824.62" y="-561.85" font-family="Helvetica,sans-Serif" font-size="12.00">BSP_CAN_Send</text>
</a>
</g>
</g>
<!-- Node3&#45;&gt;Node5 -->
<g id="edge12_Node000003_Node000005" class="edge">
<title>Node3&#45;&gt;Node5</title>
<g id="a_edge12_Node000003_Node000005"><a xlink:title=" ">
<path fill="none" stroke="#63b8ff" d="M433.66,-458.43C448.9,-480.2 485.75,-527.52 530.25,-547.12 603.46,-579.38 697.01,-579.26 758.54,-574.32"/>
<polygon fill="#63b8ff" stroke="#63b8ff" points="758.48,-577.83 768.13,-573.48 757.86,-570.86 758.48,-577.83"/>
</a>
</g>
</g>
<!-- Node6 -->
<g id="Node000006" class="node">
<title>Node6</title>
<g id="a_Node000006"><a xlink:href="app__can__protocol_8c.html#ae97d64d8caba7a4aee7b6ef40a26afb7" target="_top" xlink:title="按索引读参数（CAN 配置通道与 shell 共用）">
<polygon fill="white" stroke="#666666" points="708.25,-538.25 530.25,-538.25 530.25,-516 708.25,-516 708.25,-538.25"/>
<text xml:space="preserve" text-anchor="middle" x="619.25" y="-522.85" font-family="Helvetica,sans-Serif" font-size="12.00">APP_CAN_GetParamByIndex</text>
</a>
</g>
</g>
<!-- Node3&#45;&gt;Node6 -->
<g id="edge5_Node000003_Node000006" class="edge">
<title>Node3&#45;&gt;Node6</title>
<g id="a_edge5_Node000003_Node000006"><a xlink:title=" ">
<path fill="none" stroke="#63b8ff" d="M442.3,-458.51C462.14,-471.98 497.22,-494.2 530.25,-507.12 535.19,-509.06 540.36,-510.83 545.61,-512.45"/>
<polygon fill="#63b8ff" stroke="#63b8ff" points="544.44,-515.75 555.02,-515.14 546.37,-509.02 544.44,-515.75"/>
</a>
</g>
</g>
<!-- Node7 -->
<g id="Node000007" class="node">
<title>Node7</title>
<g id="a_Node000007"><a xlink:href="app__can__protocol_8c.html#a1c22c988dc67c917a70b53b3386fcfca" target="_top" xlink:title="按索引写参数（只读项与非法值拒绝，CAN 配置通道与 shell 共用）">
<polygon fill="white" stroke="#666666" points="707.88,-220.25 530.62,-220.25 530.62,-198 707.88,-198 707.88,-220.25"/>
<text xml:space="preserve" text-anchor="middle" x="619.25" y="-204.85" font-family="Helvetica,sans-Serif" font-size="12.00">APP_CAN_SetParamByIndex</text>
</a>
</g>
</g>
<!-- Node3&#45;&gt;Node7 -->
<g id="edge6_Node000003_Node000007" class="edge">
<title>Node3&#45;&gt;Node7</title>
<g id="a_edge6_Node000003_Node000007"><a xlink:title=" ">
<path fill="none" stroke="#63b8ff" d="M428.26,-435.88C435.57,-400.47 462.99,-290.37 530.25,-234.12 534.19,-230.83 538.55,-227.96 543.15,-225.48"/>
<polygon fill="#63b8ff" stroke="#63b8ff" points="544.59,-228.66 552.16,-221.25 541.62,-222.32 544.59,-228.66"/>
</a>
</g>
</g>
<!-- Node9 -->
<g id="Node000009" class="node">
<title>Node9</title>
<g id="a_Node000009"><a xlink:href="motor__ctrl_8c.html#acd57a3a6a71d8ec4261dca794251a12a" target="_top" xlink:title="参数修改后刷新 PID 增益（shell/CAN 调参后调用）">
<polygon fill="white" stroke="#666666" points="890.38,-239.25 758.88,-239.25 758.88,-217 890.38,-217 890.38,-239.25"/>
<text xml:space="preserve" text-anchor="middle" x="824.62" y="-223.85" font-family="Helvetica,sans-Serif" font-size="12.00">MC_ApplyPidParams</text>
</a>
</g>
</g>
<!-- Node3&#45;&gt;Node9 -->
<g id="edge13_Node000003_Node000009" class="edge">
<title>Node3&#45;&gt;Node9</title>
<g id="a_edge13_Node000003_Node000009"><a xlink:title=" ">
<path fill="none" stroke="#63b8ff" d="M428.9,-435.86C437.53,-403.39 467.22,-309.26 530.25,-267.12 564.73,-244.07 672.42,-234.58 747.26,-230.72"/>
<polygon fill="#63b8ff" stroke="#63b8ff" points="747.18,-234.23 756.99,-230.24 746.84,-227.24 747.18,-234.23"/>
</a>
</g>
</g>
<!-- Node11 -->
<g id="Node000011" class="node">
<title>Node11</title>
<g id="a_Node000011"><a xlink:href="app__params_8c.html#afa4da68e24e6b332803f4e131cd9ea31" target="_top" xlink:title="加载编译期默认参数">
<polygon fill="white" stroke="#666666" points="707.12,-378.25 531.38,-378.25 531.38,-356 707.12,-356 707.12,-378.25"/>
<text xml:space="preserve" text-anchor="middle" x="619.25" y="-362.85" font-family="Helvetica,sans-Serif" font-size="12.00">APP_PARAMS_LoadDefaults</text>
</a>
</g>
</g>
<!-- Node3&#45;&gt;Node11 -->
<g id="edge10_Node000003_Node000011" class="edge">
<title>Node3&#45;&gt;Node11</title>
<g id="a_edge10_Node000003_Node000011"><a xlink:title=" ">
<path fill="none" stroke="#63b8ff" d="M442.3,-435.74C462.14,-422.27 497.22,-400.05 530.25,-387.12 535.19,-385.19 540.36,-383.42 545.61,-381.8"/>
<polygon fill="#63b8ff" stroke="#63b8ff" points="546.37,-385.23 555.02,-379.11 544.44,-378.5 546.37,-385.23"/>
</a>
</g>
</g>
<!-- Node12 -->
<g id="Node000012" class="node">
<title>Node12</title>
<g id="a_Node000012"><a xlink:href="app__params_8c.html#a2c145abd191edf697c7d319f120390fb" target="_top" xlink:title="请求保存参数（任意上下文安全，后台择机执行）">
<polygon fill="white" stroke="#666666" points="707.88,-338.25 530.62,-338.25 530.62,-316 707.88,-316 707.88,-338.25"/>
<text xml:space="preserve" text-anchor="middle" x="619.25" y="-322.85" font-family="Helvetica,sans-Serif" font-size="12.00">APP_PARAMS_RequestSave</text>
</a>
</g>
</g>
<!-- Node3&#45;&gt;Node12 -->
<g id="edge11_Node000003_Node000012" class="edge">
<title>Node3&#45;&gt;Node12</title>
<g id="a_edge11_Node000003_Node000012"><a xlink:title=" ">
<path fill="none" stroke="#63b8ff" d="M434.45,-435.78C450.5,-414.79 487.89,-369.96 530.25,-347.12 533.26,-345.5 536.39,-344.02 539.6,-342.65"/>
<polygon fill="#63b8ff" stroke="#63b8ff" points="540.57,-346.02 548.68,-339.21 538.09,-339.48 540.57,-346.02"/>
</a>
</g>
</g>
<!-- Node13 -->
<g id="Node000013" class="node">
<title>Node13</title>
<g id="a_Node000013"><a xlink:href="motor__ctrl_8c.html#a827231f68dfabeb070811b39e11a267c" target="_top" xlink:title="清除故障（故障源已消失时）">
<polygon fill="white" stroke="#666666" points="668.12,-418.25 570.38,-418.25 570.38,-396 668.12,-396 668.12,-418.25"/>
<text xml:space="preserve" text-anchor="middle" x="619.25" y="-402.85" font-family="Helvetica,sans-Serif" font-size="12.00">MC_ClearFault</text>
</a>
</g>
</g>
<!-- Node3&#45;&gt;Node13 -->
<g id="edge14_Node000003_Node000013" class="edge">
<title>Node3&#45;&gt;Node13</title>
<g id="a_edge14_Node000003_Node000013"><a xlink:title=" ">
<path fill="none" stroke="#63b8ff" d="M481.95,-435.5C506.17,-430.46 534.54,-424.55 559.11,-419.44"/>
<polygon fill="#63b8ff" stroke="#63b8ff" points="559.55,-422.92 568.62,-417.46 558.12,-416.07 559.55,-422.92"/>
</a>
</g>
</g>
<!-- Node15 -->
<g id="Node000015" class="node">
<title>Node15</title>
<g id="a_Node000015"><a xlink:href="motor__ctrl_8c.html#aceb46c7be868a0b12dffa105e3d0581e" target="_top" xlink:title="封波（ISR 安全）">
<polygon fill="white" stroke="#666666" points="660.62,-814.25 577.88,-814.25 577.88,-792 660.62,-792 660.62,-814.25"/>
<text xml:space="preserve" text-anchor="middle" x="619.25" y="-798.85" font-family="Helvetica,sans-Serif" font-size="12.00">MC_Disable</text>
</a>
</g>
</g>
<!-- Node3&#45;&gt;Node15 -->
<g id="edge16_Node000003_Node000015" class="edge">
<title>Node3&#45;&gt;Node15</title>
<g id="a_edge16_Node000003_Node000015"><a xlink:title=" ">
<path fill="none" stroke="#63b8ff" d="M425.88,-458.46C425.52,-505.98 430.76,-691.02 530.25,-783.12 540.22,-792.36 553.53,-797.63 566.78,-800.56"/>
<polygon fill="#63b8ff" stroke="#63b8ff" points="565.87,-803.96 576.33,-802.25 567.09,-797.06 565.87,-803.96"/>
</a>
</g>
</g>
<!-- Node19 -->
<g id="Node000019" class="node">
<title>Node19</title>
<g id="a_Node000019"><a xlink:href="motor__ctrl_8c.html#a8d1ee75d00d8c0f2d2d78f89d002efec" target="_top" xlink:title="使能功率输出">
<polygon fill="white" stroke="#666666" points="659.12,-616.25 579.38,-616.25 579.38,-594 659.12,-594 659.12,-616.25"/>
<text xml:space="preserve" text-anchor="middle" x="619.25" y="-600.85" font-family="Helvetica,sans-Serif" font-size="12.00">MC_Enable</text>
</a>
</g>
</g>
<!-- Node3&#45;&gt;Node19 -->
<g id="edge21_Node000003_Node000019" class="edge">
<title>Node3&#45;&gt;Node19</title>
<g id="a_edge21_Node000003_Node000019"><a xlink:title=" ">
<path fill="none" stroke="#63b8ff" d="M431.9,-458.74C445.4,-484.64 481.57,-547.41 530.25,-580.12 541.58,-587.74 555.22,-593.06 568.34,-596.76"/>
<polygon fill="#63b8ff" stroke="#63b8ff" points="567.16,-600.07 577.71,-599.14 568.88,-593.29 567.16,-600.07"/>
</a>
</g>
</g>
<!-- Node22 -->
<g id="Node000022" class="node">
<title>Node22</title>
<g id="a_Node000022"><a xlink:href="protection_8c.html#a06029022ac7e5b95690b0119794c83d6" target="_top" xlink:title="喂 CAN 指令看门狗（收到有效运动指令时调用）">
<polygon fill="white" stroke="#666666" points="905,-695.25 744.25,-695.25 744.25,-673 905,-673 905,-695.25"/>
<text xml:space="preserve" text-anchor="middle" x="824.62" y="-679.85" font-family="Helvetica,sans-Serif" font-size="12.00">PROT_FeedCanWatchdog</text>
</a>
</g>
</g>
<!-- Node3&#45;&gt;Node22 -->
<g id="edge38_Node000003_Node000022" class="edge">
<title>Node3&#45;&gt;Node22</title>
<g id="a_edge38_Node000003_Node000022"><a xlink:title=" ">
<path fill="none" stroke="#63b8ff" d="M429.21,-458.53C438.49,-490.52 469.35,-581.65 530.25,-625.12 534.8,-628.37 666.07,-653.97 751.46,-670.36"/>
<polygon fill="#63b8ff" stroke="#63b8ff" points="750.7,-673.78 761.18,-672.23 752.02,-666.9 750.7,-673.78"/>
</a>
</g>
</g>
<!-- Node23 -->
<g id="Node000023" class="node">
<title>Node23</title>
<g id="a_Node000023"><a xlink:href="motor__ctrl_8c.html#ab0638fb9fe58dcbe6f0fb3d5ed81d28c" target="_top" xlink:title="切换控制模式（仅封波状态允许）">
<polygon fill="white" stroke="#666666" points="664,-694.25 574.5,-694.25 574.5,-672 664,-672 664,-694.25"/>
<text xml:space="preserve" text-anchor="middle" x="619.25" y="-678.85" font-family="Helvetica,sans-Serif" font-size="12.00">MC_SetMode</text>
</a>
</g>
</g>
<!-- Node3&#45;&gt;Node23 -->
<g id="edge27_Node000003_Node000023" class="edge">
<title>Node3&#45;&gt;Node23</title>
<g id="a_edge27_Node000003_Node000023"><a xlink:title=" ">
<path fill="none" stroke="#63b8ff" d="M428.29,-458.27C435.71,-493.35 463.4,-602.43 530.25,-658.12 539.69,-665.99 551.45,-671.38 563.28,-675.08"/>
<polygon fill="#63b8ff" stroke="#63b8ff" points="562.06,-678.37 572.63,-677.62 563.9,-671.62 562.06,-678.37"/>
</a>
</g>
</g>
<!-- Node24 -->
<g id="Node000024" class="node">
<title>Node24</title>
<g id="a_Node000024"><a xlink:href="motor__ctrl_8c.html#a99b65c0c0b41906fc3146d52e1b879be" target="_top" xlink:title="设置输出轴位置给定（POSITION 模式）">
<polygon fill="white" stroke="#666666" points="668.88,-180.25 569.62,-180.25 569.62,-158 668.88,-158 668.88,-180.25"/>
<text xml:space="preserve" text-anchor="middle" x="619.25" y="-164.85" font-family="Helvetica,sans-Serif" font-size="12.00">MC_SetPosRef</text>
</a>
</g>
</g>
<!-- Node3&#45;&gt;Node24 -->
<g id="edge28_Node000003_Node000024" class="edge">
<title>Node3&#45;&gt;Node24</title>
<g id="a_edge28_Node000003_Node000024"><a xlink:title=" ">
<path fill="none" stroke="#63b8ff" d="M427.08,-435.72C431.12,-395.21 450.44,-257.08 530.25,-189.12 538.22,-182.34 548.03,-177.73 558.17,-174.63"/>
<polygon fill="#63b8ff" stroke="#63b8ff" points="558.93,-178.05 567.76,-172.19 557.21,-171.26 558.93,-178.05"/>
</a>
</g>
</g>
<!-- Node25 -->
<g id="Node000025" class="node">
<title>Node25</title>
<g id="a_Node000025"><a xlink:href="motor__ctrl_8c.html#ad9fdc2a937331479bd701139807ad7b2" target="_top" xlink:title="设置输出轴速度给定（SPEED 模式）">
<polygon fill="white" stroke="#666666" points="676,-298.25 562.5,-298.25 562.5,-276 676,-276 676,-298.25"/>
<text xml:space="preserve" text-anchor="middle" x="619.25" y="-282.85" font-family="Helvetica,sans-Serif" font-size="12.00">MC_SetSpeedRef</text>
</a>
</g>
</g>
<!-- Node3&#45;&gt;Node25 -->
<g id="edge29_Node000003_Node000025" class="edge">
<title>Node3&#45;&gt;Node25</title>
<g id="a_edge29_Node000003_Node000025"><a xlink:title=" ">
<path fill="none" stroke="#63b8ff" d="M431.23,-435.52C443.79,-408.38 478.98,-340.52 530.25,-307.12 536.69,-302.93 543.89,-299.61 551.33,-296.98"/>
<polygon fill="#63b8ff" stroke="#63b8ff" points="552.35,-300.33 560.88,-294.05 550.29,-293.64 552.35,-300.33"/>
</a>
</g>
</g>
<!-- Node27 -->
<g id="Node000027" class="node">
<title>Node27</title>
<g id="a_Node000027"><a xlink:href="motor__ctrl_8c.html#aef22984edf5c5a02be46b64d26f8534a" target="_top" xlink:title="设置输出轴转矩给定（TORQUE 模式，内部折算为 iq）">
<polygon fill="white" stroke="#666666" points="667.38,-140.25 571.12,-140.25 571.12,-118 667.38,-118 667.38,-140.25"/>
<text xml:space="preserve" text-anchor="middle" x="619.25" y="-124.85" font-family="Helvetica,sans-Serif" font-size="12.00">MC_SetTorque</text>
</a>
</g>
</g>
<!-- Node3&#45;&gt;Node27 -->
<g id="edge31_Node000003_Node000027" class="edge">
<title>Node3&#45;&gt;Node27</title>
<g id="a_edge31_Node000003_Node000027"><a xlink:title=" ">
<path fill="none" stroke="#63b8ff" d="M426.4,-435.57C428.12,-391.06 440.54,-229.26 530.25,-149.12 538.58,-141.69 549.08,-136.84 559.91,-133.72"/>
<polygon fill="#63b8ff" stroke="#63b8ff" points="560.39,-137.21 569.31,-131.49 558.77,-130.39 560.39,-137.21"/>
</a>
</g>
</g>
<!-- Node28 -->
<g id="Node000028" class="node">
<title>Node28</title>
<g id="a_Node000028"><a xlink:href="motor__ctrl_8c.html#a64722c426a5d2fd53b95c12a85f22120" target="_top" xlink:title="以当前位置为输出轴零位">
<polygon fill="white" stroke="#666666" points="674.5,-734.25 564,-734.25 564,-712 674.5,-712 674.5,-734.25"/>
<text xml:space="preserve" text-anchor="middle" x="619.25" y="-718.85" font-family="Helvetica,sans-Serif" font-size="12.00">MC_SetZeroHere</text>
</a>
</g>
</g>
<!-- Node3&#45;&gt;Node28 -->
<g id="edge32_Node000003_Node000028" class="edge">
<title>Node3&#45;&gt;Node28</title>
<g id="a_edge32_Node000003_Node000028"><a xlink:title=" ">
<path fill="none" stroke="#63b8ff" d="M427.14,-458.73C431.34,-499.28 451.07,-635.89 530.25,-703.12 536.81,-708.7 544.61,-712.8 552.81,-715.8"/>
<polygon fill="#63b8ff" stroke="#63b8ff" points="551.72,-719.13 562.3,-718.71 553.77,-712.43 551.72,-719.13"/>
</a>
</g>
</g>
<!-- Node29 -->
<g id="Node000029" class="node">
<title>Node29</title>
<g id="a_Node000029"><a xlink:href="motor__ctrl_8c.html#afb3414a066c16e68add2218d01f59942" target="_top" xlink:title="启动预定位校准（封波状态下）">
<polygon fill="white" stroke="#666666" points="681.62,-458.25 556.88,-458.25 556.88,-436 681.62,-436 681.62,-458.25"/>
<text xml:space="preserve" text-anchor="middle" x="619.25" y="-442.85" font-family="Helvetica,sans-Serif" font-size="12.00">MC_StartCalibration</text>
</a>
</g>
</g>
<!-- Node3&#45;&gt;Node29 -->
<g id="edge33_Node000003_Node000029" class="edge">
<title>Node3&#45;&gt;Node29</title>
<g id="a_edge33_Node000003_Node000029"><a xlink:title=" ">
<path fill="none" stroke="#63b8ff" d="M494.67,-447.12C511.05,-447.12 528.58,-447.12 545.15,-447.12"/>
<polygon fill="#63b8ff" stroke="#63b8ff" points="544.93,-450.63 554.93,-447.13 544.93,-443.63 544.93,-450.63"/>
</a>
</g>
</g>
<!-- Node4&#45;&gt;Node5 -->
<g id="edge4_Node000004_Node000005" class="edge">
<title>Node4&#45;&gt;Node5</title>
<g id="a_edge4_Node000004_Node000005"><a xlink:title=" ">
<path fill="none" stroke="#63b8ff" d="M681.51,-498.68C690.6,-501.08 699.76,-503.88 708.25,-507.12 725.35,-513.66 728.03,-518.64 744.25,-527.12 758.89,-534.78 775.24,-542.89 789.28,-549.72"/>
<polygon fill="#63b8ff" stroke="#63b8ff" points="787.61,-552.8 798.14,-554 790.66,-546.5 787.61,-552.8"/>
</a>
</g>
</g>
<!-- Node7&#45;&gt;Node8 -->
<g id="edge7_Node000007_Node000008" class="edge">
<title>Node7&#45;&gt;Node8</title>
<g id="a_edge7_Node000007_Node000008"><a xlink:title=" ">
<path fill="none" stroke="#63b8ff" d="M678.42,-197.51C688.46,-195.05 698.72,-192.24 708.25,-189.12 736.73,-179.81 767.84,-166.11 790.57,-155.4"/>
<polygon fill="#63b8ff" stroke="#63b8ff" points="791.81,-158.69 799.33,-151.22 788.79,-152.37 791.81,-158.69"/>
</a>
</g>
</g>
<!-- Node7&#45;&gt;Node9 -->
<g id="edge8_Node000007_Node000009" class="edge">
<title>Node7&#45;&gt;Node9</title>
<g id="a_edge8_Node000007_Node000009"><a xlink:title=" ">
<path fill="none" stroke="#63b8ff" d="M708.27,-217.35C721.17,-218.55 734.38,-219.79 747.03,-220.97"/>
<polygon fill="#63b8ff" stroke="#63b8ff" points="746.68,-224.45 756.96,-221.9 747.33,-217.48 746.68,-224.45"/>
</a>
</g>
</g>
<!-- Node10 -->
<g id="Node000010" class="node">
<title>Node10</title>
<g id="a_Node000010"><a xlink:href="pid_8c.html#a8977cc689f8f72deff8a981ff5da901f" target="_top" xlink:title="运行中修改增益（不复位积分，保证无扰切换）">
<polygon fill="white" stroke="#666666" points="1062.75,-239.25 970.25,-239.25 970.25,-217 1062.75,-217 1062.75,-239.25"/>
<text xml:space="preserve" text-anchor="middle" x="1016.5" y="-223.85" font-family="Helvetica,sans-Serif" font-size="12.00">PID_SetGains</text>
</a>
</g>
</g>
<!-- Node9&#45;&gt;Node10 -->
<g id="edge9_Node000009_Node000010" class="edge">
<title>Node9&#45;&gt;Node10</title>
<g id="a_edge9_Node000009_Node000010"><a xlink:title=" ">
<path fill="none" stroke="#63b8ff" d="M890.7,-228.12C912.71,-228.12 937.11,-228.12 958.45,-228.12"/>
<polygon fill="#63b8ff" stroke="#63b8ff" points="958.44,-231.63 968.44,-228.13 958.44,-224.63 958.44,-231.63"/>
</a>
</g>
</g>
<!-- Node14 -->
<g id="Node000014" class="node">
<title>Node14</title>
<g id="a_Node000014"><a xlink:href="protection_8c.html#a2edece24ac432f98c28ec146bfc9eb54" target="_top" xlink:title="初始化保护模块">
<polygon fill="white" stroke="#666666" points="860.75,-418.25 788.5,-418.25 788.5,-396 860.75,-396 860.75,-418.25"/>
<text xml:space="preserve" text-anchor="middle" x="824.62" y="-402.85" font-family="Helvetica,sans-Serif" font-size="12.00">PROT_Init</text>
</a>
</g>
</g>
<!-- Node13&#45;&gt;Node14 -->
<g id="edge15_Node000013_Node000014" class="edge">
<title>Node13&#45;&gt;Node14</title>
<g id="a_edge15_Node000013_Node000014"><a xlink:title=" ">
<path fill="none" stroke="#63b8ff" d="M668.45,-407.12C701.19,-407.12 744.28,-407.12 776.74,-407.12"/>
<polygon fill="#63b8ff" stroke="#63b8ff" points="776.67,-410.63 786.67,-407.13 776.67,-403.63 776.67,-410.63"/>
</a>
</g>
</g>
<!-- Node16 -->
<g id="Node000016" class="node">
<title>Node16</title>
<g id="a_Node000016"><a xlink:href="bsp__pwm_8c.html#a2664b56ad93d867fb05741e710ff942d" target="_top" xlink:title="封波（输出高阻，电机 freewheel）">
<polygon fill="white" stroke="#666666" points="887,-833.25 762.25,-833.25 762.25,-811 887,-811 887,-833.25"/>
<text xml:space="preserve" text-anchor="middle" x="824.62" y="-817.85" font-family="Helvetica,sans-Serif" font-size="12.00">BSP_PWM_Disable</text>
</a>
</g>
</g>
<!-- Node15&#45;&gt;Node16 -->
<g id="edge17_Node000015_Node000016" class="edge">
<title>Node15&#45;&gt;Node16</title>
<g id="a_edge17_Node000015_Node000016"><a xlink:title=" ">
<path fill="none" stroke="#63b8ff" d="M660.92,-806.92C686.51,-809.32 720.29,-812.47 750.43,-815.29"/>
<polygon fill="#63b8ff" stroke="#63b8ff" points="749.99,-818.76 760.28,-816.21 750.64,-811.79 749.99,-818.76"/>
</a>
</g>
</g>
<!-- Node17 -->
<g id="Node000017" class="node">
<title>Node17</title>
<g id="a_Node000017"><a xlink:href="foc_8c.html#aa25cf599086b4ad815ae5ad72dcfdec4" target="_top" xlink:title="复位电流环状态（封波后重新使能前调用，防止积分残留冲击）">
<polygon fill="white" stroke="#666666" points="864.5,-655.25 784.75,-655.25 784.75,-633 864.5,-633 864.5,-655.25"/>
<text xml:space="preserve" text-anchor="middle" x="824.62" y="-639.85" font-family="Helvetica,sans-Serif" font-size="12.00">FOC_Reset</text>
</a>
</g>
</g>
<!-- Node15&#45;&gt;Node17 -->
<g id="edge18_Node000015_Node000017" class="edge">
<title>Node15&#45;&gt;Node17</title>
<g id="a_edge18_Node000015_Node000017"><a xlink:title=" ">
<path fill="none" stroke="#63b8ff" d="M660.72,-802.56C677.29,-800.32 695.53,-794.98 708.25,-783.12 748.67,-745.45 704.27,-702.27 744.25,-664.12 752.26,-656.48 762.75,-651.64 773.47,-648.6"/>
<polygon fill="#63b8ff" stroke="#63b8ff" points="774.18,-652.02 783.15,-646.38 772.62,-645.2 774.18,-652.02"/>
</a>
</g>
</g>
<!-- Node18 -->
<g id="Node000018" class="node">
<title>Node18</title>
<g id="a_Node000018"><a xlink:href="pid_8c.html#acb76685b15d3fde29d9bd5548b3268c1" target="_top" xlink:title="复位 PID 内部状态（积分/历史误差/输出）">
<polygon fill="white" stroke="#666666" points="1053.75,-655.25 979.25,-655.25 979.25,-633 1053.75,-633 1053.75,-655.25"/>
<text xml:space="preserve" text-anchor="middle" x="1016.5" y="-639.85" font-family="Helvetica,sans-Serif" font-size="12.00">PID_Reset</text>
</a>
</g>
</g>
<!-- Node15&#45;&gt;Node18 -->
<g id="edge20_Node000015_Node000018" class="edge">
<title>Node15&#45;&gt;Node18</title>
<g id="a_edge20_Node000015_Node000018"><a xlink:title=" ">
<path fill="none" stroke="#63b8ff" d="M661.05,-800.93C729.35,-796.69 863.43,-785.84 905,-764.12 949.3,-740.99 985.03,-692.73 1002.95,-664.98"/>
<polygon fill="#63b8ff" stroke="#63b8ff" points="1005.78,-667.06 1008.13,-656.72 999.85,-663.34 1005.78,-667.06"/>
</a>
</g>
</g>
<!-- Node17&#45;&gt;Node18 -->
<g id="edge19_Node000017_Node000018" class="edge">
<title>Node17&#45;&gt;Node18</title>
<g id="a_edge19_Node000017_Node000018"><a xlink:title=" ">
<path fill="none" stroke="#63b8ff" d="M864.97,-644.12C894.76,-644.12 935.84,-644.12 967.56,-644.12"/>
<polygon fill="#63b8ff" stroke="#63b8ff" points="967.27,-647.63 977.27,-644.13 967.27,-640.63 967.27,-647.63"/>
</a>
</g>
</g>
<!-- Node19&#45;&gt;Node17 -->
<g id="edge24_Node000019_Node000017" class="edge">
<title>Node19&#45;&gt;Node17</title>
<g id="a_edge24_Node000019_Node000017"><a xlink:title=" ">
<path fill="none" stroke="#63b8ff" d="M659.46,-612.64C691.96,-618.88 738.35,-627.77 773.54,-634.52"/>
<polygon fill="#63b8ff" stroke="#63b8ff" points="772.57,-637.9 783.05,-636.34 773.88,-631.02 772.57,-637.9"/>
</a>
</g>
</g>
<!-- Node19&#45;&gt;Node18 -->
<g id="edge25_Node000019_Node000018" class="edge">
<title>Node19&#45;&gt;Node18</title>
<g id="a_edge25_Node000019_Node000018"><a xlink:title=" ">
<path fill="none" stroke="#63b8ff" d="M659.53,-606.35C714.58,-608.38 817.72,-613.35 905,-624.12 925.61,-626.67 948.19,-630.56 967.54,-634.23"/>
<polygon fill="#63b8ff" stroke="#63b8ff" points="966.86,-637.66 977.34,-636.13 968.19,-630.79 966.86,-637.66"/>
</a>
</g>
</g>
<!-- Node20 -->
<g id="Node000020" class="node">
<title>Node20</title>
<g id="a_Node000020"><a xlink:href="bsp__pwm_8c.html#a4bdefcd18b0b080f1e8db825e33c80e8" target="_top" xlink:title="使能功率输出（解除封波）">
<polygon fill="white" stroke="#666666" points="885.5,-518.25 763.75,-518.25 763.75,-496 885.5,-496 885.5,-518.25"/>
<text xml:space="preserve" text-anchor="middle" x="824.62" y="-502.85" font-family="Helvetica,sans-Serif" font-size="12.00">BSP_PWM_Enable</text>
</a>
</g>
</g>
<!-- Node19&#45;&gt;Node20 -->
<g id="edge22_Node000019_Node000020" class="edge">
<title>Node19&#45;&gt;Node20</title>
<g id="a_edge22_Node000019_Node000020"><a xlink:title=" ">
<path fill="none" stroke="#63b8ff" d="M643.98,-593.69C679.93,-576.37 748.38,-543.38 789.62,-523.51"/>
<polygon fill="#63b8ff" stroke="#63b8ff" points="790.88,-526.79 798.37,-519.29 787.84,-520.48 790.88,-526.79"/>
</a>
</g>
</g>
<!-- Node19&#45;&gt;Node22 -->
<g id="edge26_Node000019_Node000022" class="edge">
<title>Node19&#45;&gt;Node22</title>
<g id="a_edge26_Node000019_Node000022"><a xlink:title=" ">
<path fill="none" stroke="#63b8ff" d="M659.53,-612.03C675.35,-615.88 693.34,-621.65 708.25,-630.12 727.38,-641 724.96,-653.54 744.25,-664.12 747.11,-665.7 750.1,-667.14 753.17,-668.48"/>
<polygon fill="#63b8ff" stroke="#63b8ff" points="751.83,-671.72 762.42,-672.07 754.36,-665.19 751.83,-671.72"/>
</a>
</g>
</g>
<!-- Node21 -->
<g id="Node000021" class="node">
<title>Node21</title>
<g id="a_Node000021"><a xlink:href="bsp__pwm_8c.html#af4a87e2cef845a3eba6d0170011ff08d" target="_top" xlink:title="三相占空比清零（低侧全导通：自举预充/动态刹车态）">
<polygon fill="white" stroke="#666666" points="1092,-518.25 941,-518.25 941,-496 1092,-496 1092,-518.25"/>
<text xml:space="preserve" text-anchor="middle" x="1016.5" y="-502.85" font-family="Helvetica,sans-Serif" font-size="12.00">BSP_PWM_SetDutyZero</text>
</a>
</g>
</g>
<!-- Node20&#45;&gt;Node21 -->
<g id="edge23_Node000020_Node000021" class="edge">
<title>Node20&#45;&gt;Node21</title>
<g id="a_edge23_Node000020_Node000021"><a xlink:title=" ">
<path fill="none" stroke="#63b8ff" d="M885.96,-507.12C899.81,-507.12 914.79,-507.12 929.49,-507.12"/>
<polygon fill="#63b8ff" stroke="#63b8ff" points="929.13,-510.63 939.13,-507.13 929.13,-503.63 929.13,-510.63"/>
</a>
</g>
</g>
<!-- Node26 -->
<g id="Node000026" class="node">
<title>Node26</title>
<g id="a_Node000026"><a xlink:href="motor__ctrl_8c.html#a5cbc0a7993d542a75e755f2e4dc5ab1e" target="_top" xlink:title="对称限幅">
<polygon fill="white" stroke="#666666" points="863,-298.25 786.25,-298.25 786.25,-276 863,-276 863,-298.25"/>
<text xml:space="preserve" text-anchor="middle" x="824.62" y="-282.85" font-family="Helvetica,sans-Serif" font-size="12.00">MC_Clamp</text>
</a>
</g>
</g>
<!-- Node25&#45;&gt;Node26 -->
<g id="edge30_Node000025_Node000026" class="edge">
<title>Node25&#45;&gt;Node26</title>
<g id="a_edge30_Node000025_Node000026"><a xlink:title=" ">
<path fill="none" stroke="#63b8ff" d="M676.36,-287.12C707.19,-287.12 745.06,-287.12 774.68,-287.12"/>
<polygon fill="#63b8ff" stroke="#63b8ff" points="774.49,-290.63 784.49,-287.13 774.49,-283.63 774.49,-290.63"/>
</a>
</g>
</g>
<!-- Node29&#45;&gt;Node17 -->
<g id="edge37_Node000029_Node000017" class="edge">
<title>Node29&#45;&gt;Node17</title>
<g id="a_edge37_Node000029_Node000017"><a xlink:title=" ">
<path fill="none" stroke="#63b8ff" d="M682.12,-452.46C691.75,-455.62 700.91,-460.29 708.25,-467.12 748.67,-504.8 712.29,-541.05 744.25,-586.12 756.27,-603.07 774.8,-617.02 790.94,-626.98"/>
<polygon fill="#63b8ff" stroke="#63b8ff" points="788.9,-629.84 799.3,-631.9 792.45,-623.81 788.9,-629.84"/>
</a>
</g>
</g>
<!-- Node29&#45;&gt;Node20 -->
<g id="edge34_Node000029_Node000020" class="edge">
<title>Node29&#45;&gt;Node20</title>
<g id="a_edge34_Node000029_Node000020"><a xlink:title=" ">
<path fill="none" stroke="#63b8ff" d="M675.41,-458.68C686.35,-461.25 697.71,-464.11 708.25,-467.12 733.36,-474.31 761.02,-483.84 782.96,-491.8"/>
<polygon fill="#63b8ff" stroke="#63b8ff" points="781.54,-495 792.13,-495.16 783.94,-488.43 781.54,-495"/>
</a>
</g>
</g>
<!-- Node30 -->
<g id="Node000030" class="node">
<title>Node30</title>
<g id="a_Node000030"><a xlink:href="calibration_8c.html#a799bd918d9fd1f5b3c231d1d92b7fe0d" target="_top" xlink:title="启动校准状态机">
<polygon fill="white" stroke="#666666" points="860.38,-458.25 788.88,-458.25 788.88,-436 860.38,-436 860.38,-458.25"/>
<text xml:space="preserve" text-anchor="middle" x="824.62" y="-442.85" font-family="Helvetica,sans-Serif" font-size="12.00">CAL_Start</text>
</a>
</g>
</g>
<!-- Node29&#45;&gt;Node30 -->
<g id="edge35_Node000029_Node000030" class="edge">
<title>Node29&#45;&gt;Node30</title>
<g id="a_edge35_Node000029_Node000030"><a xlink:title=" ">
<path fill="none" stroke="#63b8ff" d="M682.1,-447.12C712.81,-447.12 749.28,-447.12 777.5,-447.12"/>
<polygon fill="#63b8ff" stroke="#63b8ff" points="777.15,-450.63 787.15,-447.13 777.15,-443.63 777.15,-450.63"/>
</a>
</g>
</g>
<!-- Node31 -->
<g id="Node000031" class="node">
<title>Node31</title>
<g id="a_Node000031"><a xlink:href="bsp__encoder_8c.html#a3daa1572c53aadb74b5ef71eb5422da8" target="_top" xlink:title="读取方向反转标志">
<polygon fill="white" stroke="#666666" points="1080.75,-458.25 952.25,-458.25 952.25,-436 1080.75,-436 1080.75,-458.25"/>
<text xml:space="preserve" text-anchor="middle" x="1016.5" y="-442.85" font-family="Helvetica,sans-Serif" font-size="12.00">BSP_ENC_GetInvert</text>
</a>
</g>
</g>
<!-- Node30&#45;&gt;Node31 -->
<g id="edge36_Node000030_Node000031" class="edge">
<title>Node30&#45;&gt;Node31</title>
<g id="a_edge36_Node000030_Node000031"><a xlink:title=" ">
<path fill="none" stroke="#63b8ff" d="M860.45,-447.12C882.94,-447.12 913.07,-447.12 940.79,-447.12"/>
<polygon fill="#63b8ff" stroke="#63b8ff" points="940.58,-450.63 950.58,-447.13 940.58,-443.63 940.58,-450.63"/>
</a>
</g>
</g>
<!-- Node32&#45;&gt;Node15 -->
<g id="edge43_Node000032_Node000015" class="edge">
<title>Node32&#45;&gt;Node15</title>
<g id="a_edge43_Node000032_Node000015"><a xlink:title=" ">
<path fill="none" stroke="#63b8ff" d="M481.95,-774.75C508.59,-780.29 540.26,-786.89 566.37,-792.32"/>
<polygon fill="#63b8ff" stroke="#63b8ff" points="565.58,-795.73 576.08,-794.35 567,-788.88 565.58,-795.73"/>
</a>
</g>
</g>
<!-- Node32&#45;&gt;Node19 -->
<g id="edge44_Node000032_Node000019" class="edge">
<title>Node32&#45;&gt;Node19</title>
<g id="a_edge44_Node000032_Node000019"><a xlink:title=" ">
<path fill="none" stroke="#63b8ff" d="M436.76,-751.62C454.95,-732.25 493.63,-692.38 530.25,-663.12 548.89,-648.23 571.38,-633.46 588.95,-622.55"/>
<polygon fill="#63b8ff" stroke="#63b8ff" points="590.68,-625.6 597.38,-617.4 587.02,-619.63 590.68,-625.6"/>
</a>
</g>
</g>
<!-- Node32&#45;&gt;Node22 -->
<g id="edge49_Node000032_Node000022" class="edge">
<title>Node32&#45;&gt;Node22</title>
<g id="a_edge49_Node000032_Node000022"><a xlink:title=" ">
<path fill="none" stroke="#63b8ff" d="M440.21,-774.51C459.27,-789.12 494.98,-813.69 530.25,-823.12 606.67,-843.57 643.45,-868.51 708.25,-823.12 746.6,-796.27 713.15,-759.13 744.25,-724.12 753.13,-714.13 765.09,-706.32 777.02,-700.36"/>
<polygon fill="#63b8ff" stroke="#63b8ff" points="778.42,-703.57 786.05,-696.22 775.51,-697.21 778.42,-703.57"/>
</a>
</g>
</g>
<!-- Node32&#45;&gt;Node23 -->
<g id="edge46_Node000032_Node000023" class="edge">
<title>Node32&#45;&gt;Node23</title>
<g id="a_edge46_Node000032_Node000023"><a xlink:title=" ">
<path fill="none" stroke="#63b8ff" d="M442.3,-751.74C462.14,-738.27 497.22,-716.05 530.25,-703.12 540.64,-699.06 552.07,-695.7 563.15,-692.98"/>
<polygon fill="#63b8ff" stroke="#63b8ff" points="563.62,-696.46 572.58,-690.81 562.05,-689.64 563.62,-696.46"/>
</a>
</g>
</g>
<!-- Node32&#45;&gt;Node28 -->
<g id="edge47_Node000032_Node000028" class="edge">
<title>Node32&#45;&gt;Node28</title>
<g id="a_edge47_Node000032_Node000028"><a xlink:title=" ">
<path fill="none" stroke="#63b8ff" d="M481.95,-751.5C504.04,-746.9 529.6,-741.58 552.57,-736.8"/>
<polygon fill="#63b8ff" stroke="#63b8ff" points="553.05,-740.27 562.13,-734.81 551.62,-733.42 553.05,-740.27"/>
</a>
</g>
</g>
<!-- Node33 -->
<g id="Node000033" class="node">
<title>Node33</title>
<g id="a_Node000033"><a xlink:href="app__can__protocol_8c.html#a3f462aec782e36efd750a47844167fae" target="_top" xlink:title="发送 MIT 反馈帧（B0=ID，P16 V12 T12，发往主机 ID）">
<polygon fill="white" stroke="#666666" points="708.25,-774.25 530.25,-774.25 530.25,-752 708.25,-752 708.25,-774.25"/>
<text xml:space="preserve" text-anchor="middle" x="619.25" y="-758.85" font-family="Helvetica,sans-Serif" font-size="12.00">APP_CAN_SendMitFeedback</text>
</a>
</g>
</g>
<!-- Node32&#45;&gt;Node33 -->
<g id="edge40_Node000032_Node000033" class="edge">
<title>Node32&#45;&gt;Node33</title>
<g id="a_edge40_Node000032_Node000033"><a xlink:title=" ">
<path fill="none" stroke="#63b8ff" d="M493.05,-763.12C501.33,-763.12 509.94,-763.12 518.58,-763.12"/>
<polygon fill="#63b8ff" stroke="#63b8ff" points="518.42,-766.63 528.42,-763.13 518.42,-759.63 518.42,-766.63"/>
</a>
</g>
</g>
<!-- Node35 -->
<g id="Node000035" class="node">
<title>Node35</title>
<g id="a_Node000035"><a xlink:href="motor__ctrl_8c.html#a594eac2b46116c156ad61f86ae7e4678" target="_top" xlink:title="设置 MIT 阻抗指令（五元组原子更新）">
<polygon fill="white" stroke="#666666" points="684.62,-932.25 553.88,-932.25 553.88,-910 684.62,-910 684.62,-932.25"/>
<text xml:space="preserve" text-anchor="middle" x="619.25" y="-916.85" font-family="Helvetica,sans-Serif" font-size="12.00">MC_SetMitCommand</text>
</a>
</g>
</g>
<!-- Node32&#45;&gt;Node35 -->
<g id="edge45_Node000032_Node000035" class="edge">
<title>Node32&#45;&gt;Node35</title>
<g id="a_edge45_Node000032_Node000035"><a xlink:title=" ">
<path fill="none" stroke="#63b8ff" d="M431.27,-774.56C443.94,-801.32 479.34,-868.21 530.25,-901.12 534.25,-903.71 538.53,-905.96 542.99,-907.92"/>
<polygon fill="#63b8ff" stroke="#63b8ff" points="541.61,-911.15 552.2,-911.46 544.12,-904.61 541.61,-911.15"/>
</a>
</g>
</g>
<!-- Node36 -->
<g id="Node000036" class="node">
<title>Node36</title>
<g id="a_Node000036"><a xlink:href="app__can__protocol_8c.html#a53bb63a1ac49bb84cd3f88ef1cc02112" target="_top" xlink:title="mini&#45;cheetah 解包：无符号整数 &#45;&gt; float">
<polygon fill="white" stroke="#666666" points="671.5,-892.25 567,-892.25 567,-870 671.5,-870 671.5,-892.25"/>
<text xml:space="preserve" text-anchor="middle" x="619.25" y="-876.85" font-family="Helvetica,sans-Serif" font-size="12.00">MIT_UintToFloat</text>
</a>
</g>
</g>
<!-- Node32&#45;&gt;Node36 -->
<g id="edge48_Node000032_Node000036" class="edge">
<title>Node32&#45;&gt;Node36</title>
<g id="a_edge48_Node000032_Node000036"><a xlink:title=" ">
<path fill="none" stroke="#63b8ff" d="M435.81,-774.68C452.88,-794.3 490.32,-834.16 530.25,-856.12 538.26,-860.53 547.12,-864.22 556.05,-867.29"/>
<polygon fill="#63b8ff" stroke="#63b8ff" points="554.87,-870.59 565.46,-870.28 556.99,-863.92 554.87,-870.59"/>
</a>
</g>
</g>
<!-- Node33&#45;&gt;Node5 -->
<g id="edge41_Node000033_Node000005" class="edge">
<title>Node33&#45;&gt;Node5</title>
<g id="a_edge41_Node000033_Node000005"><a xlink:title=" ">
<path fill="none" stroke="#63b8ff" d="M696.46,-751.61C700.71,-749.24 704.7,-746.44 708.25,-743.12 748.67,-705.45 712.29,-669.2 744.25,-624.12 756.27,-607.18 774.8,-593.23 790.94,-583.27"/>
<polygon fill="#63b8ff" stroke="#63b8ff" points="792.45,-586.44 799.3,-578.35 788.9,-580.41 792.45,-586.44"/>
</a>
</g>
</g>
<!-- Node34 -->
<g id="Node000034" class="node">
<title>Node34</title>
<g id="a_Node000034"><a xlink:href="app__can__protocol_8c.html#a374783cd12e7c5b94cb6926640bc0980" target="_top" xlink:title="mini&#45;cheetah 打包：float &#45;&gt; 无符号整数">
<polygon fill="white" stroke="#666666" points="876.88,-755.25 772.38,-755.25 772.38,-733 876.88,-733 876.88,-755.25"/>
<text xml:space="preserve" text-anchor="middle" x="824.62" y="-739.85" font-family="Helvetica,sans-Serif" font-size="12.00">MIT_FloatToUint</text>
</a>
</g>
</g>
<!-- Node33&#45;&gt;Node34 -->
<g id="edge42_Node000033_Node000034" class="edge">
<title>Node33&#45;&gt;Node34</title>
<g id="a_edge42_Node000033_Node000034"><a xlink:title=" ">
<path fill="none" stroke="#63b8ff" d="M708.57,-754.87C726.16,-753.23 744.3,-751.54 760.82,-749.99"/>
<polygon fill="#63b8ff" stroke="#63b8ff" points="760.84,-753.51 770.47,-749.09 760.19,-746.54 760.84,-753.51"/>
</a>
</g>
</g>
<!-- Node38 -->
<g id="Node000038" class="node">
<title>Node38</title>
<g id="a_Node000038"><a xlink:href="main_8c.html#a1730ffe1e560465665eb47d9264826f9" target="_top" xlink:title="This function is executed in case of error occurrence.">
<polygon fill="white" stroke="#666666" points="471,-62.25 379.25,-62.25 379.25,-40 471,-40 471,-62.25"/>
<text xml:space="preserve" text-anchor="middle" x="425.12" y="-46.85" font-family="Helvetica,sans-Serif" font-size="12.00">Error_Handler</text>
</a>
</g>
</g>
<!-- Node37&#45;&gt;Node38 -->
<g id="edge51_Node000037_Node000038" class="edge">
<title>Node37&#45;&gt;Node38</title>
<g id="a_edge51_Node000037_Node000038"><a xlink:title=" ">
<path fill="none" stroke="#63b8ff" d="M274.56,-51.12C302.5,-51.12 338.02,-51.12 367.44,-51.12"/>
<polygon fill="#63b8ff" stroke="#63b8ff" points="367.28,-54.63 377.28,-51.13 367.28,-47.63 367.28,-54.63"/>
</a>
</g>
</g>
</g>
</svg>

<g id="navigator" transform="translate(0 0)" fill="#404254">
  <rect fill="#f2f5e9" fill-opacity="0.5" stroke="#606060" stroke-width=".5" x="0" y="0" width="60" height="60"/>
  <use id="zoomplus" xlink:href="#zoomPlus" x="17" y="9" onmousedown="handleZoom(evt,'in')"/>
  <use id="zoomminus" xlink:href="#zoomMin" x="42" y="9" onmousedown="handleZoom(evt,'out')"/>
  <use id="reset" xlink:href="#resetDef" x="30" y="36" onmousedown="handleReset()"/>
   <use id="arrowup" xlink:href="#arrowUp" x="0" y="0" onmousedown="handlePan(0,-1)"/>
  <use id="arrowright" xlink:href="#arrowRight" x="0" y="0" onmousedown="handlePan(1,0)"/>
  <use id="arrowdown" xlink:href="#arrowDown" x="0" y="0" onmousedown="handlePan(0,1)"/>
  <use id="arrowleft" xlink:href="#arrowLeft" x="0" y="0" onmousedown="handlePan(-1,0)"/>
</g>
<svg viewBox="0 0 15 15" width="100%" height="30px" preserveAspectRatio="xMaxYMin meet">
 <g id="arrow_out" transform="scale(0.3 0.3)">
  <a xlink:href="app__can__protocol_8c_af389bd7cff6ae0b5df76c2feb46f25f6_cgraph_org.svg" target="_base">
   <rect id="button" ry="5" rx="5" y="6" x="6" height="38" width="38"
        fill="#f2f5e9" fill-opacity="0.5" stroke="#606060" stroke-width="1.0"/>
   <path id="arrow"
     d="M 11.500037,31.436501 C 11.940474,20.09759 22.043105,11.32322 32.158766,21.979434 L 37.068811,17.246167 C 37.068811,17.246167 37.088388,32 37.088388,32 L 22.160133,31.978069 C 22.160133,31.978069 26.997745,27.140456 26.997745,27.140456 C 18.528582,18.264221 13.291696,25.230495 11.500037,31.436501 z"
     style="fill:#404040;"/>
  </a>
 </g>
</svg>

<style type='text/css'>
<![CDATA[
[data-mouse-over-selected='false'] { opacity: 0.7; }
[data-mouse-over-selected='true']  { opacity: 1.0; }
]]>
</style>
<script type="application/ecmascript"><![CDATA[
document.addEventListener('DOMContentLoaded', (event) => {
  highlightEdges();
  highlightAdjacentNodes();
});
]]></script>
</svg>
