<?xml version="1.0" encoding="UTF-8" standalone="no"?>
<!DOCTYPE svg PUBLIC "-//W3C//DTD SVG 1.1//EN"
 "http://www.w3.org/Graphics/SVG/1.1/DTD/svg11.dtd">
<!-- Generated by graphviz version 15.1.0 (20260618.0150)
 -->
<!-- Title: APP_SHELL_GetSet Pages: 1 -->
<svg width="721pt" height="150pt"
 viewBox="0.00 0.00 721.00 150.00" xmlns="http://www.w3.org/2000/svg" xmlns:xlink="http://www.w3.org/1999/xlink">
<g id="graph0" class="graph" transform="scale(1 1) rotate(0) translate(4 146.25)">
<title>APP_SHELL_GetSet</title>
<!-- Node1 -->
<g id="Node000001" class="node">
<title>Node1</title>
<g id="a_Node000001"><a xlink:title="get/set 命令处理">
<polygon fill="#999999" stroke="#666666" points="130,-82.25 0,-82.25 0,-60 130,-60 130,-82.25"/>
<text xml:space="preserve" text-anchor="middle" x="65" y="-66.85" font-family="Helvetica,sans-Serif" font-size="12.00">APP_SHELL_GetSet</text>
</a>
</g>
</g>
<!-- Node2 -->
<g id="Node000002" class="node">
<title>Node2</title>
<g id="a_Node000002"><a xlink:href="app__can__protocol_8c.html#ae97d64d8caba7a4aee7b6ef40a26afb7" target="_top" xlink:title="按索引读参数（CAN 配置通道与 shell 共用）">
<polygon fill="white" stroke="#666666" points="344,-142.25 166,-142.25 166,-120 344,-120 344,-142.25"/>
<text xml:space="preserve" text-anchor="middle" x="255" y="-126.85" font-family="Helvetica,sans-Serif" font-size="12.00">APP_CAN_GetParamByIndex</text>
</a>
</g>
</g>
<!-- Node1&#45;&gt;Node2 -->
<g id="edge1_Node000001_Node000002" class="edge">
<title>Node1&#45;&gt;Node2</title>
<g id="a_edge1_Node000001_Node000002"><a xlink:title=" ">
<path fill="none" stroke="#63b8ff" d="M91.5,-82.62C111.47,-91.3 140.11,-103.06 166,-111.12 172.48,-113.14 179.28,-115.05 186.12,-116.83"/>
<polygon fill="#63b8ff" stroke="#63b8ff" points="184.83,-120.11 195.38,-119.14 186.53,-113.32 184.83,-120.11"/>
</a>
</g>
</g>
<!-- Node3 -->
<g id="Node000003" class="node">
<title>Node3</title>
<g id="a_Node000003"><a xlink:href="app__can__protocol_8c.html#a1c22c988dc67c917a70b53b3386fcfca" target="_top" xlink:title="按索引写参数（只读项与非法值拒绝，CAN 配置通道与 shell 共用）">
<polygon fill="white" stroke="#666666" points="343.62,-102.25 166.38,-102.25 166.38,-80 343.62,-80 343.62,-102.25"/>
<text xml:space="preserve" text-anchor="middle" x="255" y="-86.85" font-family="Helvetica,sans-Serif" font-size="12.00">APP_CAN_SetParamByIndex</text>
</a>
</g>
</g>
<!-- Node1&#45;&gt;Node3 -->
<g id="edge2_Node000001_Node000003" class="edge">
<title>Node1&#45;&gt;Node3</title>
<g id="a_edge2_Node000001_Node000003"><a xlink:title=" ">
<path fill="none" stroke="#63b8ff" d="M130.44,-77.98C138.33,-78.82 146.53,-79.69 154.79,-80.57"/>
<polygon fill="#63b8ff" stroke="#63b8ff" points="154.23,-84.03 164.55,-81.61 154.97,-77.07 154.23,-84.03"/>
</a>
</g>
</g>
<!-- Node7 -->
<g id="Node000007" class="node">
<title>Node7</title>
<g id="a_Node000007"><a xlink:href="app__shell_8c.html#a7715eb44f2cff0acbc6fe08f5fcc6eb8" target="_top" xlink:title="参数名查表">
<polygon fill="white" stroke="#666666" points="331.25,-62.25 178.75,-62.25 178.75,-40 331.25,-40 331.25,-62.25"/>
<text xml:space="preserve" text-anchor="middle" x="255" y="-46.85" font-family="Helvetica,sans-Serif" font-size="12.00">APP_SHELL_FindParam</text>
</a>
</g>
</g>
<!-- Node1&#45;&gt;Node7 -->
<g id="edge6_Node000001_Node000007" class="edge">
<title>Node1&#45;&gt;Node7</title>
<g id="a_edge6_Node000001_Node000007"><a xlink:title=" ">
<path fill="none" stroke="#63b8ff" d="M130.44,-64.27C142.24,-63.01 154.73,-61.69 167.06,-60.37"/>
<polygon fill="#63b8ff" stroke="#63b8ff" points="167.23,-63.88 176.81,-59.34 166.49,-56.91 167.23,-63.88"/>
</a>
</g>
</g>
<!-- Node8 -->
<g id="Node000008" class="node">
<title>Node8</title>
<g id="a_Node000008"><a xlink:href="bsp__uart_8c.html#ac8fe8954e03174bb365847f52531e218" target="_top" xlink:title="格式化打印到调试串口（非阻塞）">
<polygon fill="white" stroke="#666666" points="312.5,-22.25 197.5,-22.25 197.5,0 312.5,0 312.5,-22.25"/>
<text xml:space="preserve" text-anchor="middle" x="255" y="-6.85" font-family="Helvetica,sans-Serif" font-size="12.00">BSP_UART_Printf</text>
</a>
</g>
</g>
<!-- Node1&#45;&gt;Node8 -->
<g id="edge7_Node000001_Node000008" class="edge">
<title>Node1&#45;&gt;Node8</title>
<g id="a_edge7_Node000001_Node000008"><a xlink:title=" ">
<path fill="none" stroke="#63b8ff" d="M91.5,-59.63C111.47,-50.95 140.11,-39.19 166,-31.12 172.58,-29.08 179.49,-27.14 186.43,-25.34"/>
<polygon fill="#63b8ff" stroke="#63b8ff" points="186.99,-28.81 195.85,-22.99 185.3,-22.02 186.99,-28.81"/>
</a>
</g>
</g>
<!-- Node4 -->
<g id="Node000004" class="node">
<title>Node4</title>
<g id="a_Node000004"><a xlink:href="bsp__can_8c.html#ab09830a7aa5df9b3a6fa393538f81ab8" target="_top" xlink:title="切换 120 欧终端电阻（TS5A3159 模拟开关）">
<polygon fill="white" stroke="#666666" points="540.75,-122.25 380,-122.25 380,-100 540.75,-100 540.75,-122.25"/>
<text xml:space="preserve" text-anchor="middle" x="460.38" y="-106.85" font-family="Helvetica,sans-Serif" font-size="12.00">BSP_CAN_SetTermination</text>
</a>
</g>
</g>
<!-- Node3&#45;&gt;Node4 -->
<g id="edge3_Node000003_Node000004" class="edge">
<title>Node3&#45;&gt;Node4</title>
<g id="a_edge3_Node000003_Node000004"><a xlink:title=" ">
<path fill="none" stroke="#63b8ff" d="M344.02,-99.78C352.05,-100.57 360.19,-101.37 368.24,-102.16"/>
<polygon fill="#63b8ff" stroke="#63b8ff" points="367.74,-105.63 378.04,-103.13 368.43,-98.66 367.74,-105.63"/>
</a>
</g>
</g>
<!-- Node5 -->
<g id="Node000005" class="node">
<title>Node5</title>
<g id="a_Node000005"><a xlink:href="motor__ctrl_8c.html#acd57a3a6a71d8ec4261dca794251a12a" target="_top" xlink:title="参数修改后刷新 PID 增益（shell/CAN 调参后调用）">
<polygon fill="white" stroke="#666666" points="526.12,-82.25 394.62,-82.25 394.62,-60 526.12,-60 526.12,-82.25"/>
<text xml:space="preserve" text-anchor="middle" x="460.38" y="-66.85" font-family="Helvetica,sans-Serif" font-size="12.00">MC_ApplyPidParams</text>
</a>
</g>
</g>
<!-- Node3&#45;&gt;Node5 -->
<g id="edge4_Node000003_Node000005" class="edge">
<title>Node3&#45;&gt;Node5</title>
<g id="a_edge4_Node000003_Node000005"><a xlink:title=" ">
<path fill="none" stroke="#63b8ff" d="M344.02,-82.47C356.92,-81.2 370.13,-79.9 382.78,-78.66"/>
<polygon fill="#63b8ff" stroke="#63b8ff" points="383.1,-82.14 392.71,-77.68 382.42,-75.18 383.1,-82.14"/>
</a>
</g>
</g>
<!-- Node6 -->
<g id="Node000006" class="node">
<title>Node6</title>
<g id="a_Node000006"><a xlink:href="pid_8c.html#a8977cc689f8f72deff8a981ff5da901f" target="_top" xlink:title="运行中修改增益（不复位积分，保证无扰切换）">
<polygon fill="white" stroke="#666666" points="691,-82.25 598.5,-82.25 598.5,-60 691,-60 691,-82.25"/>
<text xml:space="preserve" text-anchor="middle" x="644.75" y="-66.85" font-family="Helvetica,sans-Serif" font-size="12.00">PID_SetGains</text>
</a>
</g>
</g>
<!-- Node5&#45;&gt;Node6 -->
<g id="edge5_Node000005_Node000006" class="edge">
<title>Node5&#45;&gt;Node6</title>
<g id="a_edge5_Node000005_Node000006"><a xlink:title=" ">
<path fill="none" stroke="#63b8ff" d="M526.44,-71.12C546.19,-71.12 567.72,-71.12 586.88,-71.12"/>
<polygon fill="#63b8ff" stroke="#63b8ff" points="586.65,-74.63 596.65,-71.13 586.65,-67.63 586.65,-74.63"/>
</a>
</g>
</g>
<!-- Node9 -->
<g id="Node000009" class="node">
<title>Node9</title>
<g id="a_Node000009"><a xlink:href="bsp__uart_8c.html#a67e2eb7d361398076d0800612430f13c" target="_top" xlink:title="向 TX 环形缓冲写入数据（非阻塞）">
<polygon fill="white" stroke="#666666" points="517.88,-22.25 402.88,-22.25 402.88,0 517.88,0 517.88,-22.25"/>
<text xml:space="preserve" text-anchor="middle" x="460.38" y="-6.85" font-family="Helvetica,sans-Serif" font-size="12.00">BSP_UART_Write</text>
</a>
</g>
</g>
<!-- Node8&#45;&gt;Node9 -->
<g id="edge8_Node000008_Node000009" class="edge">
<title>Node8&#45;&gt;Node9</title>
<g id="a_edge8_Node000008_Node000009"><a xlink:title=" ">
<path fill="none" stroke="#63b8ff" d="M312.92,-11.12C337.17,-11.12 365.67,-11.12 391.05,-11.12"/>
<polygon fill="#63b8ff" stroke="#63b8ff" points="390.95,-14.63 400.95,-11.13 390.95,-7.63 390.95,-14.63"/>
</a>
</g>
</g>
<!-- Node10 -->
<g id="Node000010" class="node">
<title>Node10</title>
<g id="a_Node000010"><a xlink:href="bsp__uart_8c.html#ad4dee4b2dd593f1d4c141de95156546d" target="_top" xlink:title="若 DMA 空闲且缓冲有数据，则启动下一段 DMA 传输">
<polygon fill="white" stroke="#666666" points="712.75,-22.25 576.75,-22.25 576.75,0 712.75,0 712.75,-22.25"/>
<text xml:space="preserve" text-anchor="middle" x="644.75" y="-6.85" font-family="Helvetica,sans-Serif" font-size="12.00">BSP_UART_KickDma</text>
</a>
</g>
</g>
<!-- Node9&#45;&gt;Node10 -->
<g id="edge9_Node000009_Node000010" class="edge">
<title>Node9&#45;&gt;Node10</title>
<g id="a_edge9_Node000009_Node000010"><a xlink:title=" ">
<path fill="none" stroke="#63b8ff" d="M518.08,-11.12C532.97,-11.12 549.3,-11.12 565.12,-11.12"/>
<polygon fill="#63b8ff" stroke="#63b8ff" points="565.01,-14.63 575.01,-11.13 565.01,-7.63 565.01,-14.63"/>
</a>
</g>
</g>
</g>
</svg>
