<?xml version="1.0" encoding="UTF-8" standalone="no"?>
<!DOCTYPE svg PUBLIC "-//W3C//DTD SVG 1.1//EN"
 "http://www.w3.org/Graphics/SVG/1.1/DTD/svg11.dtd">
<!-- Generated by graphviz version 15.1.0 (20260618.0150)
 -->
<!-- Title: APP_MON_Init Pages: 1 -->
<svg width="283pt" height="30pt"
 viewBox="0.00 0.00 283.00 30.00" xmlns="http://www.w3.org/2000/svg" xmlns:xlink="http://www.w3.org/1999/xlink">
<g id="graph0" class="graph" transform="scale(1 1) rotate(0) translate(4 26.25)">
<title>APP_MON_Init</title>
<!-- Node1 -->
<g id="Node000001" class="node">
<title>Node1</title>
<g id="a_Node000001"><a xlink:title="初始化监控模块">
<polygon fill="#999999" stroke="#666666" points="275.25,-22.25 177.5,-22.25 177.5,0 275.25,0 275.25,-22.25"/>
<text xml:space="preserve" text-anchor="middle" x="226.38" y="-6.85" font-family="Helvetica,sans-Serif" font-size="12.00">APP_MON_Init</text>
</a>
</g>
</g>
<!-- Node2 -->
<g id="Node000002" class="node">
<title>Node2</title>
<g id="a_Node000002"><a xlink:href="app__main_8c.html#a4759d3fdff6b33e2c0a0ae151452112f" target="_top" xlink:title="应用初始化（main 的 USER CODE BEGIN 2 调用）">
<polygon fill="white" stroke="#666666" points="141.5,-22.25 78.25,-22.25 78.25,0 141.5,0 141.5,-22.25"/>
<text xml:space="preserve" text-anchor="middle" x="109.88" y="-6.85" font-family="Helvetica,sans-Serif" font-size="12.00">APP_Init</text>
</a>
</g>
</g>
<!-- Node1&#45;&gt;Node2 -->
<g id="edge1_Node000001_Node000002" class="edge">
<title>Node1&#45;&gt;Node2</title>
<g id="a_edge1_Node000001_Node000002"><a xlink:title=" ">
<path fill="none" stroke="#63b8ff" d="M165.83,-11.12C157.5,-11.12 149.25,-11.12 141.76,-11.12"/>
<polygon fill="#63b8ff" stroke="#63b8ff" points="165.64,-14.63 175.64,-11.13 165.63,-7.63 165.64,-14.63"/>
</a>
</g>
</g>
<!-- Node3 -->
<g id="Node000003" class="node">
<title>Node3</title>
<g id="a_Node000003"><a xlink:href="main_8c.html#a840291bc02cba5474a4cb46a9b9566fe" target="_top" xlink:title="The application entry point.">
<polygon fill="white" stroke="#666666" points="42.25,-22.25 0,-22.25 0,0 42.25,0 42.25,-22.25"/>
<text xml:space="preserve" text-anchor="middle" x="21.12" y="-6.85" font-family="Helvetica,sans-Serif" font-size="12.00">main</text>
</a>
</g>
</g>
<!-- Node2&#45;&gt;Node3 -->
<g id="edge2_Node000002_Node000003" class="edge">
<title>Node2&#45;&gt;Node3</title>
<g id="a_edge2_Node000002_Node000003"><a xlink:title=" ">
<path fill="none" stroke="#63b8ff" d="M66.72,-11.12C58.3,-11.12 49.82,-11.12 42.54,-11.12"/>
<polygon fill="#63b8ff" stroke="#63b8ff" points="66.53,-14.63 76.53,-11.13 66.53,-7.63 66.53,-14.63"/>
</a>
</g>
</g>
</g>
</svg>
