<?xml version="1.0" encoding="UTF-8" standalone="no"?>
<!DOCTYPE svg PUBLIC "-//W3C//DTD SVG 1.1//EN"
 "http://www.w3.org/Graphics/SVG/1.1/DTD/svg11.dtd">
<!-- Generated by graphviz version 15.1.0 (20260618.0150)
 -->
<!-- Title: APP_MON_Poll Pages: 1 -->
<!--zoomable 150 -->

<svg id="main" version="1.1" xmlns="http://www.w3.org/2000/svg" xmlns:xlink="http://www.w3.org/1999/xlink" xml:space="preserve" onload="init(evt)">

<style type="text/css"><![CDATA[
.node, .edge {opacity: 0.7;}
.node.selected, .edge.selected {opacity: 1;}
.edge:hover path { stroke: red; }
.edge:hover polygon { stroke: red; fill: red; }
]]></style>

<defs>
  <circle id="rim" cx="0" cy="0" r="7"/>
  <circle id="rim2" cx="0" cy="0" r="3.5"/>
  <g id="zoomPlus">
    <use xlink:href="#rim" fill="#404040"><set attributeName="fill" to="#808080" begin="zoomplus.mouseover" end="zoomplus.mouseout"/></use>
    <path d="M-4,0h8M0,-4v8" fill="none" stroke="white" stroke-width="1.5" pointer-events="none"/>
  </g>
  <g id="zoomMin">
    <use xlink:href="#rim" fill="#404040"><set attributeName="fill" to="#808080" begin="zoomminus.mouseover" end="zoomminus.mouseout"/></use>
    <path d="M-4,0h8" fill="none" stroke="white" stroke-width="1.5" pointer-events="none"/>
  </g>
  <g id="arrowUp" transform="translate(30 24)">
    <use xlink:href="#rim"/>
    <path pointer-events="none" fill="none" stroke="white" stroke-width="1.5" d="M0,-3.0v7 M-2.5,-0.5L0,-3.0L2.5,-0.5"/>
  </g>
  <g id="arrowRight" transform="rotate(90) translate(36 -43)">
    <use xlink:href="#rim"/>
    <path pointer-events="none" fill="none" stroke="white" stroke-width="1.5" d="M0,-3.0v7 M-2.5,-0.5L0,-3.0L2.5,-0.5"/>
  </g>
  <g id="arrowDown" transform="rotate(180) translate(-30 -48)">
    <use xlink:href="#rim"/>
    <path pointer-events="none" fill="none" stroke="white" stroke-width="1.5" d="M0,-3.0v7 M-2.5,-0.5L0,-3.0L2.5,-0.5"/>
  </g>
  <g id="arrowLeft" transform="rotate(270) translate(-36 17)">
    <use xlink:href="#rim"/>
    <path pointer-events="none" fill="none" stroke="white" stroke-width="1.5" d="M0,-3.0v7 M-2.5,-0.5L0,-3.0L2.5,-0.5"/>
  </g>
  <g id="resetDef">
    <use xlink:href="#rim2" fill="#404040"><set attributeName="fill" to="#808080" begin="reset.mouseover" end="reset.mouseout"/></use>
  </g>
</defs>
<script type="application/ecmascript">
var viewWidth = 596;
var viewHeight = 150;
var sectionId = 'dynsection-3';
</script>
<script type="application/ecmascript" xlink:href="svg.min.js"/>
<svg id="graph" class="graph">
<g id="viewport">
<title>APP_MON_Poll</title>
<!-- Node1 -->
<g id="Node000001" class="node">
<title>Node1</title>
<g id="a_Node000001"><a xlink:title="周期日志轮询（后台调用）">
<polygon fill="#999999" stroke="#666666" points="103,-82.25 0,-82.25 0,-60 103,-60 103,-82.25"/>
<text xml:space="preserve" text-anchor="middle" x="51.5" y="-66.85" font-family="Helvetica,sans-Serif" font-size="12.00">APP_MON_Poll</text>
</a>
</g>
</g>
<!-- Node2 -->
<g id="Node000002" class="node">
<title>Node2</title>
<g id="a_Node000002"><a xlink:href="app__main_8c.html#ac8ace74f779c511fb8d2815fc84da4cd" target="_top" xlink:title="读取 MOS 温度缓存 [C]">
<polygon fill="white" stroke="#666666" points="260.75,-142.25 142.75,-142.25 142.75,-120 260.75,-120 260.75,-142.25"/>
<text xml:space="preserve" text-anchor="middle" x="201.75" y="-126.85" font-family="Helvetica,sans-Serif" font-size="12.00">APP_GetMosTemp</text>
</a>
</g>
</g>
<!-- Node1&#45;&gt;Node2 -->
<g id="edge1_Node000001_Node000002" class="edge">
<title>Node1&#45;&gt;Node2</title>
<g id="a_edge1_Node000001_Node000002"><a xlink:title=" ">
<path fill="none" stroke="#63b8ff" d="M75.3,-82.58C92.56,-91.03 116.97,-102.5 139,-111.12 143.13,-112.74 147.45,-114.34 151.81,-115.87"/>
<polygon fill="#63b8ff" stroke="#63b8ff" points="150.59,-119.16 161.18,-119.08 152.85,-112.53 150.59,-119.16"/>
</a>
</g>
</g>
<!-- Node3 -->
<g id="Node000003" class="node">
<title>Node3</title>
<g id="a_Node000003"><a xlink:href="app__main_8c.html#af1c8ed1fa98ee3361a1d12b25d58e298" target="_top" xlink:title="读取电机温度缓存 [C]">
<polygon fill="white" stroke="#666666" points="264.5,-102.25 139,-102.25 139,-80 264.5,-80 264.5,-102.25"/>
<text xml:space="preserve" text-anchor="middle" x="201.75" y="-86.85" font-family="Helvetica,sans-Serif" font-size="12.00">APP_GetMotorTemp</text>
</a>
</g>
</g>
<!-- Node1&#45;&gt;Node3 -->
<g id="edge2_Node000001_Node000003" class="edge">
<title>Node1&#45;&gt;Node3</title>
<g id="a_edge2_Node000001_Node000003"><a xlink:title=" ">
<path fill="none" stroke="#63b8ff" d="M103.1,-77.95C110.95,-79.01 119.18,-80.12 127.4,-81.23"/>
<polygon fill="#63b8ff" stroke="#63b8ff" points="126.69,-84.67 137.07,-82.53 127.63,-77.73 126.69,-84.67"/>
</a>
</g>
</g>
<!-- Node4 -->
<g id="Node000004" class="node">
<title>Node4</title>
<g id="a_Node000004"><a xlink:href="bsp__uart_8c.html#ac8fe8954e03174bb365847f52531e218" target="_top" xlink:title="格式化打印到调试串口（非阻塞）">
<polygon fill="white" stroke="#666666" points="259.25,-62.25 144.25,-62.25 144.25,-40 259.25,-40 259.25,-62.25"/>
<text xml:space="preserve" text-anchor="middle" x="201.75" y="-46.85" font-family="Helvetica,sans-Serif" font-size="12.00">BSP_UART_Printf</text>
</a>
</g>
</g>
<!-- Node1&#45;&gt;Node4 -->
<g id="edge3_Node000001_Node000004" class="edge">
<title>Node1&#45;&gt;Node4</title>
<g id="a_edge3_Node000001_Node000004"><a xlink:title=" ">
<path fill="none" stroke="#63b8ff" d="M103.1,-64.3C112.61,-63.02 122.7,-61.66 132.63,-60.31"/>
<polygon fill="#63b8ff" stroke="#63b8ff" points="132.81,-63.82 142.25,-59.02 131.88,-56.88 132.81,-63.82"/>
</a>
</g>
</g>
<!-- Node7 -->
<g id="Node000007" class="node">
<title>Node7</title>
<g id="a_Node000007"><a xlink:href="bsp__uart_8c.html#ad53db0bf6b7aefc698e0d23d6fdda51e" target="_top" xlink:title="查询 TX 环形缓冲剩余空间">
<polygon fill="white" stroke="#666666" points="264.5,-22.25 139,-22.25 139,0 264.5,0 264.5,-22.25"/>
<text xml:space="preserve" text-anchor="middle" x="201.75" y="-6.85" font-family="Helvetica,sans-Serif" font-size="12.00">BSP_UART_TxFree</text>
</a>
</g>
</g>
<!-- Node1&#45;&gt;Node7 -->
<g id="edge6_Node000001_Node000007" class="edge">
<title>Node1&#45;&gt;Node7</title>
<g id="a_edge6_Node000001_Node000007"><a xlink:title=" ">
<path fill="none" stroke="#63b8ff" d="M75.3,-59.67C92.56,-51.22 116.97,-39.75 139,-31.12 143.13,-29.51 147.45,-27.91 151.81,-26.38"/>
<polygon fill="#63b8ff" stroke="#63b8ff" points="152.85,-29.72 161.18,-23.17 150.59,-23.09 152.85,-29.72"/>
</a>
</g>
</g>
<!-- Node5 -->
<g id="Node000005" class="node">
<title>Node5</title>
<g id="a_Node000005"><a xlink:href="bsp__uart_8c.html#a67e2eb7d361398076d0800612430f13c" target="_top" xlink:title="向 TX 环形缓冲写入数据（非阻塞）">
<polygon fill="white" stroke="#666666" points="415.5,-62.25 300.5,-62.25 300.5,-40 415.5,-40 415.5,-62.25"/>
<text xml:space="preserve" text-anchor="middle" x="358" y="-46.85" font-family="Helvetica,sans-Serif" font-size="12.00">BSP_UART_Write</text>
</a>
</g>
</g>
<!-- Node4&#45;&gt;Node5 -->
<g id="edge4_Node000004_Node000005" class="edge">
<title>Node4&#45;&gt;Node5</title>
<g id="a_edge4_Node000004_Node000005"><a xlink:title=" ">
<path fill="none" stroke="#63b8ff" d="M259.75,-51.12C269.25,-51.12 279.19,-51.12 288.93,-51.12"/>
<polygon fill="#63b8ff" stroke="#63b8ff" points="288.72,-54.63 298.72,-51.13 288.72,-47.63 288.72,-54.63"/>
</a>
</g>
</g>
<!-- Node6 -->
<g id="Node000006" class="node">
<title>Node6</title>
<g id="a_Node000006"><a xlink:href="bsp__uart_8c.html#ad4dee4b2dd593f1d4c141de95156546d" target="_top" xlink:title="若 DMA 空闲且缓冲有数据，则启动下一段 DMA 传输">
<polygon fill="white" stroke="#666666" points="587.5,-62.25 451.5,-62.25 451.5,-40 587.5,-40 587.5,-62.25"/>
<text xml:space="preserve" text-anchor="middle" x="519.5" y="-46.85" font-family="Helvetica,sans-Serif" font-size="12.00">BSP_UART_KickDma</text>
</a>
</g>
</g>
<!-- Node5&#45;&gt;Node6 -->
<g id="edge5_Node000005_Node000006" class="edge">
<title>Node5&#45;&gt;Node6</title>
<g id="a_edge5_Node000005_Node000006"><a xlink:title=" ">
<path fill="none" stroke="#63b8ff" d="M415.68,-51.12C423.47,-51.12 431.58,-51.12 439.68,-51.12"/>
<polygon fill="#63b8ff" stroke="#63b8ff" points="439.58,-54.63 449.58,-51.13 439.58,-47.63 439.58,-54.63"/>
</a>
</g>
</g>
</g>
</svg>

<g id="navigator" transform="translate(0 0)" fill="#404254">
  <rect fill="#f2f5e9" fill-opacity="0.5" stroke="#606060" stroke-width=".5" x="0" y="0" width="60" height="60"/>
  <use id="zoomplus" xlink:href="#zoomPlus" x="17" y="9" onmousedown="handleZoom(evt,'in')"/>
  <use id="zoomminus" xlink:href="#zoomMin" x="42" y="9" onmousedown="handleZoom(evt,'out')"/>
  <use id="reset" xlink:href="#resetDef" x="30" y="36" onmousedown="handleReset()"/>
   <use id="arrowup" xlink:href="#arrowUp" x="0" y="0" onmousedown="handlePan(0,-1)"/>
  <use id="arrowright" xlink:href="#arrowRight" x="0" y="0" onmousedown="handlePan(1,0)"/>
  <use id="arrowdown" xlink:href="#arrowDown" x="0" y="0" onmousedown="handlePan(0,1)"/>
  <use id="arrowleft" xlink:href="#arrowLeft" x="0" y="0" onmousedown="handlePan(-1,0)"/>
</g>
<svg viewBox="0 0 15 15" width="100%" height="30px" preserveAspectRatio="xMaxYMin meet">
 <g id="arrow_out" transform="scale(0.3 0.3)">
  <a xlink:href="app__monitor_8h_aa50de6c3c6d7de9ecbd381513d6eb095_cgraph_org.svg" target="_base">
   <rect id="button" ry="5" rx="5" y="6" x="6" height="38" width="38"
        fill="#f2f5e9" fill-opacity="0.5" stroke="#606060" stroke-width="1.0"/>
   <path id="arrow"
     d="M 11.500037,31.436501 C 11.940474,20.09759 22.043105,11.32322 32.158766,21.979434 L 37.068811,17.246167 C 37.068811,17.246167 37.088388,32 37.088388,32 L 22.160133,31.978069 C 22.160133,31.978069 26.997745,27.140456 26.997745,27.140456 C 18.528582,18.264221 13.291696,25.230495 11.500037,31.436501 z"
     style="fill:#404040;"/>
  </a>
 </g>
</svg>

<style type='text/css'>
<![CDATA[
[data-mouse-over-selected='false'] { opacity: 0.7; }
[data-mouse-over-selected='true']  { opacity: 1.0; }
]]>
</style>
<script type="application/ecmascript"><![CDATA[
document.addEventListener('DOMContentLoaded', (event) => {
  highlightEdges();
  highlightAdjacentNodes();
});
]]></script>
</svg>
