<?xml version="1.0" encoding="UTF-8" standalone="no"?>
<!DOCTYPE svg PUBLIC "-//W3C//DTD SVG 1.1//EN"
 "http://www.w3.org/Graphics/SVG/1.1/DTD/svg11.dtd">
<!-- Generated by graphviz version 15.1.0 (20260618.0150)
 -->
<!-- Title: APP_CAN_HandleMit Pages: 1 -->
<svg width="741pt" height="425pt"
 viewBox="0.00 0.00 741.00 425.00" xmlns="http://www.w3.org/2000/svg" xmlns:xlink="http://www.w3.org/1999/xlink">
<g id="graph0" class="graph" transform="scale(1 1) rotate(0) translate(4 421.25)">
<title>APP_CAN_HandleMit</title>
<!-- Node1 -->
<g id="Node000001" class="node">
<title>Node1</title>
<g id="a_Node000001"><a xlink:title="MIT 运控通道处理">
<polygon fill="#999999" stroke="#666666" points="135.25,-161.25 0,-161.25 0,-139 135.25,-139 135.25,-161.25"/>
<text xml:space="preserve" text-anchor="middle" x="67.62" y="-145.85" font-family="Helvetica,sans-Serif" font-size="12.00">APP_CAN_HandleMit</text>
</a>
</g>
</g>
<!-- Node2 -->
<g id="Node000002" class="node">
<title>Node2</title>
<g id="a_Node000002"><a xlink:href="app__can__protocol_8c.html#a3f462aec782e36efd750a47844167fae" target="_top" xlink:title="发送 MIT 反馈帧（B0=ID，P16 V12 T12，发往主机 ID）">
<polygon fill="white" stroke="#666666" points="349.25,-377.25 171.25,-377.25 171.25,-355 349.25,-355 349.25,-377.25"/>
<text xml:space="preserve" text-anchor="middle" x="260.25" y="-361.85" font-family="Helvetica,sans-Serif" font-size="12.00">APP_CAN_SendMitFeedback</text>
</a>
</g>
</g>
<!-- Node1&#45;&gt;Node2 -->
<g id="edge1_Node000001_Node000002" class="edge">
<title>Node1&#45;&gt;Node2</title>
<g id="a_edge1_Node000001_Node000002"><a xlink:title=" ">
<path fill="none" stroke="#63b8ff" d="M75.89,-161.46C91.75,-185.84 131.28,-244.57 171.25,-288.12 191.35,-310.03 217.06,-332.25 235.49,-347.34"/>
<polygon fill="#63b8ff" stroke="#63b8ff" points="233.24,-350.03 243.22,-353.59 237.64,-344.58 233.24,-350.03"/>
</a>
</g>
</g>
<!-- Node5 -->
<g id="Node000005" class="node">
<title>Node5</title>
<g id="a_Node000005"><a xlink:href="motor__ctrl_8c.html#aceb46c7be868a0b12dffa105e3d0581e" target="_top" xlink:title="封波（ISR 安全）">
<polygon fill="white" stroke="#666666" points="301.62,-279.25 218.88,-279.25 218.88,-257 301.62,-257 301.62,-279.25"/>
<text xml:space="preserve" text-anchor="middle" x="260.25" y="-263.85" font-family="Helvetica,sans-Serif" font-size="12.00">MC_Disable</text>
</a>
</g>
</g>
<!-- Node1&#45;&gt;Node5 -->
<g id="edge4_Node000001_Node000005" class="edge">
<title>Node1&#45;&gt;Node5</title>
<g id="a_edge4_Node000001_Node000005"><a xlink:title=" ">
<path fill="none" stroke="#63b8ff" d="M81.51,-161.68C100.27,-178.12 136.66,-208.55 171.25,-229.12 185.93,-237.86 202.91,-245.83 218.02,-252.26"/>
<polygon fill="#63b8ff" stroke="#63b8ff" points="216.65,-255.48 227.23,-256.08 219.33,-249.02 216.65,-255.48"/>
</a>
</g>
</g>
<!-- Node9 -->
<g id="Node000009" class="node">
<title>Node9</title>
<g id="a_Node000009"><a xlink:href="motor__ctrl_8c.html#a8d1ee75d00d8c0f2d2d78f89d002efec" target="_top" xlink:title="使能功率输出">
<polygon fill="white" stroke="#666666" points="300.12,-220.25 220.38,-220.25 220.38,-198 300.12,-198 300.12,-220.25"/>
<text xml:space="preserve" text-anchor="middle" x="260.25" y="-204.85" font-family="Helvetica,sans-Serif" font-size="12.00">MC_Enable</text>
</a>
</g>
</g>
<!-- Node1&#45;&gt;Node9 -->
<g id="edge9_Node000001_Node000009" class="edge">
<title>Node1&#45;&gt;Node9</title>
<g id="a_edge9_Node000001_Node000009"><a xlink:title=" ">
<path fill="none" stroke="#63b8ff" d="M102.25,-161.67C122.23,-168.43 148.11,-177.01 171.25,-184.12 183.58,-187.92 196.94,-191.82 209.44,-195.38"/>
<polygon fill="#63b8ff" stroke="#63b8ff" points="208.12,-198.64 218.7,-198 210.03,-191.91 208.12,-198.64"/>
</a>
</g>
</g>
<!-- Node12 -->
<g id="Node000012" class="node">
<title>Node12</title>
<g id="a_Node000012"><a xlink:href="protection_8c.html#a06029022ac7e5b95690b0119794c83d6" target="_top" xlink:title="喂 CAN 指令看门狗（收到有效运动指令时调用）">
<polygon fill="white" stroke="#666666" points="546,-141.25 385.25,-141.25 385.25,-119 546,-119 546,-141.25"/>
<text xml:space="preserve" text-anchor="middle" x="465.62" y="-125.85" font-family="Helvetica,sans-Serif" font-size="12.00">PROT_FeedCanWatchdog</text>
</a>
</g>
</g>
<!-- Node1&#45;&gt;Node12 -->
<g id="edge19_Node000001_Node000012" class="edge">
<title>Node1&#45;&gt;Node12</title>
<g id="a_edge19_Node000001_Node000012"><a xlink:title=" ">
<path fill="none" stroke="#63b8ff" d="M135.7,-150.87C147.54,-150.98 159.76,-151.07 171.25,-151.12 250.36,-151.51 270.46,-158.24 349.25,-151.12 366.3,-149.59 384.6,-146.79 401.48,-143.73"/>
<polygon fill="#63b8ff" stroke="#63b8ff" points="401.67,-147.26 410.86,-141.98 400.38,-140.38 401.67,-147.26"/>
</a>
</g>
</g>
<!-- Node13 -->
<g id="Node000013" class="node">
<title>Node13</title>
<g id="a_Node000013"><a xlink:href="motor__ctrl_8c.html#a594eac2b46116c156ad61f86ae7e4678" target="_top" xlink:title="设置 MIT 阻抗指令（五元组原子更新）">
<polygon fill="white" stroke="#666666" points="325.62,-142.25 194.88,-142.25 194.88,-120 325.62,-120 325.62,-142.25"/>
<text xml:space="preserve" text-anchor="middle" x="260.25" y="-126.85" font-family="Helvetica,sans-Serif" font-size="12.00">MC_SetMitCommand</text>
</a>
</g>
</g>
<!-- Node1&#45;&gt;Node13 -->
<g id="edge15_Node000001_Node000013" class="edge">
<title>Node1&#45;&gt;Node13</title>
<g id="a_edge15_Node000001_Node000013"><a xlink:title=" ">
<path fill="none" stroke="#63b8ff" d="M135.56,-143.45C150.93,-141.92 167.38,-140.28 183.1,-138.71"/>
<polygon fill="#63b8ff" stroke="#63b8ff" points="183.29,-142.21 192.89,-137.74 182.59,-135.25 183.29,-142.21"/>
</a>
</g>
</g>
<!-- Node14 -->
<g id="Node000014" class="node">
<title>Node14</title>
<g id="a_Node000014"><a xlink:href="motor__ctrl_8c.html#ab0638fb9fe58dcbe6f0fb3d5ed81d28c" target="_top" xlink:title="切换控制模式（仅封波状态允许）">
<polygon fill="white" stroke="#666666" points="305,-102.25 215.5,-102.25 215.5,-80 305,-80 305,-102.25"/>
<text xml:space="preserve" text-anchor="middle" x="260.25" y="-86.85" font-family="Helvetica,sans-Serif" font-size="12.00">MC_SetMode</text>
</a>
</g>
</g>
<!-- Node1&#45;&gt;Node14 -->
<g id="edge16_Node000001_Node000014" class="edge">
<title>Node1&#45;&gt;Node14</title>
<g id="a_edge16_Node000001_Node000014"><a xlink:title=" ">
<path fill="none" stroke="#63b8ff" d="M95.71,-138.64C116.19,-130.25 145.16,-119.01 171.25,-111.12 181.71,-107.96 193.01,-105.04 203.91,-102.46"/>
<polygon fill="#63b8ff" stroke="#63b8ff" points="204.63,-105.89 213.59,-100.24 203.06,-99.06 204.63,-105.89"/>
</a>
</g>
</g>
<!-- Node15 -->
<g id="Node000015" class="node">
<title>Node15</title>
<g id="a_Node000015"><a xlink:href="motor__ctrl_8c.html#a64722c426a5d2fd53b95c12a85f22120" target="_top" xlink:title="以当前位置为输出轴零位">
<polygon fill="white" stroke="#666666" points="315.5,-62.25 205,-62.25 205,-40 315.5,-40 315.5,-62.25"/>
<text xml:space="preserve" text-anchor="middle" x="260.25" y="-46.85" font-family="Helvetica,sans-Serif" font-size="12.00">MC_SetZeroHere</text>
</a>
</g>
</g>
<!-- Node1&#45;&gt;Node15 -->
<g id="edge17_Node000001_Node000015" class="edge">
<title>Node1&#45;&gt;Node15</title>
<g id="a_edge17_Node000001_Node000015"><a xlink:title=" ">
<path fill="none" stroke="#63b8ff" d="M80.11,-138.51C97.97,-121.13 134.22,-88.55 171.25,-71.12 178.28,-67.82 185.9,-65.04 193.6,-62.71"/>
<polygon fill="#63b8ff" stroke="#63b8ff" points="194.33,-66.14 203.04,-60.11 192.47,-59.39 194.33,-66.14"/>
</a>
</g>
</g>
<!-- Node16 -->
<g id="Node000016" class="node">
<title>Node16</title>
<g id="a_Node000016"><a xlink:href="app__can__protocol_8c.html#a53bb63a1ac49bb84cd3f88ef1cc02112" target="_top" xlink:title="mini&#45;cheetah 解包：无符号整数 &#45;&gt; float">
<polygon fill="white" stroke="#666666" points="312.5,-22.25 208,-22.25 208,0 312.5,0 312.5,-22.25"/>
<text xml:space="preserve" text-anchor="middle" x="260.25" y="-6.85" font-family="Helvetica,sans-Serif" font-size="12.00">MIT_UintToFloat</text>
</a>
</g>
</g>
<!-- Node1&#45;&gt;Node16 -->
<g id="edge18_Node000001_Node000016" class="edge">
<title>Node1&#45;&gt;Node16</title>
<g id="a_edge18_Node000001_Node000016"><a xlink:title=" ">
<path fill="none" stroke="#63b8ff" d="M74.91,-138.85C88.88,-114.92 124.96,-58.96 171.25,-31.12 179.08,-26.42 187.9,-22.82 196.87,-20.07"/>
<polygon fill="#63b8ff" stroke="#63b8ff" points="197.61,-23.49 206.35,-17.5 195.78,-16.73 197.61,-23.49"/>
</a>
</g>
</g>
<!-- Node3 -->
<g id="Node000003" class="node">
<title>Node3</title>
<g id="a_Node000003"><a xlink:href="bsp__can_8c.html#a70c1a9dd4f5e80dddb8aa8c476c15af7" target="_top" xlink:title="发送一帧经典 CAN 数据帧（非阻塞，入 TX FIFO）">
<polygon fill="white" stroke="#666666" points="520.12,-417.25 411.12,-417.25 411.12,-395 520.12,-395 520.12,-417.25"/>
<text xml:space="preserve" text-anchor="middle" x="465.62" y="-401.85" font-family="Helvetica,sans-Serif" font-size="12.00">BSP_CAN_Send</text>
</a>
</g>
</g>
<!-- Node2&#45;&gt;Node3 -->
<g id="edge2_Node000002_Node000003" class="edge">
<title>Node2&#45;&gt;Node3</title>
<g id="a_edge2_Node000002_Node000003"><a xlink:title=" ">
<path fill="none" stroke="#63b8ff" d="M320.35,-377.75C345.28,-382.65 374.37,-388.37 399.88,-393.39"/>
<polygon fill="#63b8ff" stroke="#63b8ff" points="398.97,-396.78 409.45,-395.27 400.32,-389.91 398.97,-396.78"/>
</a>
</g>
</g>
<!-- Node4 -->
<g id="Node000004" class="node">
<title>Node4</title>
<g id="a_Node000004"><a xlink:href="app__can__protocol_8c.html#a374783cd12e7c5b94cb6926640bc0980" target="_top" xlink:title="mini&#45;cheetah 打包：float &#45;&gt; 无符号整数">
<polygon fill="white" stroke="#666666" points="517.88,-377.25 413.38,-377.25 413.38,-355 517.88,-355 517.88,-377.25"/>
<text xml:space="preserve" text-anchor="middle" x="465.62" y="-361.85" font-family="Helvetica,sans-Serif" font-size="12.00">MIT_FloatToUint</text>
</a>
</g>
</g>
<!-- Node2&#45;&gt;Node4 -->
<g id="edge3_Node000002_Node000004" class="edge">
<title>Node2&#45;&gt;Node4</title>
<g id="a_edge3_Node000002_Node000004"><a xlink:title=" ">
<path fill="none" stroke="#63b8ff" d="M349.57,-366.12C367.16,-366.12 385.3,-366.12 401.82,-366.12"/>
<polygon fill="#63b8ff" stroke="#63b8ff" points="401.46,-369.63 411.46,-366.13 401.46,-362.63 401.46,-369.63"/>
</a>
</g>
</g>
<!-- Node6 -->
<g id="Node000006" class="node">
<title>Node6</title>
<g id="a_Node000006"><a xlink:href="bsp__pwm_8c.html#a2664b56ad93d867fb05741e710ff942d" target="_top" xlink:title="封波（输出高阻，电机 freewheel）">
<polygon fill="white" stroke="#666666" points="528,-337.25 403.25,-337.25 403.25,-315 528,-315 528,-337.25"/>
<text xml:space="preserve" text-anchor="middle" x="465.62" y="-321.85" font-family="Helvetica,sans-Serif" font-size="12.00">BSP_PWM_Disable</text>
</a>
</g>
</g>
<!-- Node5&#45;&gt;Node6 -->
<g id="edge5_Node000005_Node000006" class="edge">
<title>Node5&#45;&gt;Node6</title>
<g id="a_edge5_Node000005_Node000006"><a xlink:title=" ">
<path fill="none" stroke="#63b8ff" d="M301.92,-279.72C333.92,-288.85 378.73,-301.63 413.22,-311.47"/>
<polygon fill="#63b8ff" stroke="#63b8ff" points="412,-314.76 422.57,-314.13 413.92,-308.02 412,-314.76"/>
</a>
</g>
</g>
<!-- Node7 -->
<g id="Node000007" class="node">
<title>Node7</title>
<g id="a_Node000007"><a xlink:href="foc_8c.html#aa25cf599086b4ad815ae5ad72dcfdec4" target="_top" xlink:title="复位电流环状态（封波后重新使能前调用，防止积分残留冲击）">
<polygon fill="white" stroke="#666666" points="505.5,-259.25 425.75,-259.25 425.75,-237 505.5,-237 505.5,-259.25"/>
<text xml:space="preserve" text-anchor="middle" x="465.62" y="-243.85" font-family="Helvetica,sans-Serif" font-size="12.00">FOC_Reset</text>
</a>
</g>
</g>
<!-- Node5&#45;&gt;Node7 -->
<g id="edge6_Node000005_Node000007" class="edge">
<title>Node5&#45;&gt;Node7</title>
<g id="a_edge6_Node000005_Node000007"><a xlink:title=" ">
<path fill="none" stroke="#63b8ff" d="M301.92,-264.13C334.2,-260.95 379.51,-256.5 414.12,-253.09"/>
<polygon fill="#63b8ff" stroke="#63b8ff" points="414.29,-256.59 423.9,-252.13 413.61,-249.63 414.29,-256.59"/>
</a>
</g>
</g>
<!-- Node8 -->
<g id="Node000008" class="node">
<title>Node8</title>
<g id="a_Node000008"><a xlink:href="pid_8c.html#acb76685b15d3fde29d9bd5548b3268c1" target="_top" xlink:title="复位 PID 内部状态（积分/历史误差/输出）">
<polygon fill="white" stroke="#666666" points="694.75,-259.25 620.25,-259.25 620.25,-237 694.75,-237 694.75,-259.25"/>
<text xml:space="preserve" text-anchor="middle" x="657.5" y="-243.85" font-family="Helvetica,sans-Serif" font-size="12.00">PID_Reset</text>
</a>
</g>
</g>
<!-- Node5&#45;&gt;Node8 -->
<g id="edge8_Node000005_Node000008" class="edge">
<title>Node5&#45;&gt;Node8</title>
<g id="a_edge8_Node000005_Node000008"><a xlink:title=" ">
<path fill="none" stroke="#63b8ff" d="M301.9,-270.4C357.25,-272.99 459.34,-275.9 546,-268.12 566.68,-266.27 589.28,-262.5 608.62,-258.72"/>
<polygon fill="#63b8ff" stroke="#63b8ff" points="609.29,-262.16 618.41,-256.75 607.91,-255.29 609.29,-262.16"/>
</a>
</g>
</g>
<!-- Node7&#45;&gt;Node8 -->
<g id="edge7_Node000007_Node000008" class="edge">
<title>Node7&#45;&gt;Node8</title>
<g id="a_edge7_Node000007_Node000008"><a xlink:title=" ">
<path fill="none" stroke="#63b8ff" d="M505.97,-248.12C535.76,-248.12 576.84,-248.12 608.56,-248.12"/>
<polygon fill="#63b8ff" stroke="#63b8ff" points="608.27,-251.63 618.27,-248.13 608.27,-244.63 608.27,-251.63"/>
</a>
</g>
</g>
<!-- Node9&#45;&gt;Node7 -->
<g id="edge12_Node000009_Node000007" class="edge">
<title>Node9&#45;&gt;Node7</title>
<g id="a_edge12_Node000009_Node000007"><a xlink:title=" ">
<path fill="none" stroke="#63b8ff" d="M300.46,-216.64C332.96,-222.88 379.35,-231.77 414.54,-238.52"/>
<polygon fill="#63b8ff" stroke="#63b8ff" points="413.57,-241.9 424.05,-240.34 414.88,-235.02 413.57,-241.9"/>
</a>
</g>
</g>
<!-- Node9&#45;&gt;Node8 -->
<g id="edge13_Node000009_Node000008" class="edge">
<title>Node9&#45;&gt;Node8</title>
<g id="a_edge13_Node000009_Node000008"><a xlink:title=" ">
<path fill="none" stroke="#63b8ff" d="M300.53,-210.35C355.58,-212.38 458.72,-217.35 546,-228.12 566.61,-230.67 589.19,-234.56 608.54,-238.23"/>
<polygon fill="#63b8ff" stroke="#63b8ff" points="607.86,-241.66 618.34,-240.13 609.19,-234.79 607.86,-241.66"/>
</a>
</g>
</g>
<!-- Node10 -->
<g id="Node000010" class="node">
<title>Node10</title>
<g id="a_Node000010"><a xlink:href="bsp__pwm_8c.html#a4bdefcd18b0b080f1e8db825e33c80e8" target="_top" xlink:title="使能功率输出（解除封波）">
<polygon fill="white" stroke="#666666" points="526.5,-181.25 404.75,-181.25 404.75,-159 526.5,-159 526.5,-181.25"/>
<text xml:space="preserve" text-anchor="middle" x="465.62" y="-165.85" font-family="Helvetica,sans-Serif" font-size="12.00">BSP_PWM_Enable</text>
</a>
</g>
</g>
<!-- Node9&#45;&gt;Node10 -->
<g id="edge10_Node000009_Node000010" class="edge">
<title>Node9&#45;&gt;Node10</title>
<g id="a_edge10_Node000009_Node000010"><a xlink:title=" ">
<path fill="none" stroke="#63b8ff" d="M300.46,-201.61C326.68,-196.58 361.94,-189.82 393.06,-183.85"/>
<polygon fill="#63b8ff" stroke="#63b8ff" points="393.66,-187.3 402.82,-181.98 392.34,-180.42 393.66,-187.3"/>
</a>
</g>
</g>
<!-- Node9&#45;&gt;Node12 -->
<g id="edge14_Node000009_Node000012" class="edge">
<title>Node9&#45;&gt;Node12</title>
<g id="a_edge14_Node000009_Node000012"><a xlink:title=" ">
<path fill="none" stroke="#63b8ff" d="M300.53,-202.22C316.35,-198.37 334.34,-192.6 349.25,-184.12 368.38,-173.25 365.96,-160.71 385.25,-150.12 388.11,-148.55 391.1,-147.11 394.17,-145.77"/>
<polygon fill="#63b8ff" stroke="#63b8ff" points="395.36,-149.06 403.42,-142.18 392.83,-142.53 395.36,-149.06"/>
</a>
</g>
</g>
<!-- Node11 -->
<g id="Node000011" class="node">
<title>Node11</title>
<g id="a_Node000011"><a xlink:href="bsp__pwm_8c.html#af4a87e2cef845a3eba6d0170011ff08d" target="_top" xlink:title="三相占空比清零（低侧全导通：自举预充/动态刹车态）">
<polygon fill="white" stroke="#666666" points="733,-181.25 582,-181.25 582,-159 733,-159 733,-181.25"/>
<text xml:space="preserve" text-anchor="middle" x="657.5" y="-165.85" font-family="Helvetica,sans-Serif" font-size="12.00">BSP_PWM_SetDutyZero</text>
</a>
</g>
</g>
<!-- Node10&#45;&gt;Node11 -->
<g id="edge11_Node000010_Node000011" class="edge">
<title>Node10&#45;&gt;Node11</title>
<g id="a_edge11_Node000010_Node000011"><a xlink:title=" ">
<path fill="none" stroke="#63b8ff" d="M526.96,-170.12C540.81,-170.12 555.79,-170.12 570.49,-170.12"/>
<polygon fill="#63b8ff" stroke="#63b8ff" points="570.13,-173.63 580.13,-170.13 570.13,-166.63 570.13,-173.63"/>
</a>
</g>
</g>
</g>
</svg>
