<?xml version="1.0" encoding="UTF-8" standalone="no"?>
<!DOCTYPE svg PUBLIC "-//W3C//DTD SVG 1.1//EN"
 "http://www.w3.org/Graphics/SVG/1.1/DTD/svg11.dtd">
<!-- Generated by graphviz version 15.1.0 (20260618.0150)
 -->
<!-- Title: APP_CAN_HandleCfg Pages: 1 -->
<svg width="744pt" height="664pt"
 viewBox="0.00 0.00 744.00 664.00" xmlns="http://www.w3.org/2000/svg" xmlns:xlink="http://www.w3.org/1999/xlink">
<g id="graph0" class="graph" transform="scale(1 1) rotate(0) translate(4 660.25)">
<title>APP_CAN_HandleCfg</title>
<!-- Node1 -->
<g id="Node000001" class="node">
<title>Node1</title>
<g id="a_Node000001"><a xlink:title="配置通道处理">
<polygon fill="#999999" stroke="#666666" points="138.25,-340.25 0,-340.25 0,-318 138.25,-318 138.25,-340.25"/>
<text xml:space="preserve" text-anchor="middle" x="69.12" y="-324.85" font-family="Helvetica,sans-Serif" font-size="12.00">APP_CAN_HandleCfg</text>
</a>
</g>
</g>
<!-- Node2 -->
<g id="Node000002" class="node">
<title>Node2</title>
<g id="a_Node000002"><a xlink:href="app__can__protocol_8c.html#a966f37b5d2949acd6d6432af5cbcbcec" target="_top" xlink:title="配置通道应答：cmd + 状态 + float 值">
<polygon fill="white" stroke="#666666" points="328.62,-656.25 197.88,-656.25 197.88,-634 328.62,-634 328.62,-656.25"/>
<text xml:space="preserve" text-anchor="middle" x="263.25" y="-640.85" font-family="Helvetica,sans-Serif" font-size="12.00">APP_CAN_CfgReply</text>
</a>
</g>
</g>
<!-- Node1&#45;&gt;Node2 -->
<g id="edge1_Node000001_Node000002" class="edge">
<title>Node1&#45;&gt;Node2</title>
<g id="a_edge1_Node000001_Node000002"><a xlink:title=" ">
<path fill="none" stroke="#63b8ff" d="M70.64,-340.57C73.24,-383.96 88.43,-539.85 174.25,-620.12 178.18,-623.8 182.6,-626.93 187.33,-629.62"/>
<polygon fill="#63b8ff" stroke="#63b8ff" points="185.5,-632.62 196.02,-633.84 188.56,-626.32 185.5,-632.62"/>
</a>
</g>
</g>
<!-- Node3 -->
<g id="Node000003" class="node">
<title>Node3</title>
<g id="a_Node000003"><a xlink:href="bsp__can_8c.html#a70c1a9dd4f5e80dddb8aa8c476c15af7" target="_top" xlink:title="发送一帧经典 CAN 数据帧（非阻塞，入 TX FIFO）">
<polygon fill="white" stroke="#666666" points="523.12,-636.25 414.12,-636.25 414.12,-614 523.12,-614 523.12,-636.25"/>
<text xml:space="preserve" text-anchor="middle" x="468.62" y="-620.85" font-family="Helvetica,sans-Serif" font-size="12.00">BSP_CAN_Send</text>
</a>
</g>
</g>
<!-- Node1&#45;&gt;Node3 -->
<g id="edge10_Node000001_Node000003" class="edge">
<title>Node1&#45;&gt;Node3</title>
<g id="a_edge10_Node000001_Node000003"><a xlink:title=" ">
<path fill="none" stroke="#63b8ff" d="M70.84,-340.52C74.09,-381.57 91.13,-522.88 174.25,-587.12 208.84,-613.86 327.19,-621.84 402.58,-624.19"/>
<polygon fill="#63b8ff" stroke="#63b8ff" points="402.23,-627.68 412.32,-624.47 402.43,-620.68 402.23,-627.68"/>
</a>
</g>
</g>
<!-- Node4 -->
<g id="Node000004" class="node">
<title>Node4</title>
<g id="a_Node000004"><a xlink:href="app__can__protocol_8c.html#ae97d64d8caba7a4aee7b6ef40a26afb7" target="_top" xlink:title="按索引读参数（CAN 配置通道与 shell 共用）">
<polygon fill="white" stroke="#666666" points="352.25,-578.25 174.25,-578.25 174.25,-556 352.25,-556 352.25,-578.25"/>
<text xml:space="preserve" text-anchor="middle" x="263.25" y="-562.85" font-family="Helvetica,sans-Serif" font-size="12.00">APP_CAN_GetParamByIndex</text>
</a>
</g>
</g>
<!-- Node1&#45;&gt;Node4 -->
<g id="edge3_Node000001_Node000004" class="edge">
<title>Node1&#45;&gt;Node4</title>
<g id="a_edge3_Node000001_Node000004"><a xlink:title=" ">
<path fill="none" stroke="#63b8ff" d="M72,-340.53C78.6,-376.93 104.3,-491.21 174.25,-547.12 175.55,-548.16 176.89,-549.15 178.28,-550.09"/>
<polygon fill="#63b8ff" stroke="#63b8ff" points="176.15,-552.91 186.57,-554.84 179.63,-546.83 176.15,-552.91"/>
</a>
</g>
</g>
<!-- Node5 -->
<g id="Node000005" class="node">
<title>Node5</title>
<g id="a_Node000005"><a xlink:href="app__can__protocol_8c.html#a1c22c988dc67c917a70b53b3386fcfca" target="_top" xlink:title="按索引写参数（只读项与非法值拒绝，CAN 配置通道与 shell 共用）">
<polygon fill="white" stroke="#666666" points="351.88,-538.25 174.62,-538.25 174.62,-516 351.88,-516 351.88,-538.25"/>
<text xml:space="preserve" text-anchor="middle" x="263.25" y="-522.85" font-family="Helvetica,sans-Serif" font-size="12.00">APP_CAN_SetParamByIndex</text>
</a>
</g>
</g>
<!-- Node1&#45;&gt;Node5 -->
<g id="edge4_Node000001_Node000005" class="edge">
<title>Node1&#45;&gt;Node5</title>
<g id="a_edge4_Node000001_Node000005"><a xlink:title=" ">
<path fill="none" stroke="#63b8ff" d="M73.63,-340.42C83.79,-371.31 116.33,-457.83 174.25,-502.12 178.79,-505.59 183.78,-508.58 189.02,-511.15"/>
<polygon fill="#63b8ff" stroke="#63b8ff" points="187.38,-514.26 197.95,-515.01 190.16,-507.83 187.38,-514.26"/>
</a>
</g>
</g>
<!-- Node7 -->
<g id="Node000007" class="node">
<title>Node7</title>
<g id="a_Node000007"><a xlink:href="motor__ctrl_8c.html#acd57a3a6a71d8ec4261dca794251a12a" target="_top" xlink:title="参数修改后刷新 PID 增益（shell/CAN 调参后调用）">
<polygon fill="white" stroke="#666666" points="534.38,-499.25 402.88,-499.25 402.88,-477 534.38,-477 534.38,-499.25"/>
<text xml:space="preserve" text-anchor="middle" x="468.62" y="-483.85" font-family="Helvetica,sans-Serif" font-size="12.00">MC_ApplyPidParams</text>
</a>
</g>
</g>
<!-- Node1&#45;&gt;Node7 -->
<g id="edge11_Node000001_Node000007" class="edge">
<title>Node1&#45;&gt;Node7</title>
<g id="a_edge11_Node000001_Node000007"><a xlink:title=" ">
<path fill="none" stroke="#63b8ff" d="M74.55,-340.45C86.07,-368.23 119.96,-439.61 174.25,-469.12 240.84,-505.33 328.9,-505.92 391.11,-500.04"/>
<polygon fill="#63b8ff" stroke="#63b8ff" points="391.32,-503.54 400.91,-499.03 390.6,-496.57 391.32,-503.54"/>
</a>
</g>
</g>
<!-- Node9 -->
<g id="Node000009" class="node">
<title>Node9</title>
<g id="a_Node000009"><a xlink:href="app__params_8c.html#afa4da68e24e6b332803f4e131cd9ea31" target="_top" xlink:title="加载编译期默认参数">
<polygon fill="white" stroke="#666666" points="351.12,-460.25 175.38,-460.25 175.38,-438 351.12,-438 351.12,-460.25"/>
<text xml:space="preserve" text-anchor="middle" x="263.25" y="-444.85" font-family="Helvetica,sans-Serif" font-size="12.00">APP_PARAMS_LoadDefaults</text>
</a>
</g>
</g>
<!-- Node1&#45;&gt;Node9 -->
<g id="edge8_Node000001_Node000009" class="edge">
<title>Node1&#45;&gt;Node9</title>
<g id="a_edge8_Node000001_Node000009"><a xlink:title=" ">
<path fill="none" stroke="#63b8ff" d="M78.45,-340.47C94.5,-361.46 131.89,-406.29 174.25,-429.12 177.26,-430.75 180.39,-432.23 183.6,-433.6"/>
<polygon fill="#63b8ff" stroke="#63b8ff" points="182.09,-436.77 192.68,-437.04 184.57,-430.23 182.09,-436.77"/>
</a>
</g>
</g>
<!-- Node10 -->
<g id="Node000010" class="node">
<title>Node10</title>
<g id="a_Node000010"><a xlink:href="app__params_8c.html#a2c145abd191edf697c7d319f120390fb" target="_top" xlink:title="请求保存参数（任意上下文安全，后台择机执行）">
<polygon fill="white" stroke="#666666" points="351.88,-420.25 174.62,-420.25 174.62,-398 351.88,-398 351.88,-420.25"/>
<text xml:space="preserve" text-anchor="middle" x="263.25" y="-404.85" font-family="Helvetica,sans-Serif" font-size="12.00">APP_PARAMS_RequestSave</text>
</a>
</g>
</g>
<!-- Node1&#45;&gt;Node10 -->
<g id="edge9_Node000001_Node000010" class="edge">
<title>Node1&#45;&gt;Node10</title>
<g id="a_edge9_Node000001_Node000010"><a xlink:title=" ">
<path fill="none" stroke="#63b8ff" d="M86.3,-340.51C106.14,-353.98 141.22,-376.2 174.25,-389.12 179.19,-391.06 184.36,-392.83 189.61,-394.45"/>
<polygon fill="#63b8ff" stroke="#63b8ff" points="188.44,-397.75 199.02,-397.14 190.37,-391.02 188.44,-397.75"/>
</a>
</g>
</g>
<!-- Node11 -->
<g id="Node000011" class="node">
<title>Node11</title>
<g id="a_Node000011"><a xlink:href="motor__ctrl_8c.html#a827231f68dfabeb070811b39e11a267c" target="_top" xlink:title="清除故障（故障源已消失时）">
<polygon fill="white" stroke="#666666" points="312.12,-380.25 214.38,-380.25 214.38,-358 312.12,-358 312.12,-380.25"/>
<text xml:space="preserve" text-anchor="middle" x="263.25" y="-364.85" font-family="Helvetica,sans-Serif" font-size="12.00">MC_ClearFault</text>
</a>
</g>
</g>
<!-- Node1&#45;&gt;Node11 -->
<g id="edge12_Node000001_Node000011" class="edge">
<title>Node1&#45;&gt;Node11</title>
<g id="a_edge12_Node000001_Node000011"><a xlink:title=" ">
<path fill="none" stroke="#63b8ff" d="M125.95,-340.75C150.17,-345.79 178.54,-351.7 203.11,-356.81"/>
<polygon fill="#63b8ff" stroke="#63b8ff" points="202.12,-360.18 212.62,-358.79 203.55,-353.33 202.12,-360.18"/>
</a>
</g>
</g>
<!-- Node13 -->
<g id="Node000013" class="node">
<title>Node13</title>
<g id="a_Node000013"><a xlink:href="motor__ctrl_8c.html#aceb46c7be868a0b12dffa105e3d0581e" target="_top" xlink:title="封波（ISR 安全）">
<polygon fill="white" stroke="#666666" points="304.62,-340.25 221.88,-340.25 221.88,-318 304.62,-318 304.62,-340.25"/>
<text xml:space="preserve" text-anchor="middle" x="263.25" y="-324.85" font-family="Helvetica,sans-Serif" font-size="12.00">MC_Disable</text>
</a>
</g>
</g>
<!-- Node1&#45;&gt;Node13 -->
<g id="edge14_Node000001_Node000013" class="edge">
<title>Node1&#45;&gt;Node13</title>
<g id="a_edge14_Node000001_Node000013"><a xlink:title=" ">
<path fill="none" stroke="#63b8ff" d="M138.67,-329.12C162.15,-329.12 188.02,-329.12 210,-329.12"/>
<polygon fill="#63b8ff" stroke="#63b8ff" points="209.92,-332.63 219.92,-329.13 209.92,-325.63 209.92,-332.63"/>
</a>
</g>
</g>
<!-- Node17 -->
<g id="Node000017" class="node">
<title>Node17</title>
<g id="a_Node000017"><a xlink:href="motor__ctrl_8c.html#a8d1ee75d00d8c0f2d2d78f89d002efec" target="_top" xlink:title="使能功率输出">
<polygon fill="white" stroke="#666666" points="303.12,-260.25 223.38,-260.25 223.38,-238 303.12,-238 303.12,-260.25"/>
<text xml:space="preserve" text-anchor="middle" x="263.25" y="-244.85" font-family="Helvetica,sans-Serif" font-size="12.00">MC_Enable</text>
</a>
</g>
</g>
<!-- Node1&#45;&gt;Node17 -->
<g id="edge19_Node000001_Node000017" class="edge">
<title>Node1&#45;&gt;Node17</title>
<g id="a_edge19_Node000001_Node000017"><a xlink:title=" ">
<path fill="none" stroke="#63b8ff" d="M86.3,-317.74C106.14,-304.27 141.22,-282.05 174.25,-269.12 186.09,-264.49 199.27,-260.78 211.74,-257.88"/>
<polygon fill="#63b8ff" stroke="#63b8ff" points="212.44,-261.31 221.47,-255.76 210.95,-254.47 212.44,-261.31"/>
</a>
</g>
</g>
<!-- Node20 -->
<g id="Node000020" class="node">
<title>Node20</title>
<g id="a_Node000020"><a xlink:href="protection_8c.html#a06029022ac7e5b95690b0119794c83d6" target="_top" xlink:title="喂 CAN 指令看门狗（收到有效运动指令时调用）">
<polygon fill="white" stroke="#666666" points="549,-182.25 388.25,-182.25 388.25,-160 549,-160 549,-182.25"/>
<text xml:space="preserve" text-anchor="middle" x="468.62" y="-166.85" font-family="Helvetica,sans-Serif" font-size="12.00">PROT_FeedCanWatchdog</text>
</a>
</g>
</g>
<!-- Node1&#45;&gt;Node20 -->
<g id="edge36_Node000001_Node000020" class="edge">
<title>Node1&#45;&gt;Node20</title>
<g id="a_edge36_Node000001_Node000020"><a xlink:title=" ">
<path fill="none" stroke="#63b8ff" d="M78.39,-317.67C94.34,-296.49 131.57,-251.35 174.25,-229.12 184,-224.04 309.4,-200.28 393.06,-184.79"/>
<polygon fill="#63b8ff" stroke="#63b8ff" points="393.63,-188.24 402.83,-182.98 392.36,-181.36 393.63,-188.24"/>
</a>
</g>
</g>
<!-- Node21 -->
<g id="Node000021" class="node">
<title>Node21</title>
<g id="a_Node000021"><a xlink:href="motor__ctrl_8c.html#ab0638fb9fe58dcbe6f0fb3d5ed81d28c" target="_top" xlink:title="切换控制模式（仅封波状态允许）">
<polygon fill="white" stroke="#666666" points="308,-182.25 218.5,-182.25 218.5,-160 308,-160 308,-182.25"/>
<text xml:space="preserve" text-anchor="middle" x="263.25" y="-166.85" font-family="Helvetica,sans-Serif" font-size="12.00">MC_SetMode</text>
</a>
</g>
</g>
<!-- Node1&#45;&gt;Node21 -->
<g id="edge25_Node000001_Node000021" class="edge">
<title>Node1&#45;&gt;Node21</title>
<g id="a_edge25_Node000001_Node000021"><a xlink:title=" ">
<path fill="none" stroke="#63b8ff" d="M75.9,-317.51C89.4,-291.61 125.57,-228.84 174.25,-196.12 184.14,-189.48 195.79,-184.58 207.32,-180.98"/>
<polygon fill="#63b8ff" stroke="#63b8ff" points="208.14,-184.38 216.82,-178.31 206.25,-177.64 208.14,-184.38"/>
</a>
</g>
</g>
<!-- Node22 -->
<g id="Node000022" class="node">
<title>Node22</title>
<g id="a_Node000022"><a xlink:href="motor__ctrl_8c.html#a99b65c0c0b41906fc3146d52e1b879be" target="_top" xlink:title="设置输出轴位置给定（POSITION 模式）">
<polygon fill="white" stroke="#666666" points="312.88,-142.25 213.62,-142.25 213.62,-120 312.88,-120 312.88,-142.25"/>
<text xml:space="preserve" text-anchor="middle" x="263.25" y="-126.85" font-family="Helvetica,sans-Serif" font-size="12.00">MC_SetPosRef</text>
</a>
</g>
</g>
<!-- Node1&#45;&gt;Node22 -->
<g id="edge26_Node000001_Node000022" class="edge">
<title>Node1&#45;&gt;Node22</title>
<g id="a_edge26_Node000001_Node000022"><a xlink:title=" ">
<path fill="none" stroke="#63b8ff" d="M73.26,-317.8C82.69,-286.01 113.9,-195.36 174.25,-151.12 182.6,-145 192.51,-140.71 202.61,-137.71"/>
<polygon fill="#63b8ff" stroke="#63b8ff" points="203.27,-141.15 212.11,-135.3 201.56,-134.36 203.27,-141.15"/>
</a>
</g>
</g>
<!-- Node23 -->
<g id="Node000023" class="node">
<title>Node23</title>
<g id="a_Node000023"><a xlink:href="motor__ctrl_8c.html#ad9fdc2a937331479bd701139807ad7b2" target="_top" xlink:title="设置输出轴速度给定（SPEED 模式）">
<polygon fill="white" stroke="#666666" points="320,-102.25 206.5,-102.25 206.5,-80 320,-80 320,-102.25"/>
<text xml:space="preserve" text-anchor="middle" x="263.25" y="-86.85" font-family="Helvetica,sans-Serif" font-size="12.00">MC_SetSpeedRef</text>
</a>
</g>
</g>
<!-- Node1&#45;&gt;Node23 -->
<g id="edge27_Node000001_Node000023" class="edge">
<title>Node1&#45;&gt;Node23</title>
<g id="a_edge27_Node000001_Node000023"><a xlink:title=" ">
<path fill="none" stroke="#63b8ff" d="M72,-317.72C78.6,-281.32 104.3,-167.04 174.25,-111.12 180.49,-106.14 187.73,-102.34 195.33,-99.47"/>
<polygon fill="#63b8ff" stroke="#63b8ff" points="196.35,-102.82 204.81,-96.44 194.22,-96.15 196.35,-102.82"/>
</a>
</g>
</g>
<!-- Node25 -->
<g id="Node000025" class="node">
<title>Node25</title>
<g id="a_Node000025"><a xlink:href="motor__ctrl_8c.html#aef22984edf5c5a02be46b64d26f8534a" target="_top" xlink:title="设置输出轴转矩给定（TORQUE 模式，内部折算为 iq）">
<polygon fill="white" stroke="#666666" points="311.38,-62.25 215.12,-62.25 215.12,-40 311.38,-40 311.38,-62.25"/>
<text xml:space="preserve" text-anchor="middle" x="263.25" y="-46.85" font-family="Helvetica,sans-Serif" font-size="12.00">MC_SetTorque</text>
</a>
</g>
</g>
<!-- Node1&#45;&gt;Node25 -->
<g id="edge29_Node000001_Node000025" class="edge">
<title>Node1&#45;&gt;Node25</title>
<g id="a_edge29_Node000001_Node000025"><a xlink:title=" ">
<path fill="none" stroke="#63b8ff" d="M71.08,-317.72C75.12,-277.21 94.44,-139.08 174.25,-71.12 182.75,-63.89 193.33,-59.13 204.19,-56.03"/>
<polygon fill="#63b8ff" stroke="#63b8ff" points="204.66,-59.52 213.59,-53.81 203.05,-52.7 204.66,-59.52"/>
</a>
</g>
</g>
<!-- Node26 -->
<g id="Node000026" class="node">
<title>Node26</title>
<g id="a_Node000026"><a xlink:href="motor__ctrl_8c.html#a64722c426a5d2fd53b95c12a85f22120" target="_top" xlink:title="以当前位置为输出轴零位">
<polygon fill="white" stroke="#666666" points="318.5,-22.25 208,-22.25 208,0 318.5,0 318.5,-22.25"/>
<text xml:space="preserve" text-anchor="middle" x="263.25" y="-6.85" font-family="Helvetica,sans-Serif" font-size="12.00">MC_SetZeroHere</text>
</a>
</g>
</g>
<!-- Node1&#45;&gt;Node26 -->
<g id="edge30_Node000001_Node000026" class="edge">
<title>Node1&#45;&gt;Node26</title>
<g id="a_edge30_Node000001_Node000026"><a xlink:title=" ">
<path fill="none" stroke="#63b8ff" d="M70.4,-317.57C72.12,-273.06 84.54,-111.26 174.25,-31.12 180.82,-25.25 188.76,-21 197.13,-17.93"/>
<polygon fill="#63b8ff" stroke="#63b8ff" points="197.92,-21.35 206.47,-15.09 195.88,-14.65 197.92,-21.35"/>
</a>
</g>
</g>
<!-- Node27 -->
<g id="Node000027" class="node">
<title>Node27</title>
<g id="a_Node000027"><a xlink:href="motor__ctrl_8c.html#afb3414a066c16e68add2218d01f59942" target="_top" xlink:title="启动预定位校准（封波状态下）">
<polygon fill="white" stroke="#666666" points="325.62,-300.25 200.88,-300.25 200.88,-278 325.62,-278 325.62,-300.25"/>
<text xml:space="preserve" text-anchor="middle" x="263.25" y="-284.85" font-family="Helvetica,sans-Serif" font-size="12.00">MC_StartCalibration</text>
</a>
</g>
</g>
<!-- Node1&#45;&gt;Node27 -->
<g id="edge31_Node000001_Node000027" class="edge">
<title>Node1&#45;&gt;Node27</title>
<g id="a_edge31_Node000001_Node000027"><a xlink:title=" ">
<path fill="none" stroke="#63b8ff" d="M125.95,-317.5C147.66,-312.98 172.71,-307.77 195.36,-303.05"/>
<polygon fill="#63b8ff" stroke="#63b8ff" points="196.06,-306.48 205.13,-301.02 194.63,-299.63 196.06,-306.48"/>
</a>
</g>
</g>
<!-- Node2&#45;&gt;Node3 -->
<g id="edge2_Node000002_Node000003" class="edge">
<title>Node2&#45;&gt;Node3</title>
<g id="a_edge2_Node000002_Node000003"><a xlink:title=" ">
<path fill="none" stroke="#63b8ff" d="M328.88,-638.77C352.37,-636.46 378.91,-633.85 402.45,-631.53"/>
<polygon fill="#63b8ff" stroke="#63b8ff" points="402.62,-635.03 412.23,-630.57 401.93,-628.07 402.62,-635.03"/>
</a>
</g>
</g>
<!-- Node6 -->
<g id="Node000006" class="node">
<title>Node6</title>
<g id="a_Node000006"><a xlink:href="bsp__can_8c.html#ab09830a7aa5df9b3a6fa393538f81ab8" target="_top" xlink:title="切换 120 欧终端电阻（TS5A3159 模拟开关）">
<polygon fill="white" stroke="#666666" points="549,-539.25 388.25,-539.25 388.25,-517 549,-517 549,-539.25"/>
<text xml:space="preserve" text-anchor="middle" x="468.62" y="-523.85" font-family="Helvetica,sans-Serif" font-size="12.00">BSP_CAN_SetTermination</text>
</a>
</g>
</g>
<!-- Node5&#45;&gt;Node6 -->
<g id="edge5_Node000005_Node000006" class="edge">
<title>Node5&#45;&gt;Node6</title>
<g id="a_edge5_Node000005_Node000006"><a xlink:title=" ">
<path fill="none" stroke="#63b8ff" d="M352.27,-527.56C360.3,-527.6 368.44,-527.64 376.49,-527.68"/>
<polygon fill="#63b8ff" stroke="#63b8ff" points="376.26,-531.18 386.28,-527.73 376.3,-524.18 376.26,-531.18"/>
</a>
</g>
</g>
<!-- Node5&#45;&gt;Node7 -->
<g id="edge6_Node000005_Node000007" class="edge">
<title>Node5&#45;&gt;Node7</title>
<g id="a_edge6_Node000005_Node000007"><a xlink:title=" ">
<path fill="none" stroke="#63b8ff" d="M324.72,-515.53C347.06,-511.25 372.59,-506.35 395.83,-501.89"/>
<polygon fill="#63b8ff" stroke="#63b8ff" points="396.39,-505.35 405.55,-500.03 395.07,-498.47 396.39,-505.35"/>
</a>
</g>
</g>
<!-- Node8 -->
<g id="Node000008" class="node">
<title>Node8</title>
<g id="a_Node000008"><a xlink:href="pid_8c.html#a8977cc689f8f72deff8a981ff5da901f" target="_top" xlink:title="运行中修改增益（不复位积分，保证无扰切换）">
<polygon fill="white" stroke="#666666" points="706.75,-499.25 614.25,-499.25 614.25,-477 706.75,-477 706.75,-499.25"/>
<text xml:space="preserve" text-anchor="middle" x="660.5" y="-483.85" font-family="Helvetica,sans-Serif" font-size="12.00">PID_SetGains</text>
</a>
</g>
</g>
<!-- Node7&#45;&gt;Node8 -->
<g id="edge7_Node000007_Node000008" class="edge">
<title>Node7&#45;&gt;Node8</title>
<g id="a_edge7_Node000007_Node000008"><a xlink:title=" ">
<path fill="none" stroke="#63b8ff" d="M534.7,-488.12C556.71,-488.12 581.11,-488.12 602.45,-488.12"/>
<polygon fill="#63b8ff" stroke="#63b8ff" points="602.44,-491.63 612.44,-488.13 602.44,-484.63 602.44,-491.63"/>
</a>
</g>
</g>
<!-- Node12 -->
<g id="Node000012" class="node">
<title>Node12</title>
<g id="a_Node000012"><a xlink:href="protection_8c.html#a2edece24ac432f98c28ec146bfc9eb54" target="_top" xlink:title="初始化保护模块">
<polygon fill="white" stroke="#666666" points="504.75,-458.25 432.5,-458.25 432.5,-436 504.75,-436 504.75,-458.25"/>
<text xml:space="preserve" text-anchor="middle" x="468.62" y="-442.85" font-family="Helvetica,sans-Serif" font-size="12.00">PROT_Init</text>
</a>
</g>
</g>
<!-- Node11&#45;&gt;Node12 -->
<g id="edge13_Node000011_Node000012" class="edge">
<title>Node11&#45;&gt;Node12</title>
<g id="a_edge13_Node000011_Node000012"><a xlink:title=" ">
<path fill="none" stroke="#63b8ff" d="M312.27,-374.74C325.81,-377.7 340.13,-382.22 352.25,-389.12 372.46,-400.64 368.17,-415.37 388.25,-427.12 398.28,-432.99 409.99,-437.15 421.3,-440.1"/>
<polygon fill="#63b8ff" stroke="#63b8ff" points="420.38,-443.48 430.91,-442.32 421.96,-436.66 420.38,-443.48"/>
</a>
</g>
</g>
<!-- Node14 -->
<g id="Node000014" class="node">
<title>Node14</title>
<g id="a_Node000014"><a xlink:href="bsp__pwm_8c.html#a2664b56ad93d867fb05741e710ff942d" target="_top" xlink:title="封波（输出高阻，电机 freewheel）">
<polygon fill="white" stroke="#666666" points="531,-418.25 406.25,-418.25 406.25,-396 531,-396 531,-418.25"/>
<text xml:space="preserve" text-anchor="middle" x="468.62" y="-402.85" font-family="Helvetica,sans-Serif" font-size="12.00">BSP_PWM_Disable</text>
</a>
</g>
</g>
<!-- Node13&#45;&gt;Node14 -->
<g id="edge15_Node000013_Node000014" class="edge">
<title>Node13&#45;&gt;Node14</title>
<g id="a_edge15_Node000013_Node000014"><a xlink:title=" ">
<path fill="none" stroke="#63b8ff" d="M304.77,-333.82C320.26,-336.75 337.68,-341.49 352.25,-349.12 371.48,-359.2 369.45,-371.27 388.25,-382.12 394.64,-385.81 401.64,-389.02 408.75,-391.8"/>
<polygon fill="#63b8ff" stroke="#63b8ff" points="407.17,-394.95 417.76,-395.06 409.54,-388.37 407.17,-394.95"/>
</a>
</g>
</g>
<!-- Node15 -->
<g id="Node000015" class="node">
<title>Node15</title>
<g id="a_Node000015"><a xlink:href="foc_8c.html#aa25cf599086b4ad815ae5ad72dcfdec4" target="_top" xlink:title="复位电流环状态（封波后重新使能前调用，防止积分残留冲击）">
<polygon fill="white" stroke="#666666" points="508.5,-340.25 428.75,-340.25 428.75,-318 508.5,-318 508.5,-340.25"/>
<text xml:space="preserve" text-anchor="middle" x="468.62" y="-324.85" font-family="Helvetica,sans-Serif" font-size="12.00">FOC_Reset</text>
</a>
</g>
</g>
<!-- Node13&#45;&gt;Node15 -->
<g id="edge16_Node000013_Node000015" class="edge">
<title>Node13&#45;&gt;Node15</title>
<g id="a_edge16_Node000013_Node000015"><a xlink:title=" ">
<path fill="none" stroke="#63b8ff" d="M304.92,-329.12C337.2,-329.12 382.51,-329.12 417.12,-329.12"/>
<polygon fill="#63b8ff" stroke="#63b8ff" points="416.9,-332.63 426.9,-329.13 416.9,-325.63 416.9,-332.63"/>
</a>
</g>
</g>
<!-- Node16 -->
<g id="Node000016" class="node">
<title>Node16</title>
<g id="a_Node000016"><a xlink:href="pid_8c.html#acb76685b15d3fde29d9bd5548b3268c1" target="_top" xlink:title="复位 PID 内部状态（积分/历史误差/输出）">
<polygon fill="white" stroke="#666666" points="697.75,-340.25 623.25,-340.25 623.25,-318 697.75,-318 697.75,-340.25"/>
<text xml:space="preserve" text-anchor="middle" x="660.5" y="-324.85" font-family="Helvetica,sans-Serif" font-size="12.00">PID_Reset</text>
</a>
</g>
</g>
<!-- Node13&#45;&gt;Node16 -->
<g id="edge18_Node000013_Node000016" class="edge">
<title>Node13&#45;&gt;Node16</title>
<g id="a_edge18_Node000013_Node000016"><a xlink:title=" ">
<path fill="none" stroke="#63b8ff" d="M305.1,-337.4C329.19,-341.86 360.32,-346.89 388.25,-349.12 459.47,-354.83 477.84,-355.51 549,-349.12 569.68,-347.27 592.28,-343.5 611.62,-339.72"/>
<polygon fill="#63b8ff" stroke="#63b8ff" points="612.29,-343.16 621.41,-337.75 610.91,-336.29 612.29,-343.16"/>
</a>
</g>
</g>
<!-- Node15&#45;&gt;Node16 -->
<g id="edge17_Node000015_Node000016" class="edge">
<title>Node15&#45;&gt;Node16</title>
<g id="a_edge17_Node000015_Node000016"><a xlink:title=" ">
<path fill="none" stroke="#63b8ff" d="M508.97,-329.12C538.76,-329.12 579.84,-329.12 611.56,-329.12"/>
<polygon fill="#63b8ff" stroke="#63b8ff" points="611.27,-332.63 621.27,-329.13 611.27,-325.63 611.27,-332.63"/>
</a>
</g>
</g>
<!-- Node17&#45;&gt;Node15 -->
<g id="edge22_Node000017_Node000015" class="edge">
<title>Node17&#45;&gt;Node15</title>
<g id="a_edge22_Node000017_Node000015"><a xlink:title=" ">
<path fill="none" stroke="#63b8ff" d="M303.41,-252.78C319.38,-255.57 337.52,-260.48 352.25,-269.12 372.88,-281.23 367.77,-296.78 388.25,-309.12 397.1,-314.46 407.32,-318.38 417.43,-321.25"/>
<polygon fill="#63b8ff" stroke="#63b8ff" points="416.26,-324.56 426.81,-323.61 417.96,-317.78 416.26,-324.56"/>
</a>
</g>
</g>
<!-- Node17&#45;&gt;Node16 -->
<g id="edge23_Node000017_Node000016" class="edge">
<title>Node17&#45;&gt;Node16</title>
<g id="a_edge23_Node000017_Node000016"><a xlink:title=" ">
<path fill="none" stroke="#63b8ff" d="M303.44,-243.02C360.63,-236.01 468.83,-230 549,-269.12 570.49,-279.62 564.61,-296.62 585,-309.12 593.21,-314.16 602.68,-317.94 612.05,-320.78"/>
<polygon fill="#63b8ff" stroke="#63b8ff" points="610.91,-324.1 621.48,-323.3 612.72,-317.33 610.91,-324.1"/>
</a>
</g>
</g>
<!-- Node18 -->
<g id="Node000018" class="node">
<title>Node18</title>
<g id="a_Node000018"><a xlink:href="bsp__pwm_8c.html#a4bdefcd18b0b080f1e8db825e33c80e8" target="_top" xlink:title="使能功率输出（解除封波）">
<polygon fill="white" stroke="#666666" points="529.5,-222.25 407.75,-222.25 407.75,-200 529.5,-200 529.5,-222.25"/>
<text xml:space="preserve" text-anchor="middle" x="468.62" y="-206.85" font-family="Helvetica,sans-Serif" font-size="12.00">BSP_PWM_Enable</text>
</a>
</g>
</g>
<!-- Node17&#45;&gt;Node18 -->
<g id="edge20_Node000017_Node000018" class="edge">
<title>Node17&#45;&gt;Node18</title>
<g id="a_edge20_Node000017_Node000018"><a xlink:title=" ">
<path fill="none" stroke="#63b8ff" d="M303.46,-241.8C329.68,-236.9 364.94,-230.31 396.06,-224.5"/>
<polygon fill="#63b8ff" stroke="#63b8ff" points="396.64,-227.95 405.82,-222.67 395.35,-221.07 396.64,-227.95"/>
</a>
</g>
</g>
<!-- Node17&#45;&gt;Node20 -->
<g id="edge24_Node000017_Node000020" class="edge">
<title>Node17&#45;&gt;Node20</title>
<g id="a_edge24_Node000017_Node000020"><a xlink:title=" ">
<path fill="none" stroke="#63b8ff" d="M303.46,-242.11C319.27,-238.25 337.27,-232.49 352.25,-224.12 371.2,-213.54 369.14,-201.42 388.25,-191.12 391.12,-189.58 394.12,-188.14 397.19,-186.82"/>
<polygon fill="#63b8ff" stroke="#63b8ff" points="398.38,-190.11 406.47,-183.27 395.88,-183.58 398.38,-190.11"/>
</a>
</g>
</g>
<!-- Node19 -->
<g id="Node000019" class="node">
<title>Node19</title>
<g id="a_Node000019"><a xlink:href="bsp__pwm_8c.html#af4a87e2cef845a3eba6d0170011ff08d" target="_top" xlink:title="三相占空比清零（低侧全导通：自举预充/动态刹车态）">
<polygon fill="white" stroke="#666666" points="736,-222.25 585,-222.25 585,-200 736,-200 736,-222.25"/>
<text xml:space="preserve" text-anchor="middle" x="660.5" y="-206.85" font-family="Helvetica,sans-Serif" font-size="12.00">BSP_PWM_SetDutyZero</text>
</a>
</g>
</g>
<!-- Node18&#45;&gt;Node19 -->
<g id="edge21_Node000018_Node000019" class="edge">
<title>Node18&#45;&gt;Node19</title>
<g id="a_edge21_Node000018_Node000019"><a xlink:title=" ">
<path fill="none" stroke="#63b8ff" d="M529.96,-211.12C543.81,-211.12 558.79,-211.12 573.49,-211.12"/>
<polygon fill="#63b8ff" stroke="#63b8ff" points="573.13,-214.63 583.13,-211.13 573.13,-207.63 573.13,-214.63"/>
</a>
</g>
</g>
<!-- Node24 -->
<g id="Node000024" class="node">
<title>Node24</title>
<g id="a_Node000024"><a xlink:href="motor__ctrl_8c.html#a5cbc0a7993d542a75e755f2e4dc5ab1e" target="_top" xlink:title="对称限幅">
<polygon fill="white" stroke="#666666" points="507,-102.25 430.25,-102.25 430.25,-80 507,-80 507,-102.25"/>
<text xml:space="preserve" text-anchor="middle" x="468.62" y="-86.85" font-family="Helvetica,sans-Serif" font-size="12.00">MC_Clamp</text>
</a>
</g>
</g>
<!-- Node23&#45;&gt;Node24 -->
<g id="edge28_Node000023_Node000024" class="edge">
<title>Node23&#45;&gt;Node24</title>
<g id="a_edge28_Node000023_Node000024"><a xlink:title=" ">
<path fill="none" stroke="#63b8ff" d="M320.36,-91.12C351.19,-91.12 389.06,-91.12 418.68,-91.12"/>
<polygon fill="#63b8ff" stroke="#63b8ff" points="418.49,-94.63 428.49,-91.13 418.49,-87.63 418.49,-94.63"/>
</a>
</g>
</g>
<!-- Node27&#45;&gt;Node15 -->
<g id="edge35_Node000027_Node000015" class="edge">
<title>Node27&#45;&gt;Node15</title>
<g id="a_edge35_Node000027_Node000015"><a xlink:title=" ">
<path fill="none" stroke="#63b8ff" d="M323.35,-300.75C353.17,-306.61 388.95,-313.65 417.42,-319.25"/>
<polygon fill="#63b8ff" stroke="#63b8ff" points="416.36,-322.61 426.85,-321.11 417.72,-315.74 416.36,-322.61"/>
</a>
</g>
</g>
<!-- Node27&#45;&gt;Node18 -->
<g id="edge32_Node000027_Node000018" class="edge">
<title>Node27&#45;&gt;Node18</title>
<g id="a_edge32_Node000027_Node000018"><a xlink:title=" ">
<path fill="none" stroke="#63b8ff" d="M323.98,-277.61C333.55,-275.18 343.25,-272.35 352.25,-269.12 382.81,-258.16 415.71,-241.04 438.53,-228.23"/>
<polygon fill="#63b8ff" stroke="#63b8ff" points="439.99,-231.43 446.95,-223.44 436.53,-225.35 439.99,-231.43"/>
</a>
</g>
</g>
<!-- Node28 -->
<g id="Node000028" class="node">
<title>Node28</title>
<g id="a_Node000028"><a xlink:href="calibration_8c.html#a799bd918d9fd1f5b3c231d1d92b7fe0d" target="_top" xlink:title="启动校准状态机">
<polygon fill="white" stroke="#666666" points="504.38,-300.25 432.88,-300.25 432.88,-278 504.38,-278 504.38,-300.25"/>
<text xml:space="preserve" text-anchor="middle" x="468.62" y="-284.85" font-family="Helvetica,sans-Serif" font-size="12.00">CAL_Start</text>
</a>
</g>
</g>
<!-- Node27&#45;&gt;Node28 -->
<g id="edge33_Node000027_Node000028" class="edge">
<title>Node27&#45;&gt;Node28</title>
<g id="a_edge33_Node000027_Node000028"><a xlink:title=" ">
<path fill="none" stroke="#63b8ff" d="M326.1,-289.12C356.81,-289.12 393.28,-289.12 421.5,-289.12"/>
<polygon fill="#63b8ff" stroke="#63b8ff" points="421.15,-292.63 431.15,-289.13 421.15,-285.63 421.15,-292.63"/>
</a>
</g>
</g>
<!-- Node29 -->
<g id="Node000029" class="node">
<title>Node29</title>
<g id="a_Node000029"><a xlink:href="bsp__encoder_8c.html#a3daa1572c53aadb74b5ef71eb5422da8" target="_top" xlink:title="读取方向反转标志">
<polygon fill="white" stroke="#666666" points="724.75,-300.25 596.25,-300.25 596.25,-278 724.75,-278 724.75,-300.25"/>
<text xml:space="preserve" text-anchor="middle" x="660.5" y="-284.85" font-family="Helvetica,sans-Serif" font-size="12.00">BSP_ENC_GetInvert</text>
</a>
</g>
</g>
<!-- Node28&#45;&gt;Node29 -->
<g id="edge34_Node000028_Node000029" class="edge">
<title>Node28&#45;&gt;Node29</title>
<g id="a_edge34_Node000028_Node000029"><a xlink:title=" ">
<path fill="none" stroke="#63b8ff" d="M504.45,-289.12C526.94,-289.12 557.07,-289.12 584.79,-289.12"/>
<polygon fill="#63b8ff" stroke="#63b8ff" points="584.58,-292.63 594.58,-289.13 584.58,-285.63 584.58,-292.63"/>
</a>
</g>
</g>
</g>
</svg>
