<?xml version="1.0" encoding="UTF-8" standalone="no"?>
<!DOCTYPE svg PUBLIC "-//W3C//DTD SVG 1.1//EN"
 "http://www.w3.org/Graphics/SVG/1.1/DTD/svg11.dtd">
<!-- Generated by graphviz version 15.1.0 (20260618.0150)
 -->
<!-- Title: APP_SHELL_Help Pages: 1 -->
<svg width="601pt" height="30pt"
 viewBox="0.00 0.00 601.00 30.00" xmlns="http://www.w3.org/2000/svg" xmlns:xlink="http://www.w3.org/1999/xlink">
<g id="graph0" class="graph" transform="scale(1 1) rotate(0) translate(4 26.25)">
<title>APP_SHELL_Help</title>
<!-- Node1 -->
<g id="Node000001" class="node">
<title>Node1</title>
<g id="a_Node000001"><a xlink:title="help 输出">
<polygon fill="#999999" stroke="#666666" points="118.75,-22.25 0,-22.25 0,0 118.75,0 118.75,-22.25"/>
<text xml:space="preserve" text-anchor="middle" x="59.38" y="-6.85" font-family="Helvetica,sans-Serif" font-size="12.00">APP_SHELL_Help</text>
</a>
</g>
</g>
<!-- Node2 -->
<g id="Node000002" class="node">
<title>Node2</title>
<g id="a_Node000002"><a xlink:href="bsp__uart_8c.html#ac8fe8954e03174bb365847f52531e218" target="_top" xlink:title="格式化打印到调试串口（非阻塞）">
<polygon fill="white" stroke="#666666" points="269.75,-22.25 154.75,-22.25 154.75,0 269.75,0 269.75,-22.25"/>
<text xml:space="preserve" text-anchor="middle" x="212.25" y="-6.85" font-family="Helvetica,sans-Serif" font-size="12.00">BSP_UART_Printf</text>
</a>
</g>
</g>
<!-- Node1&#45;&gt;Node2 -->
<g id="edge1_Node000001_Node000002" class="edge">
<title>Node1&#45;&gt;Node2</title>
<g id="a_edge1_Node000001_Node000002"><a xlink:title=" ">
<path fill="none" stroke="#63b8ff" d="M119.14,-11.12C126.92,-11.12 134.95,-11.12 142.88,-11.12"/>
<polygon fill="#63b8ff" stroke="#63b8ff" points="142.87,-14.63 152.87,-11.13 142.87,-7.63 142.87,-14.63"/>
</a>
</g>
</g>
<!-- Node3 -->
<g id="Node000003" class="node">
<title>Node3</title>
<g id="a_Node000003"><a xlink:href="bsp__uart_8c.html#a67e2eb7d361398076d0800612430f13c" target="_top" xlink:title="向 TX 环形缓冲写入数据（非阻塞）">
<polygon fill="white" stroke="#666666" points="420.75,-22.25 305.75,-22.25 305.75,0 420.75,0 420.75,-22.25"/>
<text xml:space="preserve" text-anchor="middle" x="363.25" y="-6.85" font-family="Helvetica,sans-Serif" font-size="12.00">BSP_UART_Write</text>
</a>
</g>
</g>
<!-- Node2&#45;&gt;Node3 -->
<g id="edge2_Node000002_Node000003" class="edge">
<title>Node2&#45;&gt;Node3</title>
<g id="a_edge2_Node000002_Node000003"><a xlink:title=" ">
<path fill="none" stroke="#63b8ff" d="M270.01,-11.12C277.94,-11.12 286.17,-11.12 294.28,-11.12"/>
<polygon fill="#63b8ff" stroke="#63b8ff" points="294.14,-14.63 304.14,-11.13 294.14,-7.63 294.14,-14.63"/>
</a>
</g>
</g>
<!-- Node4 -->
<g id="Node000004" class="node">
<title>Node4</title>
<g id="a_Node000004"><a xlink:href="bsp__uart_8c.html#ad4dee4b2dd593f1d4c141de95156546d" target="_top" xlink:title="若 DMA 空闲且缓冲有数据，则启动下一段 DMA 传输">
<polygon fill="white" stroke="#666666" points="592.75,-22.25 456.75,-22.25 456.75,0 592.75,0 592.75,-22.25"/>
<text xml:space="preserve" text-anchor="middle" x="524.75" y="-6.85" font-family="Helvetica,sans-Serif" font-size="12.00">BSP_UART_KickDma</text>
</a>
</g>
</g>
<!-- Node3&#45;&gt;Node4 -->
<g id="edge3_Node000003_Node000004" class="edge">
<title>Node3&#45;&gt;Node4</title>
<g id="a_edge3_Node000003_Node000004"><a xlink:title=" ">
<path fill="none" stroke="#63b8ff" d="M420.93,-11.12C428.72,-11.12 436.83,-11.12 444.93,-11.12"/>
<polygon fill="#63b8ff" stroke="#63b8ff" points="444.83,-14.63 454.83,-11.13 444.83,-7.63 444.83,-14.63"/>
</a>
</g>
</g>
</g>
</svg>
