<?xml version="1.0" encoding="UTF-8" standalone="no"?>
<!DOCTYPE svg PUBLIC "-//W3C//DTD SVG 1.1//EN"
 "http://www.w3.org/Graphics/SVG/1.1/DTD/svg11.dtd">
<!-- Generated by graphviz version 15.1.0 (20260618.0150)
 -->
<!-- Title: APP_LED_Poll Pages: 1 -->
<!--zoomable 230 -->

<svg id="main" version="1.1" xmlns="http://www.w3.org/2000/svg" xmlns:xlink="http://www.w3.org/1999/xlink" xml:space="preserve" onload="init(evt)">

<style type="text/css"><![CDATA[
.node, .edge {opacity: 0.7;}
.node.selected, .edge.selected {opacity: 1;}
.edge:hover path { stroke: red; }
.edge:hover polygon { stroke: red; fill: red; }
]]></style>

<defs>
  <circle id="rim" cx="0" cy="0" r="7"/>
  <circle id="rim2" cx="0" cy="0" r="3.5"/>
  <g id="zoomPlus">
    <use xlink:href="#rim" fill="#404040"><set attributeName="fill" to="#808080" begin="zoomplus.mouseover" end="zoomplus.mouseout"/></use>
    <path d="M-4,0h8M0,-4v8" fill="none" stroke="white" stroke-width="1.5" pointer-events="none"/>
  </g>
  <g id="zoomMin">
    <use xlink:href="#rim" fill="#404040"><set attributeName="fill" to="#808080" begin="zoomminus.mouseover" end="zoomminus.mouseout"/></use>
    <path d="M-4,0h8" fill="none" stroke="white" stroke-width="1.5" pointer-events="none"/>
  </g>
  <g id="arrowUp" transform="translate(30 24)">
    <use xlink:href="#rim"/>
    <path pointer-events="none" fill="none" stroke="white" stroke-width="1.5" d="M0,-3.0v7 M-2.5,-0.5L0,-3.0L2.5,-0.5"/>
  </g>
  <g id="arrowRight" transform="rotate(90) translate(36 -43)">
    <use xlink:href="#rim"/>
    <path pointer-events="none" fill="none" stroke="white" stroke-width="1.5" d="M0,-3.0v7 M-2.5,-0.5L0,-3.0L2.5,-0.5"/>
  </g>
  <g id="arrowDown" transform="rotate(180) translate(-30 -48)">
    <use xlink:href="#rim"/>
    <path pointer-events="none" fill="none" stroke="white" stroke-width="1.5" d="M0,-3.0v7 M-2.5,-0.5L0,-3.0L2.5,-0.5"/>
  </g>
  <g id="arrowLeft" transform="rotate(270) translate(-36 17)">
    <use xlink:href="#rim"/>
    <path pointer-events="none" fill="none" stroke="white" stroke-width="1.5" d="M0,-3.0v7 M-2.5,-0.5L0,-3.0L2.5,-0.5"/>
  </g>
  <g id="resetDef">
    <use xlink:href="#rim2" fill="#404040"><set attributeName="fill" to="#808080" begin="reset.mouseover" end="reset.mouseout"/></use>
  </g>
</defs>
<script type="application/ecmascript">
var viewWidth = 532;
var viewHeight = 230;
var sectionId = 'dynsection-3';
</script>
<script type="application/ecmascript" xlink:href="svg.min.js"/>
<svg id="graph" class="graph">
<g id="viewport">
<title>APP_LED_Poll</title>
<!-- Node1 -->
<g id="Node000001" class="node">
<title>Node1</title>
<g id="a_Node000001"><a xlink:title="灯语轮询（后台调用，内部按 HAL tick 计时）">
<polygon fill="#999999" stroke="#666666" points="99.25,-122.25 0,-122.25 0,-100 99.25,-100 99.25,-122.25"/>
<text xml:space="preserve" text-anchor="middle" x="49.62" y="-106.85" font-family="Helvetica,sans-Serif" font-size="12.00">APP_LED_Poll</text>
</a>
</g>
</g>
<!-- Node2 -->
<g id="Node000002" class="node">
<title>Node2</title>
<g id="a_Node000002"><a xlink:href="app__led_8c.html#aa5c9874a71538d3adde7861bbc32fe8d" target="_top" xlink:title="呼吸亮度三角波（16~255）">
<polygon fill="white" stroke="#666666" points="294.88,-222.25 152.12,-222.25 152.12,-200 294.88,-200 294.88,-222.25"/>
<text xml:space="preserve" text-anchor="middle" x="223.5" y="-206.85" font-family="Helvetica,sans-Serif" font-size="12.00">APP_LED_BreathLevel</text>
</a>
</g>
</g>
<!-- Node1&#45;&gt;Node2 -->
<g id="edge1_Node000001_Node000002" class="edge">
<title>Node1&#45;&gt;Node2</title>
<g id="a_edge1_Node000001_Node000002"><a xlink:title=" ">
<path fill="none" stroke="#63b8ff" d="M59.39,-122.67C73.4,-140.29 102.63,-173.67 135.25,-191.12 138.3,-192.76 141.49,-194.26 144.75,-195.64"/>
<polygon fill="#63b8ff" stroke="#63b8ff" points="143.4,-198.87 154,-199.11 145.86,-192.32 143.4,-198.87"/>
</a>
</g>
</g>
<!-- Node3 -->
<g id="Node000003" class="node">
<title>Node3</title>
<g id="a_Node000003"><a xlink:href="bsp__ws2812_8c.html#aa37a05d3f08e933332ee61dfb411e731" target="_top" xlink:title="读取当前全局亮度">
<polygon fill="white" stroke="#666666" points="311.75,-182.25 135.25,-182.25 135.25,-160 311.75,-160 311.75,-182.25"/>
<text xml:space="preserve" text-anchor="middle" x="223.5" y="-166.85" font-family="Helvetica,sans-Serif" font-size="12.00">BSP_WS2812_GetBrightness</text>
</a>
</g>
</g>
<!-- Node1&#45;&gt;Node3 -->
<g id="edge2_Node000001_Node000003" class="edge">
<title>Node1&#45;&gt;Node3</title>
<g id="a_edge2_Node000001_Node000003"><a xlink:title=" ">
<path fill="none" stroke="#63b8ff" d="M71.65,-122.63C88.46,-131.44 112.83,-143.36 135.25,-151.12 140.94,-153.1 146.91,-154.93 152.94,-156.62"/>
<polygon fill="#63b8ff" stroke="#63b8ff" points="151.78,-159.93 162.35,-159.12 153.58,-153.17 151.78,-159.93"/>
</a>
</g>
</g>
<!-- Node4 -->
<g id="Node000004" class="node">
<title>Node4</title>
<g id="a_Node000004"><a xlink:href="bsp__ws2812_8c.html#a3470d95e73928ee18598b72489c8eb33" target="_top" xlink:title="后台轮询：颜色有更新且 DMA 空闲时发送一帧">
<polygon fill="white" stroke="#666666" points="284.38,-142.25 162.62,-142.25 162.62,-120 284.38,-120 284.38,-142.25"/>
<text xml:space="preserve" text-anchor="middle" x="223.5" y="-126.85" font-family="Helvetica,sans-Serif" font-size="12.00">BSP_WS2812_Poll</text>
</a>
</g>
</g>
<!-- Node1&#45;&gt;Node4 -->
<g id="edge3_Node000001_Node000004" class="edge">
<title>Node1&#45;&gt;Node4</title>
<g id="a_edge3_Node000001_Node000004"><a xlink:title=" ">
<path fill="none" stroke="#63b8ff" d="M99.42,-116.8C115.46,-118.67 133.63,-120.78 151,-122.8"/>
<polygon fill="#63b8ff" stroke="#63b8ff" points="150.42,-126.26 160.76,-123.94 151.23,-119.31 150.42,-126.26"/>
</a>
</g>
</g>
<!-- Node6 -->
<g id="Node000006" class="node">
<title>Node6</title>
<g id="a_Node000006"><a xlink:href="bsp__ws2812_8c.html#aa343d7fb9bc7f5c802804cd659494aea" target="_top" xlink:title="设置全局亮度（0~255，线性缩放）">
<polygon fill="white" stroke="#666666" points="311.38,-102.25 135.62,-102.25 135.62,-80 311.38,-80 311.38,-102.25"/>
<text xml:space="preserve" text-anchor="middle" x="223.5" y="-86.85" font-family="Helvetica,sans-Serif" font-size="12.00">BSP_WS2812_SetBrightness</text>
</a>
</g>
</g>
<!-- Node1&#45;&gt;Node6 -->
<g id="edge5_Node000001_Node000006" class="edge">
<title>Node1&#45;&gt;Node6</title>
<g id="a_edge5_Node000001_Node000006"><a xlink:title=" ">
<path fill="none" stroke="#63b8ff" d="M99.42,-105.45C107.22,-104.54 115.52,-103.57 123.99,-102.59"/>
<polygon fill="#63b8ff" stroke="#63b8ff" points="124.16,-106.09 133.69,-101.46 123.35,-99.14 124.16,-106.09"/>
</a>
</g>
</g>
<!-- Node8 -->
<g id="Node000008" class="node">
<title>Node8</title>
<g id="a_Node000008"><a xlink:href="bsp__ws2812_8c.html#a14f4272e51ac6b64194ad2368ed44a71" target="_top" xlink:title="设置目标颜色（缓存，Poll 时发送）">
<polygon fill="white" stroke="#666666" points="297.5,-62.25 149.5,-62.25 149.5,-40 297.5,-40 297.5,-62.25"/>
<text xml:space="preserve" text-anchor="middle" x="223.5" y="-46.85" font-family="Helvetica,sans-Serif" font-size="12.00">BSP_WS2812_SetColor</text>
</a>
</g>
</g>
<!-- Node1&#45;&gt;Node8 -->
<g id="edge7_Node000001_Node000008" class="edge">
<title>Node1&#45;&gt;Node8</title>
<g id="a_edge7_Node000001_Node000008"><a xlink:title=" ">
<path fill="none" stroke="#63b8ff" d="M71.65,-99.62C88.46,-90.81 112.83,-78.89 135.25,-71.12 140.94,-69.15 146.91,-67.32 152.94,-65.63"/>
<polygon fill="#63b8ff" stroke="#63b8ff" points="153.58,-69.08 162.35,-63.13 151.78,-62.32 153.58,-69.08"/>
</a>
</g>
</g>
<!-- Node9 -->
<g id="Node000009" class="node">
<title>Node9</title>
<g id="a_Node000009"><a xlink:href="protection_8c.html#a36b53f217ddfdc3e968ee7f7c4ebc113" target="_top" xlink:title="是否处于告警区（LED 黄色显示用）">
<polygon fill="white" stroke="#666666" points="278.75,-22.25 168.25,-22.25 168.25,0 278.75,0 278.75,-22.25"/>
<text xml:space="preserve" text-anchor="middle" x="223.5" y="-6.85" font-family="Helvetica,sans-Serif" font-size="12.00">PROT_IsWarning</text>
</a>
</g>
</g>
<!-- Node1&#45;&gt;Node9 -->
<g id="edge9_Node000001_Node000009" class="edge">
<title>Node1&#45;&gt;Node9</title>
<g id="a_edge9_Node000001_Node000009"><a xlink:title=" ">
<path fill="none" stroke="#63b8ff" d="M59.39,-99.58C73.4,-81.96 102.63,-48.58 135.25,-31.12 141.97,-27.53 149.32,-24.58 156.81,-22.15"/>
<polygon fill="#63b8ff" stroke="#63b8ff" points="157.73,-25.53 166.37,-19.39 155.79,-18.8 157.73,-25.53"/>
</a>
</g>
</g>
<!-- Node5 -->
<g id="Node000005" class="node">
<title>Node5</title>
<g id="a_Node000005"><a xlink:href="bsp__ws2812_8c.html#af78d71e38b5babd81761d5c6e92f6acf" target="_top" xlink:title="将 24bit 颜色编码为 CCR 序列">
<polygon fill="white" stroke="#666666" points="506.62,-142.25 364.62,-142.25 364.62,-120 506.62,-120 506.62,-142.25"/>
<text xml:space="preserve" text-anchor="middle" x="435.62" y="-126.85" font-family="Helvetica,sans-Serif" font-size="12.00">BSP_WS2812_Encode</text>
</a>
</g>
</g>
<!-- Node4&#45;&gt;Node5 -->
<g id="edge4_Node000004_Node000005" class="edge">
<title>Node4&#45;&gt;Node5</title>
<g id="a_edge4_Node000004_Node000005"><a xlink:title=" ">
<path fill="none" stroke="#63b8ff" d="M284.71,-131.12C305.98,-131.12 330.27,-131.12 353.01,-131.12"/>
<polygon fill="#63b8ff" stroke="#63b8ff" points="352.87,-134.63 362.87,-131.13 352.87,-127.63 352.87,-134.63"/>
</a>
</g>
</g>
<!-- Node7 -->
<g id="Node000007" class="node">
<title>Node7</title>
<g id="a_Node000007"><a xlink:href="bsp__ws2812_8c.html#a414a0748f0ef37a68dc8383d5356ddf6" target="_top" xlink:title="按亮度缩放当前颜色并生成发送序颜色字，标记待发送">
<polygon fill="white" stroke="#666666" points="523.5,-82.25 347.75,-82.25 347.75,-60 523.5,-60 523.5,-82.25"/>
<text xml:space="preserve" text-anchor="middle" x="435.62" y="-66.85" font-family="Helvetica,sans-Serif" font-size="12.00">BSP_WS2812_RefreshTarget</text>
</a>
</g>
</g>
<!-- Node6&#45;&gt;Node7 -->
<g id="edge6_Node000006_Node000007" class="edge">
<title>Node6&#45;&gt;Node7</title>
<g id="a_edge6_Node000006_Node000007"><a xlink:title=" ">
<path fill="none" stroke="#63b8ff" d="M311.79,-82.82C319.76,-82.06 327.87,-81.29 335.93,-80.52"/>
<polygon fill="#63b8ff" stroke="#63b8ff" points="336.14,-84.01 345.77,-79.58 335.48,-77.05 336.14,-84.01"/>
</a>
</g>
</g>
<!-- Node8&#45;&gt;Node7 -->
<g id="edge8_Node000008_Node000007" class="edge">
<title>Node8&#45;&gt;Node7</title>
<g id="a_edge8_Node000008_Node000007"><a xlink:title=" ">
<path fill="none" stroke="#63b8ff" d="M297.99,-58.12C310.35,-59.3 323.35,-60.53 336.21,-61.76"/>
<polygon fill="#63b8ff" stroke="#63b8ff" points="335.67,-65.22 345.96,-62.69 336.34,-58.25 335.67,-65.22"/>
</a>
</g>
</g>
</g>
</svg>

<g id="navigator" transform="translate(0 0)" fill="#404254">
  <rect fill="#f2f5e9" fill-opacity="0.5" stroke="#606060" stroke-width=".5" x="0" y="0" width="60" height="60"/>
  <use id="zoomplus" xlink:href="#zoomPlus" x="17" y="9" onmousedown="handleZoom(evt,'in')"/>
  <use id="zoomminus" xlink:href="#zoomMin" x="42" y="9" onmousedown="handleZoom(evt,'out')"/>
  <use id="reset" xlink:href="#resetDef" x="30" y="36" onmousedown="handleReset()"/>
   <use id="arrowup" xlink:href="#arrowUp" x="0" y="0" onmousedown="handlePan(0,-1)"/>
  <use id="arrowright" xlink:href="#arrowRight" x="0" y="0" onmousedown="handlePan(1,0)"/>
  <use id="arrowdown" xlink:href="#arrowDown" x="0" y="0" onmousedown="handlePan(0,1)"/>
  <use id="arrowleft" xlink:href="#arrowLeft" x="0" y="0" onmousedown="handlePan(-1,0)"/>
</g>
<svg viewBox="0 0 15 15" width="100%" height="30px" preserveAspectRatio="xMaxYMin meet">
 <g id="arrow_out" transform="scale(0.3 0.3)">
  <a xlink:href="app__led_8h_a0667624ed63a699e14975ababc2eeb67_cgraph_org.svg" target="_base">
   <rect id="button" ry="5" rx="5" y="6" x="6" height="38" width="38"
        fill="#f2f5e9" fill-opacity="0.5" stroke="#606060" stroke-width="1.0"/>
   <path id="arrow"
     d="M 11.500037,31.436501 C 11.940474,20.09759 22.043105,11.32322 32.158766,21.979434 L 37.068811,17.246167 C 37.068811,17.246167 37.088388,32 37.088388,32 L 22.160133,31.978069 C 22.160133,31.978069 26.997745,27.140456 26.997745,27.140456 C 18.528582,18.264221 13.291696,25.230495 11.500037,31.436501 z"
     style="fill:#404040;"/>
  </a>
 </g>
</svg>

<style type='text/css'>
<![CDATA[
[data-mouse-over-selected='false'] { opacity: 0.7; }
[data-mouse-over-selected='true']  { opacity: 1.0; }
]]>
</style>
<script type="application/ecmascript"><![CDATA[
document.addEventListener('DOMContentLoaded', (event) => {
  highlightEdges();
  highlightAdjacentNodes();
});
]]></script>
</svg>
