<?xml version="1.0" encoding="UTF-8" standalone="no"?>
<!DOCTYPE svg PUBLIC "-//W3C//DTD SVG 1.1//EN"
 "http://www.w3.org/Graphics/SVG/1.1/DTD/svg11.dtd">
<!-- Generated by graphviz version 15.1.0 (20260618.0150)
 -->
<!-- Title: APP_SlowTask Pages: 1 -->
<svg width="812pt" height="270pt"
 viewBox="0.00 0.00 812.00 270.00" xmlns="http://www.w3.org/2000/svg" xmlns:xlink="http://www.w3.org/1999/xlink">
<g id="graph0" class="graph" transform="scale(1 1) rotate(0) translate(4 266.25)">
<title>APP_SlowTask</title>
<!-- Node1 -->
<g id="Node000001" class="node">
<title>Node1</title>
<g id="a_Node000001"><a xlink:title="慢任务：温度采样/过温保护/CAN 指令超时">
<polygon fill="#999999" stroke="#666666" points="99.25,-142.25 0,-142.25 0,-120 99.25,-120 99.25,-142.25"/>
<text xml:space="preserve" text-anchor="middle" x="49.62" y="-126.85" font-family="Helvetica,sans-Serif" font-size="12.00">APP_SlowTask</text>
</a>
</g>
</g>
<!-- Node2 -->
<g id="Node000002" class="node">
<title>Node2</title>
<g id="a_Node000002"><a xlink:href="app__can__protocol_8c.html#aa7ee6d44a81d3042e0e6f9a3d161cda2" target="_top" xlink:title="查询当前使能是否由 CAN 发起（指令超时保护范围判定）">
<polygon fill="white" stroke="#666666" points="303.5,-262.25 136,-262.25 136,-240 303.5,-240 303.5,-262.25"/>
<text xml:space="preserve" text-anchor="middle" x="219.75" y="-246.85" font-family="Helvetica,sans-Serif" font-size="12.00">APP_CAN_IsCanControlled</text>
</a>
</g>
</g>
<!-- Node1&#45;&gt;Node2 -->
<g id="edge1_Node000001_Node000002" class="edge">
<title>Node1&#45;&gt;Node2</title>
<g id="a_edge1_Node000001_Node000002"><a xlink:title=" ">
<path fill="none" stroke="#63b8ff" d="M56.88,-142.46C69.06,-163.43 98.06,-208.23 135.25,-231.12 137.55,-232.54 139.95,-233.86 142.41,-235.08"/>
<polygon fill="#63b8ff" stroke="#63b8ff" points="140.91,-238.24 151.47,-239.01 143.69,-231.82 140.91,-238.24"/>
</a>
</g>
</g>
<!-- Node3 -->
<g id="Node000003" class="node">
<title>Node3</title>
<g id="a_Node000003"><a xlink:href="bsp__adc_8c.html#afa9f3886839c064af2f9ea65e1809550" target="_top" xlink:title="读取 MOS 管温度 [摄氏度]（阻塞轮询规则组，后台调用）">
<polygon fill="white" stroke="#666666" points="300.5,-182.25 139,-182.25 139,-160 300.5,-160 300.5,-182.25"/>
<text xml:space="preserve" text-anchor="middle" x="219.75" y="-166.85" font-family="Helvetica,sans-Serif" font-size="12.00">BSP_ADC_ReadMosTemp</text>
</a>
</g>
</g>
<!-- Node1&#45;&gt;Node3 -->
<g id="edge2_Node000001_Node000003" class="edge">
<title>Node1&#45;&gt;Node3</title>
<g id="a_edge2_Node000001_Node000003"><a xlink:title=" ">
<path fill="none" stroke="#63b8ff" d="M99.25,-142.69C117.91,-147.13 139.41,-152.25 158.98,-156.91"/>
<polygon fill="#63b8ff" stroke="#63b8ff" points="157.93,-160.25 168.47,-159.16 159.55,-153.44 157.93,-160.25"/>
</a>
</g>
</g>
<!-- Node6 -->
<g id="Node000006" class="node">
<title>Node6</title>
<g id="a_Node000006"><a xlink:href="bsp__adc_8c.html#a48bb754e0f48feedd1f16cf6a5cc4abe" target="_top" xlink:title="读取电机绕组温度 [摄氏度]（阻塞轮询规则组，后台调用）">
<polygon fill="white" stroke="#666666" points="304.25,-222.25 135.25,-222.25 135.25,-200 304.25,-200 304.25,-222.25"/>
<text xml:space="preserve" text-anchor="middle" x="219.75" y="-206.85" font-family="Helvetica,sans-Serif" font-size="12.00">BSP_ADC_ReadMotorTemp</text>
</a>
</g>
</g>
<!-- Node1&#45;&gt;Node6 -->
<g id="edge5_Node000001_Node000006" class="edge">
<title>Node1&#45;&gt;Node6</title>
<g id="a_edge5_Node000001_Node000006"><a xlink:title=" ">
<path fill="none" stroke="#63b8ff" d="M63.42,-142.61C79.2,-156.17 107.37,-178.48 135.25,-191.12 139.26,-192.94 143.45,-194.61 147.74,-196.13"/>
<polygon fill="#63b8ff" stroke="#63b8ff" points="146.49,-199.41 157.08,-199.16 148.65,-192.75 146.49,-199.41"/>
</a>
</g>
</g>
<!-- Node7 -->
<g id="Node000007" class="node">
<title>Node7</title>
<g id="a_Node000007"><a xlink:href="bsp__uart_8c.html#ac8fe8954e03174bb365847f52531e218" target="_top" xlink:title="格式化打印到调试串口（非阻塞）">
<polygon fill="white" stroke="#666666" points="277.25,-142.25 162.25,-142.25 162.25,-120 277.25,-120 277.25,-142.25"/>
<text xml:space="preserve" text-anchor="middle" x="219.75" y="-126.85" font-family="Helvetica,sans-Serif" font-size="12.00">BSP_UART_Printf</text>
</a>
</g>
</g>
<!-- Node1&#45;&gt;Node7 -->
<g id="edge8_Node000001_Node000007" class="edge">
<title>Node1&#45;&gt;Node7</title>
<g id="a_edge8_Node000001_Node000007"><a xlink:title=" ">
<path fill="none" stroke="#63b8ff" d="M99.71,-131.12C115.69,-131.12 133.72,-131.12 150.83,-131.12"/>
<polygon fill="#63b8ff" stroke="#63b8ff" points="150.39,-134.63 160.39,-131.13 150.39,-127.63 150.39,-134.63"/>
</a>
</g>
</g>
<!-- Node10 -->
<g id="Node000010" class="node">
<title>Node10</title>
<g id="a_Node000010"><a xlink:href="motor__ctrl_8c.html#a0254f4cdae07bdb4781c9df4b540ffe8" target="_top" xlink:title="触发故障：立即封波并锁存（ISR 安全）">
<polygon fill="white" stroke="#666666" points="264.12,-102.25 175.38,-102.25 175.38,-80 264.12,-80 264.12,-102.25"/>
<text xml:space="preserve" text-anchor="middle" x="219.75" y="-86.85" font-family="Helvetica,sans-Serif" font-size="12.00">MC_TripFault</text>
</a>
</g>
</g>
<!-- Node1&#45;&gt;Node10 -->
<g id="edge11_Node000001_Node000010" class="edge">
<title>Node1&#45;&gt;Node10</title>
<g id="a_edge11_Node000001_Node000010"><a xlink:title=" ">
<path fill="none" stroke="#63b8ff" d="M99.25,-119.56C119.56,-114.72 143.24,-109.09 164.14,-104.12"/>
<polygon fill="#63b8ff" stroke="#63b8ff" points="164.71,-107.58 173.63,-101.86 163.09,-100.77 164.71,-107.58"/>
</a>
</g>
</g>
<!-- Node15 -->
<g id="Node000015" class="node">
<title>Node15</title>
<g id="a_Node000015"><a xlink:href="protection_8c.html#a80cdeb76b44bac1774ce87967ddd77aa" target="_top" xlink:title="检查 CAN 指令超时">
<polygon fill="white" stroke="#666666" points="297.88,-62.25 141.62,-62.25 141.62,-40 297.88,-40 297.88,-62.25"/>
<text xml:space="preserve" text-anchor="middle" x="219.75" y="-46.85" font-family="Helvetica,sans-Serif" font-size="12.00">PROT_CheckCanTimeout</text>
</a>
</g>
</g>
<!-- Node1&#45;&gt;Node15 -->
<g id="edge17_Node000001_Node000015" class="edge">
<title>Node1&#45;&gt;Node15</title>
<g id="a_edge17_Node000001_Node000015"><a xlink:title=" ">
<path fill="none" stroke="#63b8ff" d="M63.42,-119.64C79.2,-106.08 107.37,-83.77 135.25,-71.12 139.26,-69.31 143.45,-67.64 147.74,-66.12"/>
<polygon fill="#63b8ff" stroke="#63b8ff" points="148.65,-69.5 157.08,-63.09 146.49,-62.84 148.65,-69.5"/>
</a>
</g>
</g>
<!-- Node16 -->
<g id="Node000016" class="node">
<title>Node16</title>
<g id="a_Node000016"><a xlink:href="protection_8c.html#a69316e4d1e7f8cb9a4dfd6161c3b437e" target="_top" xlink:title="慢速保护检查（后台约 10Hz 调用）">
<polygon fill="white" stroke="#666666" points="278.75,-22.25 160.75,-22.25 160.75,0 278.75,0 278.75,-22.25"/>
<text xml:space="preserve" text-anchor="middle" x="219.75" y="-6.85" font-family="Helvetica,sans-Serif" font-size="12.00">PROT_CheckSlow</text>
</a>
</g>
</g>
<!-- Node1&#45;&gt;Node16 -->
<g id="edge18_Node000001_Node000016" class="edge">
<title>Node1&#45;&gt;Node16</title>
<g id="a_edge18_Node000001_Node000016"><a xlink:title=" ">
<path fill="none" stroke="#63b8ff" d="M56.88,-119.79C69.06,-98.82 98.06,-54.02 135.25,-31.12 139.77,-28.34 144.65,-25.94 149.7,-23.88"/>
<polygon fill="#63b8ff" stroke="#63b8ff" points="150.6,-27.28 158.83,-20.61 148.24,-20.69 150.6,-27.28"/>
</a>
</g>
</g>
<!-- Node4 -->
<g id="Node000004" class="node">
<title>Node4</title>
<g id="a_Node000004"><a xlink:href="bsp__adc_8c.html#a711d70fa87d9e888250585328414146f" target="_top" xlink:title="NTC 原始值转温度">
<polygon fill="white" stroke="#666666" points="501,-182.25 360.5,-182.25 360.5,-160 501,-160 501,-182.25"/>
<text xml:space="preserve" text-anchor="middle" x="430.75" y="-166.85" font-family="Helvetica,sans-Serif" font-size="12.00">BSP_ADC_NtcToTemp</text>
</a>
</g>
</g>
<!-- Node3&#45;&gt;Node4 -->
<g id="edge3_Node000003_Node000004" class="edge">
<title>Node3&#45;&gt;Node4</title>
<g id="a_edge3_Node000003_Node000004"><a xlink:title=" ">
<path fill="none" stroke="#63b8ff" d="M300.96,-171.12C316.7,-171.12 333.23,-171.12 349,-171.12"/>
<polygon fill="#63b8ff" stroke="#63b8ff" points="348.81,-174.63 358.81,-171.13 348.81,-167.63 348.81,-174.63"/>
</a>
</g>
</g>
<!-- Node5 -->
<g id="Node000005" class="node">
<title>Node5</title>
<g id="a_Node000005"><a xlink:href="bsp__adc_8c.html#a900bb32d34d9ee14f746741c3e985a4f" target="_top" xlink:title="软件触发单次规则组转换（NTC 慢通道专用）">
<polygon fill="white" stroke="#666666" points="521.25,-222.25 340.25,-222.25 340.25,-200 521.25,-200 521.25,-222.25"/>
<text xml:space="preserve" text-anchor="middle" x="430.75" y="-206.85" font-family="Helvetica,sans-Serif" font-size="12.00">BSP_ADC_ReadRegularOnce</text>
</a>
</g>
</g>
<!-- Node3&#45;&gt;Node5 -->
<g id="edge4_Node000003_Node000005" class="edge">
<title>Node3&#45;&gt;Node5</title>
<g id="a_edge4_Node000003_Node000005"><a xlink:title=" ">
<path fill="none" stroke="#63b8ff" d="M281.48,-182.75C305.42,-187.33 333.09,-192.63 358,-197.39"/>
<polygon fill="#63b8ff" stroke="#63b8ff" points="357.26,-200.82 367.74,-199.26 358.58,-193.94 357.26,-200.82"/>
</a>
</g>
</g>
<!-- Node6&#45;&gt;Node4 -->
<g id="edge6_Node000006_Node000004" class="edge">
<title>Node6&#45;&gt;Node4</title>
<g id="a_edge6_Node000006_Node000004"><a xlink:title=" ">
<path fill="none" stroke="#63b8ff" d="M281.48,-199.5C305.42,-194.92 333.09,-189.62 358,-184.86"/>
<polygon fill="#63b8ff" stroke="#63b8ff" points="358.58,-188.31 367.74,-182.99 357.26,-181.43 358.58,-188.31"/>
</a>
</g>
</g>
<!-- Node6&#45;&gt;Node5 -->
<g id="edge7_Node000006_Node000005" class="edge">
<title>Node6&#45;&gt;Node5</title>
<g id="a_edge7_Node000006_Node000005"><a xlink:title=" ">
<path fill="none" stroke="#63b8ff" d="M304.55,-211.12C312.43,-211.12 320.46,-211.12 328.48,-211.12"/>
<polygon fill="#63b8ff" stroke="#63b8ff" points="328.25,-214.63 338.25,-211.13 328.25,-207.63 328.25,-214.63"/>
</a>
</g>
</g>
<!-- Node8 -->
<g id="Node000008" class="node">
<title>Node8</title>
<g id="a_Node000008"><a xlink:href="bsp__uart_8c.html#a67e2eb7d361398076d0800612430f13c" target="_top" xlink:title="向 TX 环形缓冲写入数据（非阻塞）">
<polygon fill="white" stroke="#666666" points="488.25,-142.25 373.25,-142.25 373.25,-120 488.25,-120 488.25,-142.25"/>
<text xml:space="preserve" text-anchor="middle" x="430.75" y="-126.85" font-family="Helvetica,sans-Serif" font-size="12.00">BSP_UART_Write</text>
</a>
</g>
</g>
<!-- Node7&#45;&gt;Node8 -->
<g id="edge9_Node000007_Node000008" class="edge">
<title>Node7&#45;&gt;Node8</title>
<g id="a_edge9_Node000007_Node000008"><a xlink:title=" ">
<path fill="none" stroke="#63b8ff" d="M277.58,-131.12C303.5,-131.12 334.39,-131.12 361.54,-131.12"/>
<polygon fill="#63b8ff" stroke="#63b8ff" points="361.41,-134.63 371.41,-131.13 361.41,-127.63 361.41,-134.63"/>
</a>
</g>
</g>
<!-- Node9 -->
<g id="Node000009" class="node">
<title>Node9</title>
<g id="a_Node000009"><a xlink:href="bsp__uart_8c.html#ad4dee4b2dd593f1d4c141de95156546d" target="_top" xlink:title="若 DMA 空闲且缓冲有数据，则启动下一段 DMA 传输">
<polygon fill="white" stroke="#666666" points="693.25,-161.25 557.25,-161.25 557.25,-139 693.25,-139 693.25,-161.25"/>
<text xml:space="preserve" text-anchor="middle" x="625.25" y="-145.85" font-family="Helvetica,sans-Serif" font-size="12.00">BSP_UART_KickDma</text>
</a>
</g>
</g>
<!-- Node8&#45;&gt;Node9 -->
<g id="edge10_Node000008_Node000009" class="edge">
<title>Node8&#45;&gt;Node9</title>
<g id="a_edge10_Node000008_Node000009"><a xlink:title=" ">
<path fill="none" stroke="#63b8ff" d="M488.73,-136.75C506.53,-138.51 526.5,-140.48 545.52,-142.35"/>
<polygon fill="#63b8ff" stroke="#63b8ff" points="545.1,-145.83 555.39,-143.33 545.78,-138.86 545.1,-145.83"/>
</a>
</g>
</g>
<!-- Node11 -->
<g id="Node000011" class="node">
<title>Node11</title>
<g id="a_Node000011"><a xlink:href="motor__ctrl_8c.html#aceb46c7be868a0b12dffa105e3d0581e" target="_top" xlink:title="封波（ISR 安全）">
<polygon fill="white" stroke="#666666" points="472.12,-92.25 389.38,-92.25 389.38,-70 472.12,-70 472.12,-92.25"/>
<text xml:space="preserve" text-anchor="middle" x="430.75" y="-76.85" font-family="Helvetica,sans-Serif" font-size="12.00">MC_Disable</text>
</a>
</g>
</g>
<!-- Node10&#45;&gt;Node11 -->
<g id="edge12_Node000010_Node000011" class="edge">
<title>Node10&#45;&gt;Node11</title>
<g id="a_edge12_Node000010_Node000011"><a xlink:title=" ">
<path fill="none" stroke="#63b8ff" d="M264.56,-89.03C297.58,-87.45 342.96,-85.28 377.81,-83.61"/>
<polygon fill="#63b8ff" stroke="#63b8ff" points="377.85,-87.11 387.67,-83.14 377.52,-80.12 377.85,-87.11"/>
</a>
</g>
</g>
<!-- Node12 -->
<g id="Node000012" class="node">
<title>Node12</title>
<g id="a_Node000012"><a xlink:href="bsp__pwm_8c.html#a2664b56ad93d867fb05741e710ff942d" target="_top" xlink:title="封波（输出高阻，电机 freewheel）">
<polygon fill="white" stroke="#666666" points="687.62,-121.25 562.88,-121.25 562.88,-99 687.62,-99 687.62,-121.25"/>
<text xml:space="preserve" text-anchor="middle" x="625.25" y="-105.85" font-family="Helvetica,sans-Serif" font-size="12.00">BSP_PWM_Disable</text>
</a>
</g>
</g>
<!-- Node11&#45;&gt;Node12 -->
<g id="edge13_Node000011_Node000012" class="edge">
<title>Node11&#45;&gt;Node12</title>
<g id="a_edge13_Node000011_Node000012"><a xlink:title=" ">
<path fill="none" stroke="#63b8ff" d="M472.57,-87.28C495.46,-90.72 524.69,-95.13 551.37,-99.15"/>
<polygon fill="#63b8ff" stroke="#63b8ff" points="550.72,-102.59 561.13,-100.62 551.76,-95.66 550.72,-102.59"/>
</a>
</g>
</g>
<!-- Node13 -->
<g id="Node000013" class="node">
<title>Node13</title>
<g id="a_Node000013"><a xlink:href="foc_8c.html#aa25cf599086b4ad815ae5ad72dcfdec4" target="_top" xlink:title="复位电流环状态（封波后重新使能前调用，防止积分残留冲击）">
<polygon fill="white" stroke="#666666" points="665.12,-43.25 585.38,-43.25 585.38,-21 665.12,-21 665.12,-43.25"/>
<text xml:space="preserve" text-anchor="middle" x="625.25" y="-27.85" font-family="Helvetica,sans-Serif" font-size="12.00">FOC_Reset</text>
</a>
</g>
</g>
<!-- Node11&#45;&gt;Node13 -->
<g id="edge14_Node000011_Node000013" class="edge">
<title>Node11&#45;&gt;Node13</title>
<g id="a_edge14_Node000011_Node000013"><a xlink:title=" ">
<path fill="none" stroke="#63b8ff" d="M472.57,-70.73C502.29,-63.17 542.7,-52.88 574.34,-44.83"/>
<polygon fill="#63b8ff" stroke="#63b8ff" points="574.83,-48.32 583.66,-42.46 573.11,-41.53 574.83,-48.32"/>
</a>
</g>
</g>
<!-- Node14 -->
<g id="Node000014" class="node">
<title>Node14</title>
<g id="a_Node000014"><a xlink:href="pid_8c.html#acb76685b15d3fde29d9bd5548b3268c1" target="_top" xlink:title="复位 PID 内部状态（积分/历史误差/输出）">
<polygon fill="white" stroke="#666666" points="803.75,-62.25 729.25,-62.25 729.25,-40 803.75,-40 803.75,-62.25"/>
<text xml:space="preserve" text-anchor="middle" x="766.5" y="-46.85" font-family="Helvetica,sans-Serif" font-size="12.00">PID_Reset</text>
</a>
</g>
</g>
<!-- Node11&#45;&gt;Node14 -->
<g id="edge16_Node000011_Node000014" class="edge">
<title>Node11&#45;&gt;Node14</title>
<g id="a_edge16_Node000011_Node000014"><a xlink:title=" ">
<path fill="none" stroke="#63b8ff" d="M472.34,-77.48C534.12,-71.92 651.52,-61.37 717.47,-55.44"/>
<polygon fill="#63b8ff" stroke="#63b8ff" points="717.61,-58.94 727.26,-54.56 716.98,-51.97 717.61,-58.94"/>
</a>
</g>
</g>
<!-- Node13&#45;&gt;Node14 -->
<g id="edge15_Node000013_Node000014" class="edge">
<title>Node13&#45;&gt;Node14</title>
<g id="a_edge15_Node000013_Node000014"><a xlink:title=" ">
<path fill="none" stroke="#63b8ff" d="M665.41,-37.47C681.77,-39.7 700.94,-42.32 718.09,-44.66"/>
<polygon fill="#63b8ff" stroke="#63b8ff" points="717.14,-48.06 727.52,-45.94 718.09,-41.12 717.14,-48.06"/>
</a>
</g>
</g>
<!-- Node17 -->
<g id="Node000017" class="node">
<title>Node17</title>
<g id="a_Node000017"><a xlink:href="protection_8c.html#a40bd77da34a0710d0ee46ecc0b4abb55" target="_top" xlink:title="线性降额：温度低于告警点为 1，达到故障点为 0">
<polygon fill="white" stroke="#666666" points="487.88,-22.25 373.62,-22.25 373.62,0 487.88,0 487.88,-22.25"/>
<text xml:space="preserve" text-anchor="middle" x="430.75" y="-6.85" font-family="Helvetica,sans-Serif" font-size="12.00">PROT_DeratingOf</text>
</a>
</g>
</g>
<!-- Node16&#45;&gt;Node17 -->
<g id="edge19_Node000016_Node000017" class="edge">
<title>Node16&#45;&gt;Node17</title>
<g id="a_edge19_Node000016_Node000017"><a xlink:title=" ">
<path fill="none" stroke="#63b8ff" d="M279.25,-11.12C305.03,-11.12 335.48,-11.12 362.22,-11.12"/>
<polygon fill="#63b8ff" stroke="#63b8ff" points="361.92,-14.63 371.92,-11.13 361.92,-7.63 361.92,-14.63"/>
</a>
</g>
</g>
</g>
</svg>
