<?xml version="1.0" encoding="UTF-8" standalone="no"?>
<!DOCTYPE svg PUBLIC "-//W3C//DTD SVG 1.1//EN"
 "http://www.w3.org/Graphics/SVG/1.1/DTD/svg11.dtd">
<!-- Generated by graphviz version 15.1.0 (20260618.0150)
 -->
<!-- Title: Application/app/app_can_protocol.c Pages: 1 -->
<svg width="835pt" height="278pt"
 viewBox="0.00 0.00 835.00 278.00" xmlns="http://www.w3.org/2000/svg" xmlns:xlink="http://www.w3.org/1999/xlink">
<g id="graph0" class="graph" transform="scale(1 1) rotate(0) translate(4 273.5)">
<title>Application/app/app_can_protocol.c</title>
<!-- Node1 -->
<g id="Node000001" class="node">
<title>Node1</title>
<g id="a_Node000001"><a xlink:title="CAN 应用协议（MIT 运控协议 + 配置协议）">
<polygon fill="#999999" stroke="#666666" points="624.5,-269.5 502,-269.5 502,-233 624.5,-233 624.5,-269.5"/>
<text xml:space="preserve" text-anchor="start" x="510" y="-254.1" font-family="Helvetica,sans-Serif" font-size="12.00">Application/app/app</text>
<text xml:space="preserve" text-anchor="middle" x="563.25" y="-239.85" font-family="Helvetica,sans-Serif" font-size="12.00">_can_protocol.c</text>
</a>
</g>
</g>
<!-- Node2 -->
<g id="Node000002" class="node">
<title>Node2</title>
<g id="a_Node000002"><a xlink:href="app__can__protocol_8h.html" target="_top" xlink:title="CAN 应用协议头文件（MIT 运控协议 + 配置协议）">
<polygon fill="white" stroke="#666666" points="322.12,-138.75 200.38,-138.75 200.38,-116.5 322.12,-116.5 322.12,-138.75"/>
<text xml:space="preserve" text-anchor="middle" x="261.25" y="-123.35" font-family="Helvetica,sans-Serif" font-size="12.00">app_can_protocol.h</text>
</a>
</g>
</g>
<!-- Node1&#45;&gt;Node2 -->
<g id="edge1_Node000001_Node000002" class="edge">
<title>Node1&#45;&gt;Node2</title>
<g id="a_edge1_Node000001_Node000002"><a xlink:title=" ">
<path fill="none" stroke="#63b8ff" d="M519.34,-232.56C459.52,-208.48 353.52,-165.79 297.8,-143.35"/>
<polygon fill="#63b8ff" stroke="#63b8ff" points="299.35,-140.19 288.76,-139.71 296.73,-146.69 299.35,-140.19"/>
</a>
</g>
</g>
<!-- Node6 -->
<g id="Node000006" class="node">
<title>Node6</title>
<g id="a_Node000006"><a xlink:href="app__params_8h.html" target="_top" xlink:title="运行参数管理头文件（RAM 副本 + Flash 持久化）">
<polygon fill="white" stroke="#666666" points="92.5,-138.75 0,-138.75 0,-116.5 92.5,-116.5 92.5,-138.75"/>
<text xml:space="preserve" text-anchor="middle" x="46.25" y="-123.35" font-family="Helvetica,sans-Serif" font-size="12.00">app_params.h</text>
</a>
</g>
</g>
<!-- Node1&#45;&gt;Node6 -->
<g id="edge5_Node000001_Node000006" class="edge">
<title>Node1&#45;&gt;Node6</title>
<g id="a_edge5_Node000001_Node000006"><a xlink:title=" ">
<path fill="none" stroke="#63b8ff" d="M501.57,-239.45C446.66,-229.52 364.27,-213.81 293.25,-197 222.55,-180.27 141.56,-157.06 92.16,-142.45"/>
<polygon fill="#63b8ff" stroke="#63b8ff" points="93.25,-139.12 82.66,-139.63 91.25,-145.83 93.25,-139.12"/>
</a>
</g>
</g>
<!-- Node7 -->
<g id="Node000007" class="node">
<title>Node7</title>
<g id="a_Node000007"><a xlink:href="motor__ctrl_8h.html" target="_top" xlink:title="电机控制核心模块头文件（模式状态机 + FOC 主循环）">
<polygon fill="white" stroke="#666666" points="602.38,-197 524.12,-197 524.12,-174.75 602.38,-174.75 602.38,-197"/>
<text xml:space="preserve" text-anchor="middle" x="563.25" y="-181.6" font-family="Helvetica,sans-Serif" font-size="12.00">motor_ctrl.h</text>
</a>
</g>
</g>
<!-- Node1&#45;&gt;Node7 -->
<g id="edge8_Node000001_Node000007" class="edge">
<title>Node1&#45;&gt;Node7</title>
<g id="a_edge8_Node000001_Node000007"><a xlink:title=" ">
<path fill="none" stroke="#63b8ff" d="M563.25,-232.6C563.25,-225.28 563.25,-216.72 563.25,-208.99"/>
<polygon fill="#63b8ff" stroke="#63b8ff" points="566.75,-209.01 563.25,-199.01 559.75,-209.01 566.75,-209.01"/>
</a>
</g>
</g>
<!-- Node15 -->
<g id="Node000015" class="node">
<title>Node15</title>
<g id="a_Node000015"><a xlink:href="bsp__can_8h.html" target="_top" xlink:title="FDCAN1 通信 BSP 头文件（经典 CAN 模式）">
<polygon fill="white" stroke="#666666" points="182,-138.75 110.5,-138.75 110.5,-116.5 182,-116.5 182,-138.75"/>
<text xml:space="preserve" text-anchor="middle" x="146.25" y="-123.35" font-family="Helvetica,sans-Serif" font-size="12.00">bsp_can.h</text>
</a>
</g>
</g>
<!-- Node1&#45;&gt;Node15 -->
<g id="edge25_Node000001_Node000015" class="edge">
<title>Node1&#45;&gt;Node15</title>
<g id="a_edge25_Node000001_Node000015"><a xlink:title=" ">
<path fill="none" stroke="#63b8ff" d="M501.65,-233.44C464.18,-223.13 415.39,-209.54 372.25,-197 309.29,-178.7 236.78,-156.58 191.23,-142.55"/>
<polygon fill="#63b8ff" stroke="#63b8ff" points="192.29,-139.21 181.7,-139.61 190.23,-145.9 192.29,-139.21"/>
</a>
</g>
</g>
<!-- Node16 -->
<g id="Node000016" class="node">
<title>Node16</title>
<g id="a_Node000016"><a xlink:href="board__config_8h.html" target="_top" xlink:title="板级硬件参数统一配置（GIM4310/4305 电机控制器 V0.0 板）">
<polygon fill="white" stroke="#666666" points="812,-138.75 716.5,-138.75 716.5,-116.5 812,-116.5 812,-138.75"/>
<text xml:space="preserve" text-anchor="middle" x="764.25" y="-123.35" font-family="Helvetica,sans-Serif" font-size="12.00">board_config.h</text>
</a>
</g>
</g>
<!-- Node1&#45;&gt;Node16 -->
<g id="edge28_Node000001_Node000016" class="edge">
<title>Node1&#45;&gt;Node16</title>
<g id="a_edge28_Node000001_Node000016"><a xlink:title=" ">
<path fill="none" stroke="#63b8ff" d="M624.89,-240.7C657.21,-233.18 695.87,-219.97 724.25,-197 739.58,-184.59 750.29,-164.62 756.74,-149.46"/>
<polygon fill="#63b8ff" stroke="#63b8ff" points="759.9,-151 760.3,-140.42 753.38,-148.44 759.9,-151"/>
</a>
</g>
</g>
<!-- Node17 -->
<g id="Node000017" class="node">
<title>Node17</title>
<g id="a_Node000017"><a xlink:href="motor__config_8h.html" target="_top" xlink:title="电机参数与控制参数统一配置">
<polygon fill="white" stroke="#666666" points="715.62,-197 620.88,-197 620.88,-174.75 715.62,-174.75 715.62,-197"/>
<text xml:space="preserve" text-anchor="middle" x="668.25" y="-181.6" font-family="Helvetica,sans-Serif" font-size="12.00">motor_config.h</text>
</a>
</g>
</g>
<!-- Node1&#45;&gt;Node17 -->
<g id="edge29_Node000001_Node000017" class="edge">
<title>Node1&#45;&gt;Node17</title>
<g id="a_edge29_Node000001_Node000017"><a xlink:title=" ">
<path fill="none" stroke="#63b8ff" d="M592.5,-232.6C607.68,-223.43 626.12,-212.3 641,-203.32"/>
<polygon fill="#63b8ff" stroke="#63b8ff" points="642.61,-206.44 649.36,-198.28 638.99,-200.45 642.61,-206.44"/>
</a>
</g>
</g>
<!-- Node18 -->
<g id="Node000018" class="node">
<title>Node18</title>
<g id="a_Node000018"><a xlink:title=" ">
<polygon fill="#e0e0e0" stroke="#999999" points="826.75,-197 771.75,-197 771.75,-174.75 826.75,-174.75 826.75,-197"/>
<text xml:space="preserve" text-anchor="middle" x="799.25" y="-181.6" font-family="Helvetica,sans-Serif" font-size="12.00">string.h</text>
</a>
</g>
</g>
<!-- Node1&#45;&gt;Node18 -->
<g id="edge31_Node000001_Node000018" class="edge">
<title>Node1&#45;&gt;Node18</title>
<g id="a_edge31_Node000001_Node000018"><a xlink:title=" ">
<path fill="none" stroke="#63b8ff" d="M624.95,-233.68C667.9,-222.15 723.84,-207.13 760.61,-197.25"/>
<polygon fill="#63b8ff" stroke="#63b8ff" points="761.16,-200.73 769.91,-194.75 759.35,-193.97 761.16,-200.73"/>
</a>
</g>
</g>
<!-- Node3 -->
<g id="Node000003" class="node">
<title>Node3</title>
<g id="a_Node000003"><a xlink:href="main_8h.html" target="_top" xlink:title=": Header for main.c file.">
<polygon fill="white" stroke="#666666" points="287.25,-80.5 235.25,-80.5 235.25,-58.25 287.25,-58.25 287.25,-80.5"/>
<text xml:space="preserve" text-anchor="middle" x="261.25" y="-65.1" font-family="Helvetica,sans-Serif" font-size="12.00">main.h</text>
</a>
</g>
</g>
<!-- Node2&#45;&gt;Node3 -->
<g id="edge2_Node000002_Node000003" class="edge">
<title>Node2&#45;&gt;Node3</title>
<g id="a_edge2_Node000002_Node000003"><a xlink:title=" ">
<path fill="none" stroke="#63b8ff" d="M261.25,-116.04C261.25,-109.37 261.25,-100.49 261.25,-92.34"/>
<polygon fill="#63b8ff" stroke="#63b8ff" points="264.75,-92.42 261.25,-82.42 257.75,-92.42 264.75,-92.42"/>
</a>
</g>
</g>
<!-- Node5 -->
<g id="Node000005" class="node">
<title>Node5</title>
<g id="a_Node000005"><a xlink:title=" ">
<polygon fill="#e0e0e0" stroke="#999999" points="450.38,-22.25 396.12,-22.25 396.12,0 450.38,0 450.38,-22.25"/>
<text xml:space="preserve" text-anchor="middle" x="423.25" y="-6.85" font-family="Helvetica,sans-Serif" font-size="12.00">stdint.h</text>
</a>
</g>
</g>
<!-- Node2&#45;&gt;Node5 -->
<g id="edge4_Node000002_Node000005" class="edge">
<title>Node2&#45;&gt;Node5</title>
<g id="a_edge4_Node000002_Node000005"><a xlink:title=" ">
<path fill="none" stroke="#63b8ff" d="M276.2,-116.06C304.29,-96.21 365.17,-53.18 399.12,-29.18"/>
<polygon fill="#63b8ff" stroke="#63b8ff" points="400.95,-32.17 407.1,-23.54 396.91,-26.45 400.95,-32.17"/>
</a>
</g>
</g>
<!-- Node4 -->
<g id="Node000004" class="node">
<title>Node4</title>
<g id="a_Node000004"><a xlink:title=" ">
<polygon fill="#e0e0e0" stroke="#999999" points="314.62,-22.25 207.88,-22.25 207.88,0 314.62,0 314.62,-22.25"/>
<text xml:space="preserve" text-anchor="middle" x="261.25" y="-6.85" font-family="Helvetica,sans-Serif" font-size="12.00">stm32g4xx_hal.h</text>
</a>
</g>
</g>
<!-- Node3&#45;&gt;Node4 -->
<g id="edge3_Node000003_Node000004" class="edge">
<title>Node3&#45;&gt;Node4</title>
<g id="a_edge3_Node000003_Node000004"><a xlink:title=" ">
<path fill="none" stroke="#63b8ff" d="M261.25,-57.79C261.25,-51.12 261.25,-42.24 261.25,-34.09"/>
<polygon fill="#63b8ff" stroke="#63b8ff" points="264.75,-34.17 261.25,-24.17 257.75,-34.17 264.75,-34.17"/>
</a>
</g>
</g>
<!-- Node6&#45;&gt;Node3 -->
<g id="edge6_Node000006_Node000003" class="edge">
<title>Node6&#45;&gt;Node3</title>
<g id="a_edge6_Node000006_Node000003"><a xlink:title=" ">
<path fill="none" stroke="#63b8ff" d="M86.69,-116.04C126.21,-105.7 185.88,-90.1 224.2,-80.07"/>
<polygon fill="#63b8ff" stroke="#63b8ff" points="224.63,-83.57 233.42,-77.66 222.86,-76.8 224.63,-83.57"/>
</a>
</g>
</g>
<!-- Node6&#45;&gt;Node5 -->
<g id="edge7_Node000006_Node000005" class="edge">
<title>Node6&#45;&gt;Node5</title>
<g id="a_edge7_Node000006_Node000005"><a xlink:title=" ">
<path fill="none" stroke="#63b8ff" d="M64.87,-116.02C91.9,-101.06 143.94,-73.85 191.25,-58.25 257.45,-36.43 337.84,-23.27 384.52,-16.87"/>
<polygon fill="#63b8ff" stroke="#63b8ff" points="384.96,-20.35 394.41,-15.56 384.03,-13.41 384.96,-20.35"/>
</a>
</g>
</g>
<!-- Node8 -->
<g id="Node000008" class="node">
<title>Node8</title>
<g id="a_Node000008"><a xlink:href="foc_8h.html" target="_top" xlink:title="FOC 电流环模块头文件">
<polygon fill="white" stroke="#666666" points="584,-138.75 542.5,-138.75 542.5,-116.5 584,-116.5 584,-138.75"/>
<text xml:space="preserve" text-anchor="middle" x="563.25" y="-123.35" font-family="Helvetica,sans-Serif" font-size="12.00">foc.h</text>
</a>
</g>
</g>
<!-- Node7&#45;&gt;Node8 -->
<g id="edge9_Node000007_Node000008" class="edge">
<title>Node7&#45;&gt;Node8</title>
<g id="a_edge9_Node000007_Node000008"><a xlink:title=" ">
<path fill="none" stroke="#63b8ff" d="M563.25,-174.29C563.25,-167.62 563.25,-158.74 563.25,-150.59"/>
<polygon fill="#63b8ff" stroke="#63b8ff" points="566.75,-150.67 563.25,-140.67 559.75,-150.67 566.75,-150.67"/>
</a>
</g>
</g>
<!-- Node10 -->
<g id="Node000010" class="node">
<title>Node10</title>
<g id="a_Node000010"><a xlink:href="pid_8h.html" target="_top" xlink:title="位置式抗饱和（clamping anti&#45;windup）PID 控制器模块头文件">
<polygon fill="white" stroke="#666666" points="585.38,-80.5 543.12,-80.5 543.12,-58.25 585.38,-58.25 585.38,-80.5"/>
<text xml:space="preserve" text-anchor="middle" x="564.25" y="-65.1" font-family="Helvetica,sans-Serif" font-size="12.00">pid.h</text>
</a>
</g>
</g>
<!-- Node7&#45;&gt;Node10 -->
<g id="edge14_Node000007_Node000010" class="edge">
<title>Node7&#45;&gt;Node10</title>
<g id="a_edge14_Node000007_Node000010"><a xlink:title=" ">
<path fill="none" stroke="#63b8ff" d="M572.62,-174.41C579.83,-165.6 589.23,-152.3 593.25,-138.75 596.06,-129.27 595.99,-126 593.25,-116.5 590.55,-107.15 585.34,-97.86 580.07,-90.1"/>
<polygon fill="#63b8ff" stroke="#63b8ff" points="582.94,-88.1 574.2,-82.11 577.3,-92.25 582.94,-88.1"/>
</a>
</g>
</g>
<!-- Node11 -->
<g id="Node000011" class="node">
<title>Node11</title>
<g id="a_Node000011"><a xlink:href="filter_8h.html" target="_top" xlink:title="滤波与状态估计模块头文件（一阶低通滤波器、PLL 速度估计器）">
<polygon fill="white" stroke="#666666" points="651,-80.5 603.5,-80.5 603.5,-58.25 651,-58.25 651,-80.5"/>
<text xml:space="preserve" text-anchor="middle" x="627.25" y="-65.1" font-family="Helvetica,sans-Serif" font-size="12.00">filter.h</text>
</a>
</g>
</g>
<!-- Node7&#45;&gt;Node11 -->
<g id="edge15_Node000007_Node000011" class="edge">
<title>Node7&#45;&gt;Node11</title>
<g id="a_edge15_Node000007_Node000011"><a xlink:title=" ">
<path fill="none" stroke="#63b8ff" d="M576.52,-174.49C586.61,-165.92 600.11,-152.91 608.25,-138.75 616.61,-124.21 621.45,-105.8 624.15,-91.75"/>
<polygon fill="#63b8ff" stroke="#63b8ff" points="627.55,-92.66 625.76,-82.22 620.65,-91.5 627.55,-92.66"/>
</a>
</g>
</g>
<!-- Node12 -->
<g id="Node000012" class="node">
<title>Node12</title>
<g id="a_Node000012"><a xlink:href="protection_8h.html" target="_top" xlink:title="保护与故障管理模块头文件">
<polygon fill="white" stroke="#666666" points="747.38,-80.5 669.12,-80.5 669.12,-58.25 747.38,-58.25 747.38,-80.5"/>
<text xml:space="preserve" text-anchor="middle" x="708.25" y="-65.1" font-family="Helvetica,sans-Serif" font-size="12.00">protection.h</text>
</a>
</g>
</g>
<!-- Node7&#45;&gt;Node12 -->
<g id="edge17_Node000007_Node000012" class="edge">
<title>Node7&#45;&gt;Node12</title>
<g id="a_edge17_Node000007_Node000012"><a xlink:title=" ">
<path fill="none" stroke="#63b8ff" d="M578.49,-174.38C591.61,-165.24 610.95,-151.48 627.25,-138.75 648.35,-122.28 671.62,-102.45 687.79,-88.4"/>
<polygon fill="#63b8ff" stroke="#63b8ff" points="690.04,-91.07 695.27,-81.86 685.44,-85.8 690.04,-91.07"/>
</a>
</g>
</g>
<!-- Node13 -->
<g id="Node000013" class="node">
<title>Node13</title>
<g id="a_Node000013"><a xlink:href="bsp__encoder_8h.html" target="_top" xlink:title="MT6701 磁编码器 BSP 头文件（GPIO 位带模拟 SSI）">
<polygon fill="white" stroke="#666666" points="434.62,-138.75 339.88,-138.75 339.88,-116.5 434.62,-116.5 434.62,-138.75"/>
<text xml:space="preserve" text-anchor="middle" x="387.25" y="-123.35" font-family="Helvetica,sans-Serif" font-size="12.00">bsp_encoder.h</text>
</a>
</g>
</g>
<!-- Node7&#45;&gt;Node13 -->
<g id="edge19_Node000007_Node000013" class="edge">
<title>Node7&#45;&gt;Node13</title>
<g id="a_edge19_Node000007_Node000013"><a xlink:title=" ">
<path fill="none" stroke="#63b8ff" d="M530.15,-174.29C502.12,-165.34 461.73,-152.43 431.03,-142.62"/>
<polygon fill="#63b8ff" stroke="#63b8ff" points="432.24,-139.33 421.65,-139.62 430.11,-146 432.24,-139.33"/>
</a>
</g>
</g>
<!-- Node14 -->
<g id="Node000014" class="node">
<title>Node14</title>
<g id="a_Node000014"><a xlink:href="bsp__adc_8h.html" target="_top" xlink:title="ADC 采样 BSP 头文件（电流/母线电压注入组 + 温度规则组）">
<polygon fill="white" stroke="#666666" points="524,-138.75 452.5,-138.75 452.5,-116.5 524,-116.5 524,-138.75"/>
<text xml:space="preserve" text-anchor="middle" x="488.25" y="-123.35" font-family="Helvetica,sans-Serif" font-size="12.00">bsp_adc.h</text>
</a>
</g>
</g>
<!-- Node7&#45;&gt;Node14 -->
<g id="edge22_Node000007_Node000014" class="edge">
<title>Node7&#45;&gt;Node14</title>
<g id="a_edge22_Node000007_Node000014"><a xlink:title=" ">
<path fill="none" stroke="#63b8ff" d="M549.14,-174.29C538.46,-166.28 523.55,-155.1 511.17,-145.81"/>
<polygon fill="#63b8ff" stroke="#63b8ff" points="513.6,-143.27 503.5,-140.07 509.4,-148.87 513.6,-143.27"/>
</a>
</g>
</g>
<!-- Node9 -->
<g id="Node000009" class="node">
<title>Node9</title>
<g id="a_Node000009"><a xlink:href="foc__math_8h.html" target="_top" xlink:title="FOC 数学基础模块头文件（快速三角函数、坐标变换、角度工具）">
<polygon fill="white" stroke="#666666" points="525.5,-80.5 451,-80.5 451,-58.25 525.5,-58.25 525.5,-80.5"/>
<text xml:space="preserve" text-anchor="middle" x="488.25" y="-65.1" font-family="Helvetica,sans-Serif" font-size="12.00">foc_math.h</text>
</a>
</g>
</g>
<!-- Node8&#45;&gt;Node9 -->
<g id="edge10_Node000008_Node000009" class="edge">
<title>Node8&#45;&gt;Node9</title>
<g id="a_edge10_Node000008_Node000009"><a xlink:title=" ">
<path fill="none" stroke="#63b8ff" d="M549.14,-116.04C538.46,-108.03 523.55,-96.85 511.17,-87.56"/>
<polygon fill="#63b8ff" stroke="#63b8ff" points="513.6,-85.02 503.5,-81.82 509.4,-90.62 513.6,-85.02"/>
</a>
</g>
</g>
<!-- Node8&#45;&gt;Node10 -->
<g id="edge12_Node000008_Node000010" class="edge">
<title>Node8&#45;&gt;Node10</title>
<g id="a_edge12_Node000008_Node000010"><a xlink:title=" ">
<path fill="none" stroke="#63b8ff" d="M563.44,-116.04C563.56,-109.37 563.71,-100.49 563.86,-92.34"/>
<polygon fill="#63b8ff" stroke="#63b8ff" points="567.36,-92.48 564.04,-82.42 560.36,-92.36 567.36,-92.48"/>
</a>
</g>
</g>
<!-- Node9&#45;&gt;Node5 -->
<g id="edge11_Node000009_Node000005" class="edge">
<title>Node9&#45;&gt;Node5</title>
<g id="a_edge11_Node000009_Node000005"><a xlink:title=" ">
<path fill="none" stroke="#63b8ff" d="M476.02,-57.79C467.04,-50.02 454.6,-39.26 444.06,-30.14"/>
<polygon fill="#63b8ff" stroke="#63b8ff" points="446.42,-27.55 436.57,-23.65 441.84,-32.84 446.42,-27.55"/>
</a>
</g>
</g>
<!-- Node10&#45;&gt;Node5 -->
<g id="edge13_Node000010_Node000005" class="edge">
<title>Node10&#45;&gt;Node5</title>
<g id="a_edge13_Node000010_Node000005"><a xlink:title=" ">
<path fill="none" stroke="#63b8ff" d="M542.84,-59.83C520.9,-51.08 486.37,-37.31 460.04,-26.8"/>
<polygon fill="#63b8ff" stroke="#63b8ff" points="461.67,-23.69 451.09,-23.23 459.08,-30.19 461.67,-23.69"/>
</a>
</g>
</g>
<!-- Node11&#45;&gt;Node5 -->
<g id="edge16_Node000011_Node000005" class="edge">
<title>Node11&#45;&gt;Node5</title>
<g id="a_edge16_Node000011_Node000005"><a xlink:title=" ">
<path fill="none" stroke="#63b8ff" d="M603.13,-60.87C600.14,-59.97 597.13,-59.08 594.25,-58.25 548.99,-45.21 496.67,-31.26 461.94,-22.16"/>
<polygon fill="#63b8ff" stroke="#63b8ff" points="462.9,-18.79 452.34,-19.65 461.13,-25.56 462.9,-18.79"/>
</a>
</g>
</g>
<!-- Node12&#45;&gt;Node5 -->
<g id="edge18_Node000012_Node000005" class="edge">
<title>Node12&#45;&gt;Node5</title>
<g id="a_edge18_Node000012_Node000005"><a xlink:title=" ">
<path fill="none" stroke="#63b8ff" d="M668.71,-59.98C665.85,-59.39 663,-58.81 660.25,-58.25 590.38,-44.08 508.73,-28.38 461.8,-19.44"/>
<polygon fill="#63b8ff" stroke="#63b8ff" points="462.61,-16.03 452.13,-17.6 461.3,-22.9 462.61,-16.03"/>
</a>
</g>
</g>
<!-- Node13&#45;&gt;Node3 -->
<g id="edge20_Node000013_Node000003" class="edge">
<title>Node13&#45;&gt;Node3</title>
<g id="a_edge20_Node000013_Node000003"><a xlink:title=" ">
<path fill="none" stroke="#63b8ff" d="M363.55,-116.04C344.28,-107.44 316.84,-95.19 295.23,-85.54"/>
<polygon fill="#63b8ff" stroke="#63b8ff" points="296.78,-82.41 286.23,-81.52 293.93,-88.8 296.78,-82.41"/>
</a>
</g>
</g>
<!-- Node13&#45;&gt;Node5 -->
<g id="edge21_Node000013_Node000005" class="edge">
<title>Node13&#45;&gt;Node5</title>
<g id="a_edge21_Node000013_Node000005"><a xlink:title=" ">
<path fill="none" stroke="#63b8ff" d="M390.57,-116.06C396.47,-97.31 408.86,-57.91 416.57,-33.36"/>
<polygon fill="#63b8ff" stroke="#63b8ff" points="419.82,-34.7 419.48,-24.11 413.14,-32.6 419.82,-34.7"/>
</a>
</g>
</g>
<!-- Node14&#45;&gt;Node3 -->
<g id="edge23_Node000014_Node000003" class="edge">
<title>Node14&#45;&gt;Node3</title>
<g id="a_edge23_Node000014_Node000003"><a xlink:title=" ">
<path fill="none" stroke="#63b8ff" d="M452.03,-117.65C409.95,-107.22 340.88,-90.11 298.4,-79.58"/>
<polygon fill="#63b8ff" stroke="#63b8ff" points="299.45,-76.24 288.9,-77.23 297.77,-83.03 299.45,-76.24"/>
</a>
</g>
</g>
<!-- Node14&#45;&gt;Node5 -->
<g id="edge24_Node000014_Node000005" class="edge">
<title>Node14&#45;&gt;Node5</title>
<g id="a_edge24_Node000014_Node000005"><a xlink:title=" ">
<path fill="none" stroke="#63b8ff" d="M474.67,-116.3C464.36,-107.76 450.56,-94.77 442.25,-80.5 433.81,-66.01 428.97,-47.6 426.29,-33.53"/>
<polygon fill="#63b8ff" stroke="#63b8ff" points="429.8,-33.28 424.71,-23.99 422.89,-34.43 429.8,-33.28"/>
</a>
</g>
</g>
<!-- Node15&#45;&gt;Node3 -->
<g id="edge26_Node000015_Node000003" class="edge">
<title>Node15&#45;&gt;Node3</title>
<g id="a_edge26_Node000015_Node000003"><a xlink:title=" ">
<path fill="none" stroke="#63b8ff" d="M167.88,-116.04C185.23,-107.56 209.83,-95.53 229.42,-85.94"/>
<polygon fill="#63b8ff" stroke="#63b8ff" points="230.91,-89.11 238.36,-81.57 227.84,-82.82 230.91,-89.11"/>
</a>
</g>
</g>
<!-- Node15&#45;&gt;Node5 -->
<g id="edge27_Node000015_Node000005" class="edge">
<title>Node15&#45;&gt;Node5</title>
<g id="a_edge27_Node000015_Node000005"><a xlink:title=" ">
<path fill="none" stroke="#63b8ff" d="M155.46,-116.05C169.28,-100.87 196.91,-73.1 226.25,-58.25 277.31,-32.4 343.17,-20.77 384.31,-15.73"/>
<polygon fill="#63b8ff" stroke="#63b8ff" points="384.69,-19.21 394.23,-14.6 383.89,-12.26 384.69,-19.21"/>
</a>
</g>
</g>
<!-- Node17&#45;&gt;Node16 -->
<g id="edge30_Node000017_Node000016" class="edge">
<title>Node17&#45;&gt;Node16</title>
<g id="a_edge30_Node000017_Node000016"><a xlink:title=" ">
<path fill="none" stroke="#63b8ff" d="M686.31,-174.29C700.52,-165.97 720.57,-154.22 736.77,-144.73"/>
<polygon fill="#63b8ff" stroke="#63b8ff" points="738.11,-148 744.97,-139.92 734.57,-141.96 738.11,-148"/>
</a>
</g>
</g>
</g>
</svg>
