<?xml version="1.0" encoding="UTF-8" standalone="no"?>
<!DOCTYPE svg PUBLIC "-//W3C//DTD SVG 1.1//EN"
 "http://www.w3.org/Graphics/SVG/1.1/DTD/svg11.dtd">
<!-- Generated by graphviz version 15.1.0 (20260618.0150)
 -->
<!-- Title: Application/app/app_params.c Pages: 1 -->
<svg width="436pt" height="219pt"
 viewBox="0.00 0.00 436.00 219.00" xmlns="http://www.w3.org/2000/svg" xmlns:xlink="http://www.w3.org/1999/xlink">

<svg id="main" version="1.1" xmlns="http://www.w3.org/2000/svg" xmlns:xlink="http://www.w3.org/1999/xlink" xml:space="preserve">

<style type="text/css"><![CDATA[
.node, .edge {opacity: 0.7;}
.node.selected, .edge.selected {opacity: 1;}
.edge:hover path { stroke: red; }
.edge:hover polygon { stroke: red; fill: red; }
]]></style>
<script type="application/ecmascript" xlink:href="svg.min.js"/>
<svg id="graph" class="graph">
<g id="graph0" class="graph" transform="scale(1 1) rotate(0) translate(4 215.25)">
<title>Application/app/app_params.c</title>
<!-- Node1 -->
<g id="Node000001" class="node">
<title>Node1</title>
<g id="a_Node000001"><a xlink:title="运行参数管理（RAM 副本 + Flash 持久化）">
<polygon fill="#999999" stroke="#666666" points="303.5,-211.25 181,-211.25 181,-174.75 303.5,-174.75 303.5,-211.25"/>
<text xml:space="preserve" text-anchor="start" x="189" y="-195.85" font-family="Helvetica,sans-Serif" font-size="12.00">Application/app/app</text>
<text xml:space="preserve" text-anchor="middle" x="242.25" y="-181.6" font-family="Helvetica,sans-Serif" font-size="12.00">_params.c</text>
</a>
</g>
</g>
<!-- Node2 -->
<g id="Node000002" class="node">
<title>Node2</title>
<g id="a_Node000002"><a xlink:href="app__params_8h.html" target="_top" xlink:title="运行参数管理头文件（RAM 副本 + Flash 持久化）">
<polygon fill="white" stroke="#666666" points="92.5,-138.75 0,-138.75 0,-116.5 92.5,-116.5 92.5,-138.75"/>
<text xml:space="preserve" text-anchor="middle" x="46.25" y="-123.35" font-family="Helvetica,sans-Serif" font-size="12.00">app_params.h</text>
</a>
</g>
</g>
<!-- Node1&#45;&gt;Node2 -->
<g id="edge1_Node000001_Node000002" class="edge">
<title>Node1&#45;&gt;Node2</title>
<g id="a_edge1_Node000001_Node000002"><a xlink:title=" ">
<path fill="none" stroke="#63b8ff" d="M187.39,-174.26C156.6,-164.31 118.71,-152.05 89.94,-142.75"/>
<polygon fill="#63b8ff" stroke="#63b8ff" points="91.03,-139.43 80.44,-139.68 88.88,-146.09 91.03,-139.43"/>
</a>
</g>
</g>
<!-- Node6 -->
<g id="Node000006" class="node">
<title>Node6</title>
<g id="a_Node000006"><a xlink:href="bsp__flash_8h.html" target="_top" xlink:title="片内 Flash 参数持久化 BSP 头文件">
<polygon fill="white" stroke="#666666" points="188,-138.75 110.5,-138.75 110.5,-116.5 188,-116.5 188,-138.75"/>
<text xml:space="preserve" text-anchor="middle" x="149.25" y="-123.35" font-family="Helvetica,sans-Serif" font-size="12.00">bsp_flash.h</text>
</a>
</g>
</g>
<!-- Node1&#45;&gt;Node6 -->
<g id="edge5_Node000001_Node000006" class="edge">
<title>Node1&#45;&gt;Node6</title>
<g id="a_edge5_Node000001_Node000006"><a xlink:title=" ">
<path fill="none" stroke="#63b8ff" d="M216.34,-174.35C203.15,-165.36 187.19,-154.48 174.15,-145.59"/>
<polygon fill="#63b8ff" stroke="#63b8ff" points="176.32,-142.84 166.08,-140.1 172.38,-148.62 176.32,-142.84"/>
</a>
</g>
</g>
<!-- Node7 -->
<g id="Node000007" class="node">
<title>Node7</title>
<g id="a_Node000007"><a xlink:href="bsp__can_8h.html" target="_top" xlink:title="FDCAN1 通信 BSP 头文件（经典 CAN 模式）">
<polygon fill="white" stroke="#666666" points="278,-138.75 206.5,-138.75 206.5,-116.5 278,-116.5 278,-138.75"/>
<text xml:space="preserve" text-anchor="middle" x="242.25" y="-123.35" font-family="Helvetica,sans-Serif" font-size="12.00">bsp_can.h</text>
</a>
</g>
</g>
<!-- Node1&#45;&gt;Node7 -->
<g id="edge8_Node000001_Node000007" class="edge">
<title>Node1&#45;&gt;Node7</title>
<g id="a_edge8_Node000001_Node000007"><a xlink:title=" ">
<path fill="none" stroke="#63b8ff" d="M242.25,-174.35C242.25,-167.03 242.25,-158.47 242.25,-150.74"/>
<polygon fill="#63b8ff" stroke="#63b8ff" points="245.75,-150.76 242.25,-140.76 238.75,-150.76 245.75,-150.76"/>
</a>
</g>
</g>
<!-- Node8 -->
<g id="Node000008" class="node">
<title>Node8</title>
<g id="a_Node000008"><a xlink:href="motor__config_8h.html" target="_top" xlink:title="电机参数与控制参数统一配置">
<polygon fill="white" stroke="#666666" points="390.62,-138.75 295.88,-138.75 295.88,-116.5 390.62,-116.5 390.62,-138.75"/>
<text xml:space="preserve" text-anchor="middle" x="343.25" y="-123.35" font-family="Helvetica,sans-Serif" font-size="12.00">motor_config.h</text>
</a>
</g>
</g>
<!-- Node1&#45;&gt;Node8 -->
<g id="edge11_Node000001_Node000008" class="edge">
<title>Node1&#45;&gt;Node8</title>
<g id="a_edge11_Node000001_Node000008"><a xlink:title=" ">
<path fill="none" stroke="#63b8ff" d="M270.38,-174.35C284.85,-165.27 302.39,-154.27 316.63,-145.33"/>
<polygon fill="#63b8ff" stroke="#63b8ff" points="318.43,-148.33 325.05,-140.05 314.71,-142.4 318.43,-148.33"/>
</a>
</g>
</g>
<!-- Node9 -->
<g id="Node000009" class="node">
<title>Node9</title>
<g id="a_Node000009"><a xlink:href="board__config_8h.html" target="_top" xlink:title="板级硬件参数统一配置（GIM4310/4305 电机控制器 V0.0 板）">
<polygon fill="white" stroke="#666666" points="428,-80.5 332.5,-80.5 332.5,-58.25 428,-58.25 428,-80.5"/>
<text xml:space="preserve" text-anchor="middle" x="380.25" y="-65.1" font-family="Helvetica,sans-Serif" font-size="12.00">board_config.h</text>
</a>
</g>
</g>
<!-- Node1&#45;&gt;Node9 -->
<g id="edge13_Node000001_Node000009" class="edge">
<title>Node1&#45;&gt;Node9</title>
<g id="a_edge13_Node000001_Node000009"><a xlink:title=" ">
<path fill="none" stroke="#63b8ff" d="M303.86,-187.97C337.92,-182.21 377.62,-168.93 399.25,-138.75 409.53,-124.41 402.36,-104.71 394.05,-90.14"/>
<polygon fill="#63b8ff" stroke="#63b8ff" points="397.13,-88.46 388.83,-81.87 391.2,-92.19 397.13,-88.46"/>
</a>
</g>
</g>
<!-- Node3 -->
<g id="Node000003" class="node">
<title>Node3</title>
<g id="a_Node000003"><a xlink:href="main_8h.html" target="_top" xlink:title=": Header for main.c file.">
<polygon fill="white" stroke="#666666" points="210.25,-80.5 158.25,-80.5 158.25,-58.25 210.25,-58.25 210.25,-80.5"/>
<text xml:space="preserve" text-anchor="middle" x="184.25" y="-65.1" font-family="Helvetica,sans-Serif" font-size="12.00">main.h</text>
</a>
</g>
</g>
<!-- Node2&#45;&gt;Node3 -->
<g id="edge2_Node000002_Node000003" class="edge">
<title>Node2&#45;&gt;Node3</title>
<g id="a_edge2_Node000002_Node000003"><a xlink:title=" ">
<path fill="none" stroke="#63b8ff" d="M72.21,-116.04C93.6,-107.32 124.19,-94.86 148,-85.15"/>
<polygon fill="#63b8ff" stroke="#63b8ff" points="149.07,-88.49 157.01,-81.48 146.43,-82.01 149.07,-88.49"/>
</a>
</g>
</g>
<!-- Node5 -->
<g id="Node000005" class="node">
<title>Node5</title>
<g id="a_Node000005"><a xlink:title=" ">
<polygon fill="#e0e0e0" stroke="#999999" points="140.38,-80.5 86.12,-80.5 86.12,-58.25 140.38,-58.25 140.38,-80.5"/>
<text xml:space="preserve" text-anchor="middle" x="113.25" y="-65.1" font-family="Helvetica,sans-Serif" font-size="12.00">stdint.h</text>
</a>
</g>
</g>
<!-- Node2&#45;&gt;Node5 -->
<g id="edge4_Node000002_Node000005" class="edge">
<title>Node2&#45;&gt;Node5</title>
<g id="a_edge4_Node000002_Node000005"><a xlink:title=" ">
<path fill="none" stroke="#63b8ff" d="M58.85,-116.04C68.21,-108.19 81.19,-97.29 92.13,-88.11"/>
<polygon fill="#63b8ff" stroke="#63b8ff" points="94.14,-90.99 99.55,-81.88 89.64,-85.63 94.14,-90.99"/>
</a>
</g>
</g>
<!-- Node4 -->
<g id="Node000004" class="node">
<title>Node4</title>
<g id="a_Node000004"><a xlink:title=" ">
<polygon fill="#e0e0e0" stroke="#999999" points="237.62,-22.25 130.88,-22.25 130.88,0 237.62,0 237.62,-22.25"/>
<text xml:space="preserve" text-anchor="middle" x="184.25" y="-6.85" font-family="Helvetica,sans-Serif" font-size="12.00">stm32g4xx_hal.h</text>
</a>
</g>
</g>
<!-- Node3&#45;&gt;Node4 -->
<g id="edge3_Node000003_Node000004" class="edge">
<title>Node3&#45;&gt;Node4</title>
<g id="a_edge3_Node000003_Node000004"><a xlink:title=" ">
<path fill="none" stroke="#63b8ff" d="M184.25,-57.79C184.25,-51.12 184.25,-42.24 184.25,-34.09"/>
<polygon fill="#63b8ff" stroke="#63b8ff" points="187.75,-34.17 184.25,-24.17 180.75,-34.17 187.75,-34.17"/>
</a>
</g>
</g>
<!-- Node6&#45;&gt;Node3 -->
<g id="edge6_Node000006_Node000003" class="edge">
<title>Node6&#45;&gt;Node3</title>
<g id="a_edge6_Node000006_Node000003"><a xlink:title=" ">
<path fill="none" stroke="#63b8ff" d="M155.83,-116.04C160.28,-108.9 166.3,-99.23 171.65,-90.63"/>
<polygon fill="#63b8ff" stroke="#63b8ff" points="174.59,-92.53 176.9,-82.19 168.64,-88.83 174.59,-92.53"/>
</a>
</g>
</g>
<!-- Node6&#45;&gt;Node5 -->
<g id="edge7_Node000006_Node000005" class="edge">
<title>Node6&#45;&gt;Node5</title>
<g id="a_edge7_Node000006_Node000005"><a xlink:title=" ">
<path fill="none" stroke="#63b8ff" d="M142.48,-116.04C137.85,-108.82 131.58,-99.01 126.03,-90.34"/>
<polygon fill="#63b8ff" stroke="#63b8ff" points="129.15,-88.72 120.81,-82.18 123.25,-92.49 129.15,-88.72"/>
</a>
</g>
</g>
<!-- Node7&#45;&gt;Node3 -->
<g id="edge9_Node000007_Node000003" class="edge">
<title>Node7&#45;&gt;Node3</title>
<g id="a_edge9_Node000007_Node000003"><a xlink:title=" ">
<path fill="none" stroke="#63b8ff" d="M231.34,-116.04C223.4,-108.35 212.45,-97.72 203.11,-88.66"/>
<polygon fill="#63b8ff" stroke="#63b8ff" points="205.81,-86.41 196.2,-81.96 200.94,-91.44 205.81,-86.41"/>
</a>
</g>
</g>
<!-- Node7&#45;&gt;Node5 -->
<g id="edge10_Node000007_Node000005" class="edge">
<title>Node7&#45;&gt;Node5</title>
<g id="a_edge10_Node000007_Node000005"><a xlink:title=" ">
<path fill="none" stroke="#63b8ff" d="M217.99,-116.04C198.17,-107.4 169.91,-95.08 147.74,-85.41"/>
<polygon fill="#63b8ff" stroke="#63b8ff" points="149.36,-82.3 138.79,-81.51 146.56,-88.72 149.36,-82.3"/>
</a>
</g>
</g>
<!-- Node8&#45;&gt;Node9 -->
<g id="edge12_Node000008_Node000009" class="edge">
<title>Node8&#45;&gt;Node9</title>
<g id="a_edge12_Node000008_Node000009"><a xlink:title=" ">
<path fill="none" stroke="#63b8ff" d="M350.21,-116.04C354.96,-108.82 361.41,-99.01 367.11,-90.34"/>
<polygon fill="#63b8ff" stroke="#63b8ff" points="369.92,-92.45 372.49,-82.17 364.07,-88.6 369.92,-92.45"/>
</a>
</g>
</g>
</g>
</svg>
</svg>

<style type='text/css'>
<![CDATA[
[data-mouse-over-selected='false'] { opacity: 0.7; }
[data-mouse-over-selected='true']  { opacity: 1.0; }
]]>
</style>
<script type="application/ecmascript"><![CDATA[
document.addEventListener('DOMContentLoaded', (event) => {
  highlightEdges();
  highlightAdjacentNodes();
});
]]></script>
</svg>
