<?xml version="1.0" encoding="UTF-8" standalone="no"?>
<!DOCTYPE svg PUBLIC "-//W3C//DTD SVG 1.1//EN"
 "http://www.w3.org/Graphics/SVG/1.1/DTD/svg11.dtd">
<!-- Generated by graphviz version 15.1.0 (20260618.0150)
 -->
<!-- Title: APP_LED_Init Pages: 1 -->
<svg width="526pt" height="70pt"
 viewBox="0.00 0.00 526.00 70.00" xmlns="http://www.w3.org/2000/svg" xmlns:xlink="http://www.w3.org/1999/xlink">
<g id="graph0" class="graph" transform="scale(1 1) rotate(0) translate(4 66.25)">
<title>APP_LED_Init</title>
<!-- Node1 -->
<g id="Node000001" class="node">
<title>Node1</title>
<g id="a_Node000001"><a xlink:title="初始化灯语模块">
<polygon fill="#999999" stroke="#666666" points="94,-42.25 0,-42.25 0,-20 94,-20 94,-42.25"/>
<text xml:space="preserve" text-anchor="middle" x="47" y="-26.85" font-family="Helvetica,sans-Serif" font-size="12.00">APP_LED_Init</text>
</a>
</g>
</g>
<!-- Node2 -->
<g id="Node000002" class="node">
<title>Node2</title>
<g id="a_Node000002"><a xlink:href="bsp__ws2812_8c.html#aa343d7fb9bc7f5c802804cd659494aea" target="_top" xlink:title="设置全局亮度（0~255，线性缩放）">
<polygon fill="white" stroke="#666666" points="305.75,-62.25 130,-62.25 130,-40 305.75,-40 305.75,-62.25"/>
<text xml:space="preserve" text-anchor="middle" x="217.88" y="-46.85" font-family="Helvetica,sans-Serif" font-size="12.00">BSP_WS2812_SetBrightness</text>
</a>
</g>
</g>
<!-- Node1&#45;&gt;Node2 -->
<g id="edge1_Node000001_Node000002" class="edge">
<title>Node1&#45;&gt;Node2</title>
<g id="a_edge1_Node000001_Node000002"><a xlink:title=" ">
<path fill="none" stroke="#63b8ff" d="M94.15,-36.59C101.73,-37.49 109.84,-38.45 118.14,-39.43"/>
<polygon fill="#63b8ff" stroke="#63b8ff" points="117.7,-42.9 128.04,-40.6 118.52,-35.95 117.7,-42.9"/>
</a>
</g>
</g>
<!-- Node4 -->
<g id="Node000004" class="node">
<title>Node4</title>
<g id="a_Node000004"><a xlink:href="bsp__ws2812_8c.html#a14f4272e51ac6b64194ad2368ed44a71" target="_top" xlink:title="设置目标颜色（缓存，Poll 时发送）">
<polygon fill="white" stroke="#666666" points="291.88,-22.25 143.88,-22.25 143.88,0 291.88,0 291.88,-22.25"/>
<text xml:space="preserve" text-anchor="middle" x="217.88" y="-6.85" font-family="Helvetica,sans-Serif" font-size="12.00">BSP_WS2812_SetColor</text>
</a>
</g>
</g>
<!-- Node1&#45;&gt;Node4 -->
<g id="edge3_Node000001_Node000004" class="edge">
<title>Node1&#45;&gt;Node4</title>
<g id="a_edge3_Node000001_Node000004"><a xlink:title=" ">
<path fill="none" stroke="#63b8ff" d="M94.15,-25.66C106.05,-24.25 119.24,-22.69 132.43,-21.13"/>
<polygon fill="#63b8ff" stroke="#63b8ff" points="132.46,-24.65 141.98,-20 131.63,-17.7 132.46,-24.65"/>
</a>
</g>
</g>
<!-- Node3 -->
<g id="Node000003" class="node">
<title>Node3</title>
<g id="a_Node000003"><a xlink:href="bsp__ws2812_8c.html#a414a0748f0ef37a68dc8383d5356ddf6" target="_top" xlink:title="按亮度缩放当前颜色并生成发送序颜色字，标记待发送">
<polygon fill="white" stroke="#666666" points="517.5,-42.25 341.75,-42.25 341.75,-20 517.5,-20 517.5,-42.25"/>
<text xml:space="preserve" text-anchor="middle" x="429.62" y="-26.85" font-family="Helvetica,sans-Serif" font-size="12.00">BSP_WS2812_RefreshTarget</text>
</a>
</g>
</g>
<!-- Node2&#45;&gt;Node3 -->
<g id="edge2_Node000002_Node000003" class="edge">
<title>Node2&#45;&gt;Node3</title>
<g id="a_edge2_Node000002_Node000003"><a xlink:title=" ">
<path fill="none" stroke="#63b8ff" d="M306.01,-42.82C313.96,-42.06 322.06,-41.29 330.11,-40.52"/>
<polygon fill="#63b8ff" stroke="#63b8ff" points="330.3,-44.02 339.92,-39.58 329.63,-37.05 330.3,-44.02"/>
</a>
</g>
</g>
<!-- Node4&#45;&gt;Node3 -->
<g id="edge4_Node000004_Node000003" class="edge">
<title>Node4&#45;&gt;Node3</title>
<g id="a_edge4_Node000004_Node000003"><a xlink:title=" ">
<path fill="none" stroke="#63b8ff" d="M292.24,-18.12C304.48,-19.29 317.35,-20.52 330.1,-21.73"/>
<polygon fill="#63b8ff" stroke="#63b8ff" points="329.46,-25.19 339.75,-22.65 330.13,-18.22 329.46,-25.19"/>
</a>
</g>
</g>
</g>
</svg>
