<?xml version="1.0" encoding="UTF-8" standalone="no"?>
<!DOCTYPE svg PUBLIC "-//W3C//DTD SVG 1.1//EN"
 "http://www.w3.org/Graphics/SVG/1.1/DTD/svg11.dtd">
<!-- Generated by graphviz version 15.1.0 (20260618.0150)
 -->
<!-- Title: Application/config/board_config.h Pages: 1 -->
<!--zoomable 190 -->

<svg id="main" version="1.1" xmlns="http://www.w3.org/2000/svg" xmlns:xlink="http://www.w3.org/1999/xlink" xml:space="preserve" onload="init(evt)">

<style type="text/css"><![CDATA[
.node, .edge {opacity: 0.7;}
.node.selected, .edge.selected {opacity: 1;}
.edge:hover path { stroke: red; }
.edge:hover polygon { stroke: red; fill: red; }
]]></style>

<defs>
  <circle id="rim" cx="0" cy="0" r="7"/>
  <circle id="rim2" cx="0" cy="0" r="3.5"/>
  <g id="zoomPlus">
    <use xlink:href="#rim" fill="#404040"><set attributeName="fill" to="#808080" begin="zoomplus.mouseover" end="zoomplus.mouseout"/></use>
    <path d="M-4,0h8M0,-4v8" fill="none" stroke="white" stroke-width="1.5" pointer-events="none"/>
  </g>
  <g id="zoomMin">
    <use xlink:href="#rim" fill="#404040"><set attributeName="fill" to="#808080" begin="zoomminus.mouseover" end="zoomminus.mouseout"/></use>
    <path d="M-4,0h8" fill="none" stroke="white" stroke-width="1.5" pointer-events="none"/>
  </g>
  <g id="arrowUp" transform="translate(30 24)">
    <use xlink:href="#rim"/>
    <path pointer-events="none" fill="none" stroke="white" stroke-width="1.5" d="M0,-3.0v7 M-2.5,-0.5L0,-3.0L2.5,-0.5"/>
  </g>
  <g id="arrowRight" transform="rotate(90) translate(36 -43)">
    <use xlink:href="#rim"/>
    <path pointer-events="none" fill="none" stroke="white" stroke-width="1.5" d="M0,-3.0v7 M-2.5,-0.5L0,-3.0L2.5,-0.5"/>
  </g>
  <g id="arrowDown" transform="rotate(180) translate(-30 -48)">
    <use xlink:href="#rim"/>
    <path pointer-events="none" fill="none" stroke="white" stroke-width="1.5" d="M0,-3.0v7 M-2.5,-0.5L0,-3.0L2.5,-0.5"/>
  </g>
  <g id="arrowLeft" transform="rotate(270) translate(-36 17)">
    <use xlink:href="#rim"/>
    <path pointer-events="none" fill="none" stroke="white" stroke-width="1.5" d="M0,-3.0v7 M-2.5,-0.5L0,-3.0L2.5,-0.5"/>
  </g>
  <g id="resetDef">
    <use xlink:href="#rim2" fill="#404040"><set attributeName="fill" to="#808080" begin="reset.mouseover" end="reset.mouseout"/></use>
  </g>
</defs>
<script type="application/ecmascript">
var viewWidth = 1663;
var viewHeight = 190;
var sectionId = 'dynsection-0';
</script>
<script type="application/ecmascript" xlink:href="svg.min.js"/>
<svg id="graph" class="graph">
<g id="viewport">
<title>Application/config/board_config.h</title>
<!-- Node1 -->
<g id="Node000001" class="node">
<title>Node1</title>
<g id="a_Node000001"><a xlink:title="板级硬件参数统一配置（GIM4310/4305 电机控制器 V0.0 板）">
<polygon fill="#999999" stroke="#666666" points="725.88,-181.5 614.62,-181.5 614.62,-145 725.88,-145 725.88,-181.5"/>
<text xml:space="preserve" text-anchor="start" x="622.62" y="-166.1" font-family="Helvetica,sans-Serif" font-size="12.00">Application/config</text>
<text xml:space="preserve" text-anchor="middle" x="670.25" y="-151.85" font-family="Helvetica,sans-Serif" font-size="12.00">/board_config.h</text>
</a>
</g>
</g>
<!-- Node2 -->
<g id="Node000002" class="node">
<title>Node2</title>
<g id="a_Node000002"><a xlink:href="app__can__protocol_8c.html" target="_top" xlink:title="CAN 应用协议（MIT 运控协议 + 配置协议）">
<polygon fill="white" stroke="#666666" points="122.5,-36.5 0,-36.5 0,0 122.5,0 122.5,-36.5"/>
<text xml:space="preserve" text-anchor="start" x="8" y="-21.1" font-family="Helvetica,sans-Serif" font-size="12.00">Application/app/app</text>
<text xml:space="preserve" text-anchor="middle" x="61.25" y="-6.85" font-family="Helvetica,sans-Serif" font-size="12.00">_can_protocol.c</text>
</a>
</g>
</g>
<!-- Node1&#45;&gt;Node2 -->
<g id="edge1_Node000001_Node000002" class="edge">
<title>Node1&#45;&gt;Node2</title>
<g id="a_edge1_Node000001_Node000002"><a xlink:title=" ">
<path fill="none" stroke="#63b8ff" d="M603.18,-157.12C528.02,-150.34 402.96,-135.97 298.25,-109 226.24,-90.45 146.02,-57.28 99.81,-36.88"/>
<polygon fill="#63b8ff" stroke="#63b8ff" points="602.58,-160.58 612.85,-157.97 603.19,-153.6 602.58,-160.58"/>
</a>
</g>
</g>
<!-- Node3 -->
<g id="Node000003" class="node">
<title>Node3</title>
<g id="a_Node000003"><a xlink:href="app__main_8c.html" target="_top" xlink:title="应用入口模块（前后台调度）">
<polygon fill="white" stroke="#666666" points="263.5,-36.5 141,-36.5 141,0 263.5,0 263.5,-36.5"/>
<text xml:space="preserve" text-anchor="start" x="149" y="-21.1" font-family="Helvetica,sans-Serif" font-size="12.00">Application/app/app</text>
<text xml:space="preserve" text-anchor="middle" x="202.25" y="-6.85" font-family="Helvetica,sans-Serif" font-size="12.00">_main.c</text>
</a>
</g>
</g>
<!-- Node1&#45;&gt;Node3 -->
<g id="edge2_Node000001_Node000003" class="edge">
<title>Node1&#45;&gt;Node3</title>
<g id="a_edge2_Node000001_Node000003"><a xlink:title=" ">
<path fill="none" stroke="#63b8ff" d="M602.92,-155C544.12,-147.44 457.04,-133.21 384.25,-109 327.92,-90.26 266.9,-57.31 231.76,-36.97"/>
<polygon fill="#63b8ff" stroke="#63b8ff" points="602.43,-158.47 612.79,-156.24 603.3,-151.52 602.43,-158.47"/>
</a>
</g>
</g>
<!-- Node4 -->
<g id="Node000004" class="node">
<title>Node4</title>
<g id="a_Node000004"><a xlink:href="app__monitor_8c.html" target="_top" xlink:title="调试数据打印模块">
<polygon fill="white" stroke="#666666" points="404.5,-36.5 282,-36.5 282,0 404.5,0 404.5,-36.5"/>
<text xml:space="preserve" text-anchor="start" x="290" y="-21.1" font-family="Helvetica,sans-Serif" font-size="12.00">Application/app/app</text>
<text xml:space="preserve" text-anchor="middle" x="343.25" y="-6.85" font-family="Helvetica,sans-Serif" font-size="12.00">_monitor.c</text>
</a>
</g>
</g>
<!-- Node1&#45;&gt;Node4 -->
<g id="edge3_Node000001_Node000004" class="edge">
<title>Node1&#45;&gt;Node4</title>
<g id="a_edge3_Node000001_Node000004"><a xlink:title=" ">
<path fill="none" stroke="#63b8ff" d="M603.11,-156.87C554.14,-150.67 487.48,-137.39 435.25,-109 401.92,-90.88 372.29,-57.25 356.14,-36.7"/>
<polygon fill="#63b8ff" stroke="#63b8ff" points="602.68,-160.34 613.03,-158.05 603.51,-153.39 602.68,-160.34"/>
</a>
</g>
</g>
<!-- Node5 -->
<g id="Node000005" class="node">
<title>Node5</title>
<g id="a_Node000005"><a xlink:href="app__params_8c.html" target="_top" xlink:title="运行参数管理（RAM 副本 + Flash 持久化）">
<polygon fill="white" stroke="#666666" points="545.5,-36.5 423,-36.5 423,0 545.5,0 545.5,-36.5"/>
<text xml:space="preserve" text-anchor="start" x="431" y="-21.1" font-family="Helvetica,sans-Serif" font-size="12.00">Application/app/app</text>
<text xml:space="preserve" text-anchor="middle" x="484.25" y="-6.85" font-family="Helvetica,sans-Serif" font-size="12.00">_params.c</text>
</a>
</g>
</g>
<!-- Node1&#45;&gt;Node5 -->
<g id="edge4_Node000001_Node000005" class="edge">
<title>Node1&#45;&gt;Node5</title>
<g id="a_edge4_Node000001_Node000005"><a xlink:title=" ">
<path fill="none" stroke="#63b8ff" d="M603.18,-155.49C544.16,-147.99 464.7,-133.59 445.25,-109 427.86,-87.01 449.09,-56.09 466.38,-36.88"/>
<polygon fill="#63b8ff" stroke="#63b8ff" points="602.46,-158.93 612.81,-156.67 603.31,-151.98 602.46,-158.93"/>
</a>
</g>
</g>
<!-- Node6 -->
<g id="Node000006" class="node">
<title>Node6</title>
<g id="a_Node000006"><a xlink:href="app__shell_8c.html" target="_top" xlink:title="调试 shell 模块（USART3，行式命令）">
<polygon fill="white" stroke="#666666" points="820.5,-109 698,-109 698,-72.5 820.5,-72.5 820.5,-109"/>
<text xml:space="preserve" text-anchor="start" x="706" y="-93.6" font-family="Helvetica,sans-Serif" font-size="12.00">Application/app/app</text>
<text xml:space="preserve" text-anchor="middle" x="759.25" y="-79.35" font-family="Helvetica,sans-Serif" font-size="12.00">_shell.c</text>
</a>
</g>
</g>
<!-- Node1&#45;&gt;Node6 -->
<g id="edge5_Node000001_Node000006" class="edge">
<title>Node1&#45;&gt;Node6</title>
<g id="a_edge5_Node000001_Node000006"><a xlink:title=" ">
<path fill="none" stroke="#63b8ff" d="M700.94,-137.94C712.75,-128.58 726,-118.09 736.88,-109.47"/>
<polygon fill="#63b8ff" stroke="#63b8ff" points="699.1,-134.93 693.44,-143.88 703.45,-140.42 699.1,-134.93"/>
</a>
</g>
</g>
<!-- Node7 -->
<g id="Node000007" class="node">
<title>Node7</title>
<g id="a_Node000007"><a xlink:href="bsp__adc_8c.html" target="_top" xlink:title="ADC 采样 BSP（电流/母线电压注入组 + 温度规则组）">
<polygon fill="white" stroke="#666666" points="959.75,-109 838.75,-109 838.75,-72.5 959.75,-72.5 959.75,-109"/>
<text xml:space="preserve" text-anchor="start" x="846.75" y="-93.6" font-family="Helvetica,sans-Serif" font-size="12.00">Application/bsp/bsp</text>
<text xml:space="preserve" text-anchor="middle" x="899.25" y="-79.35" font-family="Helvetica,sans-Serif" font-size="12.00">_adc.c</text>
</a>
</g>
</g>
<!-- Node1&#45;&gt;Node7 -->
<g id="edge6_Node000001_Node000007" class="edge">
<title>Node1&#45;&gt;Node7</title>
<g id="a_edge6_Node000001_Node000007"><a xlink:title=" ">
<path fill="none" stroke="#63b8ff" d="M737.25,-141.62C770.42,-131.41 810.06,-119.21 841.82,-109.43"/>
<polygon fill="#63b8ff" stroke="#63b8ff" points="736.24,-138.27 727.72,-144.56 738.3,-144.96 736.24,-138.27"/>
</a>
</g>
</g>
<!-- Node8 -->
<g id="Node000008" class="node">
<title>Node8</title>
<g id="a_Node000008"><a xlink:href="bsp__can_8c.html" target="_top" xlink:title="FDCAN1 通信 BSP（经典 CAN 模式）">
<polygon fill="white" stroke="#666666" points="1098.75,-109 977.75,-109 977.75,-72.5 1098.75,-72.5 1098.75,-109"/>
<text xml:space="preserve" text-anchor="start" x="985.75" y="-93.6" font-family="Helvetica,sans-Serif" font-size="12.00">Application/bsp/bsp</text>
<text xml:space="preserve" text-anchor="middle" x="1038.25" y="-79.35" font-family="Helvetica,sans-Serif" font-size="12.00">_can.c</text>
</a>
</g>
</g>
<!-- Node1&#45;&gt;Node8 -->
<g id="edge7_Node000001_Node000008" class="edge">
<title>Node1&#45;&gt;Node8</title>
<g id="a_edge7_Node000001_Node000008"><a xlink:title=" ">
<path fill="none" stroke="#63b8ff" d="M737.48,-151.63C798.25,-141.72 890.05,-125.93 969.25,-109 971.91,-108.43 974.62,-107.83 977.35,-107.22"/>
<polygon fill="#63b8ff" stroke="#63b8ff" points="736.93,-148.18 727.63,-153.23 738.06,-155.09 736.93,-148.18"/>
</a>
</g>
</g>
<!-- Node9 -->
<g id="Node000009" class="node">
<title>Node9</title>
<g id="a_Node000009"><a xlink:href="bsp__encoder_8c.html" target="_top" xlink:title="MT6701 磁编码器 BSP（GPIO 位带模拟 SSI）">
<polygon fill="white" stroke="#666666" points="1237.75,-109 1116.75,-109 1116.75,-72.5 1237.75,-72.5 1237.75,-109"/>
<text xml:space="preserve" text-anchor="start" x="1124.75" y="-93.6" font-family="Helvetica,sans-Serif" font-size="12.00">Application/bsp/bsp</text>
<text xml:space="preserve" text-anchor="middle" x="1177.25" y="-79.35" font-family="Helvetica,sans-Serif" font-size="12.00">_encoder.c</text>
</a>
</g>
</g>
<!-- Node1&#45;&gt;Node9 -->
<g id="edge8_Node000001_Node000009" class="edge">
<title>Node1&#45;&gt;Node9</title>
<g id="a_edge8_Node000001_Node000009"><a xlink:title=" ">
<path fill="none" stroke="#63b8ff" d="M737.45,-156.69C823.76,-148.95 977.95,-133.11 1108.25,-109 1110.92,-108.51 1113.64,-107.97 1116.39,-107.4"/>
<polygon fill="#63b8ff" stroke="#63b8ff" points="737.4,-153.18 727.75,-157.55 738.02,-160.15 737.4,-153.18"/>
</a>
</g>
</g>
<!-- Node10 -->
<g id="Node000010" class="node">
<title>Node10</title>
<g id="a_Node000010"><a xlink:href="bsp__pwm_8c.html" target="_top" xlink:title="TIM1 三相互补 PWM BSP">
<polygon fill="white" stroke="#666666" points="1376.75,-109 1255.75,-109 1255.75,-72.5 1376.75,-72.5 1376.75,-109"/>
<text xml:space="preserve" text-anchor="start" x="1263.75" y="-93.6" font-family="Helvetica,sans-Serif" font-size="12.00">Application/bsp/bsp</text>
<text xml:space="preserve" text-anchor="middle" x="1316.25" y="-79.35" font-family="Helvetica,sans-Serif" font-size="12.00">_pwm.c</text>
</a>
</g>
</g>
<!-- Node1&#45;&gt;Node10 -->
<g id="edge9_Node000001_Node000010" class="edge">
<title>Node1&#45;&gt;Node10</title>
<g id="a_edge9_Node000001_Node000010"><a xlink:title=" ">
<path fill="none" stroke="#63b8ff" d="M737.69,-159.37C845.85,-154.01 1064.49,-140.09 1247.25,-109 1249.93,-108.54 1252.66,-108.04 1255.4,-107.5"/>
<polygon fill="#63b8ff" stroke="#63b8ff" points="737.65,-155.87 727.83,-159.85 737.99,-162.86 737.65,-155.87"/>
</a>
</g>
</g>
<!-- Node11 -->
<g id="Node000011" class="node">
<title>Node11</title>
<g id="a_Node000011"><a xlink:href="bsp__uart_8c.html" target="_top" xlink:title="USART3 调试串口 BSP（DMA TX 环形缓冲 + RXNE 中断接收）">
<polygon fill="white" stroke="#666666" points="1515.75,-109 1394.75,-109 1394.75,-72.5 1515.75,-72.5 1515.75,-109"/>
<text xml:space="preserve" text-anchor="start" x="1402.75" y="-93.6" font-family="Helvetica,sans-Serif" font-size="12.00">Application/bsp/bsp</text>
<text xml:space="preserve" text-anchor="middle" x="1455.25" y="-79.35" font-family="Helvetica,sans-Serif" font-size="12.00">_uart.c</text>
</a>
</g>
</g>
<!-- Node1&#45;&gt;Node11 -->
<g id="edge10_Node000001_Node000011" class="edge">
<title>Node1&#45;&gt;Node11</title>
<g id="a_edge10_Node000001_Node000011"><a xlink:title=" ">
<path fill="none" stroke="#63b8ff" d="M737.81,-161.06C865.34,-157.97 1149.96,-147.04 1386.25,-109 1388.93,-108.57 1391.66,-108.08 1394.41,-107.56"/>
<polygon fill="#63b8ff" stroke="#63b8ff" points="737.76,-157.56 727.84,-161.29 737.92,-164.56 737.76,-157.56"/>
</a>
</g>
</g>
<!-- Node12 -->
<g id="Node000012" class="node">
<title>Node12</title>
<g id="a_Node000012"><a xlink:href="bsp__ws2812_8c.html" target="_top" xlink:title="WS2812 类 RGB 状态灯 BSP（TIM2_CH1 PWM + DMA，单灯）">
<polygon fill="white" stroke="#666666" points="1654.75,-109 1533.75,-109 1533.75,-72.5 1654.75,-72.5 1654.75,-109"/>
<text xml:space="preserve" text-anchor="start" x="1541.75" y="-93.6" font-family="Helvetica,sans-Serif" font-size="12.00">Application/bsp/bsp</text>
<text xml:space="preserve" text-anchor="middle" x="1594.25" y="-79.35" font-family="Helvetica,sans-Serif" font-size="12.00">_ws2812.c</text>
</a>
</g>
</g>
<!-- Node1&#45;&gt;Node12 -->
<g id="edge11_Node000001_Node000012" class="edge">
<title>Node1&#45;&gt;Node12</title>
<g id="a_edge11_Node000001_Node000012"><a xlink:title=" ">
<path fill="none" stroke="#63b8ff" d="M737.45,-162.22C882.31,-161.26 1234.4,-154.03 1525.25,-109 1527.93,-108.58 1530.67,-108.11 1533.42,-107.6"/>
<polygon fill="#63b8ff" stroke="#63b8ff" points="737.64,-158.72 727.66,-162.28 737.68,-165.72 737.64,-158.72"/>
</a>
</g>
</g>
<!-- Node13 -->
<g id="Node000013" class="node">
<title>Node13</title>
<g id="a_Node000013"><a xlink:href="motor__config_8h.html" target="_top" xlink:title="电机参数与控制参数统一配置">
<polygon fill="white" stroke="#666666" points="565.88,-109 454.62,-109 454.62,-72.5 565.88,-72.5 565.88,-109"/>
<text xml:space="preserve" text-anchor="start" x="462.62" y="-93.6" font-family="Helvetica,sans-Serif" font-size="12.00">Application/config</text>
<text xml:space="preserve" text-anchor="middle" x="510.25" y="-79.35" font-family="Helvetica,sans-Serif" font-size="12.00">/motor_config.h</text>
</a>
</g>
</g>
<!-- Node1&#45;&gt;Node13 -->
<g id="edge12_Node000001_Node000013" class="edge">
<title>Node1&#45;&gt;Node13</title>
<g id="a_edge12_Node000001_Node000013"><a xlink:title=" ">
<path fill="none" stroke="#63b8ff" d="M619.92,-140.07C597.46,-130.18 571.36,-118.68 550.26,-109.38"/>
<polygon fill="#63b8ff" stroke="#63b8ff" points="618.34,-143.2 628.9,-144.03 621.16,-136.8 618.34,-143.2"/>
</a>
</g>
</g>
<!-- Node14 -->
<g id="Node000014" class="node">
<title>Node14</title>
<g id="a_Node000014"><a xlink:href="calibration_8c.html" target="_top" xlink:title="预定位校准模块（编码器方向/极对数/电角度偏置）">
<polygon fill="white" stroke="#666666" points="678.75,-36.5 563.75,-36.5 563.75,0 678.75,0 678.75,-36.5"/>
<text xml:space="preserve" text-anchor="start" x="571.75" y="-21.1" font-family="Helvetica,sans-Serif" font-size="12.00">Application/control</text>
<text xml:space="preserve" text-anchor="middle" x="621.25" y="-6.85" font-family="Helvetica,sans-Serif" font-size="12.00">/calibration.c</text>
</a>
</g>
</g>
<!-- Node1&#45;&gt;Node14 -->
<g id="edge20_Node000001_Node000014" class="edge">
<title>Node1&#45;&gt;Node14</title>
<g id="a_edge20_Node000001_Node000014"><a xlink:title=" ">
<path fill="none" stroke="#63b8ff" d="M637.68,-136.84C629.83,-128.86 622.48,-119.39 618.25,-109 608.66,-85.46 612.5,-55.51 616.55,-36.86"/>
<polygon fill="#63b8ff" stroke="#63b8ff" points="635.16,-139.26 644.85,-143.55 639.94,-134.16 635.16,-139.26"/>
</a>
</g>
</g>
<!-- Node15 -->
<g id="Node000015" class="node">
<title>Node15</title>
<g id="a_Node000015"><a xlink:href="motor__ctrl_8c.html" target="_top" xlink:title="电机控制核心模块（模式状态机 + 20kHz FOC 主循环）">
<polygon fill="white" stroke="#666666" points="811.75,-36.5 696.75,-36.5 696.75,0 811.75,0 811.75,-36.5"/>
<text xml:space="preserve" text-anchor="start" x="704.75" y="-21.1" font-family="Helvetica,sans-Serif" font-size="12.00">Application/control</text>
<text xml:space="preserve" text-anchor="middle" x="754.25" y="-6.85" font-family="Helvetica,sans-Serif" font-size="12.00">/motor_ctrl.c</text>
</a>
</g>
</g>
<!-- Node1&#45;&gt;Node15 -->
<g id="edge21_Node000001_Node000015" class="edge">
<title>Node1&#45;&gt;Node15</title>
<g id="a_edge21_Node000001_Node000015"><a xlink:title=" ">
<path fill="none" stroke="#63b8ff" d="M656.87,-134.25C650.01,-115.57 645.18,-91.11 656.25,-72.5 665.75,-56.52 681.91,-45.04 698.39,-36.93"/>
<polygon fill="#63b8ff" stroke="#63b8ff" points="653.57,-135.43 660.59,-143.37 660.05,-132.79 653.57,-135.43"/>
</a>
</g>
</g>
<!-- Node16 -->
<g id="Node000016" class="node">
<title>Node16</title>
<g id="a_Node000016"><a xlink:href="protection_8c.html" target="_top" xlink:title="保护与故障管理模块">
<polygon fill="white" stroke="#666666" points="944.75,-36.5 829.75,-36.5 829.75,0 944.75,0 944.75,-36.5"/>
<text xml:space="preserve" text-anchor="start" x="837.75" y="-21.1" font-family="Helvetica,sans-Serif" font-size="12.00">Application/control</text>
<text xml:space="preserve" text-anchor="middle" x="887.25" y="-6.85" font-family="Helvetica,sans-Serif" font-size="12.00">/protection.c</text>
</a>
</g>
</g>
<!-- Node1&#45;&gt;Node16 -->
<g id="edge22_Node000001_Node000016" class="edge">
<title>Node1&#45;&gt;Node16</title>
<g id="a_edge22_Node000001_Node000016"><a xlink:title=" ">
<path fill="none" stroke="#63b8ff" d="M668.99,-133.27C669.72,-113.7 674.01,-88.59 689.25,-72.5 690.5,-71.18 771.41,-49.69 829.4,-34.43"/>
<polygon fill="#63b8ff" stroke="#63b8ff" points="665.49,-133.08 668.93,-143.1 672.49,-133.12 665.49,-133.08"/>
</a>
</g>
</g>
<!-- Node13&#45;&gt;Node2 -->
<g id="edge13_Node000013_Node000002" class="edge">
<title>Node13&#45;&gt;Node2</title>
<g id="a_edge13_Node000013_Node000002"><a xlink:title=" ">
<path fill="none" stroke="#63b8ff" d="M442.98,-82.3C367.13,-73.43 240.29,-57.18 132.25,-36.5 129.14,-35.9 125.95,-35.26 122.74,-34.58"/>
<polygon fill="#63b8ff" stroke="#63b8ff" points="442.41,-85.76 452.74,-83.43 443.21,-78.8 442.41,-85.76"/>
</a>
</g>
</g>
<!-- Node13&#45;&gt;Node3 -->
<g id="edge14_Node000013_Node000003" class="edge">
<title>Node13&#45;&gt;Node3</title>
<g id="a_edge14_Node000013_Node000003"><a xlink:title=" ">
<path fill="none" stroke="#63b8ff" d="M443.09,-74.99C395.6,-64.47 330.46,-49.88 273.25,-36.5 270.16,-35.78 267,-35.03 263.81,-34.28"/>
<polygon fill="#63b8ff" stroke="#63b8ff" points="442.16,-78.36 452.68,-77.11 443.68,-71.53 442.16,-78.36"/>
</a>
</g>
</g>
<!-- Node13&#45;&gt;Node4 -->
<g id="edge15_Node000013_Node000004" class="edge">
<title>Node13&#45;&gt;Node4</title>
<g id="a_edge15_Node000013_Node000004"><a xlink:title=" ">
<path fill="none" stroke="#63b8ff" d="M458.04,-67.71C434.52,-57.78 407.13,-46.22 385.01,-36.88"/>
<polygon fill="#63b8ff" stroke="#63b8ff" points="456.57,-70.89 467.15,-71.55 459.29,-64.44 456.57,-70.89"/>
</a>
</g>
</g>
<!-- Node13&#45;&gt;Node5 -->
<g id="edge16_Node000013_Node000005" class="edge">
<title>Node13&#45;&gt;Node5</title>
<g id="a_edge16_Node000013_Node000005"><a xlink:title=" ">
<path fill="none" stroke="#63b8ff" d="M499.84,-61.53C496.78,-53.24 493.53,-44.4 490.78,-36.97"/>
<polygon fill="#63b8ff" stroke="#63b8ff" points="496.56,-62.73 503.3,-70.9 503.12,-60.31 496.56,-62.73"/>
</a>
</g>
</g>
<!-- Node13&#45;&gt;Node14 -->
<g id="edge17_Node000013_Node000014" class="edge">
<title>Node13&#45;&gt;Node14</title>
<g id="a_edge17_Node000013_Node000014"><a xlink:title=" ">
<path fill="none" stroke="#63b8ff" d="M547.51,-66.09C562.54,-56.54 579.58,-45.71 593.5,-36.88"/>
<polygon fill="#63b8ff" stroke="#63b8ff" points="545.82,-63.01 539.25,-71.33 549.57,-68.92 545.82,-63.01"/>
</a>
</g>
</g>
<!-- Node13&#45;&gt;Node15 -->
<g id="edge18_Node000013_Node000015" class="edge">
<title>Node13&#45;&gt;Node15</title>
<g id="a_edge18_Node000013_Node000015"><a xlink:title=" ">
<path fill="none" stroke="#63b8ff" d="M577.03,-70.46C614.42,-59.65 660.58,-46.32 696.41,-35.96"/>
<polygon fill="#63b8ff" stroke="#63b8ff" points="576.32,-67.02 567.68,-73.16 578.26,-73.74 576.32,-67.02"/>
</a>
</g>
</g>
<!-- Node13&#45;&gt;Node16 -->
<g id="edge19_Node000013_Node000016" class="edge">
<title>Node13&#45;&gt;Node16</title>
<g id="a_edge19_Node000013_Node000016"><a xlink:title=" ">
<path fill="none" stroke="#63b8ff" d="M577.15,-80C640.35,-70.39 737.65,-54.55 821.25,-36.5 823.91,-35.93 826.63,-35.31 829.37,-34.68"/>
<polygon fill="#63b8ff" stroke="#63b8ff" points="577.01,-76.48 567.64,-81.44 578.05,-83.4 577.01,-76.48"/>
</a>
</g>
</g>
</g>
</svg>

<g id="navigator" transform="translate(0 0)" fill="#404254">
  <rect fill="#f2f5e9" fill-opacity="0.5" stroke="#606060" stroke-width=".5" x="0" y="0" width="60" height="60"/>
  <use id="zoomplus" xlink:href="#zoomPlus" x="17" y="9" onmousedown="handleZoom(evt,'in')"/>
  <use id="zoomminus" xlink:href="#zoomMin" x="42" y="9" onmousedown="handleZoom(evt,'out')"/>
  <use id="reset" xlink:href="#resetDef" x="30" y="36" onmousedown="handleReset()"/>
   <use id="arrowup" xlink:href="#arrowUp" x="0" y="0" onmousedown="handlePan(0,-1)"/>
  <use id="arrowright" xlink:href="#arrowRight" x="0" y="0" onmousedown="handlePan(1,0)"/>
  <use id="arrowdown" xlink:href="#arrowDown" x="0" y="0" onmousedown="handlePan(0,1)"/>
  <use id="arrowleft" xlink:href="#arrowLeft" x="0" y="0" onmousedown="handlePan(-1,0)"/>
</g>
<svg viewBox="0 0 15 15" width="100%" height="30px" preserveAspectRatio="xMaxYMin meet">
 <g id="arrow_out" transform="scale(0.3 0.3)">
  <a xlink:href="board__config_8h__dep__incl_org.svg" target="_base">
   <rect id="button" ry="5" rx="5" y="6" x="6" height="38" width="38"
        fill="#f2f5e9" fill-opacity="0.5" stroke="#606060" stroke-width="1.0"/>
   <path id="arrow"
     d="M 11.500037,31.436501 C 11.940474,20.09759 22.043105,11.32322 32.158766,21.979434 L 37.068811,17.246167 C 37.068811,17.246167 37.088388,32 37.088388,32 L 22.160133,31.978069 C 22.160133,31.978069 26.997745,27.140456 26.997745,27.140456 C 18.528582,18.264221 13.291696,25.230495 11.500037,31.436501 z"
     style="fill:#404040;"/>
  </a>
 </g>
</svg>

<style type='text/css'>
<![CDATA[
[data-mouse-over-selected='false'] { opacity: 0.7; }
[data-mouse-over-selected='true']  { opacity: 1.0; }
]]>
</style>
<script type="application/ecmascript"><![CDATA[
document.addEventListener('DOMContentLoaded', (event) => {
  highlightEdges();
  highlightAdjacentNodes();
});
]]></script>
</svg>
