<?xml version="1.0" encoding="UTF-8" standalone="no"?>
<!DOCTYPE svg PUBLIC "-//W3C//DTD SVG 1.1//EN"
 "http://www.w3.org/Graphics/SVG/1.1/DTD/svg11.dtd">
<!-- Generated by graphviz version 15.1.0 (20260618.0150)
 -->
<!-- Title: BSP_PWM_Enable Pages: 1 -->
<!--zoomable 110 -->

<svg id="main" version="1.1" xmlns="http://www.w3.org/2000/svg" xmlns:xlink="http://www.w3.org/1999/xlink" xml:space="preserve" onload="init(evt)">

<style type="text/css"><![CDATA[
.node, .edge {opacity: 0.7;}
.node.selected, .edge.selected {opacity: 1;}
.edge:hover path { stroke: red; }
.edge:hover polygon { stroke: red; fill: red; }
]]></style>

<defs>
  <circle id="rim" cx="0" cy="0" r="7"/>
  <circle id="rim2" cx="0" cy="0" r="3.5"/>
  <g id="zoomPlus">
    <use xlink:href="#rim" fill="#404040"><set attributeName="fill" to="#808080" begin="zoomplus.mouseover" end="zoomplus.mouseout"/></use>
    <path d="M-4,0h8M0,-4v8" fill="none" stroke="white" stroke-width="1.5" pointer-events="none"/>
  </g>
  <g id="zoomMin">
    <use xlink:href="#rim" fill="#404040"><set attributeName="fill" to="#808080" begin="zoomminus.mouseover" end="zoomminus.mouseout"/></use>
    <path d="M-4,0h8" fill="none" stroke="white" stroke-width="1.5" pointer-events="none"/>
  </g>
  <g id="arrowUp" transform="translate(30 24)">
    <use xlink:href="#rim"/>
    <path pointer-events="none" fill="none" stroke="white" stroke-width="1.5" d="M0,-3.0v7 M-2.5,-0.5L0,-3.0L2.5,-0.5"/>
  </g>
  <g id="arrowRight" transform="rotate(90) translate(36 -43)">
    <use xlink:href="#rim"/>
    <path pointer-events="none" fill="none" stroke="white" stroke-width="1.5" d="M0,-3.0v7 M-2.5,-0.5L0,-3.0L2.5,-0.5"/>
  </g>
  <g id="arrowDown" transform="rotate(180) translate(-30 -48)">
    <use xlink:href="#rim"/>
    <path pointer-events="none" fill="none" stroke="white" stroke-width="1.5" d="M0,-3.0v7 M-2.5,-0.5L0,-3.0L2.5,-0.5"/>
  </g>
  <g id="arrowLeft" transform="rotate(270) translate(-36 17)">
    <use xlink:href="#rim"/>
    <path pointer-events="none" fill="none" stroke="white" stroke-width="1.5" d="M0,-3.0v7 M-2.5,-0.5L0,-3.0L2.5,-0.5"/>
  </g>
  <g id="resetDef">
    <use xlink:href="#rim2" fill="#404040"><set attributeName="fill" to="#808080" begin="reset.mouseover" end="reset.mouseout"/></use>
  </g>
</defs>
<script type="application/ecmascript">
var viewWidth = 1116;
var viewHeight = 110;
var sectionId = 'dynsection-3';
</script>
<script type="application/ecmascript" xlink:href="svg.min.js"/>
<svg id="graph" class="graph">
<g id="viewport">
<title>BSP_PWM_Enable</title>
<!-- Node1 -->
<g id="Node000001" class="node">
<title>Node1</title>
<g id="a_Node000001"><a xlink:title="使能功率输出（解除封波）">
<polygon fill="#999999" stroke="#666666" points="1107.5,-42.25 985.75,-42.25 985.75,-20 1107.5,-20 1107.5,-42.25"/>
<text xml:space="preserve" text-anchor="middle" x="1046.62" y="-26.85" font-family="Helvetica,sans-Serif" font-size="12.00">BSP_PWM_Enable</text>
</a>
</g>
</g>
<!-- Node2 -->
<g id="Node000002" class="node">
<title>Node2</title>
<g id="a_Node000002"><a xlink:href="motor__ctrl_8c.html#a8d1ee75d00d8c0f2d2d78f89d002efec" target="_top" xlink:title="使能功率输出">
<polygon fill="white" stroke="#666666" points="927.25,-62.25 847.5,-62.25 847.5,-40 927.25,-40 927.25,-62.25"/>
<text xml:space="preserve" text-anchor="middle" x="887.38" y="-46.85" font-family="Helvetica,sans-Serif" font-size="12.00">MC_Enable</text>
</a>
</g>
</g>
<!-- Node1&#45;&gt;Node2 -->
<g id="edge1_Node000001_Node000002" class="edge">
<title>Node1&#45;&gt;Node2</title>
<g id="a_edge1_Node000001_Node000002"><a xlink:title=" ">
<path fill="none" stroke="#63b8ff" d="M974.23,-40.21C958.14,-42.25 941.63,-44.35 927.45,-46.16"/>
<polygon fill="#63b8ff" stroke="#63b8ff" points="974.3,-43.73 983.78,-38.99 973.41,-36.78 974.3,-43.73"/>
</a>
</g>
</g>
<!-- Node13 -->
<g id="Node000013" class="node">
<title>Node13</title>
<g id="a_Node000013"><a xlink:href="motor__ctrl_8c.html#afb3414a066c16e68add2218d01f59942" target="_top" xlink:title="启动预定位校准（封波状态下）">
<polygon fill="white" stroke="#666666" points="949.75,-22.25 825,-22.25 825,0 949.75,0 949.75,-22.25"/>
<text xml:space="preserve" text-anchor="middle" x="887.38" y="-6.85" font-family="Helvetica,sans-Serif" font-size="12.00">MC_StartCalibration</text>
</a>
</g>
</g>
<!-- Node1&#45;&gt;Node13 -->
<g id="edge15_Node000001_Node000013" class="edge">
<title>Node1&#45;&gt;Node13</title>
<g id="a_edge15_Node000001_Node000013"><a xlink:title=" ">
<path fill="none" stroke="#63b8ff" d="M974.07,-22.02C966.08,-21.01 957.98,-19.98 950.12,-18.98"/>
<polygon fill="#63b8ff" stroke="#63b8ff" points="973.41,-25.47 983.78,-23.26 974.3,-18.52 973.41,-25.47"/>
</a>
</g>
</g>
<!-- Node3 -->
<g id="Node000003" class="node">
<title>Node3</title>
<g id="a_Node000003"><a xlink:href="app__can__protocol_8c.html#a962b5bb63f0dca9cd0efbd25455d6002" target="_top" xlink:title="配置通道处理">
<polygon fill="white" stroke="#666666" points="789,-62.25 650.75,-62.25 650.75,-40 789,-40 789,-62.25"/>
<text xml:space="preserve" text-anchor="middle" x="719.88" y="-46.85" font-family="Helvetica,sans-Serif" font-size="12.00">APP_CAN_HandleCfg</text>
</a>
</g>
</g>
<!-- Node2&#45;&gt;Node3 -->
<g id="edge2_Node000002_Node000003" class="edge">
<title>Node2&#45;&gt;Node3</title>
<g id="a_edge2_Node000002_Node000003"><a xlink:title=" ">
<path fill="none" stroke="#63b8ff" d="M835.78,-51.12C821.11,-51.12 804.84,-51.12 789.27,-51.12"/>
<polygon fill="#63b8ff" stroke="#63b8ff" points="835.64,-54.63 845.64,-51.13 835.64,-47.63 835.64,-54.63"/>
</a>
</g>
</g>
<!-- Node10 -->
<g id="Node000010" class="node">
<title>Node10</title>
<g id="a_Node000010"><a xlink:href="app__can__protocol_8c.html#a287ab0ebbb13b297320ec4082c51365b" target="_top" xlink:title="MIT 运控通道处理">
<polygon fill="white" stroke="#666666" points="787.5,-102.25 652.25,-102.25 652.25,-80 787.5,-80 787.5,-102.25"/>
<text xml:space="preserve" text-anchor="middle" x="719.88" y="-86.85" font-family="Helvetica,sans-Serif" font-size="12.00">APP_CAN_HandleMit</text>
</a>
</g>
</g>
<!-- Node2&#45;&gt;Node10 -->
<g id="edge10_Node000002_Node000010" class="edge">
<title>Node2&#45;&gt;Node10</title>
<g id="a_edge10_Node000002_Node000010"><a xlink:title=" ">
<path fill="none" stroke="#63b8ff" d="M835.99,-63.3C814.6,-68.47 789.78,-74.47 768.67,-79.57"/>
<polygon fill="#63b8ff" stroke="#63b8ff" points="836.78,-66.71 845.68,-60.96 835.14,-59.91 836.78,-66.71"/>
</a>
</g>
</g>
<!-- Node11 -->
<g id="Node000011" class="node">
<title>Node11</title>
<g id="a_Node000011"><a xlink:href="app__shell_8c.html#ad6303a346f63752b165b847c5dcefbb7" target="_top" xlink:title="解析并执行一行命令">
<polygon fill="white" stroke="#666666" points="788.25,-22.25 651.5,-22.25 651.5,0 788.25,0 788.25,-22.25"/>
<text xml:space="preserve" text-anchor="middle" x="719.88" y="-6.85" font-family="Helvetica,sans-Serif" font-size="12.00">APP_SHELL_Execute</text>
</a>
</g>
</g>
<!-- Node2&#45;&gt;Node11 -->
<g id="edge12_Node000002_Node000011" class="edge">
<title>Node2&#45;&gt;Node11</title>
<g id="a_edge12_Node000002_Node000011"><a xlink:title=" ">
<path fill="none" stroke="#63b8ff" d="M835.99,-38.95C814.6,-33.78 789.78,-27.78 768.67,-22.68"/>
<polygon fill="#63b8ff" stroke="#63b8ff" points="835.14,-42.34 845.68,-41.29 836.78,-35.54 835.14,-42.34"/>
</a>
</g>
</g>
<!-- Node4 -->
<g id="Node000004" class="node">
<title>Node4</title>
<g id="a_Node000004"><a xlink:href="app__can__protocol_8c.html#a0c342291cd7188f387f12f9b2157c4e9" target="_top" xlink:title="CAN 接收分发（ISR 上下文）">
<polygon fill="white" stroke="#666666" points="614.75,-81.25 476.5,-81.25 476.5,-59 614.75,-59 614.75,-81.25"/>
<text xml:space="preserve" text-anchor="middle" x="545.62" y="-65.85" font-family="Helvetica,sans-Serif" font-size="12.00">APP_CAN_RxHandler</text>
</a>
</g>
</g>
<!-- Node3&#45;&gt;Node4 -->
<g id="edge3_Node000003_Node000004" class="edge">
<title>Node3&#45;&gt;Node4</title>
<g id="a_edge3_Node000003_Node000004"><a xlink:title=" ">
<path fill="none" stroke="#63b8ff" d="M639.11,-59.92C631.13,-60.8 623.09,-61.69 615.24,-62.56"/>
<polygon fill="#63b8ff" stroke="#63b8ff" points="639.24,-63.43 648.8,-58.85 638.47,-56.47 639.24,-63.43"/>
</a>
</g>
</g>
<!-- Node5 -->
<g id="Node000005" class="node">
<title>Node5</title>
<g id="a_Node000005"><a xlink:href="app__can__protocol_8c.html#af389bd7cff6ae0b5df76c2feb46f25f6" target="_top" xlink:title="初始化 CAN 应用协议（按持久化参数配置 BSP）">
<polygon fill="white" stroke="#666666" points="431.5,-81.25 335.25,-81.25 335.25,-59 431.5,-59 431.5,-81.25"/>
<text xml:space="preserve" text-anchor="middle" x="383.38" y="-65.85" font-family="Helvetica,sans-Serif" font-size="12.00">APP_CAN_Init</text>
</a>
</g>
</g>
<!-- Node4&#45;&gt;Node5 -->
<g id="edge4_Node000004_Node000005" class="edge">
<title>Node4&#45;&gt;Node5</title>
<g id="a_edge4_Node000004_Node000005"><a xlink:title=" ">
<path fill="none" stroke="#63b8ff" d="M464.9,-70.12C453.56,-70.12 442.21,-70.12 431.76,-70.12"/>
<polygon fill="#63b8ff" stroke="#63b8ff" points="464.69,-73.63 474.69,-70.13 464.69,-66.63 464.69,-73.63"/>
</a>
</g>
</g>
<!-- Node6 -->
<g id="Node000006" class="node">
<title>Node6</title>
<g id="a_Node000006"><a xlink:href="app__can__protocol_8c.html#a6c2f3bebbd2597376fd87038ef059996" target="_top" xlink:title="后台轮询：处理通信参数变更后的重新初始化">
<polygon fill="white" stroke="#666666" points="290.25,-61.25 188.75,-61.25 188.75,-39 290.25,-39 290.25,-61.25"/>
<text xml:space="preserve" text-anchor="middle" x="239.5" y="-45.85" font-family="Helvetica,sans-Serif" font-size="12.00">APP_CAN_Poll</text>
</a>
</g>
</g>
<!-- Node5&#45;&gt;Node6 -->
<g id="edge5_Node000005_Node000006" class="edge">
<title>Node5&#45;&gt;Node6</title>
<g id="a_edge5_Node000005_Node000006"><a xlink:title=" ">
<path fill="none" stroke="#63b8ff" d="M323.79,-61.87C312.72,-60.31 301.23,-58.69 290.45,-57.17"/>
<polygon fill="#63b8ff" stroke="#63b8ff" points="323.24,-65.32 333.63,-63.25 324.22,-58.39 323.24,-65.32"/>
</a>
</g>
</g>
<!-- Node9 -->
<g id="Node000009" class="node">
<title>Node9</title>
<g id="a_Node000009"><a xlink:href="app__main_8c.html#a4759d3fdff6b33e2c0a0ae151452112f" target="_top" xlink:title="应用初始化（main 的 USER CODE BEGIN 2 调用）">
<polygon fill="white" stroke="#666666" points="147.12,-100.25 83.88,-100.25 83.88,-78 147.12,-78 147.12,-100.25"/>
<text xml:space="preserve" text-anchor="middle" x="115.5" y="-84.85" font-family="Helvetica,sans-Serif" font-size="12.00">APP_Init</text>
</a>
</g>
</g>
<!-- Node5&#45;&gt;Node9 -->
<g id="edge8_Node000005_Node000009" class="edge">
<title>Node5&#45;&gt;Node9</title>
<g id="a_edge8_Node000005_Node000009"><a xlink:title=" ">
<path fill="none" stroke="#63b8ff" d="M323.63,-74.32C269.24,-78.21 190.47,-83.84 147.44,-86.91"/>
<polygon fill="#63b8ff" stroke="#63b8ff" points="323.61,-77.83 333.33,-73.63 323.11,-70.85 323.61,-77.83"/>
</a>
</g>
</g>
<!-- Node7 -->
<g id="Node000007" class="node">
<title>Node7</title>
<g id="a_Node000007"><a xlink:href="app__main_8c.html#a6709d26bb67f905916b7c7f048b8396c" target="_top" xlink:title="后台超级循环体（main 的 while(1) 内调用）">
<polygon fill="white" stroke="#666666" points="152.75,-60.25 78.25,-60.25 78.25,-38 152.75,-38 152.75,-60.25"/>
<text xml:space="preserve" text-anchor="middle" x="115.5" y="-44.85" font-family="Helvetica,sans-Serif" font-size="12.00">APP_Loop</text>
</a>
</g>
</g>
<!-- Node6&#45;&gt;Node7 -->
<g id="edge6_Node000006_Node000007" class="edge">
<title>Node6&#45;&gt;Node7</title>
<g id="a_edge6_Node000006_Node000007"><a xlink:title=" ">
<path fill="none" stroke="#63b8ff" d="M177.03,-49.62C168.86,-49.55 160.7,-49.49 153.14,-49.43"/>
<polygon fill="#63b8ff" stroke="#63b8ff" points="176.98,-53.12 187.01,-49.7 177.04,-46.12 176.98,-53.12"/>
</a>
</g>
</g>
<!-- Node8 -->
<g id="Node000008" class="node">
<title>Node8</title>
<g id="a_Node000008"><a xlink:href="main_8c.html#a840291bc02cba5474a4cb46a9b9566fe" target="_top" xlink:title="The application entry point.">
<polygon fill="white" stroke="#666666" points="42.25,-80.25 0,-80.25 0,-58 42.25,-58 42.25,-80.25"/>
<text xml:space="preserve" text-anchor="middle" x="21.12" y="-64.85" font-family="Helvetica,sans-Serif" font-size="12.00">main</text>
</a>
</g>
</g>
<!-- Node7&#45;&gt;Node8 -->
<g id="edge7_Node000007_Node000008" class="edge">
<title>Node7&#45;&gt;Node8</title>
<g id="a_edge7_Node000007_Node000008"><a xlink:title=" ">
<path fill="none" stroke="#63b8ff" d="M66.86,-59.44C58.35,-61.28 49.91,-63.11 42.69,-64.67"/>
<polygon fill="#63b8ff" stroke="#63b8ff" points="67.48,-62.89 76.51,-57.35 66,-56.05 67.48,-62.89"/>
</a>
</g>
</g>
<!-- Node9&#45;&gt;Node8 -->
<g id="edge9_Node000009_Node000008" class="edge">
<title>Node9&#45;&gt;Node8</title>
<g id="a_edge9_Node000009_Node000008"><a xlink:title=" ">
<path fill="none" stroke="#63b8ff" d="M72.48,-80.03C62.15,-77.79 51.54,-75.49 42.74,-73.59"/>
<polygon fill="#63b8ff" stroke="#63b8ff" points="71.49,-83.39 82,-82.09 72.97,-76.55 71.49,-83.39"/>
</a>
</g>
</g>
<!-- Node10&#45;&gt;Node4 -->
<g id="edge11_Node000010_Node000004" class="edge">
<title>Node10&#45;&gt;Node4</title>
<g id="a_edge11_Node000010_Node000004"><a xlink:title=" ">
<path fill="none" stroke="#63b8ff" d="M640.42,-81.56C632.01,-80.54 623.51,-79.5 615.23,-78.49"/>
<polygon fill="#63b8ff" stroke="#63b8ff" points="639.93,-85.03 650.28,-82.76 640.78,-78.08 639.93,-85.03"/>
</a>
</g>
</g>
<!-- Node12 -->
<g id="Node000012" class="node">
<title>Node12</title>
<g id="a_Node000012"><a xlink:href="app__shell_8c.html#ab93a15148be82ad3c0999b099de7c29e" target="_top" xlink:title="shell 轮询（后台调用）">
<polygon fill="white" stroke="#666666" points="440.5,-22.25 326.25,-22.25 326.25,0 440.5,0 440.5,-22.25"/>
<text xml:space="preserve" text-anchor="middle" x="383.38" y="-6.85" font-family="Helvetica,sans-Serif" font-size="12.00">APP_SHELL_Poll</text>
</a>
</g>
</g>
<!-- Node11&#45;&gt;Node12 -->
<g id="edge13_Node000011_Node000012" class="edge">
<title>Node11&#45;&gt;Node12</title>
<g id="a_edge13_Node000011_Node000012"><a xlink:title=" ">
<path fill="none" stroke="#63b8ff" d="M640.03,-11.12C578.85,-11.12 495.52,-11.12 440.86,-11.12"/>
<polygon fill="#63b8ff" stroke="#63b8ff" points="639.67,-14.63 649.67,-11.13 639.67,-7.63 639.67,-14.63"/>
</a>
</g>
</g>
<!-- Node12&#45;&gt;Node7 -->
<g id="edge14_Node000012_Node000007" class="edge">
<title>Node12&#45;&gt;Node7</title>
<g id="a_edge14_Node000012_Node000007"><a xlink:title=" ">
<path fill="none" stroke="#63b8ff" d="M314.86,-15.1C277.49,-17.96 230.33,-22.67 188.75,-30.12 177.01,-32.23 164.37,-35.28 153,-38.32"/>
<polygon fill="#63b8ff" stroke="#63b8ff" points="314.9,-18.61 324.62,-14.38 314.39,-11.62 314.9,-18.61"/>
</a>
</g>
</g>
<!-- Node13&#45;&gt;Node3 -->
<g id="edge16_Node000013_Node000003" class="edge">
<title>Node13&#45;&gt;Node3</title>
<g id="a_edge16_Node000013_Node000003"><a xlink:title=" ">
<path fill="none" stroke="#63b8ff" d="M827.46,-25.36C808.27,-30 787.22,-35.09 768.92,-39.51"/>
<polygon fill="#63b8ff" stroke="#63b8ff" points="828.14,-28.8 837.03,-23.05 826.49,-22 828.14,-28.8"/>
</a>
</g>
</g>
<!-- Node13&#45;&gt;Node11 -->
<g id="edge17_Node000013_Node000011" class="edge">
<title>Node13&#45;&gt;Node11</title>
<g id="a_edge17_Node000013_Node000011"><a xlink:title=" ">
<path fill="none" stroke="#63b8ff" d="M813.29,-11.12C805.1,-11.12 796.79,-11.12 788.67,-11.12"/>
<polygon fill="#63b8ff" stroke="#63b8ff" points="813.24,-14.63 823.24,-11.13 813.24,-7.63 813.24,-14.63"/>
</a>
</g>
</g>
</g>
</svg>

<g id="navigator" transform="translate(0 0)" fill="#404254">
  <rect fill="#f2f5e9" fill-opacity="0.5" stroke="#606060" stroke-width=".5" x="0" y="0" width="60" height="60"/>
  <use id="zoomplus" xlink:href="#zoomPlus" x="17" y="9" onmousedown="handleZoom(evt,'in')"/>
  <use id="zoomminus" xlink:href="#zoomMin" x="42" y="9" onmousedown="handleZoom(evt,'out')"/>
  <use id="reset" xlink:href="#resetDef" x="30" y="36" onmousedown="handleReset()"/>
   <use id="arrowup" xlink:href="#arrowUp" x="0" y="0" onmousedown="handlePan(0,-1)"/>
  <use id="arrowright" xlink:href="#arrowRight" x="0" y="0" onmousedown="handlePan(1,0)"/>
  <use id="arrowdown" xlink:href="#arrowDown" x="0" y="0" onmousedown="handlePan(0,1)"/>
  <use id="arrowleft" xlink:href="#arrowLeft" x="0" y="0" onmousedown="handlePan(-1,0)"/>
</g>
<svg viewBox="0 0 15 15" width="100%" height="30px" preserveAspectRatio="xMaxYMin meet">
 <g id="arrow_out" transform="scale(0.3 0.3)">
  <a xlink:href="bsp__pwm_8c_a4bdefcd18b0b080f1e8db825e33c80e8_icgraph_org.svg" target="_base">
   <rect id="button" ry="5" rx="5" y="6" x="6" height="38" width="38"
        fill="#f2f5e9" fill-opacity="0.5" stroke="#606060" stroke-width="1.0"/>
   <path id="arrow"
     d="M 11.500037,31.436501 C 11.940474,20.09759 22.043105,11.32322 32.158766,21.979434 L 37.068811,17.246167 C 37.068811,17.246167 37.088388,32 37.088388,32 L 22.160133,31.978069 C 22.160133,31.978069 26.997745,27.140456 26.997745,27.140456 C 18.528582,18.264221 13.291696,25.230495 11.500037,31.436501 z"
     style="fill:#404040;"/>
  </a>
 </g>
</svg>

<style type='text/css'>
<![CDATA[
[data-mouse-over-selected='false'] { opacity: 0.7; }
[data-mouse-over-selected='true']  { opacity: 1.0; }
]]>
</style>
<script type="application/ecmascript"><![CDATA[
document.addEventListener('DOMContentLoaded', (event) => {
  highlightEdges();
  highlightAdjacentNodes();
});
]]></script>
</svg>
