<?xml version="1.0" encoding="UTF-8" standalone="no"?>
<!DOCTYPE svg PUBLIC "-//W3C//DTD SVG 1.1//EN"
 "http://www.w3.org/Graphics/SVG/1.1/DTD/svg11.dtd">
<!-- Generated by graphviz version 15.1.0 (20260618.0150)
 -->
<!-- Title: BSP_WS2812_SetColor Pages: 1 -->
<svg width="497pt" height="110pt"
 viewBox="0.00 0.00 497.00 110.00" xmlns="http://www.w3.org/2000/svg" xmlns:xlink="http://www.w3.org/1999/xlink">
<g id="graph0" class="graph" transform="scale(1 1) rotate(0) translate(4 106.25)">
<title>BSP_WS2812_SetColor</title>
<!-- Node1 -->
<g id="Node000001" class="node">
<title>Node1</title>
<g id="a_Node000001"><a xlink:title="设置目标颜色（缓存，Poll 时发送）">
<polygon fill="#999999" stroke="#666666" points="489.25,-62.25 341.25,-62.25 341.25,-40 489.25,-40 489.25,-62.25"/>
<text xml:space="preserve" text-anchor="middle" x="415.25" y="-46.85" font-family="Helvetica,sans-Serif" font-size="12.00">BSP_WS2812_SetColor</text>
</a>
</g>
</g>
<!-- Node2 -->
<g id="Node000002" class="node">
<title>Node2</title>
<g id="a_Node000002"><a xlink:href="app__led_8c.html#a4eb86fe33d029e9f08b60e781948039a" target="_top" xlink:title="初始化灯语模块">
<polygon fill="white" stroke="#666666" points="294,-102.25 200,-102.25 200,-80 294,-80 294,-102.25"/>
<text xml:space="preserve" text-anchor="middle" x="247" y="-86.85" font-family="Helvetica,sans-Serif" font-size="12.00">APP_LED_Init</text>
</a>
</g>
</g>
<!-- Node1&#45;&gt;Node2 -->
<g id="edge1_Node000001_Node000002" class="edge">
<title>Node1&#45;&gt;Node2</title>
<g id="a_edge1_Node000001_Node000002"><a xlink:title=" ">
<path fill="none" stroke="#63b8ff" d="M355,-65.38C335.04,-70.18 313.07,-75.47 294.26,-79.99"/>
<polygon fill="#63b8ff" stroke="#63b8ff" points="355.79,-68.79 364.69,-63.05 354.15,-61.99 355.79,-68.79"/>
</a>
</g>
</g>
<!-- Node5 -->
<g id="Node000005" class="node">
<title>Node5</title>
<g id="a_Node000005"><a xlink:href="app__led_8c.html#a0667624ed63a699e14975ababc2eeb67" target="_top" xlink:title="灯语轮询（后台调用，内部按 HAL tick 计时）">
<polygon fill="white" stroke="#666666" points="296.62,-22.25 197.38,-22.25 197.38,0 296.62,0 296.62,-22.25"/>
<text xml:space="preserve" text-anchor="middle" x="247" y="-6.85" font-family="Helvetica,sans-Serif" font-size="12.00">APP_LED_Poll</text>
</a>
</g>
</g>
<!-- Node1&#45;&gt;Node5 -->
<g id="edge4_Node000001_Node000005" class="edge">
<title>Node1&#45;&gt;Node5</title>
<g id="a_edge4_Node000001_Node000005"><a xlink:title=" ">
<path fill="none" stroke="#63b8ff" d="M355.07,-36.89C335.79,-32.25 314.64,-27.16 296.27,-22.74"/>
<polygon fill="#63b8ff" stroke="#63b8ff" points="354.15,-40.26 364.69,-39.2 355.79,-33.46 354.15,-40.26"/>
</a>
</g>
</g>
<!-- Node7 -->
<g id="Node000007" class="node">
<title>Node7</title>
<g id="a_Node000007"><a xlink:href="bsp__ws2812_8c.html#acad123fd7d3377dda0013ffc74a9445a" target="_top" xlink:title="初始化 WS2812 驱动（重配 TIM2 + DMA）">
<polygon fill="white" stroke="#666666" points="305.25,-62.25 188.75,-62.25 188.75,-40 305.25,-40 305.25,-62.25"/>
<text xml:space="preserve" text-anchor="middle" x="247" y="-46.85" font-family="Helvetica,sans-Serif" font-size="12.00">BSP_WS2812_Init</text>
</a>
</g>
</g>
<!-- Node1&#45;&gt;Node7 -->
<g id="edge7_Node000001_Node000007" class="edge">
<title>Node1&#45;&gt;Node7</title>
<g id="a_edge7_Node000001_Node000007"><a xlink:title=" ">
<path fill="none" stroke="#63b8ff" d="M329.43,-51.12C321.34,-51.12 313.27,-51.12 305.53,-51.12"/>
<polygon fill="#63b8ff" stroke="#63b8ff" points="329.33,-54.63 339.33,-51.13 329.33,-47.63 329.33,-54.63"/>
</a>
</g>
</g>
<!-- Node3 -->
<g id="Node000003" class="node">
<title>Node3</title>
<g id="a_Node000003"><a xlink:href="app__main_8c.html#a4759d3fdff6b33e2c0a0ae151452112f" target="_top" xlink:title="应用初始化（main 的 USER CODE BEGIN 2 调用）">
<polygon fill="white" stroke="#666666" points="147.12,-62.25 83.88,-62.25 83.88,-40 147.12,-40 147.12,-62.25"/>
<text xml:space="preserve" text-anchor="middle" x="115.5" y="-46.85" font-family="Helvetica,sans-Serif" font-size="12.00">APP_Init</text>
</a>
</g>
</g>
<!-- Node2&#45;&gt;Node3 -->
<g id="edge2_Node000002_Node000003" class="edge">
<title>Node2&#45;&gt;Node3</title>
<g id="a_edge2_Node000002_Node000003"><a xlink:title=" ">
<path fill="none" stroke="#63b8ff" d="M197.74,-76.22C180.86,-71.01 162.39,-65.3 147.33,-60.65"/>
<polygon fill="#63b8ff" stroke="#63b8ff" points="196.51,-79.5 207.1,-79.11 198.58,-72.81 196.51,-79.5"/>
</a>
</g>
</g>
<!-- Node4 -->
<g id="Node000004" class="node">
<title>Node4</title>
<g id="a_Node000004"><a xlink:href="main_8c.html#a840291bc02cba5474a4cb46a9b9566fe" target="_top" xlink:title="The application entry point.">
<polygon fill="white" stroke="#666666" points="42.25,-42.25 0,-42.25 0,-20 42.25,-20 42.25,-42.25"/>
<text xml:space="preserve" text-anchor="middle" x="21.12" y="-26.85" font-family="Helvetica,sans-Serif" font-size="12.00">main</text>
</a>
</g>
</g>
<!-- Node3&#45;&gt;Node4 -->
<g id="edge3_Node000003_Node000004" class="edge">
<title>Node3&#45;&gt;Node4</title>
<g id="a_edge3_Node000003_Node000004"><a xlink:title=" ">
<path fill="none" stroke="#63b8ff" d="M72.48,-42.03C62.15,-39.79 51.54,-37.49 42.74,-35.59"/>
<polygon fill="#63b8ff" stroke="#63b8ff" points="71.49,-45.39 82,-44.09 72.97,-38.55 71.49,-45.39"/>
</a>
</g>
</g>
<!-- Node6 -->
<g id="Node000006" class="node">
<title>Node6</title>
<g id="a_Node000006"><a xlink:href="app__main_8c.html#a6709d26bb67f905916b7c7f048b8396c" target="_top" xlink:title="后台超级循环体（main 的 while(1) 内调用）">
<polygon fill="white" stroke="#666666" points="152.75,-22.25 78.25,-22.25 78.25,0 152.75,0 152.75,-22.25"/>
<text xml:space="preserve" text-anchor="middle" x="115.5" y="-6.85" font-family="Helvetica,sans-Serif" font-size="12.00">APP_Loop</text>
</a>
</g>
</g>
<!-- Node5&#45;&gt;Node6 -->
<g id="edge5_Node000005_Node000006" class="edge">
<title>Node5&#45;&gt;Node6</title>
<g id="a_edge5_Node000005_Node000006"><a xlink:title=" ">
<path fill="none" stroke="#63b8ff" d="M185.57,-11.12C174.45,-11.12 163.15,-11.12 153.01,-11.12"/>
<polygon fill="#63b8ff" stroke="#63b8ff" points="185.53,-14.63 195.53,-11.13 185.53,-7.63 185.53,-14.63"/>
</a>
</g>
</g>
<!-- Node6&#45;&gt;Node4 -->
<g id="edge6_Node000006_Node000004" class="edge">
<title>Node6&#45;&gt;Node4</title>
<g id="a_edge6_Node000006_Node000004"><a xlink:title=" ">
<path fill="none" stroke="#63b8ff" d="M66.86,-21.44C58.35,-23.28 49.91,-25.11 42.69,-26.67"/>
<polygon fill="#63b8ff" stroke="#63b8ff" points="67.48,-24.89 76.51,-19.35 66,-18.05 67.48,-24.89"/>
</a>
</g>
</g>
<!-- Node7&#45;&gt;Node3 -->
<g id="edge8_Node000007_Node000003" class="edge">
<title>Node7&#45;&gt;Node3</title>
<g id="a_edge8_Node000007_Node000003"><a xlink:title=" ">
<path fill="none" stroke="#63b8ff" d="M177.2,-51.12C166.84,-51.12 156.63,-51.12 147.61,-51.12"/>
<polygon fill="#63b8ff" stroke="#63b8ff" points="176.93,-54.63 186.93,-51.13 176.93,-47.63 176.93,-54.63"/>
</a>
</g>
</g>
</g>
</svg>
