<?xml version="1.0" encoding="UTF-8" standalone="no"?>
<!DOCTYPE svg PUBLIC "-//W3C//DTD SVG 1.1//EN"
 "http://www.w3.org/Graphics/SVG/1.1/DTD/svg11.dtd">
<!-- Generated by graphviz version 15.1.0 (20260618.0150)
 -->
<!-- Title: BSP_ADC_ReadMosTemp Pages: 1 -->
<svg width="387pt" height="70pt"
 viewBox="0.00 0.00 387.00 70.00" xmlns="http://www.w3.org/2000/svg" xmlns:xlink="http://www.w3.org/1999/xlink">
<g id="graph0" class="graph" transform="scale(1 1) rotate(0) translate(4 66.25)">
<title>BSP_ADC_ReadMosTemp</title>
<!-- Node1 -->
<g id="Node000001" class="node">
<title>Node1</title>
<g id="a_Node000001"><a xlink:title="读取 MOS 管温度 [摄氏度]（阻塞轮询规则组，后台调用）">
<polygon fill="#999999" stroke="#666666" points="161.5,-42.25 0,-42.25 0,-20 161.5,-20 161.5,-42.25"/>
<text xml:space="preserve" text-anchor="middle" x="80.75" y="-26.85" font-family="Helvetica,sans-Serif" font-size="12.00">BSP_ADC_ReadMosTemp</text>
</a>
</g>
</g>
<!-- Node2 -->
<g id="Node000002" class="node">
<title>Node2</title>
<g id="a_Node000002"><a xlink:href="bsp__adc_8c.html#a711d70fa87d9e888250585328414146f" target="_top" xlink:title="NTC 原始值转温度">
<polygon fill="white" stroke="#666666" points="358.25,-62.25 217.75,-62.25 217.75,-40 358.25,-40 358.25,-62.25"/>
<text xml:space="preserve" text-anchor="middle" x="288" y="-46.85" font-family="Helvetica,sans-Serif" font-size="12.00">BSP_ADC_NtcToTemp</text>
</a>
</g>
</g>
<!-- Node1&#45;&gt;Node2 -->
<g id="edge1_Node000001_Node000002" class="edge">
<title>Node1&#45;&gt;Node2</title>
<g id="a_edge1_Node000001_Node000002"><a xlink:title=" ">
<path fill="none" stroke="#63b8ff" d="M161.99,-38.94C176.59,-40.37 191.83,-41.85 206.44,-43.28"/>
<polygon fill="#63b8ff" stroke="#63b8ff" points="205.68,-46.72 215.97,-44.2 206.36,-39.75 205.68,-46.72"/>
</a>
</g>
</g>
<!-- Node3 -->
<g id="Node000003" class="node">
<title>Node3</title>
<g id="a_Node000003"><a xlink:href="bsp__adc_8c.html#a900bb32d34d9ee14f746741c3e985a4f" target="_top" xlink:title="软件触发单次规则组转换（NTC 慢通道专用）">
<polygon fill="white" stroke="#666666" points="378.5,-22.25 197.5,-22.25 197.5,0 378.5,0 378.5,-22.25"/>
<text xml:space="preserve" text-anchor="middle" x="288" y="-6.85" font-family="Helvetica,sans-Serif" font-size="12.00">BSP_ADC_ReadRegularOnce</text>
</a>
</g>
</g>
<!-- Node1&#45;&gt;Node3 -->
<g id="edge2_Node000001_Node000003" class="edge">
<title>Node1&#45;&gt;Node3</title>
<g id="a_edge2_Node000001_Node000003"><a xlink:title=" ">
<path fill="none" stroke="#63b8ff" d="M161.99,-23.31C169.86,-22.54 177.91,-21.75 185.96,-20.97"/>
<polygon fill="#63b8ff" stroke="#63b8ff" points="186.18,-24.47 195.79,-20.01 185.5,-17.5 186.18,-24.47"/>
</a>
</g>
</g>
</g>
</svg>
