<?xml version="1.0" encoding="UTF-8" standalone="no"?>
<!DOCTYPE svg PUBLIC "-//W3C//DTD SVG 1.1//EN"
 "http://www.w3.org/Graphics/SVG/1.1/DTD/svg11.dtd">
<!-- Generated by graphviz version 15.1.0 (20260618.0150)
 -->
<!-- Title: BSP_UART_Printf Pages: 1 -->
<svg width="446pt" height="30pt"
 viewBox="0.00 0.00 446.00 30.00" xmlns="http://www.w3.org/2000/svg" xmlns:xlink="http://www.w3.org/1999/xlink">
<g id="graph0" class="graph" transform="scale(1 1) rotate(0) translate(4 26.25)">
<title>BSP_UART_Printf</title>
<!-- Node1 -->
<g id="Node000001" class="node">
<title>Node1</title>
<g id="a_Node000001"><a xlink:title="格式化打印到调试串口（非阻塞）">
<polygon fill="#999999" stroke="#666666" points="115,-22.25 0,-22.25 0,0 115,0 115,-22.25"/>
<text xml:space="preserve" text-anchor="middle" x="57.5" y="-6.85" font-family="Helvetica,sans-Serif" font-size="12.00">BSP_UART_Printf</text>
</a>
</g>
</g>
<!-- Node2 -->
<g id="Node000002" class="node">
<title>Node2</title>
<g id="a_Node000002"><a xlink:href="bsp__uart_8c.html#a67e2eb7d361398076d0800612430f13c" target="_top" xlink:title="向 TX 环形缓冲写入数据（非阻塞）">
<polygon fill="white" stroke="#666666" points="266,-22.25 151,-22.25 151,0 266,0 266,-22.25"/>
<text xml:space="preserve" text-anchor="middle" x="208.5" y="-6.85" font-family="Helvetica,sans-Serif" font-size="12.00">BSP_UART_Write</text>
</a>
</g>
</g>
<!-- Node1&#45;&gt;Node2 -->
<g id="edge1_Node000001_Node000002" class="edge">
<title>Node1&#45;&gt;Node2</title>
<g id="a_edge1_Node000001_Node000002"><a xlink:title=" ">
<path fill="none" stroke="#63b8ff" d="M115.26,-11.12C123.19,-11.12 131.42,-11.12 139.53,-11.12"/>
<polygon fill="#63b8ff" stroke="#63b8ff" points="139.39,-14.63 149.39,-11.13 139.39,-7.63 139.39,-14.63"/>
</a>
</g>
</g>
<!-- Node3 -->
<g id="Node000003" class="node">
<title>Node3</title>
<g id="a_Node000003"><a xlink:href="bsp__uart_8c.html#ad4dee4b2dd593f1d4c141de95156546d" target="_top" xlink:title="若 DMA 空闲且缓冲有数据，则启动下一段 DMA 传输">
<polygon fill="white" stroke="#666666" points="438,-22.25 302,-22.25 302,0 438,0 438,-22.25"/>
<text xml:space="preserve" text-anchor="middle" x="370" y="-6.85" font-family="Helvetica,sans-Serif" font-size="12.00">BSP_UART_KickDma</text>
</a>
</g>
</g>
<!-- Node2&#45;&gt;Node3 -->
<g id="edge2_Node000002_Node000003" class="edge">
<title>Node2&#45;&gt;Node3</title>
<g id="a_edge2_Node000002_Node000003"><a xlink:title=" ">
<path fill="none" stroke="#63b8ff" d="M266.18,-11.12C273.97,-11.12 282.08,-11.12 290.18,-11.12"/>
<polygon fill="#63b8ff" stroke="#63b8ff" points="290.08,-14.63 300.08,-11.13 290.08,-7.63 290.08,-14.63"/>
</a>
</g>
</g>
</g>
</svg>
