<?xml version="1.0" encoding="UTF-8" standalone="no"?>
<!DOCTYPE svg PUBLIC "-//W3C//DTD SVG 1.1//EN"
 "http://www.w3.org/Graphics/SVG/1.1/DTD/svg11.dtd">
<!-- Generated by graphviz version 15.1.0 (20260618.0150)
 -->
<!-- Title: BSP_ADC_NtcToTemp Pages: 1 -->
<svg width="678pt" height="70pt"
 viewBox="0.00 0.00 678.00 70.00" xmlns="http://www.w3.org/2000/svg" xmlns:xlink="http://www.w3.org/1999/xlink">
<g id="graph0" class="graph" transform="scale(1 1) rotate(0) translate(4 66.25)">
<title>BSP_ADC_NtcToTemp</title>
<!-- Node1 -->
<g id="Node000001" class="node">
<title>Node1</title>
<g id="a_Node000001"><a xlink:title="NTC 原始值转温度">
<polygon fill="#999999" stroke="#666666" points="669.5,-42.25 529,-42.25 529,-20 669.5,-20 669.5,-42.25"/>
<text xml:space="preserve" text-anchor="middle" x="599.25" y="-26.85" font-family="Helvetica,sans-Serif" font-size="12.00">BSP_ADC_NtcToTemp</text>
</a>
</g>
</g>
<!-- Node2 -->
<g id="Node000002" class="node">
<title>Node2</title>
<g id="a_Node000002"><a xlink:href="bsp__adc_8c.html#afa9f3886839c064af2f9ea65e1809550" target="_top" xlink:title="读取 MOS 管温度 [摄氏度]（阻塞轮询规则组，后台调用）">
<polygon fill="white" stroke="#666666" points="489.25,-62.25 327.75,-62.25 327.75,-40 489.25,-40 489.25,-62.25"/>
<text xml:space="preserve" text-anchor="middle" x="408.5" y="-46.85" font-family="Helvetica,sans-Serif" font-size="12.00">BSP_ADC_ReadMosTemp</text>
</a>
</g>
</g>
<!-- Node1&#45;&gt;Node2 -->
<g id="edge1_Node000001_Node000002" class="edge">
<title>Node1&#45;&gt;Node2</title>
<g id="a_edge1_Node000001_Node000002"><a xlink:title=" ">
<path fill="none" stroke="#63b8ff" d="M517.35,-39.7C508.11,-40.68 498.7,-41.67 489.47,-42.65"/>
<polygon fill="#63b8ff" stroke="#63b8ff" points="517.42,-43.21 527,-38.67 516.68,-36.25 517.42,-43.21"/>
</a>
</g>
</g>
<!-- Node6 -->
<g id="Node000006" class="node">
<title>Node6</title>
<g id="a_Node000006"><a xlink:href="bsp__adc_8c.html#a48bb754e0f48feedd1f16cf6a5cc4abe" target="_top" xlink:title="读取电机绕组温度 [摄氏度]（阻塞轮询规则组，后台调用）">
<polygon fill="white" stroke="#666666" points="493,-22.25 324,-22.25 324,0 493,0 493,-22.25"/>
<text xml:space="preserve" text-anchor="middle" x="408.5" y="-6.85" font-family="Helvetica,sans-Serif" font-size="12.00">BSP_ADC_ReadMotorTemp</text>
</a>
</g>
</g>
<!-- Node1&#45;&gt;Node6 -->
<g id="edge5_Node000001_Node000006" class="edge">
<title>Node1&#45;&gt;Node6</title>
<g id="a_edge5_Node000001_Node000006"><a xlink:title=" ">
<path fill="none" stroke="#63b8ff" d="M517.09,-22.53C509.23,-21.69 501.24,-20.85 493.34,-20.01"/>
<polygon fill="#63b8ff" stroke="#63b8ff" points="516.68,-26 527,-23.58 517.42,-19.04 516.68,-26"/>
</a>
</g>
</g>
<!-- Node3 -->
<g id="Node000003" class="node">
<title>Node3</title>
<g id="a_Node000003"><a xlink:href="app__main_8c.html#a9d7a99f268e16f853238569586d275aa" target="_top" xlink:title="慢任务：温度采样/过温保护/CAN 指令超时">
<polygon fill="white" stroke="#666666" points="288,-42.25 188.75,-42.25 188.75,-20 288,-20 288,-42.25"/>
<text xml:space="preserve" text-anchor="middle" x="238.38" y="-26.85" font-family="Helvetica,sans-Serif" font-size="12.00">APP_SlowTask</text>
</a>
</g>
</g>
<!-- Node2&#45;&gt;Node3 -->
<g id="edge2_Node000002_Node000003" class="edge">
<title>Node2&#45;&gt;Node3</title>
<g id="a_edge2_Node000002_Node000003"><a xlink:title=" ">
<path fill="none" stroke="#63b8ff" d="M316.1,-40.25C306.52,-39.11 297.07,-37.99 288.24,-36.94"/>
<polygon fill="#63b8ff" stroke="#63b8ff" points="315.53,-43.71 325.87,-41.41 316.36,-36.76 315.53,-43.71"/>
</a>
</g>
</g>
<!-- Node4 -->
<g id="Node000004" class="node">
<title>Node4</title>
<g id="a_Node000004"><a xlink:href="app__main_8c.html#a6709d26bb67f905916b7c7f048b8396c" target="_top" xlink:title="后台超级循环体（main 的 while(1) 内调用）">
<polygon fill="white" stroke="#666666" points="152.75,-42.25 78.25,-42.25 78.25,-20 152.75,-20 152.75,-42.25"/>
<text xml:space="preserve" text-anchor="middle" x="115.5" y="-26.85" font-family="Helvetica,sans-Serif" font-size="12.00">APP_Loop</text>
</a>
</g>
</g>
<!-- Node3&#45;&gt;Node4 -->
<g id="edge3_Node000003_Node000004" class="edge">
<title>Node3&#45;&gt;Node4</title>
<g id="a_edge3_Node000003_Node000004"><a xlink:title=" ">
<path fill="none" stroke="#63b8ff" d="M177.1,-31.12C168.95,-31.12 160.79,-31.12 153.23,-31.12"/>
<polygon fill="#63b8ff" stroke="#63b8ff" points="177.05,-34.63 187.05,-31.13 177.05,-27.63 177.05,-34.63"/>
</a>
</g>
</g>
<!-- Node5 -->
<g id="Node000005" class="node">
<title>Node5</title>
<g id="a_Node000005"><a xlink:href="main_8c.html#a840291bc02cba5474a4cb46a9b9566fe" target="_top" xlink:title="The application entry point.">
<polygon fill="white" stroke="#666666" points="42.25,-42.25 0,-42.25 0,-20 42.25,-20 42.25,-42.25"/>
<text xml:space="preserve" text-anchor="middle" x="21.12" y="-26.85" font-family="Helvetica,sans-Serif" font-size="12.00">main</text>
</a>
</g>
</g>
<!-- Node4&#45;&gt;Node5 -->
<g id="edge4_Node000004_Node000005" class="edge">
<title>Node4&#45;&gt;Node5</title>
<g id="a_edge4_Node000004_Node000005"><a xlink:title=" ">
<path fill="none" stroke="#63b8ff" d="M66.58,-31.12C58.16,-31.12 49.83,-31.12 42.69,-31.12"/>
<polygon fill="#63b8ff" stroke="#63b8ff" points="66.48,-34.63 76.48,-31.13 66.48,-27.63 66.48,-34.63"/>
</a>
</g>
</g>
<!-- Node6&#45;&gt;Node3 -->
<g id="edge6_Node000006_Node000003" class="edge">
<title>Node6&#45;&gt;Node3</title>
<g id="a_edge6_Node000006_Node000003"><a xlink:title=" ">
<path fill="none" stroke="#63b8ff" d="M312.52,-22.42C304.2,-23.41 296.02,-24.39 288.32,-25.3"/>
<polygon fill="#63b8ff" stroke="#63b8ff" points="312.91,-25.9 322.43,-21.25 312.08,-18.95 312.91,-25.9"/>
</a>
</g>
</g>
</g>
</svg>
