<?xml version="1.0" encoding="UTF-8" standalone="no"?>
<!DOCTYPE svg PUBLIC "-//W3C//DTD SVG 1.1//EN"
 "http://www.w3.org/Graphics/SVG/1.1/DTD/svg11.dtd">
<!-- Generated by graphviz version 15.1.0 (20260618.0150)
 -->
<!-- Title: Application/bsp/bsp_adc.c Pages: 1 -->
<svg width="407pt" height="219pt"
 viewBox="0.00 0.00 407.00 219.00" xmlns="http://www.w3.org/2000/svg" xmlns:xlink="http://www.w3.org/1999/xlink">

<svg id="main" version="1.1" xmlns="http://www.w3.org/2000/svg" xmlns:xlink="http://www.w3.org/1999/xlink" xml:space="preserve">

<style type="text/css"><![CDATA[
.node, .edge {opacity: 0.7;}
.node.selected, .edge.selected {opacity: 1;}
.edge:hover path { stroke: red; }
.edge:hover polygon { stroke: red; fill: red; }
]]></style>
<script type="application/ecmascript" xlink:href="svg.min.js"/>
<svg id="graph" class="graph">
<g id="graph0" class="graph" transform="scale(1 1) rotate(0) translate(4 215.25)">
<title>Application/bsp/bsp_adc.c</title>
<!-- Node1 -->
<g id="Node000001" class="node">
<title>Node1</title>
<g id="a_Node000001"><a xlink:title="ADC 采样 BSP（电流/母线电压注入组 + 温度规则组）">
<polygon fill="#999999" stroke="#666666" points="286.25,-211.25 165.25,-211.25 165.25,-174.75 286.25,-174.75 286.25,-211.25"/>
<text xml:space="preserve" text-anchor="start" x="173.25" y="-195.85" font-family="Helvetica,sans-Serif" font-size="12.00">Application/bsp/bsp</text>
<text xml:space="preserve" text-anchor="middle" x="225.75" y="-181.6" font-family="Helvetica,sans-Serif" font-size="12.00">_adc.c</text>
</a>
</g>
</g>
<!-- Node2 -->
<g id="Node000002" class="node">
<title>Node2</title>
<g id="a_Node000002"><a xlink:href="bsp__adc_8h.html" target="_top" xlink:title="ADC 采样 BSP 头文件（电流/母线电压注入组 + 温度规则组）">
<polygon fill="white" stroke="#666666" points="71.5,-138.75 0,-138.75 0,-116.5 71.5,-116.5 71.5,-138.75"/>
<text xml:space="preserve" text-anchor="middle" x="35.75" y="-123.35" font-family="Helvetica,sans-Serif" font-size="12.00">bsp_adc.h</text>
</a>
</g>
</g>
<!-- Node1&#45;&gt;Node2 -->
<g id="edge1_Node000001_Node000002" class="edge">
<title>Node1&#45;&gt;Node2</title>
<g id="a_edge1_Node000001_Node000002"><a xlink:title=" ">
<path fill="none" stroke="#63b8ff" d="M172.57,-174.26C142.72,-164.31 105.99,-152.05 78.1,-142.75"/>
<polygon fill="#63b8ff" stroke="#63b8ff" points="79.53,-139.54 68.94,-139.69 77.31,-146.18 79.53,-139.54"/>
</a>
</g>
</g>
<!-- Node6 -->
<g id="Node000006" class="node">
<title>Node6</title>
<g id="a_Node000006"><a xlink:href="board__config_8h.html" target="_top" xlink:title="板级硬件参数统一配置（GIM4310/4305 电机控制器 V0.0 板）">
<polygon fill="white" stroke="#666666" points="185.5,-138.75 90,-138.75 90,-116.5 185.5,-116.5 185.5,-138.75"/>
<text xml:space="preserve" text-anchor="middle" x="137.75" y="-123.35" font-family="Helvetica,sans-Serif" font-size="12.00">board_config.h</text>
</a>
</g>
</g>
<!-- Node1&#45;&gt;Node6 -->
<g id="edge5_Node000001_Node000006" class="edge">
<title>Node1&#45;&gt;Node6</title>
<g id="a_edge5_Node000001_Node000006"><a xlink:title=" ">
<path fill="none" stroke="#63b8ff" d="M201.24,-174.35C188.88,-165.45 173.95,-154.69 161.67,-145.85"/>
<polygon fill="#63b8ff" stroke="#63b8ff" points="163.88,-143.13 153.72,-140.13 159.79,-148.81 163.88,-143.13"/>
</a>
</g>
</g>
<!-- Node7 -->
<g id="Node000007" class="node">
<title>Node7</title>
<g id="a_Node000007"><a xlink:href="adc_8h.html" target="_top" xlink:title="This file contains all the function prototypes for the adc.c file">
<polygon fill="white" stroke="#666666" points="248.38,-138.75 203.12,-138.75 203.12,-116.5 248.38,-116.5 248.38,-138.75"/>
<text xml:space="preserve" text-anchor="middle" x="225.75" y="-123.35" font-family="Helvetica,sans-Serif" font-size="12.00">adc.h</text>
</a>
</g>
</g>
<!-- Node1&#45;&gt;Node7 -->
<g id="edge6_Node000001_Node000007" class="edge">
<title>Node1&#45;&gt;Node7</title>
<g id="a_edge6_Node000001_Node000007"><a xlink:title=" ">
<path fill="none" stroke="#63b8ff" d="M225.75,-174.35C225.75,-167.03 225.75,-158.47 225.75,-150.74"/>
<polygon fill="#63b8ff" stroke="#63b8ff" points="229.25,-150.76 225.75,-140.76 222.25,-150.76 229.25,-150.76"/>
</a>
</g>
</g>
<!-- Node8 -->
<g id="Node000008" class="node">
<title>Node8</title>
<g id="a_Node000008"><a xlink:href="opamp_8h.html" target="_top" xlink:title="This file contains all the function prototypes for the opamp.c file">
<polygon fill="white" stroke="#666666" points="329,-138.75 266.5,-138.75 266.5,-116.5 329,-116.5 329,-138.75"/>
<text xml:space="preserve" text-anchor="middle" x="297.75" y="-123.35" font-family="Helvetica,sans-Serif" font-size="12.00">opamp.h</text>
</a>
</g>
</g>
<!-- Node1&#45;&gt;Node8 -->
<g id="edge8_Node000001_Node000008" class="edge">
<title>Node1&#45;&gt;Node8</title>
<g id="a_edge8_Node000001_Node000008"><a xlink:title=" ">
<path fill="none" stroke="#63b8ff" d="M245.81,-174.35C255.62,-165.71 267.41,-155.33 277.28,-146.64"/>
<polygon fill="#63b8ff" stroke="#63b8ff" points="279.36,-149.48 284.55,-140.24 274.73,-144.22 279.36,-149.48"/>
</a>
</g>
</g>
<!-- Node9 -->
<g id="Node000009" class="node">
<title>Node9</title>
<g id="a_Node000009"><a xlink:title=" ">
<polygon fill="#e0e0e0" stroke="#999999" points="398.75,-138.75 346.75,-138.75 346.75,-116.5 398.75,-116.5 398.75,-138.75"/>
<text xml:space="preserve" text-anchor="middle" x="372.75" y="-123.35" font-family="Helvetica,sans-Serif" font-size="12.00">math.h</text>
</a>
</g>
</g>
<!-- Node1&#45;&gt;Node9 -->
<g id="edge10_Node000001_Node000009" class="edge">
<title>Node1&#45;&gt;Node9</title>
<g id="a_edge10_Node000001_Node000009"><a xlink:title=" ">
<path fill="none" stroke="#63b8ff" d="M266.7,-174.35C288.98,-164.74 316.26,-152.98 337.58,-143.79"/>
<polygon fill="#63b8ff" stroke="#63b8ff" points="338.93,-147.02 346.73,-139.84 336.16,-140.59 338.93,-147.02"/>
</a>
</g>
</g>
<!-- Node3 -->
<g id="Node000003" class="node">
<title>Node3</title>
<g id="a_Node000003"><a xlink:href="main_8h.html" target="_top" xlink:title=": Header for main.c file.">
<polygon fill="white" stroke="#666666" points="251.75,-80.5 199.75,-80.5 199.75,-58.25 251.75,-58.25 251.75,-80.5"/>
<text xml:space="preserve" text-anchor="middle" x="225.75" y="-65.1" font-family="Helvetica,sans-Serif" font-size="12.00">main.h</text>
</a>
</g>
</g>
<!-- Node2&#45;&gt;Node3 -->
<g id="edge2_Node000002_Node000003" class="edge">
<title>Node2&#45;&gt;Node3</title>
<g id="a_edge2_Node000002_Node000003"><a xlink:title=" ">
<path fill="none" stroke="#63b8ff" d="M71.49,-116.04C104.9,-106.15 154.61,-91.44 188.5,-81.4"/>
<polygon fill="#63b8ff" stroke="#63b8ff" points="189.3,-84.82 197.9,-78.62 187.31,-78.1 189.3,-84.82"/>
</a>
</g>
</g>
<!-- Node5 -->
<g id="Node000005" class="node">
<title>Node5</title>
<g id="a_Node000005"><a xlink:title=" ">
<polygon fill="#e0e0e0" stroke="#999999" points="62.88,-80.5 8.62,-80.5 8.62,-58.25 62.88,-58.25 62.88,-80.5"/>
<text xml:space="preserve" text-anchor="middle" x="35.75" y="-65.1" font-family="Helvetica,sans-Serif" font-size="12.00">stdint.h</text>
</a>
</g>
</g>
<!-- Node2&#45;&gt;Node5 -->
<g id="edge4_Node000002_Node000005" class="edge">
<title>Node2&#45;&gt;Node5</title>
<g id="a_edge4_Node000002_Node000005"><a xlink:title=" ">
<path fill="none" stroke="#63b8ff" d="M35.75,-116.04C35.75,-109.37 35.75,-100.49 35.75,-92.34"/>
<polygon fill="#63b8ff" stroke="#63b8ff" points="39.25,-92.42 35.75,-82.42 32.25,-92.42 39.25,-92.42"/>
</a>
</g>
</g>
<!-- Node4 -->
<g id="Node000004" class="node">
<title>Node4</title>
<g id="a_Node000004"><a xlink:title=" ">
<polygon fill="#e0e0e0" stroke="#999999" points="279.12,-22.25 172.38,-22.25 172.38,0 279.12,0 279.12,-22.25"/>
<text xml:space="preserve" text-anchor="middle" x="225.75" y="-6.85" font-family="Helvetica,sans-Serif" font-size="12.00">stm32g4xx_hal.h</text>
</a>
</g>
</g>
<!-- Node3&#45;&gt;Node4 -->
<g id="edge3_Node000003_Node000004" class="edge">
<title>Node3&#45;&gt;Node4</title>
<g id="a_edge3_Node000003_Node000004"><a xlink:title=" ">
<path fill="none" stroke="#63b8ff" d="M225.75,-57.79C225.75,-51.12 225.75,-42.24 225.75,-34.09"/>
<polygon fill="#63b8ff" stroke="#63b8ff" points="229.25,-34.17 225.75,-24.17 222.25,-34.17 229.25,-34.17"/>
</a>
</g>
</g>
<!-- Node7&#45;&gt;Node3 -->
<g id="edge7_Node000007_Node000003" class="edge">
<title>Node7&#45;&gt;Node3</title>
<g id="a_edge7_Node000007_Node000003"><a xlink:title=" ">
<path fill="none" stroke="#63b8ff" d="M225.75,-116.04C225.75,-109.37 225.75,-100.49 225.75,-92.34"/>
<polygon fill="#63b8ff" stroke="#63b8ff" points="229.25,-92.42 225.75,-82.42 222.25,-92.42 229.25,-92.42"/>
</a>
</g>
</g>
<!-- Node8&#45;&gt;Node3 -->
<g id="edge9_Node000008_Node000003" class="edge">
<title>Node8&#45;&gt;Node3</title>
<g id="a_edge9_Node000008_Node000003"><a xlink:title=" ">
<path fill="none" stroke="#63b8ff" d="M284.21,-116.04C274.05,-108.11 259.92,-97.07 248.1,-87.84"/>
<polygon fill="#63b8ff" stroke="#63b8ff" points="250.46,-85.24 240.42,-81.84 246.15,-90.75 250.46,-85.24"/>
</a>
</g>
</g>
</g>
</svg>
</svg>

<style type='text/css'>
<![CDATA[
[data-mouse-over-selected='false'] { opacity: 0.7; }
[data-mouse-over-selected='true']  { opacity: 1.0; }
]]>
</style>
<script type="application/ecmascript"><![CDATA[
document.addEventListener('DOMContentLoaded', (event) => {
  highlightEdges();
  highlightAdjacentNodes();
});
]]></script>
</svg>
