<?xml version="1.0" encoding="UTF-8" standalone="no"?>
<!DOCTYPE svg PUBLIC "-//W3C//DTD SVG 1.1//EN"
 "http://www.w3.org/Graphics/SVG/1.1/DTD/svg11.dtd">
<!-- Generated by graphviz version 15.1.0 (20260618.0150)
 -->
<!-- Title: BSP_CAN_SetTermination Pages: 1 -->
<svg width="1207pt" height="108pt"
 viewBox="0.00 0.00 1207.00 108.00" xmlns="http://www.w3.org/2000/svg" xmlns:xlink="http://www.w3.org/1999/xlink">
<g id="graph0" class="graph" transform="scale(1 1) rotate(0) translate(4 104.25)">
<title>BSP_CAN_SetTermination</title>
<!-- Node1 -->
<g id="Node000001" class="node">
<title>Node1</title>
<g id="a_Node000001"><a xlink:title="切换 120 欧终端电阻（TS5A3159 模拟开关）">
<polygon fill="#999999" stroke="#666666" points="1199,-81.25 1038.25,-81.25 1038.25,-59 1199,-59 1199,-81.25"/>
<text xml:space="preserve" text-anchor="middle" x="1118.62" y="-65.85" font-family="Helvetica,sans-Serif" font-size="12.00">BSP_CAN_SetTermination</text>
</a>
</g>
</g>
<!-- Node2 -->
<g id="Node000002" class="node">
<title>Node2</title>
<g id="a_Node000002"><a xlink:href="app__can__protocol_8c.html#af389bd7cff6ae0b5df76c2feb46f25f6" target="_top" xlink:title="初始化 CAN 应用协议（按持久化参数配置 BSP）">
<polygon fill="white" stroke="#666666" points="431.5,-81.25 335.25,-81.25 335.25,-59 431.5,-59 431.5,-81.25"/>
<text xml:space="preserve" text-anchor="middle" x="383.38" y="-65.85" font-family="Helvetica,sans-Serif" font-size="12.00">APP_CAN_Init</text>
</a>
</g>
</g>
<!-- Node1&#45;&gt;Node2 -->
<g id="edge1_Node000001_Node000002" class="edge">
<title>Node1&#45;&gt;Node2</title>
<g id="a_edge1_Node000001_Node000002"><a xlink:title=" ">
<path fill="none" stroke="#63b8ff" d="M1026.64,-70.99C1018.39,-71.04 1010.17,-71.09 1002.25,-71.12 768.59,-72.14 710.16,-72.39 476.5,-71.12 461.94,-71.05 446.1,-70.9 431.71,-70.74"/>
<polygon fill="#63b8ff" stroke="#63b8ff" points="1026.38,-74.49 1036.36,-70.92 1026.33,-67.49 1026.38,-74.49"/>
</a>
</g>
</g>
<!-- Node7 -->
<g id="Node000007" class="node">
<title>Node7</title>
<g id="a_Node000007"><a xlink:href="app__can__protocol_8c.html#a1c22c988dc67c917a70b53b3386fcfca" target="_top" xlink:title="按索引写参数（只读项与非法值拒绝，CAN 配置通道与 shell 共用）">
<polygon fill="white" stroke="#666666" points="1002.25,-62.25 825,-62.25 825,-40 1002.25,-40 1002.25,-62.25"/>
<text xml:space="preserve" text-anchor="middle" x="913.62" y="-46.85" font-family="Helvetica,sans-Serif" font-size="12.00">APP_CAN_SetParamByIndex</text>
</a>
</g>
</g>
<!-- Node1&#45;&gt;Node7 -->
<g id="edge7_Node000001_Node000007" class="edge">
<title>Node1&#45;&gt;Node7</title>
<g id="a_edge7_Node000001_Node000007"><a xlink:title=" ">
<path fill="none" stroke="#63b8ff" d="M1026.67,-61.61C1018.61,-60.86 1010.46,-60.09 1002.43,-59.34"/>
<polygon fill="#63b8ff" stroke="#63b8ff" points="1026.19,-65.08 1036.47,-62.53 1026.84,-58.11 1026.19,-65.08"/>
</a>
</g>
</g>
<!-- Node3 -->
<g id="Node000003" class="node">
<title>Node3</title>
<g id="a_Node000003"><a xlink:href="app__can__protocol_8c.html#a6c2f3bebbd2597376fd87038ef059996" target="_top" xlink:title="后台轮询：处理通信参数变更后的重新初始化">
<polygon fill="white" stroke="#666666" points="290.25,-61.25 188.75,-61.25 188.75,-39 290.25,-39 290.25,-61.25"/>
<text xml:space="preserve" text-anchor="middle" x="239.5" y="-45.85" font-family="Helvetica,sans-Serif" font-size="12.00">APP_CAN_Poll</text>
</a>
</g>
</g>
<!-- Node2&#45;&gt;Node3 -->
<g id="edge2_Node000002_Node000003" class="edge">
<title>Node2&#45;&gt;Node3</title>
<g id="a_edge2_Node000002_Node000003"><a xlink:title=" ">
<path fill="none" stroke="#63b8ff" d="M323.79,-61.87C312.72,-60.31 301.23,-58.69 290.45,-57.17"/>
<polygon fill="#63b8ff" stroke="#63b8ff" points="323.24,-65.32 333.63,-63.25 324.22,-58.39 323.24,-65.32"/>
</a>
</g>
</g>
<!-- Node6 -->
<g id="Node000006" class="node">
<title>Node6</title>
<g id="a_Node000006"><a xlink:href="app__main_8c.html#a4759d3fdff6b33e2c0a0ae151452112f" target="_top" xlink:title="应用初始化（main 的 USER CODE BEGIN 2 调用）">
<polygon fill="white" stroke="#666666" points="147.12,-100.25 83.88,-100.25 83.88,-78 147.12,-78 147.12,-100.25"/>
<text xml:space="preserve" text-anchor="middle" x="115.5" y="-84.85" font-family="Helvetica,sans-Serif" font-size="12.00">APP_Init</text>
</a>
</g>
</g>
<!-- Node2&#45;&gt;Node6 -->
<g id="edge5_Node000002_Node000006" class="edge">
<title>Node2&#45;&gt;Node6</title>
<g id="a_edge5_Node000002_Node000006"><a xlink:title=" ">
<path fill="none" stroke="#63b8ff" d="M323.63,-74.32C269.24,-78.21 190.47,-83.84 147.44,-86.91"/>
<polygon fill="#63b8ff" stroke="#63b8ff" points="323.61,-77.83 333.33,-73.63 323.11,-70.85 323.61,-77.83"/>
</a>
</g>
</g>
<!-- Node4 -->
<g id="Node000004" class="node">
<title>Node4</title>
<g id="a_Node000004"><a xlink:href="app__main_8c.html#a6709d26bb67f905916b7c7f048b8396c" target="_top" xlink:title="后台超级循环体（main 的 while(1) 内调用）">
<polygon fill="white" stroke="#666666" points="152.75,-60.25 78.25,-60.25 78.25,-38 152.75,-38 152.75,-60.25"/>
<text xml:space="preserve" text-anchor="middle" x="115.5" y="-44.85" font-family="Helvetica,sans-Serif" font-size="12.00">APP_Loop</text>
</a>
</g>
</g>
<!-- Node3&#45;&gt;Node4 -->
<g id="edge3_Node000003_Node000004" class="edge">
<title>Node3&#45;&gt;Node4</title>
<g id="a_edge3_Node000003_Node000004"><a xlink:title=" ">
<path fill="none" stroke="#63b8ff" d="M177.03,-49.62C168.86,-49.55 160.7,-49.49 153.14,-49.43"/>
<polygon fill="#63b8ff" stroke="#63b8ff" points="176.98,-53.12 187.01,-49.7 177.04,-46.12 176.98,-53.12"/>
</a>
</g>
</g>
<!-- Node5 -->
<g id="Node000005" class="node">
<title>Node5</title>
<g id="a_Node000005"><a xlink:href="main_8c.html#a840291bc02cba5474a4cb46a9b9566fe" target="_top" xlink:title="The application entry point.">
<polygon fill="white" stroke="#666666" points="42.25,-80.25 0,-80.25 0,-58 42.25,-58 42.25,-80.25"/>
<text xml:space="preserve" text-anchor="middle" x="21.12" y="-64.85" font-family="Helvetica,sans-Serif" font-size="12.00">main</text>
</a>
</g>
</g>
<!-- Node4&#45;&gt;Node5 -->
<g id="edge4_Node000004_Node000005" class="edge">
<title>Node4&#45;&gt;Node5</title>
<g id="a_edge4_Node000004_Node000005"><a xlink:title=" ">
<path fill="none" stroke="#63b8ff" d="M66.86,-59.44C58.35,-61.28 49.91,-63.11 42.69,-64.67"/>
<polygon fill="#63b8ff" stroke="#63b8ff" points="67.48,-62.89 76.51,-57.35 66,-56.05 67.48,-62.89"/>
</a>
</g>
</g>
<!-- Node6&#45;&gt;Node5 -->
<g id="edge6_Node000006_Node000005" class="edge">
<title>Node6&#45;&gt;Node5</title>
<g id="a_edge6_Node000006_Node000005"><a xlink:title=" ">
<path fill="none" stroke="#63b8ff" d="M72.48,-80.03C62.15,-77.79 51.54,-75.49 42.74,-73.59"/>
<polygon fill="#63b8ff" stroke="#63b8ff" points="71.49,-83.39 82,-82.09 72.97,-76.55 71.49,-83.39"/>
</a>
</g>
</g>
<!-- Node8 -->
<g id="Node000008" class="node">
<title>Node8</title>
<g id="a_Node000008"><a xlink:href="app__can__protocol_8c.html#a962b5bb63f0dca9cd0efbd25455d6002" target="_top" xlink:title="配置通道处理">
<polygon fill="white" stroke="#666666" points="789,-62.25 650.75,-62.25 650.75,-40 789,-40 789,-62.25"/>
<text xml:space="preserve" text-anchor="middle" x="719.88" y="-46.85" font-family="Helvetica,sans-Serif" font-size="12.00">APP_CAN_HandleCfg</text>
</a>
</g>
</g>
<!-- Node7&#45;&gt;Node8 -->
<g id="edge8_Node000007_Node000008" class="edge">
<title>Node7&#45;&gt;Node8</title>
<g id="a_edge8_Node000007_Node000008"><a xlink:title=" ">
<path fill="none" stroke="#63b8ff" d="M813.23,-51.12C805.18,-51.12 797.16,-51.12 789.41,-51.12"/>
<polygon fill="#63b8ff" stroke="#63b8ff" points="813.09,-54.63 823.09,-51.13 813.09,-47.63 813.09,-54.63"/>
</a>
</g>
</g>
<!-- Node10 -->
<g id="Node000010" class="node">
<title>Node10</title>
<g id="a_Node000010"><a xlink:href="app__shell_8c.html#a02ce76ff72a6b62807e1f3c3abdc850f" target="_top" xlink:title="get/set 命令处理">
<polygon fill="white" stroke="#666666" points="784.88,-22.25 654.88,-22.25 654.88,0 784.88,0 784.88,-22.25"/>
<text xml:space="preserve" text-anchor="middle" x="719.88" y="-6.85" font-family="Helvetica,sans-Serif" font-size="12.00">APP_SHELL_GetSet</text>
</a>
</g>
</g>
<!-- Node7&#45;&gt;Node10 -->
<g id="edge11_Node000007_Node000010" class="edge">
<title>Node7&#45;&gt;Node10</title>
<g id="a_edge11_Node000007_Node000010"><a xlink:title=" ">
<path fill="none" stroke="#63b8ff" d="M845.67,-37.16C823.04,-32.44 798.04,-27.22 776.4,-22.71"/>
<polygon fill="#63b8ff" stroke="#63b8ff" points="844.92,-40.58 855.42,-39.19 846.35,-33.72 844.92,-40.58"/>
</a>
</g>
</g>
<!-- Node9 -->
<g id="Node000009" class="node">
<title>Node9</title>
<g id="a_Node000009"><a xlink:href="app__can__protocol_8c.html#a0c342291cd7188f387f12f9b2157c4e9" target="_top" xlink:title="CAN 接收分发（ISR 上下文）">
<polygon fill="white" stroke="#666666" points="614.75,-62.25 476.5,-62.25 476.5,-40 614.75,-40 614.75,-62.25"/>
<text xml:space="preserve" text-anchor="middle" x="545.62" y="-46.85" font-family="Helvetica,sans-Serif" font-size="12.00">APP_CAN_RxHandler</text>
</a>
</g>
</g>
<!-- Node8&#45;&gt;Node9 -->
<g id="edge9_Node000008_Node000009" class="edge">
<title>Node8&#45;&gt;Node9</title>
<g id="a_edge9_Node000008_Node000009"><a xlink:title=" ">
<path fill="none" stroke="#63b8ff" d="M638.83,-51.12C630.95,-51.12 623,-51.12 615.24,-51.12"/>
<polygon fill="#63b8ff" stroke="#63b8ff" points="638.79,-54.63 648.79,-51.13 638.79,-47.63 638.79,-54.63"/>
</a>
</g>
</g>
<!-- Node9&#45;&gt;Node2 -->
<g id="edge10_Node000009_Node000002" class="edge">
<title>Node9&#45;&gt;Node2</title>
<g id="a_edge10_Node000009_Node000002"><a xlink:title=" ">
<path fill="none" stroke="#63b8ff" d="M464.9,-60.58C453.56,-61.92 442.21,-63.27 431.76,-64.51"/>
<polygon fill="#63b8ff" stroke="#63b8ff" points="465.18,-64.07 474.7,-59.42 464.35,-57.12 465.18,-64.07"/>
</a>
</g>
</g>
<!-- Node11 -->
<g id="Node000011" class="node">
<title>Node11</title>
<g id="a_Node000011"><a xlink:href="app__shell_8c.html#ad6303a346f63752b165b847c5dcefbb7" target="_top" xlink:title="解析并执行一行命令">
<polygon fill="white" stroke="#666666" points="614,-22.25 477.25,-22.25 477.25,0 614,0 614,-22.25"/>
<text xml:space="preserve" text-anchor="middle" x="545.62" y="-6.85" font-family="Helvetica,sans-Serif" font-size="12.00">APP_SHELL_Execute</text>
</a>
</g>
</g>
<!-- Node10&#45;&gt;Node11 -->
<g id="edge12_Node000010_Node000011" class="edge">
<title>Node10&#45;&gt;Node11</title>
<g id="a_edge12_Node000010_Node000011"><a xlink:title=" ">
<path fill="none" stroke="#63b8ff" d="M643.45,-11.12C633.74,-11.12 623.85,-11.12 614.28,-11.12"/>
<polygon fill="#63b8ff" stroke="#63b8ff" points="643.22,-14.63 653.22,-11.13 643.22,-7.63 643.22,-14.63"/>
</a>
</g>
</g>
<!-- Node12 -->
<g id="Node000012" class="node">
<title>Node12</title>
<g id="a_Node000012"><a xlink:href="app__shell_8c.html#ab93a15148be82ad3c0999b099de7c29e" target="_top" xlink:title="shell 轮询（后台调用）">
<polygon fill="white" stroke="#666666" points="440.5,-22.25 326.25,-22.25 326.25,0 440.5,0 440.5,-22.25"/>
<text xml:space="preserve" text-anchor="middle" x="383.38" y="-6.85" font-family="Helvetica,sans-Serif" font-size="12.00">APP_SHELL_Poll</text>
</a>
</g>
</g>
<!-- Node11&#45;&gt;Node12 -->
<g id="edge13_Node000011_Node000012" class="edge">
<title>Node11&#45;&gt;Node12</title>
<g id="a_edge13_Node000011_Node000012"><a xlink:title=" ">
<path fill="none" stroke="#63b8ff" d="M465.66,-11.12C457.22,-11.12 448.76,-11.12 440.65,-11.12"/>
<polygon fill="#63b8ff" stroke="#63b8ff" points="465.62,-14.63 475.62,-11.13 465.62,-7.63 465.62,-14.63"/>
</a>
</g>
</g>
<!-- Node12&#45;&gt;Node4 -->
<g id="edge14_Node000012_Node000004" class="edge">
<title>Node12&#45;&gt;Node4</title>
<g id="a_edge14_Node000012_Node000004"><a xlink:title=" ">
<path fill="none" stroke="#63b8ff" d="M314.86,-15.1C277.49,-17.96 230.33,-22.67 188.75,-30.12 177.01,-32.23 164.37,-35.28 153,-38.32"/>
<polygon fill="#63b8ff" stroke="#63b8ff" points="314.9,-18.61 324.62,-14.38 314.39,-11.62 314.9,-18.61"/>
</a>
</g>
</g>
</g>
</svg>
