<?xml version="1.0" encoding="UTF-8" standalone="no"?>
<!DOCTYPE svg PUBLIC "-//W3C//DTD SVG 1.1//EN"
 "http://www.w3.org/Graphics/SVG/1.1/DTD/svg11.dtd">
<!-- Generated by graphviz version 15.1.0 (20260618.0150)
 -->
<!-- Title: BSP_PWM_SetDutyZero Pages: 1 -->
<!--zoomable 188 -->

<svg id="main" version="1.1" xmlns="http://www.w3.org/2000/svg" xmlns:xlink="http://www.w3.org/1999/xlink" xml:space="preserve" onload="init(evt)">

<style type="text/css"><![CDATA[
.node, .edge {opacity: 0.7;}
.node.selected, .edge.selected {opacity: 1;}
.edge:hover path { stroke: red; }
.edge:hover polygon { stroke: red; fill: red; }
]]></style>

<defs>
  <circle id="rim" cx="0" cy="0" r="7"/>
  <circle id="rim2" cx="0" cy="0" r="3.5"/>
  <g id="zoomPlus">
    <use xlink:href="#rim" fill="#404040"><set attributeName="fill" to="#808080" begin="zoomplus.mouseover" end="zoomplus.mouseout"/></use>
    <path d="M-4,0h8M0,-4v8" fill="none" stroke="white" stroke-width="1.5" pointer-events="none"/>
  </g>
  <g id="zoomMin">
    <use xlink:href="#rim" fill="#404040"><set attributeName="fill" to="#808080" begin="zoomminus.mouseover" end="zoomminus.mouseout"/></use>
    <path d="M-4,0h8" fill="none" stroke="white" stroke-width="1.5" pointer-events="none"/>
  </g>
  <g id="arrowUp" transform="translate(30 24)">
    <use xlink:href="#rim"/>
    <path pointer-events="none" fill="none" stroke="white" stroke-width="1.5" d="M0,-3.0v7 M-2.5,-0.5L0,-3.0L2.5,-0.5"/>
  </g>
  <g id="arrowRight" transform="rotate(90) translate(36 -43)">
    <use xlink:href="#rim"/>
    <path pointer-events="none" fill="none" stroke="white" stroke-width="1.5" d="M0,-3.0v7 M-2.5,-0.5L0,-3.0L2.5,-0.5"/>
  </g>
  <g id="arrowDown" transform="rotate(180) translate(-30 -48)">
    <use xlink:href="#rim"/>
    <path pointer-events="none" fill="none" stroke="white" stroke-width="1.5" d="M0,-3.0v7 M-2.5,-0.5L0,-3.0L2.5,-0.5"/>
  </g>
  <g id="arrowLeft" transform="rotate(270) translate(-36 17)">
    <use xlink:href="#rim"/>
    <path pointer-events="none" fill="none" stroke="white" stroke-width="1.5" d="M0,-3.0v7 M-2.5,-0.5L0,-3.0L2.5,-0.5"/>
  </g>
  <g id="resetDef">
    <use xlink:href="#rim2" fill="#404040"><set attributeName="fill" to="#808080" begin="reset.mouseover" end="reset.mouseout"/></use>
  </g>
</defs>
<script type="application/ecmascript">
var viewWidth = 1285;
var viewHeight = 188;
var sectionId = 'dynsection-8';
</script>
<script type="application/ecmascript" xlink:href="svg.min.js"/>
<svg id="graph" class="graph">
<g id="viewport">
<title>BSP_PWM_SetDutyZero</title>
<!-- Node1 -->
<g id="Node000001" class="node">
<title>Node1</title>
<g id="a_Node000001"><a xlink:title="三相占空比清零（低侧全导通：自举预充/动态刹车态）">
<polygon fill="#999999" stroke="#666666" points="1276.5,-61.25 1125.5,-61.25 1125.5,-39 1276.5,-39 1276.5,-61.25"/>
<text xml:space="preserve" text-anchor="middle" x="1201" y="-45.85" font-family="Helvetica,sans-Serif" font-size="12.00">BSP_PWM_SetDutyZero</text>
</a>
</g>
</g>
<!-- Node2 -->
<g id="Node000002" class="node">
<title>Node2</title>
<g id="a_Node000002"><a xlink:href="bsp__pwm_8c.html#a4bdefcd18b0b080f1e8db825e33c80e8" target="_top" xlink:title="使能功率输出（解除封波）">
<polygon fill="white" stroke="#666666" points="1089.5,-120.25 967.75,-120.25 967.75,-98 1089.5,-98 1089.5,-120.25"/>
<text xml:space="preserve" text-anchor="middle" x="1028.62" y="-104.85" font-family="Helvetica,sans-Serif" font-size="12.00">BSP_PWM_Enable</text>
</a>
</g>
</g>
<!-- Node1&#45;&gt;Node2 -->
<g id="edge1_Node000001_Node000002" class="edge">
<title>Node1&#45;&gt;Node2</title>
<g id="a_edge1_Node000001_Node000002"><a xlink:title=" ">
<path fill="none" stroke="#63b8ff" d="M1156.08,-65.33C1127.09,-75.37 1089.68,-88.33 1063.09,-97.54"/>
<polygon fill="#63b8ff" stroke="#63b8ff" points="1157.01,-68.72 1165.32,-62.14 1154.72,-62.1 1157.01,-68.72"/>
</a>
</g>
</g>
<!-- Node15 -->
<g id="Node000015" class="node">
<title>Node15</title>
<g id="a_Node000015"><a xlink:href="bsp__pwm_8c.html#ad3148d9d4af95cdc11e217528051c84c" target="_top" xlink:title="初始化三相 PWM（重配 TIM1，输出保持封波）">
<polygon fill="white" stroke="#666666" points="1078.25,-61.25 979,-61.25 979,-39 1078.25,-39 1078.25,-61.25"/>
<text xml:space="preserve" text-anchor="middle" x="1028.62" y="-45.85" font-family="Helvetica,sans-Serif" font-size="12.00">BSP_PWM_Init</text>
</a>
</g>
</g>
<!-- Node1&#45;&gt;Node15 -->
<g id="edge19_Node000001_Node000015" class="edge">
<title>Node1&#45;&gt;Node15</title>
<g id="a_edge19_Node000001_Node000015"><a xlink:title=" ">
<path fill="none" stroke="#63b8ff" d="M1114.03,-50.12C1101.76,-50.12 1089.52,-50.12 1078.31,-50.12"/>
<polygon fill="#63b8ff" stroke="#63b8ff" points="1113.76,-53.63 1123.76,-50.13 1113.76,-46.63 1113.76,-53.63"/>
</a>
</g>
</g>
<!-- Node16 -->
<g id="Node000016" class="node">
<title>Node16</title>
<g id="a_Node000016"><a xlink:href="motor__ctrl_8c.html#a5c982a7374da291bb0e5d06d26893def" target="_top" xlink:title="FOC 主循环（ADC 注入完成 ISR，20kHz）">
<polygon fill="white" stroke="#666666" points="411.62,-22.25 337.12,-22.25 337.12,0 411.62,0 411.62,-22.25"/>
<text xml:space="preserve" text-anchor="middle" x="374.38" y="-6.85" font-family="Helvetica,sans-Serif" font-size="12.00">MC_FocIsr</text>
</a>
</g>
</g>
<!-- Node1&#45;&gt;Node16 -->
<g id="edge21_Node000001_Node000016" class="edge">
<title>Node1&#45;&gt;Node16</title>
<g id="a_edge21_Node000001_Node000016"><a xlink:title=" ">
<path fill="none" stroke="#63b8ff" d="M1130.45,-36.53C1116.9,-34.16 1102.79,-31.9 1089.5,-30.12 992.61,-17.18 968.13,-11.13 870.38,-11.12 870.38,-11.12 870.38,-11.12 700.88,-11.12 596.05,-11.13 472.23,-11.13 411.99,-11.13"/>
<polygon fill="#63b8ff" stroke="#63b8ff" points="1129.72,-39.95 1140.18,-38.26 1130.94,-33.06 1129.72,-39.95"/>
</a>
</g>
</g>
<!-- Node3 -->
<g id="Node000003" class="node">
<title>Node3</title>
<g id="a_Node000003"><a xlink:href="motor__ctrl_8c.html#a8d1ee75d00d8c0f2d2d78f89d002efec" target="_top" xlink:title="使能功率输出">
<polygon fill="white" stroke="#666666" points="909.25,-120.25 829.5,-120.25 829.5,-98 909.25,-98 909.25,-120.25"/>
<text xml:space="preserve" text-anchor="middle" x="869.38" y="-104.85" font-family="Helvetica,sans-Serif" font-size="12.00">MC_Enable</text>
</a>
</g>
</g>
<!-- Node2&#45;&gt;Node3 -->
<g id="edge2_Node000002_Node000003" class="edge">
<title>Node2&#45;&gt;Node3</title>
<g id="a_edge2_Node000002_Node000003"><a xlink:title=" ">
<path fill="none" stroke="#63b8ff" d="M955.77,-109.12C939.82,-109.12 923.49,-109.12 909.45,-109.12"/>
<polygon fill="#63b8ff" stroke="#63b8ff" points="955.76,-112.63 965.76,-109.13 955.76,-105.63 955.76,-112.63"/>
</a>
</g>
</g>
<!-- Node14 -->
<g id="Node000014" class="node">
<title>Node14</title>
<g id="a_Node000014"><a xlink:href="motor__ctrl_8c.html#afb3414a066c16e68add2218d01f59942" target="_top" xlink:title="启动预定位校准（封波状态下）">
<polygon fill="white" stroke="#666666" points="931.75,-160.25 807,-160.25 807,-138 931.75,-138 931.75,-160.25"/>
<text xml:space="preserve" text-anchor="middle" x="869.38" y="-144.85" font-family="Helvetica,sans-Serif" font-size="12.00">MC_StartCalibration</text>
</a>
</g>
</g>
<!-- Node2&#45;&gt;Node14 -->
<g id="edge16_Node000002_Node000014" class="edge">
<title>Node2&#45;&gt;Node14</title>
<g id="a_edge16_Node000002_Node000014"><a xlink:title=" ">
<path fill="none" stroke="#63b8ff" d="M971.13,-123.49C953.04,-128.1 933.25,-133.13 916.03,-137.51"/>
<polygon fill="#63b8ff" stroke="#63b8ff" points="971.85,-126.93 980.67,-121.07 970.12,-120.14 971.85,-126.93"/>
</a>
</g>
</g>
<!-- Node4 -->
<g id="Node000004" class="node">
<title>Node4</title>
<g id="a_Node000004"><a xlink:href="app__can__protocol_8c.html#a962b5bb63f0dca9cd0efbd25455d6002" target="_top" xlink:title="配置通道处理">
<polygon fill="white" stroke="#666666" points="771,-140.25 632.75,-140.25 632.75,-118 771,-118 771,-140.25"/>
<text xml:space="preserve" text-anchor="middle" x="701.88" y="-124.85" font-family="Helvetica,sans-Serif" font-size="12.00">APP_CAN_HandleCfg</text>
</a>
</g>
</g>
<!-- Node3&#45;&gt;Node4 -->
<g id="edge3_Node000003_Node000004" class="edge">
<title>Node3&#45;&gt;Node4</title>
<g id="a_edge3_Node000003_Node000004"><a xlink:title=" ">
<path fill="none" stroke="#63b8ff" d="M817.78,-115.24C803.11,-117.01 786.84,-118.98 771.27,-120.86"/>
<polygon fill="#63b8ff" stroke="#63b8ff" points="818.14,-118.72 827.65,-114.05 817.3,-111.77 818.14,-118.72"/>
</a>
</g>
</g>
<!-- Node11 -->
<g id="Node000011" class="node">
<title>Node11</title>
<g id="a_Node000011"><a xlink:href="app__can__protocol_8c.html#a287ab0ebbb13b297320ec4082c51365b" target="_top" xlink:title="MIT 运控通道处理">
<polygon fill="white" stroke="#666666" points="769.5,-100.25 634.25,-100.25 634.25,-78 769.5,-78 769.5,-100.25"/>
<text xml:space="preserve" text-anchor="middle" x="701.88" y="-84.85" font-family="Helvetica,sans-Serif" font-size="12.00">APP_CAN_HandleMit</text>
</a>
</g>
</g>
<!-- Node3&#45;&gt;Node11 -->
<g id="edge11_Node000003_Node000011" class="edge">
<title>Node3&#45;&gt;Node11</title>
<g id="a_edge11_Node000003_Node000011"><a xlink:title=" ">
<path fill="none" stroke="#63b8ff" d="M817.96,-103.03C802.83,-101.2 785.99,-99.17 769.97,-97.23"/>
<polygon fill="#63b8ff" stroke="#63b8ff" points="817.3,-106.48 827.65,-104.2 818.14,-99.53 817.3,-106.48"/>
</a>
</g>
</g>
<!-- Node12 -->
<g id="Node000012" class="node">
<title>Node12</title>
<g id="a_Node000012"><a xlink:href="app__shell_8c.html#ad6303a346f63752b165b847c5dcefbb7" target="_top" xlink:title="解析并执行一行命令">
<polygon fill="white" stroke="#666666" points="770.25,-180.25 633.5,-180.25 633.5,-158 770.25,-158 770.25,-180.25"/>
<text xml:space="preserve" text-anchor="middle" x="701.88" y="-164.85" font-family="Helvetica,sans-Serif" font-size="12.00">APP_SHELL_Execute</text>
</a>
</g>
</g>
<!-- Node3&#45;&gt;Node12 -->
<g id="edge13_Node000003_Node000012" class="edge">
<title>Node3&#45;&gt;Node12</title>
<g id="a_edge13_Node000003_Node000012"><a xlink:title=" ">
<path fill="none" stroke="#63b8ff" d="M818.71,-124.4C814.71,-125.9 810.77,-127.48 807,-129.12 790.22,-136.44 787.88,-142.06 771,-149.12 763.61,-152.22 755.58,-155.03 747.71,-157.5"/>
<polygon fill="#63b8ff" stroke="#63b8ff" points="819.66,-127.78 827.89,-121.11 817.3,-121.18 819.66,-127.78"/>
</a>
</g>
</g>
<!-- Node5 -->
<g id="Node000005" class="node">
<title>Node5</title>
<g id="a_Node000005"><a xlink:href="app__can__protocol_8c.html#a0c342291cd7188f387f12f9b2157c4e9" target="_top" xlink:title="CAN 接收分发（ISR 上下文）">
<polygon fill="white" stroke="#666666" points="596.75,-100.25 458.5,-100.25 458.5,-78 596.75,-78 596.75,-100.25"/>
<text xml:space="preserve" text-anchor="middle" x="527.62" y="-84.85" font-family="Helvetica,sans-Serif" font-size="12.00">APP_CAN_RxHandler</text>
</a>
</g>
</g>
<!-- Node4&#45;&gt;Node5 -->
<g id="edge4_Node000004_Node000005" class="edge">
<title>Node4&#45;&gt;Node5</title>
<g id="a_edge4_Node000004_Node000005"><a xlink:title=" ">
<path fill="none" stroke="#63b8ff" d="M640.12,-115.02C620,-110.34 597.85,-105.2 578.63,-100.74"/>
<polygon fill="#63b8ff" stroke="#63b8ff" points="639.05,-118.36 649.58,-117.21 640.63,-111.54 639.05,-118.36"/>
</a>
</g>
</g>
<!-- Node6 -->
<g id="Node000006" class="node">
<title>Node6</title>
<g id="a_Node000006"><a xlink:href="app__can__protocol_8c.html#af389bd7cff6ae0b5df76c2feb46f25f6" target="_top" xlink:title="初始化 CAN 应用协议（按持久化参数配置 BSP）">
<polygon fill="white" stroke="#666666" points="422.5,-100.25 326.25,-100.25 326.25,-78 422.5,-78 422.5,-100.25"/>
<text xml:space="preserve" text-anchor="middle" x="374.38" y="-84.85" font-family="Helvetica,sans-Serif" font-size="12.00">APP_CAN_Init</text>
</a>
</g>
</g>
<!-- Node5&#45;&gt;Node6 -->
<g id="edge5_Node000005_Node000006" class="edge">
<title>Node5&#45;&gt;Node6</title>
<g id="a_edge5_Node000005_Node000006"><a xlink:title=" ">
<path fill="none" stroke="#63b8ff" d="M446.63,-89.12C438.54,-89.12 430.51,-89.12 422.92,-89.12"/>
<polygon fill="#63b8ff" stroke="#63b8ff" points="446.57,-92.63 456.57,-89.13 446.57,-85.63 446.57,-92.63"/>
</a>
</g>
</g>
<!-- Node7 -->
<g id="Node000007" class="node">
<title>Node7</title>
<g id="a_Node000007"><a xlink:href="app__can__protocol_8c.html#a6c2f3bebbd2597376fd87038ef059996" target="_top" xlink:title="后台轮询：处理通信参数变更后的重新初始化">
<polygon fill="white" stroke="#666666" points="290.25,-101.25 188.75,-101.25 188.75,-79 290.25,-79 290.25,-101.25"/>
<text xml:space="preserve" text-anchor="middle" x="239.5" y="-85.85" font-family="Helvetica,sans-Serif" font-size="12.00">APP_CAN_Poll</text>
</a>
</g>
</g>
<!-- Node6&#45;&gt;Node7 -->
<g id="edge6_Node000006_Node000007" class="edge">
<title>Node6&#45;&gt;Node7</title>
<g id="a_edge6_Node000006_Node000007"><a xlink:title=" ">
<path fill="none" stroke="#63b8ff" d="M314.28,-89.57C306.33,-89.63 298.23,-89.69 290.45,-89.75"/>
<polygon fill="#63b8ff" stroke="#63b8ff" points="314.29,-93.07 324.27,-89.49 314.24,-86.07 314.29,-93.07"/>
</a>
</g>
</g>
<!-- Node10 -->
<g id="Node000010" class="node">
<title>Node10</title>
<g id="a_Node000010"><a xlink:href="app__main_8c.html#a4759d3fdff6b33e2c0a0ae151452112f" target="_top" xlink:title="应用初始化（main 的 USER CODE BEGIN 2 调用）">
<polygon fill="white" stroke="#666666" points="271.12,-61.25 207.88,-61.25 207.88,-39 271.12,-39 271.12,-61.25"/>
<text xml:space="preserve" text-anchor="middle" x="239.5" y="-45.85" font-family="Helvetica,sans-Serif" font-size="12.00">APP_Init</text>
</a>
</g>
</g>
<!-- Node6&#45;&gt;Node10 -->
<g id="edge9_Node000006_Node000010" class="edge">
<title>Node6&#45;&gt;Node10</title>
<g id="a_edge9_Node000006_Node000010"><a xlink:title=" ">
<path fill="none" stroke="#63b8ff" d="M323.23,-74.41C305.74,-69.27 286.64,-63.67 271.21,-59.14"/>
<polygon fill="#63b8ff" stroke="#63b8ff" points="321.83,-77.65 332.42,-77.1 323.81,-70.93 321.83,-77.65"/>
</a>
</g>
</g>
<!-- Node8 -->
<g id="Node000008" class="node">
<title>Node8</title>
<g id="a_Node000008"><a xlink:href="app__main_8c.html#a6709d26bb67f905916b7c7f048b8396c" target="_top" xlink:title="后台超级循环体（main 的 while(1) 内调用）">
<polygon fill="white" stroke="#666666" points="152.75,-101.25 78.25,-101.25 78.25,-79 152.75,-79 152.75,-101.25"/>
<text xml:space="preserve" text-anchor="middle" x="115.5" y="-85.85" font-family="Helvetica,sans-Serif" font-size="12.00">APP_Loop</text>
</a>
</g>
</g>
<!-- Node7&#45;&gt;Node8 -->
<g id="edge7_Node000007_Node000008" class="edge">
<title>Node7&#45;&gt;Node8</title>
<g id="a_edge7_Node000007_Node000008"><a xlink:title=" ">
<path fill="none" stroke="#63b8ff" d="M177.03,-90.12C168.86,-90.12 160.7,-90.12 153.14,-90.12"/>
<polygon fill="#63b8ff" stroke="#63b8ff" points="177.01,-93.63 187.01,-90.13 177.01,-86.63 177.01,-93.63"/>
</a>
</g>
</g>
<!-- Node9 -->
<g id="Node000009" class="node">
<title>Node9</title>
<g id="a_Node000009"><a xlink:href="main_8c.html#a840291bc02cba5474a4cb46a9b9566fe" target="_top" xlink:title="The application entry point.">
<polygon fill="white" stroke="#666666" points="42.25,-81.25 0,-81.25 0,-59 42.25,-59 42.25,-81.25"/>
<text xml:space="preserve" text-anchor="middle" x="21.12" y="-65.85" font-family="Helvetica,sans-Serif" font-size="12.00">main</text>
</a>
</g>
</g>
<!-- Node8&#45;&gt;Node9 -->
<g id="edge8_Node000008_Node000009" class="edge">
<title>Node8&#45;&gt;Node9</title>
<g id="a_edge8_Node000008_Node000009"><a xlink:title=" ">
<path fill="none" stroke="#63b8ff" d="M66.86,-79.81C58.35,-77.97 49.91,-76.14 42.69,-74.58"/>
<polygon fill="#63b8ff" stroke="#63b8ff" points="66,-83.2 76.51,-81.9 67.48,-76.36 66,-83.2"/>
</a>
</g>
</g>
<!-- Node10&#45;&gt;Node9 -->
<g id="edge10_Node000010_Node000009" class="edge">
<title>Node10&#45;&gt;Node9</title>
<g id="a_edge10_Node000010_Node000009"><a xlink:title=" ">
<path fill="none" stroke="#63b8ff" d="M196.05,-54.05C149.8,-58.32 77.74,-64.98 42.68,-68.23"/>
<polygon fill="#63b8ff" stroke="#63b8ff" points="196.36,-57.54 205.99,-53.13 195.71,-50.57 196.36,-57.54"/>
</a>
</g>
</g>
<!-- Node11&#45;&gt;Node5 -->
<g id="edge12_Node000011_Node000005" class="edge">
<title>Node11&#45;&gt;Node5</title>
<g id="a_edge12_Node000011_Node000005"><a xlink:title=" ">
<path fill="none" stroke="#63b8ff" d="M622.42,-89.12C614.01,-89.12 605.51,-89.12 597.23,-89.12"/>
<polygon fill="#63b8ff" stroke="#63b8ff" points="622.27,-92.63 632.27,-89.13 622.27,-85.63 622.27,-92.63"/>
</a>
</g>
</g>
<!-- Node13 -->
<g id="Node000013" class="node">
<title>Node13</title>
<g id="a_Node000013"><a xlink:href="app__shell_8c.html#ab93a15148be82ad3c0999b099de7c29e" target="_top" xlink:title="shell 轮询（后台调用）">
<polygon fill="white" stroke="#666666" points="584.75,-160.25 470.5,-160.25 470.5,-138 584.75,-138 584.75,-160.25"/>
<text xml:space="preserve" text-anchor="middle" x="527.62" y="-144.85" font-family="Helvetica,sans-Serif" font-size="12.00">APP_SHELL_Poll</text>
</a>
</g>
</g>
<!-- Node12&#45;&gt;Node13 -->
<g id="edge14_Node000012_Node000013" class="edge">
<title>Node12&#45;&gt;Node13</title>
<g id="a_edge14_Node000012_Node000013"><a xlink:title=" ">
<path fill="none" stroke="#63b8ff" d="M621.98,-159.96C609.56,-158.52 596.94,-157.06 585.16,-155.69"/>
<polygon fill="#63b8ff" stroke="#63b8ff" points="621.45,-163.43 631.79,-161.1 622.26,-156.47 621.45,-163.43"/>
</a>
</g>
</g>
<!-- Node13&#45;&gt;Node8 -->
<g id="edge15_Node000013_Node000008" class="edge">
<title>Node13&#45;&gt;Node8</title>
<g id="a_edge15_Node000013_Node000008"><a xlink:title=" ">
<path fill="none" stroke="#63b8ff" d="M458.95,-144.42C390.4,-138.93 281.53,-128.21 188.75,-110.12 177,-107.83 164.36,-104.61 152.99,-101.41"/>
<polygon fill="#63b8ff" stroke="#63b8ff" points="458.27,-147.88 468.51,-145.17 458.81,-140.9 458.27,-147.88"/>
</a>
</g>
</g>
<!-- Node14&#45;&gt;Node4 -->
<g id="edge17_Node000014_Node000004" class="edge">
<title>Node14&#45;&gt;Node4</title>
<g id="a_edge17_Node000014_Node000004"><a xlink:title=" ">
<path fill="none" stroke="#63b8ff" d="M795.47,-140.31C787.41,-139.34 779.23,-138.35 771.23,-137.39"/>
<polygon fill="#63b8ff" stroke="#63b8ff" points="794.9,-143.77 805.25,-141.5 795.74,-136.82 794.9,-143.77"/>
</a>
</g>
</g>
<!-- Node14&#45;&gt;Node12 -->
<g id="edge18_Node000014_Node000012" class="edge">
<title>Node14&#45;&gt;Node12</title>
<g id="a_edge18_Node000014_Node000012"><a xlink:title=" ">
<path fill="none" stroke="#63b8ff" d="M795.57,-157.92C787.29,-158.92 778.88,-159.94 770.67,-160.93"/>
<polygon fill="#63b8ff" stroke="#63b8ff" points="795.74,-161.43 805.25,-156.75 794.9,-154.48 795.74,-161.43"/>
</a>
</g>
</g>
<!-- Node15&#45;&gt;Node10 -->
<g id="edge20_Node000015_Node000010" class="edge">
<title>Node15&#45;&gt;Node10</title>
<g id="a_edge20_Node000015_Node000010"><a xlink:title=" ">
<path fill="none" stroke="#63b8ff" d="M967.38,-50.12C902.18,-50.12 795.15,-50.13 702.88,-50.12 702.88,-50.12 702.88,-50.12 526.62,-50.12 433.73,-50.13 323.88,-50.12 271.41,-50.12"/>
<polygon fill="#63b8ff" stroke="#63b8ff" points="967.15,-53.63 977.15,-50.13 967.15,-46.63 967.15,-53.63"/>
</a>
</g>
</g>
<!-- Node16&#45;&gt;Node10 -->
<g id="edge22_Node000016_Node000010" class="edge">
<title>Node16&#45;&gt;Node10</title>
<g id="a_edge22_Node000016_Node000010"><a xlink:title=" ">
<path fill="none" stroke="#63b8ff" d="M325.73,-25.11C307.57,-30.44 287.37,-36.37 271.2,-41.11"/>
<polygon fill="#63b8ff" stroke="#63b8ff" points="326.65,-28.49 335.26,-22.31 324.68,-21.77 326.65,-28.49"/>
</a>
</g>
</g>
</g>
</svg>

<g id="navigator" transform="translate(0 0)" fill="#404254">
  <rect fill="#f2f5e9" fill-opacity="0.5" stroke="#606060" stroke-width=".5" x="0" y="0" width="60" height="60"/>
  <use id="zoomplus" xlink:href="#zoomPlus" x="17" y="9" onmousedown="handleZoom(evt,'in')"/>
  <use id="zoomminus" xlink:href="#zoomMin" x="42" y="9" onmousedown="handleZoom(evt,'out')"/>
  <use id="reset" xlink:href="#resetDef" x="30" y="36" onmousedown="handleReset()"/>
   <use id="arrowup" xlink:href="#arrowUp" x="0" y="0" onmousedown="handlePan(0,-1)"/>
  <use id="arrowright" xlink:href="#arrowRight" x="0" y="0" onmousedown="handlePan(1,0)"/>
  <use id="arrowdown" xlink:href="#arrowDown" x="0" y="0" onmousedown="handlePan(0,1)"/>
  <use id="arrowleft" xlink:href="#arrowLeft" x="0" y="0" onmousedown="handlePan(-1,0)"/>
</g>
<svg viewBox="0 0 15 15" width="100%" height="30px" preserveAspectRatio="xMaxYMin meet">
 <g id="arrow_out" transform="scale(0.3 0.3)">
  <a xlink:href="bsp__pwm_8h_af4a87e2cef845a3eba6d0170011ff08d_icgraph_org.svg" target="_base">
   <rect id="button" ry="5" rx="5" y="6" x="6" height="38" width="38"
        fill="#f2f5e9" fill-opacity="0.5" stroke="#606060" stroke-width="1.0"/>
   <path id="arrow"
     d="M 11.500037,31.436501 C 11.940474,20.09759 22.043105,11.32322 32.158766,21.979434 L 37.068811,17.246167 C 37.068811,17.246167 37.088388,32 37.088388,32 L 22.160133,31.978069 C 22.160133,31.978069 26.997745,27.140456 26.997745,27.140456 C 18.528582,18.264221 13.291696,25.230495 11.500037,31.436501 z"
     style="fill:#404040;"/>
  </a>
 </g>
</svg>

<style type='text/css'>
<![CDATA[
[data-mouse-over-selected='false'] { opacity: 0.7; }
[data-mouse-over-selected='true']  { opacity: 1.0; }
]]>
</style>
<script type="application/ecmascript"><![CDATA[
document.addEventListener('DOMContentLoaded', (event) => {
  highlightEdges();
  highlightAdjacentNodes();
});
]]></script>
</svg>
