<?xml version="1.0" encoding="UTF-8" standalone="no"?>
<!DOCTYPE svg PUBLIC "-//W3C//DTD SVG 1.1//EN"
 "http://www.w3.org/Graphics/SVG/1.1/DTD/svg11.dtd">
<!-- Generated by graphviz version 15.1.0 (20260618.0150)
 -->
<!-- Title: BSP_ADC_GetOffsets Pages: 1 -->
<svg width="832pt" height="70pt"
 viewBox="0.00 0.00 832.00 70.00" xmlns="http://www.w3.org/2000/svg" xmlns:xlink="http://www.w3.org/1999/xlink">
<g id="graph0" class="graph" transform="scale(1 1) rotate(0) translate(4 66.25)">
<title>BSP_ADC_GetOffsets</title>
<!-- Node1 -->
<g id="Node000001" class="node">
<title>Node1</title>
<g id="a_Node000001"><a xlink:title="读取电流通道零流偏置（监控/诊断显示用）">
<polygon fill="#999999" stroke="#666666" points="824.25,-41.25 688.25,-41.25 688.25,-19 824.25,-19 824.25,-41.25"/>
<text xml:space="preserve" text-anchor="middle" x="756.25" y="-25.85" font-family="Helvetica,sans-Serif" font-size="12.00">BSP_ADC_GetOffsets</text>
</a>
</g>
</g>
<!-- Node2 -->
<g id="Node000002" class="node">
<title>Node2</title>
<g id="a_Node000002"><a xlink:href="app__main_8c.html#a4759d3fdff6b33e2c0a0ae151452112f" target="_top" xlink:title="应用初始化（main 的 USER CODE BEGIN 2 调用）">
<polygon fill="white" stroke="#666666" points="439,-62.25 375.75,-62.25 375.75,-40 439,-40 439,-62.25"/>
<text xml:space="preserve" text-anchor="middle" x="407.38" y="-46.85" font-family="Helvetica,sans-Serif" font-size="12.00">APP_Init</text>
</a>
</g>
</g>
<!-- Node1&#45;&gt;Node2 -->
<g id="edge1_Node000001_Node000002" class="edge">
<title>Node1&#45;&gt;Node2</title>
<g id="a_edge1_Node000001_Node000002"><a xlink:title=" ">
<path fill="none" stroke="#63b8ff" d="M676.67,-34.88C601.5,-39.43 492.02,-46.06 439.18,-49.26"/>
<polygon fill="#63b8ff" stroke="#63b8ff" points="676.68,-38.39 686.45,-34.29 676.25,-31.4 676.68,-38.39"/>
</a>
</g>
</g>
<!-- Node4 -->
<g id="Node000004" class="node">
<title>Node4</title>
<g id="a_Node000004"><a xlink:href="app__monitor_8c.html#a9bb383e6ceed1252d51dd3ebbc075668" target="_top" xlink:title="打印完整状态快照（shell &quot;status&quot;）">
<polygon fill="white" stroke="#666666" points="652.25,-22.25 511.75,-22.25 511.75,0 652.25,0 652.25,-22.25"/>
<text xml:space="preserve" text-anchor="middle" x="582" y="-6.85" font-family="Helvetica,sans-Serif" font-size="12.00">APP_MON_PrintStatus</text>
</a>
</g>
</g>
<!-- Node1&#45;&gt;Node4 -->
<g id="edge3_Node000001_Node000004" class="edge">
<title>Node1&#45;&gt;Node4</title>
<g id="a_edge3_Node000001_Node000004"><a xlink:title=" ">
<path fill="none" stroke="#63b8ff" d="M676.88,-21.48C668.83,-20.59 660.69,-19.69 652.75,-18.82"/>
<polygon fill="#63b8ff" stroke="#63b8ff" points="676.33,-24.94 686.66,-22.56 677.1,-17.98 676.33,-24.94"/>
</a>
</g>
</g>
<!-- Node3 -->
<g id="Node000003" class="node">
<title>Node3</title>
<g id="a_Node000003"><a xlink:href="main_8c.html#a840291bc02cba5474a4cb46a9b9566fe" target="_top" xlink:title="The application entry point.">
<polygon fill="white" stroke="#666666" points="42.25,-41.25 0,-41.25 0,-19 42.25,-19 42.25,-41.25"/>
<text xml:space="preserve" text-anchor="middle" x="21.12" y="-25.85" font-family="Helvetica,sans-Serif" font-size="12.00">main</text>
</a>
</g>
</g>
<!-- Node2&#45;&gt;Node3 -->
<g id="edge2_Node000002_Node000003" class="edge">
<title>Node2&#45;&gt;Node3</title>
<g id="a_edge2_Node000002_Node000003"><a xlink:title=" ">
<path fill="none" stroke="#63b8ff" d="M363.83,-48.8C281.5,-44.3 103.16,-34.55 42.67,-31.25"/>
<polygon fill="#63b8ff" stroke="#63b8ff" points="363.57,-52.29 373.74,-49.34 363.95,-45.3 363.57,-52.29"/>
</a>
</g>
</g>
<!-- Node5 -->
<g id="Node000005" class="node">
<title>Node5</title>
<g id="a_Node000005"><a xlink:href="app__shell_8c.html#ad6303a346f63752b165b847c5dcefbb7" target="_top" xlink:title="解析并执行一行命令">
<polygon fill="white" stroke="#666666" points="475.75,-22.25 339,-22.25 339,0 475.75,0 475.75,-22.25"/>
<text xml:space="preserve" text-anchor="middle" x="407.38" y="-6.85" font-family="Helvetica,sans-Serif" font-size="12.00">APP_SHELL_Execute</text>
</a>
</g>
</g>
<!-- Node4&#45;&gt;Node5 -->
<g id="edge4_Node000004_Node000005" class="edge">
<title>Node4&#45;&gt;Node5</title>
<g id="a_edge4_Node000004_Node000005"><a xlink:title=" ">
<path fill="none" stroke="#63b8ff" d="M500.04,-11.12C492.03,-11.12 483.96,-11.12 476.11,-11.12"/>
<polygon fill="#63b8ff" stroke="#63b8ff" points="499.77,-14.63 509.77,-11.13 499.77,-7.63 499.77,-14.63"/>
</a>
</g>
</g>
<!-- Node6 -->
<g id="Node000006" class="node">
<title>Node6</title>
<g id="a_Node000006"><a xlink:href="app__shell_8c.html#ab93a15148be82ad3c0999b099de7c29e" target="_top" xlink:title="shell 轮询（后台调用）">
<polygon fill="white" stroke="#666666" points="303,-22.25 188.75,-22.25 188.75,0 303,0 303,-22.25"/>
<text xml:space="preserve" text-anchor="middle" x="245.88" y="-6.85" font-family="Helvetica,sans-Serif" font-size="12.00">APP_SHELL_Poll</text>
</a>
</g>
</g>
<!-- Node5&#45;&gt;Node6 -->
<g id="edge5_Node000005_Node000006" class="edge">
<title>Node5&#45;&gt;Node6</title>
<g id="a_edge5_Node000005_Node000006"><a xlink:title=" ">
<path fill="none" stroke="#63b8ff" d="M327.23,-11.12C319.07,-11.12 310.9,-11.12 303.06,-11.12"/>
<polygon fill="#63b8ff" stroke="#63b8ff" points="327.22,-14.63 337.22,-11.13 327.22,-7.63 327.22,-14.63"/>
</a>
</g>
</g>
<!-- Node7 -->
<g id="Node000007" class="node">
<title>Node7</title>
<g id="a_Node000007"><a xlink:href="app__main_8c.html#a6709d26bb67f905916b7c7f048b8396c" target="_top" xlink:title="后台超级循环体（main 的 while(1) 内调用）">
<polygon fill="white" stroke="#666666" points="152.75,-22.25 78.25,-22.25 78.25,0 152.75,0 152.75,-22.25"/>
<text xml:space="preserve" text-anchor="middle" x="115.5" y="-6.85" font-family="Helvetica,sans-Serif" font-size="12.00">APP_Loop</text>
</a>
</g>
</g>
<!-- Node6&#45;&gt;Node7 -->
<g id="edge6_Node000006_Node000007" class="edge">
<title>Node6&#45;&gt;Node7</title>
<g id="a_edge6_Node000006_Node000007"><a xlink:title=" ">
<path fill="none" stroke="#63b8ff" d="M177.27,-11.12C168.98,-11.12 160.77,-11.12 153.18,-11.12"/>
<polygon fill="#63b8ff" stroke="#63b8ff" points="177.05,-14.63 187.05,-11.13 177.05,-7.63 177.05,-14.63"/>
</a>
</g>
</g>
<!-- Node7&#45;&gt;Node3 -->
<g id="edge7_Node000007_Node000003" class="edge">
<title>Node7&#45;&gt;Node3</title>
<g id="a_edge7_Node000007_Node000003"><a xlink:title=" ">
<path fill="none" stroke="#63b8ff" d="M66.86,-20.92C58.35,-22.67 49.91,-24.41 42.69,-25.9"/>
<polygon fill="#63b8ff" stroke="#63b8ff" points="67.42,-24.38 76.51,-18.94 66.01,-17.53 67.42,-24.38"/>
</a>
</g>
</g>
</g>
</svg>
