<?xml version="1.0" encoding="UTF-8" standalone="no"?>
<!DOCTYPE svg PUBLIC "-//W3C//DTD SVG 1.1//EN"
 "http://www.w3.org/Graphics/SVG/1.1/DTD/svg11.dtd">
<!-- Generated by graphviz version 15.1.0 (20260618.0150)
 -->
<!-- Title: Application/bsp/bsp_can.h Pages: 1 -->
<svg width="715pt" height="117pt"
 viewBox="0.00 0.00 715.00 117.00" xmlns="http://www.w3.org/2000/svg" xmlns:xlink="http://www.w3.org/1999/xlink">
<g id="graph0" class="graph" transform="scale(1 1) rotate(0) translate(4 113)">
<title>Application/bsp/bsp_can.h</title>
<!-- Node1 -->
<g id="Node000001" class="node">
<title>Node1</title>
<g id="a_Node000001"><a xlink:title="FDCAN1 通信 BSP 头文件（经典 CAN 模式）">
<polygon fill="#999999" stroke="#666666" points="403.75,-109 282.75,-109 282.75,-72.5 403.75,-72.5 403.75,-109"/>
<text xml:space="preserve" text-anchor="start" x="290.75" y="-93.6" font-family="Helvetica,sans-Serif" font-size="12.00">Application/bsp/bsp</text>
<text xml:space="preserve" text-anchor="middle" x="343.25" y="-79.35" font-family="Helvetica,sans-Serif" font-size="12.00">_can.h</text>
</a>
</g>
</g>
<!-- Node2 -->
<g id="Node000002" class="node">
<title>Node2</title>
<g id="a_Node000002"><a xlink:href="app__can__protocol_8c.html" target="_top" xlink:title="CAN 应用协议（MIT 运控协议 + 配置协议）">
<polygon fill="white" stroke="#666666" points="122.5,-36.5 0,-36.5 0,0 122.5,0 122.5,-36.5"/>
<text xml:space="preserve" text-anchor="start" x="8" y="-21.1" font-family="Helvetica,sans-Serif" font-size="12.00">Application/app/app</text>
<text xml:space="preserve" text-anchor="middle" x="61.25" y="-6.85" font-family="Helvetica,sans-Serif" font-size="12.00">_can_protocol.c</text>
</a>
</g>
</g>
<!-- Node1&#45;&gt;Node2 -->
<g id="edge1_Node000001_Node000002" class="edge">
<title>Node1&#45;&gt;Node2</title>
<g id="a_edge1_Node000001_Node000002"><a xlink:title=" ">
<path fill="none" stroke="#63b8ff" d="M271.34,-71.77C225.49,-60.31 166.69,-45.61 122.96,-34.68"/>
<polygon fill="#63b8ff" stroke="#63b8ff" points="270.39,-75.14 280.94,-74.17 272.09,-68.35 270.39,-75.14"/>
</a>
</g>
</g>
<!-- Node3 -->
<g id="Node000003" class="node">
<title>Node3</title>
<g id="a_Node000003"><a xlink:href="app__monitor_8c.html" target="_top" xlink:title="调试数据打印模块">
<polygon fill="white" stroke="#666666" points="263.5,-36.5 141,-36.5 141,0 263.5,0 263.5,-36.5"/>
<text xml:space="preserve" text-anchor="start" x="149" y="-21.1" font-family="Helvetica,sans-Serif" font-size="12.00">Application/app/app</text>
<text xml:space="preserve" text-anchor="middle" x="202.25" y="-6.85" font-family="Helvetica,sans-Serif" font-size="12.00">_monitor.c</text>
</a>
</g>
</g>
<!-- Node1&#45;&gt;Node3 -->
<g id="edge2_Node000001_Node000003" class="edge">
<title>Node1&#45;&gt;Node3</title>
<g id="a_edge2_Node000001_Node000003"><a xlink:title=" ">
<path fill="none" stroke="#63b8ff" d="M297.82,-67.04C278.27,-57.26 255.77,-46.01 237.51,-36.88"/>
<polygon fill="#63b8ff" stroke="#63b8ff" points="296.17,-70.12 306.68,-71.46 299.3,-63.86 296.17,-70.12"/>
</a>
</g>
</g>
<!-- Node4 -->
<g id="Node000004" class="node">
<title>Node4</title>
<g id="a_Node000004"><a xlink:href="app__params_8c.html" target="_top" xlink:title="运行参数管理（RAM 副本 + Flash 持久化）">
<polygon fill="white" stroke="#666666" points="404.5,-36.5 282,-36.5 282,0 404.5,0 404.5,-36.5"/>
<text xml:space="preserve" text-anchor="start" x="290" y="-21.1" font-family="Helvetica,sans-Serif" font-size="12.00">Application/app/app</text>
<text xml:space="preserve" text-anchor="middle" x="343.25" y="-6.85" font-family="Helvetica,sans-Serif" font-size="12.00">_params.c</text>
</a>
</g>
</g>
<!-- Node1&#45;&gt;Node4 -->
<g id="edge3_Node000001_Node000004" class="edge">
<title>Node1&#45;&gt;Node4</title>
<g id="a_edge3_Node000001_Node000004"><a xlink:title=" ">
<path fill="none" stroke="#63b8ff" d="M343.25,-60.97C343.25,-52.84 343.25,-44.23 343.25,-36.97"/>
<polygon fill="#63b8ff" stroke="#63b8ff" points="339.75,-60.81 343.25,-70.81 346.75,-60.81 339.75,-60.81"/>
</a>
</g>
</g>
<!-- Node5 -->
<g id="Node000005" class="node">
<title>Node5</title>
<g id="a_Node000005"><a xlink:href="bsp__can_8c.html" target="_top" xlink:title="FDCAN1 通信 BSP（经典 CAN 模式）">
<polygon fill="white" stroke="#666666" points="543.75,-36.5 422.75,-36.5 422.75,0 543.75,0 543.75,-36.5"/>
<text xml:space="preserve" text-anchor="start" x="430.75" y="-21.1" font-family="Helvetica,sans-Serif" font-size="12.00">Application/bsp/bsp</text>
<text xml:space="preserve" text-anchor="middle" x="483.25" y="-6.85" font-family="Helvetica,sans-Serif" font-size="12.00">_can.c</text>
</a>
</g>
</g>
<!-- Node1&#45;&gt;Node5 -->
<g id="edge4_Node000001_Node000005" class="edge">
<title>Node1&#45;&gt;Node5</title>
<g id="a_edge4_Node000001_Node000005"><a xlink:title=" ">
<path fill="none" stroke="#63b8ff" d="M388.36,-67.04C407.77,-57.26 430.11,-46.01 448.24,-36.88"/>
<polygon fill="#63b8ff" stroke="#63b8ff" points="386.93,-63.84 379.57,-71.46 390.07,-70.09 386.93,-63.84"/>
</a>
</g>
</g>
<!-- Node6 -->
<g id="Node000006" class="node">
<title>Node6</title>
<g id="a_Node000006"><a xlink:href="stm32g4xx__it_8c.html" target="_top" xlink:title="Interrupt Service Routines.">
<polygon fill="white" stroke="#666666" points="707.12,-29.38 561.38,-29.38 561.38,-7.12 707.12,-7.12 707.12,-29.38"/>
<text xml:space="preserve" text-anchor="middle" x="634.25" y="-13.97" font-family="Helvetica,sans-Serif" font-size="12.00">Core/Src/stm32g4xx_it.c</text>
</a>
</g>
</g>
<!-- Node1&#45;&gt;Node6 -->
<g id="edge5_Node000001_Node000006" class="edge">
<title>Node1&#45;&gt;Node6</title>
<g id="a_edge5_Node000001_Node000006"><a xlink:title=" ">
<path fill="none" stroke="#63b8ff" d="M414.99,-72.37C470.06,-59.03 544.29,-41.04 590.7,-29.8"/>
<polygon fill="#63b8ff" stroke="#63b8ff" points="414.26,-68.94 405.37,-74.7 415.91,-75.75 414.26,-68.94"/>
</a>
</g>
</g>
</g>
</svg>
