<?xml version="1.0" encoding="UTF-8" standalone="no"?>
<!DOCTYPE svg PUBLIC "-//W3C//DTD SVG 1.1//EN"
 "http://www.w3.org/Graphics/SVG/1.1/DTD/svg11.dtd">
<!-- Generated by graphviz version 15.1.0 (20260618.0150)
 -->
<!-- Title: BSP_ENC_SetInvert Pages: 1 -->
<svg width="519pt" height="107pt"
 viewBox="0.00 0.00 519.00 107.00" xmlns="http://www.w3.org/2000/svg" xmlns:xlink="http://www.w3.org/1999/xlink">
<g id="graph0" class="graph" transform="scale(1 1) rotate(0) translate(4 103.25)">
<title>BSP_ENC_SetInvert</title>
<!-- Node1 -->
<g id="Node000001" class="node">
<title>Node1</title>
<g id="a_Node000001"><a xlink:title="设置方向反转标志（预定位校准结果）">
<polygon fill="#999999" stroke="#666666" points="511.25,-60.25 383.5,-60.25 383.5,-38 511.25,-38 511.25,-60.25"/>
<text xml:space="preserve" text-anchor="middle" x="447.38" y="-44.85" font-family="Helvetica,sans-Serif" font-size="12.00">BSP_ENC_SetInvert</text>
</a>
</g>
</g>
<!-- Node2 -->
<g id="Node000002" class="node">
<title>Node2</title>
<g id="a_Node000002"><a xlink:href="calibration_8c.html#a51f1133ceba653e8e1e600c24b54987e" target="_top" xlink:title="校准状态机单步（电流环 ISR 调用，模式 = MC_MODE_CALIB）">
<polygon fill="white" stroke="#666666" points="347.5,-99.25 288,-99.25 288,-77 347.5,-77 347.5,-99.25"/>
<text xml:space="preserve" text-anchor="middle" x="317.75" y="-83.85" font-family="Helvetica,sans-Serif" font-size="12.00">CAL_Isr</text>
</a>
</g>
</g>
<!-- Node1&#45;&gt;Node2 -->
<g id="edge1_Node000001_Node000002" class="edge">
<title>Node1&#45;&gt;Node2</title>
<g id="a_edge1_Node000001_Node000002"><a xlink:title=" ">
<path fill="none" stroke="#63b8ff" d="M397.65,-64.01C380.85,-69.15 362.57,-74.74 347.83,-79.24"/>
<polygon fill="#63b8ff" stroke="#63b8ff" points="398.44,-67.43 406.98,-61.16 396.4,-60.74 398.44,-67.43"/>
</a>
</g>
</g>
<!-- Node3 -->
<g id="Node000003" class="node">
<title>Node3</title>
<g id="a_Node000003"><a xlink:href="motor__ctrl_8c.html#a5c982a7374da291bb0e5d06d26893def" target="_top" xlink:title="FOC 主循环（ADC 注入完成 ISR，20kHz）">
<polygon fill="white" stroke="#666666" points="252,-62.25 177.5,-62.25 177.5,-40 252,-40 252,-62.25"/>
<text xml:space="preserve" text-anchor="middle" x="214.75" y="-46.85" font-family="Helvetica,sans-Serif" font-size="12.00">MC_FocIsr</text>
</a>
</g>
</g>
<!-- Node1&#45;&gt;Node3 -->
<g id="edge5_Node000001_Node000003" class="edge">
<title>Node1&#45;&gt;Node3</title>
<g id="a_edge5_Node000001_Node000003"><a xlink:title=" ">
<path fill="none" stroke="#63b8ff" d="M371.73,-49.77C331.76,-50.12 284.32,-50.53 252.34,-50.81"/>
<polygon fill="#63b8ff" stroke="#63b8ff" points="371.57,-53.27 381.54,-49.69 371.51,-46.27 371.57,-53.27"/>
</a>
</g>
</g>
<!-- Node6 -->
<g id="Node000006" class="node">
<title>Node6</title>
<g id="a_Node000006"><a xlink:href="motor__ctrl_8c.html#a6289107a27126667fef8194dc34ad71f" target="_top" xlink:title="初始化电机控制模块">
<polygon fill="white" stroke="#666666" points="243.38,-22.25 186.12,-22.25 186.12,0 243.38,0 243.38,-22.25"/>
<text xml:space="preserve" text-anchor="middle" x="214.75" y="-6.85" font-family="Helvetica,sans-Serif" font-size="12.00">MC_Init</text>
</a>
</g>
</g>
<!-- Node1&#45;&gt;Node6 -->
<g id="edge6_Node000001_Node000006" class="edge">
<title>Node1&#45;&gt;Node6</title>
<g id="a_edge6_Node000001_Node000006"><a xlink:title=" ">
<path fill="none" stroke="#63b8ff" d="M371.85,-36.85C328.1,-29.64 275.37,-20.95 243.75,-15.74"/>
<polygon fill="#63b8ff" stroke="#63b8ff" points="371.12,-40.27 381.56,-38.44 372.26,-33.37 371.12,-40.27"/>
</a>
</g>
</g>
<!-- Node2&#45;&gt;Node3 -->
<g id="edge2_Node000002_Node000003" class="edge">
<title>Node2&#45;&gt;Node3</title>
<g id="a_edge2_Node000002_Node000003"><a xlink:title=" ">
<path fill="none" stroke="#63b8ff" d="M276.81,-73.49C267.03,-69.91 256.7,-66.13 247.37,-62.71"/>
<polygon fill="#63b8ff" stroke="#63b8ff" points="275.52,-76.75 286.12,-76.9 277.93,-70.18 275.52,-76.75"/>
</a>
</g>
</g>
<!-- Node4 -->
<g id="Node000004" class="node">
<title>Node4</title>
<g id="a_Node000004"><a xlink:href="app__main_8c.html#a4759d3fdff6b33e2c0a0ae151452112f" target="_top" xlink:title="应用初始化（main 的 USER CODE BEGIN 2 调用）">
<polygon fill="white" stroke="#666666" points="141.5,-42.25 78.25,-42.25 78.25,-20 141.5,-20 141.5,-42.25"/>
<text xml:space="preserve" text-anchor="middle" x="109.88" y="-26.85" font-family="Helvetica,sans-Serif" font-size="12.00">APP_Init</text>
</a>
</g>
</g>
<!-- Node3&#45;&gt;Node4 -->
<g id="edge3_Node000003_Node000004" class="edge">
<title>Node3&#45;&gt;Node4</title>
<g id="a_edge3_Node000003_Node000004"><a xlink:title=" ">
<path fill="none" stroke="#63b8ff" d="M166.12,-41.87C157.89,-40.26 149.52,-38.64 141.87,-37.15"/>
<polygon fill="#63b8ff" stroke="#63b8ff" points="165.22,-45.26 175.7,-43.73 166.56,-38.38 165.22,-45.26"/>
</a>
</g>
</g>
<!-- Node5 -->
<g id="Node000005" class="node">
<title>Node5</title>
<g id="a_Node000005"><a xlink:href="main_8c.html#a840291bc02cba5474a4cb46a9b9566fe" target="_top" xlink:title="The application entry point.">
<polygon fill="white" stroke="#666666" points="42.25,-42.25 0,-42.25 0,-20 42.25,-20 42.25,-42.25"/>
<text xml:space="preserve" text-anchor="middle" x="21.12" y="-26.85" font-family="Helvetica,sans-Serif" font-size="12.00">main</text>
</a>
</g>
</g>
<!-- Node4&#45;&gt;Node5 -->
<g id="edge4_Node000004_Node000005" class="edge">
<title>Node4&#45;&gt;Node5</title>
<g id="a_edge4_Node000004_Node000005"><a xlink:title=" ">
<path fill="none" stroke="#63b8ff" d="M66.72,-31.12C58.3,-31.12 49.82,-31.12 42.54,-31.12"/>
<polygon fill="#63b8ff" stroke="#63b8ff" points="66.53,-34.63 76.53,-31.13 66.53,-27.63 66.53,-34.63"/>
</a>
</g>
</g>
<!-- Node6&#45;&gt;Node4 -->
<g id="edge7_Node000006_Node000004" class="edge">
<title>Node6&#45;&gt;Node4</title>
<g id="a_edge7_Node000006_Node000004"><a xlink:title=" ">
<path fill="none" stroke="#63b8ff" d="M174.35,-18.79C163.58,-20.88 152.07,-23.12 141.85,-25.1"/>
<polygon fill="#63b8ff" stroke="#63b8ff" points="175,-22.22 184.15,-16.88 173.67,-15.35 175,-22.22"/>
</a>
</g>
</g>
</g>
</svg>
