<?xml version="1.0" encoding="UTF-8" standalone="no"?>
<!DOCTYPE svg PUBLIC "-//W3C//DTD SVG 1.1//EN"
 "http://www.w3.org/Graphics/SVG/1.1/DTD/svg11.dtd">
<!-- Generated by graphviz version 15.1.0 (20260618.0150)
 -->
<!-- Title: Application/bsp/bsp_flash.h Pages: 1 -->
<svg width="160pt" height="161pt"
 viewBox="0.00 0.00 160.00 161.00" xmlns="http://www.w3.org/2000/svg" xmlns:xlink="http://www.w3.org/1999/xlink">
<g id="graph0" class="graph" transform="scale(1 1) rotate(0) translate(4 157)">
<title>Application/bsp/bsp_flash.h</title>
<!-- Node1 -->
<g id="Node000001" class="node">
<title>Node1</title>
<g id="a_Node000001"><a xlink:title="片内 Flash 参数持久化 BSP 头文件">
<polygon fill="#999999" stroke="#666666" points="148.88,-153 27.88,-153 27.88,-116.5 148.88,-116.5 148.88,-153"/>
<text xml:space="preserve" text-anchor="start" x="35.88" y="-137.6" font-family="Helvetica,sans-Serif" font-size="12.00">Application/bsp/bsp</text>
<text xml:space="preserve" text-anchor="middle" x="88.38" y="-123.35" font-family="Helvetica,sans-Serif" font-size="12.00">_flash.h</text>
</a>
</g>
</g>
<!-- Node2 -->
<g id="Node000002" class="node">
<title>Node2</title>
<g id="a_Node000002"><a xlink:href="main_8h.html" target="_top" xlink:title=": Header for main.c file.">
<polygon fill="white" stroke="#666666" points="79.38,-80.5 27.38,-80.5 27.38,-58.25 79.38,-58.25 79.38,-80.5"/>
<text xml:space="preserve" text-anchor="middle" x="53.38" y="-65.1" font-family="Helvetica,sans-Serif" font-size="12.00">main.h</text>
</a>
</g>
</g>
<!-- Node1&#45;&gt;Node2 -->
<g id="edge1_Node000001_Node000002" class="edge">
<title>Node1&#45;&gt;Node2</title>
<g id="a_edge1_Node000001_Node000002"><a xlink:title=" ">
<path fill="none" stroke="#63b8ff" d="M78.63,-116.1C74.29,-108.25 69.17,-98.97 64.67,-90.83"/>
<polygon fill="#63b8ff" stroke="#63b8ff" points="67.87,-89.38 59.97,-82.32 61.74,-92.76 67.87,-89.38"/>
</a>
</g>
</g>
<!-- Node4 -->
<g id="Node000004" class="node">
<title>Node4</title>
<g id="a_Node000004"><a xlink:title=" ">
<polygon fill="#e0e0e0" stroke="#999999" points="151.5,-80.5 97.25,-80.5 97.25,-58.25 151.5,-58.25 151.5,-80.5"/>
<text xml:space="preserve" text-anchor="middle" x="124.38" y="-65.1" font-family="Helvetica,sans-Serif" font-size="12.00">stdint.h</text>
</a>
</g>
</g>
<!-- Node1&#45;&gt;Node4 -->
<g id="edge3_Node000001_Node000004" class="edge">
<title>Node1&#45;&gt;Node4</title>
<g id="a_edge3_Node000001_Node000004"><a xlink:title=" ">
<path fill="none" stroke="#63b8ff" d="M98.4,-116.1C102.86,-108.25 108.13,-98.97 112.76,-90.83"/>
<polygon fill="#63b8ff" stroke="#63b8ff" points="115.7,-92.73 117.6,-82.31 109.61,-89.28 115.7,-92.73"/>
</a>
</g>
</g>
<!-- Node3 -->
<g id="Node000003" class="node">
<title>Node3</title>
<g id="a_Node000003"><a xlink:title=" ">
<polygon fill="#e0e0e0" stroke="#999999" points="106.75,-22.25 0,-22.25 0,0 106.75,0 106.75,-22.25"/>
<text xml:space="preserve" text-anchor="middle" x="53.38" y="-6.85" font-family="Helvetica,sans-Serif" font-size="12.00">stm32g4xx_hal.h</text>
</a>
</g>
</g>
<!-- Node2&#45;&gt;Node3 -->
<g id="edge2_Node000002_Node000003" class="edge">
<title>Node2&#45;&gt;Node3</title>
<g id="a_edge2_Node000002_Node000003"><a xlink:title=" ">
<path fill="none" stroke="#63b8ff" d="M53.38,-57.79C53.38,-51.12 53.38,-42.24 53.38,-34.09"/>
<polygon fill="#63b8ff" stroke="#63b8ff" points="56.88,-34.17 53.38,-24.17 49.88,-34.17 56.88,-34.17"/>
</a>
</g>
</g>
</g>
</svg>
