<?xml version="1.0" encoding="UTF-8" standalone="no"?>
<!DOCTYPE svg PUBLIC "-//W3C//DTD SVG 1.1//EN"
 "http://www.w3.org/Graphics/SVG/1.1/DTD/svg11.dtd">
<!-- Generated by graphviz version 15.1.0 (20260618.0150)
 -->
<!-- Title: BSP_FLASH_Crc32 Pages: 1 -->
<!--zoomable 70 -->

<svg id="main" version="1.1" xmlns="http://www.w3.org/2000/svg" xmlns:xlink="http://www.w3.org/1999/xlink" xml:space="preserve" onload="init(evt)">

<style type="text/css"><![CDATA[
.node, .edge {opacity: 0.7;}
.node.selected, .edge.selected {opacity: 1;}
.edge:hover path { stroke: red; }
.edge:hover polygon { stroke: red; fill: red; }
]]></style>

<defs>
  <circle id="rim" cx="0" cy="0" r="7"/>
  <circle id="rim2" cx="0" cy="0" r="3.5"/>
  <g id="zoomPlus">
    <use xlink:href="#rim" fill="#404040"><set attributeName="fill" to="#808080" begin="zoomplus.mouseover" end="zoomplus.mouseout"/></use>
    <path d="M-4,0h8M0,-4v8" fill="none" stroke="white" stroke-width="1.5" pointer-events="none"/>
  </g>
  <g id="zoomMin">
    <use xlink:href="#rim" fill="#404040"><set attributeName="fill" to="#808080" begin="zoomminus.mouseover" end="zoomminus.mouseout"/></use>
    <path d="M-4,0h8" fill="none" stroke="white" stroke-width="1.5" pointer-events="none"/>
  </g>
  <g id="arrowUp" transform="translate(30 24)">
    <use xlink:href="#rim"/>
    <path pointer-events="none" fill="none" stroke="white" stroke-width="1.5" d="M0,-3.0v7 M-2.5,-0.5L0,-3.0L2.5,-0.5"/>
  </g>
  <g id="arrowRight" transform="rotate(90) translate(36 -43)">
    <use xlink:href="#rim"/>
    <path pointer-events="none" fill="none" stroke="white" stroke-width="1.5" d="M0,-3.0v7 M-2.5,-0.5L0,-3.0L2.5,-0.5"/>
  </g>
  <g id="arrowDown" transform="rotate(180) translate(-30 -48)">
    <use xlink:href="#rim"/>
    <path pointer-events="none" fill="none" stroke="white" stroke-width="1.5" d="M0,-3.0v7 M-2.5,-0.5L0,-3.0L2.5,-0.5"/>
  </g>
  <g id="arrowLeft" transform="rotate(270) translate(-36 17)">
    <use xlink:href="#rim"/>
    <path pointer-events="none" fill="none" stroke="white" stroke-width="1.5" d="M0,-3.0v7 M-2.5,-0.5L0,-3.0L2.5,-0.5"/>
  </g>
  <g id="resetDef">
    <use xlink:href="#rim2" fill="#404040"><set attributeName="fill" to="#808080" begin="reset.mouseover" end="reset.mouseout"/></use>
  </g>
</defs>
<script type="application/ecmascript">
var viewWidth = 947;
var viewHeight = 70;
var sectionId = 'dynsection-1';
</script>
<script type="application/ecmascript" xlink:href="svg.min.js"/>
<svg id="graph" class="graph">
<g id="viewport">
<title>BSP_FLASH_Crc32</title>
<!-- Node1 -->
<g id="Node000001" class="node">
<title>Node1</title>
<g id="a_Node000001"><a xlink:title="硬件 CRC32 计算（默认多项式 0x4C11DB7，全字复位初值）">
<polygon fill="#999999" stroke="#666666" points="939,-42.25 812.75,-42.25 812.75,-20 939,-20 939,-42.25"/>
<text xml:space="preserve" text-anchor="middle" x="875.88" y="-26.85" font-family="Helvetica,sans-Serif" font-size="12.00">BSP_FLASH_Crc32</text>
</a>
</g>
</g>
<!-- Node2 -->
<g id="Node000002" class="node">
<title>Node2</title>
<g id="a_Node000002"><a xlink:href="bsp__flash_8c.html#abe117545b4c559768b5c43cc0da8777d" target="_top" xlink:title="从参数页加载参数">
<polygon fill="white" stroke="#666666" points="776.38,-62.25 614.12,-62.25 614.12,-40 776.38,-40 776.38,-62.25"/>
<text xml:space="preserve" text-anchor="middle" x="695.25" y="-46.85" font-family="Helvetica,sans-Serif" font-size="12.00">BSP_FLASH_LoadParams</text>
</a>
</g>
</g>
<!-- Node1&#45;&gt;Node2 -->
<g id="edge1_Node000001_Node000002" class="edge">
<title>Node1&#45;&gt;Node2</title>
<g id="a_edge1_Node000001_Node000002"><a xlink:title=" ">
<path fill="none" stroke="#63b8ff" d="M801.11,-39.38C793.02,-40.29 784.75,-41.22 776.59,-42.13"/>
<polygon fill="#63b8ff" stroke="#63b8ff" points="801.35,-42.88 810.9,-38.29 800.57,-35.92 801.35,-42.88"/>
</a>
</g>
</g>
<!-- Node6 -->
<g id="Node000006" class="node">
<title>Node6</title>
<g id="a_Node000006"><a xlink:href="bsp__flash_8c.html#a26214159159f35bf8008eb4cd97a626e" target="_top" xlink:title="保存参数到参数页（擦除 + 双字编程）">
<polygon fill="white" stroke="#666666" points="776.75,-22.25 613.75,-22.25 613.75,0 776.75,0 776.75,-22.25"/>
<text xml:space="preserve" text-anchor="middle" x="695.25" y="-6.85" font-family="Helvetica,sans-Serif" font-size="12.00">BSP_FLASH_SaveParams</text>
</a>
</g>
</g>
<!-- Node1&#45;&gt;Node6 -->
<g id="edge5_Node000001_Node000006" class="edge">
<title>Node1&#45;&gt;Node6</title>
<g id="a_edge5_Node000001_Node000006"><a xlink:title=" ">
<path fill="none" stroke="#63b8ff" d="M801.03,-22.86C793.17,-21.98 785.15,-21.08 777.21,-20.19"/>
<polygon fill="#63b8ff" stroke="#63b8ff" points="800.57,-26.33 810.9,-23.96 801.35,-19.37 800.57,-26.33"/>
</a>
</g>
</g>
<!-- Node3 -->
<g id="Node000003" class="node">
<title>Node3</title>
<g id="a_Node000003"><a xlink:href="app__params_8c.html#a163333fe5d5fee3e7e1f80840ee66f28" target="_top" xlink:title="参数初始化：从 Flash 加载，失败（首次上电/版本不符）则用默认值">
<polygon fill="white" stroke="#666666" points="571.75,-62.25 451.5,-62.25 451.5,-40 571.75,-40 571.75,-62.25"/>
<text xml:space="preserve" text-anchor="middle" x="511.62" y="-46.85" font-family="Helvetica,sans-Serif" font-size="12.00">APP_PARAMS_Init</text>
</a>
</g>
</g>
<!-- Node2&#45;&gt;Node3 -->
<g id="edge2_Node000002_Node000003" class="edge">
<title>Node2&#45;&gt;Node3</title>
<g id="a_edge2_Node000002_Node000003"><a xlink:title=" ">
<path fill="none" stroke="#63b8ff" d="M602.56,-51.12C592.19,-51.12 581.83,-51.12 572.03,-51.12"/>
<polygon fill="#63b8ff" stroke="#63b8ff" points="602.28,-54.63 612.28,-51.13 602.28,-47.63 602.28,-54.63"/>
</a>
</g>
</g>
<!-- Node4 -->
<g id="Node000004" class="node">
<title>Node4</title>
<g id="a_Node000004"><a xlink:href="app__main_8c.html#a4759d3fdff6b33e2c0a0ae151452112f" target="_top" xlink:title="应用初始化（main 的 USER CODE BEGIN 2 调用）">
<polygon fill="white" stroke="#666666" points="147.12,-62.25 83.88,-62.25 83.88,-40 147.12,-40 147.12,-62.25"/>
<text xml:space="preserve" text-anchor="middle" x="115.5" y="-46.85" font-family="Helvetica,sans-Serif" font-size="12.00">APP_Init</text>
</a>
</g>
</g>
<!-- Node3&#45;&gt;Node4 -->
<g id="edge3_Node000003_Node000004" class="edge">
<title>Node3&#45;&gt;Node4</title>
<g id="a_edge3_Node000003_Node000004"><a xlink:title=" ">
<path fill="none" stroke="#63b8ff" d="M439.85,-51.12C353,-51.12 209.59,-51.12 147.14,-51.12"/>
<polygon fill="#63b8ff" stroke="#63b8ff" points="439.68,-54.63 449.68,-51.13 439.68,-47.63 439.68,-54.63"/>
</a>
</g>
</g>
<!-- Node5 -->
<g id="Node000005" class="node">
<title>Node5</title>
<g id="a_Node000005"><a xlink:href="main_8c.html#a840291bc02cba5474a4cb46a9b9566fe" target="_top" xlink:title="The application entry point.">
<polygon fill="white" stroke="#666666" points="42.25,-42.25 0,-42.25 0,-20 42.25,-20 42.25,-42.25"/>
<text xml:space="preserve" text-anchor="middle" x="21.12" y="-26.85" font-family="Helvetica,sans-Serif" font-size="12.00">main</text>
</a>
</g>
</g>
<!-- Node4&#45;&gt;Node5 -->
<g id="edge4_Node000004_Node000005" class="edge">
<title>Node4&#45;&gt;Node5</title>
<g id="a_edge4_Node000004_Node000005"><a xlink:title=" ">
<path fill="none" stroke="#63b8ff" d="M72.48,-42.03C62.15,-39.79 51.54,-37.49 42.74,-35.59"/>
<polygon fill="#63b8ff" stroke="#63b8ff" points="71.49,-45.39 82,-44.09 72.97,-38.55 71.49,-45.39"/>
</a>
</g>
</g>
<!-- Node7 -->
<g id="Node000007" class="node">
<title>Node7</title>
<g id="a_Node000007"><a xlink:href="app__params_8c.html#ac523ba0893e64080fcd28850bbf687fa" target="_top" xlink:title="立即保存参数（仅限电机封波状态下调用）">
<polygon fill="white" stroke="#666666" points="577.75,-22.25 445.5,-22.25 445.5,0 577.75,0 577.75,-22.25"/>
<text xml:space="preserve" text-anchor="middle" x="511.62" y="-6.85" font-family="Helvetica,sans-Serif" font-size="12.00">APP_PARAMS_Save</text>
</a>
</g>
</g>
<!-- Node6&#45;&gt;Node7 -->
<g id="edge6_Node000006_Node000007" class="edge">
<title>Node6&#45;&gt;Node7</title>
<g id="a_edge6_Node000006_Node000007"><a xlink:title=" ">
<path fill="none" stroke="#63b8ff" d="M601.95,-11.12C593.94,-11.12 585.94,-11.12 578.21,-11.12"/>
<polygon fill="#63b8ff" stroke="#63b8ff" points="601.75,-14.63 611.75,-11.13 601.75,-7.63 601.75,-14.63"/>
</a>
</g>
</g>
<!-- Node8 -->
<g id="Node000008" class="node">
<title>Node8</title>
<g id="a_Node000008"><a xlink:href="app__params_8c.html#a9afc1399fb8fb19c72cd51a7a6e38051" target="_top" xlink:title="处理挂起的保存请求（后台循环调用）">
<polygon fill="white" stroke="#666666" points="409.5,-22.25 188.75,-22.25 188.75,0 409.5,0 409.5,-22.25"/>
<text xml:space="preserve" text-anchor="middle" x="299.12" y="-6.85" font-family="Helvetica,sans-Serif" font-size="12.00">APP_PARAMS_ProcessSaveRequest</text>
</a>
</g>
</g>
<!-- Node7&#45;&gt;Node8 -->
<g id="edge7_Node000007_Node000008" class="edge">
<title>Node7&#45;&gt;Node8</title>
<g id="a_edge7_Node000007_Node000008"><a xlink:title=" ">
<path fill="none" stroke="#63b8ff" d="M433.8,-11.12C425.9,-11.12 417.78,-11.12 409.62,-11.12"/>
<polygon fill="#63b8ff" stroke="#63b8ff" points="433.66,-14.63 443.66,-11.13 433.66,-7.63 433.66,-14.63"/>
</a>
</g>
</g>
<!-- Node9 -->
<g id="Node000009" class="node">
<title>Node9</title>
<g id="a_Node000009"><a xlink:href="app__main_8c.html#a6709d26bb67f905916b7c7f048b8396c" target="_top" xlink:title="后台超级循环体（main 的 while(1) 内调用）">
<polygon fill="white" stroke="#666666" points="152.75,-22.25 78.25,-22.25 78.25,0 152.75,0 152.75,-22.25"/>
<text xml:space="preserve" text-anchor="middle" x="115.5" y="-6.85" font-family="Helvetica,sans-Serif" font-size="12.00">APP_Loop</text>
</a>
</g>
</g>
<!-- Node8&#45;&gt;Node9 -->
<g id="edge8_Node000008_Node000009" class="edge">
<title>Node8&#45;&gt;Node9</title>
<g id="a_edge8_Node000008_Node000009"><a xlink:title=" ">
<path fill="none" stroke="#63b8ff" d="M176.98,-11.12C168.54,-11.12 160.49,-11.12 153.17,-11.12"/>
<polygon fill="#63b8ff" stroke="#63b8ff" points="176.77,-14.63 186.77,-11.13 176.77,-7.63 176.77,-14.63"/>
</a>
</g>
</g>
<!-- Node9&#45;&gt;Node5 -->
<g id="edge9_Node000009_Node000005" class="edge">
<title>Node9&#45;&gt;Node5</title>
<g id="a_edge9_Node000009_Node000005"><a xlink:title=" ">
<path fill="none" stroke="#63b8ff" d="M66.86,-21.44C58.35,-23.28 49.91,-25.11 42.69,-26.67"/>
<polygon fill="#63b8ff" stroke="#63b8ff" points="67.48,-24.89 76.51,-19.35 66,-18.05 67.48,-24.89"/>
</a>
</g>
</g>
</g>
</svg>

<g id="navigator" transform="translate(0 0)" fill="#404254">
  <rect fill="#f2f5e9" fill-opacity="0.5" stroke="#606060" stroke-width=".5" x="0" y="0" width="60" height="60"/>
  <use id="zoomplus" xlink:href="#zoomPlus" x="17" y="9" onmousedown="handleZoom(evt,'in')"/>
  <use id="zoomminus" xlink:href="#zoomMin" x="42" y="9" onmousedown="handleZoom(evt,'out')"/>
  <use id="reset" xlink:href="#resetDef" x="30" y="36" onmousedown="handleReset()"/>
   <use id="arrowup" xlink:href="#arrowUp" x="0" y="0" onmousedown="handlePan(0,-1)"/>
  <use id="arrowright" xlink:href="#arrowRight" x="0" y="0" onmousedown="handlePan(1,0)"/>
  <use id="arrowdown" xlink:href="#arrowDown" x="0" y="0" onmousedown="handlePan(0,1)"/>
  <use id="arrowleft" xlink:href="#arrowLeft" x="0" y="0" onmousedown="handlePan(-1,0)"/>
</g>
<svg viewBox="0 0 15 15" width="100%" height="30px" preserveAspectRatio="xMaxYMin meet">
 <g id="arrow_out" transform="scale(0.3 0.3)">
  <a xlink:href="bsp__flash_8c_aa1c7fee83ecbb51032b9dad44332a207_icgraph_org.svg" target="_base">
   <rect id="button" ry="5" rx="5" y="6" x="6" height="38" width="38"
        fill="#f2f5e9" fill-opacity="0.5" stroke="#606060" stroke-width="1.0"/>
   <path id="arrow"
     d="M 11.500037,31.436501 C 11.940474,20.09759 22.043105,11.32322 32.158766,21.979434 L 37.068811,17.246167 C 37.068811,17.246167 37.088388,32 37.088388,32 L 22.160133,31.978069 C 22.160133,31.978069 26.997745,27.140456 26.997745,27.140456 C 18.528582,18.264221 13.291696,25.230495 11.500037,31.436501 z"
     style="fill:#404040;"/>
  </a>
 </g>
</svg>

<style type='text/css'>
<![CDATA[
[data-mouse-over-selected='false'] { opacity: 0.7; }
[data-mouse-over-selected='true']  { opacity: 1.0; }
]]>
</style>
<script type="application/ecmascript"><![CDATA[
document.addEventListener('DOMContentLoaded', (event) => {
  highlightEdges();
  highlightAdjacentNodes();
});
]]></script>
</svg>
