<?xml version="1.0" encoding="UTF-8" standalone="no"?>
<!DOCTYPE svg PUBLIC "-//W3C//DTD SVG 1.1//EN"
 "http://www.w3.org/Graphics/SVG/1.1/DTD/svg11.dtd">
<!-- Generated by graphviz version 15.1.0 (20260618.0150)
 -->
<!-- Title: BSP_WS2812_Init Pages: 1 -->
<svg width="520pt" height="110pt"
 viewBox="0.00 0.00 520.00 110.00" xmlns="http://www.w3.org/2000/svg" xmlns:xlink="http://www.w3.org/1999/xlink">
<g id="graph0" class="graph" transform="scale(1 1) rotate(0) translate(4 106.25)">
<title>BSP_WS2812_Init</title>
<!-- Node1 -->
<g id="Node000001" class="node">
<title>Node1</title>
<g id="a_Node000001"><a xlink:title="初始化 WS2812 驱动（重配 TIM2 + DMA）">
<polygon fill="#999999" stroke="#666666" points="116.5,-62.25 0,-62.25 0,-40 116.5,-40 116.5,-62.25"/>
<text xml:space="preserve" text-anchor="middle" x="58.25" y="-46.85" font-family="Helvetica,sans-Serif" font-size="12.00">BSP_WS2812_Init</text>
</a>
</g>
</g>
<!-- Node2 -->
<g id="Node000002" class="node">
<title>Node2</title>
<g id="a_Node000002"><a xlink:href="bsp__ws2812_8c.html#a3470d95e73928ee18598b72489c8eb33" target="_top" xlink:title="后台轮询：颜色有更新且 DMA 空闲时发送一帧">
<polygon fill="white" stroke="#666666" points="287.38,-102.25 165.62,-102.25 165.62,-80 287.38,-80 287.38,-102.25"/>
<text xml:space="preserve" text-anchor="middle" x="226.5" y="-86.85" font-family="Helvetica,sans-Serif" font-size="12.00">BSP_WS2812_Poll</text>
</a>
</g>
</g>
<!-- Node1&#45;&gt;Node2 -->
<g id="edge1_Node000001_Node000002" class="edge">
<title>Node1&#45;&gt;Node2</title>
<g id="a_edge1_Node000001_Node000002"><a xlink:title=" ">
<path fill="none" stroke="#63b8ff" d="M107.34,-62.69C125.69,-67.11 146.84,-72.2 166.13,-76.84"/>
<polygon fill="#63b8ff" stroke="#63b8ff" points="165.22,-80.22 175.76,-79.16 166.86,-73.42 165.22,-80.22"/>
</a>
</g>
</g>
<!-- Node4 -->
<g id="Node000004" class="node">
<title>Node4</title>
<g id="a_Node000004"><a xlink:href="bsp__ws2812_8c.html#a14f4272e51ac6b64194ad2368ed44a71" target="_top" xlink:title="设置目标颜色（缓存，Poll 时发送）">
<polygon fill="white" stroke="#666666" points="300.5,-62.25 152.5,-62.25 152.5,-40 300.5,-40 300.5,-62.25"/>
<text xml:space="preserve" text-anchor="middle" x="226.5" y="-46.85" font-family="Helvetica,sans-Serif" font-size="12.00">BSP_WS2812_SetColor</text>
</a>
</g>
</g>
<!-- Node1&#45;&gt;Node4 -->
<g id="edge3_Node000001_Node000004" class="edge">
<title>Node1&#45;&gt;Node4</title>
<g id="a_edge3_Node000001_Node000004"><a xlink:title=" ">
<path fill="none" stroke="#63b8ff" d="M116.93,-51.12C124.64,-51.12 132.68,-51.12 140.74,-51.12"/>
<polygon fill="#63b8ff" stroke="#63b8ff" points="140.6,-54.63 150.6,-51.13 140.6,-47.63 140.6,-54.63"/>
</a>
</g>
</g>
<!-- Node6 -->
<g id="Node000006" class="node">
<title>Node6</title>
<g id="a_Node000006"><a xlink:href="main_8c.html#a1730ffe1e560465665eb47d9264826f9" target="_top" xlink:title="This function is executed in case of error occurrence.">
<polygon fill="white" stroke="#666666" points="272.38,-22.25 180.62,-22.25 180.62,0 272.38,0 272.38,-22.25"/>
<text xml:space="preserve" text-anchor="middle" x="226.5" y="-6.85" font-family="Helvetica,sans-Serif" font-size="12.00">Error_Handler</text>
</a>
</g>
</g>
<!-- Node1&#45;&gt;Node6 -->
<g id="edge5_Node000001_Node000006" class="edge">
<title>Node1&#45;&gt;Node6</title>
<g id="a_edge5_Node000001_Node000006"><a xlink:title=" ">
<path fill="none" stroke="#63b8ff" d="M107.34,-39.56C126.76,-34.88 149.3,-29.46 169.46,-24.61"/>
<polygon fill="#63b8ff" stroke="#63b8ff" points="170,-28.08 178.9,-22.34 168.36,-21.27 170,-28.08"/>
</a>
</g>
</g>
<!-- Node3 -->
<g id="Node000003" class="node">
<title>Node3</title>
<g id="a_Node000003"><a xlink:href="bsp__ws2812_8c.html#af78d71e38b5babd81761d5c6e92f6acf" target="_top" xlink:title="将 24bit 颜色编码为 CCR 序列">
<polygon fill="white" stroke="#666666" points="495.38,-102.25 353.38,-102.25 353.38,-80 495.38,-80 495.38,-102.25"/>
<text xml:space="preserve" text-anchor="middle" x="424.38" y="-86.85" font-family="Helvetica,sans-Serif" font-size="12.00">BSP_WS2812_Encode</text>
</a>
</g>
</g>
<!-- Node2&#45;&gt;Node3 -->
<g id="edge2_Node000002_Node000003" class="edge">
<title>Node2&#45;&gt;Node3</title>
<g id="a_edge2_Node000002_Node000003"><a xlink:title=" ">
<path fill="none" stroke="#63b8ff" d="M287.87,-91.12C304.82,-91.12 323.55,-91.12 341.53,-91.12"/>
<polygon fill="#63b8ff" stroke="#63b8ff" points="341.39,-94.63 351.39,-91.13 341.39,-87.63 341.39,-94.63"/>
</a>
</g>
</g>
<!-- Node5 -->
<g id="Node000005" class="node">
<title>Node5</title>
<g id="a_Node000005"><a xlink:href="bsp__ws2812_8c.html#a414a0748f0ef37a68dc8383d5356ddf6" target="_top" xlink:title="按亮度缩放当前颜色并生成发送序颜色字，标记待发送">
<polygon fill="white" stroke="#666666" points="512.25,-62.25 336.5,-62.25 336.5,-40 512.25,-40 512.25,-62.25"/>
<text xml:space="preserve" text-anchor="middle" x="424.38" y="-46.85" font-family="Helvetica,sans-Serif" font-size="12.00">BSP_WS2812_RefreshTarget</text>
</a>
</g>
</g>
<!-- Node4&#45;&gt;Node5 -->
<g id="edge4_Node000004_Node000005" class="edge">
<title>Node4&#45;&gt;Node5</title>
<g id="a_edge4_Node000004_Node000005"><a xlink:title=" ">
<path fill="none" stroke="#63b8ff" d="M300.99,-51.12C308.81,-51.12 316.86,-51.12 324.91,-51.12"/>
<polygon fill="#63b8ff" stroke="#63b8ff" points="324.75,-54.63 334.75,-51.13 324.75,-47.63 324.75,-54.63"/>
</a>
</g>
</g>
</g>
</svg>
