<?xml version="1.0" encoding="UTF-8" standalone="no"?>
<!DOCTYPE svg PUBLIC "-//W3C//DTD SVG 1.1//EN"
 "http://www.w3.org/Graphics/SVG/1.1/DTD/svg11.dtd">
<!-- Generated by graphviz version 15.1.0 (20260618.0150)
 -->
<!-- Title: Application/bsp/bsp_flash.c Pages: 1 -->
<svg width="208pt" height="219pt"
 viewBox="0.00 0.00 208.00 219.00" xmlns="http://www.w3.org/2000/svg" xmlns:xlink="http://www.w3.org/1999/xlink">

<svg id="main" version="1.1" xmlns="http://www.w3.org/2000/svg" xmlns:xlink="http://www.w3.org/1999/xlink" xml:space="preserve">

<style type="text/css"><![CDATA[
.node, .edge {opacity: 0.7;}
.node.selected, .edge.selected {opacity: 1;}
.edge:hover path { stroke: red; }
.edge:hover polygon { stroke: red; fill: red; }
]]></style>
<script type="application/ecmascript" xlink:href="svg.min.js"/>
<svg id="graph" class="graph">
<g id="graph0" class="graph" transform="scale(1 1) rotate(0) translate(4 215.25)">
<title>Application/bsp/bsp_flash.c</title>
<!-- Node1 -->
<g id="Node000001" class="node">
<title>Node1</title>
<g id="a_Node000001"><a xlink:title="片内 Flash 参数持久化 BSP">
<polygon fill="#999999" stroke="#666666" points="190.88,-211.25 69.88,-211.25 69.88,-174.75 190.88,-174.75 190.88,-211.25"/>
<text xml:space="preserve" text-anchor="start" x="77.88" y="-195.85" font-family="Helvetica,sans-Serif" font-size="12.00">Application/bsp/bsp</text>
<text xml:space="preserve" text-anchor="middle" x="130.38" y="-181.6" font-family="Helvetica,sans-Serif" font-size="12.00">_flash.c</text>
</a>
</g>
</g>
<!-- Node2 -->
<g id="Node000002" class="node">
<title>Node2</title>
<g id="a_Node000002"><a xlink:href="bsp__flash_8h.html" target="_top" xlink:title="片内 Flash 参数持久化 BSP 头文件">
<polygon fill="white" stroke="#666666" points="127.12,-138.75 49.62,-138.75 49.62,-116.5 127.12,-116.5 127.12,-138.75"/>
<text xml:space="preserve" text-anchor="middle" x="88.38" y="-123.35" font-family="Helvetica,sans-Serif" font-size="12.00">bsp_flash.h</text>
</a>
</g>
</g>
<!-- Node1&#45;&gt;Node2 -->
<g id="edge1_Node000001_Node000002" class="edge">
<title>Node1&#45;&gt;Node2</title>
<g id="a_edge1_Node000001_Node000002"><a xlink:title=" ">
<path fill="none" stroke="#63b8ff" d="M118.68,-174.35C113.42,-166.41 107.19,-157.01 101.75,-148.8"/>
<polygon fill="#63b8ff" stroke="#63b8ff" points="104.69,-146.91 96.25,-140.51 98.86,-150.77 104.69,-146.91"/>
</a>
</g>
</g>
<!-- Node6 -->
<g id="Node000006" class="node">
<title>Node6</title>
<g id="a_Node000006"><a xlink:title=" ">
<polygon fill="#e0e0e0" stroke="#999999" points="199.88,-138.75 144.88,-138.75 144.88,-116.5 199.88,-116.5 199.88,-138.75"/>
<text xml:space="preserve" text-anchor="middle" x="172.38" y="-123.35" font-family="Helvetica,sans-Serif" font-size="12.00">string.h</text>
</a>
</g>
</g>
<!-- Node1&#45;&gt;Node6 -->
<g id="edge5_Node000001_Node000006" class="edge">
<title>Node1&#45;&gt;Node6</title>
<g id="a_edge5_Node000001_Node000006"><a xlink:title=" ">
<path fill="none" stroke="#63b8ff" d="M142.07,-174.35C147.33,-166.41 153.56,-157.01 159,-148.8"/>
<polygon fill="#63b8ff" stroke="#63b8ff" points="161.89,-150.77 164.5,-140.51 156.06,-146.91 161.89,-150.77"/>
</a>
</g>
</g>
<!-- Node3 -->
<g id="Node000003" class="node">
<title>Node3</title>
<g id="a_Node000003"><a xlink:href="main_8h.html" target="_top" xlink:title=": Header for main.c file.">
<polygon fill="white" stroke="#666666" points="79.38,-80.5 27.38,-80.5 27.38,-58.25 79.38,-58.25 79.38,-80.5"/>
<text xml:space="preserve" text-anchor="middle" x="53.38" y="-65.1" font-family="Helvetica,sans-Serif" font-size="12.00">main.h</text>
</a>
</g>
</g>
<!-- Node2&#45;&gt;Node3 -->
<g id="edge2_Node000002_Node000003" class="edge">
<title>Node2&#45;&gt;Node3</title>
<g id="a_edge2_Node000002_Node000003"><a xlink:title=" ">
<path fill="none" stroke="#63b8ff" d="M81.79,-116.04C77.34,-108.9 71.33,-99.23 65.98,-90.63"/>
<polygon fill="#63b8ff" stroke="#63b8ff" points="68.98,-88.83 60.73,-82.19 63.04,-92.53 68.98,-88.83"/>
</a>
</g>
</g>
<!-- Node5 -->
<g id="Node000005" class="node">
<title>Node5</title>
<g id="a_Node000005"><a xlink:title=" ">
<polygon fill="#e0e0e0" stroke="#999999" points="151.5,-80.5 97.25,-80.5 97.25,-58.25 151.5,-58.25 151.5,-80.5"/>
<text xml:space="preserve" text-anchor="middle" x="124.38" y="-65.1" font-family="Helvetica,sans-Serif" font-size="12.00">stdint.h</text>
</a>
</g>
</g>
<!-- Node2&#45;&gt;Node5 -->
<g id="edge4_Node000002_Node000005" class="edge">
<title>Node2&#45;&gt;Node5</title>
<g id="a_edge4_Node000002_Node000005"><a xlink:title=" ">
<path fill="none" stroke="#63b8ff" d="M95.15,-116.04C99.77,-108.82 106.05,-99.01 111.59,-90.34"/>
<polygon fill="#63b8ff" stroke="#63b8ff" points="114.38,-92.49 116.82,-82.18 108.48,-88.72 114.38,-92.49"/>
</a>
</g>
</g>
<!-- Node4 -->
<g id="Node000004" class="node">
<title>Node4</title>
<g id="a_Node000004"><a xlink:title=" ">
<polygon fill="#e0e0e0" stroke="#999999" points="106.75,-22.25 0,-22.25 0,0 106.75,0 106.75,-22.25"/>
<text xml:space="preserve" text-anchor="middle" x="53.38" y="-6.85" font-family="Helvetica,sans-Serif" font-size="12.00">stm32g4xx_hal.h</text>
</a>
</g>
</g>
<!-- Node3&#45;&gt;Node4 -->
<g id="edge3_Node000003_Node000004" class="edge">
<title>Node3&#45;&gt;Node4</title>
<g id="a_edge3_Node000003_Node000004"><a xlink:title=" ">
<path fill="none" stroke="#63b8ff" d="M53.38,-57.79C53.38,-51.12 53.38,-42.24 53.38,-34.09"/>
<polygon fill="#63b8ff" stroke="#63b8ff" points="56.88,-34.17 53.38,-24.17 49.88,-34.17 56.88,-34.17"/>
</a>
</g>
</g>
</g>
</svg>
</svg>

<style type='text/css'>
<![CDATA[
[data-mouse-over-selected='false'] { opacity: 0.7; }
[data-mouse-over-selected='true']  { opacity: 1.0; }
]]>
</style>
<script type="application/ecmascript"><![CDATA[
document.addEventListener('DOMContentLoaded', (event) => {
  highlightEdges();
  highlightAdjacentNodes();
});
]]></script>
</svg>
