<?xml version="1.0" encoding="UTF-8" standalone="no"?>
<!DOCTYPE svg PUBLIC "-//W3C//DTD SVG 1.1//EN"
 "http://www.w3.org/Graphics/SVG/1.1/DTD/svg11.dtd">
<!-- Generated by graphviz version 15.1.0 (20260618.0150)
 -->
<!-- Title: Application/bsp/bsp_can.c Pages: 1 -->
<svg width="266pt" height="219pt"
 viewBox="0.00 0.00 266.00 219.00" xmlns="http://www.w3.org/2000/svg" xmlns:xlink="http://www.w3.org/1999/xlink">

<svg id="main" version="1.1" xmlns="http://www.w3.org/2000/svg" xmlns:xlink="http://www.w3.org/1999/xlink" xml:space="preserve">

<style type="text/css"><![CDATA[
.node, .edge {opacity: 0.7;}
.node.selected, .edge.selected {opacity: 1;}
.edge:hover path { stroke: red; }
.edge:hover polygon { stroke: red; fill: red; }
]]></style>
<script type="application/ecmascript" xlink:href="svg.min.js"/>
<svg id="graph" class="graph">
<g id="graph0" class="graph" transform="scale(1 1) rotate(0) translate(4 215.25)">
<title>Application/bsp/bsp_can.c</title>
<!-- Node1 -->
<g id="Node000001" class="node">
<title>Node1</title>
<g id="a_Node000001"><a xlink:title="FDCAN1 通信 BSP（经典 CAN 模式）">
<polygon fill="#999999" stroke="#666666" points="198.25,-211.25 77.25,-211.25 77.25,-174.75 198.25,-174.75 198.25,-211.25"/>
<text xml:space="preserve" text-anchor="start" x="85.25" y="-195.85" font-family="Helvetica,sans-Serif" font-size="12.00">Application/bsp/bsp</text>
<text xml:space="preserve" text-anchor="middle" x="137.75" y="-181.6" font-family="Helvetica,sans-Serif" font-size="12.00">_can.c</text>
</a>
</g>
</g>
<!-- Node2 -->
<g id="Node000002" class="node">
<title>Node2</title>
<g id="a_Node000002"><a xlink:href="bsp__can_8h.html" target="_top" xlink:title="FDCAN1 通信 BSP 头文件（经典 CAN 模式）">
<polygon fill="white" stroke="#666666" points="71.5,-138.75 0,-138.75 0,-116.5 71.5,-116.5 71.5,-138.75"/>
<text xml:space="preserve" text-anchor="middle" x="35.75" y="-123.35" font-family="Helvetica,sans-Serif" font-size="12.00">bsp_can.h</text>
</a>
</g>
</g>
<!-- Node1&#45;&gt;Node2 -->
<g id="edge1_Node000001_Node000002" class="edge">
<title>Node1&#45;&gt;Node2</title>
<g id="a_edge1_Node000001_Node000002"><a xlink:title=" ">
<path fill="none" stroke="#63b8ff" d="M109.34,-174.35C94.59,-165.18 76.67,-154.05 62.22,-145.07"/>
<polygon fill="#63b8ff" stroke="#63b8ff" points="64.47,-142.35 54.13,-140.04 60.77,-148.29 64.47,-142.35"/>
</a>
</g>
</g>
<!-- Node6 -->
<g id="Node000006" class="node">
<title>Node6</title>
<g id="a_Node000006"><a xlink:href="board__config_8h.html" target="_top" xlink:title="板级硬件参数统一配置（GIM4310/4305 电机控制器 V0.0 板）">
<polygon fill="white" stroke="#666666" points="185.5,-138.75 90,-138.75 90,-116.5 185.5,-116.5 185.5,-138.75"/>
<text xml:space="preserve" text-anchor="middle" x="137.75" y="-123.35" font-family="Helvetica,sans-Serif" font-size="12.00">board_config.h</text>
</a>
</g>
</g>
<!-- Node1&#45;&gt;Node6 -->
<g id="edge5_Node000001_Node000006" class="edge">
<title>Node1&#45;&gt;Node6</title>
<g id="a_edge5_Node000001_Node000006"><a xlink:title=" ">
<path fill="none" stroke="#63b8ff" d="M137.75,-174.35C137.75,-167.03 137.75,-158.47 137.75,-150.74"/>
<polygon fill="#63b8ff" stroke="#63b8ff" points="141.25,-150.76 137.75,-140.76 134.25,-150.76 141.25,-150.76"/>
</a>
</g>
</g>
<!-- Node7 -->
<g id="Node000007" class="node">
<title>Node7</title>
<g id="a_Node000007"><a xlink:href="fdcan_8h.html" target="_top" xlink:title="This file contains all the function prototypes for the fdcan.c file">
<polygon fill="white" stroke="#666666" points="258.25,-138.75 203.25,-138.75 203.25,-116.5 258.25,-116.5 258.25,-138.75"/>
<text xml:space="preserve" text-anchor="middle" x="230.75" y="-123.35" font-family="Helvetica,sans-Serif" font-size="12.00">fdcan.h</text>
</a>
</g>
</g>
<!-- Node1&#45;&gt;Node7 -->
<g id="edge6_Node000001_Node000007" class="edge">
<title>Node1&#45;&gt;Node7</title>
<g id="a_edge6_Node000001_Node000007"><a xlink:title=" ">
<path fill="none" stroke="#63b8ff" d="M163.66,-174.35C176.85,-165.36 192.81,-154.48 205.85,-145.59"/>
<polygon fill="#63b8ff" stroke="#63b8ff" points="207.62,-148.62 213.92,-140.1 203.68,-142.84 207.62,-148.62"/>
</a>
</g>
</g>
<!-- Node3 -->
<g id="Node000003" class="node">
<title>Node3</title>
<g id="a_Node000003"><a xlink:href="main_8h.html" target="_top" xlink:title=": Header for main.c file.">
<polygon fill="white" stroke="#666666" points="194.75,-80.5 142.75,-80.5 142.75,-58.25 194.75,-58.25 194.75,-80.5"/>
<text xml:space="preserve" text-anchor="middle" x="168.75" y="-65.1" font-family="Helvetica,sans-Serif" font-size="12.00">main.h</text>
</a>
</g>
</g>
<!-- Node2&#45;&gt;Node3 -->
<g id="edge2_Node000002_Node000003" class="edge">
<title>Node2&#45;&gt;Node3</title>
<g id="a_edge2_Node000002_Node000003"><a xlink:title=" ">
<path fill="none" stroke="#63b8ff" d="M60.77,-116.04C81.29,-107.36 110.6,-94.97 133.51,-85.28"/>
<polygon fill="#63b8ff" stroke="#63b8ff" points="134.61,-88.62 142.45,-81.5 131.88,-82.17 134.61,-88.62"/>
</a>
</g>
</g>
<!-- Node5 -->
<g id="Node000005" class="node">
<title>Node5</title>
<g id="a_Node000005"><a xlink:title=" ">
<polygon fill="#e0e0e0" stroke="#999999" points="62.88,-80.5 8.62,-80.5 8.62,-58.25 62.88,-58.25 62.88,-80.5"/>
<text xml:space="preserve" text-anchor="middle" x="35.75" y="-65.1" font-family="Helvetica,sans-Serif" font-size="12.00">stdint.h</text>
</a>
</g>
</g>
<!-- Node2&#45;&gt;Node5 -->
<g id="edge4_Node000002_Node000005" class="edge">
<title>Node2&#45;&gt;Node5</title>
<g id="a_edge4_Node000002_Node000005"><a xlink:title=" ">
<path fill="none" stroke="#63b8ff" d="M35.75,-116.04C35.75,-109.37 35.75,-100.49 35.75,-92.34"/>
<polygon fill="#63b8ff" stroke="#63b8ff" points="39.25,-92.42 35.75,-82.42 32.25,-92.42 39.25,-92.42"/>
</a>
</g>
</g>
<!-- Node4 -->
<g id="Node000004" class="node">
<title>Node4</title>
<g id="a_Node000004"><a xlink:title=" ">
<polygon fill="#e0e0e0" stroke="#999999" points="222.12,-22.25 115.38,-22.25 115.38,0 222.12,0 222.12,-22.25"/>
<text xml:space="preserve" text-anchor="middle" x="168.75" y="-6.85" font-family="Helvetica,sans-Serif" font-size="12.00">stm32g4xx_hal.h</text>
</a>
</g>
</g>
<!-- Node3&#45;&gt;Node4 -->
<g id="edge3_Node000003_Node000004" class="edge">
<title>Node3&#45;&gt;Node4</title>
<g id="a_edge3_Node000003_Node000004"><a xlink:title=" ">
<path fill="none" stroke="#63b8ff" d="M168.75,-57.79C168.75,-51.12 168.75,-42.24 168.75,-34.09"/>
<polygon fill="#63b8ff" stroke="#63b8ff" points="172.25,-34.17 168.75,-24.17 165.25,-34.17 172.25,-34.17"/>
</a>
</g>
</g>
<!-- Node7&#45;&gt;Node3 -->
<g id="edge7_Node000007_Node000003" class="edge">
<title>Node7&#45;&gt;Node3</title>
<g id="a_edge7_Node000007_Node000003"><a xlink:title=" ">
<path fill="none" stroke="#63b8ff" d="M219.09,-116.04C210.52,-108.27 198.66,-97.51 188.6,-88.39"/>
<polygon fill="#63b8ff" stroke="#63b8ff" points="191.24,-86.05 181.48,-81.92 186.53,-91.24 191.24,-86.05"/>
</a>
</g>
</g>
</g>
</svg>
</svg>

<style type='text/css'>
<![CDATA[
[data-mouse-over-selected='false'] { opacity: 0.7; }
[data-mouse-over-selected='true']  { opacity: 1.0; }
]]>
</style>
<script type="application/ecmascript"><![CDATA[
document.addEventListener('DOMContentLoaded', (event) => {
  highlightEdges();
  highlightAdjacentNodes();
});
]]></script>
</svg>
