<?xml version="1.0" encoding="UTF-8" standalone="no"?>
<!DOCTYPE svg PUBLIC "-//W3C//DTD SVG 1.1//EN"
 "http://www.w3.org/Graphics/SVG/1.1/DTD/svg11.dtd">
<!-- Generated by graphviz version 15.1.0 (20260618.0150)
 -->
<!-- Title: BSP_ENC_Read Pages: 1 -->
<svg width="630pt" height="110pt"
 viewBox="0.00 0.00 630.00 110.00" xmlns="http://www.w3.org/2000/svg" xmlns:xlink="http://www.w3.org/1999/xlink">
<g id="graph0" class="graph" transform="scale(1 1) rotate(0) translate(4 106.25)">
<title>BSP_ENC_Read</title>
<!-- Node1 -->
<g id="Node000001" class="node">
<title>Node1</title>
<g id="a_Node000001"><a xlink:title="读取一次编码器角度（ISR 安全，阻塞约 5us）">
<polygon fill="#999999" stroke="#666666" points="621.5,-81.25 511.75,-81.25 511.75,-59 621.5,-59 621.5,-81.25"/>
<text xml:space="preserve" text-anchor="middle" x="566.62" y="-65.85" font-family="Helvetica,sans-Serif" font-size="12.00">BSP_ENC_Read</text>
</a>
</g>
</g>
<!-- Node2 -->
<g id="Node000002" class="node">
<title>Node2</title>
<g id="a_Node000002"><a xlink:href="bsp__encoder_8c.html#a9f9d4545ad55a3bc5bc15920257754d3" target="_top" xlink:title="预置编码器状态（上电首读，避免多圈计数误跳）">
<polygon fill="white" stroke="#666666" points="475.75,-62.25 353.25,-62.25 353.25,-40 475.75,-40 475.75,-62.25"/>
<text xml:space="preserve" text-anchor="middle" x="414.5" y="-46.85" font-family="Helvetica,sans-Serif" font-size="12.00">BSP_ENC_Preload</text>
</a>
</g>
</g>
<!-- Node1&#45;&gt;Node2 -->
<g id="edge1_Node000001_Node000002" class="edge">
<title>Node1&#45;&gt;Node2</title>
<g id="a_edge1_Node000001_Node000002"><a xlink:title=" ">
<path fill="none" stroke="#63b8ff" d="M500.27,-61.85C492.29,-60.84 484.15,-59.81 476.24,-58.81"/>
<polygon fill="#63b8ff" stroke="#63b8ff" points="499.56,-65.29 509.92,-63.08 500.44,-58.35 499.56,-65.29"/>
</a>
</g>
</g>
<!-- Node3 -->
<g id="Node000003" class="node">
<title>Node3</title>
<g id="a_Node000003"><a xlink:href="motor__ctrl_8c.html#a5c982a7374da291bb0e5d06d26893def" target="_top" xlink:title="FOC 主循环（ADC 注入完成 ISR，20kHz）">
<polygon fill="white" stroke="#666666" points="290.25,-102.25 215.75,-102.25 215.75,-80 290.25,-80 290.25,-102.25"/>
<text xml:space="preserve" text-anchor="middle" x="253" y="-86.85" font-family="Helvetica,sans-Serif" font-size="12.00">MC_FocIsr</text>
</a>
</g>
</g>
<!-- Node1&#45;&gt;Node3 -->
<g id="edge10_Node000001_Node000003" class="edge">
<title>Node1&#45;&gt;Node3</title>
<g id="a_edge10_Node000001_Node000003"><a xlink:title=" ">
<path fill="none" stroke="#63b8ff" d="M500.22,-74.53C436.54,-78.82 342.06,-85.19 290.62,-88.66"/>
<polygon fill="#63b8ff" stroke="#63b8ff" points="500.09,-78.05 509.83,-73.88 499.62,-71.07 500.09,-78.05"/>
</a>
</g>
</g>
<!-- Node2&#45;&gt;Node3 -->
<g id="edge2_Node000002_Node000003" class="edge">
<title>Node2&#45;&gt;Node3</title>
<g id="a_edge2_Node000002_Node000003"><a xlink:title=" ">
<path fill="none" stroke="#63b8ff" d="M356.21,-65.49C334.37,-70.97 310.09,-77.06 290.67,-81.93"/>
<polygon fill="#63b8ff" stroke="#63b8ff" points="357.05,-68.89 365.9,-63.06 355.35,-62.1 357.05,-68.89"/>
</a>
</g>
</g>
<!-- Node6 -->
<g id="Node000006" class="node">
<title>Node6</title>
<g id="a_Node000006"><a xlink:href="motor__ctrl_8c.html#a6289107a27126667fef8194dc34ad71f" target="_top" xlink:title="初始化电机控制模块">
<polygon fill="white" stroke="#666666" points="281.62,-62.25 224.38,-62.25 224.38,-40 281.62,-40 281.62,-62.25"/>
<text xml:space="preserve" text-anchor="middle" x="253" y="-46.85" font-family="Helvetica,sans-Serif" font-size="12.00">MC_Init</text>
</a>
</g>
</g>
<!-- Node2&#45;&gt;Node6 -->
<g id="edge5_Node000002_Node000006" class="edge">
<title>Node2&#45;&gt;Node6</title>
<g id="a_edge5_Node000002_Node000006"><a xlink:title=" ">
<path fill="none" stroke="#63b8ff" d="M341.85,-51.12C320.58,-51.12 298.54,-51.12 281.85,-51.12"/>
<polygon fill="#63b8ff" stroke="#63b8ff" points="341.69,-54.63 351.69,-51.13 341.69,-47.63 341.69,-54.63"/>
</a>
</g>
</g>
<!-- Node7 -->
<g id="Node000007" class="node">
<title>Node7</title>
<g id="a_Node000007"><a xlink:href="motor__ctrl_8c.html#a9c872c216c8943d5ba135b71957aea31" target="_top" xlink:title="重建编码器多圈基准并保持用户位置连续（参数落盘后调用）">
<polygon fill="white" stroke="#666666" points="317.25,-22.25 188.75,-22.25 188.75,0 317.25,0 317.25,-22.25"/>
<text xml:space="preserve" text-anchor="middle" x="253" y="-6.85" font-family="Helvetica,sans-Serif" font-size="12.00">MC_RebaseEncoder</text>
</a>
</g>
</g>
<!-- Node2&#45;&gt;Node7 -->
<g id="edge7_Node000002_Node000007" class="edge">
<title>Node2&#45;&gt;Node7</title>
<g id="a_edge7_Node000002_Node000007"><a xlink:title=" ">
<path fill="none" stroke="#63b8ff" d="M356.2,-36.76C337.85,-32.15 317.77,-27.12 300.31,-22.74"/>
<polygon fill="#63b8ff" stroke="#63b8ff" points="355.35,-40.15 365.9,-39.19 357.05,-33.36 355.35,-40.15"/>
</a>
</g>
</g>
<!-- Node4 -->
<g id="Node000004" class="node">
<title>Node4</title>
<g id="a_Node000004"><a xlink:href="app__main_8c.html#a4759d3fdff6b33e2c0a0ae151452112f" target="_top" xlink:title="应用初始化（main 的 USER CODE BEGIN 2 调用）">
<polygon fill="white" stroke="#666666" points="147.12,-62.25 83.88,-62.25 83.88,-40 147.12,-40 147.12,-62.25"/>
<text xml:space="preserve" text-anchor="middle" x="115.5" y="-46.85" font-family="Helvetica,sans-Serif" font-size="12.00">APP_Init</text>
</a>
</g>
</g>
<!-- Node3&#45;&gt;Node4 -->
<g id="edge3_Node000003_Node000004" class="edge">
<title>Node3&#45;&gt;Node4</title>
<g id="a_edge3_Node000003_Node000004"><a xlink:title=" ">
<path fill="none" stroke="#63b8ff" d="M204.47,-77.09C185.47,-71.48 164.14,-65.19 147.24,-60.2"/>
<polygon fill="#63b8ff" stroke="#63b8ff" points="203.3,-80.4 213.88,-79.87 205.28,-73.68 203.3,-80.4"/>
</a>
</g>
</g>
<!-- Node5 -->
<g id="Node000005" class="node">
<title>Node5</title>
<g id="a_Node000005"><a xlink:href="main_8c.html#a840291bc02cba5474a4cb46a9b9566fe" target="_top" xlink:title="The application entry point.">
<polygon fill="white" stroke="#666666" points="42.25,-42.25 0,-42.25 0,-20 42.25,-20 42.25,-42.25"/>
<text xml:space="preserve" text-anchor="middle" x="21.12" y="-26.85" font-family="Helvetica,sans-Serif" font-size="12.00">main</text>
</a>
</g>
</g>
<!-- Node4&#45;&gt;Node5 -->
<g id="edge4_Node000004_Node000005" class="edge">
<title>Node4&#45;&gt;Node5</title>
<g id="a_edge4_Node000004_Node000005"><a xlink:title=" ">
<path fill="none" stroke="#63b8ff" d="M72.48,-42.03C62.15,-39.79 51.54,-37.49 42.74,-35.59"/>
<polygon fill="#63b8ff" stroke="#63b8ff" points="71.49,-45.39 82,-44.09 72.97,-38.55 71.49,-45.39"/>
</a>
</g>
</g>
<!-- Node6&#45;&gt;Node4 -->
<g id="edge6_Node000006_Node000004" class="edge">
<title>Node6&#45;&gt;Node4</title>
<g id="a_edge6_Node000006_Node000004"><a xlink:title=" ">
<path fill="none" stroke="#63b8ff" d="M212.59,-51.12C191.82,-51.12 166.71,-51.12 147.37,-51.12"/>
<polygon fill="#63b8ff" stroke="#63b8ff" points="212.41,-54.63 222.41,-51.13 212.41,-47.63 212.41,-54.63"/>
</a>
</g>
</g>
<!-- Node8 -->
<g id="Node000008" class="node">
<title>Node8</title>
<g id="a_Node000008"><a xlink:href="app__main_8c.html#a6709d26bb67f905916b7c7f048b8396c" target="_top" xlink:title="后台超级循环体（main 的 while(1) 内调用）">
<polygon fill="white" stroke="#666666" points="152.75,-22.25 78.25,-22.25 78.25,0 152.75,0 152.75,-22.25"/>
<text xml:space="preserve" text-anchor="middle" x="115.5" y="-6.85" font-family="Helvetica,sans-Serif" font-size="12.00">APP_Loop</text>
</a>
</g>
</g>
<!-- Node7&#45;&gt;Node8 -->
<g id="edge8_Node000007_Node000008" class="edge">
<title>Node7&#45;&gt;Node8</title>
<g id="a_edge8_Node000007_Node000008"><a xlink:title=" ">
<path fill="none" stroke="#63b8ff" d="M177.24,-11.12C168.93,-11.12 160.76,-11.12 153.25,-11.12"/>
<polygon fill="#63b8ff" stroke="#63b8ff" points="177.1,-14.63 187.1,-11.13 177.1,-7.63 177.1,-14.63"/>
</a>
</g>
</g>
<!-- Node8&#45;&gt;Node5 -->
<g id="edge9_Node000008_Node000005" class="edge">
<title>Node8&#45;&gt;Node5</title>
<g id="a_edge9_Node000008_Node000005"><a xlink:title=" ">
<path fill="none" stroke="#63b8ff" d="M66.86,-21.44C58.35,-23.28 49.91,-25.11 42.69,-26.67"/>
<polygon fill="#63b8ff" stroke="#63b8ff" points="67.48,-24.89 76.51,-19.35 66,-18.05 67.48,-24.89"/>
</a>
</g>
</g>
</g>
</svg>
