<?xml version="1.0" encoding="UTF-8" standalone="no"?>
<!DOCTYPE svg PUBLIC "-//W3C//DTD SVG 1.1//EN"
 "http://www.w3.org/Graphics/SVG/1.1/DTD/svg11.dtd">
<!-- Generated by graphviz version 15.1.0 (20260618.0150)
 -->
<!-- Title: BSP_ENC_Preload Pages: 1 -->
<svg width="418pt" height="30pt"
 viewBox="0.00 0.00 418.00 30.00" xmlns="http://www.w3.org/2000/svg" xmlns:xlink="http://www.w3.org/1999/xlink">
<g id="graph0" class="graph" transform="scale(1 1) rotate(0) translate(4 26.25)">
<title>BSP_ENC_Preload</title>
<!-- Node1 -->
<g id="Node000001" class="node">
<title>Node1</title>
<g id="a_Node000001"><a xlink:title="预置编码器状态（上电首读，避免多圈计数误跳）">
<polygon fill="#999999" stroke="#666666" points="122.5,-22.25 0,-22.25 0,0 122.5,0 122.5,-22.25"/>
<text xml:space="preserve" text-anchor="middle" x="61.25" y="-6.85" font-family="Helvetica,sans-Serif" font-size="12.00">BSP_ENC_Preload</text>
</a>
</g>
</g>
<!-- Node2 -->
<g id="Node000002" class="node">
<title>Node2</title>
<g id="a_Node000002"><a xlink:href="bsp__encoder_8c.html#a952d9a4a6bd64cde7ae4b60a8757c430" target="_top" xlink:title="读取一次编码器角度（ISR 安全，阻塞约 5us）">
<polygon fill="white" stroke="#666666" points="268.25,-22.25 158.5,-22.25 158.5,0 268.25,0 268.25,-22.25"/>
<text xml:space="preserve" text-anchor="middle" x="213.38" y="-6.85" font-family="Helvetica,sans-Serif" font-size="12.00">BSP_ENC_Read</text>
</a>
</g>
</g>
<!-- Node1&#45;&gt;Node2 -->
<g id="edge1_Node000001_Node000002" class="edge">
<title>Node1&#45;&gt;Node2</title>
<g id="a_edge1_Node000001_Node000002"><a xlink:title=" ">
<path fill="none" stroke="#63b8ff" d="M122.88,-11.12C130.75,-11.12 138.85,-11.12 146.79,-11.12"/>
<polygon fill="#63b8ff" stroke="#63b8ff" points="146.78,-14.63 156.78,-11.13 146.78,-7.63 146.78,-14.63"/>
</a>
</g>
</g>
<!-- Node3 -->
<g id="Node000003" class="node">
<title>Node3</title>
<g id="a_Node000003"><a xlink:href="bsp__encoder_8c.html#a05a73d1c3440289f913db2b8a47a954a" target="_top" xlink:title="CRC6 计算（X^6 + X + 1，初值 0，MSB 先入）">
<polygon fill="white" stroke="#666666" points="410.25,-22.25 304.25,-22.25 304.25,0 410.25,0 410.25,-22.25"/>
<text xml:space="preserve" text-anchor="middle" x="357.25" y="-6.85" font-family="Helvetica,sans-Serif" font-size="12.00">BSP_ENC_Crc6</text>
</a>
</g>
</g>
<!-- Node2&#45;&gt;Node3 -->
<g id="edge2_Node000002_Node000003" class="edge">
<title>Node2&#45;&gt;Node3</title>
<g id="a_edge2_Node000002_Node000003"><a xlink:title=" ">
<path fill="none" stroke="#63b8ff" d="M268.42,-11.12C276.29,-11.12 284.47,-11.12 292.51,-11.12"/>
<polygon fill="#63b8ff" stroke="#63b8ff" points="292.25,-14.63 302.25,-11.13 292.25,-7.63 292.25,-14.63"/>
</a>
</g>
</g>
</g>
</svg>
