<?xml version="1.0" encoding="UTF-8" standalone="no"?>
<!DOCTYPE svg PUBLIC "-//W3C//DTD SVG 1.1//EN"
 "http://www.w3.org/Graphics/SVG/1.1/DTD/svg11.dtd">
<!-- Generated by graphviz version 15.1.0 (20260618.0150)
 -->
<!-- Title: BSP_CLOCK_ConfigPll Pages: 1 -->
<svg width="534pt" height="30pt"
 viewBox="0.00 0.00 534.00 30.00" xmlns="http://www.w3.org/2000/svg" xmlns:xlink="http://www.w3.org/1999/xlink">
<g id="graph0" class="graph" transform="scale(1 1) rotate(0) translate(4 26.25)">
<title>BSP_CLOCK_ConfigPll</title>
<!-- Node1 -->
<g id="Node000001" class="node">
<title>Node1</title>
<g id="a_Node000001"><a xlink:title="以指定源重配 PLL 并切回 PLL 供 SYSCLK">
<polygon fill="#999999" stroke="#666666" points="526,-22.25 380.25,-22.25 380.25,0 526,0 526,-22.25"/>
<text xml:space="preserve" text-anchor="middle" x="453.12" y="-6.85" font-family="Helvetica,sans-Serif" font-size="12.00">BSP_CLOCK_ConfigPll</text>
</a>
</g>
</g>
<!-- Node2 -->
<g id="Node000002" class="node">
<title>Node2</title>
<g id="a_Node000002"><a xlink:href="bsp__clock_8c.html#a539b951c20c5db62ae9d5812df9dff26" target="_top" xlink:title="切换系统时钟 PLL 源为 HSE">
<polygon fill="white" stroke="#666666" points="344.25,-22.25 177.5,-22.25 177.5,0 344.25,0 344.25,-22.25"/>
<text xml:space="preserve" text-anchor="middle" x="260.88" y="-6.85" font-family="Helvetica,sans-Serif" font-size="12.00">BSP_CLOCK_SwitchToHse</text>
</a>
</g>
</g>
<!-- Node1&#45;&gt;Node2 -->
<g id="edge1_Node000001_Node000002" class="edge">
<title>Node1&#45;&gt;Node2</title>
<g id="a_edge1_Node000001_Node000002"><a xlink:title=" ">
<path fill="none" stroke="#63b8ff" d="M368.42,-11.12C360.49,-11.12 352.46,-11.12 344.54,-11.12"/>
<polygon fill="#63b8ff" stroke="#63b8ff" points="368.41,-14.63 378.41,-11.13 368.41,-7.63 368.41,-14.63"/>
</a>
</g>
</g>
<!-- Node3 -->
<g id="Node000003" class="node">
<title>Node3</title>
<g id="a_Node000003"><a xlink:href="app__main_8c.html#a4759d3fdff6b33e2c0a0ae151452112f" target="_top" xlink:title="应用初始化（main 的 USER CODE BEGIN 2 调用）">
<polygon fill="white" stroke="#666666" points="141.5,-22.25 78.25,-22.25 78.25,0 141.5,0 141.5,-22.25"/>
<text xml:space="preserve" text-anchor="middle" x="109.88" y="-6.85" font-family="Helvetica,sans-Serif" font-size="12.00">APP_Init</text>
</a>
</g>
</g>
<!-- Node2&#45;&gt;Node3 -->
<g id="edge2_Node000002_Node000003" class="edge">
<title>Node2&#45;&gt;Node3</title>
<g id="a_edge2_Node000002_Node000003"><a xlink:title=" ">
<path fill="none" stroke="#63b8ff" d="M165.72,-11.12C157.19,-11.12 149.03,-11.12 141.74,-11.12"/>
<polygon fill="#63b8ff" stroke="#63b8ff" points="165.58,-14.63 175.58,-11.13 165.58,-7.63 165.58,-14.63"/>
</a>
</g>
</g>
<!-- Node4 -->
<g id="Node000004" class="node">
<title>Node4</title>
<g id="a_Node000004"><a xlink:href="main_8c.html#a840291bc02cba5474a4cb46a9b9566fe" target="_top" xlink:title="The application entry point.">
<polygon fill="white" stroke="#666666" points="42.25,-22.25 0,-22.25 0,0 42.25,0 42.25,-22.25"/>
<text xml:space="preserve" text-anchor="middle" x="21.12" y="-6.85" font-family="Helvetica,sans-Serif" font-size="12.00">main</text>
</a>
</g>
</g>
<!-- Node3&#45;&gt;Node4 -->
<g id="edge3_Node000003_Node000004" class="edge">
<title>Node3&#45;&gt;Node4</title>
<g id="a_edge3_Node000003_Node000004"><a xlink:title=" ">
<path fill="none" stroke="#63b8ff" d="M66.72,-11.12C58.3,-11.12 49.82,-11.12 42.54,-11.12"/>
<polygon fill="#63b8ff" stroke="#63b8ff" points="66.53,-14.63 76.53,-11.13 66.53,-7.63 66.53,-14.63"/>
</a>
</g>
</g>
</g>
</svg>
