<?xml version="1.0" encoding="UTF-8" standalone="no"?>
<!DOCTYPE svg PUBLIC "-//W3C//DTD SVG 1.1//EN"
 "http://www.w3.org/Graphics/SVG/1.1/DTD/svg11.dtd">
<!-- Generated by graphviz version 15.1.0 (20260618.0150)
 -->
<!-- Title: BSP_UART_KickDma Pages: 1 -->
<!--zoomable 463 -->

<svg id="main" version="1.1" xmlns="http://www.w3.org/2000/svg" xmlns:xlink="http://www.w3.org/1999/xlink" xml:space="preserve" onload="init(evt)">

<style type="text/css"><![CDATA[
.node, .edge {opacity: 0.7;}
.node.selected, .edge.selected {opacity: 1;}
.edge:hover path { stroke: red; }
.edge:hover polygon { stroke: red; fill: red; }
]]></style>

<defs>
  <circle id="rim" cx="0" cy="0" r="7"/>
  <circle id="rim2" cx="0" cy="0" r="3.5"/>
  <g id="zoomPlus">
    <use xlink:href="#rim" fill="#404040"><set attributeName="fill" to="#808080" begin="zoomplus.mouseover" end="zoomplus.mouseout"/></use>
    <path d="M-4,0h8M0,-4v8" fill="none" stroke="white" stroke-width="1.5" pointer-events="none"/>
  </g>
  <g id="zoomMin">
    <use xlink:href="#rim" fill="#404040"><set attributeName="fill" to="#808080" begin="zoomminus.mouseover" end="zoomminus.mouseout"/></use>
    <path d="M-4,0h8" fill="none" stroke="white" stroke-width="1.5" pointer-events="none"/>
  </g>
  <g id="arrowUp" transform="translate(30 24)">
    <use xlink:href="#rim"/>
    <path pointer-events="none" fill="none" stroke="white" stroke-width="1.5" d="M0,-3.0v7 M-2.5,-0.5L0,-3.0L2.5,-0.5"/>
  </g>
  <g id="arrowRight" transform="rotate(90) translate(36 -43)">
    <use xlink:href="#rim"/>
    <path pointer-events="none" fill="none" stroke="white" stroke-width="1.5" d="M0,-3.0v7 M-2.5,-0.5L0,-3.0L2.5,-0.5"/>
  </g>
  <g id="arrowDown" transform="rotate(180) translate(-30 -48)">
    <use xlink:href="#rim"/>
    <path pointer-events="none" fill="none" stroke="white" stroke-width="1.5" d="M0,-3.0v7 M-2.5,-0.5L0,-3.0L2.5,-0.5"/>
  </g>
  <g id="arrowLeft" transform="rotate(270) translate(-36 17)">
    <use xlink:href="#rim"/>
    <path pointer-events="none" fill="none" stroke="white" stroke-width="1.5" d="M0,-3.0v7 M-2.5,-0.5L0,-3.0L2.5,-0.5"/>
  </g>
  <g id="resetDef">
    <use xlink:href="#rim2" fill="#404040"><set attributeName="fill" to="#808080" begin="reset.mouseover" end="reset.mouseout"/></use>
  </g>
</defs>
<script type="application/ecmascript">
var viewWidth = 1194;
var viewHeight = 463;
var sectionId = 'dynsection-6';
</script>
<script type="application/ecmascript" xlink:href="svg.min.js"/>
<svg id="graph" class="graph">
<g id="viewport">
<title>BSP_UART_KickDma</title>
<!-- Node1 -->
<g id="Node000001" class="node">
<title>Node1</title>
<g id="a_Node000001"><a xlink:title="若 DMA 空闲且缓冲有数据，则启动下一段 DMA 传输">
<polygon fill="#999999" stroke="#666666" points="1185.5,-356.77 1049.5,-356.77 1049.5,-334.52 1185.5,-334.52 1185.5,-356.77"/>
<text xml:space="preserve" text-anchor="middle" x="1117.5" y="-341.37" font-family="Helvetica,sans-Serif" font-size="12.00">BSP_UART_KickDma</text>
</a>
</g>
</g>
<!-- Node2 -->
<g id="Node000002" class="node">
<title>Node2</title>
<g id="a_Node000002"><a xlink:href="bsp__uart_8c.html#a67e2eb7d361398076d0800612430f13c" target="_top" xlink:title="向 TX 环形缓冲写入数据（非阻塞）">
<polygon fill="white" stroke="#666666" points="986.5,-376.77 871.5,-376.77 871.5,-354.52 986.5,-354.52 986.5,-376.77"/>
<text xml:space="preserve" text-anchor="middle" x="929" y="-361.37" font-family="Helvetica,sans-Serif" font-size="12.00">BSP_UART_Write</text>
</a>
</g>
</g>
<!-- Node1&#45;&gt;Node2 -->
<g id="edge1_Node000001_Node000002" class="edge">
<title>Node1&#45;&gt;Node2</title>
<g id="a_edge1_Node000001_Node000002"><a xlink:title=" ">
<path fill="none" stroke="#63b8ff" d="M1038,-354.06C1020.8,-355.91 1002.93,-357.82 986.78,-359.56"/>
<polygon fill="#63b8ff" stroke="#63b8ff" points="1038.09,-357.57 1047.66,-353.03 1037.35,-350.61 1038.09,-357.57"/>
</a>
</g>
</g>
<!-- Node17 -->
<g id="Node000017" class="node">
<title>Node17</title>
<g id="a_Node000017"><a xlink:href="bsp__uart_8c.html#abcdf9b59049eccbc87d54042f9235b1a" target="_top" xlink:title="HAL UART 发送完成回调：推进环形缓冲并续发下一段">
<polygon fill="white" stroke="#666666" points="1013.5,-336.77 844.5,-336.77 844.5,-314.52 1013.5,-314.52 1013.5,-336.77"/>
<text xml:space="preserve" text-anchor="middle" x="929" y="-321.37" font-family="Helvetica,sans-Serif" font-size="12.00">HAL_UART_TxCpltCallback</text>
</a>
</g>
</g>
<!-- Node1&#45;&gt;Node17 -->
<g id="edge29_Node000001_Node000017" class="edge">
<title>Node1&#45;&gt;Node17</title>
<g id="a_edge29_Node000001_Node000017"><a xlink:title=" ">
<path fill="none" stroke="#63b8ff" d="M1037.99,-337.23C1030,-336.37 1021.85,-335.49 1013.81,-334.63"/>
<polygon fill="#63b8ff" stroke="#63b8ff" points="1037.35,-340.68 1047.66,-338.26 1038.09,-333.72 1037.35,-340.68"/>
</a>
</g>
</g>
<!-- Node3 -->
<g id="Node000003" class="node">
<title>Node3</title>
<g id="a_Node000003"><a xlink:href="app__shell_8c.html#ab93a15148be82ad3c0999b099de7c29e" target="_top" xlink:title="shell 轮询（后台调用）">
<polygon fill="white" stroke="#666666" points="303,-303.77 188.75,-303.77 188.75,-281.52 303,-281.52 303,-303.77"/>
<text xml:space="preserve" text-anchor="middle" x="245.88" y="-288.37" font-family="Helvetica,sans-Serif" font-size="12.00">APP_SHELL_Poll</text>
</a>
</g>
</g>
<!-- Node2&#45;&gt;Node3 -->
<g id="edge2_Node000002_Node000003" class="edge">
<title>Node2&#45;&gt;Node3</title>
<g id="a_edge2_Node000002_Node000003"><a xlink:title=" ">
<path fill="none" stroke="#63b8ff" d="M889.99,-381.46C838.41,-401.98 742.88,-436.69 657.5,-449.64 593.45,-459.36 576.36,-454.3 511.75,-449.64 434.37,-444.07 405.03,-465.36 339,-424.64 291.19,-395.16 261.66,-330.6 251.18,-304.22"/>
<polygon fill="#63b8ff" stroke="#63b8ff" points="891.24,-384.73 899.21,-377.75 888.63,-378.24 891.24,-384.73"/>
</a>
</g>
</g>
<!-- Node6 -->
<g id="Node000006" class="node">
<title>Node6</title>
<g id="a_Node000006"><a xlink:href="bsp__uart_8c.html#ac8fe8954e03174bb365847f52531e218" target="_top" xlink:title="格式化打印到调试串口（非阻塞）">
<polygon fill="white" stroke="#666666" points="808.5,-259.77 693.5,-259.77 693.5,-237.52 808.5,-237.52 808.5,-259.77"/>
<text xml:space="preserve" text-anchor="middle" x="751" y="-244.37" font-family="Helvetica,sans-Serif" font-size="12.00">BSP_UART_Printf</text>
</a>
</g>
</g>
<!-- Node2&#45;&gt;Node6 -->
<g id="edge5_Node000002_Node000006" class="edge">
<title>Node2&#45;&gt;Node6</title>
<g id="a_edge5_Node000002_Node000006"><a xlink:title=" ">
<path fill="none" stroke="#63b8ff" d="M860.32,-353.05C854.81,-350.95 849.46,-348.5 844.5,-345.64 806.18,-323.6 773.79,-280.84 759.63,-260.27"/>
<polygon fill="#63b8ff" stroke="#63b8ff" points="859.03,-356.3 869.63,-356.18 861.27,-349.67 859.03,-356.3"/>
</a>
</g>
</g>
<!-- Node4 -->
<g id="Node000004" class="node">
<title>Node4</title>
<g id="a_Node000004"><a xlink:href="app__main_8c.html#a6709d26bb67f905916b7c7f048b8396c" target="_top" xlink:title="后台超级循环体（main 的 while(1) 内调用）">
<polygon fill="white" stroke="#666666" points="152.75,-101.77 78.25,-101.77 78.25,-79.52 152.75,-79.52 152.75,-101.77"/>
<text xml:space="preserve" text-anchor="middle" x="115.5" y="-86.37" font-family="Helvetica,sans-Serif" font-size="12.00">APP_Loop</text>
</a>
</g>
</g>
<!-- Node3&#45;&gt;Node4 -->
<g id="edge3_Node000003_Node000004" class="edge">
<title>Node3&#45;&gt;Node4</title>
<g id="a_edge3_Node000003_Node000004"><a xlink:title=" ">
<path fill="none" stroke="#63b8ff" d="M231.51,-271.61C204.54,-229.17 144.42,-134.58 123.69,-101.96"/>
<polygon fill="#63b8ff" stroke="#63b8ff" points="228.48,-273.37 236.79,-279.93 234.38,-269.61 228.48,-273.37"/>
</a>
</g>
</g>
<!-- Node5 -->
<g id="Node000005" class="node">
<title>Node5</title>
<g id="a_Node000005"><a xlink:href="main_8c.html#a840291bc02cba5474a4cb46a9b9566fe" target="_top" xlink:title="The application entry point.">
<polygon fill="white" stroke="#666666" points="42.25,-199.77 0,-199.77 0,-177.52 42.25,-177.52 42.25,-199.77"/>
<text xml:space="preserve" text-anchor="middle" x="21.12" y="-184.37" font-family="Helvetica,sans-Serif" font-size="12.00">main</text>
</a>
</g>
</g>
<!-- Node4&#45;&gt;Node5 -->
<g id="edge4_Node000004_Node000005" class="edge">
<title>Node4&#45;&gt;Node5</title>
<g id="a_edge4_Node000004_Node000005"><a xlink:title=" ">
<path fill="none" stroke="#63b8ff" d="M96.24,-110.02C77.33,-130.08 48.41,-160.75 32.88,-177.23"/>
<polygon fill="#63b8ff" stroke="#63b8ff" points="98.55,-112.67 102.87,-102.99 93.46,-107.86 98.55,-112.67"/>
</a>
</g>
</g>
<!-- Node6&#45;&gt;Node3 -->
<g id="edge26_Node000006_Node000003" class="edge">
<title>Node6&#45;&gt;Node3</title>
<g id="a_edge26_Node000006_Node000003"><a xlink:title=" ">
<path fill="none" stroke="#63b8ff" d="M737.79,-269.49C722.49,-293.3 693.81,-330.99 657.5,-346.64 520.5,-405.72 335.81,-333.55 270.75,-304.09"/>
<polygon fill="#63b8ff" stroke="#63b8ff" points="740.61,-271.58 742.89,-261.23 734.66,-267.9 740.61,-271.58"/>
</a>
</g>
</g>
<!-- Node6&#45;&gt;Node4 -->
<g id="edge8_Node000006_Node000004" class="edge">
<title>Node6&#45;&gt;Node4</title>
<g id="a_edge8_Node000006_Node000004"><a xlink:title=" ">
<path fill="none" stroke="#63b8ff" d="M745.34,-226.49C736.06,-188.66 711.35,-112.49 657.5,-79.64 568.55,-25.39 291.99,-56.62 188.75,-70.64 176.24,-72.34 162.84,-75.63 151.01,-79.05"/>
<polygon fill="#63b8ff" stroke="#63b8ff" points="741.84,-226.89 747.49,-235.85 748.66,-225.32 741.84,-226.89"/>
</a>
</g>
</g>
<!-- Node7 -->
<g id="Node000007" class="node">
<title>Node7</title>
<g id="a_Node000007"><a xlink:href="app__main_8c.html#a4759d3fdff6b33e2c0a0ae151452112f" target="_top" xlink:title="应用初始化（main 的 USER CODE BEGIN 2 调用）">
<polygon fill="white" stroke="#666666" points="439,-415.77 375.75,-415.77 375.75,-393.52 439,-393.52 439,-415.77"/>
<text xml:space="preserve" text-anchor="middle" x="407.38" y="-400.37" font-family="Helvetica,sans-Serif" font-size="12.00">APP_Init</text>
</a>
</g>
</g>
<!-- Node6&#45;&gt;Node7 -->
<g id="edge6_Node000006_Node000007" class="edge">
<title>Node6&#45;&gt;Node7</title>
<g id="a_edge6_Node000006_Node000007"><a xlink:title=" ">
<path fill="none" stroke="#63b8ff" d="M745.85,-271.26C737.27,-310.64 713.49,-390.82 657.5,-424.64 586.56,-467.5 482.8,-435.27 434.68,-416.15"/>
<polygon fill="#63b8ff" stroke="#63b8ff" points="749.27,-272 747.82,-261.5 742.41,-270.61 749.27,-272"/>
</a>
</g>
</g>
<!-- Node8 -->
<g id="Node000008" class="node">
<title>Node8</title>
<g id="a_Node000008"><a xlink:href="app__monitor_8c.html#aa50de6c3c6d7de9ecbd381513d6eb095" target="_top" xlink:title="周期日志轮询（后台调用）">
<polygon fill="white" stroke="#666666" points="458.88,-23.77 355.88,-23.77 355.88,-1.52 458.88,-1.52 458.88,-23.77"/>
<text xml:space="preserve" text-anchor="middle" x="407.38" y="-8.37" font-family="Helvetica,sans-Serif" font-size="12.00">APP_MON_Poll</text>
</a>
</g>
</g>
<!-- Node6&#45;&gt;Node8 -->
<g id="edge9_Node000006_Node000008" class="edge">
<title>Node6&#45;&gt;Node8</title>
<g id="a_edge9_Node000006_Node000008"><a xlink:title=" ">
<path fill="none" stroke="#63b8ff" d="M747.42,-225.73C741.08,-181.21 720.34,-83.35 657.5,-37.64 599.67,4.41 513.3,2.74 458.94,-3.82"/>
<polygon fill="#63b8ff" stroke="#63b8ff" points="743.93,-226.06 748.69,-235.53 750.88,-225.16 743.93,-226.06"/>
</a>
</g>
</g>
<!-- Node9 -->
<g id="Node000009" class="node">
<title>Node9</title>
<g id="a_Node000009"><a xlink:href="app__monitor_8c.html#a69348472c5378c7ae2787d865d1b626e" target="_top" xlink:title="打印上电横幅">
<polygon fill="white" stroke="#666666" points="657.5,-415.77 511.75,-415.77 511.75,-393.52 657.5,-393.52 657.5,-415.77"/>
<text xml:space="preserve" text-anchor="middle" x="584.62" y="-400.37" font-family="Helvetica,sans-Serif" font-size="12.00">APP_MON_PrintBanner</text>
</a>
</g>
</g>
<!-- Node6&#45;&gt;Node9 -->
<g id="edge11_Node000006_Node000009" class="edge">
<title>Node6&#45;&gt;Node9</title>
<g id="a_edge11_Node000006_Node000009"><a xlink:title=" ">
<path fill="none" stroke="#63b8ff" d="M740.15,-270.12C725.87,-298.98 696.77,-350.08 657.5,-379.64 650.11,-385.21 641.39,-389.6 632.62,-393.04"/>
<polygon fill="#63b8ff" stroke="#63b8ff" points="743.23,-271.8 744.39,-261.26 736.91,-268.77 743.23,-271.8"/>
</a>
</g>
</g>
<!-- Node10 -->
<g id="Node000010" class="node">
<title>Node10</title>
<g id="a_Node000010"><a xlink:href="app__shell_8c.html#ad6303a346f63752b165b847c5dcefbb7" target="_top" xlink:title="解析并执行一行命令">
<polygon fill="white" stroke="#666666" points="475.75,-274.77 339,-274.77 339,-252.52 475.75,-252.52 475.75,-274.77"/>
<text xml:space="preserve" text-anchor="middle" x="407.38" y="-259.37" font-family="Helvetica,sans-Serif" font-size="12.00">APP_SHELL_Execute</text>
</a>
</g>
</g>
<!-- Node6&#45;&gt;Node10 -->
<g id="edge21_Node000006_Node000010" class="edge">
<title>Node6&#45;&gt;Node10</title>
<g id="a_edge21_Node000006_Node000010"><a xlink:title=" ">
<path fill="none" stroke="#63b8ff" d="M694.68,-262.61C682.51,-265.12 669.63,-267.35 657.5,-268.64 596.42,-275.17 526.45,-272.92 476.25,-269.62"/>
<polygon fill="#63b8ff" stroke="#63b8ff" points="695.1,-266.1 704.14,-260.57 693.62,-259.26 695.1,-266.1"/>
</a>
</g>
</g>
<!-- Node11 -->
<g id="Node000011" class="node">
<title>Node11</title>
<g id="a_Node000011"><a xlink:href="app__monitor_8c.html#a9bb383e6ceed1252d51dd3ebbc075668" target="_top" xlink:title="打印完整状态快照（shell &quot;status&quot;）">
<polygon fill="white" stroke="#666666" points="654.88,-259.77 514.38,-259.77 514.38,-237.52 654.88,-237.52 654.88,-259.77"/>
<text xml:space="preserve" text-anchor="middle" x="584.62" y="-244.37" font-family="Helvetica,sans-Serif" font-size="12.00">APP_MON_PrintStatus</text>
</a>
</g>
</g>
<!-- Node6&#45;&gt;Node11 -->
<g id="edge15_Node000006_Node000011" class="edge">
<title>Node6&#45;&gt;Node11</title>
<g id="a_edge15_Node000006_Node000011"><a xlink:title=" ">
<path fill="none" stroke="#63b8ff" d="M682.03,-248.64C673.23,-248.64 664.2,-248.64 655.37,-248.64"/>
<polygon fill="#63b8ff" stroke="#63b8ff" points="681.92,-252.14 691.92,-248.64 681.92,-245.14 681.92,-252.14"/>
</a>
</g>
</g>
<!-- Node12 -->
<g id="Node000012" class="node">
<title>Node12</title>
<g id="a_Node000012"><a xlink:href="app__monitor_8c.html#a22c38d8c76224ba2db01a5a69b925982" target="_top" xlink:title="设置周期日志开关与速率">
<polygon fill="white" stroke="#666666" points="644.75,-219.77 524.5,-219.77 524.5,-197.52 644.75,-197.52 644.75,-219.77"/>
<text xml:space="preserve" text-anchor="middle" x="584.62" y="-204.37" font-family="Helvetica,sans-Serif" font-size="12.00">APP_MON_SetLog</text>
</a>
</g>
</g>
<!-- Node6&#45;&gt;Node12 -->
<g id="edge17_Node000006_Node000012" class="edge">
<title>Node6&#45;&gt;Node12</title>
<g id="a_edge17_Node000006_Node000012"><a xlink:title=" ">
<path fill="none" stroke="#63b8ff" d="M691.48,-234.41C672.43,-229.77 651.52,-224.68 633.35,-220.26"/>
<polygon fill="#63b8ff" stroke="#63b8ff" points="690.44,-237.75 700.99,-236.72 692.1,-230.95 690.44,-237.75"/>
</a>
</g>
</g>
<!-- Node13 -->
<g id="Node000013" class="node">
<title>Node13</title>
<g id="a_Node000013"><a xlink:href="app__shell_8c.html#aae99ca6c66313d23c6f3a593badf4961" target="_top" xlink:title="boot0 命令：检查/编程 nSWBOOT0 选项字节">
<polygon fill="white" stroke="#666666" points="647,-179.77 522.25,-179.77 522.25,-157.52 647,-157.52 647,-179.77"/>
<text xml:space="preserve" text-anchor="middle" x="584.62" y="-164.37" font-family="Helvetica,sans-Serif" font-size="12.00">APP_SHELL_Boot0</text>
</a>
</g>
</g>
<!-- Node6&#45;&gt;Node13 -->
<g id="edge19_Node000006_Node000013" class="edge">
<title>Node6&#45;&gt;Node13</title>
<g id="a_edge19_Node000006_Node000013"><a xlink:title=" ">
<path fill="none" stroke="#63b8ff" d="M726.28,-230.36C708.25,-217.2 682.38,-199.86 657.5,-188.64 650.41,-185.45 642.7,-182.66 635.05,-180.25"/>
<polygon fill="#63b8ff" stroke="#63b8ff" points="724.1,-233.1 734.22,-236.27 728.29,-227.49 724.1,-233.1"/>
</a>
</g>
</g>
<!-- Node14 -->
<g id="Node000014" class="node">
<title>Node14</title>
<g id="a_Node000014"><a xlink:href="app__shell_8c.html#a02ce76ff72a6b62807e1f3c3abdc850f" target="_top" xlink:title="get/set 命令处理">
<polygon fill="white" stroke="#666666" points="649.62,-139.77 519.62,-139.77 519.62,-117.52 649.62,-117.52 649.62,-139.77"/>
<text xml:space="preserve" text-anchor="middle" x="584.62" y="-124.37" font-family="Helvetica,sans-Serif" font-size="12.00">APP_SHELL_GetSet</text>
</a>
</g>
</g>
<!-- Node6&#45;&gt;Node14 -->
<g id="edge22_Node000006_Node000014" class="edge">
<title>Node6&#45;&gt;Node14</title>
<g id="a_edge22_Node000006_Node000014"><a xlink:title=" ">
<path fill="none" stroke="#63b8ff" d="M736.06,-227.69C719.83,-204.91 690.94,-169.05 657.5,-148.64 652.08,-145.34 646.11,-142.57 639.98,-140.24"/>
<polygon fill="#63b8ff" stroke="#63b8ff" points="733.16,-229.65 741.73,-235.88 738.92,-225.67 733.16,-229.65"/>
</a>
</g>
</g>
<!-- Node15 -->
<g id="Node000015" class="node">
<title>Node15</title>
<g id="a_Node000015"><a xlink:href="app__shell_8c.html#a6d537e45ceeac530b13b4645c1e0961c" target="_top" xlink:title="help 输出">
<polygon fill="white" stroke="#666666" points="644,-337.77 525.25,-337.77 525.25,-315.52 644,-315.52 644,-337.77"/>
<text xml:space="preserve" text-anchor="middle" x="584.62" y="-322.37" font-family="Helvetica,sans-Serif" font-size="12.00">APP_SHELL_Help</text>
</a>
</g>
</g>
<!-- Node6&#45;&gt;Node15 -->
<g id="edge24_Node000006_Node000015" class="edge">
<title>Node6&#45;&gt;Node15</title>
<g id="a_edge24_Node000006_Node000015"><a xlink:title=" ">
<path fill="none" stroke="#63b8ff" d="M722.53,-266.18C704.49,-277.24 680.13,-291.33 657.5,-301.64 646.56,-306.63 634.32,-311.23 623.08,-315.09"/>
<polygon fill="#63b8ff" stroke="#63b8ff" points="724.17,-269.28 730.82,-261.03 720.47,-263.34 724.17,-269.28"/>
</a>
</g>
</g>
<!-- Node16 -->
<g id="Node000016" class="node">
<title>Node16</title>
<g id="a_Node000016"><a xlink:href="app__main_8c.html#a9d7a99f268e16f853238569586d275aa" target="_top" xlink:title="慢任务：温度采样/过温保护/CAN 指令超时">
<polygon fill="white" stroke="#666666" points="295.5,-101.77 196.25,-101.77 196.25,-79.52 295.5,-79.52 295.5,-101.77"/>
<text xml:space="preserve" text-anchor="middle" x="245.88" y="-86.37" font-family="Helvetica,sans-Serif" font-size="12.00">APP_SlowTask</text>
</a>
</g>
</g>
<!-- Node6&#45;&gt;Node16 -->
<g id="edge27_Node000006_Node000016" class="edge">
<title>Node6&#45;&gt;Node16</title>
<g id="a_edge27_Node000006_Node000016"><a xlink:title=" ">
<path fill="none" stroke="#63b8ff" d="M742.78,-226.7C730.83,-194.31 703.55,-134.73 657.5,-108.64 597.04,-74.4 390.93,-81.84 295.76,-87.36"/>
<polygon fill="#63b8ff" stroke="#63b8ff" points="739.39,-227.58 746,-235.86 745.99,-225.26 739.39,-227.58"/>
</a>
</g>
</g>
<!-- Node7&#45;&gt;Node5 -->
<g id="edge7_Node000007_Node000005" class="edge">
<title>Node7&#45;&gt;Node5</title>
<g id="a_edge7_Node000007_Node000005"><a xlink:title=" ">
<path fill="none" stroke="#63b8ff" d="M364.58,-390.38C319.7,-374.29 247,-345.99 188.75,-312.64 127.41,-277.54 62.32,-223.5 35.19,-200.1"/>
<polygon fill="#63b8ff" stroke="#63b8ff" points="363.34,-393.65 373.93,-393.7 365.68,-387.06 363.34,-393.65"/>
</a>
</g>
</g>
<!-- Node8&#45;&gt;Node4 -->
<g id="edge10_Node000008_Node000004" class="edge">
<title>Node8&#45;&gt;Node4</title>
<g id="a_edge10_Node000008_Node000004"><a xlink:title=" ">
<path fill="none" stroke="#63b8ff" d="M344.5,-11.39C299.8,-12.46 238.75,-18.04 188.75,-37.64 164.71,-47.07 141.47,-66.56 128.1,-79.09"/>
<polygon fill="#63b8ff" stroke="#63b8ff" points="344.33,-14.9 354.27,-11.24 344.22,-7.9 344.33,-14.9"/>
</a>
</g>
</g>
<!-- Node9&#45;&gt;Node7 -->
<g id="edge12_Node000009_Node000007" class="edge">
<title>Node9&#45;&gt;Node7</title>
<g id="a_edge12_Node000009_Node000007"><a xlink:title=" ">
<path fill="none" stroke="#63b8ff" d="M500.08,-404.64C478.44,-404.64 456.48,-404.64 439.47,-404.64"/>
<polygon fill="#63b8ff" stroke="#63b8ff" points="499.82,-408.14 509.82,-404.64 499.82,-401.14 499.82,-408.14"/>
</a>
</g>
</g>
<!-- Node9&#45;&gt;Node10 -->
<g id="edge13_Node000009_Node000010" class="edge">
<title>Node9&#45;&gt;Node10</title>
<g id="a_edge13_Node000009_Node000010"><a xlink:title=" ">
<path fill="none" stroke="#63b8ff" d="M560.71,-386.21C523.88,-356.58 452.61,-299.23 422.42,-274.95"/>
<polygon fill="#63b8ff" stroke="#63b8ff" points="558.12,-388.62 568.1,-392.16 562.51,-383.16 558.12,-388.62"/>
</a>
</g>
</g>
<!-- Node10&#45;&gt;Node3 -->
<g id="edge14_Node000010_Node000003" class="edge">
<title>Node10&#45;&gt;Node3</title>
<g id="a_edge14_Node000010_Node000003"><a xlink:title=" ">
<path fill="none" stroke="#63b8ff" d="M331.77,-277.21C322.25,-278.94 312.62,-280.69 303.44,-282.36"/>
<polygon fill="#63b8ff" stroke="#63b8ff" points="332.18,-280.69 341.39,-275.46 330.92,-273.81 332.18,-280.69"/>
</a>
</g>
</g>
<!-- Node11&#45;&gt;Node10 -->
<g id="edge16_Node000011_Node000010" class="edge">
<title>Node11&#45;&gt;Node10</title>
<g id="a_edge16_Node000011_Node000010"><a xlink:title=" ">
<path fill="none" stroke="#63b8ff" d="M502.85,-255.56C493.9,-256.32 484.86,-257.1 476.09,-257.85"/>
<polygon fill="#63b8ff" stroke="#63b8ff" points="502.94,-259.06 512.6,-254.72 502.34,-252.09 502.94,-259.06"/>
</a>
</g>
</g>
<!-- Node12&#45;&gt;Node10 -->
<g id="edge18_Node000012_Node000010" class="edge">
<title>Node12&#45;&gt;Node10</title>
<g id="a_edge18_Node000012_Node000010"><a xlink:title=" ">
<path fill="none" stroke="#63b8ff" d="M529.71,-223.3C523.64,-225.05 517.55,-226.86 511.75,-228.64 487.85,-236.01 461.11,-245.09 440.82,-252.15"/>
<polygon fill="#63b8ff" stroke="#63b8ff" points="530.45,-226.73 539.11,-220.62 528.53,-220 530.45,-226.73"/>
</a>
</g>
</g>
<!-- Node13&#45;&gt;Node10 -->
<g id="edge20_Node000013_Node000010" class="edge">
<title>Node13&#45;&gt;Node10</title>
<g id="a_edge20_Node000013_Node000010"><a xlink:title=" ">
<path fill="none" stroke="#63b8ff" d="M522.63,-183.95C518.89,-185.4 515.24,-186.96 511.75,-188.64 476,-205.89 439.71,-235.69 421.1,-252.05"/>
<polygon fill="#63b8ff" stroke="#63b8ff" points="523.61,-187.32 531.86,-180.68 521.27,-180.72 523.61,-187.32"/>
</a>
</g>
</g>
<!-- Node14&#45;&gt;Node10 -->
<g id="edge23_Node000014_Node000010" class="edge">
<title>Node14&#45;&gt;Node10</title>
<g id="a_edge23_Node000014_Node000010"><a xlink:title=" ">
<path fill="none" stroke="#63b8ff" d="M518.85,-144.7C516.4,-145.92 514.03,-147.23 511.75,-148.64 467.03,-176.37 430.19,-229.05 415.38,-252.22"/>
<polygon fill="#63b8ff" stroke="#63b8ff" points="520.07,-147.98 527.83,-140.77 517.27,-141.57 520.07,-147.98"/>
</a>
</g>
</g>
<!-- Node15&#45;&gt;Node10 -->
<g id="edge25_Node000015_Node000010" class="edge">
<title>Node15&#45;&gt;Node10</title>
<g id="a_edge25_Node000015_Node000010"><a xlink:title=" ">
<path fill="none" stroke="#63b8ff" d="M539.14,-311.31C530.07,-308.14 520.59,-304.81 511.75,-301.64 487.44,-292.95 460.03,-282.86 439.54,-275.26"/>
<polygon fill="#63b8ff" stroke="#63b8ff" points="537.92,-314.59 548.51,-314.57 540.22,-307.98 537.92,-314.59"/>
</a>
</g>
</g>
<!-- Node16&#45;&gt;Node4 -->
<g id="edge28_Node000016_Node000004" class="edge">
<title>Node16&#45;&gt;Node4</title>
<g id="a_edge28_Node000016_Node000004"><a xlink:title=" ">
<path fill="none" stroke="#63b8ff" d="M184.74,-90.64C173.86,-90.64 162.82,-90.64 152.88,-90.64"/>
<polygon fill="#63b8ff" stroke="#63b8ff" points="184.46,-94.14 194.46,-90.64 184.46,-87.14 184.46,-94.14"/>
</a>
</g>
</g>
</g>
</svg>

<g id="navigator" transform="translate(0 0)" fill="#404254">
  <rect fill="#f2f5e9" fill-opacity="0.5" stroke="#606060" stroke-width=".5" x="0" y="0" width="60" height="60"/>
  <use id="zoomplus" xlink:href="#zoomPlus" x="17" y="9" onmousedown="handleZoom(evt,'in')"/>
  <use id="zoomminus" xlink:href="#zoomMin" x="42" y="9" onmousedown="handleZoom(evt,'out')"/>
  <use id="reset" xlink:href="#resetDef" x="30" y="36" onmousedown="handleReset()"/>
   <use id="arrowup" xlink:href="#arrowUp" x="0" y="0" onmousedown="handlePan(0,-1)"/>
  <use id="arrowright" xlink:href="#arrowRight" x="0" y="0" onmousedown="handlePan(1,0)"/>
  <use id="arrowdown" xlink:href="#arrowDown" x="0" y="0" onmousedown="handlePan(0,1)"/>
  <use id="arrowleft" xlink:href="#arrowLeft" x="0" y="0" onmousedown="handlePan(-1,0)"/>
</g>
<svg viewBox="0 0 15 15" width="100%" height="30px" preserveAspectRatio="xMaxYMin meet">
 <g id="arrow_out" transform="scale(0.3 0.3)">
  <a xlink:href="bsp__uart_8c_ad4dee4b2dd593f1d4c141de95156546d_icgraph_org.svg" target="_base">
   <rect id="button" ry="5" rx="5" y="6" x="6" height="38" width="38"
        fill="#f2f5e9" fill-opacity="0.5" stroke="#606060" stroke-width="1.0"/>
   <path id="arrow"
     d="M 11.500037,31.436501 C 11.940474,20.09759 22.043105,11.32322 32.158766,21.979434 L 37.068811,17.246167 C 37.068811,17.246167 37.088388,32 37.088388,32 L 22.160133,31.978069 C 22.160133,31.978069 26.997745,27.140456 26.997745,27.140456 C 18.528582,18.264221 13.291696,25.230495 11.500037,31.436501 z"
     style="fill:#404040;"/>
  </a>
 </g>
</svg>

<style type='text/css'>
<![CDATA[
[data-mouse-over-selected='false'] { opacity: 0.7; }
[data-mouse-over-selected='true']  { opacity: 1.0; }
]]>
</style>
<script type="application/ecmascript"><![CDATA[
document.addEventListener('DOMContentLoaded', (event) => {
  highlightEdges();
  highlightAdjacentNodes();
});
]]></script>
</svg>
