<?xml version="1.0" encoding="UTF-8" standalone="no"?>
<!DOCTYPE svg PUBLIC "-//W3C//DTD SVG 1.1//EN"
 "http://www.w3.org/Graphics/SVG/1.1/DTD/svg11.dtd">
<!-- Generated by graphviz version 15.1.0 (20260618.0150)
 -->
<!-- Title: Application/bsp/bsp_uart.c Pages: 1 -->
<svg width="483pt" height="219pt"
 viewBox="0.00 0.00 483.00 219.00" xmlns="http://www.w3.org/2000/svg" xmlns:xlink="http://www.w3.org/1999/xlink">
<g id="graph0" class="graph" transform="scale(1 1) rotate(0) translate(4 215.25)">
<title>Application/bsp/bsp_uart.c</title>
<!-- Node1 -->
<g id="Node000001" class="node">
<title>Node1</title>
<g id="a_Node000001"><a xlink:title="USART3 调试串口 BSP（DMA TX 环形缓冲 + RXNE 中断接收）">
<polygon fill="#999999" stroke="#666666" points="326.62,-211.25 205.62,-211.25 205.62,-174.75 326.62,-174.75 326.62,-211.25"/>
<text xml:space="preserve" text-anchor="start" x="213.62" y="-195.85" font-family="Helvetica,sans-Serif" font-size="12.00">Application/bsp/bsp</text>
<text xml:space="preserve" text-anchor="middle" x="266.12" y="-181.6" font-family="Helvetica,sans-Serif" font-size="12.00">_uart.c</text>
</a>
</g>
</g>
<!-- Node2 -->
<g id="Node000002" class="node">
<title>Node2</title>
<g id="a_Node000002"><a xlink:href="bsp__uart_8h.html" target="_top" xlink:title="USART3 调试串口 BSP 头文件（DMA TX 环形缓冲 + RXNE 中断接收）">
<polygon fill="white" stroke="#666666" points="72.25,-138.75 0,-138.75 0,-116.5 72.25,-116.5 72.25,-138.75"/>
<text xml:space="preserve" text-anchor="middle" x="36.12" y="-123.35" font-family="Helvetica,sans-Serif" font-size="12.00">bsp_uart.h</text>
</a>
</g>
</g>
<!-- Node1&#45;&gt;Node2 -->
<g id="edge1_Node000001_Node000002" class="edge">
<title>Node1&#45;&gt;Node2</title>
<g id="a_edge1_Node000001_Node000002"><a xlink:title=" ">
<path fill="none" stroke="#63b8ff" d="M205.39,-175.27C167.32,-164.78 118.96,-151.45 83.69,-141.73"/>
<polygon fill="#63b8ff" stroke="#63b8ff" points="84.75,-138.39 74.18,-139.11 82.89,-145.14 84.75,-138.39"/>
</a>
</g>
</g>
<!-- Node6 -->
<g id="Node000006" class="node">
<title>Node6</title>
<g id="a_Node000006"><a xlink:href="board__config_8h.html" target="_top" xlink:title="板级硬件参数统一配置（GIM4310/4305 电机控制器 V0.0 板）">
<polygon fill="white" stroke="#666666" points="185.88,-138.75 90.38,-138.75 90.38,-116.5 185.88,-116.5 185.88,-138.75"/>
<text xml:space="preserve" text-anchor="middle" x="138.12" y="-123.35" font-family="Helvetica,sans-Serif" font-size="12.00">board_config.h</text>
</a>
</g>
</g>
<!-- Node1&#45;&gt;Node6 -->
<g id="edge5_Node000001_Node000006" class="edge">
<title>Node1&#45;&gt;Node6</title>
<g id="a_edge5_Node000001_Node000006"><a xlink:title=" ">
<path fill="none" stroke="#63b8ff" d="M230.47,-174.35C211.42,-164.92 188.18,-153.41 169.78,-144.3"/>
<polygon fill="#63b8ff" stroke="#63b8ff" points="171.44,-141.22 160.93,-139.92 168.34,-147.49 171.44,-141.22"/>
</a>
</g>
</g>
<!-- Node7 -->
<g id="Node000007" class="node">
<title>Node7</title>
<g id="a_Node000007"><a xlink:href="usart_8h.html" target="_top" xlink:title="This file contains all the function prototypes for the usart.c file">
<polygon fill="white" stroke="#666666" points="256.12,-138.75 204.12,-138.75 204.12,-116.5 256.12,-116.5 256.12,-138.75"/>
<text xml:space="preserve" text-anchor="middle" x="230.12" y="-123.35" font-family="Helvetica,sans-Serif" font-size="12.00">usart.h</text>
</a>
</g>
</g>
<!-- Node1&#45;&gt;Node7 -->
<g id="edge6_Node000001_Node000007" class="edge">
<title>Node1&#45;&gt;Node7</title>
<g id="a_edge6_Node000001_Node000007"><a xlink:title=" ">
<path fill="none" stroke="#63b8ff" d="M256.1,-174.35C251.64,-166.5 246.37,-157.22 241.74,-149.08"/>
<polygon fill="#63b8ff" stroke="#63b8ff" points="244.89,-147.53 236.9,-140.56 238.8,-150.98 244.89,-147.53"/>
</a>
</g>
</g>
<!-- Node8 -->
<g id="Node000008" class="node">
<title>Node8</title>
<g id="a_Node000008"><a xlink:title=" ">
<polygon fill="#e0e0e0" stroke="#999999" points="332.5,-138.75 273.75,-138.75 273.75,-116.5 332.5,-116.5 332.5,-138.75"/>
<text xml:space="preserve" text-anchor="middle" x="303.12" y="-123.35" font-family="Helvetica,sans-Serif" font-size="12.00">stdarg.h</text>
</a>
</g>
</g>
<!-- Node1&#45;&gt;Node8 -->
<g id="edge8_Node000001_Node000008" class="edge">
<title>Node1&#45;&gt;Node8</title>
<g id="a_edge8_Node000001_Node000008"><a xlink:title=" ">
<path fill="none" stroke="#63b8ff" d="M276.43,-174.35C281.01,-166.5 286.43,-157.22 291.18,-149.08"/>
<polygon fill="#63b8ff" stroke="#63b8ff" points="294.14,-150.95 296.16,-140.55 288.1,-147.42 294.14,-150.95"/>
</a>
</g>
</g>
<!-- Node9 -->
<g id="Node000009" class="node">
<title>Node9</title>
<g id="a_Node000009"><a xlink:title=" ">
<polygon fill="#e0e0e0" stroke="#999999" points="401.75,-138.75 350.5,-138.75 350.5,-116.5 401.75,-116.5 401.75,-138.75"/>
<text xml:space="preserve" text-anchor="middle" x="376.12" y="-123.35" font-family="Helvetica,sans-Serif" font-size="12.00">stdio.h</text>
</a>
</g>
</g>
<!-- Node1&#45;&gt;Node9 -->
<g id="edge9_Node000001_Node000009" class="edge">
<title>Node1&#45;&gt;Node9</title>
<g id="a_edge9_Node000001_Node000009"><a xlink:title=" ">
<path fill="none" stroke="#63b8ff" d="M296.77,-174.35C312.83,-165.09 332.36,-153.84 348.03,-144.81"/>
<polygon fill="#63b8ff" stroke="#63b8ff" points="349.47,-148.02 356.38,-140 345.97,-141.96 349.47,-148.02"/>
</a>
</g>
</g>
<!-- Node10 -->
<g id="Node000010" class="node">
<title>Node10</title>
<g id="a_Node000010"><a xlink:title=" ">
<polygon fill="#e0e0e0" stroke="#999999" points="474.62,-138.75 419.62,-138.75 419.62,-116.5 474.62,-116.5 474.62,-138.75"/>
<text xml:space="preserve" text-anchor="middle" x="447.12" y="-123.35" font-family="Helvetica,sans-Serif" font-size="12.00">string.h</text>
</a>
</g>
</g>
<!-- Node1&#45;&gt;Node10 -->
<g id="edge10_Node000001_Node000010" class="edge">
<title>Node1&#45;&gt;Node10</title>
<g id="a_edge10_Node000001_Node000010"><a xlink:title=" ">
<path fill="none" stroke="#63b8ff" d="M316.54,-174.35C345.69,-164.14 381.78,-151.5 408.63,-142.1"/>
<polygon fill="#63b8ff" stroke="#63b8ff" points="409.45,-145.53 417.73,-138.92 407.14,-138.92 409.45,-145.53"/>
</a>
</g>
</g>
<!-- Node3 -->
<g id="Node000003" class="node">
<title>Node3</title>
<g id="a_Node000003"><a xlink:href="main_8h.html" target="_top" xlink:title=": Header for main.c file.">
<polygon fill="white" stroke="#666666" points="194.12,-80.5 142.12,-80.5 142.12,-58.25 194.12,-58.25 194.12,-80.5"/>
<text xml:space="preserve" text-anchor="middle" x="168.12" y="-65.1" font-family="Helvetica,sans-Serif" font-size="12.00">main.h</text>
</a>
</g>
</g>
<!-- Node2&#45;&gt;Node3 -->
<g id="edge2_Node000002_Node000003" class="edge">
<title>Node2&#45;&gt;Node3</title>
<g id="a_edge2_Node000002_Node000003"><a xlink:title=" ">
<path fill="none" stroke="#63b8ff" d="M60.95,-116.04C81.23,-107.4 110.15,-95.08 132.84,-85.41"/>
<polygon fill="#63b8ff" stroke="#63b8ff" points="134.19,-88.64 142.02,-81.5 131.44,-82.2 134.19,-88.64"/>
</a>
</g>
</g>
<!-- Node5 -->
<g id="Node000005" class="node">
<title>Node5</title>
<g id="a_Node000005"><a xlink:title=" ">
<polygon fill="#e0e0e0" stroke="#999999" points="63.25,-80.5 9,-80.5 9,-58.25 63.25,-58.25 63.25,-80.5"/>
<text xml:space="preserve" text-anchor="middle" x="36.12" y="-65.1" font-family="Helvetica,sans-Serif" font-size="12.00">stdint.h</text>
</a>
</g>
</g>
<!-- Node2&#45;&gt;Node5 -->
<g id="edge4_Node000002_Node000005" class="edge">
<title>Node2&#45;&gt;Node5</title>
<g id="a_edge4_Node000002_Node000005"><a xlink:title=" ">
<path fill="none" stroke="#63b8ff" d="M36.12,-116.04C36.12,-109.37 36.12,-100.49 36.12,-92.34"/>
<polygon fill="#63b8ff" stroke="#63b8ff" points="39.63,-92.42 36.13,-82.42 32.63,-92.42 39.63,-92.42"/>
</a>
</g>
</g>
<!-- Node4 -->
<g id="Node000004" class="node">
<title>Node4</title>
<g id="a_Node000004"><a xlink:title=" ">
<polygon fill="#e0e0e0" stroke="#999999" points="221.5,-22.25 114.75,-22.25 114.75,0 221.5,0 221.5,-22.25"/>
<text xml:space="preserve" text-anchor="middle" x="168.12" y="-6.85" font-family="Helvetica,sans-Serif" font-size="12.00">stm32g4xx_hal.h</text>
</a>
</g>
</g>
<!-- Node3&#45;&gt;Node4 -->
<g id="edge3_Node000003_Node000004" class="edge">
<title>Node3&#45;&gt;Node4</title>
<g id="a_edge3_Node000003_Node000004"><a xlink:title=" ">
<path fill="none" stroke="#63b8ff" d="M168.12,-57.79C168.12,-51.12 168.12,-42.24 168.12,-34.09"/>
<polygon fill="#63b8ff" stroke="#63b8ff" points="171.63,-34.17 168.13,-24.17 164.63,-34.17 171.63,-34.17"/>
</a>
</g>
</g>
<!-- Node7&#45;&gt;Node3 -->
<g id="edge7_Node000007_Node000003" class="edge">
<title>Node7&#45;&gt;Node3</title>
<g id="a_edge7_Node000007_Node000003"><a xlink:title=" ">
<path fill="none" stroke="#63b8ff" d="M218.46,-116.04C209.89,-108.27 198.03,-97.51 187.98,-88.39"/>
<polygon fill="#63b8ff" stroke="#63b8ff" points="190.61,-86.05 180.86,-81.92 185.91,-91.24 190.61,-86.05"/>
</a>
</g>
</g>
</g>
</svg>
