<?xml version="1.0" encoding="UTF-8" standalone="no"?>
<!DOCTYPE svg PUBLIC "-//W3C//DTD SVG 1.1//EN"
 "http://www.w3.org/Graphics/SVG/1.1/DTD/svg11.dtd">
<!-- Generated by graphviz version 15.1.0 (20260618.0150)
 -->
<!-- Title: BSP_PWM_Init Pages: 1 -->
<svg width="294pt" height="70pt"
 viewBox="0.00 0.00 294.00 70.00" xmlns="http://www.w3.org/2000/svg" xmlns:xlink="http://www.w3.org/1999/xlink">
<g id="graph0" class="graph" transform="scale(1 1) rotate(0) translate(4 66.25)">
<title>BSP_PWM_Init</title>
<!-- Node1 -->
<g id="Node000001" class="node">
<title>Node1</title>
<g id="a_Node000001"><a xlink:title="初始化三相 PWM（重配 TIM1，输出保持封波）">
<polygon fill="#999999" stroke="#666666" points="99.25,-42.25 0,-42.25 0,-20 99.25,-20 99.25,-42.25"/>
<text xml:space="preserve" text-anchor="middle" x="49.62" y="-26.85" font-family="Helvetica,sans-Serif" font-size="12.00">BSP_PWM_Init</text>
</a>
</g>
</g>
<!-- Node2 -->
<g id="Node000002" class="node">
<title>Node2</title>
<g id="a_Node000002"><a xlink:href="bsp__pwm_8c.html#af4a87e2cef845a3eba6d0170011ff08d" target="_top" xlink:title="三相占空比清零（低侧全导通：自举预充/动态刹车态）">
<polygon fill="white" stroke="#666666" points="286.25,-62.25 135.25,-62.25 135.25,-40 286.25,-40 286.25,-62.25"/>
<text xml:space="preserve" text-anchor="middle" x="210.75" y="-46.85" font-family="Helvetica,sans-Serif" font-size="12.00">BSP_PWM_SetDutyZero</text>
</a>
</g>
</g>
<!-- Node1&#45;&gt;Node2 -->
<g id="edge1_Node000001_Node000002" class="edge">
<title>Node1&#45;&gt;Node2</title>
<g id="a_edge1_Node000001_Node000002"><a xlink:title=" ">
<path fill="none" stroke="#63b8ff" d="M99.67,-37.29C107.33,-38.25 115.43,-39.27 123.63,-40.3"/>
<polygon fill="#63b8ff" stroke="#63b8ff" points="122.97,-43.75 133.33,-41.52 123.84,-36.8 122.97,-43.75"/>
</a>
</g>
</g>
<!-- Node3 -->
<g id="Node000003" class="node">
<title>Node3</title>
<g id="a_Node000003"><a xlink:href="main_8c.html#a1730ffe1e560465665eb47d9264826f9" target="_top" xlink:title="This function is executed in case of error occurrence.">
<polygon fill="white" stroke="#666666" points="256.62,-22.25 164.88,-22.25 164.88,0 256.62,0 256.62,-22.25"/>
<text xml:space="preserve" text-anchor="middle" x="210.75" y="-6.85" font-family="Helvetica,sans-Serif" font-size="12.00">Error_Handler</text>
</a>
</g>
</g>
<!-- Node1&#45;&gt;Node3 -->
<g id="edge2_Node000001_Node000003" class="edge">
<title>Node1&#45;&gt;Node3</title>
<g id="a_edge2_Node000001_Node000003"><a xlink:title=" ">
<path fill="none" stroke="#63b8ff" d="M99.67,-24.96C116.6,-22.83 135.7,-20.43 153.18,-18.24"/>
<polygon fill="#63b8ff" stroke="#63b8ff" points="153.41,-21.73 162.89,-17.01 152.54,-14.79 153.41,-21.73"/>
</a>
</g>
</g>
</g>
</svg>
