<?xml version="1.0" encoding="UTF-8" standalone="no"?>
<!DOCTYPE svg PUBLIC "-//W3C//DTD SVG 1.1//EN"
 "http://www.w3.org/Graphics/SVG/1.1/DTD/svg11.dtd">
<!-- Generated by graphviz version 15.1.0 (20260618.0150)
 -->
<!-- Title: BSP_WS2812_RefreshTarget Pages: 1 -->
<!--zoomable 110 -->

<svg id="main" version="1.1" xmlns="http://www.w3.org/2000/svg" xmlns:xlink="http://www.w3.org/1999/xlink" xml:space="preserve" onload="init(evt)">

<style type="text/css"><![CDATA[
.node, .edge {opacity: 0.7;}
.node.selected, .edge.selected {opacity: 1;}
.edge:hover path { stroke: red; }
.edge:hover polygon { stroke: red; fill: red; }
]]></style>

<defs>
  <circle id="rim" cx="0" cy="0" r="7"/>
  <circle id="rim2" cx="0" cy="0" r="3.5"/>
  <g id="zoomPlus">
    <use xlink:href="#rim" fill="#404040"><set attributeName="fill" to="#808080" begin="zoomplus.mouseover" end="zoomplus.mouseout"/></use>
    <path d="M-4,0h8M0,-4v8" fill="none" stroke="white" stroke-width="1.5" pointer-events="none"/>
  </g>
  <g id="zoomMin">
    <use xlink:href="#rim" fill="#404040"><set attributeName="fill" to="#808080" begin="zoomminus.mouseover" end="zoomminus.mouseout"/></use>
    <path d="M-4,0h8" fill="none" stroke="white" stroke-width="1.5" pointer-events="none"/>
  </g>
  <g id="arrowUp" transform="translate(30 24)">
    <use xlink:href="#rim"/>
    <path pointer-events="none" fill="none" stroke="white" stroke-width="1.5" d="M0,-3.0v7 M-2.5,-0.5L0,-3.0L2.5,-0.5"/>
  </g>
  <g id="arrowRight" transform="rotate(90) translate(36 -43)">
    <use xlink:href="#rim"/>
    <path pointer-events="none" fill="none" stroke="white" stroke-width="1.5" d="M0,-3.0v7 M-2.5,-0.5L0,-3.0L2.5,-0.5"/>
  </g>
  <g id="arrowDown" transform="rotate(180) translate(-30 -48)">
    <use xlink:href="#rim"/>
    <path pointer-events="none" fill="none" stroke="white" stroke-width="1.5" d="M0,-3.0v7 M-2.5,-0.5L0,-3.0L2.5,-0.5"/>
  </g>
  <g id="arrowLeft" transform="rotate(270) translate(-36 17)">
    <use xlink:href="#rim"/>
    <path pointer-events="none" fill="none" stroke="white" stroke-width="1.5" d="M0,-3.0v7 M-2.5,-0.5L0,-3.0L2.5,-0.5"/>
  </g>
  <g id="resetDef">
    <use xlink:href="#rim2" fill="#404040"><set attributeName="fill" to="#808080" begin="reset.mouseover" end="reset.mouseout"/></use>
  </g>
</defs>
<script type="application/ecmascript">
var viewWidth = 737;
var viewHeight = 110;
var sectionId = 'dynsection-8';
</script>
<script type="application/ecmascript" xlink:href="svg.min.js"/>
<svg id="graph" class="graph">
<g id="viewport">
<title>BSP_WS2812_RefreshTarget</title>
<!-- Node1 -->
<g id="Node000001" class="node">
<title>Node1</title>
<g id="a_Node000001"><a xlink:title="按亮度缩放当前颜色并生成发送序颜色字，标记待发送">
<polygon fill="#999999" stroke="#666666" points="728.75,-82.25 553,-82.25 553,-60 728.75,-60 728.75,-82.25"/>
<text xml:space="preserve" text-anchor="middle" x="640.88" y="-66.85" font-family="Helvetica,sans-Serif" font-size="12.00">BSP_WS2812_RefreshTarget</text>
</a>
</g>
</g>
<!-- Node2 -->
<g id="Node000002" class="node">
<title>Node2</title>
<g id="a_Node000002"><a xlink:href="bsp__ws2812_8c.html#aa343d7fb9bc7f5c802804cd659494aea" target="_top" xlink:title="设置全局亮度（0~255，线性缩放）">
<polygon fill="white" stroke="#666666" points="517,-102.25 341.25,-102.25 341.25,-80 517,-80 517,-102.25"/>
<text xml:space="preserve" text-anchor="middle" x="429.12" y="-86.85" font-family="Helvetica,sans-Serif" font-size="12.00">BSP_WS2812_SetBrightness</text>
</a>
</g>
</g>
<!-- Node1&#45;&gt;Node2 -->
<g id="edge1_Node000001_Node000002" class="edge">
<title>Node1&#45;&gt;Node2</title>
<g id="a_edge1_Node000001_Node000002"><a xlink:title=" ">
<path fill="none" stroke="#63b8ff" d="M541.42,-80.51C533.38,-81.28 525.28,-82.05 517.32,-82.81"/>
<polygon fill="#63b8ff" stroke="#63b8ff" points="541.62,-84.01 551.24,-79.58 540.95,-77.04 541.62,-84.01"/>
</a>
</g>
</g>
<!-- Node8 -->
<g id="Node000008" class="node">
<title>Node8</title>
<g id="a_Node000008"><a xlink:href="bsp__ws2812_8c.html#a14f4272e51ac6b64194ad2368ed44a71" target="_top" xlink:title="设置目标颜色（缓存，Poll 时发送）">
<polygon fill="white" stroke="#666666" points="503.12,-62.25 355.12,-62.25 355.12,-40 503.12,-40 503.12,-62.25"/>
<text xml:space="preserve" text-anchor="middle" x="429.12" y="-46.85" font-family="Helvetica,sans-Serif" font-size="12.00">BSP_WS2812_SetColor</text>
</a>
</g>
</g>
<!-- Node1&#45;&gt;Node8 -->
<g id="edge8_Node000001_Node000008" class="edge">
<title>Node1&#45;&gt;Node8</title>
<g id="a_edge8_Node000001_Node000008"><a xlink:title=" ">
<path fill="none" stroke="#63b8ff" d="M541.5,-61.75C528.65,-60.52 515.67,-59.28 503.33,-58.1"/>
<polygon fill="#63b8ff" stroke="#63b8ff" points="540.95,-65.21 551.24,-62.67 541.62,-58.24 540.95,-65.21"/>
</a>
</g>
</g>
<!-- Node3 -->
<g id="Node000003" class="node">
<title>Node3</title>
<g id="a_Node000003"><a xlink:href="app__led_8c.html#a4eb86fe33d029e9f08b60e781948039a" target="_top" xlink:title="初始化灯语模块">
<polygon fill="white" stroke="#666666" points="294,-62.25 200,-62.25 200,-40 294,-40 294,-62.25"/>
<text xml:space="preserve" text-anchor="middle" x="247" y="-46.85" font-family="Helvetica,sans-Serif" font-size="12.00">APP_LED_Init</text>
</a>
</g>
</g>
<!-- Node2&#45;&gt;Node3 -->
<g id="edge2_Node000002_Node000003" class="edge">
<title>Node2&#45;&gt;Node3</title>
<g id="a_edge2_Node000002_Node000003"><a xlink:title=" ">
<path fill="none" stroke="#63b8ff" d="M364.88,-77.08C341.7,-71.93 315.91,-66.2 294.46,-61.44"/>
<polygon fill="#63b8ff" stroke="#63b8ff" points="364.03,-80.48 374.55,-79.23 365.54,-73.64 364.03,-80.48"/>
</a>
</g>
</g>
<!-- Node6 -->
<g id="Node000006" class="node">
<title>Node6</title>
<g id="a_Node000006"><a xlink:href="app__led_8c.html#a0667624ed63a699e14975ababc2eeb67" target="_top" xlink:title="灯语轮询（后台调用，内部按 HAL tick 计时）">
<polygon fill="white" stroke="#666666" points="296.62,-102.25 197.38,-102.25 197.38,-80 296.62,-80 296.62,-102.25"/>
<text xml:space="preserve" text-anchor="middle" x="247" y="-86.85" font-family="Helvetica,sans-Serif" font-size="12.00">APP_LED_Poll</text>
</a>
</g>
</g>
<!-- Node2&#45;&gt;Node6 -->
<g id="edge5_Node000002_Node000006" class="edge">
<title>Node2&#45;&gt;Node6</title>
<g id="a_edge5_Node000002_Node000006"><a xlink:title=" ">
<path fill="none" stroke="#63b8ff" d="M329.66,-91.12C318.38,-91.12 307.28,-91.12 297.07,-91.12"/>
<polygon fill="#63b8ff" stroke="#63b8ff" points="329.45,-94.63 339.45,-91.13 329.45,-87.63 329.45,-94.63"/>
</a>
</g>
</g>
<!-- Node4 -->
<g id="Node000004" class="node">
<title>Node4</title>
<g id="a_Node000004"><a xlink:href="app__main_8c.html#a4759d3fdff6b33e2c0a0ae151452112f" target="_top" xlink:title="应用初始化（main 的 USER CODE BEGIN 2 调用）">
<polygon fill="white" stroke="#666666" points="147.12,-62.25 83.88,-62.25 83.88,-40 147.12,-40 147.12,-62.25"/>
<text xml:space="preserve" text-anchor="middle" x="115.5" y="-46.85" font-family="Helvetica,sans-Serif" font-size="12.00">APP_Init</text>
</a>
</g>
</g>
<!-- Node3&#45;&gt;Node4 -->
<g id="edge3_Node000003_Node000004" class="edge">
<title>Node3&#45;&gt;Node4</title>
<g id="a_edge3_Node000003_Node000004"><a xlink:title=" ">
<path fill="none" stroke="#63b8ff" d="M188.48,-51.12C174.41,-51.12 159.88,-51.12 147.59,-51.12"/>
<polygon fill="#63b8ff" stroke="#63b8ff" points="188.1,-54.63 198.1,-51.13 188.1,-47.63 188.1,-54.63"/>
</a>
</g>
</g>
<!-- Node5 -->
<g id="Node000005" class="node">
<title>Node5</title>
<g id="a_Node000005"><a xlink:href="main_8c.html#a840291bc02cba5474a4cb46a9b9566fe" target="_top" xlink:title="The application entry point.">
<polygon fill="white" stroke="#666666" points="42.25,-82.25 0,-82.25 0,-60 42.25,-60 42.25,-82.25"/>
<text xml:space="preserve" text-anchor="middle" x="21.12" y="-66.85" font-family="Helvetica,sans-Serif" font-size="12.00">main</text>
</a>
</g>
</g>
<!-- Node4&#45;&gt;Node5 -->
<g id="edge4_Node000004_Node000005" class="edge">
<title>Node4&#45;&gt;Node5</title>
<g id="a_edge4_Node000004_Node000005"><a xlink:title=" ">
<path fill="none" stroke="#63b8ff" d="M72.48,-60.22C62.15,-62.46 51.54,-64.76 42.74,-66.66"/>
<polygon fill="#63b8ff" stroke="#63b8ff" points="72.97,-63.7 82,-58.16 71.49,-56.86 72.97,-63.7"/>
</a>
</g>
</g>
<!-- Node7 -->
<g id="Node000007" class="node">
<title>Node7</title>
<g id="a_Node000007"><a xlink:href="app__main_8c.html#a6709d26bb67f905916b7c7f048b8396c" target="_top" xlink:title="后台超级循环体（main 的 while(1) 内调用）">
<polygon fill="white" stroke="#666666" points="152.75,-102.25 78.25,-102.25 78.25,-80 152.75,-80 152.75,-102.25"/>
<text xml:space="preserve" text-anchor="middle" x="115.5" y="-86.85" font-family="Helvetica,sans-Serif" font-size="12.00">APP_Loop</text>
</a>
</g>
</g>
<!-- Node6&#45;&gt;Node7 -->
<g id="edge6_Node000006_Node000007" class="edge">
<title>Node6&#45;&gt;Node7</title>
<g id="a_edge6_Node000006_Node000007"><a xlink:title=" ">
<path fill="none" stroke="#63b8ff" d="M185.57,-91.12C174.45,-91.12 163.15,-91.12 153.01,-91.12"/>
<polygon fill="#63b8ff" stroke="#63b8ff" points="185.53,-94.63 195.53,-91.13 185.53,-87.63 185.53,-94.63"/>
</a>
</g>
</g>
<!-- Node7&#45;&gt;Node5 -->
<g id="edge7_Node000007_Node000005" class="edge">
<title>Node7&#45;&gt;Node5</title>
<g id="a_edge7_Node000007_Node000005"><a xlink:title=" ">
<path fill="none" stroke="#63b8ff" d="M66.86,-80.81C58.35,-78.97 49.91,-77.14 42.69,-75.58"/>
<polygon fill="#63b8ff" stroke="#63b8ff" points="66,-84.2 76.51,-82.9 67.48,-77.36 66,-84.2"/>
</a>
</g>
</g>
<!-- Node8&#45;&gt;Node3 -->
<g id="edge9_Node000008_Node000003" class="edge">
<title>Node8&#45;&gt;Node3</title>
<g id="a_edge9_Node000008_Node000003"><a xlink:title=" ">
<path fill="none" stroke="#63b8ff" d="M343.74,-51.12C326.73,-51.12 309.44,-51.12 294.33,-51.12"/>
<polygon fill="#63b8ff" stroke="#63b8ff" points="343.35,-54.63 353.35,-51.13 343.35,-47.63 343.35,-54.63"/>
</a>
</g>
</g>
<!-- Node8&#45;&gt;Node6 -->
<g id="edge10_Node000008_Node000006" class="edge">
<title>Node8&#45;&gt;Node6</title>
<g id="a_edge10_Node000008_Node000006"><a xlink:title=" ">
<path fill="none" stroke="#63b8ff" d="M364.95,-65.16C342.62,-70.11 317.86,-75.61 296.89,-80.27"/>
<polygon fill="#63b8ff" stroke="#63b8ff" points="365.54,-68.61 374.55,-63.02 364.03,-61.77 365.54,-68.61"/>
</a>
</g>
</g>
<!-- Node9 -->
<g id="Node000009" class="node">
<title>Node9</title>
<g id="a_Node000009"><a xlink:href="bsp__ws2812_8c.html#acad123fd7d3377dda0013ffc74a9445a" target="_top" xlink:title="初始化 WS2812 驱动（重配 TIM2 + DMA）">
<polygon fill="white" stroke="#666666" points="305.25,-22.25 188.75,-22.25 188.75,0 305.25,0 305.25,-22.25"/>
<text xml:space="preserve" text-anchor="middle" x="247" y="-6.85" font-family="Helvetica,sans-Serif" font-size="12.00">BSP_WS2812_Init</text>
</a>
</g>
</g>
<!-- Node8&#45;&gt;Node9 -->
<g id="edge11_Node000008_Node000009" class="edge">
<title>Node8&#45;&gt;Node9</title>
<g id="a_edge11_Node000008_Node000009"><a xlink:title=" ">
<path fill="none" stroke="#63b8ff" d="M364.88,-37.08C343.76,-32.39 320.48,-27.22 300.29,-22.74"/>
<polygon fill="#63b8ff" stroke="#63b8ff" points="364.03,-40.48 374.55,-39.23 365.54,-33.64 364.03,-40.48"/>
</a>
</g>
</g>
<!-- Node9&#45;&gt;Node4 -->
<g id="edge12_Node000009_Node000004" class="edge">
<title>Node9&#45;&gt;Node4</title>
<g id="a_edge12_Node000009_Node000004"><a xlink:title=" ">
<path fill="none" stroke="#63b8ff" d="M197.74,-26.03C180.86,-31.24 162.39,-36.95 147.33,-41.6"/>
<polygon fill="#63b8ff" stroke="#63b8ff" points="198.58,-29.44 207.1,-23.14 196.51,-22.75 198.58,-29.44"/>
</a>
</g>
</g>
</g>
</svg>

<g id="navigator" transform="translate(0 0)" fill="#404254">
  <rect fill="#f2f5e9" fill-opacity="0.5" stroke="#606060" stroke-width=".5" x="0" y="0" width="60" height="60"/>
  <use id="zoomplus" xlink:href="#zoomPlus" x="17" y="9" onmousedown="handleZoom(evt,'in')"/>
  <use id="zoomminus" xlink:href="#zoomMin" x="42" y="9" onmousedown="handleZoom(evt,'out')"/>
  <use id="reset" xlink:href="#resetDef" x="30" y="36" onmousedown="handleReset()"/>
   <use id="arrowup" xlink:href="#arrowUp" x="0" y="0" onmousedown="handlePan(0,-1)"/>
  <use id="arrowright" xlink:href="#arrowRight" x="0" y="0" onmousedown="handlePan(1,0)"/>
  <use id="arrowdown" xlink:href="#arrowDown" x="0" y="0" onmousedown="handlePan(0,1)"/>
  <use id="arrowleft" xlink:href="#arrowLeft" x="0" y="0" onmousedown="handlePan(-1,0)"/>
</g>
<svg viewBox="0 0 15 15" width="100%" height="30px" preserveAspectRatio="xMaxYMin meet">
 <g id="arrow_out" transform="scale(0.3 0.3)">
  <a xlink:href="bsp__ws2812_8c_a414a0748f0ef37a68dc8383d5356ddf6_icgraph_org.svg" target="_base">
   <rect id="button" ry="5" rx="5" y="6" x="6" height="38" width="38"
        fill="#f2f5e9" fill-opacity="0.5" stroke="#606060" stroke-width="1.0"/>
   <path id="arrow"
     d="M 11.500037,31.436501 C 11.940474,20.09759 22.043105,11.32322 32.158766,21.979434 L 37.068811,17.246167 C 37.068811,17.246167 37.088388,32 37.088388,32 L 22.160133,31.978069 C 22.160133,31.978069 26.997745,27.140456 26.997745,27.140456 C 18.528582,18.264221 13.291696,25.230495 11.500037,31.436501 z"
     style="fill:#404040;"/>
  </a>
 </g>
</svg>

<style type='text/css'>
<![CDATA[
[data-mouse-over-selected='false'] { opacity: 0.7; }
[data-mouse-over-selected='true']  { opacity: 1.0; }
]]>
</style>
<script type="application/ecmascript"><![CDATA[
document.addEventListener('DOMContentLoaded', (event) => {
  highlightEdges();
  highlightAdjacentNodes();
});
]]></script>
</svg>
