<?xml version="1.0" encoding="UTF-8" standalone="no"?>
<!DOCTYPE svg PUBLIC "-//W3C//DTD SVG 1.1//EN"
 "http://www.w3.org/Graphics/SVG/1.1/DTD/svg11.dtd">
<!-- Generated by graphviz version 15.1.0 (20260618.0150)
 -->
<!-- Title: BSP_WS2812_SetBrightness Pages: 1 -->
<svg width="508pt" height="70pt"
 viewBox="0.00 0.00 508.00 70.00" xmlns="http://www.w3.org/2000/svg" xmlns:xlink="http://www.w3.org/1999/xlink">
<g id="graph0" class="graph" transform="scale(1 1) rotate(0) translate(4 66.25)">
<title>BSP_WS2812_SetBrightness</title>
<!-- Node1 -->
<g id="Node000001" class="node">
<title>Node1</title>
<g id="a_Node000001"><a xlink:title="设置全局亮度（0~255，线性缩放）">
<polygon fill="#999999" stroke="#666666" points="499.75,-42.25 324,-42.25 324,-20 499.75,-20 499.75,-42.25"/>
<text xml:space="preserve" text-anchor="middle" x="411.88" y="-26.85" font-family="Helvetica,sans-Serif" font-size="12.00">BSP_WS2812_SetBrightness</text>
</a>
</g>
</g>
<!-- Node2 -->
<g id="Node000002" class="node">
<title>Node2</title>
<g id="a_Node000002"><a xlink:href="app__led_8c.html#a4eb86fe33d029e9f08b60e781948039a" target="_top" xlink:title="初始化灯语模块">
<polygon fill="white" stroke="#666666" points="285.38,-62.25 191.38,-62.25 191.38,-40 285.38,-40 285.38,-62.25"/>
<text xml:space="preserve" text-anchor="middle" x="238.38" y="-46.85" font-family="Helvetica,sans-Serif" font-size="12.00">APP_LED_Init</text>
</a>
</g>
</g>
<!-- Node1&#45;&gt;Node2 -->
<g id="edge1_Node000001_Node000002" class="edge">
<title>Node1&#45;&gt;Node2</title>
<g id="a_edge1_Node000001_Node000002"><a xlink:title=" ">
<path fill="none" stroke="#63b8ff" d="M312.32,-42.62C303.12,-43.69 294.12,-44.74 285.75,-45.72"/>
<polygon fill="#63b8ff" stroke="#63b8ff" points="312.59,-46.11 322.11,-41.48 311.78,-39.16 312.59,-46.11"/>
</a>
</g>
</g>
<!-- Node5 -->
<g id="Node000005" class="node">
<title>Node5</title>
<g id="a_Node000005"><a xlink:href="app__led_8c.html#a0667624ed63a699e14975ababc2eeb67" target="_top" xlink:title="灯语轮询（后台调用，内部按 HAL tick 计时）">
<polygon fill="white" stroke="#666666" points="288,-22.25 188.75,-22.25 188.75,0 288,0 288,-22.25"/>
<text xml:space="preserve" text-anchor="middle" x="238.38" y="-6.85" font-family="Helvetica,sans-Serif" font-size="12.00">APP_LED_Poll</text>
</a>
</g>
</g>
<!-- Node1&#45;&gt;Node5 -->
<g id="edge4_Node000001_Node000005" class="edge">
<title>Node1&#45;&gt;Node5</title>
<g id="a_edge4_Node000001_Node000005"><a xlink:title=" ">
<path fill="none" stroke="#63b8ff" d="M312.33,-19.63C304.11,-18.67 296.04,-17.73 288.45,-16.85"/>
<polygon fill="#63b8ff" stroke="#63b8ff" points="311.78,-23.09 322.11,-20.77 312.59,-16.14 311.78,-23.09"/>
</a>
</g>
</g>
<!-- Node3 -->
<g id="Node000003" class="node">
<title>Node3</title>
<g id="a_Node000003"><a xlink:href="app__main_8c.html#a4759d3fdff6b33e2c0a0ae151452112f" target="_top" xlink:title="应用初始化（main 的 USER CODE BEGIN 2 调用）">
<polygon fill="white" stroke="#666666" points="147.12,-62.25 83.88,-62.25 83.88,-40 147.12,-40 147.12,-62.25"/>
<text xml:space="preserve" text-anchor="middle" x="115.5" y="-46.85" font-family="Helvetica,sans-Serif" font-size="12.00">APP_Init</text>
</a>
</g>
</g>
<!-- Node2&#45;&gt;Node3 -->
<g id="edge2_Node000002_Node000003" class="edge">
<title>Node2&#45;&gt;Node3</title>
<g id="a_edge2_Node000002_Node000003"><a xlink:title=" ">
<path fill="none" stroke="#63b8ff" d="M179.6,-51.12C168.56,-51.12 157.41,-51.12 147.62,-51.12"/>
<polygon fill="#63b8ff" stroke="#63b8ff" points="179.47,-54.63 189.47,-51.13 179.47,-47.63 179.47,-54.63"/>
</a>
</g>
</g>
<!-- Node4 -->
<g id="Node000004" class="node">
<title>Node4</title>
<g id="a_Node000004"><a xlink:href="main_8c.html#a840291bc02cba5474a4cb46a9b9566fe" target="_top" xlink:title="The application entry point.">
<polygon fill="white" stroke="#666666" points="42.25,-42.25 0,-42.25 0,-20 42.25,-20 42.25,-42.25"/>
<text xml:space="preserve" text-anchor="middle" x="21.12" y="-26.85" font-family="Helvetica,sans-Serif" font-size="12.00">main</text>
</a>
</g>
</g>
<!-- Node3&#45;&gt;Node4 -->
<g id="edge3_Node000003_Node000004" class="edge">
<title>Node3&#45;&gt;Node4</title>
<g id="a_edge3_Node000003_Node000004"><a xlink:title=" ">
<path fill="none" stroke="#63b8ff" d="M72.48,-42.03C62.15,-39.79 51.54,-37.49 42.74,-35.59"/>
<polygon fill="#63b8ff" stroke="#63b8ff" points="71.49,-45.39 82,-44.09 72.97,-38.55 71.49,-45.39"/>
</a>
</g>
</g>
<!-- Node6 -->
<g id="Node000006" class="node">
<title>Node6</title>
<g id="a_Node000006"><a xlink:href="app__main_8c.html#a6709d26bb67f905916b7c7f048b8396c" target="_top" xlink:title="后台超级循环体（main 的 while(1) 内调用）">
<polygon fill="white" stroke="#666666" points="152.75,-22.25 78.25,-22.25 78.25,0 152.75,0 152.75,-22.25"/>
<text xml:space="preserve" text-anchor="middle" x="115.5" y="-6.85" font-family="Helvetica,sans-Serif" font-size="12.00">APP_Loop</text>
</a>
</g>
</g>
<!-- Node5&#45;&gt;Node6 -->
<g id="edge5_Node000005_Node000006" class="edge">
<title>Node5&#45;&gt;Node6</title>
<g id="a_edge5_Node000005_Node000006"><a xlink:title=" ">
<path fill="none" stroke="#63b8ff" d="M177.1,-11.12C168.95,-11.12 160.79,-11.12 153.23,-11.12"/>
<polygon fill="#63b8ff" stroke="#63b8ff" points="177.05,-14.63 187.05,-11.13 177.05,-7.63 177.05,-14.63"/>
</a>
</g>
</g>
<!-- Node6&#45;&gt;Node4 -->
<g id="edge6_Node000006_Node000004" class="edge">
<title>Node6&#45;&gt;Node4</title>
<g id="a_edge6_Node000006_Node000004"><a xlink:title=" ">
<path fill="none" stroke="#63b8ff" d="M66.86,-21.44C58.35,-23.28 49.91,-25.11 42.69,-26.67"/>
<polygon fill="#63b8ff" stroke="#63b8ff" points="67.48,-24.89 76.51,-19.35 66,-18.05 67.48,-24.89"/>
</a>
</g>
</g>
</g>
</svg>
