<?xml version="1.0" encoding="UTF-8" standalone="no"?>
<!DOCTYPE svg PUBLIC "-//W3C//DTD SVG 1.1//EN"
 "http://www.w3.org/Graphics/SVG/1.1/DTD/svg11.dtd">
<!-- Generated by graphviz version 15.1.0 (20260618.0150)
 -->
<!-- Title: Application/bsp/bsp_encoder.c Pages: 1 -->
<svg width="276pt" height="219pt"
 viewBox="0.00 0.00 276.00 219.00" xmlns="http://www.w3.org/2000/svg" xmlns:xlink="http://www.w3.org/1999/xlink">

<svg id="main" version="1.1" xmlns="http://www.w3.org/2000/svg" xmlns:xlink="http://www.w3.org/1999/xlink" xml:space="preserve">

<style type="text/css"><![CDATA[
.node, .edge {opacity: 0.7;}
.node.selected, .edge.selected {opacity: 1;}
.edge:hover path { stroke: red; }
.edge:hover polygon { stroke: red; fill: red; }
]]></style>
<script type="application/ecmascript" xlink:href="svg.min.js"/>
<svg id="graph" class="graph">
<g id="graph0" class="graph" transform="scale(1 1) rotate(0) translate(4 215.25)">
<title>Application/bsp/bsp_encoder.c</title>
<!-- Node1 -->
<g id="Node000001" class="node">
<title>Node1</title>
<g id="a_Node000001"><a xlink:title="MT6701 磁编码器 BSP（GPIO 位带模拟 SSI）">
<polygon fill="#999999" stroke="#666666" points="220.88,-211.25 99.88,-211.25 99.88,-174.75 220.88,-174.75 220.88,-211.25"/>
<text xml:space="preserve" text-anchor="start" x="107.88" y="-195.85" font-family="Helvetica,sans-Serif" font-size="12.00">Application/bsp/bsp</text>
<text xml:space="preserve" text-anchor="middle" x="160.38" y="-181.6" font-family="Helvetica,sans-Serif" font-size="12.00">_encoder.c</text>
</a>
</g>
</g>
<!-- Node2 -->
<g id="Node000002" class="node">
<title>Node2</title>
<g id="a_Node000002"><a xlink:href="bsp__encoder_8h.html" target="_top" xlink:title="MT6701 磁编码器 BSP 头文件（GPIO 位带模拟 SSI）">
<polygon fill="white" stroke="#666666" points="94.75,-138.75 0,-138.75 0,-116.5 94.75,-116.5 94.75,-138.75"/>
<text xml:space="preserve" text-anchor="middle" x="47.38" y="-123.35" font-family="Helvetica,sans-Serif" font-size="12.00">bsp_encoder.h</text>
</a>
</g>
</g>
<!-- Node1&#45;&gt;Node2 -->
<g id="edge1_Node000001_Node000002" class="edge">
<title>Node1&#45;&gt;Node2</title>
<g id="a_edge1_Node000001_Node000002"><a xlink:title=" ">
<path fill="none" stroke="#63b8ff" d="M128.9,-174.35C112.4,-165.09 92.33,-153.84 76.24,-144.81"/>
<polygon fill="#63b8ff" stroke="#63b8ff" points="78.06,-141.82 67.63,-139.98 74.64,-147.93 78.06,-141.82"/>
</a>
</g>
</g>
<!-- Node6 -->
<g id="Node000006" class="node">
<title>Node6</title>
<g id="a_Node000006"><a xlink:href="board__config_8h.html" target="_top" xlink:title="板级硬件参数统一配置（GIM4310/4305 电机控制器 V0.0 板）">
<polygon fill="white" stroke="#666666" points="208.12,-138.75 112.62,-138.75 112.62,-116.5 208.12,-116.5 208.12,-138.75"/>
<text xml:space="preserve" text-anchor="middle" x="160.38" y="-123.35" font-family="Helvetica,sans-Serif" font-size="12.00">board_config.h</text>
</a>
</g>
</g>
<!-- Node1&#45;&gt;Node6 -->
<g id="edge5_Node000001_Node000006" class="edge">
<title>Node1&#45;&gt;Node6</title>
<g id="a_edge5_Node000001_Node000006"><a xlink:title=" ">
<path fill="none" stroke="#63b8ff" d="M160.38,-174.35C160.38,-167.03 160.38,-158.47 160.38,-150.74"/>
<polygon fill="#63b8ff" stroke="#63b8ff" points="163.88,-150.76 160.38,-140.76 156.88,-150.76 163.88,-150.76"/>
</a>
</g>
</g>
<!-- Node7 -->
<g id="Node000007" class="node">
<title>Node7</title>
<g id="a_Node000007"><a xlink:href="spi_8h.html" target="_top" xlink:title="This file contains all the function prototypes for the spi.c file">
<polygon fill="white" stroke="#666666" points="268.12,-138.75 226.62,-138.75 226.62,-116.5 268.12,-116.5 268.12,-138.75"/>
<text xml:space="preserve" text-anchor="middle" x="247.38" y="-123.35" font-family="Helvetica,sans-Serif" font-size="12.00">spi.h</text>
</a>
</g>
</g>
<!-- Node1&#45;&gt;Node7 -->
<g id="edge6_Node000001_Node000007" class="edge">
<title>Node1&#45;&gt;Node7</title>
<g id="a_edge6_Node000001_Node000007"><a xlink:title=" ">
<path fill="none" stroke="#63b8ff" d="M184.61,-174.35C196.83,-165.45 211.59,-154.69 223.73,-145.85"/>
<polygon fill="#63b8ff" stroke="#63b8ff" points="225.55,-148.85 231.57,-140.13 221.43,-143.19 225.55,-148.85"/>
</a>
</g>
</g>
<!-- Node3 -->
<g id="Node000003" class="node">
<title>Node3</title>
<g id="a_Node000003"><a xlink:href="main_8h.html" target="_top" xlink:title=": Header for main.c file.">
<polygon fill="white" stroke="#666666" points="208.38,-80.5 156.38,-80.5 156.38,-58.25 208.38,-58.25 208.38,-80.5"/>
<text xml:space="preserve" text-anchor="middle" x="182.38" y="-65.1" font-family="Helvetica,sans-Serif" font-size="12.00">main.h</text>
</a>
</g>
</g>
<!-- Node2&#45;&gt;Node3 -->
<g id="edge2_Node000002_Node000003" class="edge">
<title>Node2&#45;&gt;Node3</title>
<g id="a_edge2_Node000002_Node000003"><a xlink:title=" ">
<path fill="none" stroke="#63b8ff" d="M72.77,-116.04C93.6,-107.36 123.35,-94.97 146.6,-85.28"/>
<polygon fill="#63b8ff" stroke="#63b8ff" points="147.81,-88.57 155.7,-81.49 145.12,-82.11 147.81,-88.57"/>
</a>
</g>
</g>
<!-- Node5 -->
<g id="Node000005" class="node">
<title>Node5</title>
<g id="a_Node000005"><a xlink:title=" ">
<polygon fill="#e0e0e0" stroke="#999999" points="74.5,-80.5 20.25,-80.5 20.25,-58.25 74.5,-58.25 74.5,-80.5"/>
<text xml:space="preserve" text-anchor="middle" x="47.38" y="-65.1" font-family="Helvetica,sans-Serif" font-size="12.00">stdint.h</text>
</a>
</g>
</g>
<!-- Node2&#45;&gt;Node5 -->
<g id="edge4_Node000002_Node000005" class="edge">
<title>Node2&#45;&gt;Node5</title>
<g id="a_edge4_Node000002_Node000005"><a xlink:title=" ">
<path fill="none" stroke="#63b8ff" d="M47.38,-116.04C47.38,-109.37 47.38,-100.49 47.38,-92.34"/>
<polygon fill="#63b8ff" stroke="#63b8ff" points="50.88,-92.42 47.38,-82.42 43.88,-92.42 50.88,-92.42"/>
</a>
</g>
</g>
<!-- Node4 -->
<g id="Node000004" class="node">
<title>Node4</title>
<g id="a_Node000004"><a xlink:title=" ">
<polygon fill="#e0e0e0" stroke="#999999" points="235.75,-22.25 129,-22.25 129,0 235.75,0 235.75,-22.25"/>
<text xml:space="preserve" text-anchor="middle" x="182.38" y="-6.85" font-family="Helvetica,sans-Serif" font-size="12.00">stm32g4xx_hal.h</text>
</a>
</g>
</g>
<!-- Node3&#45;&gt;Node4 -->
<g id="edge3_Node000003_Node000004" class="edge">
<title>Node3&#45;&gt;Node4</title>
<g id="a_edge3_Node000003_Node000004"><a xlink:title=" ">
<path fill="none" stroke="#63b8ff" d="M182.38,-57.79C182.38,-51.12 182.38,-42.24 182.38,-34.09"/>
<polygon fill="#63b8ff" stroke="#63b8ff" points="185.88,-34.17 182.38,-24.17 178.88,-34.17 185.88,-34.17"/>
</a>
</g>
</g>
<!-- Node7&#45;&gt;Node3 -->
<g id="edge7_Node000007_Node000003" class="edge">
<title>Node7&#45;&gt;Node3</title>
<g id="a_edge7_Node000007_Node000003"><a xlink:title=" ">
<path fill="none" stroke="#63b8ff" d="M235.15,-116.04C226.16,-108.27 213.73,-97.51 203.19,-88.39"/>
<polygon fill="#63b8ff" stroke="#63b8ff" points="205.54,-85.8 195.69,-81.9 200.96,-91.09 205.54,-85.8"/>
</a>
</g>
</g>
</g>
</svg>
</svg>

<style type='text/css'>
<![CDATA[
[data-mouse-over-selected='false'] { opacity: 0.7; }
[data-mouse-over-selected='true']  { opacity: 1.0; }
]]>
</style>
<script type="application/ecmascript"><![CDATA[
document.addEventListener('DOMContentLoaded', (event) => {
  highlightEdges();
  highlightAdjacentNodes();
});
]]></script>
</svg>
