<?xml version="1.0" encoding="UTF-8" standalone="no"?>
<!DOCTYPE svg PUBLIC "-//W3C//DTD SVG 1.1//EN"
 "http://www.w3.org/Graphics/SVG/1.1/DTD/svg11.dtd">
<!-- Generated by graphviz version 15.1.0 (20260618.0150)
 -->
<!-- Title: BSP_CAN_Send Pages: 1 -->
<svg width="1138pt" height="108pt"
 viewBox="0.00 0.00 1138.00 108.00" xmlns="http://www.w3.org/2000/svg" xmlns:xlink="http://www.w3.org/1999/xlink">
<g id="graph0" class="graph" transform="scale(1 1) rotate(0) translate(4 104.25)">
<title>BSP_CAN_Send</title>
<!-- Node1 -->
<g id="Node000001" class="node">
<title>Node1</title>
<g id="a_Node000001"><a xlink:title="发送一帧经典 CAN 数据帧（非阻塞，入 TX FIFO）">
<polygon fill="#999999" stroke="#666666" points="1130,-61.25 1021,-61.25 1021,-39 1130,-39 1130,-61.25"/>
<text xml:space="preserve" text-anchor="middle" x="1075.5" y="-45.85" font-family="Helvetica,sans-Serif" font-size="12.00">BSP_CAN_Send</text>
</a>
</g>
</g>
<!-- Node2 -->
<g id="Node000002" class="node">
<title>Node2</title>
<g id="a_Node000002"><a xlink:href="app__can__protocol_8c.html#a966f37b5d2949acd6d6432af5cbcbcec" target="_top" xlink:title="配置通道应答：cmd + 状态 + float 值">
<polygon fill="white" stroke="#666666" points="961.38,-100.25 830.62,-100.25 830.62,-78 961.38,-78 961.38,-100.25"/>
<text xml:space="preserve" text-anchor="middle" x="896" y="-84.85" font-family="Helvetica,sans-Serif" font-size="12.00">APP_CAN_CfgReply</text>
</a>
</g>
</g>
<!-- Node1&#45;&gt;Node2 -->
<g id="edge1_Node000001_Node000002" class="edge">
<title>Node1&#45;&gt;Node2</title>
<g id="a_edge1_Node000001_Node000002"><a xlink:title=" ">
<path fill="none" stroke="#63b8ff" d="M1010.57,-64.17C990.66,-68.55 968.94,-73.32 949.88,-77.51"/>
<polygon fill="#63b8ff" stroke="#63b8ff" points="1011.23,-67.61 1020.25,-62.05 1009.73,-60.77 1011.23,-67.61"/>
</a>
</g>
</g>
<!-- Node3 -->
<g id="Node000003" class="node">
<title>Node3</title>
<g id="a_Node000003"><a xlink:href="app__can__protocol_8c.html#a962b5bb63f0dca9cd0efbd25455d6002" target="_top" xlink:title="配置通道处理">
<polygon fill="white" stroke="#666666" points="771,-62.25 632.75,-62.25 632.75,-40 771,-40 771,-62.25"/>
<text xml:space="preserve" text-anchor="middle" x="701.88" y="-46.85" font-family="Helvetica,sans-Serif" font-size="12.00">APP_CAN_HandleCfg</text>
</a>
</g>
</g>
<!-- Node1&#45;&gt;Node3 -->
<g id="edge10_Node000001_Node000003" class="edge">
<title>Node1&#45;&gt;Node3</title>
<g id="a_edge10_Node000001_Node000003"><a xlink:title=" ">
<path fill="none" stroke="#63b8ff" d="M1009.66,-50.3C942.93,-50.48 839.38,-50.76 771.35,-50.94"/>
<polygon fill="#63b8ff" stroke="#63b8ff" points="1009.36,-53.8 1019.35,-50.27 1009.34,-46.8 1009.36,-53.8"/>
</a>
</g>
</g>
<!-- Node10 -->
<g id="Node000010" class="node">
<title>Node10</title>
<g id="a_Node000010"><a xlink:href="app__can__protocol_8c.html#a3f462aec782e36efd750a47844167fae" target="_top" xlink:title="发送 MIT 反馈帧（B0=ID，P16 V12 T12，发往主机 ID）">
<polygon fill="white" stroke="#666666" points="985,-22.25 807,-22.25 807,0 985,0 985,-22.25"/>
<text xml:space="preserve" text-anchor="middle" x="896" y="-6.85" font-family="Helvetica,sans-Serif" font-size="12.00">APP_CAN_SendMitFeedback</text>
</a>
</g>
</g>
<!-- Node1&#45;&gt;Node10 -->
<g id="edge11_Node000001_Node000010" class="edge">
<title>Node1&#45;&gt;Node10</title>
<g id="a_edge11_Node000001_Node000010"><a xlink:title=" ">
<path fill="none" stroke="#63b8ff" d="M1010.57,-36.08C990.66,-31.7 968.94,-26.93 949.88,-22.74"/>
<polygon fill="#63b8ff" stroke="#63b8ff" points="1009.73,-39.48 1020.25,-38.2 1011.23,-32.64 1009.73,-39.48"/>
</a>
</g>
</g>
<!-- Node2&#45;&gt;Node3 -->
<g id="edge2_Node000002_Node000003" class="edge">
<title>Node2&#45;&gt;Node3</title>
<g id="a_edge2_Node000002_Node000003"><a xlink:title=" ">
<path fill="none" stroke="#63b8ff" d="M825.24,-75.33C804.34,-71.19 781.64,-66.7 761.53,-62.73"/>
<polygon fill="#63b8ff" stroke="#63b8ff" points="824.34,-78.72 834.83,-77.22 825.7,-71.85 824.34,-78.72"/>
</a>
</g>
</g>
<!-- Node4 -->
<g id="Node000004" class="node">
<title>Node4</title>
<g id="a_Node000004"><a xlink:href="app__can__protocol_8c.html#a0c342291cd7188f387f12f9b2157c4e9" target="_top" xlink:title="CAN 接收分发（ISR 上下文）">
<polygon fill="white" stroke="#666666" points="596.75,-42.25 458.5,-42.25 458.5,-20 596.75,-20 596.75,-42.25"/>
<text xml:space="preserve" text-anchor="middle" x="527.62" y="-26.85" font-family="Helvetica,sans-Serif" font-size="12.00">APP_CAN_RxHandler</text>
</a>
</g>
</g>
<!-- Node3&#45;&gt;Node4 -->
<g id="edge3_Node000003_Node000004" class="edge">
<title>Node3&#45;&gt;Node4</title>
<g id="a_edge3_Node000003_Node000004"><a xlink:title=" ">
<path fill="none" stroke="#63b8ff" d="M621.11,-41.86C613.13,-40.94 605.09,-40 597.24,-39.09"/>
<polygon fill="#63b8ff" stroke="#63b8ff" points="620.46,-45.31 630.8,-42.99 621.27,-38.36 620.46,-45.31"/>
</a>
</g>
</g>
<!-- Node5 -->
<g id="Node000005" class="node">
<title>Node5</title>
<g id="a_Node000005"><a xlink:href="app__can__protocol_8c.html#af389bd7cff6ae0b5df76c2feb46f25f6" target="_top" xlink:title="初始化 CAN 应用协议（按持久化参数配置 BSP）">
<polygon fill="white" stroke="#666666" points="422.5,-42.25 326.25,-42.25 326.25,-20 422.5,-20 422.5,-42.25"/>
<text xml:space="preserve" text-anchor="middle" x="374.38" y="-26.85" font-family="Helvetica,sans-Serif" font-size="12.00">APP_CAN_Init</text>
</a>
</g>
</g>
<!-- Node4&#45;&gt;Node5 -->
<g id="edge4_Node000004_Node000005" class="edge">
<title>Node4&#45;&gt;Node5</title>
<g id="a_edge4_Node000004_Node000005"><a xlink:title=" ">
<path fill="none" stroke="#63b8ff" d="M446.63,-31.12C438.54,-31.12 430.51,-31.12 422.92,-31.12"/>
<polygon fill="#63b8ff" stroke="#63b8ff" points="446.57,-34.63 456.57,-31.13 446.57,-27.63 446.57,-34.63"/>
</a>
</g>
</g>
<!-- Node6 -->
<g id="Node000006" class="node">
<title>Node6</title>
<g id="a_Node000006"><a xlink:href="app__can__protocol_8c.html#a6c2f3bebbd2597376fd87038ef059996" target="_top" xlink:title="后台轮询：处理通信参数变更后的重新初始化">
<polygon fill="white" stroke="#666666" points="290.25,-62.25 188.75,-62.25 188.75,-40 290.25,-40 290.25,-62.25"/>
<text xml:space="preserve" text-anchor="middle" x="239.5" y="-46.85" font-family="Helvetica,sans-Serif" font-size="12.00">APP_CAN_Poll</text>
</a>
</g>
</g>
<!-- Node5&#45;&gt;Node6 -->
<g id="edge5_Node000005_Node000006" class="edge">
<title>Node5&#45;&gt;Node6</title>
<g id="a_edge5_Node000005_Node000006"><a xlink:title=" ">
<path fill="none" stroke="#63b8ff" d="M314.56,-39.98C306.51,-41.19 298.32,-42.42 290.45,-43.61"/>
<polygon fill="#63b8ff" stroke="#63b8ff" points="314.92,-43.46 324.28,-38.51 313.87,-36.54 314.92,-43.46"/>
</a>
</g>
</g>
<!-- Node9 -->
<g id="Node000009" class="node">
<title>Node9</title>
<g id="a_Node000009"><a xlink:href="app__main_8c.html#a4759d3fdff6b33e2c0a0ae151452112f" target="_top" xlink:title="应用初始化（main 的 USER CODE BEGIN 2 调用）">
<polygon fill="white" stroke="#666666" points="147.12,-23.25 83.88,-23.25 83.88,-1 147.12,-1 147.12,-23.25"/>
<text xml:space="preserve" text-anchor="middle" x="115.5" y="-7.85" font-family="Helvetica,sans-Serif" font-size="12.00">APP_Init</text>
</a>
</g>
</g>
<!-- Node5&#45;&gt;Node9 -->
<g id="edge8_Node000005_Node000009" class="edge">
<title>Node5&#45;&gt;Node9</title>
<g id="a_edge8_Node000005_Node000009"><a xlink:title=" ">
<path fill="none" stroke="#63b8ff" d="M314.56,-26.77C262.57,-22.93 188.76,-17.47 147.49,-14.42"/>
<polygon fill="#63b8ff" stroke="#63b8ff" points="314.22,-30.26 324.45,-27.51 314.74,-23.28 314.22,-30.26"/>
</a>
</g>
</g>
<!-- Node7 -->
<g id="Node000007" class="node">
<title>Node7</title>
<g id="a_Node000007"><a xlink:href="app__main_8c.html#a6709d26bb67f905916b7c7f048b8396c" target="_top" xlink:title="后台超级循环体（main 的 while(1) 内调用）">
<polygon fill="white" stroke="#666666" points="152.75,-63.25 78.25,-63.25 78.25,-41 152.75,-41 152.75,-63.25"/>
<text xml:space="preserve" text-anchor="middle" x="115.5" y="-47.85" font-family="Helvetica,sans-Serif" font-size="12.00">APP_Loop</text>
</a>
</g>
</g>
<!-- Node6&#45;&gt;Node7 -->
<g id="edge6_Node000006_Node000007" class="edge">
<title>Node6&#45;&gt;Node7</title>
<g id="a_edge6_Node000006_Node000007"><a xlink:title=" ">
<path fill="none" stroke="#63b8ff" d="M177.03,-51.63C168.86,-51.7 160.7,-51.76 153.14,-51.82"/>
<polygon fill="#63b8ff" stroke="#63b8ff" points="177.04,-55.13 187.01,-51.55 176.98,-48.13 177.04,-55.13"/>
</a>
</g>
</g>
<!-- Node8 -->
<g id="Node000008" class="node">
<title>Node8</title>
<g id="a_Node000008"><a xlink:href="main_8c.html#a840291bc02cba5474a4cb46a9b9566fe" target="_top" xlink:title="The application entry point.">
<polygon fill="white" stroke="#666666" points="42.25,-43.25 0,-43.25 0,-21 42.25,-21 42.25,-43.25"/>
<text xml:space="preserve" text-anchor="middle" x="21.12" y="-27.85" font-family="Helvetica,sans-Serif" font-size="12.00">main</text>
</a>
</g>
</g>
<!-- Node7&#45;&gt;Node8 -->
<g id="edge7_Node000007_Node000008" class="edge">
<title>Node7&#45;&gt;Node8</title>
<g id="a_edge7_Node000007_Node000008"><a xlink:title=" ">
<path fill="none" stroke="#63b8ff" d="M66.86,-41.81C58.35,-39.97 49.91,-38.14 42.69,-36.58"/>
<polygon fill="#63b8ff" stroke="#63b8ff" points="66,-45.2 76.51,-43.9 67.48,-38.36 66,-45.2"/>
</a>
</g>
</g>
<!-- Node9&#45;&gt;Node8 -->
<g id="edge9_Node000009_Node000008" class="edge">
<title>Node9&#45;&gt;Node8</title>
<g id="a_edge9_Node000009_Node000008"><a xlink:title=" ">
<path fill="none" stroke="#63b8ff" d="M72.48,-21.22C62.15,-23.46 51.54,-25.76 42.74,-27.66"/>
<polygon fill="#63b8ff" stroke="#63b8ff" points="72.97,-24.7 82,-19.16 71.49,-17.86 72.97,-24.7"/>
</a>
</g>
</g>
<!-- Node11 -->
<g id="Node000011" class="node">
<title>Node11</title>
<g id="a_Node000011"><a xlink:href="app__can__protocol_8c.html#a287ab0ebbb13b297320ec4082c51365b" target="_top" xlink:title="MIT 运控通道处理">
<polygon fill="white" stroke="#666666" points="769.5,-22.25 634.25,-22.25 634.25,0 769.5,0 769.5,-22.25"/>
<text xml:space="preserve" text-anchor="middle" x="701.88" y="-6.85" font-family="Helvetica,sans-Serif" font-size="12.00">APP_CAN_HandleMit</text>
</a>
</g>
</g>
<!-- Node10&#45;&gt;Node11 -->
<g id="edge12_Node000010_Node000011" class="edge">
<title>Node10&#45;&gt;Node11</title>
<g id="a_edge12_Node000010_Node000011"><a xlink:title=" ">
<path fill="none" stroke="#63b8ff" d="M795.25,-11.12C786.68,-11.12 778.14,-11.12 769.91,-11.12"/>
<polygon fill="#63b8ff" stroke="#63b8ff" points="795.02,-14.63 805.02,-11.13 795.02,-7.63 795.02,-14.63"/>
</a>
</g>
</g>
<!-- Node11&#45;&gt;Node4 -->
<g id="edge13_Node000011_Node000004" class="edge">
<title>Node11&#45;&gt;Node4</title>
<g id="a_edge13_Node000011_Node000004"><a xlink:title=" ">
<path fill="none" stroke="#63b8ff" d="M622.42,-20.23C614.01,-21.21 605.51,-22.2 597.23,-23.16"/>
<polygon fill="#63b8ff" stroke="#63b8ff" points="622.75,-23.72 632.28,-19.09 621.95,-16.77 622.75,-23.72"/>
</a>
</g>
</g>
</g>
</svg>
