<?xml version="1.0" encoding="UTF-8" standalone="no"?>
<!DOCTYPE svg PUBLIC "-//W3C//DTD SVG 1.1//EN"
 "http://www.w3.org/Graphics/SVG/1.1/DTD/svg11.dtd">
<!-- Generated by graphviz version 15.1.0 (20260618.0150)
 -->
<!-- Title: BSP_UART_Write Pages: 1 -->
<!--zoomable 480 -->

<svg id="main" version="1.1" xmlns="http://www.w3.org/2000/svg" xmlns:xlink="http://www.w3.org/1999/xlink" xml:space="preserve" onload="init(evt)">

<style type="text/css"><![CDATA[
.node, .edge {opacity: 0.7;}
.node.selected, .edge.selected {opacity: 1;}
.edge:hover path { stroke: red; }
.edge:hover polygon { stroke: red; fill: red; }
]]></style>

<defs>
  <circle id="rim" cx="0" cy="0" r="7"/>
  <circle id="rim2" cx="0" cy="0" r="3.5"/>
  <g id="zoomPlus">
    <use xlink:href="#rim" fill="#404040"><set attributeName="fill" to="#808080" begin="zoomplus.mouseover" end="zoomplus.mouseout"/></use>
    <path d="M-4,0h8M0,-4v8" fill="none" stroke="white" stroke-width="1.5" pointer-events="none"/>
  </g>
  <g id="zoomMin">
    <use xlink:href="#rim" fill="#404040"><set attributeName="fill" to="#808080" begin="zoomminus.mouseover" end="zoomminus.mouseout"/></use>
    <path d="M-4,0h8" fill="none" stroke="white" stroke-width="1.5" pointer-events="none"/>
  </g>
  <g id="arrowUp" transform="translate(30 24)">
    <use xlink:href="#rim"/>
    <path pointer-events="none" fill="none" stroke="white" stroke-width="1.5" d="M0,-3.0v7 M-2.5,-0.5L0,-3.0L2.5,-0.5"/>
  </g>
  <g id="arrowRight" transform="rotate(90) translate(36 -43)">
    <use xlink:href="#rim"/>
    <path pointer-events="none" fill="none" stroke="white" stroke-width="1.5" d="M0,-3.0v7 M-2.5,-0.5L0,-3.0L2.5,-0.5"/>
  </g>
  <g id="arrowDown" transform="rotate(180) translate(-30 -48)">
    <use xlink:href="#rim"/>
    <path pointer-events="none" fill="none" stroke="white" stroke-width="1.5" d="M0,-3.0v7 M-2.5,-0.5L0,-3.0L2.5,-0.5"/>
  </g>
  <g id="arrowLeft" transform="rotate(270) translate(-36 17)">
    <use xlink:href="#rim"/>
    <path pointer-events="none" fill="none" stroke="white" stroke-width="1.5" d="M0,-3.0v7 M-2.5,-0.5L0,-3.0L2.5,-0.5"/>
  </g>
  <g id="resetDef">
    <use xlink:href="#rim2" fill="#404040"><set attributeName="fill" to="#808080" begin="reset.mouseover" end="reset.mouseout"/></use>
  </g>
</defs>
<script type="application/ecmascript">
var viewWidth = 968;
var viewHeight = 480;
var sectionId = 'dynsection-12';
</script>
<script type="application/ecmascript" xlink:href="svg.min.js"/>
<svg id="graph" class="graph">
<g id="viewport">
<title>BSP_UART_Write</title>
<!-- Node1 -->
<g id="Node000001" class="node">
<title>Node1</title>
<g id="a_Node000001"><a xlink:title="向 TX 环形缓冲写入数据（非阻塞）">
<polygon fill="#999999" stroke="#666666" points="959.5,-392.36 844.5,-392.36 844.5,-370.11 959.5,-370.11 959.5,-392.36"/>
<text xml:space="preserve" text-anchor="middle" x="902" y="-376.96" font-family="Helvetica,sans-Serif" font-size="12.00">BSP_UART_Write</text>
</a>
</g>
</g>
<!-- Node2 -->
<g id="Node000002" class="node">
<title>Node2</title>
<g id="a_Node000002"><a xlink:href="app__shell_8c.html#ab93a15148be82ad3c0999b099de7c29e" target="_top" xlink:title="shell 轮询（后台调用）">
<polygon fill="white" stroke="#666666" points="303,-349.36 188.75,-349.36 188.75,-327.11 303,-327.11 303,-349.36"/>
<text xml:space="preserve" text-anchor="middle" x="245.88" y="-333.96" font-family="Helvetica,sans-Serif" font-size="12.00">APP_SHELL_Poll</text>
</a>
</g>
</g>
<!-- Node1&#45;&gt;Node2 -->
<g id="edge1_Node000001_Node000002" class="edge">
<title>Node1&#45;&gt;Node2</title>
<g id="a_edge1_Node000001_Node000002"><a xlink:title=" ">
<path fill="none" stroke="#63b8ff" d="M866.48,-397.46C820.15,-418.24 734.74,-453.14 657.5,-466.24 593.63,-477.06 576.36,-470.89 511.75,-466.24 434.37,-460.67 407.36,-477.91 339,-441.24 297.99,-419.23 266.23,-371.43 253.25,-349.56"/>
<polygon fill="#63b8ff" stroke="#63b8ff" points="867.8,-400.7 875.46,-393.38 864.91,-394.32 867.8,-400.7"/>
</a>
</g>
</g>
<!-- Node5 -->
<g id="Node000005" class="node">
<title>Node5</title>
<g id="a_Node000005"><a xlink:href="bsp__uart_8c.html#ac8fe8954e03174bb365847f52531e218" target="_top" xlink:title="格式化打印到调试串口（非阻塞）">
<polygon fill="white" stroke="#666666" points="808.5,-276.36 693.5,-276.36 693.5,-254.11 808.5,-254.11 808.5,-276.36"/>
<text xml:space="preserve" text-anchor="middle" x="751" y="-260.96" font-family="Helvetica,sans-Serif" font-size="12.00">BSP_UART_Printf</text>
</a>
</g>
</g>
<!-- Node1&#45;&gt;Node5 -->
<g id="edge4_Node000001_Node000005" class="edge">
<title>Node1&#45;&gt;Node5</title>
<g id="a_edge4_Node000001_Node000005"><a xlink:title=" ">
<path fill="none" stroke="#63b8ff" d="M877.3,-362.79C846.22,-338.59 792.61,-296.85 766.77,-276.74"/>
<polygon fill="#63b8ff" stroke="#63b8ff" points="874.93,-365.38 884.97,-368.76 879.23,-359.86 874.93,-365.38"/>
</a>
</g>
</g>
<!-- Node3 -->
<g id="Node000003" class="node">
<title>Node3</title>
<g id="a_Node000003"><a xlink:href="app__main_8c.html#a6709d26bb67f905916b7c7f048b8396c" target="_top" xlink:title="后台超级循环体（main 的 while(1) 内调用）">
<polygon fill="white" stroke="#666666" points="152.75,-118.36 78.25,-118.36 78.25,-96.11 152.75,-96.11 152.75,-118.36"/>
<text xml:space="preserve" text-anchor="middle" x="115.5" y="-102.96" font-family="Helvetica,sans-Serif" font-size="12.00">APP_Loop</text>
</a>
</g>
</g>
<!-- Node2&#45;&gt;Node3 -->
<g id="edge2_Node000002_Node000003" class="edge">
<title>Node2&#45;&gt;Node3</title>
<g id="a_edge2_Node000002_Node000003"><a xlink:title=" ">
<path fill="none" stroke="#63b8ff" d="M233.03,-316.91C206.53,-269.24 143.24,-155.34 122.9,-118.76"/>
<polygon fill="#63b8ff" stroke="#63b8ff" points="229.86,-318.42 237.77,-325.46 235.98,-315.02 229.86,-318.42"/>
</a>
</g>
</g>
<!-- Node4 -->
<g id="Node000004" class="node">
<title>Node4</title>
<g id="a_Node000004"><a xlink:href="main_8c.html#a840291bc02cba5474a4cb46a9b9566fe" target="_top" xlink:title="The application entry point.">
<polygon fill="white" stroke="#666666" points="42.25,-216.36 0,-216.36 0,-194.11 42.25,-194.11 42.25,-216.36"/>
<text xml:space="preserve" text-anchor="middle" x="21.12" y="-200.96" font-family="Helvetica,sans-Serif" font-size="12.00">main</text>
</a>
</g>
</g>
<!-- Node3&#45;&gt;Node4 -->
<g id="edge3_Node000003_Node000004" class="edge">
<title>Node3&#45;&gt;Node4</title>
<g id="a_edge3_Node000003_Node000004"><a xlink:title=" ">
<path fill="none" stroke="#63b8ff" d="M96.24,-126.61C77.33,-146.67 48.41,-177.35 32.88,-193.82"/>
<polygon fill="#63b8ff" stroke="#63b8ff" points="98.55,-129.26 102.87,-119.58 93.46,-124.46 98.55,-129.26"/>
</a>
</g>
</g>
<!-- Node5&#45;&gt;Node2 -->
<g id="edge25_Node000005_Node000002" class="edge">
<title>Node5&#45;&gt;Node2</title>
<g id="a_edge25_Node000005_Node000002"><a xlink:title=" ">
<path fill="none" stroke="#63b8ff" d="M737.79,-286.08C722.49,-309.89 693.81,-347.58 657.5,-363.24 527.15,-419.45 351.7,-373.31 279.74,-349.86"/>
<polygon fill="#63b8ff" stroke="#63b8ff" points="740.61,-288.17 742.89,-277.82 734.66,-284.49 740.61,-288.17"/>
</a>
</g>
</g>
<!-- Node5&#45;&gt;Node3 -->
<g id="edge7_Node000005_Node000003" class="edge">
<title>Node5&#45;&gt;Node3</title>
<g id="a_edge7_Node000005_Node000003"><a xlink:title=" ">
<path fill="none" stroke="#63b8ff" d="M745.75,-242.84C737.02,-203.82 713,-124.3 657.5,-90.24 573.01,-38.37 260.28,-83.55 152.94,-101.04"/>
<polygon fill="#63b8ff" stroke="#63b8ff" points="742.3,-243.42 747.76,-252.49 749.15,-241.99 742.3,-243.42"/>
</a>
</g>
</g>
<!-- Node6 -->
<g id="Node000006" class="node">
<title>Node6</title>
<g id="a_Node000006"><a xlink:href="app__main_8c.html#a4759d3fdff6b33e2c0a0ae151452112f" target="_top" xlink:title="应用初始化（main 的 USER CODE BEGIN 2 调用）">
<polygon fill="white" stroke="#666666" points="439,-432.36 375.75,-432.36 375.75,-410.11 439,-410.11 439,-432.36"/>
<text xml:space="preserve" text-anchor="middle" x="407.38" y="-416.96" font-family="Helvetica,sans-Serif" font-size="12.00">APP_Init</text>
</a>
</g>
</g>
<!-- Node5&#45;&gt;Node6 -->
<g id="edge5_Node000005_Node000006" class="edge">
<title>Node5&#45;&gt;Node6</title>
<g id="a_edge5_Node000005_Node000006"><a xlink:title=" ">
<path fill="none" stroke="#63b8ff" d="M745.85,-287.85C737.27,-327.23 713.49,-407.41 657.5,-441.24 586.56,-484.09 482.8,-451.87 434.68,-432.74"/>
<polygon fill="#63b8ff" stroke="#63b8ff" points="749.27,-288.59 747.82,-278.1 742.41,-287.2 749.27,-288.59"/>
</a>
</g>
</g>
<!-- Node7 -->
<g id="Node000007" class="node">
<title>Node7</title>
<g id="a_Node000007"><a xlink:href="app__monitor_8c.html#aa50de6c3c6d7de9ecbd381513d6eb095" target="_top" xlink:title="周期日志轮询（后台调用）">
<polygon fill="white" stroke="#666666" points="297.38,-40.36 194.38,-40.36 194.38,-18.11 297.38,-18.11 297.38,-40.36"/>
<text xml:space="preserve" text-anchor="middle" x="245.88" y="-24.96" font-family="Helvetica,sans-Serif" font-size="12.00">APP_MON_Poll</text>
</a>
</g>
</g>
<!-- Node5&#45;&gt;Node7 -->
<g id="edge8_Node000005_Node000007" class="edge">
<title>Node5&#45;&gt;Node7</title>
<g id="a_edge8_Node000005_Node000007"><a xlink:title=" ">
<path fill="none" stroke="#63b8ff" d="M747.62,-242.43C741.6,-197.66 721.38,-98.81 657.5,-54.24 546.65,23.11 375.29,-0.24 293.46,-17.67"/>
<polygon fill="#63b8ff" stroke="#63b8ff" points="744.13,-242.75 748.81,-252.26 751.08,-241.91 744.13,-242.75"/>
</a>
</g>
</g>
<!-- Node8 -->
<g id="Node000008" class="node">
<title>Node8</title>
<g id="a_Node000008"><a xlink:href="app__monitor_8c.html#a69348472c5378c7ae2787d865d1b626e" target="_top" xlink:title="打印上电横幅">
<polygon fill="white" stroke="#666666" points="657.5,-432.36 511.75,-432.36 511.75,-410.11 657.5,-410.11 657.5,-432.36"/>
<text xml:space="preserve" text-anchor="middle" x="584.62" y="-416.96" font-family="Helvetica,sans-Serif" font-size="12.00">APP_MON_PrintBanner</text>
</a>
</g>
</g>
<!-- Node5&#45;&gt;Node8 -->
<g id="edge10_Node000005_Node000008" class="edge">
<title>Node5&#45;&gt;Node8</title>
<g id="a_edge10_Node000005_Node000008"><a xlink:title=" ">
<path fill="none" stroke="#63b8ff" d="M740.15,-286.71C725.87,-315.57 696.77,-366.67 657.5,-396.24 650.11,-401.8 641.39,-406.19 632.62,-409.63"/>
<polygon fill="#63b8ff" stroke="#63b8ff" points="743.23,-288.39 744.39,-277.86 736.91,-285.36 743.23,-288.39"/>
</a>
</g>
</g>
<!-- Node9 -->
<g id="Node000009" class="node">
<title>Node9</title>
<g id="a_Node000009"><a xlink:href="app__shell_8c.html#ad6303a346f63752b165b847c5dcefbb7" target="_top" xlink:title="解析并执行一行命令">
<polygon fill="white" stroke="#666666" points="475.75,-291.36 339,-291.36 339,-269.11 475.75,-269.11 475.75,-291.36"/>
<text xml:space="preserve" text-anchor="middle" x="407.38" y="-275.96" font-family="Helvetica,sans-Serif" font-size="12.00">APP_SHELL_Execute</text>
</a>
</g>
</g>
<!-- Node5&#45;&gt;Node9 -->
<g id="edge20_Node000005_Node000009" class="edge">
<title>Node5&#45;&gt;Node9</title>
<g id="a_edge20_Node000005_Node000009"><a xlink:title=" ">
<path fill="none" stroke="#63b8ff" d="M694.68,-279.2C682.51,-281.71 669.63,-283.94 657.5,-285.24 596.42,-291.76 526.45,-289.51 476.25,-286.21"/>
<polygon fill="#63b8ff" stroke="#63b8ff" points="695.1,-282.69 704.14,-277.16 693.62,-275.85 695.1,-282.69"/>
</a>
</g>
</g>
<!-- Node10 -->
<g id="Node000010" class="node">
<title>Node10</title>
<g id="a_Node000010"><a xlink:href="app__monitor_8c.html#a9bb383e6ceed1252d51dd3ebbc075668" target="_top" xlink:title="打印完整状态快照（shell &quot;status&quot;）">
<polygon fill="white" stroke="#666666" points="654.88,-276.36 514.38,-276.36 514.38,-254.11 654.88,-254.11 654.88,-276.36"/>
<text xml:space="preserve" text-anchor="middle" x="584.62" y="-260.96" font-family="Helvetica,sans-Serif" font-size="12.00">APP_MON_PrintStatus</text>
</a>
</g>
</g>
<!-- Node5&#45;&gt;Node10 -->
<g id="edge14_Node000005_Node000010" class="edge">
<title>Node5&#45;&gt;Node10</title>
<g id="a_edge14_Node000005_Node000010"><a xlink:title=" ">
<path fill="none" stroke="#63b8ff" d="M682.03,-265.24C673.23,-265.24 664.2,-265.24 655.37,-265.24"/>
<polygon fill="#63b8ff" stroke="#63b8ff" points="681.92,-268.74 691.92,-265.24 681.92,-261.74 681.92,-268.74"/>
</a>
</g>
</g>
<!-- Node11 -->
<g id="Node000011" class="node">
<title>Node11</title>
<g id="a_Node000011"><a xlink:href="app__monitor_8c.html#a22c38d8c76224ba2db01a5a69b925982" target="_top" xlink:title="设置周期日志开关与速率">
<polygon fill="white" stroke="#666666" points="644.75,-236.36 524.5,-236.36 524.5,-214.11 644.75,-214.11 644.75,-236.36"/>
<text xml:space="preserve" text-anchor="middle" x="584.62" y="-220.96" font-family="Helvetica,sans-Serif" font-size="12.00">APP_MON_SetLog</text>
</a>
</g>
</g>
<!-- Node5&#45;&gt;Node11 -->
<g id="edge16_Node000005_Node000011" class="edge">
<title>Node5&#45;&gt;Node11</title>
<g id="a_edge16_Node000005_Node000011"><a xlink:title=" ">
<path fill="none" stroke="#63b8ff" d="M691.48,-251C672.43,-246.36 651.52,-241.27 633.35,-236.85"/>
<polygon fill="#63b8ff" stroke="#63b8ff" points="690.44,-254.35 700.99,-253.31 692.1,-247.54 690.44,-254.35"/>
</a>
</g>
</g>
<!-- Node12 -->
<g id="Node000012" class="node">
<title>Node12</title>
<g id="a_Node000012"><a xlink:href="app__shell_8c.html#aae99ca6c66313d23c6f3a593badf4961" target="_top" xlink:title="boot0 命令：检查/编程 nSWBOOT0 选项字节">
<polygon fill="white" stroke="#666666" points="647,-196.36 522.25,-196.36 522.25,-174.11 647,-174.11 647,-196.36"/>
<text xml:space="preserve" text-anchor="middle" x="584.62" y="-180.96" font-family="Helvetica,sans-Serif" font-size="12.00">APP_SHELL_Boot0</text>
</a>
</g>
</g>
<!-- Node5&#45;&gt;Node12 -->
<g id="edge18_Node000005_Node000012" class="edge">
<title>Node5&#45;&gt;Node12</title>
<g id="a_edge18_Node000005_Node000012"><a xlink:title=" ">
<path fill="none" stroke="#63b8ff" d="M726.28,-246.95C708.25,-233.79 682.38,-216.45 657.5,-205.24 650.41,-202.04 642.7,-199.25 635.05,-196.84"/>
<polygon fill="#63b8ff" stroke="#63b8ff" points="724.1,-249.69 734.22,-252.86 728.29,-244.08 724.1,-249.69"/>
</a>
</g>
</g>
<!-- Node13 -->
<g id="Node000013" class="node">
<title>Node13</title>
<g id="a_Node000013"><a xlink:href="app__shell_8c.html#a02ce76ff72a6b62807e1f3c3abdc850f" target="_top" xlink:title="get/set 命令处理">
<polygon fill="white" stroke="#666666" points="649.62,-156.36 519.62,-156.36 519.62,-134.11 649.62,-134.11 649.62,-156.36"/>
<text xml:space="preserve" text-anchor="middle" x="584.62" y="-140.96" font-family="Helvetica,sans-Serif" font-size="12.00">APP_SHELL_GetSet</text>
</a>
</g>
</g>
<!-- Node5&#45;&gt;Node13 -->
<g id="edge21_Node000005_Node000013" class="edge">
<title>Node5&#45;&gt;Node13</title>
<g id="a_edge21_Node000005_Node000013"><a xlink:title=" ">
<path fill="none" stroke="#63b8ff" d="M736.06,-244.28C719.83,-221.5 690.94,-185.64 657.5,-165.24 652.08,-161.93 646.11,-159.16 639.98,-156.83"/>
<polygon fill="#63b8ff" stroke="#63b8ff" points="733.16,-246.25 741.73,-252.48 738.92,-242.26 733.16,-246.25"/>
</a>
</g>
</g>
<!-- Node14 -->
<g id="Node000014" class="node">
<title>Node14</title>
<g id="a_Node000014"><a xlink:href="app__shell_8c.html#a6d537e45ceeac530b13b4645c1e0961c" target="_top" xlink:title="help 输出">
<polygon fill="white" stroke="#666666" points="644,-354.36 525.25,-354.36 525.25,-332.11 644,-332.11 644,-354.36"/>
<text xml:space="preserve" text-anchor="middle" x="584.62" y="-338.96" font-family="Helvetica,sans-Serif" font-size="12.00">APP_SHELL_Help</text>
</a>
</g>
</g>
<!-- Node5&#45;&gt;Node14 -->
<g id="edge23_Node000005_Node000014" class="edge">
<title>Node5&#45;&gt;Node14</title>
<g id="a_edge23_Node000005_Node000014"><a xlink:title=" ">
<path fill="none" stroke="#63b8ff" d="M722.53,-282.78C704.49,-293.84 680.13,-307.92 657.5,-318.24 646.56,-323.22 634.32,-327.82 623.08,-331.68"/>
<polygon fill="#63b8ff" stroke="#63b8ff" points="724.17,-285.88 730.82,-277.63 720.47,-279.93 724.17,-285.88"/>
</a>
</g>
</g>
<!-- Node15 -->
<g id="Node000015" class="node">
<title>Node15</title>
<g id="a_Node000015"><a xlink:href="app__main_8c.html#a9d7a99f268e16f853238569586d275aa" target="_top" xlink:title="慢任务：温度采样/过温保护/CAN 指令超时">
<polygon fill="white" stroke="#666666" points="457,-118.36 357.75,-118.36 357.75,-96.11 457,-96.11 457,-118.36"/>
<text xml:space="preserve" text-anchor="middle" x="407.38" y="-102.96" font-family="Helvetica,sans-Serif" font-size="12.00">APP_SlowTask</text>
</a>
</g>
</g>
<!-- Node5&#45;&gt;Node15 -->
<g id="edge26_Node000005_Node000015" class="edge">
<title>Node5&#45;&gt;Node15</title>
<g id="a_edge26_Node000005_Node000015"><a xlink:title=" ">
<path fill="none" stroke="#63b8ff" d="M742.69,-243.45C730.61,-211.28 703.18,-151.97 657.5,-125.24 595.75,-89.09 510.11,-92.06 457.02,-98.74"/>
<polygon fill="#63b8ff" stroke="#63b8ff" points="739.28,-244.31 745.94,-252.54 745.87,-241.95 739.28,-244.31"/>
</a>
</g>
</g>
<!-- Node6&#45;&gt;Node4 -->
<g id="edge6_Node000006_Node000004" class="edge">
<title>Node6&#45;&gt;Node4</title>
<g id="a_edge6_Node000006_Node000004"><a xlink:title=" ">
<path fill="none" stroke="#63b8ff" d="M364.21,-414.96C318.66,-406.86 245.05,-389.9 188.75,-358.24 118.92,-318.96 54.57,-245.13 31.31,-216.75"/>
<polygon fill="#63b8ff" stroke="#63b8ff" points="363.5,-418.39 373.95,-416.62 364.68,-411.49 363.5,-418.39"/>
</a>
</g>
</g>
<!-- Node7&#45;&gt;Node3 -->
<g id="edge9_Node000007_Node000003" class="edge">
<title>Node7&#45;&gt;Node3</title>
<g id="a_edge9_Node000007_Node000003"><a xlink:title=" ">
<path fill="none" stroke="#63b8ff" d="M205.54,-45.47C199.81,-48.2 194.05,-51.16 188.75,-54.24 167.22,-66.73 144.38,-84.31 130.28,-95.74"/>
<polygon fill="#63b8ff" stroke="#63b8ff" points="206.72,-48.77 214.36,-41.43 203.81,-42.41 206.72,-48.77"/>
</a>
</g>
</g>
<!-- Node8&#45;&gt;Node6 -->
<g id="edge11_Node000008_Node000006" class="edge">
<title>Node8&#45;&gt;Node6</title>
<g id="a_edge11_Node000008_Node000006"><a xlink:title=" ">
<path fill="none" stroke="#63b8ff" d="M500.08,-421.24C478.44,-421.24 456.48,-421.24 439.47,-421.24"/>
<polygon fill="#63b8ff" stroke="#63b8ff" points="499.82,-424.74 509.82,-421.24 499.82,-417.74 499.82,-424.74"/>
</a>
</g>
</g>
<!-- Node8&#45;&gt;Node9 -->
<g id="edge12_Node000008_Node000009" class="edge">
<title>Node8&#45;&gt;Node9</title>
<g id="a_edge12_Node000008_Node000009"><a xlink:title=" ">
<path fill="none" stroke="#63b8ff" d="M560.71,-402.8C523.88,-373.17 452.61,-315.82 422.42,-291.54"/>
<polygon fill="#63b8ff" stroke="#63b8ff" points="558.12,-405.21 568.1,-408.75 562.51,-399.75 558.12,-405.21"/>
</a>
</g>
</g>
<!-- Node9&#45;&gt;Node2 -->
<g id="edge13_Node000009_Node000002" class="edge">
<title>Node9&#45;&gt;Node2</title>
<g id="a_edge13_Node000009_Node000002"><a xlink:title=" ">
<path fill="none" stroke="#63b8ff" d="M363.88,-295.69C337.12,-305.42 303.15,-317.77 278.71,-326.66"/>
<polygon fill="#63b8ff" stroke="#63b8ff" points="364.86,-299.06 373.06,-292.35 362.46,-292.48 364.86,-299.06"/>
</a>
</g>
</g>
<!-- Node10&#45;&gt;Node9 -->
<g id="edge15_Node000010_Node000009" class="edge">
<title>Node10&#45;&gt;Node9</title>
<g id="a_edge15_Node000010_Node000009"><a xlink:title=" ">
<path fill="none" stroke="#63b8ff" d="M502.85,-272.15C493.9,-272.92 484.86,-273.69 476.09,-274.44"/>
<polygon fill="#63b8ff" stroke="#63b8ff" points="502.94,-275.66 512.6,-271.32 502.34,-268.68 502.94,-275.66"/>
</a>
</g>
</g>
<!-- Node11&#45;&gt;Node9 -->
<g id="edge17_Node000011_Node000009" class="edge">
<title>Node11&#45;&gt;Node9</title>
<g id="a_edge17_Node000011_Node000009"><a xlink:title=" ">
<path fill="none" stroke="#63b8ff" d="M529.71,-239.89C523.64,-241.64 517.55,-243.45 511.75,-245.24 487.85,-252.6 461.11,-261.68 440.82,-268.74"/>
<polygon fill="#63b8ff" stroke="#63b8ff" points="530.45,-243.32 539.11,-237.22 528.53,-236.59 530.45,-243.32"/>
</a>
</g>
</g>
<!-- Node12&#45;&gt;Node9 -->
<g id="edge19_Node000012_Node000009" class="edge">
<title>Node12&#45;&gt;Node9</title>
<g id="a_edge19_Node000012_Node000009"><a xlink:title=" ">
<path fill="none" stroke="#63b8ff" d="M522.63,-200.54C518.89,-201.99 515.24,-203.55 511.75,-205.24 476,-222.48 439.71,-252.28 421.1,-268.64"/>
<polygon fill="#63b8ff" stroke="#63b8ff" points="523.61,-203.91 531.86,-197.27 521.27,-197.31 523.61,-203.91"/>
</a>
</g>
</g>
<!-- Node13&#45;&gt;Node9 -->
<g id="edge22_Node000013_Node000009" class="edge">
<title>Node13&#45;&gt;Node9</title>
<g id="a_edge22_Node000013_Node000009"><a xlink:title=" ">
<path fill="none" stroke="#63b8ff" d="M518.85,-161.29C516.4,-162.51 514.03,-163.83 511.75,-165.24 467.03,-192.96 430.19,-245.64 415.38,-268.82"/>
<polygon fill="#63b8ff" stroke="#63b8ff" points="520.07,-164.58 527.83,-157.37 517.27,-158.16 520.07,-164.58"/>
</a>
</g>
</g>
<!-- Node14&#45;&gt;Node9 -->
<g id="edge24_Node000014_Node000009" class="edge">
<title>Node14&#45;&gt;Node9</title>
<g id="a_edge24_Node000014_Node000009"><a xlink:title=" ">
<path fill="none" stroke="#63b8ff" d="M539.14,-327.9C530.07,-324.73 520.59,-321.4 511.75,-318.24 487.44,-309.54 460.03,-299.45 439.54,-291.85"/>
<polygon fill="#63b8ff" stroke="#63b8ff" points="537.92,-331.18 548.51,-331.16 540.22,-324.57 537.92,-331.18"/>
</a>
</g>
</g>
<!-- Node15&#45;&gt;Node3 -->
<g id="edge27_Node000015_Node000003" class="edge">
<title>Node15&#45;&gt;Node3</title>
<g id="a_edge27_Node000015_Node000003"><a xlink:title=" ">
<path fill="none" stroke="#63b8ff" d="M346.28,-107.24C288.08,-107.24 201.7,-107.24 153.12,-107.24"/>
<polygon fill="#63b8ff" stroke="#63b8ff" points="346.02,-110.74 356.02,-107.24 346.02,-103.74 346.02,-110.74"/>
</a>
</g>
</g>
</g>
</svg>

<g id="navigator" transform="translate(0 0)" fill="#404254">
  <rect fill="#f2f5e9" fill-opacity="0.5" stroke="#606060" stroke-width=".5" x="0" y="0" width="60" height="60"/>
  <use id="zoomplus" xlink:href="#zoomPlus" x="17" y="9" onmousedown="handleZoom(evt,'in')"/>
  <use id="zoomminus" xlink:href="#zoomMin" x="42" y="9" onmousedown="handleZoom(evt,'out')"/>
  <use id="reset" xlink:href="#resetDef" x="30" y="36" onmousedown="handleReset()"/>
   <use id="arrowup" xlink:href="#arrowUp" x="0" y="0" onmousedown="handlePan(0,-1)"/>
  <use id="arrowright" xlink:href="#arrowRight" x="0" y="0" onmousedown="handlePan(1,0)"/>
  <use id="arrowdown" xlink:href="#arrowDown" x="0" y="0" onmousedown="handlePan(0,1)"/>
  <use id="arrowleft" xlink:href="#arrowLeft" x="0" y="0" onmousedown="handlePan(-1,0)"/>
</g>
<svg viewBox="0 0 15 15" width="100%" height="30px" preserveAspectRatio="xMaxYMin meet">
 <g id="arrow_out" transform="scale(0.3 0.3)">
  <a xlink:href="bsp__uart_8c_a67e2eb7d361398076d0800612430f13c_icgraph_org.svg" target="_base">
   <rect id="button" ry="5" rx="5" y="6" x="6" height="38" width="38"
        fill="#f2f5e9" fill-opacity="0.5" stroke="#606060" stroke-width="1.0"/>
   <path id="arrow"
     d="M 11.500037,31.436501 C 11.940474,20.09759 22.043105,11.32322 32.158766,21.979434 L 37.068811,17.246167 C 37.068811,17.246167 37.088388,32 37.088388,32 L 22.160133,31.978069 C 22.160133,31.978069 26.997745,27.140456 26.997745,27.140456 C 18.528582,18.264221 13.291696,25.230495 11.500037,31.436501 z"
     style="fill:#404040;"/>
  </a>
 </g>
</svg>

<style type='text/css'>
<![CDATA[
[data-mouse-over-selected='false'] { opacity: 0.7; }
[data-mouse-over-selected='true']  { opacity: 1.0; }
]]>
</style>
<script type="application/ecmascript"><![CDATA[
document.addEventListener('DOMContentLoaded', (event) => {
  highlightEdges();
  highlightAdjacentNodes();
});
]]></script>
</svg>
