<?xml version="1.0" encoding="UTF-8" standalone="no"?>
<!DOCTYPE svg PUBLIC "-//W3C//DTD SVG 1.1//EN"
 "http://www.w3.org/Graphics/SVG/1.1/DTD/svg11.dtd">
<!-- Generated by graphviz version 15.1.0 (20260618.0150)
 -->
<!-- Title: BSP_UART_Printf Pages: 1 -->
<!--zoomable 470 -->

<svg id="main" version="1.1" xmlns="http://www.w3.org/2000/svg" xmlns:xlink="http://www.w3.org/1999/xlink" xml:space="preserve" onload="init(evt)">

<style type="text/css"><![CDATA[
.node, .edge {opacity: 0.7;}
.node.selected, .edge.selected {opacity: 1;}
.edge:hover path { stroke: red; }
.edge:hover polygon { stroke: red; fill: red; }
]]></style>

<defs>
  <circle id="rim" cx="0" cy="0" r="7"/>
  <circle id="rim2" cx="0" cy="0" r="3.5"/>
  <g id="zoomPlus">
    <use xlink:href="#rim" fill="#404040"><set attributeName="fill" to="#808080" begin="zoomplus.mouseover" end="zoomplus.mouseout"/></use>
    <path d="M-4,0h8M0,-4v8" fill="none" stroke="white" stroke-width="1.5" pointer-events="none"/>
  </g>
  <g id="zoomMin">
    <use xlink:href="#rim" fill="#404040"><set attributeName="fill" to="#808080" begin="zoomminus.mouseover" end="zoomminus.mouseout"/></use>
    <path d="M-4,0h8" fill="none" stroke="white" stroke-width="1.5" pointer-events="none"/>
  </g>
  <g id="arrowUp" transform="translate(30 24)">
    <use xlink:href="#rim"/>
    <path pointer-events="none" fill="none" stroke="white" stroke-width="1.5" d="M0,-3.0v7 M-2.5,-0.5L0,-3.0L2.5,-0.5"/>
  </g>
  <g id="arrowRight" transform="rotate(90) translate(36 -43)">
    <use xlink:href="#rim"/>
    <path pointer-events="none" fill="none" stroke="white" stroke-width="1.5" d="M0,-3.0v7 M-2.5,-0.5L0,-3.0L2.5,-0.5"/>
  </g>
  <g id="arrowDown" transform="rotate(180) translate(-30 -48)">
    <use xlink:href="#rim"/>
    <path pointer-events="none" fill="none" stroke="white" stroke-width="1.5" d="M0,-3.0v7 M-2.5,-0.5L0,-3.0L2.5,-0.5"/>
  </g>
  <g id="arrowLeft" transform="rotate(270) translate(-36 17)">
    <use xlink:href="#rim"/>
    <path pointer-events="none" fill="none" stroke="white" stroke-width="1.5" d="M0,-3.0v7 M-2.5,-0.5L0,-3.0L2.5,-0.5"/>
  </g>
  <g id="resetDef">
    <use xlink:href="#rim2" fill="#404040"><set attributeName="fill" to="#808080" begin="reset.mouseover" end="reset.mouseout"/></use>
  </g>
</defs>
<script type="application/ecmascript">
var viewWidth = 817;
var viewHeight = 470;
var sectionId = 'dynsection-8';
</script>
<script type="application/ecmascript" xlink:href="svg.min.js"/>
<svg id="graph" class="graph">
<g id="viewport">
<title>BSP_UART_Printf</title>
<!-- Node1 -->
<g id="Node000001" class="node">
<title>Node1</title>
<g id="a_Node000001"><a xlink:title="格式化打印到调试串口（非阻塞）">
<polygon fill="#999999" stroke="#666666" points="808.5,-252.98 693.5,-252.98 693.5,-230.73 808.5,-230.73 808.5,-252.98"/>
<text xml:space="preserve" text-anchor="middle" x="751" y="-237.58" font-family="Helvetica,sans-Serif" font-size="12.00">BSP_UART_Printf</text>
</a>
</g>
</g>
<!-- Node2 -->
<g id="Node000002" class="node">
<title>Node2</title>
<g id="a_Node000002"><a xlink:href="app__main_8c.html#a4759d3fdff6b33e2c0a0ae151452112f" target="_top" xlink:title="应用初始化（main 的 USER CODE BEGIN 2 调用）">
<polygon fill="white" stroke="#666666" points="439,-430.98 375.75,-430.98 375.75,-408.73 439,-408.73 439,-430.98"/>
<text xml:space="preserve" text-anchor="middle" x="407.38" y="-415.58" font-family="Helvetica,sans-Serif" font-size="12.00">APP_Init</text>
</a>
</g>
</g>
<!-- Node1&#45;&gt;Node2 -->
<g id="edge1_Node000001_Node000002" class="edge">
<title>Node1&#45;&gt;Node2</title>
<g id="a_edge1_Node000001_Node000002"><a xlink:title=" ">
<path fill="none" stroke="#63b8ff" d="M747.26,-264.21C740.67,-307.13 719.55,-400.36 657.5,-439.86 587.22,-484.59 482.23,-450.97 434.12,-431.37"/>
<polygon fill="#63b8ff" stroke="#63b8ff" points="750.69,-264.95 748.61,-254.56 743.76,-263.98 750.69,-264.95"/>
</a>
</g>
</g>
<!-- Node4 -->
<g id="Node000004" class="node">
<title>Node4</title>
<g id="a_Node000004"><a xlink:href="app__main_8c.html#a6709d26bb67f905916b7c7f048b8396c" target="_top" xlink:title="后台超级循环体（main 的 while(1) 内调用）">
<polygon fill="white" stroke="#666666" points="152.75,-174.98 78.25,-174.98 78.25,-152.73 152.75,-152.73 152.75,-174.98"/>
<text xml:space="preserve" text-anchor="middle" x="115.5" y="-159.58" font-family="Helvetica,sans-Serif" font-size="12.00">APP_Loop</text>
</a>
</g>
</g>
<!-- Node1&#45;&gt;Node4 -->
<g id="edge3_Node000001_Node000004" class="edge">
<title>Node1&#45;&gt;Node4</title>
<g id="a_edge3_Node000001_Node000004"><a xlink:title=" ">
<path fill="none" stroke="#63b8ff" d="M742.2,-220.01C729.76,-188.92 702.18,-133.11 657.5,-109.86 478.52,-16.73 221.26,-116.76 141.22,-152.32"/>
<polygon fill="#63b8ff" stroke="#63b8ff" points="738.86,-221.08 745.69,-229.18 745.4,-218.59 738.86,-221.08"/>
</a>
</g>
</g>
<!-- Node5 -->
<g id="Node000005" class="node">
<title>Node5</title>
<g id="a_Node000005"><a xlink:href="app__monitor_8c.html#aa50de6c3c6d7de9ecbd381513d6eb095" target="_top" xlink:title="周期日志轮询（后台调用）">
<polygon fill="white" stroke="#666666" points="297.38,-38.98 194.38,-38.98 194.38,-16.73 297.38,-16.73 297.38,-38.98"/>
<text xml:space="preserve" text-anchor="middle" x="245.88" y="-23.58" font-family="Helvetica,sans-Serif" font-size="12.00">APP_MON_Poll</text>
</a>
</g>
</g>
<!-- Node1&#45;&gt;Node5 -->
<g id="edge5_Node000001_Node000005" class="edge">
<title>Node1&#45;&gt;Node5</title>
<g id="a_edge5_Node000001_Node000005"><a xlink:title=" ">
<path fill="none" stroke="#63b8ff" d="M746.39,-219.12C738.52,-177.92 715.61,-91.62 657.5,-52.86 546.24,21.35 378.05,0.38 295.74,-16.24"/>
<polygon fill="#63b8ff" stroke="#63b8ff" points="742.93,-219.62 748.11,-228.86 749.82,-218.41 742.93,-219.62"/>
</a>
</g>
</g>
<!-- Node6 -->
<g id="Node000006" class="node">
<title>Node6</title>
<g id="a_Node000006"><a xlink:href="app__monitor_8c.html#a69348472c5378c7ae2787d865d1b626e" target="_top" xlink:title="打印上电横幅">
<polygon fill="white" stroke="#666666" points="657.5,-430.98 511.75,-430.98 511.75,-408.73 657.5,-408.73 657.5,-430.98"/>
<text xml:space="preserve" text-anchor="middle" x="584.62" y="-415.58" font-family="Helvetica,sans-Serif" font-size="12.00">APP_MON_PrintBanner</text>
</a>
</g>
</g>
<!-- Node1&#45;&gt;Node6 -->
<g id="edge7_Node000001_Node000006" class="edge">
<title>Node1&#45;&gt;Node6</title>
<g id="a_edge7_Node000001_Node000006"><a xlink:title=" ">
<path fill="none" stroke="#63b8ff" d="M742.22,-264.07C729.53,-297.18 701.32,-359.36 657.5,-394.86 650.52,-400.51 642.18,-404.93 633.69,-408.36"/>
<polygon fill="#63b8ff" stroke="#63b8ff" points="745.49,-265.31 745.67,-254.72 738.93,-262.89 745.49,-265.31"/>
</a>
</g>
</g>
<!-- Node7 -->
<g id="Node000007" class="node">
<title>Node7</title>
<g id="a_Node000007"><a xlink:href="app__shell_8c.html#ad6303a346f63752b165b847c5dcefbb7" target="_top" xlink:title="解析并执行一行命令">
<polygon fill="white" stroke="#666666" points="475.75,-252.98 339,-252.98 339,-230.73 475.75,-230.73 475.75,-252.98"/>
<text xml:space="preserve" text-anchor="middle" x="407.38" y="-237.58" font-family="Helvetica,sans-Serif" font-size="12.00">APP_SHELL_Execute</text>
</a>
</g>
</g>
<!-- Node1&#45;&gt;Node7 -->
<g id="edge18_Node000001_Node000007" class="edge">
<title>Node1&#45;&gt;Node7</title>
<g id="a_edge18_Node000001_Node000007"><a xlink:title=" ">
<path fill="none" stroke="#63b8ff" d="M734.11,-221.49C717.45,-201.94 689.3,-173.7 657.5,-161.86 596.8,-139.25 573.05,-140.91 511.75,-161.86 471.81,-175.51 435.34,-211.55 418.38,-230.24"/>
<polygon fill="#63b8ff" stroke="#63b8ff" points="731.32,-223.6 740.37,-229.11 736.73,-219.16 731.32,-223.6"/>
</a>
</g>
</g>
<!-- Node8 -->
<g id="Node000008" class="node">
<title>Node8</title>
<g id="a_Node000008"><a xlink:href="app__shell_8c.html#ab93a15148be82ad3c0999b099de7c29e" target="_top" xlink:title="shell 轮询（后台调用）">
<polygon fill="white" stroke="#666666" points="303,-174.98 188.75,-174.98 188.75,-152.73 303,-152.73 303,-174.98"/>
<text xml:space="preserve" text-anchor="middle" x="245.88" y="-159.58" font-family="Helvetica,sans-Serif" font-size="12.00">APP_SHELL_Poll</text>
</a>
</g>
</g>
<!-- Node1&#45;&gt;Node8 -->
<g id="edge23_Node000001_Node000008" class="edge">
<title>Node1&#45;&gt;Node8</title>
<g id="a_edge23_Node000001_Node000008"><a xlink:title=" ">
<path fill="none" stroke="#63b8ff" d="M737.9,-220.6C722.7,-196.32 694.12,-157.87 657.5,-141.86 527.98,-85.23 353.17,-129.36 280.61,-152.26"/>
<polygon fill="#63b8ff" stroke="#63b8ff" points="734.82,-222.27 742.97,-229.04 740.82,-218.66 734.82,-222.27"/>
</a>
</g>
</g>
<!-- Node9 -->
<g id="Node000009" class="node">
<title>Node9</title>
<g id="a_Node000009"><a xlink:href="app__monitor_8c.html#a9bb383e6ceed1252d51dd3ebbc075668" target="_top" xlink:title="打印完整状态快照（shell &quot;status&quot;）">
<polygon fill="white" stroke="#666666" points="654.88,-352.98 514.38,-352.98 514.38,-330.73 654.88,-330.73 654.88,-352.98"/>
<text xml:space="preserve" text-anchor="middle" x="584.62" y="-337.58" font-family="Helvetica,sans-Serif" font-size="12.00">APP_MON_PrintStatus</text>
</a>
</g>
</g>
<!-- Node1&#45;&gt;Node9 -->
<g id="edge12_Node000001_Node000009" class="edge">
<title>Node1&#45;&gt;Node9</title>
<g id="a_edge12_Node000001_Node000009"><a xlink:title=" ">
<path fill="none" stroke="#63b8ff" d="M732.18,-261.63C714.8,-279.78 686.77,-306.16 657.5,-321.86 651.34,-325.16 644.57,-327.96 637.74,-330.32"/>
<polygon fill="#63b8ff" stroke="#63b8ff" points="734.51,-264.27 738.78,-254.57 729.4,-259.49 734.51,-264.27"/>
</a>
</g>
</g>
<!-- Node10 -->
<g id="Node000010" class="node">
<title>Node10</title>
<g id="a_Node000010"><a xlink:href="app__monitor_8c.html#a22c38d8c76224ba2db01a5a69b925982" target="_top" xlink:title="设置周期日志开关与速率">
<polygon fill="white" stroke="#666666" points="644.75,-312.98 524.5,-312.98 524.5,-290.73 644.75,-290.73 644.75,-312.98"/>
<text xml:space="preserve" text-anchor="middle" x="584.62" y="-297.58" font-family="Helvetica,sans-Serif" font-size="12.00">APP_MON_SetLog</text>
</a>
</g>
</g>
<!-- Node1&#45;&gt;Node10 -->
<g id="edge14_Node000001_Node000010" class="edge">
<title>Node1&#45;&gt;Node10</title>
<g id="a_edge14_Node000001_Node000010"><a xlink:title=" ">
<path fill="none" stroke="#63b8ff" d="M715.85,-257.95C698.59,-265.75 677.17,-274.9 657.5,-281.86 648.95,-284.88 639.7,-287.74 630.78,-290.31"/>
<polygon fill="#63b8ff" stroke="#63b8ff" points="717,-261.28 724.64,-253.93 714.09,-254.91 717,-261.28"/>
</a>
</g>
</g>
<!-- Node11 -->
<g id="Node000011" class="node">
<title>Node11</title>
<g id="a_Node000011"><a xlink:href="app__shell_8c.html#aae99ca6c66313d23c6f3a593badf4961" target="_top" xlink:title="boot0 命令：检查/编程 nSWBOOT0 选项字节">
<polygon fill="white" stroke="#666666" points="647,-272.98 522.25,-272.98 522.25,-250.73 647,-250.73 647,-272.98"/>
<text xml:space="preserve" text-anchor="middle" x="584.62" y="-257.58" font-family="Helvetica,sans-Serif" font-size="12.00">APP_SHELL_Boot0</text>
</a>
</g>
</g>
<!-- Node1&#45;&gt;Node11 -->
<g id="edge16_Node000001_Node000011" class="edge">
<title>Node1&#45;&gt;Node11</title>
<g id="a_edge16_Node000001_Node000011"><a xlink:title=" ">
<path fill="none" stroke="#63b8ff" d="M682.09,-250.12C670.58,-251.52 658.69,-252.97 647.36,-254.35"/>
<polygon fill="#63b8ff" stroke="#63b8ff" points="682.42,-253.6 691.93,-248.92 681.58,-246.66 682.42,-253.6"/>
</a>
</g>
</g>
<!-- Node12 -->
<g id="Node000012" class="node">
<title>Node12</title>
<g id="a_Node000012"><a xlink:href="app__shell_8c.html#a02ce76ff72a6b62807e1f3c3abdc850f" target="_top" xlink:title="get/set 命令处理">
<polygon fill="white" stroke="#666666" points="649.62,-232.98 519.62,-232.98 519.62,-210.73 649.62,-210.73 649.62,-232.98"/>
<text xml:space="preserve" text-anchor="middle" x="584.62" y="-217.58" font-family="Helvetica,sans-Serif" font-size="12.00">APP_SHELL_GetSet</text>
</a>
</g>
</g>
<!-- Node1&#45;&gt;Node12 -->
<g id="edge19_Node000001_Node000012" class="edge">
<title>Node1&#45;&gt;Node12</title>
<g id="a_edge19_Node000001_Node000012"><a xlink:title=" ">
<path fill="none" stroke="#63b8ff" d="M682.06,-233.59C671.43,-232.3 660.47,-230.96 649.92,-229.68"/>
<polygon fill="#63b8ff" stroke="#63b8ff" points="681.58,-237.06 691.93,-234.79 682.42,-230.11 681.58,-237.06"/>
</a>
</g>
</g>
<!-- Node13 -->
<g id="Node000013" class="node">
<title>Node13</title>
<g id="a_Node000013"><a xlink:href="app__shell_8c.html#a6d537e45ceeac530b13b4645c1e0961c" target="_top" xlink:title="help 输出">
<polygon fill="white" stroke="#666666" points="644,-192.98 525.25,-192.98 525.25,-170.73 644,-170.73 644,-192.98"/>
<text xml:space="preserve" text-anchor="middle" x="584.62" y="-177.58" font-family="Helvetica,sans-Serif" font-size="12.00">APP_SHELL_Help</text>
</a>
</g>
</g>
<!-- Node1&#45;&gt;Node13 -->
<g id="edge21_Node000001_Node000013" class="edge">
<title>Node1&#45;&gt;Node13</title>
<g id="a_edge21_Node000001_Node000013"><a xlink:title=" ">
<path fill="none" stroke="#63b8ff" d="M715.85,-225.76C698.59,-217.96 677.17,-208.81 657.5,-201.86 648.95,-198.83 639.7,-195.97 630.78,-193.4"/>
<polygon fill="#63b8ff" stroke="#63b8ff" points="714.09,-228.8 724.64,-229.78 717,-222.44 714.09,-228.8"/>
</a>
</g>
</g>
<!-- Node14 -->
<g id="Node000014" class="node">
<title>Node14</title>
<g id="a_Node000014"><a xlink:href="app__main_8c.html#a9d7a99f268e16f853238569586d275aa" target="_top" xlink:title="慢任务：温度采样/过温保护/CAN 指令超时">
<polygon fill="white" stroke="#666666" points="457,-346.98 357.75,-346.98 357.75,-324.73 457,-324.73 457,-346.98"/>
<text xml:space="preserve" text-anchor="middle" x="407.38" y="-331.58" font-family="Helvetica,sans-Serif" font-size="12.00">APP_SlowTask</text>
</a>
</g>
</g>
<!-- Node1&#45;&gt;Node14 -->
<g id="edge24_Node000001_Node000014" class="edge">
<title>Node1&#45;&gt;Node14</title>
<g id="a_edge24_Node000001_Node000014"><a xlink:title=" ">
<path fill="none" stroke="#63b8ff" d="M740.85,-263.43C727.37,-292.05 699.18,-341.36 657.5,-361.86 583.36,-398.32 482.04,-366.34 434.73,-347.42"/>
<polygon fill="#63b8ff" stroke="#63b8ff" points="743.9,-265.17 744.81,-254.62 737.52,-262.3 743.9,-265.17"/>
</a>
</g>
</g>
<!-- Node3 -->
<g id="Node000003" class="node">
<title>Node3</title>
<g id="a_Node000003"><a xlink:href="main_8c.html#a840291bc02cba5474a4cb46a9b9566fe" target="_top" xlink:title="The application entry point.">
<polygon fill="white" stroke="#666666" points="42.25,-212.98 0,-212.98 0,-190.73 42.25,-190.73 42.25,-212.98"/>
<text xml:space="preserve" text-anchor="middle" x="21.12" y="-197.58" font-family="Helvetica,sans-Serif" font-size="12.00">main</text>
</a>
</g>
</g>
<!-- Node2&#45;&gt;Node3 -->
<g id="edge2_Node000002_Node000003" class="edge">
<title>Node2&#45;&gt;Node3</title>
<g id="a_edge2_Node000002_Node000003"><a xlink:title=" ">
<path fill="none" stroke="#63b8ff" d="M376.17,-402.72C300.81,-359.96 105.97,-249.42 42.46,-213.4"/>
<polygon fill="#63b8ff" stroke="#63b8ff" points="374.25,-405.65 384.67,-407.54 377.7,-399.56 374.25,-405.65"/>
</a>
</g>
</g>
<!-- Node4&#45;&gt;Node3 -->
<g id="edge4_Node000004_Node000003" class="edge">
<title>Node4&#45;&gt;Node3</title>
<g id="a_edge4_Node000004_Node000003"><a xlink:title=" ">
<path fill="none" stroke="#63b8ff" d="M75.65,-179.84C64.28,-184.52 52.29,-189.45 42.55,-193.45"/>
<polygon fill="#63b8ff" stroke="#63b8ff" points="76.97,-183.08 84.88,-176.04 74.3,-176.61 76.97,-183.08"/>
</a>
</g>
</g>
<!-- Node5&#45;&gt;Node4 -->
<g id="edge6_Node000005_Node000004" class="edge">
<title>Node5&#45;&gt;Node4</title>
<g id="a_edge6_Node000005_Node000004"><a xlink:title=" ">
<path fill="none" stroke="#63b8ff" d="M200.46,-44.65C196.3,-47.09 192.31,-49.82 188.75,-52.86 154.99,-81.66 131.07,-130.12 121.34,-152.23"/>
<polygon fill="#63b8ff" stroke="#63b8ff" points="201.79,-47.9 209.04,-40.17 198.56,-41.69 201.79,-47.9"/>
</a>
</g>
</g>
<!-- Node6&#45;&gt;Node2 -->
<g id="edge8_Node000006_Node000002" class="edge">
<title>Node6&#45;&gt;Node2</title>
<g id="a_edge8_Node000006_Node000002"><a xlink:title=" ">
<path fill="none" stroke="#63b8ff" d="M500.08,-419.86C478.44,-419.86 456.48,-419.86 439.47,-419.86"/>
<polygon fill="#63b8ff" stroke="#63b8ff" points="499.82,-423.36 509.82,-419.86 499.82,-416.36 499.82,-423.36"/>
</a>
</g>
</g>
<!-- Node6&#45;&gt;Node7 -->
<g id="edge9_Node000006_Node000007" class="edge">
<title>Node6&#45;&gt;Node7</title>
<g id="a_edge9_Node000006_Node000007"><a xlink:title=" ">
<path fill="none" stroke="#63b8ff" d="M558.48,-401.81C544.11,-390.97 526.15,-376.47 511.75,-361.86 493.53,-343.36 492.5,-335.69 475.75,-315.86 456.58,-293.16 432.96,-267.77 419.39,-253.41"/>
<polygon fill="#63b8ff" stroke="#63b8ff" points="556,-404.33 566.11,-407.48 560.17,-398.71 556,-404.33"/>
</a>
</g>
</g>
<!-- Node7&#45;&gt;Node8 -->
<g id="edge10_Node000007_Node000008" class="edge">
<title>Node7&#45;&gt;Node8</title>
<g id="a_edge10_Node000007_Node000008"><a xlink:title=" ">
<path fill="none" stroke="#63b8ff" d="M372.62,-225.35C341.96,-210.36 297.52,-188.62 270.51,-175.41"/>
<polygon fill="#63b8ff" stroke="#63b8ff" points="370.96,-228.43 381.48,-229.68 374.03,-222.14 370.96,-228.43"/>
</a>
</g>
</g>
<!-- Node8&#45;&gt;Node4 -->
<g id="edge11_Node000008_Node000004" class="edge">
<title>Node8&#45;&gt;Node4</title>
<g id="a_edge11_Node000008_Node000004"><a xlink:title=" ">
<path fill="none" stroke="#63b8ff" d="M177.27,-163.86C168.98,-163.86 160.77,-163.86 153.18,-163.86"/>
<polygon fill="#63b8ff" stroke="#63b8ff" points="177.05,-167.36 187.05,-163.86 177.05,-160.36 177.05,-167.36"/>
</a>
</g>
</g>
<!-- Node9&#45;&gt;Node7 -->
<g id="edge13_Node000009_Node000007" class="edge">
<title>Node9&#45;&gt;Node7</title>
<g id="a_edge13_Node000009_Node000007"><a xlink:title=" ">
<path fill="none" stroke="#63b8ff" d="M521.86,-326.39C518.38,-324.99 514.99,-323.48 511.75,-321.86 474.83,-303.34 438.16,-270.71 420.04,-253.4"/>
<polygon fill="#63b8ff" stroke="#63b8ff" points="520.42,-329.59 531.01,-329.74 522.83,-323.02 520.42,-329.59"/>
</a>
</g>
</g>
<!-- Node10&#45;&gt;Node7 -->
<g id="edge15_Node000010_Node000007" class="edge">
<title>Node10&#45;&gt;Node7</title>
<g id="a_edge15_Node000010_Node000007"><a xlink:title=" ">
<path fill="none" stroke="#63b8ff" d="M528.47,-287.1C522.8,-285.41 517.14,-283.65 511.75,-281.86 485.81,-273.25 456.84,-261.89 436.19,-253.47"/>
<polygon fill="#63b8ff" stroke="#63b8ff" points="527.29,-290.41 537.87,-289.84 529.25,-283.68 527.29,-290.41"/>
</a>
</g>
</g>
<!-- Node11&#45;&gt;Node7 -->
<g id="edge17_Node000011_Node000007" class="edge">
<title>Node11&#45;&gt;Node7</title>
<g id="a_edge17_Node000011_Node000007"><a xlink:title=" ">
<path fill="none" stroke="#63b8ff" d="M510.58,-253.52C499.18,-252.22 487.44,-250.88 476.16,-249.59"/>
<polygon fill="#63b8ff" stroke="#63b8ff" points="510,-256.98 520.33,-254.63 510.8,-250.02 510,-256.98"/>
</a>
</g>
</g>
<!-- Node12&#45;&gt;Node7 -->
<g id="edge20_Node000012_Node000007" class="edge">
<title>Node12&#45;&gt;Node7</title>
<g id="a_edge20_Node000012_Node000007"><a xlink:title=" ">
<path fill="none" stroke="#63b8ff" d="M508,-230.49C497.41,-231.69 486.59,-232.93 476.16,-234.12"/>
<polygon fill="#63b8ff" stroke="#63b8ff" points="508.32,-233.97 517.86,-229.36 507.53,-227.02 508.32,-233.97"/>
</a>
</g>
</g>
<!-- Node13&#45;&gt;Node7 -->
<g id="edge22_Node000013_Node000007" class="edge">
<title>Node13&#45;&gt;Node7</title>
<g id="a_edge22_Node000013_Node000007"><a xlink:title=" ">
<path fill="none" stroke="#63b8ff" d="M528.47,-196.61C522.8,-198.3 517.14,-200.07 511.75,-201.86 485.81,-210.46 456.84,-221.83 436.19,-230.24"/>
<polygon fill="#63b8ff" stroke="#63b8ff" points="529.25,-200.03 537.87,-193.87 527.29,-193.31 529.25,-200.03"/>
</a>
</g>
</g>
<!-- Node14&#45;&gt;Node4 -->
<g id="edge25_Node000014_Node000004" class="edge">
<title>Node14&#45;&gt;Node4</title>
<g id="a_edge25_Node000014_Node000004"><a xlink:title=" ">
<path fill="none" stroke="#63b8ff" d="M377.07,-318.47C317.91,-283.37 185.61,-204.86 135.88,-175.36"/>
<polygon fill="#63b8ff" stroke="#63b8ff" points="375.22,-321.44 385.6,-323.53 378.79,-315.42 375.22,-321.44"/>
</a>
</g>
</g>
</g>
</svg>

<g id="navigator" transform="translate(0 0)" fill="#404254">
  <rect fill="#f2f5e9" fill-opacity="0.5" stroke="#606060" stroke-width=".5" x="0" y="0" width="60" height="60"/>
  <use id="zoomplus" xlink:href="#zoomPlus" x="17" y="9" onmousedown="handleZoom(evt,'in')"/>
  <use id="zoomminus" xlink:href="#zoomMin" x="42" y="9" onmousedown="handleZoom(evt,'out')"/>
  <use id="reset" xlink:href="#resetDef" x="30" y="36" onmousedown="handleReset()"/>
   <use id="arrowup" xlink:href="#arrowUp" x="0" y="0" onmousedown="handlePan(0,-1)"/>
  <use id="arrowright" xlink:href="#arrowRight" x="0" y="0" onmousedown="handlePan(1,0)"/>
  <use id="arrowdown" xlink:href="#arrowDown" x="0" y="0" onmousedown="handlePan(0,1)"/>
  <use id="arrowleft" xlink:href="#arrowLeft" x="0" y="0" onmousedown="handlePan(-1,0)"/>
</g>
<svg viewBox="0 0 15 15" width="100%" height="30px" preserveAspectRatio="xMaxYMin meet">
 <g id="arrow_out" transform="scale(0.3 0.3)">
  <a xlink:href="bsp__uart_8c_ac8fe8954e03174bb365847f52531e218_icgraph_org.svg" target="_base">
   <rect id="button" ry="5" rx="5" y="6" x="6" height="38" width="38"
        fill="#f2f5e9" fill-opacity="0.5" stroke="#606060" stroke-width="1.0"/>
   <path id="arrow"
     d="M 11.500037,31.436501 C 11.940474,20.09759 22.043105,11.32322 32.158766,21.979434 L 37.068811,17.246167 C 37.068811,17.246167 37.088388,32 37.088388,32 L 22.160133,31.978069 C 22.160133,31.978069 26.997745,27.140456 26.997745,27.140456 C 18.528582,18.264221 13.291696,25.230495 11.500037,31.436501 z"
     style="fill:#404040;"/>
  </a>
 </g>
</svg>

<style type='text/css'>
<![CDATA[
[data-mouse-over-selected='false'] { opacity: 0.7; }
[data-mouse-over-selected='true']  { opacity: 1.0; }
]]>
</style>
<script type="application/ecmascript"><![CDATA[
document.addEventListener('DOMContentLoaded', (event) => {
  highlightEdges();
  highlightAdjacentNodes();
});
]]></script>
</svg>
