<?xml version="1.0" encoding="UTF-8" standalone="no"?>
<!DOCTYPE svg PUBLIC "-//W3C//DTD SVG 1.1//EN"
 "http://www.w3.org/Graphics/SVG/1.1/DTD/svg11.dtd">
<!-- Generated by graphviz version 15.1.0 (20260618.0150)
 -->
<!-- Title: Application/bsp/bsp_ws2812.h Pages: 1 -->
<svg width="574pt" height="117pt"
 viewBox="0.00 0.00 574.00 117.00" xmlns="http://www.w3.org/2000/svg" xmlns:xlink="http://www.w3.org/1999/xlink">
<g id="graph0" class="graph" transform="scale(1 1) rotate(0) translate(4 113)">
<title>Application/bsp/bsp_ws2812.h</title>
<!-- Node1 -->
<g id="Node000001" class="node">
<title>Node1</title>
<g id="a_Node000001"><a xlink:title="WS2812 类 RGB 状态灯 BSP 头文件（TIM2_CH1 PWM + DMA）">
<polygon fill="#999999" stroke="#666666" points="332.75,-109 211.75,-109 211.75,-72.5 332.75,-72.5 332.75,-109"/>
<text xml:space="preserve" text-anchor="start" x="219.75" y="-93.6" font-family="Helvetica,sans-Serif" font-size="12.00">Application/bsp/bsp</text>
<text xml:space="preserve" text-anchor="middle" x="272.25" y="-79.35" font-family="Helvetica,sans-Serif" font-size="12.00">_ws2812.h</text>
</a>
</g>
</g>
<!-- Node2 -->
<g id="Node000002" class="node">
<title>Node2</title>
<g id="a_Node000002"><a xlink:href="app__led_8c.html" target="_top" xlink:title="状态灯语模块（单颗 WS2812，亮度全局可调）">
<polygon fill="white" stroke="#666666" points="122.5,-36.5 0,-36.5 0,0 122.5,0 122.5,-36.5"/>
<text xml:space="preserve" text-anchor="start" x="8" y="-21.1" font-family="Helvetica,sans-Serif" font-size="12.00">Application/app/app</text>
<text xml:space="preserve" text-anchor="middle" x="61.25" y="-6.85" font-family="Helvetica,sans-Serif" font-size="12.00">_led.c</text>
</a>
</g>
</g>
<!-- Node1&#45;&gt;Node2 -->
<g id="edge1_Node000001_Node000002" class="edge">
<title>Node1&#45;&gt;Node2</title>
<g id="a_edge1_Node000001_Node000002"><a xlink:title=" ">
<path fill="none" stroke="#63b8ff" d="M208.45,-68.43C178.35,-58.37 142.84,-46.51 114.24,-36.96"/>
<polygon fill="#63b8ff" stroke="#63b8ff" points="207.25,-71.72 217.84,-71.57 209.47,-65.08 207.25,-71.72"/>
</a>
</g>
</g>
<!-- Node3 -->
<g id="Node000003" class="node">
<title>Node3</title>
<g id="a_Node000003"><a xlink:href="app__main_8c.html" target="_top" xlink:title="应用入口模块（前后台调度）">
<polygon fill="white" stroke="#666666" points="263.5,-36.5 141,-36.5 141,0 263.5,0 263.5,-36.5"/>
<text xml:space="preserve" text-anchor="start" x="149" y="-21.1" font-family="Helvetica,sans-Serif" font-size="12.00">Application/app/app</text>
<text xml:space="preserve" text-anchor="middle" x="202.25" y="-6.85" font-family="Helvetica,sans-Serif" font-size="12.00">_main.c</text>
</a>
</g>
</g>
<!-- Node1&#45;&gt;Node3 -->
<g id="edge2_Node000001_Node000003" class="edge">
<title>Node1&#45;&gt;Node3</title>
<g id="a_edge2_Node000001_Node000003"><a xlink:title=" ">
<path fill="none" stroke="#63b8ff" d="M247.02,-64.33C238.01,-55.26 228.06,-45.25 219.84,-36.97"/>
<polygon fill="#63b8ff" stroke="#63b8ff" points="244.35,-66.62 253.88,-71.25 249.32,-61.69 244.35,-66.62"/>
</a>
</g>
</g>
<!-- Node4 -->
<g id="Node000004" class="node">
<title>Node4</title>
<g id="a_Node000004"><a xlink:href="bsp__ws2812_8c.html" target="_top" xlink:title="WS2812 类 RGB 状态灯 BSP（TIM2_CH1 PWM + DMA，单灯）">
<polygon fill="white" stroke="#666666" points="402.75,-36.5 281.75,-36.5 281.75,0 402.75,0 402.75,-36.5"/>
<text xml:space="preserve" text-anchor="start" x="289.75" y="-21.1" font-family="Helvetica,sans-Serif" font-size="12.00">Application/bsp/bsp</text>
<text xml:space="preserve" text-anchor="middle" x="342.25" y="-6.85" font-family="Helvetica,sans-Serif" font-size="12.00">_ws2812.c</text>
</a>
</g>
</g>
<!-- Node1&#45;&gt;Node4 -->
<g id="edge3_Node000001_Node000004" class="edge">
<title>Node1&#45;&gt;Node4</title>
<g id="a_edge3_Node000001_Node000004"><a xlink:title=" ">
<path fill="none" stroke="#63b8ff" d="M297.48,-64.33C306.49,-55.26 316.44,-45.25 324.66,-36.97"/>
<polygon fill="#63b8ff" stroke="#63b8ff" points="295.18,-61.69 290.62,-71.25 300.15,-66.62 295.18,-61.69"/>
</a>
</g>
</g>
<!-- Node5 -->
<g id="Node000005" class="node">
<title>Node5</title>
<g id="a_Node000005"><a xlink:href="stm32g4xx__it_8c.html" target="_top" xlink:title="Interrupt Service Routines.">
<polygon fill="white" stroke="#666666" points="566.12,-29.38 420.38,-29.38 420.38,-7.12 566.12,-7.12 566.12,-29.38"/>
<text xml:space="preserve" text-anchor="middle" x="493.25" y="-13.97" font-family="Helvetica,sans-Serif" font-size="12.00">Core/Src/stm32g4xx_it.c</text>
</a>
</g>
</g>
<!-- Node1&#45;&gt;Node5 -->
<g id="edge4_Node000001_Node000005" class="edge">
<title>Node1&#45;&gt;Node5</title>
<g id="a_edge4_Node000001_Node000005"><a xlink:title=" ">
<path fill="none" stroke="#63b8ff" d="M338.51,-68.61C378.63,-55.82 428.06,-40.05 460.09,-29.83"/>
<polygon fill="#63b8ff" stroke="#63b8ff" points="337.64,-65.22 329.17,-71.59 339.77,-71.89 337.64,-65.22"/>
</a>
</g>
</g>
</g>
</svg>
