<?xml version="1.0" encoding="UTF-8" standalone="no"?>
<!DOCTYPE svg PUBLIC "-//W3C//DTD SVG 1.1//EN"
 "http://www.w3.org/Graphics/SVG/1.1/DTD/svg11.dtd">
<!-- Generated by graphviz version 15.1.0 (20260618.0150)
 -->
<!-- Title: Application/bsp/bsp_encoder.h Pages: 1 -->
<svg width="961pt" height="190pt"
 viewBox="0.00 0.00 961.00 190.00" xmlns="http://www.w3.org/2000/svg" xmlns:xlink="http://www.w3.org/1999/xlink">
<g id="graph0" class="graph" transform="scale(1 1) rotate(0) translate(4 185.5)">
<title>Application/bsp/bsp_encoder.h</title>
<!-- Node1 -->
<g id="Node000001" class="node">
<title>Node1</title>
<g id="a_Node000001"><a xlink:title="MT6701 磁编码器 BSP 头文件（GPIO 位带模拟 SSI）">
<polygon fill="#999999" stroke="#666666" points="459,-181.5 338,-181.5 338,-145 459,-145 459,-181.5"/>
<text xml:space="preserve" text-anchor="start" x="346" y="-166.1" font-family="Helvetica,sans-Serif" font-size="12.00">Application/bsp/bsp</text>
<text xml:space="preserve" text-anchor="middle" x="398.5" y="-151.85" font-family="Helvetica,sans-Serif" font-size="12.00">_encoder.h</text>
</a>
</g>
</g>
<!-- Node2 -->
<g id="Node000002" class="node">
<title>Node2</title>
<g id="a_Node000002"><a xlink:href="app__main_8c.html" target="_top" xlink:title="应用入口模块（前后台调度）">
<polygon fill="white" stroke="#666666" points="255.75,-36.5 133.25,-36.5 133.25,0 255.75,0 255.75,-36.5"/>
<text xml:space="preserve" text-anchor="start" x="141.25" y="-21.1" font-family="Helvetica,sans-Serif" font-size="12.00">Application/app/app</text>
<text xml:space="preserve" text-anchor="middle" x="194.5" y="-6.85" font-family="Helvetica,sans-Serif" font-size="12.00">_main.c</text>
</a>
</g>
</g>
<!-- Node1&#45;&gt;Node2 -->
<g id="edge1_Node000001_Node000002" class="edge">
<title>Node1&#45;&gt;Node2</title>
<g id="a_edge1_Node000001_Node000002"><a xlink:title=" ">
<path fill="none" stroke="#63b8ff" d="M326.96,-141.04C306.3,-132.95 284.49,-122.37 266.5,-109 239.56,-88.98 216.97,-56.59 204.63,-36.68"/>
<polygon fill="#63b8ff" stroke="#63b8ff" points="325.63,-144.27 336.22,-144.51 328.09,-137.72 325.63,-144.27"/>
</a>
</g>
</g>
<!-- Node3 -->
<g id="Node000003" class="node">
<title>Node3</title>
<g id="a_Node000003"><a xlink:href="bsp__encoder_8c.html" target="_top" xlink:title="MT6701 磁编码器 BSP（GPIO 位带模拟 SSI）">
<polygon fill="white" stroke="#666666" points="664,-109 543,-109 543,-72.5 664,-72.5 664,-109"/>
<text xml:space="preserve" text-anchor="start" x="551" y="-93.6" font-family="Helvetica,sans-Serif" font-size="12.00">Application/bsp/bsp</text>
<text xml:space="preserve" text-anchor="middle" x="603.5" y="-79.35" font-family="Helvetica,sans-Serif" font-size="12.00">_encoder.c</text>
</a>
</g>
</g>
<!-- Node1&#45;&gt;Node3 -->
<g id="edge2_Node000001_Node000003" class="edge">
<title>Node1&#45;&gt;Node3</title>
<g id="a_edge2_Node000001_Node000003"><a xlink:title=" ">
<path fill="none" stroke="#63b8ff" d="M460.48,-140.93C489.73,-130.87 524.23,-119.01 552.01,-109.46"/>
<polygon fill="#63b8ff" stroke="#63b8ff" points="459.71,-137.5 451.4,-144.06 461.99,-144.12 459.71,-137.5"/>
</a>
</g>
</g>
<!-- Node4 -->
<g id="Node000004" class="node">
<title>Node4</title>
<g id="a_Node000004"><a xlink:href="calibration_8h.html" target="_top" xlink:title="预定位校准模块头文件（编码器方向/极对数/电角度偏置）">
<polygon fill="white" stroke="#666666" points="390,-109 275,-109 275,-72.5 390,-72.5 390,-109"/>
<text xml:space="preserve" text-anchor="start" x="283" y="-93.6" font-family="Helvetica,sans-Serif" font-size="12.00">Application/control</text>
<text xml:space="preserve" text-anchor="middle" x="332.5" y="-79.35" font-family="Helvetica,sans-Serif" font-size="12.00">/calibration.h</text>
</a>
</g>
</g>
<!-- Node1&#45;&gt;Node4 -->
<g id="edge3_Node000001_Node000004" class="edge">
<title>Node1&#45;&gt;Node4</title>
<g id="a_edge3_Node000001_Node000004"><a xlink:title=" ">
<path fill="none" stroke="#63b8ff" d="M374.45,-136.56C366.02,-127.56 356.76,-117.66 349.09,-109.47"/>
<polygon fill="#63b8ff" stroke="#63b8ff" points="371.76,-138.81 381.15,-143.72 376.87,-134.03 371.76,-138.81"/>
</a>
</g>
</g>
<!-- Node8 -->
<g id="Node000008" class="node">
<title>Node8</title>
<g id="a_Node000008"><a xlink:href="motor__ctrl_8h.html" target="_top" xlink:title="电机控制核心模块头文件（模式状态机 + FOC 主循环）">
<polygon fill="white" stroke="#666666" points="525,-109 410,-109 410,-72.5 525,-72.5 525,-109"/>
<text xml:space="preserve" text-anchor="start" x="418" y="-93.6" font-family="Helvetica,sans-Serif" font-size="12.00">Application/control</text>
<text xml:space="preserve" text-anchor="middle" x="467.5" y="-79.35" font-family="Helvetica,sans-Serif" font-size="12.00">/motor_ctrl.h</text>
</a>
</g>
</g>
<!-- Node1&#45;&gt;Node8 -->
<g id="edge7_Node000001_Node000008" class="edge">
<title>Node1&#45;&gt;Node8</title>
<g id="a_edge7_Node000001_Node000008"><a xlink:title=" ">
<path fill="none" stroke="#63b8ff" d="M423.37,-136.83C432.25,-127.76 442.05,-117.75 450.16,-109.47"/>
<polygon fill="#63b8ff" stroke="#63b8ff" points="421.11,-134.15 416.61,-143.74 426.11,-139.04 421.11,-134.15"/>
</a>
</g>
</g>
<!-- Node5 -->
<g id="Node000005" class="node">
<title>Node5</title>
<g id="a_Node000005"><a xlink:href="app__monitor_8c.html" target="_top" xlink:title="调试数据打印模块">
<polygon fill="white" stroke="#666666" points="529.75,-36.5 407.25,-36.5 407.25,0 529.75,0 529.75,-36.5"/>
<text xml:space="preserve" text-anchor="start" x="415.25" y="-21.1" font-family="Helvetica,sans-Serif" font-size="12.00">Application/app/app</text>
<text xml:space="preserve" text-anchor="middle" x="468.5" y="-6.85" font-family="Helvetica,sans-Serif" font-size="12.00">_monitor.c</text>
</a>
</g>
</g>
<!-- Node4&#45;&gt;Node5 -->
<g id="edge4_Node000004_Node000005" class="edge">
<title>Node4&#45;&gt;Node5</title>
<g id="a_edge4_Node000004_Node000005"><a xlink:title=" ">
<path fill="none" stroke="#63b8ff" d="M376.58,-66.9C395.37,-57.16 416.96,-45.97 434.49,-36.88"/>
<polygon fill="#63b8ff" stroke="#63b8ff" points="375.08,-63.74 367.81,-71.45 378.3,-69.95 375.08,-63.74"/>
</a>
</g>
</g>
<!-- Node6 -->
<g id="Node000006" class="node">
<title>Node6</title>
<g id="a_Node000006"><a xlink:href="calibration_8c.html" target="_top" xlink:title="预定位校准模块（编码器方向/极对数/电角度偏置）">
<polygon fill="white" stroke="#666666" points="115,-36.5 0,-36.5 0,0 115,0 115,-36.5"/>
<text xml:space="preserve" text-anchor="start" x="8" y="-21.1" font-family="Helvetica,sans-Serif" font-size="12.00">Application/control</text>
<text xml:space="preserve" text-anchor="middle" x="57.5" y="-6.85" font-family="Helvetica,sans-Serif" font-size="12.00">/calibration.c</text>
</a>
</g>
</g>
<!-- Node4&#45;&gt;Node6 -->
<g id="edge5_Node000004_Node000006" class="edge">
<title>Node4&#45;&gt;Node6</title>
<g id="a_edge5_Node000004_Node000006"><a xlink:title=" ">
<path fill="none" stroke="#63b8ff" d="M263.56,-72.13C223.06,-61.77 170.87,-48.4 124.5,-36.5 121.48,-35.72 118.37,-34.93 115.24,-34.12"/>
<polygon fill="#63b8ff" stroke="#63b8ff" points="262.64,-75.5 273.2,-74.59 264.38,-68.72 262.64,-75.5"/>
</a>
</g>
</g>
<!-- Node7 -->
<g id="Node000007" class="node">
<title>Node7</title>
<g id="a_Node000007"><a xlink:href="motor__ctrl_8c.html" target="_top" xlink:title="电机控制核心模块（模式状态机 + 20kHz FOC 主循环）">
<polygon fill="white" stroke="#666666" points="389,-36.5 274,-36.5 274,0 389,0 389,-36.5"/>
<text xml:space="preserve" text-anchor="start" x="282" y="-21.1" font-family="Helvetica,sans-Serif" font-size="12.00">Application/control</text>
<text xml:space="preserve" text-anchor="middle" x="331.5" y="-6.85" font-family="Helvetica,sans-Serif" font-size="12.00">/motor_ctrl.c</text>
</a>
</g>
</g>
<!-- Node4&#45;&gt;Node7 -->
<g id="edge6_Node000004_Node000007" class="edge">
<title>Node4&#45;&gt;Node7</title>
<g id="a_edge6_Node000004_Node000007"><a xlink:title=" ">
<path fill="none" stroke="#63b8ff" d="M332.09,-60.97C331.98,-52.84 331.85,-44.23 331.75,-36.97"/>
<polygon fill="#63b8ff" stroke="#63b8ff" points="328.59,-60.86 332.23,-70.81 335.59,-60.76 328.59,-60.86"/>
</a>
</g>
</g>
<!-- Node8&#45;&gt;Node2 -->
<g id="edge10_Node000008_Node000002" class="edge">
<title>Node8&#45;&gt;Node2</title>
<g id="a_edge10_Node000008_Node000002"><a xlink:title=" ">
<path fill="none" stroke="#63b8ff" d="M398.46,-71.92C354.63,-60.6 298.42,-46.09 256.11,-35.16"/>
<polygon fill="#63b8ff" stroke="#63b8ff" points="397.58,-75.31 408.14,-74.42 399.33,-68.53 397.58,-75.31"/>
</a>
</g>
</g>
<!-- Node8&#45;&gt;Node5 -->
<g id="edge11_Node000008_Node000005" class="edge">
<title>Node8&#45;&gt;Node5</title>
<g id="a_edge11_Node000008_Node000005"><a xlink:title=" ">
<path fill="none" stroke="#63b8ff" d="M467.91,-60.97C468.02,-52.84 468.15,-44.23 468.25,-36.97"/>
<polygon fill="#63b8ff" stroke="#63b8ff" points="464.41,-60.76 467.77,-70.81 471.41,-60.86 464.41,-60.76"/>
</a>
</g>
</g>
<!-- Node8&#45;&gt;Node7 -->
<g id="edge13_Node000008_Node000007" class="edge">
<title>Node8&#45;&gt;Node7</title>
<g id="a_edge13_Node000008_Node000007"><a xlink:title=" ">
<path fill="none" stroke="#63b8ff" d="M423.42,-66.9C404.63,-57.16 383.04,-45.97 365.51,-36.88"/>
<polygon fill="#63b8ff" stroke="#63b8ff" points="421.7,-69.95 432.19,-71.45 424.92,-63.74 421.7,-69.95"/>
</a>
</g>
</g>
<!-- Node9 -->
<g id="Node000009" class="node">
<title>Node9</title>
<g id="a_Node000009"><a xlink:href="app__can__protocol_8c.html" target="_top" xlink:title="CAN 应用协议（MIT 运控协议 + 配置协议）">
<polygon fill="white" stroke="#666666" points="670.75,-36.5 548.25,-36.5 548.25,0 670.75,0 670.75,-36.5"/>
<text xml:space="preserve" text-anchor="start" x="556.25" y="-21.1" font-family="Helvetica,sans-Serif" font-size="12.00">Application/app/app</text>
<text xml:space="preserve" text-anchor="middle" x="609.5" y="-6.85" font-family="Helvetica,sans-Serif" font-size="12.00">_can_protocol.c</text>
</a>
</g>
</g>
<!-- Node8&#45;&gt;Node9 -->
<g id="edge8_Node000008_Node000009" class="edge">
<title>Node8&#45;&gt;Node9</title>
<g id="a_edge8_Node000008_Node000009"><a xlink:title=" ">
<path fill="none" stroke="#63b8ff" d="M513.25,-67.04C532.94,-57.26 555.6,-46.01 573.99,-36.88"/>
<polygon fill="#63b8ff" stroke="#63b8ff" points="511.72,-63.89 504.32,-71.47 514.84,-70.16 511.72,-63.89"/>
</a>
</g>
</g>
<!-- Node10 -->
<g id="Node000010" class="node">
<title>Node10</title>
<g id="a_Node000010"><a xlink:href="app__led_8c.html" target="_top" xlink:title="状态灯语模块（单颗 WS2812，亮度全局可调）">
<polygon fill="white" stroke="#666666" points="811.75,-36.5 689.25,-36.5 689.25,0 811.75,0 811.75,-36.5"/>
<text xml:space="preserve" text-anchor="start" x="697.25" y="-21.1" font-family="Helvetica,sans-Serif" font-size="12.00">Application/app/app</text>
<text xml:space="preserve" text-anchor="middle" x="750.5" y="-6.85" font-family="Helvetica,sans-Serif" font-size="12.00">_led.c</text>
</a>
</g>
</g>
<!-- Node8&#45;&gt;Node10 -->
<g id="edge9_Node000008_Node000010" class="edge">
<title>Node8&#45;&gt;Node10</title>
<g id="a_edge9_Node000008_Node000010"><a xlink:title=" ">
<path fill="none" stroke="#63b8ff" d="M536.35,-72.05C593.67,-57.63 648.38,-44.17 689.01,-34.23"/>
<polygon fill="#63b8ff" stroke="#63b8ff" points="535.54,-68.64 526.7,-74.48 537.25,-75.43 535.54,-68.64"/>
</a>
</g>
</g>
<!-- Node11 -->
<g id="Node000011" class="node">
<title>Node11</title>
<g id="a_Node000011"><a xlink:href="app__shell_8c.html" target="_top" xlink:title="调试 shell 模块（USART3，行式命令）">
<polygon fill="white" stroke="#666666" points="952.75,-36.5 830.25,-36.5 830.25,0 952.75,0 952.75,-36.5"/>
<text xml:space="preserve" text-anchor="start" x="838.25" y="-21.1" font-family="Helvetica,sans-Serif" font-size="12.00">Application/app/app</text>
<text xml:space="preserve" text-anchor="middle" x="891.5" y="-6.85" font-family="Helvetica,sans-Serif" font-size="12.00">_shell.c</text>
</a>
</g>
</g>
<!-- Node8&#45;&gt;Node11 -->
<g id="edge12_Node000008_Node000011" class="edge">
<title>Node8&#45;&gt;Node11</title>
<g id="a_edge12_Node000008_Node000011"><a xlink:title=" ">
<path fill="none" stroke="#63b8ff" d="M536.39,-72.3C662.35,-49.09 698.07,-59 820.5,-36.5 823.62,-35.93 826.81,-35.3 830.02,-34.64"/>
<polygon fill="#63b8ff" stroke="#63b8ff" points="535.81,-68.85 526.63,-74.14 537.1,-75.73 535.81,-68.85"/>
</a>
</g>
</g>
</g>
</svg>
