<?xml version="1.0" encoding="UTF-8" standalone="no"?>
<!DOCTYPE svg PUBLIC "-//W3C//DTD SVG 1.1//EN"
 "http://www.w3.org/Graphics/SVG/1.1/DTD/svg11.dtd">
<!-- Generated by graphviz version 15.1.0 (20260618.0150)
 -->
<!-- Title: BSP_CLOCK_IsHse Pages: 1 -->
<svg width="829pt" height="70pt"
 viewBox="0.00 0.00 829.00 70.00" xmlns="http://www.w3.org/2000/svg" xmlns:xlink="http://www.w3.org/1999/xlink">
<g id="graph0" class="graph" transform="scale(1 1) rotate(0) translate(4 66.25)">
<title>BSP_CLOCK_IsHse</title>
<!-- Node1 -->
<g id="Node000001" class="node">
<title>Node1</title>
<g id="a_Node000001"><a xlink:title="查询当前 PLL 源是否为 HSE">
<polygon fill="#999999" stroke="#666666" points="820.5,-42.25 693.5,-42.25 693.5,-20 820.5,-20 820.5,-42.25"/>
<text xml:space="preserve" text-anchor="middle" x="757" y="-26.85" font-family="Helvetica,sans-Serif" font-size="12.00">BSP_CLOCK_IsHse</text>
</a>
</g>
</g>
<!-- Node2 -->
<g id="Node000002" class="node">
<title>Node2</title>
<g id="a_Node000002"><a xlink:href="app__monitor_8c.html#a69348472c5378c7ae2787d865d1b626e" target="_top" xlink:title="打印上电横幅">
<polygon fill="white" stroke="#666666" points="657.5,-62.25 511.75,-62.25 511.75,-40 657.5,-40 657.5,-62.25"/>
<text xml:space="preserve" text-anchor="middle" x="584.62" y="-46.85" font-family="Helvetica,sans-Serif" font-size="12.00">APP_MON_PrintBanner</text>
</a>
</g>
</g>
<!-- Node1&#45;&gt;Node2 -->
<g id="edge1_Node000001_Node000002" class="edge">
<title>Node1&#45;&gt;Node2</title>
<g id="a_edge1_Node000001_Node000002"><a xlink:title=" ">
<path fill="none" stroke="#63b8ff" d="M681.87,-39.83C673.89,-40.76 665.77,-41.72 657.81,-42.65"/>
<polygon fill="#63b8ff" stroke="#63b8ff" points="682.02,-43.33 691.54,-38.69 681.2,-36.38 682.02,-43.33"/>
</a>
</g>
</g>
<!-- Node8 -->
<g id="Node000008" class="node">
<title>Node8</title>
<g id="a_Node000008"><a xlink:href="app__monitor_8c.html#a9bb383e6ceed1252d51dd3ebbc075668" target="_top" xlink:title="打印完整状态快照（shell &quot;status&quot;）">
<polygon fill="white" stroke="#666666" points="654.88,-22.25 514.38,-22.25 514.38,0 654.88,0 654.88,-22.25"/>
<text xml:space="preserve" text-anchor="middle" x="584.62" y="-6.85" font-family="Helvetica,sans-Serif" font-size="12.00">APP_MON_PrintStatus</text>
</a>
</g>
</g>
<!-- Node1&#45;&gt;Node8 -->
<g id="edge8_Node000001_Node000008" class="edge">
<title>Node1&#45;&gt;Node8</title>
<g id="a_edge8_Node000001_Node000008"><a xlink:title=" ">
<path fill="none" stroke="#63b8ff" d="M681.62,-22.39C672.85,-21.36 663.91,-20.32 655.21,-19.29"/>
<polygon fill="#63b8ff" stroke="#63b8ff" points="681.2,-25.87 691.54,-23.56 682.02,-18.92 681.2,-25.87"/>
</a>
</g>
</g>
<!-- Node3 -->
<g id="Node000003" class="node">
<title>Node3</title>
<g id="a_Node000003"><a xlink:href="app__main_8c.html#a4759d3fdff6b33e2c0a0ae151452112f" target="_top" xlink:title="应用初始化（main 的 USER CODE BEGIN 2 调用）">
<polygon fill="white" stroke="#666666" points="277.5,-62.25 214.25,-62.25 214.25,-40 277.5,-40 277.5,-62.25"/>
<text xml:space="preserve" text-anchor="middle" x="245.88" y="-46.85" font-family="Helvetica,sans-Serif" font-size="12.00">APP_Init</text>
</a>
</g>
</g>
<!-- Node2&#45;&gt;Node3 -->
<g id="edge2_Node000002_Node000003" class="edge">
<title>Node2&#45;&gt;Node3</title>
<g id="a_edge2_Node000002_Node000003"><a xlink:title=" ">
<path fill="none" stroke="#63b8ff" d="M500.08,-51.12C428.07,-51.12 328.03,-51.12 277.99,-51.12"/>
<polygon fill="#63b8ff" stroke="#63b8ff" points="499.87,-54.63 509.87,-51.13 499.87,-47.63 499.87,-54.63"/>
</a>
</g>
</g>
<!-- Node5 -->
<g id="Node000005" class="node">
<title>Node5</title>
<g id="a_Node000005"><a xlink:href="app__shell_8c.html#ad6303a346f63752b165b847c5dcefbb7" target="_top" xlink:title="解析并执行一行命令">
<polygon fill="white" stroke="#666666" points="475.75,-22.25 339,-22.25 339,0 475.75,0 475.75,-22.25"/>
<text xml:space="preserve" text-anchor="middle" x="407.38" y="-6.85" font-family="Helvetica,sans-Serif" font-size="12.00">APP_SHELL_Execute</text>
</a>
</g>
</g>
<!-- Node2&#45;&gt;Node5 -->
<g id="edge4_Node000002_Node000005" class="edge">
<title>Node2&#45;&gt;Node5</title>
<g id="a_edge4_Node000002_Node000005"><a xlink:title=" ">
<path fill="none" stroke="#63b8ff" d="M521.81,-37.02C501.34,-32.34 478.81,-27.2 459.25,-22.74"/>
<polygon fill="#63b8ff" stroke="#63b8ff" points="520.93,-40.41 531.46,-39.22 522.49,-33.58 520.93,-40.41"/>
</a>
</g>
</g>
<!-- Node4 -->
<g id="Node000004" class="node">
<title>Node4</title>
<g id="a_Node000004"><a xlink:href="main_8c.html#a840291bc02cba5474a4cb46a9b9566fe" target="_top" xlink:title="The application entry point.">
<polygon fill="white" stroke="#666666" points="42.25,-41.25 0,-41.25 0,-19 42.25,-19 42.25,-41.25"/>
<text xml:space="preserve" text-anchor="middle" x="21.12" y="-25.85" font-family="Helvetica,sans-Serif" font-size="12.00">main</text>
</a>
</g>
</g>
<!-- Node3&#45;&gt;Node4 -->
<g id="edge3_Node000003_Node000004" class="edge">
<title>Node3&#45;&gt;Node4</title>
<g id="a_edge3_Node000003_Node000004"><a xlink:title=" ">
<path fill="none" stroke="#63b8ff" d="M202.68,-47.15C154.83,-42.64 78.76,-35.46 42.56,-32.05"/>
<polygon fill="#63b8ff" stroke="#63b8ff" points="202.11,-50.61 212.4,-48.06 202.77,-43.64 202.11,-50.61"/>
</a>
</g>
</g>
<!-- Node6 -->
<g id="Node000006" class="node">
<title>Node6</title>
<g id="a_Node000006"><a xlink:href="app__shell_8c.html#ab93a15148be82ad3c0999b099de7c29e" target="_top" xlink:title="shell 轮询（后台调用）">
<polygon fill="white" stroke="#666666" points="303,-22.25 188.75,-22.25 188.75,0 303,0 303,-22.25"/>
<text xml:space="preserve" text-anchor="middle" x="245.88" y="-6.85" font-family="Helvetica,sans-Serif" font-size="12.00">APP_SHELL_Poll</text>
</a>
</g>
</g>
<!-- Node5&#45;&gt;Node6 -->
<g id="edge5_Node000005_Node000006" class="edge">
<title>Node5&#45;&gt;Node6</title>
<g id="a_edge5_Node000005_Node000006"><a xlink:title=" ">
<path fill="none" stroke="#63b8ff" d="M327.23,-11.12C319.07,-11.12 310.9,-11.12 303.06,-11.12"/>
<polygon fill="#63b8ff" stroke="#63b8ff" points="327.22,-14.63 337.22,-11.13 327.22,-7.63 327.22,-14.63"/>
</a>
</g>
</g>
<!-- Node7 -->
<g id="Node000007" class="node">
<title>Node7</title>
<g id="a_Node000007"><a xlink:href="app__main_8c.html#a6709d26bb67f905916b7c7f048b8396c" target="_top" xlink:title="后台超级循环体（main 的 while(1) 内调用）">
<polygon fill="white" stroke="#666666" points="152.75,-22.25 78.25,-22.25 78.25,0 152.75,0 152.75,-22.25"/>
<text xml:space="preserve" text-anchor="middle" x="115.5" y="-6.85" font-family="Helvetica,sans-Serif" font-size="12.00">APP_Loop</text>
</a>
</g>
</g>
<!-- Node6&#45;&gt;Node7 -->
<g id="edge6_Node000006_Node000007" class="edge">
<title>Node6&#45;&gt;Node7</title>
<g id="a_edge6_Node000006_Node000007"><a xlink:title=" ">
<path fill="none" stroke="#63b8ff" d="M177.27,-11.12C168.98,-11.12 160.77,-11.12 153.18,-11.12"/>
<polygon fill="#63b8ff" stroke="#63b8ff" points="177.05,-14.63 187.05,-11.13 177.05,-7.63 177.05,-14.63"/>
</a>
</g>
</g>
<!-- Node7&#45;&gt;Node4 -->
<g id="edge7_Node000007_Node000004" class="edge">
<title>Node7&#45;&gt;Node4</title>
<g id="a_edge7_Node000007_Node000004"><a xlink:title=" ">
<path fill="none" stroke="#63b8ff" d="M66.86,-20.92C58.35,-22.67 49.91,-24.41 42.69,-25.9"/>
<polygon fill="#63b8ff" stroke="#63b8ff" points="67.42,-24.38 76.51,-18.94 66.01,-17.53 67.42,-24.38"/>
</a>
</g>
</g>
<!-- Node8&#45;&gt;Node5 -->
<g id="edge9_Node000008_Node000005" class="edge">
<title>Node8&#45;&gt;Node5</title>
<g id="a_edge9_Node000008_Node000005"><a xlink:title=" ">
<path fill="none" stroke="#63b8ff" d="M502.85,-11.12C493.9,-11.12 484.86,-11.12 476.09,-11.12"/>
<polygon fill="#63b8ff" stroke="#63b8ff" points="502.6,-14.63 512.6,-11.13 502.6,-7.63 502.6,-14.63"/>
</a>
</g>
</g>
</g>
</svg>
