<?xml version="1.0" encoding="UTF-8" standalone="no"?>
<!DOCTYPE svg PUBLIC "-//W3C//DTD SVG 1.1//EN"
 "http://www.w3.org/Graphics/SVG/1.1/DTD/svg11.dtd">
<!-- Generated by graphviz version 15.1.0 (20260618.0150)
 -->
<!-- Title: Application/bsp/bsp_pwm.c Pages: 1 -->
<svg width="260pt" height="219pt"
 viewBox="0.00 0.00 260.00 219.00" xmlns="http://www.w3.org/2000/svg" xmlns:xlink="http://www.w3.org/1999/xlink">

<svg id="main" version="1.1" xmlns="http://www.w3.org/2000/svg" xmlns:xlink="http://www.w3.org/1999/xlink" xml:space="preserve">

<style type="text/css"><![CDATA[
.node, .edge {opacity: 0.7;}
.node.selected, .edge.selected {opacity: 1;}
.edge:hover path { stroke: red; }
.edge:hover polygon { stroke: red; fill: red; }
]]></style>
<script type="application/ecmascript" xlink:href="svg.min.js"/>
<svg id="graph" class="graph">
<g id="graph0" class="graph" transform="scale(1 1) rotate(0) translate(4 215.25)">
<title>Application/bsp/bsp_pwm.c</title>
<!-- Node1 -->
<g id="Node000001" class="node">
<title>Node1</title>
<g id="a_Node000001"><a xlink:title="TIM1 三相互补 PWM BSP">
<polygon fill="#999999" stroke="#666666" points="204.25,-211.25 83.25,-211.25 83.25,-174.75 204.25,-174.75 204.25,-211.25"/>
<text xml:space="preserve" text-anchor="start" x="91.25" y="-195.85" font-family="Helvetica,sans-Serif" font-size="12.00">Application/bsp/bsp</text>
<text xml:space="preserve" text-anchor="middle" x="143.75" y="-181.6" font-family="Helvetica,sans-Serif" font-size="12.00">_pwm.c</text>
</a>
</g>
</g>
<!-- Node2 -->
<g id="Node000002" class="node">
<title>Node2</title>
<g id="a_Node000002"><a xlink:href="bsp__pwm_8h.html" target="_top" xlink:title="TIM1 三相互补 PWM BSP 头文件">
<polygon fill="white" stroke="#666666" points="77.5,-138.75 0,-138.75 0,-116.5 77.5,-116.5 77.5,-138.75"/>
<text xml:space="preserve" text-anchor="middle" x="38.75" y="-123.35" font-family="Helvetica,sans-Serif" font-size="12.00">bsp_pwm.h</text>
</a>
</g>
</g>
<!-- Node1&#45;&gt;Node2 -->
<g id="edge1_Node000001_Node000002" class="edge">
<title>Node1&#45;&gt;Node2</title>
<g id="a_edge1_Node000001_Node000002"><a xlink:title=" ">
<path fill="none" stroke="#63b8ff" d="M114.5,-174.35C99.32,-165.18 80.88,-154.05 66,-145.07"/>
<polygon fill="#63b8ff" stroke="#63b8ff" points="68.01,-142.2 57.64,-140.03 64.39,-148.19 68.01,-142.2"/>
</a>
</g>
</g>
<!-- Node6 -->
<g id="Node000006" class="node">
<title>Node6</title>
<g id="a_Node000006"><a xlink:href="board__config_8h.html" target="_top" xlink:title="板级硬件参数统一配置（GIM4310/4305 电机控制器 V0.0 板）">
<polygon fill="white" stroke="#666666" points="191.5,-138.75 96,-138.75 96,-116.5 191.5,-116.5 191.5,-138.75"/>
<text xml:space="preserve" text-anchor="middle" x="143.75" y="-123.35" font-family="Helvetica,sans-Serif" font-size="12.00">board_config.h</text>
</a>
</g>
</g>
<!-- Node1&#45;&gt;Node6 -->
<g id="edge5_Node000001_Node000006" class="edge">
<title>Node1&#45;&gt;Node6</title>
<g id="a_edge5_Node000001_Node000006"><a xlink:title=" ">
<path fill="none" stroke="#63b8ff" d="M143.75,-174.35C143.75,-167.03 143.75,-158.47 143.75,-150.74"/>
<polygon fill="#63b8ff" stroke="#63b8ff" points="147.25,-150.76 143.75,-140.76 140.25,-150.76 147.25,-150.76"/>
</a>
</g>
</g>
<!-- Node7 -->
<g id="Node000007" class="node">
<title>Node7</title>
<g id="a_Node000007"><a xlink:href="tim_8h.html" target="_top" xlink:title="This file contains all the function prototypes for the tim.c file">
<polygon fill="white" stroke="#666666" points="251.5,-138.75 210,-138.75 210,-116.5 251.5,-116.5 251.5,-138.75"/>
<text xml:space="preserve" text-anchor="middle" x="230.75" y="-123.35" font-family="Helvetica,sans-Serif" font-size="12.00">tim.h</text>
</a>
</g>
</g>
<!-- Node1&#45;&gt;Node7 -->
<g id="edge6_Node000001_Node000007" class="edge">
<title>Node1&#45;&gt;Node7</title>
<g id="a_edge6_Node000001_Node000007"><a xlink:title=" ">
<path fill="none" stroke="#63b8ff" d="M167.98,-174.35C180.2,-165.45 194.96,-154.69 207.1,-145.85"/>
<polygon fill="#63b8ff" stroke="#63b8ff" points="208.93,-148.85 214.95,-140.13 204.81,-143.19 208.93,-148.85"/>
</a>
</g>
</g>
<!-- Node3 -->
<g id="Node000003" class="node">
<title>Node3</title>
<g id="a_Node000003"><a xlink:href="main_8h.html" target="_top" xlink:title=": Header for main.c file.">
<polygon fill="white" stroke="#666666" points="195.75,-80.5 143.75,-80.5 143.75,-58.25 195.75,-58.25 195.75,-80.5"/>
<text xml:space="preserve" text-anchor="middle" x="169.75" y="-65.1" font-family="Helvetica,sans-Serif" font-size="12.00">main.h</text>
</a>
</g>
</g>
<!-- Node2&#45;&gt;Node3 -->
<g id="edge2_Node000002_Node000003" class="edge">
<title>Node2&#45;&gt;Node3</title>
<g id="a_edge2_Node000002_Node000003"><a xlink:title=" ">
<path fill="none" stroke="#63b8ff" d="M63.39,-116.04C83.52,-107.4 112.21,-95.08 134.73,-85.41"/>
<polygon fill="#63b8ff" stroke="#63b8ff" points="136.02,-88.67 143.83,-81.5 133.26,-82.23 136.02,-88.67"/>
</a>
</g>
</g>
<!-- Node5 -->
<g id="Node000005" class="node">
<title>Node5</title>
<g id="a_Node000005"><a xlink:title=" ">
<polygon fill="#e0e0e0" stroke="#999999" points="65.88,-80.5 11.62,-80.5 11.62,-58.25 65.88,-58.25 65.88,-80.5"/>
<text xml:space="preserve" text-anchor="middle" x="38.75" y="-65.1" font-family="Helvetica,sans-Serif" font-size="12.00">stdint.h</text>
</a>
</g>
</g>
<!-- Node2&#45;&gt;Node5 -->
<g id="edge4_Node000002_Node000005" class="edge">
<title>Node2&#45;&gt;Node5</title>
<g id="a_edge4_Node000002_Node000005"><a xlink:title=" ">
<path fill="none" stroke="#63b8ff" d="M38.75,-116.04C38.75,-109.37 38.75,-100.49 38.75,-92.34"/>
<polygon fill="#63b8ff" stroke="#63b8ff" points="42.25,-92.42 38.75,-82.42 35.25,-92.42 42.25,-92.42"/>
</a>
</g>
</g>
<!-- Node4 -->
<g id="Node000004" class="node">
<title>Node4</title>
<g id="a_Node000004"><a xlink:title=" ">
<polygon fill="#e0e0e0" stroke="#999999" points="223.12,-22.25 116.38,-22.25 116.38,0 223.12,0 223.12,-22.25"/>
<text xml:space="preserve" text-anchor="middle" x="169.75" y="-6.85" font-family="Helvetica,sans-Serif" font-size="12.00">stm32g4xx_hal.h</text>
</a>
</g>
</g>
<!-- Node3&#45;&gt;Node4 -->
<g id="edge3_Node000003_Node000004" class="edge">
<title>Node3&#45;&gt;Node4</title>
<g id="a_edge3_Node000003_Node000004"><a xlink:title=" ">
<path fill="none" stroke="#63b8ff" d="M169.75,-57.79C169.75,-51.12 169.75,-42.24 169.75,-34.09"/>
<polygon fill="#63b8ff" stroke="#63b8ff" points="173.25,-34.17 169.75,-24.17 166.25,-34.17 173.25,-34.17"/>
</a>
</g>
</g>
<!-- Node7&#45;&gt;Node3 -->
<g id="edge7_Node000007_Node000003" class="edge">
<title>Node7&#45;&gt;Node3</title>
<g id="a_edge7_Node000007_Node000003"><a xlink:title=" ">
<path fill="none" stroke="#63b8ff" d="M219.28,-116.04C210.93,-108.35 199.41,-97.72 189.58,-88.66"/>
<polygon fill="#63b8ff" stroke="#63b8ff" points="192.01,-86.14 182.28,-81.93 187.26,-91.29 192.01,-86.14"/>
</a>
</g>
</g>
</g>
</svg>
</svg>

<style type='text/css'>
<![CDATA[
[data-mouse-over-selected='false'] { opacity: 0.7; }
[data-mouse-over-selected='true']  { opacity: 1.0; }
]]>
</style>
<script type="application/ecmascript"><![CDATA[
document.addEventListener('DOMContentLoaded', (event) => {
  highlightEdges();
  highlightAdjacentNodes();
});
]]></script>
</svg>
