<?xml version="1.0" encoding="UTF-8" standalone="no"?>
<!DOCTYPE svg PUBLIC "-//W3C//DTD SVG 1.1//EN"
 "http://www.w3.org/Graphics/SVG/1.1/DTD/svg11.dtd">
<!-- Generated by graphviz version 15.1.0 (20260618.0150)
 -->
<!-- Title: Application/control/calibration.c Pages: 1 -->
<svg width="501pt" height="278pt"
 viewBox="0.00 0.00 501.00 278.00" xmlns="http://www.w3.org/2000/svg" xmlns:xlink="http://www.w3.org/1999/xlink">
<g id="graph0" class="graph" transform="scale(1 1) rotate(0) translate(4 273.5)">
<title>Application/control/calibration.c</title>
<!-- Node1 -->
<g id="Node000001" class="node">
<title>Node1</title>
<g id="a_Node000001"><a xlink:title="预定位校准模块（编码器方向/极对数/电角度偏置）">
<polygon fill="#999999" stroke="#666666" points="395.75,-269.5 280.75,-269.5 280.75,-233 395.75,-233 395.75,-269.5"/>
<text xml:space="preserve" text-anchor="start" x="288.75" y="-254.1" font-family="Helvetica,sans-Serif" font-size="12.00">Application/control</text>
<text xml:space="preserve" text-anchor="middle" x="338.25" y="-239.85" font-family="Helvetica,sans-Serif" font-size="12.00">/calibration.c</text>
</a>
</g>
</g>
<!-- Node2 -->
<g id="Node000002" class="node">
<title>Node2</title>
<g id="a_Node000002"><a xlink:href="calibration_8h.html" target="_top" xlink:title="预定位校准模块头文件（编码器方向/极对数/电角度偏置）">
<polygon fill="white" stroke="#666666" points="201.88,-197 120.62,-197 120.62,-174.75 201.88,-174.75 201.88,-197"/>
<text xml:space="preserve" text-anchor="middle" x="161.25" y="-181.6" font-family="Helvetica,sans-Serif" font-size="12.00">calibration.h</text>
</a>
</g>
</g>
<!-- Node1&#45;&gt;Node2 -->
<g id="edge1_Node000001_Node000002" class="edge">
<title>Node1&#45;&gt;Node2</title>
<g id="a_edge1_Node000001_Node000002"><a xlink:title=" ">
<path fill="none" stroke="#63b8ff" d="M288.95,-232.6C261.38,-222.73 227.45,-210.58 201.5,-201.29"/>
<polygon fill="#63b8ff" stroke="#63b8ff" points="202.93,-198.08 192.33,-198 200.57,-204.67 202.93,-198.08"/>
</a>
</g>
</g>
<!-- Node10 -->
<g id="Node000010" class="node">
<title>Node10</title>
<g id="a_Node000010"><a xlink:href="app__params_8h.html" target="_top" xlink:title="运行参数管理头文件（RAM 副本 + Flash 持久化）">
<polygon fill="white" stroke="#666666" points="319.5,-138.75 227,-138.75 227,-116.5 319.5,-116.5 319.5,-138.75"/>
<text xml:space="preserve" text-anchor="middle" x="273.25" y="-123.35" font-family="Helvetica,sans-Serif" font-size="12.00">app_params.h</text>
</a>
</g>
</g>
<!-- Node1&#45;&gt;Node10 -->
<g id="edge11_Node000001_Node000010" class="edge">
<title>Node1&#45;&gt;Node10</title>
<g id="a_edge11_Node000001_Node000010"><a xlink:title=" ">
<path fill="none" stroke="#63b8ff" d="M312.95,-232.57C301.68,-223.31 289.37,-210.99 282.25,-197 274.93,-182.62 272.83,-164.44 272.47,-150.43"/>
<polygon fill="#63b8ff" stroke="#63b8ff" points="275.97,-150.52 272.53,-140.49 268.97,-150.47 275.97,-150.52"/>
</a>
</g>
</g>
<!-- Node11 -->
<g id="Node000011" class="node">
<title>Node11</title>
<g id="a_Node000011"><a xlink:href="motor__config_8h.html" target="_top" xlink:title="电机参数与控制参数统一配置">
<polygon fill="white" stroke="#666666" points="385.62,-197 290.88,-197 290.88,-174.75 385.62,-174.75 385.62,-197"/>
<text xml:space="preserve" text-anchor="middle" x="338.25" y="-181.6" font-family="Helvetica,sans-Serif" font-size="12.00">motor_config.h</text>
</a>
</g>
</g>
<!-- Node1&#45;&gt;Node11 -->
<g id="edge14_Node000001_Node000011" class="edge">
<title>Node1&#45;&gt;Node11</title>
<g id="a_edge14_Node000001_Node000011"><a xlink:title=" ">
<path fill="none" stroke="#63b8ff" d="M338.25,-232.6C338.25,-225.28 338.25,-216.72 338.25,-208.99"/>
<polygon fill="#63b8ff" stroke="#63b8ff" points="341.75,-209.01 338.25,-199.01 334.75,-209.01 341.75,-209.01"/>
</a>
</g>
</g>
<!-- Node12 -->
<g id="Node000012" class="node">
<title>Node12</title>
<g id="a_Node000012"><a xlink:href="board__config_8h.html" target="_top" xlink:title="板级硬件参数统一配置（GIM4310/4305 电机控制器 V0.0 板）">
<polygon fill="white" stroke="#666666" points="452,-138.75 356.5,-138.75 356.5,-116.5 452,-116.5 452,-138.75"/>
<text xml:space="preserve" text-anchor="middle" x="404.25" y="-123.35" font-family="Helvetica,sans-Serif" font-size="12.00">board_config.h</text>
</a>
</g>
</g>
<!-- Node1&#45;&gt;Node12 -->
<g id="edge16_Node000001_Node000012" class="edge">
<title>Node1&#45;&gt;Node12</title>
<g id="a_edge16_Node000001_Node000012"><a xlink:title=" ">
<path fill="none" stroke="#63b8ff" d="M363.47,-232.53C374.71,-223.26 387.03,-210.94 394.25,-197 401.68,-182.65 404.06,-164.46 404.65,-150.45"/>
<polygon fill="#63b8ff" stroke="#63b8ff" points="408.15,-150.54 404.76,-140.5 401.15,-150.46 408.15,-150.54"/>
</a>
</g>
</g>
<!-- Node13 -->
<g id="Node000013" class="node">
<title>Node13</title>
<g id="a_Node000013"><a xlink:title=" ">
<polygon fill="#e0e0e0" stroke="#999999" points="493.25,-197 441.25,-197 441.25,-174.75 493.25,-174.75 493.25,-197"/>
<text xml:space="preserve" text-anchor="middle" x="467.25" y="-181.6" font-family="Helvetica,sans-Serif" font-size="12.00">math.h</text>
</a>
</g>
</g>
<!-- Node1&#45;&gt;Node13 -->
<g id="edge17_Node000001_Node000013" class="edge">
<title>Node1&#45;&gt;Node13</title>
<g id="a_edge17_Node000001_Node000013"><a xlink:title=" ">
<path fill="none" stroke="#63b8ff" d="M374.18,-232.6C393.38,-223.17 416.8,-211.66 435.35,-202.55"/>
<polygon fill="#63b8ff" stroke="#63b8ff" points="436.85,-205.71 444.28,-198.16 433.76,-199.43 436.85,-205.71"/>
</a>
</g>
</g>
<!-- Node3 -->
<g id="Node000003" class="node">
<title>Node3</title>
<g id="a_Node000003"><a xlink:href="foc_8h.html" target="_top" xlink:title="FOC 电流环模块头文件">
<polygon fill="white" stroke="#666666" points="96,-138.75 54.5,-138.75 54.5,-116.5 96,-116.5 96,-138.75"/>
<text xml:space="preserve" text-anchor="middle" x="75.25" y="-123.35" font-family="Helvetica,sans-Serif" font-size="12.00">foc.h</text>
</a>
</g>
</g>
<!-- Node2&#45;&gt;Node3 -->
<g id="edge2_Node000002_Node000003" class="edge">
<title>Node2&#45;&gt;Node3</title>
<g id="a_edge2_Node000002_Node000003"><a xlink:title=" ">
<path fill="none" stroke="#63b8ff" d="M145.07,-174.29C132.58,-166.12 115.06,-154.66 100.69,-145.27"/>
<polygon fill="#63b8ff" stroke="#63b8ff" points="102.9,-142.53 92.62,-139.99 99.07,-148.39 102.9,-142.53"/>
</a>
</g>
</g>
<!-- Node7 -->
<g id="Node000007" class="node">
<title>Node7</title>
<g id="a_Node000007"><a xlink:href="bsp__encoder_8h.html" target="_top" xlink:title="MT6701 磁编码器 BSP 头文件（GPIO 位带模拟 SSI）">
<polygon fill="white" stroke="#666666" points="208.62,-138.75 113.88,-138.75 113.88,-116.5 208.62,-116.5 208.62,-138.75"/>
<text xml:space="preserve" text-anchor="middle" x="161.25" y="-123.35" font-family="Helvetica,sans-Serif" font-size="12.00">bsp_encoder.h</text>
</a>
</g>
</g>
<!-- Node2&#45;&gt;Node7 -->
<g id="edge7_Node000002_Node000007" class="edge">
<title>Node2&#45;&gt;Node7</title>
<g id="a_edge7_Node000002_Node000007"><a xlink:title=" ">
<path fill="none" stroke="#63b8ff" d="M161.25,-174.29C161.25,-167.62 161.25,-158.74 161.25,-150.59"/>
<polygon fill="#63b8ff" stroke="#63b8ff" points="164.75,-150.67 161.25,-140.67 157.75,-150.67 164.75,-150.67"/>
</a>
</g>
</g>
<!-- Node4 -->
<g id="Node000004" class="node">
<title>Node4</title>
<g id="a_Node000004"><a xlink:href="foc__math_8h.html" target="_top" xlink:title="FOC 数学基础模块头文件（快速三角函数、坐标变换、角度工具）">
<polygon fill="white" stroke="#666666" points="74.5,-80.5 0,-80.5 0,-58.25 74.5,-58.25 74.5,-80.5"/>
<text xml:space="preserve" text-anchor="middle" x="37.25" y="-65.1" font-family="Helvetica,sans-Serif" font-size="12.00">foc_math.h</text>
</a>
</g>
</g>
<!-- Node3&#45;&gt;Node4 -->
<g id="edge3_Node000003_Node000004" class="edge">
<title>Node3&#45;&gt;Node4</title>
<g id="a_edge3_Node000003_Node000004"><a xlink:title=" ">
<path fill="none" stroke="#63b8ff" d="M68.1,-116.04C63.22,-108.82 56.6,-99.01 50.74,-90.34"/>
<polygon fill="#63b8ff" stroke="#63b8ff" points="53.71,-88.49 45.21,-82.16 47.91,-92.41 53.71,-88.49"/>
</a>
</g>
</g>
<!-- Node6 -->
<g id="Node000006" class="node">
<title>Node6</title>
<g id="a_Node000006"><a xlink:href="pid_8h.html" target="_top" xlink:title="位置式抗饱和（clamping anti&#45;windup）PID 控制器模块头文件">
<polygon fill="white" stroke="#666666" points="134.38,-80.5 92.12,-80.5 92.12,-58.25 134.38,-58.25 134.38,-80.5"/>
<text xml:space="preserve" text-anchor="middle" x="113.25" y="-65.1" font-family="Helvetica,sans-Serif" font-size="12.00">pid.h</text>
</a>
</g>
</g>
<!-- Node3&#45;&gt;Node6 -->
<g id="edge5_Node000003_Node000006" class="edge">
<title>Node3&#45;&gt;Node6</title>
<g id="a_edge5_Node000003_Node000006"><a xlink:title=" ">
<path fill="none" stroke="#63b8ff" d="M82.4,-116.04C87.28,-108.82 93.9,-99.01 99.76,-90.34"/>
<polygon fill="#63b8ff" stroke="#63b8ff" points="102.59,-92.41 105.29,-82.16 96.79,-88.49 102.59,-92.41"/>
</a>
</g>
</g>
<!-- Node5 -->
<g id="Node000005" class="node">
<title>Node5</title>
<g id="a_Node000005"><a xlink:title=" ">
<polygon fill="#e0e0e0" stroke="#999999" points="143.38,-22.25 89.12,-22.25 89.12,0 143.38,0 143.38,-22.25"/>
<text xml:space="preserve" text-anchor="middle" x="116.25" y="-6.85" font-family="Helvetica,sans-Serif" font-size="12.00">stdint.h</text>
</a>
</g>
</g>
<!-- Node4&#45;&gt;Node5 -->
<g id="edge4_Node000004_Node000005" class="edge">
<title>Node4&#45;&gt;Node5</title>
<g id="a_edge4_Node000004_Node000005"><a xlink:title=" ">
<path fill="none" stroke="#63b8ff" d="M52.11,-57.79C63.36,-49.78 79.06,-38.6 92.11,-29.31"/>
<polygon fill="#63b8ff" stroke="#63b8ff" points="94.11,-32.19 100.22,-23.54 90.05,-26.48 94.11,-32.19"/>
</a>
</g>
</g>
<!-- Node6&#45;&gt;Node5 -->
<g id="edge6_Node000006_Node000005" class="edge">
<title>Node6&#45;&gt;Node5</title>
<g id="a_edge6_Node000006_Node000005"><a xlink:title=" ">
<path fill="none" stroke="#63b8ff" d="M113.81,-57.79C114.17,-51.12 114.64,-42.24 115.08,-34.09"/>
<polygon fill="#63b8ff" stroke="#63b8ff" points="118.57,-34.34 115.61,-24.17 111.58,-33.97 118.57,-34.34"/>
</a>
</g>
</g>
<!-- Node7&#45;&gt;Node5 -->
<g id="edge10_Node000007_Node000005" class="edge">
<title>Node7&#45;&gt;Node5</title>
<g id="a_edge10_Node000007_Node000005"><a xlink:title=" ">
<path fill="none" stroke="#63b8ff" d="M159.41,-116.15C156.81,-102.47 151.44,-77.98 143.25,-58.25 139.58,-49.41 134.49,-40.21 129.71,-32.37"/>
<polygon fill="#63b8ff" stroke="#63b8ff" points="132.69,-30.53 124.37,-23.97 126.78,-34.28 132.69,-30.53"/>
</a>
</g>
</g>
<!-- Node8 -->
<g id="Node000008" class="node">
<title>Node8</title>
<g id="a_Node000008"><a xlink:href="main_8h.html" target="_top" xlink:title=": Header for main.c file.">
<polygon fill="white" stroke="#666666" points="244.25,-80.5 192.25,-80.5 192.25,-58.25 244.25,-58.25 244.25,-80.5"/>
<text xml:space="preserve" text-anchor="middle" x="218.25" y="-65.1" font-family="Helvetica,sans-Serif" font-size="12.00">main.h</text>
</a>
</g>
</g>
<!-- Node7&#45;&gt;Node8 -->
<g id="edge8_Node000007_Node000008" class="edge">
<title>Node7&#45;&gt;Node8</title>
<g id="a_edge8_Node000007_Node000008"><a xlink:title=" ">
<path fill="none" stroke="#63b8ff" d="M171.97,-116.04C179.69,-108.42 190.32,-97.94 199.44,-88.94"/>
<polygon fill="#63b8ff" stroke="#63b8ff" points="201.84,-91.49 206.5,-81.97 196.92,-86.5 201.84,-91.49"/>
</a>
</g>
</g>
<!-- Node9 -->
<g id="Node000009" class="node">
<title>Node9</title>
<g id="a_Node000009"><a xlink:title=" ">
<polygon fill="#e0e0e0" stroke="#999999" points="271.62,-22.25 164.88,-22.25 164.88,0 271.62,0 271.62,-22.25"/>
<text xml:space="preserve" text-anchor="middle" x="218.25" y="-6.85" font-family="Helvetica,sans-Serif" font-size="12.00">stm32g4xx_hal.h</text>
</a>
</g>
</g>
<!-- Node8&#45;&gt;Node9 -->
<g id="edge9_Node000008_Node000009" class="edge">
<title>Node8&#45;&gt;Node9</title>
<g id="a_edge9_Node000008_Node000009"><a xlink:title=" ">
<path fill="none" stroke="#63b8ff" d="M218.25,-57.79C218.25,-51.12 218.25,-42.24 218.25,-34.09"/>
<polygon fill="#63b8ff" stroke="#63b8ff" points="221.75,-34.17 218.25,-24.17 214.75,-34.17 221.75,-34.17"/>
</a>
</g>
</g>
<!-- Node10&#45;&gt;Node5 -->
<g id="edge13_Node000010_Node000005" class="edge">
<title>Node10&#45;&gt;Node5</title>
<g id="a_edge13_Node000010_Node000005"><a xlink:title=" ">
<path fill="none" stroke="#63b8ff" d="M273.09,-116.37C272.29,-101.59 268.67,-74.31 253.25,-58.25 246.17,-50.88 192.62,-34.21 154.61,-23.06"/>
<polygon fill="#63b8ff" stroke="#63b8ff" points="155.9,-19.79 145.32,-20.36 153.94,-26.51 155.9,-19.79"/>
</a>
</g>
</g>
<!-- Node10&#45;&gt;Node8 -->
<g id="edge12_Node000010_Node000008" class="edge">
<title>Node10&#45;&gt;Node8</title>
<g id="a_edge12_Node000010_Node000008"><a xlink:title=" ">
<path fill="none" stroke="#63b8ff" d="M262.9,-116.04C255.45,-108.42 245.2,-97.94 236.4,-88.94"/>
<polygon fill="#63b8ff" stroke="#63b8ff" points="239.1,-86.69 229.61,-81.99 234.1,-91.59 239.1,-86.69"/>
</a>
</g>
</g>
<!-- Node11&#45;&gt;Node12 -->
<g id="edge15_Node000011_Node000012" class="edge">
<title>Node11&#45;&gt;Node12</title>
<g id="a_edge15_Node000011_Node000012"><a xlink:title=" ">
<path fill="none" stroke="#63b8ff" d="M350.66,-174.29C359.88,-166.44 372.67,-155.54 383.44,-146.36"/>
<polygon fill="#63b8ff" stroke="#63b8ff" points="385.4,-149.29 390.74,-140.14 380.86,-143.96 385.4,-149.29"/>
</a>
</g>
</g>
</g>
</svg>
