<?xml version="1.0" encoding="UTF-8" standalone="no"?>
<!DOCTYPE svg PUBLIC "-//W3C//DTD SVG 1.1//EN"
 "http://www.w3.org/Graphics/SVG/1.1/DTD/svg11.dtd">
<!-- Generated by graphviz version 15.1.0 (20260618.0150)
 -->
<!-- Title: CAL_Isr Pages: 1 -->
<svg width="551pt" height="388pt"
 viewBox="0.00 0.00 551.00 388.00" xmlns="http://www.w3.org/2000/svg" xmlns:xlink="http://www.w3.org/1999/xlink">
<g id="graph0" class="graph" transform="scale(1 1) rotate(0) translate(4 384.25)">
<title>CAL_Isr</title>
<!-- Node1 -->
<g id="Node000001" class="node">
<title>Node1</title>
<g id="a_Node000001"><a xlink:title="校准状态机单步（电流环 ISR 调用，模式 = MC_MODE_CALIB）">
<polygon fill="#999999" stroke="#666666" points="59.5,-300.25 0,-300.25 0,-278 59.5,-278 59.5,-300.25"/>
<text xml:space="preserve" text-anchor="middle" x="29.75" y="-284.85" font-family="Helvetica,sans-Serif" font-size="12.00">CAL_Isr</text>
</a>
</g>
</g>
<!-- Node2 -->
<g id="Node000002" class="node">
<title>Node2</title>
<g id="a_Node000002"><a xlink:href="bsp__encoder_8c.html#aeb49ab86be385a4a6edd057538820937" target="_top" xlink:title="设置方向反转标志（预定位校准结果）">
<polygon fill="white" stroke="#666666" points="227.38,-380.25 99.62,-380.25 99.62,-358 227.38,-358 227.38,-380.25"/>
<text xml:space="preserve" text-anchor="middle" x="163.5" y="-364.85" font-family="Helvetica,sans-Serif" font-size="12.00">BSP_ENC_SetInvert</text>
</a>
</g>
</g>
<!-- Node1&#45;&gt;Node2 -->
<g id="edge1_Node000001_Node000002" class="edge">
<title>Node1&#45;&gt;Node2</title>
<g id="a_edge1_Node000001_Node000002"><a xlink:title=" ">
<path fill="none" stroke="#63b8ff" d="M40.1,-300.52C51.74,-313.99 72.87,-336.21 95.5,-349.12 98.13,-350.62 100.88,-352.02 103.7,-353.32"/>
<polygon fill="#63b8ff" stroke="#63b8ff" points="102.19,-356.49 112.77,-357.04 104.85,-350.01 102.19,-356.49"/>
</a>
</g>
</g>
<!-- Node3 -->
<g id="Node000003" class="node">
<title>Node3</title>
<g id="a_Node000003"><a xlink:href="calibration_8c.html#a26fea34b7ac90079fc8454f8012f95e0" target="_top" xlink:title="偏置测量点的强制角序列">
<polygon fill="white" stroke="#666666" points="231.5,-340.25 95.5,-340.25 95.5,-318 231.5,-318 231.5,-340.25"/>
<text xml:space="preserve" text-anchor="middle" x="163.5" y="-324.85" font-family="Helvetica,sans-Serif" font-size="12.00">CAL_OffsetPointTheta</text>
</a>
</g>
</g>
<!-- Node1&#45;&gt;Node3 -->
<g id="edge2_Node000001_Node000003" class="edge">
<title>Node1&#45;&gt;Node3</title>
<g id="a_edge2_Node000001_Node000003"><a xlink:title=" ">
<path fill="none" stroke="#63b8ff" d="M59.74,-298.14C70.91,-301.6 83.79,-305.57 95.5,-309.12 101.02,-310.8 106.8,-312.55 112.55,-314.27"/>
<polygon fill="#63b8ff" stroke="#63b8ff" points="111.48,-317.6 122.06,-317.12 113.48,-310.9 111.48,-317.6"/>
</a>
</g>
</g>
<!-- Node4 -->
<g id="Node000004" class="node">
<title>Node4</title>
<g id="a_Node000004"><a xlink:href="foc_8c.html#a42501e789c00841a74f2ce755c5d03d6" target="_top" xlink:title="设置 d/q 电流给定">
<polygon fill="white" stroke="#666666" points="225.88,-300.25 101.12,-300.25 101.12,-278 225.88,-278 225.88,-300.25"/>
<text xml:space="preserve" text-anchor="middle" x="163.5" y="-284.85" font-family="Helvetica,sans-Serif" font-size="12.00">FOC_SetCurrentRef</text>
</a>
</g>
</g>
<!-- Node1&#45;&gt;Node4 -->
<g id="edge3_Node000001_Node000004" class="edge">
<title>Node1&#45;&gt;Node4</title>
<g id="a_edge3_Node000001_Node000004"><a xlink:title=" ">
<path fill="none" stroke="#63b8ff" d="M59.99,-289.12C68.84,-289.12 78.99,-289.12 89.38,-289.12"/>
<polygon fill="#63b8ff" stroke="#63b8ff" points="89.18,-292.63 99.18,-289.13 89.18,-285.63 89.18,-292.63"/>
</a>
</g>
</g>
<!-- Node5 -->
<g id="Node000005" class="node">
<title>Node5</title>
<g id="a_Node000005"><a xlink:href="foc__math_8c.html#a39d4aea10aec434cb4d2490fafb98632" target="_top" xlink:title="查表+线性插值同时计算 sin/cos">
<polygon fill="white" stroke="#666666" points="358.5,-302.25 270.5,-302.25 270.5,-280 358.5,-280 358.5,-302.25"/>
<text xml:space="preserve" text-anchor="middle" x="314.5" y="-286.85" font-family="Helvetica,sans-Serif" font-size="12.00">FOC_SinCos</text>
</a>
</g>
</g>
<!-- Node1&#45;&gt;Node5 -->
<g id="edge4_Node000001_Node000005" class="edge">
<title>Node1&#45;&gt;Node5</title>
<g id="a_edge4_Node000001_Node000005"><a xlink:title=" ">
<path fill="none" stroke="#63b8ff" d="M59.97,-278.06C70.94,-274.45 83.63,-270.92 95.5,-269.12 155.27,-260.1 171.57,-261.23 231.5,-269.12 243.35,-270.69 255.92,-273.47 267.56,-276.54"/>
<polygon fill="#63b8ff" stroke="#63b8ff" points="266.36,-279.83 276.93,-279.13 268.23,-273.09 266.36,-279.83"/>
</a>
</g>
</g>
<!-- Node8 -->
<g id="Node000008" class="node">
<title>Node8</title>
<g id="a_Node000008"><a xlink:href="foc_8c.html#adeb37d340903f5f803d273080550032d" target="_top" xlink:title="执行一个电流环周期（在 ADC 注入转换完成 ISR 中调用）">
<polygon fill="white" stroke="#666666" points="207.12,-182.25 119.88,-182.25 119.88,-160 207.12,-160 207.12,-182.25"/>
<text xml:space="preserve" text-anchor="middle" x="163.5" y="-166.85" font-family="Helvetica,sans-Serif" font-size="12.00">FOC_Update</text>
</a>
</g>
</g>
<!-- Node1&#45;&gt;Node8 -->
<g id="edge7_Node000001_Node000008" class="edge">
<title>Node1&#45;&gt;Node8</title>
<g id="a_edge7_Node000001_Node000008"><a xlink:title=" ">
<path fill="none" stroke="#63b8ff" d="M43.38,-277.81C66.05,-257.51 113.83,-214.72 141.49,-189.94"/>
<polygon fill="#63b8ff" stroke="#63b8ff" points="143.47,-192.87 148.58,-183.59 138.8,-187.65 143.47,-192.87"/>
</a>
</g>
</g>
<!-- Node6 -->
<g id="Node000006" class="node">
<title>Node6</title>
<g id="a_Node000006"><a xlink:href="foc__math_8c.html#ac63ab3ffd2685338c76dc6de24c953b1" target="_top" xlink:title="构建 sin 查找表（仅初始化时执行一次）">
<polygon fill="white" stroke="#666666" points="542.5,-322.25 397.5,-322.25 397.5,-300 542.5,-300 542.5,-322.25"/>
<text xml:space="preserve" text-anchor="middle" x="470" y="-306.85" font-family="Helvetica,sans-Serif" font-size="12.00">FOC_MATH_BuildTable</text>
</a>
</g>
</g>
<!-- Node5&#45;&gt;Node6 -->
<g id="edge5_Node000005_Node000006" class="edge">
<title>Node5&#45;&gt;Node6</title>
<g id="a_edge5_Node000005_Node000006"><a xlink:title=" ">
<path fill="none" stroke="#63b8ff" d="M358.67,-296.75C367.18,-297.86 376.37,-299.06 385.7,-300.27"/>
<polygon fill="#63b8ff" stroke="#63b8ff" points="385.24,-303.74 395.6,-301.56 386.14,-296.8 385.24,-303.74"/>
</a>
</g>
</g>
<!-- Node7 -->
<g id="Node000007" class="node">
<title>Node7</title>
<g id="a_Node000007"><a xlink:href="foc__math_8c.html#a4cc9d35ffa1c5f6ab5668cbe7623d018" target="_top" xlink:title="角度归一化到 [0, 2pi)">
<polygon fill="white" stroke="#666666" points="537.25,-282.25 402.75,-282.25 402.75,-260 537.25,-260 537.25,-282.25"/>
<text xml:space="preserve" text-anchor="middle" x="470" y="-266.85" font-family="Helvetica,sans-Serif" font-size="12.00">FOC_NormalizeAngle</text>
</a>
</g>
</g>
<!-- Node5&#45;&gt;Node7 -->
<g id="edge6_Node000005_Node000007" class="edge">
<title>Node5&#45;&gt;Node7</title>
<g id="a_edge6_Node000005_Node000007"><a xlink:title=" ">
<path fill="none" stroke="#63b8ff" d="M358.67,-285.5C368.84,-284.17 380,-282.72 391.19,-281.26"/>
<polygon fill="#63b8ff" stroke="#63b8ff" points="391.38,-284.77 400.85,-280.01 390.48,-277.83 391.38,-284.77"/>
</a>
</g>
</g>
<!-- Node8&#45;&gt;Node5 -->
<g id="edge12_Node000008_Node000005" class="edge">
<title>Node8&#45;&gt;Node5</title>
<g id="a_edge12_Node000008_Node000005"><a xlink:title=" ">
<path fill="none" stroke="#63b8ff" d="M176.36,-182.63C189.76,-195.62 212.2,-217.38 231.5,-236.12 247.51,-251.67 248.97,-258.7 267.5,-271.12 269.29,-272.33 271.16,-273.48 273.09,-274.59"/>
<polygon fill="#63b8ff" stroke="#63b8ff" points="271.15,-277.53 281.64,-279.02 274.37,-271.31 271.15,-277.53"/>
</a>
</g>
</g>
<!-- Node9 -->
<g id="Node000009" class="node">
<title>Node9</title>
<g id="a_Node000009"><a xlink:href="foc__math_8c.html#a7b6dc337ca6db7a63bc15c20d5772fb7" target="_top" xlink:title="Clarke 变换（等幅值变换，3 相 &#45;&gt; alpha/beta）">
<polygon fill="white" stroke="#666666" points="356.25,-262.25 272.75,-262.25 272.75,-240 356.25,-240 356.25,-262.25"/>
<text xml:space="preserve" text-anchor="middle" x="314.5" y="-246.85" font-family="Helvetica,sans-Serif" font-size="12.00">FOC_Clarke</text>
</a>
</g>
</g>
<!-- Node8&#45;&gt;Node9 -->
<g id="edge8_Node000008_Node000009" class="edge">
<title>Node8&#45;&gt;Node9</title>
<g id="a_edge8_Node000008_Node000009"><a xlink:title=" ">
<path fill="none" stroke="#63b8ff" d="M182.74,-182.63C203.05,-195.23 237.04,-215.7 267.5,-231.12 270.02,-232.4 272.63,-233.67 275.28,-234.92"/>
<polygon fill="#63b8ff" stroke="#63b8ff" points="273.6,-238 284.15,-238.96 276.5,-231.63 273.6,-238"/>
</a>
</g>
</g>
<!-- Node10 -->
<g id="Node000010" class="node">
<title>Node10</title>
<g id="a_Node000010"><a xlink:href="foc_8c.html#aa9db75377abf9b36c243b87f58172dd6" target="_top" xlink:title="快速平方根（M4F 上编译为 VSQRT 单指令）">
<polygon fill="white" stroke="#666666" points="361.12,-222.25 267.88,-222.25 267.88,-200 361.12,-200 361.12,-222.25"/>
<text xml:space="preserve" text-anchor="middle" x="314.5" y="-206.85" font-family="Helvetica,sans-Serif" font-size="12.00">FOC_FastSqrt</text>
</a>
</g>
</g>
<!-- Node8&#45;&gt;Node10 -->
<g id="edge9_Node000008_Node000010" class="edge">
<title>Node8&#45;&gt;Node10</title>
<g id="a_edge9_Node000008_Node000010"><a xlink:title=" ">
<path fill="none" stroke="#63b8ff" d="M207.6,-182.69C223.74,-187.03 242.3,-192.01 259.32,-196.58"/>
<polygon fill="#63b8ff" stroke="#63b8ff" points="258.21,-199.91 268.78,-199.12 260.03,-193.15 258.21,-199.91"/>
</a>
</g>
</g>
<!-- Node11 -->
<g id="Node000011" class="node">
<title>Node11</title>
<g id="a_Node000011"><a xlink:href="foc__math_8c.html#ae7e0a68727625c071145c38236b08cfe" target="_top" xlink:title="Park 反变换（d/q &#45;&gt; alpha/beta）">
<polygon fill="white" stroke="#666666" points="358.88,-182.25 270.12,-182.25 270.12,-160 358.88,-160 358.88,-182.25"/>
<text xml:space="preserve" text-anchor="middle" x="314.5" y="-166.85" font-family="Helvetica,sans-Serif" font-size="12.00">FOC_InvPark</text>
</a>
</g>
</g>
<!-- Node8&#45;&gt;Node11 -->
<g id="edge10_Node000008_Node000011" class="edge">
<title>Node8&#45;&gt;Node11</title>
<g id="a_edge10_Node000008_Node000011"><a xlink:title=" ">
<path fill="none" stroke="#63b8ff" d="M207.6,-171.12C223.45,-171.12 241.62,-171.12 258.39,-171.12"/>
<polygon fill="#63b8ff" stroke="#63b8ff" points="258.21,-174.63 268.21,-171.13 258.21,-167.63 258.21,-174.63"/>
</a>
</g>
</g>
<!-- Node12 -->
<g id="Node000012" class="node">
<title>Node12</title>
<g id="a_Node000012"><a xlink:href="foc__math_8c.html#a002780099733b401167923e53120d292" target="_top" xlink:title="Park 变换（alpha/beta &#45;&gt; d/q）">
<polygon fill="white" stroke="#666666" points="351,-142.25 278,-142.25 278,-120 351,-120 351,-142.25"/>
<text xml:space="preserve" text-anchor="middle" x="314.5" y="-126.85" font-family="Helvetica,sans-Serif" font-size="12.00">FOC_Park</text>
</a>
</g>
</g>
<!-- Node8&#45;&gt;Node12 -->
<g id="edge11_Node000008_Node000012" class="edge">
<title>Node8&#45;&gt;Node12</title>
<g id="a_edge11_Node000008_Node000012"><a xlink:title=" ">
<path fill="none" stroke="#63b8ff" d="M207.6,-159.56C226.05,-154.6 247.64,-148.8 266.5,-143.74"/>
<polygon fill="#63b8ff" stroke="#63b8ff" points="267.33,-147.14 276.08,-141.17 265.51,-140.38 267.33,-147.14"/>
</a>
</g>
</g>
<!-- Node13 -->
<g id="Node000013" class="node">
<title>Node13</title>
<g id="a_Node000013"><a xlink:href="foc__math_8c.html#a81c018372d65f69c5d8bd6abdeb9f1d2" target="_top" xlink:title="SVPWM 调制（注入零序的 min&#45;max 中点平移法）">
<polygon fill="white" stroke="#666666" points="361.5,-102.25 267.5,-102.25 267.5,-80 361.5,-80 361.5,-102.25"/>
<text xml:space="preserve" text-anchor="middle" x="314.5" y="-86.85" font-family="Helvetica,sans-Serif" font-size="12.00">FOC_SVPWM</text>
</a>
</g>
</g>
<!-- Node8&#45;&gt;Node13 -->
<g id="edge13_Node000008_Node000013" class="edge">
<title>Node8&#45;&gt;Node13</title>
<g id="a_edge13_Node000008_Node000013"><a xlink:title=" ">
<path fill="none" stroke="#63b8ff" d="M182.74,-159.62C203.05,-147.02 237.04,-126.55 267.5,-111.12 270.02,-109.85 272.63,-108.58 275.28,-107.33"/>
<polygon fill="#63b8ff" stroke="#63b8ff" points="276.5,-110.62 284.15,-103.29 273.6,-104.25 276.5,-110.62"/>
</a>
</g>
</g>
<!-- Node14 -->
<g id="Node000014" class="node">
<title>Node14</title>
<g id="a_Node000014"><a xlink:href="pid_8c.html#ad7fced70a610f756fa6319fccc4ae725" target="_top" xlink:title="运行中修改输出限幅，并把积分收拢到新限幅内">
<polygon fill="white" stroke="#666666" points="360.75,-62.25 268.25,-62.25 268.25,-40 360.75,-40 360.75,-62.25"/>
<text xml:space="preserve" text-anchor="middle" x="314.5" y="-46.85" font-family="Helvetica,sans-Serif" font-size="12.00">PID_SetLimits</text>
</a>
</g>
</g>
<!-- Node8&#45;&gt;Node14 -->
<g id="edge14_Node000008_Node000014" class="edge">
<title>Node8&#45;&gt;Node14</title>
<g id="a_edge14_Node000008_Node000014"><a xlink:title=" ">
<path fill="none" stroke="#63b8ff" d="M173.93,-159.55C190.88,-139.36 228.37,-97.35 267.5,-71.12 269.29,-69.93 271.16,-68.77 273.09,-67.66"/>
<polygon fill="#63b8ff" stroke="#63b8ff" points="274.37,-70.94 281.64,-63.23 271.15,-64.72 274.37,-70.94"/>
</a>
</g>
</g>
<!-- Node15 -->
<g id="Node000015" class="node">
<title>Node15</title>
<g id="a_Node000015"><a xlink:href="pid_8c.html#a0cc51ef261cec84e3e35382345ac95a0" target="_top" xlink:title="执行一次 PID 计算">
<polygon fill="white" stroke="#666666" points="355.5,-22.25 273.5,-22.25 273.5,0 355.5,0 355.5,-22.25"/>
<text xml:space="preserve" text-anchor="middle" x="314.5" y="-6.85" font-family="Helvetica,sans-Serif" font-size="12.00">PID_Update</text>
</a>
</g>
</g>
<!-- Node8&#45;&gt;Node15 -->
<g id="edge15_Node000008_Node000015" class="edge">
<title>Node8&#45;&gt;Node15</title>
<g id="a_edge15_Node000008_Node000015"><a xlink:title=" ">
<path fill="none" stroke="#63b8ff" d="M170.15,-159.75C183.63,-133.68 220.09,-68.95 267.5,-31.12 268.78,-30.11 270.11,-29.13 271.49,-28.2"/>
<polygon fill="#63b8ff" stroke="#63b8ff" points="272.89,-31.43 279.77,-23.38 269.37,-25.38 272.89,-31.43"/>
</a>
</g>
</g>
</g>
</svg>
