<?xml version="1.0" encoding="UTF-8" standalone="no"?>
<!DOCTYPE svg PUBLIC "-//W3C//DTD SVG 1.1//EN"
 "http://www.w3.org/Graphics/SVG/1.1/DTD/svg11.dtd">
<!-- Generated by graphviz version 15.1.0 (20260618.0150)
 -->
<!-- Title: Application/control/calibration.h Pages: 1 -->
<svg width="278pt" height="219pt"
 viewBox="0.00 0.00 278.00 219.00" xmlns="http://www.w3.org/2000/svg" xmlns:xlink="http://www.w3.org/1999/xlink">
<g id="graph0" class="graph" transform="scale(1 1) rotate(0) translate(4 215.25)">
<title>Application/control/calibration.h</title>
<!-- Node1 -->
<g id="Node000001" class="node">
<title>Node1</title>
<g id="a_Node000001"><a xlink:title="预定位校准模块头文件（编码器方向/极对数/电角度偏置）">
<polygon fill="#999999" stroke="#666666" points="194.75,-211.25 79.75,-211.25 79.75,-174.75 194.75,-174.75 194.75,-211.25"/>
<text xml:space="preserve" text-anchor="start" x="87.75" y="-195.85" font-family="Helvetica,sans-Serif" font-size="12.00">Application/control</text>
<text xml:space="preserve" text-anchor="middle" x="137.25" y="-181.6" font-family="Helvetica,sans-Serif" font-size="12.00">/calibration.h</text>
</a>
</g>
</g>
<!-- Node2 -->
<g id="Node000002" class="node">
<title>Node2</title>
<g id="a_Node000002"><a xlink:href="foc_8h.html" target="_top" xlink:title="FOC 电流环模块头文件">
<polygon fill="white" stroke="#666666" points="115,-138.75 73.5,-138.75 73.5,-116.5 115,-116.5 115,-138.75"/>
<text xml:space="preserve" text-anchor="middle" x="94.25" y="-123.35" font-family="Helvetica,sans-Serif" font-size="12.00">foc.h</text>
</a>
</g>
</g>
<!-- Node1&#45;&gt;Node2 -->
<g id="edge1_Node000001_Node000002" class="edge">
<title>Node1&#45;&gt;Node2</title>
<g id="a_edge1_Node000001_Node000002"><a xlink:title=" ">
<path fill="none" stroke="#63b8ff" d="M125.27,-174.35C119.83,-166.33 113.37,-156.8 107.76,-148.53"/>
<polygon fill="#63b8ff" stroke="#63b8ff" points="110.82,-146.81 102.3,-140.5 105.02,-150.74 110.82,-146.81"/>
</a>
</g>
</g>
<!-- Node6 -->
<g id="Node000006" class="node">
<title>Node6</title>
<g id="a_Node000006"><a xlink:href="bsp__encoder_8h.html" target="_top" xlink:title="MT6701 磁编码器 BSP 头文件（GPIO 位带模拟 SSI）">
<polygon fill="white" stroke="#666666" points="227.62,-138.75 132.88,-138.75 132.88,-116.5 227.62,-116.5 227.62,-138.75"/>
<text xml:space="preserve" text-anchor="middle" x="180.25" y="-123.35" font-family="Helvetica,sans-Serif" font-size="12.00">bsp_encoder.h</text>
</a>
</g>
</g>
<!-- Node1&#45;&gt;Node6 -->
<g id="edge6_Node000001_Node000006" class="edge">
<title>Node1&#45;&gt;Node6</title>
<g id="a_edge6_Node000001_Node000006"><a xlink:title=" ">
<path fill="none" stroke="#63b8ff" d="M149.23,-174.35C154.67,-166.33 161.13,-156.8 166.74,-148.53"/>
<polygon fill="#63b8ff" stroke="#63b8ff" points="169.48,-150.74 172.2,-140.5 163.68,-146.81 169.48,-150.74"/>
</a>
</g>
</g>
<!-- Node3 -->
<g id="Node000003" class="node">
<title>Node3</title>
<g id="a_Node000003"><a xlink:href="foc__math_8h.html" target="_top" xlink:title="FOC 数学基础模块头文件（快速三角函数、坐标变换、角度工具）">
<polygon fill="white" stroke="#666666" points="74.5,-80.5 0,-80.5 0,-58.25 74.5,-58.25 74.5,-80.5"/>
<text xml:space="preserve" text-anchor="middle" x="37.25" y="-65.1" font-family="Helvetica,sans-Serif" font-size="12.00">foc_math.h</text>
</a>
</g>
</g>
<!-- Node2&#45;&gt;Node3 -->
<g id="edge2_Node000002_Node000003" class="edge">
<title>Node2&#45;&gt;Node3</title>
<g id="a_edge2_Node000002_Node000003"><a xlink:title=" ">
<path fill="none" stroke="#63b8ff" d="M83.53,-116.04C75.81,-108.42 65.18,-97.94 56.06,-88.94"/>
<polygon fill="#63b8ff" stroke="#63b8ff" points="58.58,-86.5 49,-81.97 53.66,-91.49 58.58,-86.5"/>
</a>
</g>
</g>
<!-- Node5 -->
<g id="Node000005" class="node">
<title>Node5</title>
<g id="a_Node000005"><a xlink:href="pid_8h.html" target="_top" xlink:title="位置式抗饱和（clamping anti&#45;windup）PID 控制器模块头文件">
<polygon fill="white" stroke="#666666" points="134.38,-80.5 92.12,-80.5 92.12,-58.25 134.38,-58.25 134.38,-80.5"/>
<text xml:space="preserve" text-anchor="middle" x="113.25" y="-65.1" font-family="Helvetica,sans-Serif" font-size="12.00">pid.h</text>
</a>
</g>
</g>
<!-- Node2&#45;&gt;Node5 -->
<g id="edge4_Node000002_Node000005" class="edge">
<title>Node2&#45;&gt;Node5</title>
<g id="a_edge4_Node000002_Node000005"><a xlink:title=" ">
<path fill="none" stroke="#63b8ff" d="M97.82,-116.04C100.13,-109.21 103.22,-100.07 106.02,-91.77"/>
<polygon fill="#63b8ff" stroke="#63b8ff" points="109.32,-92.94 109.21,-82.34 102.69,-90.7 109.32,-92.94"/>
</a>
</g>
</g>
<!-- Node4 -->
<g id="Node000004" class="node">
<title>Node4</title>
<g id="a_Node000004"><a xlink:title=" ">
<polygon fill="#e0e0e0" stroke="#999999" points="140.38,-22.25 86.12,-22.25 86.12,0 140.38,0 140.38,-22.25"/>
<text xml:space="preserve" text-anchor="middle" x="113.25" y="-6.85" font-family="Helvetica,sans-Serif" font-size="12.00">stdint.h</text>
</a>
</g>
</g>
<!-- Node3&#45;&gt;Node4 -->
<g id="edge3_Node000003_Node000004" class="edge">
<title>Node3&#45;&gt;Node4</title>
<g id="a_edge3_Node000003_Node000004"><a xlink:title=" ">
<path fill="none" stroke="#63b8ff" d="M51.55,-57.79C62.37,-49.78 77.48,-38.6 90.03,-29.31"/>
<polygon fill="#63b8ff" stroke="#63b8ff" points="91.85,-32.32 97.8,-23.56 87.68,-26.69 91.85,-32.32"/>
</a>
</g>
</g>
<!-- Node5&#45;&gt;Node4 -->
<g id="edge5_Node000005_Node000004" class="edge">
<title>Node5&#45;&gt;Node4</title>
<g id="a_edge5_Node000005_Node000004"><a xlink:title=" ">
<path fill="none" stroke="#63b8ff" d="M113.25,-57.79C113.25,-51.12 113.25,-42.24 113.25,-34.09"/>
<polygon fill="#63b8ff" stroke="#63b8ff" points="116.75,-34.17 113.25,-24.17 109.75,-34.17 116.75,-34.17"/>
</a>
</g>
</g>
<!-- Node6&#45;&gt;Node4 -->
<g id="edge9_Node000006_Node000004" class="edge">
<title>Node6&#45;&gt;Node4</title>
<g id="a_edge9_Node000006_Node000004"><a xlink:title=" ">
<path fill="none" stroke="#63b8ff" d="M174.99,-116.29C168.03,-102.77 155.25,-78.44 143.25,-58.25 138.03,-49.47 131.94,-39.99 126.62,-31.91"/>
<polygon fill="#63b8ff" stroke="#63b8ff" points="129.71,-30.23 121.25,-23.86 123.88,-34.12 129.71,-30.23"/>
</a>
</g>
</g>
<!-- Node7 -->
<g id="Node000007" class="node">
<title>Node7</title>
<g id="a_Node000007"><a xlink:href="main_8h.html" target="_top" xlink:title=": Header for main.c file.">
<polygon fill="white" stroke="#666666" points="242.25,-80.5 190.25,-80.5 190.25,-58.25 242.25,-58.25 242.25,-80.5"/>
<text xml:space="preserve" text-anchor="middle" x="216.25" y="-65.1" font-family="Helvetica,sans-Serif" font-size="12.00">main.h</text>
</a>
</g>
</g>
<!-- Node6&#45;&gt;Node7 -->
<g id="edge7_Node000006_Node000007" class="edge">
<title>Node6&#45;&gt;Node7</title>
<g id="a_edge7_Node000006_Node000007"><a xlink:title=" ">
<path fill="none" stroke="#63b8ff" d="M187.02,-116.04C191.65,-108.82 197.92,-99.01 203.47,-90.34"/>
<polygon fill="#63b8ff" stroke="#63b8ff" points="206.25,-92.49 208.69,-82.18 200.35,-88.72 206.25,-92.49"/>
</a>
</g>
</g>
<!-- Node8 -->
<g id="Node000008" class="node">
<title>Node8</title>
<g id="a_Node000008"><a xlink:title=" ">
<polygon fill="#e0e0e0" stroke="#999999" points="269.62,-22.25 162.88,-22.25 162.88,0 269.62,0 269.62,-22.25"/>
<text xml:space="preserve" text-anchor="middle" x="216.25" y="-6.85" font-family="Helvetica,sans-Serif" font-size="12.00">stm32g4xx_hal.h</text>
</a>
</g>
</g>
<!-- Node7&#45;&gt;Node8 -->
<g id="edge8_Node000007_Node000008" class="edge">
<title>Node7&#45;&gt;Node8</title>
<g id="a_edge8_Node000007_Node000008"><a xlink:title=" ">
<path fill="none" stroke="#63b8ff" d="M216.25,-57.79C216.25,-51.12 216.25,-42.24 216.25,-34.09"/>
<polygon fill="#63b8ff" stroke="#63b8ff" points="219.75,-34.17 216.25,-24.17 212.75,-34.17 219.75,-34.17"/>
</a>
</g>
</g>
</g>
</svg>
