<?xml version="1.0" encoding="UTF-8" standalone="no"?>
<!DOCTYPE svg PUBLIC "-//W3C//DTD SVG 1.1//EN"
 "http://www.w3.org/Graphics/SVG/1.1/DTD/svg11.dtd">
<!-- Generated by graphviz version 15.1.0 (20260618.0150)
 -->
<!-- Title: Core/Inc/fdcan.h Pages: 1 -->
<svg width="371pt" height="103pt"
 viewBox="0.00 0.00 371.00 103.00" xmlns="http://www.w3.org/2000/svg" xmlns:xlink="http://www.w3.org/1999/xlink">
<g id="graph0" class="graph" transform="scale(1 1) rotate(0) translate(4 98.75)">
<title>Core/Inc/fdcan.h</title>
<!-- Node1 -->
<g id="Node000001" class="node">
<title>Node1</title>
<g id="a_Node000001"><a xlink:title="This file contains all the function prototypes for the fdcan.c file">
<polygon fill="#999999" stroke="#666666" points="243,-94.75 140,-94.75 140,-72.5 243,-72.5 243,-94.75"/>
<text xml:space="preserve" text-anchor="middle" x="191.5" y="-79.35" font-family="Helvetica,sans-Serif" font-size="12.00">Core/Inc/fdcan.h</text>
</a>
</g>
</g>
<!-- Node2 -->
<g id="Node000002" class="node">
<title>Node2</title>
<g id="a_Node000002"><a xlink:href="bsp__can_8c.html" target="_top" xlink:title="FDCAN1 通信 BSP（经典 CAN 模式）">
<polygon fill="white" stroke="#666666" points="121,-36.5 0,-36.5 0,0 121,0 121,-36.5"/>
<text xml:space="preserve" text-anchor="start" x="8" y="-21.1" font-family="Helvetica,sans-Serif" font-size="12.00">Application/bsp/bsp</text>
<text xml:space="preserve" text-anchor="middle" x="60.5" y="-6.85" font-family="Helvetica,sans-Serif" font-size="12.00">_can.c</text>
</a>
</g>
</g>
<!-- Node1&#45;&gt;Node2 -->
<g id="edge1_Node000001_Node000002" class="edge">
<title>Node1&#45;&gt;Node2</title>
<g id="a_edge1_Node000001_Node000002"><a xlink:title=" ">
<path fill="none" stroke="#63b8ff" d="M159.41,-67.1C140.57,-57.99 116.7,-46.44 97.13,-36.97"/>
<polygon fill="#63b8ff" stroke="#63b8ff" points="157.68,-70.15 168.21,-71.36 160.73,-63.85 157.68,-70.15"/>
</a>
</g>
</g>
<!-- Node3 -->
<g id="Node000003" class="node">
<title>Node3</title>
<g id="a_Node000003"><a xlink:href="fdcan_8c.html" target="_top" xlink:title="This file provides code for the configuration of the FDCAN instances.">
<polygon fill="white" stroke="#666666" points="243.75,-29.38 139.25,-29.38 139.25,-7.12 243.75,-7.12 243.75,-29.38"/>
<text xml:space="preserve" text-anchor="middle" x="191.5" y="-13.97" font-family="Helvetica,sans-Serif" font-size="12.00">Core/Src/fdcan.c</text>
</a>
</g>
</g>
<!-- Node1&#45;&gt;Node3 -->
<g id="edge2_Node000001_Node000003" class="edge">
<title>Node1&#45;&gt;Node3</title>
<g id="a_edge2_Node000001_Node000003"><a xlink:title=" ">
<path fill="none" stroke="#63b8ff" d="M191.5,-60.79C191.5,-50.19 191.5,-37.95 191.5,-29.52"/>
<polygon fill="#63b8ff" stroke="#63b8ff" points="188,-60.65 191.5,-70.65 195,-60.65 188,-60.65"/>
</a>
</g>
</g>
<!-- Node4 -->
<g id="Node000004" class="node">
<title>Node4</title>
<g id="a_Node000004"><a xlink:href="main_8c.html" target="_top" xlink:title=": Main program body">
<polygon fill="white" stroke="#666666" points="363.25,-29.38 261.75,-29.38 261.75,-7.12 363.25,-7.12 363.25,-29.38"/>
<text xml:space="preserve" text-anchor="middle" x="312.5" y="-13.97" font-family="Helvetica,sans-Serif" font-size="12.00">Core/Src/main.c</text>
</a>
</g>
</g>
<!-- Node1&#45;&gt;Node4 -->
<g id="edge3_Node000001_Node000004" class="edge">
<title>Node1&#45;&gt;Node4</title>
<g id="a_edge3_Node000001_Node000004"><a xlink:title=" ">
<path fill="none" stroke="#63b8ff" d="M221.66,-66.83C243.82,-55.22 273.3,-39.78 292.58,-29.68"/>
<polygon fill="#63b8ff" stroke="#63b8ff" points="220.33,-63.57 213.09,-71.32 223.58,-69.78 220.33,-63.57"/>
</a>
</g>
</g>
</g>
</svg>
