<?xml version="1.0" encoding="UTF-8" standalone="no"?>
<!DOCTYPE svg PUBLIC "-//W3C//DTD SVG 1.1//EN"
 "http://www.w3.org/Graphics/SVG/1.1/DTD/svg11.dtd">
<!-- Generated by graphviz version 15.1.0 (20260618.0150)
 -->
<!-- Title: Application/control/filter.c Pages: 1 -->
<svg width="148pt" height="161pt"
 viewBox="0.00 0.00 148.00 161.00" xmlns="http://www.w3.org/2000/svg" xmlns:xlink="http://www.w3.org/1999/xlink">
<g id="graph0" class="graph" transform="scale(1 1) rotate(0) translate(4 157)">
<title>Application/control/filter.c</title>
<!-- Node1 -->
<g id="Node000001" class="node">
<title>Node1</title>
<g id="a_Node000001"><a xlink:title="滤波与状态估计模块（一阶低通滤波器、PLL 速度估计器）">
<polygon fill="#999999" stroke="#666666" points="120.25,-153 5.25,-153 5.25,-116.5 120.25,-116.5 120.25,-153"/>
<text xml:space="preserve" text-anchor="start" x="13.25" y="-137.6" font-family="Helvetica,sans-Serif" font-size="12.00">Application/control</text>
<text xml:space="preserve" text-anchor="middle" x="62.75" y="-123.35" font-family="Helvetica,sans-Serif" font-size="12.00">/filter.c</text>
</a>
</g>
</g>
<!-- Node2 -->
<g id="Node000002" class="node">
<title>Node2</title>
<g id="a_Node000002"><a xlink:href="filter_8h.html" target="_top" xlink:title="滤波与状态估计模块头文件（一阶低通滤波器、PLL 速度估计器）">
<polygon fill="white" stroke="#666666" points="47.5,-80.5 0,-80.5 0,-58.25 47.5,-58.25 47.5,-80.5"/>
<text xml:space="preserve" text-anchor="middle" x="23.75" y="-65.1" font-family="Helvetica,sans-Serif" font-size="12.00">filter.h</text>
</a>
</g>
</g>
<!-- Node1&#45;&gt;Node2 -->
<g id="edge1_Node000001_Node000002" class="edge">
<title>Node1&#45;&gt;Node2</title>
<g id="a_edge1_Node000001_Node000002"><a xlink:title=" ">
<path fill="none" stroke="#63b8ff" d="M51.89,-116.1C47.01,-108.16 41.22,-98.76 36.17,-90.55"/>
<polygon fill="#63b8ff" stroke="#63b8ff" points="39.3,-88.96 31.08,-82.28 33.34,-92.63 39.3,-88.96"/>
</a>
</g>
</g>
<!-- Node4 -->
<g id="Node000004" class="node">
<title>Node4</title>
<g id="a_Node000004"><a xlink:href="foc__math_8h.html" target="_top" xlink:title="FOC 数学基础模块头文件（快速三角函数、坐标变换、角度工具）">
<polygon fill="white" stroke="#666666" points="140,-80.5 65.5,-80.5 65.5,-58.25 140,-58.25 140,-80.5"/>
<text xml:space="preserve" text-anchor="middle" x="102.75" y="-65.1" font-family="Helvetica,sans-Serif" font-size="12.00">foc_math.h</text>
</a>
</g>
</g>
<!-- Node1&#45;&gt;Node4 -->
<g id="edge3_Node000001_Node000004" class="edge">
<title>Node1&#45;&gt;Node4</title>
<g id="a_edge3_Node000001_Node000004"><a xlink:title=" ">
<path fill="none" stroke="#63b8ff" d="M73.89,-116.1C78.9,-108.16 84.83,-98.76 90.01,-90.55"/>
<polygon fill="#63b8ff" stroke="#63b8ff" points="92.86,-92.6 95.24,-82.27 86.94,-88.86 92.86,-92.6"/>
</a>
</g>
</g>
<!-- Node3 -->
<g id="Node000003" class="node">
<title>Node3</title>
<g id="a_Node000003"><a xlink:title=" ">
<polygon fill="#e0e0e0" stroke="#999999" points="89.88,-22.25 35.62,-22.25 35.62,0 89.88,0 89.88,-22.25"/>
<text xml:space="preserve" text-anchor="middle" x="62.75" y="-6.85" font-family="Helvetica,sans-Serif" font-size="12.00">stdint.h</text>
</a>
</g>
</g>
<!-- Node2&#45;&gt;Node3 -->
<g id="edge2_Node000002_Node000003" class="edge">
<title>Node2&#45;&gt;Node3</title>
<g id="a_edge2_Node000002_Node000003"><a xlink:title=" ">
<path fill="none" stroke="#63b8ff" d="M31.09,-57.79C36.1,-50.57 42.89,-40.76 48.9,-32.09"/>
<polygon fill="#63b8ff" stroke="#63b8ff" points="51.76,-34.11 54.58,-23.9 46.01,-30.13 51.76,-34.11"/>
</a>
</g>
</g>
<!-- Node4&#45;&gt;Node3 -->
<g id="edge4_Node000004_Node000003" class="edge">
<title>Node4&#45;&gt;Node3</title>
<g id="a_edge4_Node000004_Node000003"><a xlink:title=" ">
<path fill="none" stroke="#63b8ff" d="M95.23,-57.79C90.03,-50.49 82.96,-40.55 76.75,-31.81"/>
<polygon fill="#63b8ff" stroke="#63b8ff" points="79.76,-30.01 71.12,-23.89 74.06,-34.07 79.76,-30.01"/>
</a>
</g>
</g>
</g>
</svg>
