<?xml version="1.0" encoding="UTF-8" standalone="no"?>
<!DOCTYPE svg PUBLIC "-//W3C//DTD SVG 1.1//EN"
 "http://www.w3.org/Graphics/SVG/1.1/DTD/svg11.dtd">
<!-- Generated by graphviz version 15.1.0 (20260618.0150)
 -->
<!-- Title: Application/control/foc_math.h Pages: 1 -->
<svg width="961pt" height="262pt"
 viewBox="0.00 0.00 961.00 262.00" xmlns="http://www.w3.org/2000/svg" xmlns:xlink="http://www.w3.org/1999/xlink">
<g id="graph0" class="graph" transform="scale(1 1) rotate(0) translate(4 258)">
<title>Application/control/foc_math.h</title>
<!-- Node1 -->
<g id="Node000001" class="node">
<title>Node1</title>
<g id="a_Node000001"><a xlink:title="FOC 数学基础模块头文件（快速三角函数、坐标变换、角度工具）">
<polygon fill="#999999" stroke="#666666" points="526,-254 411,-254 411,-217.5 526,-217.5 526,-254"/>
<text xml:space="preserve" text-anchor="start" x="419" y="-238.6" font-family="Helvetica,sans-Serif" font-size="12.00">Application/control</text>
<text xml:space="preserve" text-anchor="middle" x="468.5" y="-224.35" font-family="Helvetica,sans-Serif" font-size="12.00">/foc_math.h</text>
</a>
</g>
</g>
<!-- Node2 -->
<g id="Node000002" class="node">
<title>Node2</title>
<g id="a_Node000002"><a xlink:href="filter_8c.html" target="_top" xlink:title="滤波与状态估计模块（一阶低通滤波器、PLL 速度估计器）">
<polygon fill="white" stroke="#666666" points="393,-181.5 278,-181.5 278,-145 393,-145 393,-181.5"/>
<text xml:space="preserve" text-anchor="start" x="286" y="-166.1" font-family="Helvetica,sans-Serif" font-size="12.00">Application/control</text>
<text xml:space="preserve" text-anchor="middle" x="335.5" y="-151.85" font-family="Helvetica,sans-Serif" font-size="12.00">/filter.c</text>
</a>
</g>
</g>
<!-- Node1&#45;&gt;Node2 -->
<g id="edge1_Node000001_Node000002" class="edge">
<title>Node1&#45;&gt;Node2</title>
<g id="a_edge1_Node000001_Node000002"><a xlink:title=" ">
<path fill="none" stroke="#63b8ff" d="M425.14,-211.77C406.82,-202.05 385.82,-190.92 368.76,-181.88"/>
<polygon fill="#63b8ff" stroke="#63b8ff" points="423.47,-214.84 433.94,-216.43 426.75,-208.66 423.47,-214.84"/>
</a>
</g>
</g>
<!-- Node3 -->
<g id="Node000003" class="node">
<title>Node3</title>
<g id="a_Node000003"><a xlink:href="foc_8h.html" target="_top" xlink:title="FOC 电流环模块头文件">
<polygon fill="white" stroke="#666666" points="526,-181.5 411,-181.5 411,-145 526,-145 526,-181.5"/>
<text xml:space="preserve" text-anchor="start" x="419" y="-166.1" font-family="Helvetica,sans-Serif" font-size="12.00">Application/control</text>
<text xml:space="preserve" text-anchor="middle" x="468.5" y="-151.85" font-family="Helvetica,sans-Serif" font-size="12.00">/foc.h</text>
</a>
</g>
</g>
<!-- Node1&#45;&gt;Node3 -->
<g id="edge2_Node000001_Node000003" class="edge">
<title>Node1&#45;&gt;Node3</title>
<g id="a_edge2_Node000001_Node000003"><a xlink:title=" ">
<path fill="none" stroke="#63b8ff" d="M468.5,-205.97C468.5,-197.84 468.5,-189.23 468.5,-181.97"/>
<polygon fill="#63b8ff" stroke="#63b8ff" points="465,-205.81 468.5,-215.81 472,-205.81 465,-205.81"/>
</a>
</g>
</g>
<!-- Node14 -->
<g id="Node000014" class="node">
<title>Node14</title>
<g id="a_Node000014"><a xlink:href="foc__math_8c.html" target="_top" xlink:title="FOC 数学基础模块（快速三角函数、坐标变换、SVPWM）">
<polygon fill="white" stroke="#666666" points="659,-181.5 544,-181.5 544,-145 659,-145 659,-181.5"/>
<text xml:space="preserve" text-anchor="start" x="552" y="-166.1" font-family="Helvetica,sans-Serif" font-size="12.00">Application/control</text>
<text xml:space="preserve" text-anchor="middle" x="601.5" y="-151.85" font-family="Helvetica,sans-Serif" font-size="12.00">/foc_math.c</text>
</a>
</g>
</g>
<!-- Node1&#45;&gt;Node14 -->
<g id="edge15_Node000001_Node000014" class="edge">
<title>Node1&#45;&gt;Node14</title>
<g id="a_edge15_Node000001_Node000014"><a xlink:title=" ">
<path fill="none" stroke="#63b8ff" d="M511.86,-211.77C530.18,-202.05 551.18,-190.92 568.24,-181.88"/>
<polygon fill="#63b8ff" stroke="#63b8ff" points="510.25,-208.66 503.06,-216.43 513.53,-214.84 510.25,-208.66"/>
</a>
</g>
</g>
<!-- Node4 -->
<g id="Node000004" class="node">
<title>Node4</title>
<g id="a_Node000004"><a xlink:href="calibration_8h.html" target="_top" xlink:title="预定位校准模块头文件（编码器方向/极对数/电角度偏置）">
<polygon fill="white" stroke="#666666" points="317,-109 202,-109 202,-72.5 317,-72.5 317,-109"/>
<text xml:space="preserve" text-anchor="start" x="210" y="-93.6" font-family="Helvetica,sans-Serif" font-size="12.00">Application/control</text>
<text xml:space="preserve" text-anchor="middle" x="259.5" y="-79.35" font-family="Helvetica,sans-Serif" font-size="12.00">/calibration.h</text>
</a>
</g>
</g>
<!-- Node3&#45;&gt;Node4 -->
<g id="edge3_Node000003_Node000004" class="edge">
<title>Node3&#45;&gt;Node4</title>
<g id="a_edge3_Node000003_Node000004"><a xlink:title=" ">
<path fill="none" stroke="#63b8ff" d="M405.31,-140.93C375.49,-130.87 340.32,-119.01 311.99,-109.46"/>
<polygon fill="#63b8ff" stroke="#63b8ff" points="404,-144.19 414.6,-144.07 406.24,-137.55 404,-144.19"/>
</a>
</g>
</g>
<!-- Node8 -->
<g id="Node000008" class="node">
<title>Node8</title>
<g id="a_Node000008"><a xlink:href="foc_8c.html" target="_top" xlink:title="FOC 电流环模块">
<polygon fill="white" stroke="#666666" points="659,-109 544,-109 544,-72.5 659,-72.5 659,-109"/>
<text xml:space="preserve" text-anchor="start" x="552" y="-93.6" font-family="Helvetica,sans-Serif" font-size="12.00">Application/control</text>
<text xml:space="preserve" text-anchor="middle" x="601.5" y="-79.35" font-family="Helvetica,sans-Serif" font-size="12.00">/foc.c</text>
</a>
</g>
</g>
<!-- Node3&#45;&gt;Node8 -->
<g id="edge7_Node000003_Node000008" class="edge">
<title>Node3&#45;&gt;Node8</title>
<g id="a_edge7_Node000003_Node000008"><a xlink:title=" ">
<path fill="none" stroke="#63b8ff" d="M511.86,-139.27C530.18,-129.55 551.18,-118.42 568.24,-109.38"/>
<polygon fill="#63b8ff" stroke="#63b8ff" points="510.25,-136.16 503.06,-143.93 513.53,-142.34 510.25,-136.16"/>
</a>
</g>
</g>
<!-- Node9 -->
<g id="Node000009" class="node">
<title>Node9</title>
<g id="a_Node000009"><a xlink:href="motor__ctrl_8h.html" target="_top" xlink:title="电机控制核心模块头文件（模式状态机 + FOC 主循环）">
<polygon fill="white" stroke="#666666" points="526,-109 411,-109 411,-72.5 526,-72.5 526,-109"/>
<text xml:space="preserve" text-anchor="start" x="419" y="-93.6" font-family="Helvetica,sans-Serif" font-size="12.00">Application/control</text>
<text xml:space="preserve" text-anchor="middle" x="468.5" y="-79.35" font-family="Helvetica,sans-Serif" font-size="12.00">/motor_ctrl.h</text>
</a>
</g>
</g>
<!-- Node3&#45;&gt;Node9 -->
<g id="edge8_Node000003_Node000009" class="edge">
<title>Node3&#45;&gt;Node9</title>
<g id="a_edge8_Node000003_Node000009"><a xlink:title=" ">
<path fill="none" stroke="#63b8ff" d="M468.5,-133.47C468.5,-125.34 468.5,-116.73 468.5,-109.47"/>
<polygon fill="#63b8ff" stroke="#63b8ff" points="465,-133.31 468.5,-143.31 472,-133.31 465,-133.31"/>
</a>
</g>
</g>
<!-- Node5 -->
<g id="Node000005" class="node">
<title>Node5</title>
<g id="a_Node000005"><a xlink:href="app__monitor_8c.html" target="_top" xlink:title="调试数据打印模块">
<polygon fill="white" stroke="#666666" points="388.75,-36.5 266.25,-36.5 266.25,0 388.75,0 388.75,-36.5"/>
<text xml:space="preserve" text-anchor="start" x="274.25" y="-21.1" font-family="Helvetica,sans-Serif" font-size="12.00">Application/app/app</text>
<text xml:space="preserve" text-anchor="middle" x="327.5" y="-6.85" font-family="Helvetica,sans-Serif" font-size="12.00">_monitor.c</text>
</a>
</g>
</g>
<!-- Node4&#45;&gt;Node5 -->
<g id="edge4_Node000004_Node000005" class="edge">
<title>Node4&#45;&gt;Node5</title>
<g id="a_edge4_Node000004_Node000005"><a xlink:title=" ">
<path fill="none" stroke="#63b8ff" d="M284.28,-64.06C292.96,-55.06 302.5,-45.16 310.41,-36.97"/>
<polygon fill="#63b8ff" stroke="#63b8ff" points="281.78,-61.61 277.36,-71.23 286.82,-66.47 281.78,-61.61"/>
</a>
</g>
</g>
<!-- Node6 -->
<g id="Node000006" class="node">
<title>Node6</title>
<g id="a_Node000006"><a xlink:href="calibration_8c.html" target="_top" xlink:title="预定位校准模块（编码器方向/极对数/电角度偏置）">
<polygon fill="white" stroke="#666666" points="115,-36.5 0,-36.5 0,0 115,0 115,-36.5"/>
<text xml:space="preserve" text-anchor="start" x="8" y="-21.1" font-family="Helvetica,sans-Serif" font-size="12.00">Application/control</text>
<text xml:space="preserve" text-anchor="middle" x="57.5" y="-6.85" font-family="Helvetica,sans-Serif" font-size="12.00">/calibration.c</text>
</a>
</g>
</g>
<!-- Node4&#45;&gt;Node6 -->
<g id="edge5_Node000004_Node000006" class="edge">
<title>Node4&#45;&gt;Node6</title>
<g id="a_edge5_Node000004_Node000006"><a xlink:title=" ">
<path fill="none" stroke="#63b8ff" d="M198.05,-68.3C169.3,-58.27 135.49,-46.47 108.23,-36.96"/>
<polygon fill="#63b8ff" stroke="#63b8ff" points="196.76,-71.56 207.36,-71.55 199.07,-64.95 196.76,-71.56"/>
</a>
</g>
</g>
<!-- Node7 -->
<g id="Node000007" class="node">
<title>Node7</title>
<g id="a_Node000007"><a xlink:href="motor__ctrl_8c.html" target="_top" xlink:title="电机控制核心模块（模式状态机 + 20kHz FOC 主循环）">
<polygon fill="white" stroke="#666666" points="248,-36.5 133,-36.5 133,0 248,0 248,-36.5"/>
<text xml:space="preserve" text-anchor="start" x="141" y="-21.1" font-family="Helvetica,sans-Serif" font-size="12.00">Application/control</text>
<text xml:space="preserve" text-anchor="middle" x="190.5" y="-6.85" font-family="Helvetica,sans-Serif" font-size="12.00">/motor_ctrl.c</text>
</a>
</g>
</g>
<!-- Node4&#45;&gt;Node7 -->
<g id="edge6_Node000004_Node000007" class="edge">
<title>Node4&#45;&gt;Node7</title>
<g id="a_edge6_Node000004_Node000007"><a xlink:title=" ">
<path fill="none" stroke="#63b8ff" d="M234.63,-64.33C225.75,-55.26 215.95,-45.25 207.84,-36.97"/>
<polygon fill="#63b8ff" stroke="#63b8ff" points="231.89,-66.54 241.39,-71.24 236.89,-61.65 231.89,-66.54"/>
</a>
</g>
</g>
<!-- Node9&#45;&gt;Node5 -->
<g id="edge12_Node000009_Node000005" class="edge">
<title>Node9&#45;&gt;Node5</title>
<g id="a_edge12_Node000009_Node000005"><a xlink:title=" ">
<path fill="none" stroke="#63b8ff" d="M423.07,-67.04C403.52,-57.26 381.02,-46.01 362.76,-36.88"/>
<polygon fill="#63b8ff" stroke="#63b8ff" points="421.42,-70.12 431.93,-71.46 424.55,-63.86 421.42,-70.12"/>
</a>
</g>
</g>
<!-- Node9&#45;&gt;Node7 -->
<g id="edge14_Node000009_Node000007" class="edge">
<title>Node9&#45;&gt;Node7</title>
<g id="a_edge14_Node000009_Node000007"><a xlink:title=" ">
<path fill="none" stroke="#63b8ff" d="M399.69,-72.47C358.44,-62.09 304.95,-48.6 257.5,-36.5 254.47,-35.73 251.37,-34.94 248.24,-34.13"/>
<polygon fill="#63b8ff" stroke="#63b8ff" points="398.7,-75.83 409.25,-74.88 400.41,-69.04 398.7,-75.83"/>
</a>
</g>
</g>
<!-- Node10 -->
<g id="Node000010" class="node">
<title>Node10</title>
<g id="a_Node000010"><a xlink:href="app__can__protocol_8c.html" target="_top" xlink:title="CAN 应用协议（MIT 运控协议 + 配置协议）">
<polygon fill="white" stroke="#666666" points="952.75,-36.5 830.25,-36.5 830.25,0 952.75,0 952.75,-36.5"/>
<text xml:space="preserve" text-anchor="start" x="838.25" y="-21.1" font-family="Helvetica,sans-Serif" font-size="12.00">Application/app/app</text>
<text xml:space="preserve" text-anchor="middle" x="891.5" y="-6.85" font-family="Helvetica,sans-Serif" font-size="12.00">_can_protocol.c</text>
</a>
</g>
</g>
<!-- Node9&#45;&gt;Node10 -->
<g id="edge9_Node000009_Node000010" class="edge">
<title>Node9&#45;&gt;Node10</title>
<g id="a_edge9_Node000009_Node000010"><a xlink:title=" ">
<path fill="none" stroke="#63b8ff" d="M537.35,-72.31C662.9,-49.14 698.49,-58.95 820.5,-36.5 823.62,-35.93 826.81,-35.3 830.02,-34.64"/>
<polygon fill="#63b8ff" stroke="#63b8ff" points="536.81,-68.85 527.63,-74.14 538.1,-75.73 536.81,-68.85"/>
</a>
</g>
</g>
<!-- Node11 -->
<g id="Node000011" class="node">
<title>Node11</title>
<g id="a_Node000011"><a xlink:href="app__led_8c.html" target="_top" xlink:title="状态灯语模块（单颗 WS2812，亮度全局可调）">
<polygon fill="white" stroke="#666666" points="529.75,-36.5 407.25,-36.5 407.25,0 529.75,0 529.75,-36.5"/>
<text xml:space="preserve" text-anchor="start" x="415.25" y="-21.1" font-family="Helvetica,sans-Serif" font-size="12.00">Application/app/app</text>
<text xml:space="preserve" text-anchor="middle" x="468.5" y="-6.85" font-family="Helvetica,sans-Serif" font-size="12.00">_led.c</text>
</a>
</g>
</g>
<!-- Node9&#45;&gt;Node11 -->
<g id="edge10_Node000009_Node000011" class="edge">
<title>Node9&#45;&gt;Node11</title>
<g id="a_edge10_Node000009_Node000011"><a xlink:title=" ">
<path fill="none" stroke="#63b8ff" d="M468.5,-60.97C468.5,-52.84 468.5,-44.23 468.5,-36.97"/>
<polygon fill="#63b8ff" stroke="#63b8ff" points="465,-60.81 468.5,-70.81 472,-60.81 465,-60.81"/>
</a>
</g>
</g>
<!-- Node12 -->
<g id="Node000012" class="node">
<title>Node12</title>
<g id="a_Node000012"><a xlink:href="app__main_8c.html" target="_top" xlink:title="应用入口模块（前后台调度）">
<polygon fill="white" stroke="#666666" points="670.75,-36.5 548.25,-36.5 548.25,0 670.75,0 670.75,-36.5"/>
<text xml:space="preserve" text-anchor="start" x="556.25" y="-21.1" font-family="Helvetica,sans-Serif" font-size="12.00">Application/app/app</text>
<text xml:space="preserve" text-anchor="middle" x="609.5" y="-6.85" font-family="Helvetica,sans-Serif" font-size="12.00">_main.c</text>
</a>
</g>
</g>
<!-- Node9&#45;&gt;Node12 -->
<g id="edge11_Node000009_Node000012" class="edge">
<title>Node9&#45;&gt;Node12</title>
<g id="a_edge11_Node000009_Node000012"><a xlink:title=" ">
<path fill="none" stroke="#63b8ff" d="M513.93,-67.04C533.48,-57.26 555.98,-46.01 574.24,-36.88"/>
<polygon fill="#63b8ff" stroke="#63b8ff" points="512.45,-63.86 505.07,-71.46 515.58,-70.12 512.45,-63.86"/>
</a>
</g>
</g>
<!-- Node13 -->
<g id="Node000013" class="node">
<title>Node13</title>
<g id="a_Node000013"><a xlink:href="app__shell_8c.html" target="_top" xlink:title="调试 shell 模块（USART3，行式命令）">
<polygon fill="white" stroke="#666666" points="811.75,-36.5 689.25,-36.5 689.25,0 811.75,0 811.75,-36.5"/>
<text xml:space="preserve" text-anchor="start" x="697.25" y="-21.1" font-family="Helvetica,sans-Serif" font-size="12.00">Application/app/app</text>
<text xml:space="preserve" text-anchor="middle" x="750.5" y="-6.85" font-family="Helvetica,sans-Serif" font-size="12.00">_shell.c</text>
</a>
</g>
</g>
<!-- Node9&#45;&gt;Node13 -->
<g id="edge13_Node000009_Node000013" class="edge">
<title>Node9&#45;&gt;Node13</title>
<g id="a_edge13_Node000009_Node000013"><a xlink:title=" ">
<path fill="none" stroke="#63b8ff" d="M537.27,-72.06C594.19,-57.71 648.44,-44.3 688.83,-34.36"/>
<polygon fill="#63b8ff" stroke="#63b8ff" points="536.54,-68.64 527.7,-74.48 538.25,-75.43 536.54,-68.64"/>
</a>
</g>
</g>
</g>
</svg>
