<?xml version="1.0" encoding="UTF-8" standalone="no"?>
<!DOCTYPE svg PUBLIC "-//W3C//DTD SVG 1.1//EN"
 "http://www.w3.org/Graphics/SVG/1.1/DTD/svg11.dtd">
<!-- Generated by graphviz version 15.1.0 (20260618.0150)
 -->
<!-- Title: FOC_MATH_BuildTable Pages: 1 -->
<svg width="848pt" height="127pt"
 viewBox="0.00 0.00 848.00 127.00" xmlns="http://www.w3.org/2000/svg" xmlns:xlink="http://www.w3.org/1999/xlink">
<g id="graph0" class="graph" transform="scale(1 1) rotate(0) translate(4 123.25)">
<title>FOC_MATH_BuildTable</title>
<!-- Node1 -->
<g id="Node000001" class="node">
<title>Node1</title>
<g id="a_Node000001"><a xlink:title="构建 sin 查找表（仅初始化时执行一次）">
<polygon fill="#999999" stroke="#666666" points="840.25,-61.25 695.25,-61.25 695.25,-39 840.25,-39 840.25,-61.25"/>
<text xml:space="preserve" text-anchor="middle" x="767.75" y="-45.85" font-family="Helvetica,sans-Serif" font-size="12.00">FOC_MATH_BuildTable</text>
</a>
</g>
</g>
<!-- Node2 -->
<g id="Node000002" class="node">
<title>Node2</title>
<g id="a_Node000002"><a xlink:href="foc__math_8c.html#a39d4aea10aec434cb4d2490fafb98632" target="_top" xlink:title="查表+线性插值同时计算 sin/cos">
<polygon fill="white" stroke="#666666" points="659.25,-61.25 571.25,-61.25 571.25,-39 659.25,-39 659.25,-61.25"/>
<text xml:space="preserve" text-anchor="middle" x="615.25" y="-45.85" font-family="Helvetica,sans-Serif" font-size="12.00">FOC_SinCos</text>
</a>
</g>
</g>
<!-- Node1&#45;&gt;Node2 -->
<g id="edge1_Node000001_Node000002" class="edge">
<title>Node1&#45;&gt;Node2</title>
<g id="a_edge1_Node000001_Node000002"><a xlink:title=" ">
<path fill="none" stroke="#63b8ff" d="M683.67,-50.12C675.38,-50.12 667.21,-50.12 659.58,-50.12"/>
<polygon fill="#63b8ff" stroke="#63b8ff" points="683.51,-53.63 693.51,-50.13 683.51,-46.63 683.51,-53.63"/>
</a>
</g>
</g>
<!-- Node3 -->
<g id="Node000003" class="node">
<title>Node3</title>
<g id="a_Node000003"><a xlink:href="calibration_8c.html#a51f1133ceba653e8e1e600c24b54987e" target="_top" xlink:title="校准状态机单步（电流环 ISR 调用，模式 = MC_MODE_CALIB）">
<polygon fill="white" stroke="#666666" points="379.75,-82.25 320.25,-82.25 320.25,-60 379.75,-60 379.75,-82.25"/>
<text xml:space="preserve" text-anchor="middle" x="350" y="-66.85" font-family="Helvetica,sans-Serif" font-size="12.00">CAL_Isr</text>
</a>
</g>
</g>
<!-- Node2&#45;&gt;Node3 -->
<g id="edge2_Node000002_Node000003" class="edge">
<title>Node2&#45;&gt;Node3</title>
<g id="a_edge2_Node000002_Node000003"><a xlink:title=" ">
<path fill="none" stroke="#63b8ff" d="M559.59,-54.49C505.08,-58.83 423.45,-65.35 380.25,-68.79"/>
<polygon fill="#63b8ff" stroke="#63b8ff" points="559.58,-58 569.27,-53.71 559.02,-51.02 559.58,-58"/>
</a>
</g>
</g>
<!-- Node7 -->
<g id="Node000007" class="node">
<title>Node7</title>
<g id="a_Node000007"><a xlink:href="foc_8c.html#ae75f2892abb7689a482d566582276071" target="_top" xlink:title="直接输出 d/q 电压矢量（开环模式 / 校准注入用，不经过电流 PI）">
<polygon fill="white" stroke="#666666" points="412,-42.25 288,-42.25 288,-20 412,-20 412,-42.25"/>
<text xml:space="preserve" text-anchor="middle" x="350" y="-26.85" font-family="Helvetica,sans-Serif" font-size="12.00">FOC_OutputVoltage</text>
</a>
</g>
</g>
<!-- Node2&#45;&gt;Node7 -->
<g id="edge6_Node000002_Node000007" class="edge">
<title>Node2&#45;&gt;Node7</title>
<g id="a_edge6_Node000002_Node000007"><a xlink:title=" ">
<path fill="none" stroke="#63b8ff" d="M559.42,-46.17C516.48,-43.07 456.77,-38.76 412.26,-35.55"/>
<polygon fill="#63b8ff" stroke="#63b8ff" points="559.04,-49.65 569.27,-46.88 559.55,-42.67 559.04,-49.65"/>
</a>
</g>
</g>
<!-- Node8 -->
<g id="Node000008" class="node">
<title>Node8</title>
<g id="a_Node000008"><a xlink:href="foc_8c.html#adeb37d340903f5f803d273080550032d" target="_top" xlink:title="执行一个电流环周期（在 ADC 注入转换完成 ISR 中调用）">
<polygon fill="white" stroke="#666666" points="535.25,-119.25 448,-119.25 448,-97 535.25,-97 535.25,-119.25"/>
<text xml:space="preserve" text-anchor="middle" x="491.62" y="-103.85" font-family="Helvetica,sans-Serif" font-size="12.00">FOC_Update</text>
</a>
</g>
</g>
<!-- Node2&#45;&gt;Node8 -->
<g id="edge8_Node000002_Node000008" class="edge">
<title>Node2&#45;&gt;Node8</title>
<g id="a_edge8_Node000002_Node000008"><a xlink:title=" ">
<path fill="none" stroke="#63b8ff" d="M579.65,-66.63C559.61,-76.18 534.87,-87.98 516.9,-96.55"/>
<polygon fill="#63b8ff" stroke="#63b8ff" points="581.04,-69.84 588.56,-62.37 578.03,-63.52 581.04,-69.84"/>
</a>
</g>
</g>
<!-- Node9 -->
<g id="Node000009" class="node">
<title>Node9</title>
<g id="a_Node000009"><a xlink:href="motor__ctrl_8c.html#a6289107a27126667fef8194dc34ad71f" target="_top" xlink:title="初始化电机控制模块">
<polygon fill="white" stroke="#666666" points="243.38,-22.25 186.12,-22.25 186.12,0 243.38,0 243.38,-22.25"/>
<text xml:space="preserve" text-anchor="middle" x="214.75" y="-6.85" font-family="Helvetica,sans-Serif" font-size="12.00">MC_Init</text>
</a>
</g>
</g>
<!-- Node2&#45;&gt;Node9 -->
<g id="edge11_Node000002_Node000009" class="edge">
<title>Node2&#45;&gt;Node9</title>
<g id="a_edge11_Node000002_Node000009"><a xlink:title=" ">
<path fill="none" stroke="#63b8ff" d="M559.77,-38.98C551.56,-37.33 543.18,-35.67 535.25,-34.12 480.55,-23.48 467.49,-16.26 412,-11.12 352.29,-5.6 281.92,-7.67 243.77,-9.51"/>
<polygon fill="#63b8ff" stroke="#63b8ff" points="558.83,-42.36 569.33,-40.9 560.22,-35.5 558.83,-42.36"/>
</a>
</g>
</g>
<!-- Node4 -->
<g id="Node000004" class="node">
<title>Node4</title>
<g id="a_Node000004"><a xlink:href="motor__ctrl_8c.html#a5c982a7374da291bb0e5d06d26893def" target="_top" xlink:title="FOC 主循环（ADC 注入完成 ISR，20kHz）">
<polygon fill="white" stroke="#666666" points="252,-72.25 177.5,-72.25 177.5,-50 252,-50 252,-72.25"/>
<text xml:space="preserve" text-anchor="middle" x="214.75" y="-56.85" font-family="Helvetica,sans-Serif" font-size="12.00">MC_FocIsr</text>
</a>
</g>
</g>
<!-- Node3&#45;&gt;Node4 -->
<g id="edge3_Node000003_Node000004" class="edge">
<title>Node3&#45;&gt;Node4</title>
<g id="a_edge3_Node000003_Node000004"><a xlink:title=" ">
<path fill="none" stroke="#63b8ff" d="M308.45,-68.08C290.48,-66.73 269.51,-65.16 252.06,-63.85"/>
<polygon fill="#63b8ff" stroke="#63b8ff" points="308.01,-71.56 318.25,-68.82 308.54,-64.58 308.01,-71.56"/>
</a>
</g>
</g>
<!-- Node5 -->
<g id="Node000005" class="node">
<title>Node5</title>
<g id="a_Node000005"><a xlink:href="app__main_8c.html#a4759d3fdff6b33e2c0a0ae151452112f" target="_top" xlink:title="应用初始化（main 的 USER CODE BEGIN 2 调用）">
<polygon fill="white" stroke="#666666" points="141.5,-42.25 78.25,-42.25 78.25,-20 141.5,-20 141.5,-42.25"/>
<text xml:space="preserve" text-anchor="middle" x="109.88" y="-26.85" font-family="Helvetica,sans-Serif" font-size="12.00">APP_Init</text>
</a>
</g>
</g>
<!-- Node4&#45;&gt;Node5 -->
<g id="edge4_Node000004_Node000005" class="edge">
<title>Node4&#45;&gt;Node5</title>
<g id="a_edge4_Node000004_Node000005"><a xlink:title=" ">
<path fill="none" stroke="#63b8ff" d="M166.4,-47.32C158.08,-44.89 149.61,-42.42 141.87,-40.16"/>
<polygon fill="#63b8ff" stroke="#63b8ff" points="165.16,-50.6 175.74,-50.04 167.12,-43.88 165.16,-50.6"/>
</a>
</g>
</g>
<!-- Node6 -->
<g id="Node000006" class="node">
<title>Node6</title>
<g id="a_Node000006"><a xlink:href="main_8c.html#a840291bc02cba5474a4cb46a9b9566fe" target="_top" xlink:title="The application entry point.">
<polygon fill="white" stroke="#666666" points="42.25,-42.25 0,-42.25 0,-20 42.25,-20 42.25,-42.25"/>
<text xml:space="preserve" text-anchor="middle" x="21.12" y="-26.85" font-family="Helvetica,sans-Serif" font-size="12.00">main</text>
</a>
</g>
</g>
<!-- Node5&#45;&gt;Node6 -->
<g id="edge5_Node000005_Node000006" class="edge">
<title>Node5&#45;&gt;Node6</title>
<g id="a_edge5_Node000005_Node000006"><a xlink:title=" ">
<path fill="none" stroke="#63b8ff" d="M66.72,-31.12C58.3,-31.12 49.82,-31.12 42.54,-31.12"/>
<polygon fill="#63b8ff" stroke="#63b8ff" points="66.53,-34.63 76.53,-31.13 66.53,-27.63 66.53,-34.63"/>
</a>
</g>
</g>
<!-- Node7&#45;&gt;Node4 -->
<g id="edge7_Node000007_Node000004" class="edge">
<title>Node7&#45;&gt;Node4</title>
<g id="a_edge7_Node000007_Node000004"><a xlink:title=" ">
<path fill="none" stroke="#63b8ff" d="M286.38,-45.22C274.69,-47.86 262.84,-50.52 252.27,-52.9"/>
<polygon fill="#63b8ff" stroke="#63b8ff" points="287.02,-48.67 296.01,-43.06 285.48,-41.84 287.02,-48.67"/>
</a>
</g>
</g>
<!-- Node8&#45;&gt;Node3 -->
<g id="edge9_Node000008_Node000003" class="edge">
<title>Node8&#45;&gt;Node3</title>
<g id="a_edge9_Node000008_Node000003"><a xlink:title=" ">
<path fill="none" stroke="#63b8ff" d="M436.5,-93.78C417.25,-88.68 396.31,-83.13 379.98,-78.8"/>
<polygon fill="#63b8ff" stroke="#63b8ff" points="435.57,-97.16 446.13,-96.33 437.36,-90.39 435.57,-97.16"/>
</a>
</g>
</g>
<!-- Node8&#45;&gt;Node4 -->
<g id="edge10_Node000008_Node000004" class="edge">
<title>Node8&#45;&gt;Node4</title>
<g id="a_edge10_Node000008_Node000004"><a xlink:title=" ">
<path fill="none" stroke="#63b8ff" d="M436.28,-108.1C395.06,-107 337.28,-103.11 288,-91.12 270.84,-86.95 252.48,-79.28 238.56,-72.74"/>
<polygon fill="#63b8ff" stroke="#63b8ff" points="436.12,-111.6 446.2,-108.32 436.27,-104.6 436.12,-111.6"/>
</a>
</g>
</g>
<!-- Node9&#45;&gt;Node5 -->
<g id="edge12_Node000009_Node000005" class="edge">
<title>Node9&#45;&gt;Node5</title>
<g id="a_edge12_Node000009_Node000005"><a xlink:title=" ">
<path fill="none" stroke="#63b8ff" d="M174.35,-18.79C163.58,-20.88 152.07,-23.12 141.85,-25.1"/>
<polygon fill="#63b8ff" stroke="#63b8ff" points="175,-22.22 184.15,-16.88 173.67,-15.35 175,-22.22"/>
</a>
</g>
</g>
</g>
</svg>
