<?xml version="1.0" encoding="UTF-8" standalone="no"?>
<!DOCTYPE svg PUBLIC "-//W3C//DTD SVG 1.1//EN"
 "http://www.w3.org/Graphics/SVG/1.1/DTD/svg11.dtd">
<!-- Generated by graphviz version 15.1.0 (20260618.0150)
 -->
<!-- Title: Application/control/foc.c Pages: 1 -->
<svg width="142pt" height="219pt"
 viewBox="0.00 0.00 142.00 219.00" xmlns="http://www.w3.org/2000/svg" xmlns:xlink="http://www.w3.org/1999/xlink">

<svg id="main" version="1.1" xmlns="http://www.w3.org/2000/svg" xmlns:xlink="http://www.w3.org/1999/xlink" xml:space="preserve">

<style type="text/css"><![CDATA[
.node, .edge {opacity: 0.7;}
.node.selected, .edge.selected {opacity: 1;}
.edge:hover path { stroke: red; }
.edge:hover polygon { stroke: red; fill: red; }
]]></style>
<script type="application/ecmascript" xlink:href="svg.min.js"/>
<svg id="graph" class="graph">
<g id="graph0" class="graph" transform="scale(1 1) rotate(0) translate(4 215.25)">
<title>Application/control/foc.c</title>
<!-- Node1 -->
<g id="Node000001" class="node">
<title>Node1</title>
<g id="a_Node000001"><a xlink:title="FOC 电流环模块">
<polygon fill="#999999" stroke="#666666" points="132.75,-211.25 17.75,-211.25 17.75,-174.75 132.75,-174.75 132.75,-211.25"/>
<text xml:space="preserve" text-anchor="start" x="25.75" y="-195.85" font-family="Helvetica,sans-Serif" font-size="12.00">Application/control</text>
<text xml:space="preserve" text-anchor="middle" x="75.25" y="-181.6" font-family="Helvetica,sans-Serif" font-size="12.00">/foc.c</text>
</a>
</g>
</g>
<!-- Node2 -->
<g id="Node000002" class="node">
<title>Node2</title>
<g id="a_Node000002"><a xlink:href="foc_8h.html" target="_top" xlink:title="FOC 电流环模块头文件">
<polygon fill="white" stroke="#666666" points="96,-138.75 54.5,-138.75 54.5,-116.5 96,-116.5 96,-138.75"/>
<text xml:space="preserve" text-anchor="middle" x="75.25" y="-123.35" font-family="Helvetica,sans-Serif" font-size="12.00">foc.h</text>
</a>
</g>
</g>
<!-- Node1&#45;&gt;Node2 -->
<g id="edge1_Node000001_Node000002" class="edge">
<title>Node1&#45;&gt;Node2</title>
<g id="a_edge1_Node000001_Node000002"><a xlink:title=" ">
<path fill="none" stroke="#63b8ff" d="M75.25,-174.35C75.25,-167.03 75.25,-158.47 75.25,-150.74"/>
<polygon fill="#63b8ff" stroke="#63b8ff" points="78.75,-150.76 75.25,-140.76 71.75,-150.76 78.75,-150.76"/>
</a>
</g>
</g>
<!-- Node3 -->
<g id="Node000003" class="node">
<title>Node3</title>
<g id="a_Node000003"><a xlink:href="foc__math_8h.html" target="_top" xlink:title="FOC 数学基础模块头文件（快速三角函数、坐标变换、角度工具）">
<polygon fill="white" stroke="#666666" points="74.5,-80.5 0,-80.5 0,-58.25 74.5,-58.25 74.5,-80.5"/>
<text xml:space="preserve" text-anchor="middle" x="37.25" y="-65.1" font-family="Helvetica,sans-Serif" font-size="12.00">foc_math.h</text>
</a>
</g>
</g>
<!-- Node2&#45;&gt;Node3 -->
<g id="edge2_Node000002_Node000003" class="edge">
<title>Node2&#45;&gt;Node3</title>
<g id="a_edge2_Node000002_Node000003"><a xlink:title=" ">
<path fill="none" stroke="#63b8ff" d="M68.1,-116.04C63.22,-108.82 56.6,-99.01 50.74,-90.34"/>
<polygon fill="#63b8ff" stroke="#63b8ff" points="53.71,-88.49 45.21,-82.16 47.91,-92.41 53.71,-88.49"/>
</a>
</g>
</g>
<!-- Node5 -->
<g id="Node000005" class="node">
<title>Node5</title>
<g id="a_Node000005"><a xlink:href="pid_8h.html" target="_top" xlink:title="位置式抗饱和（clamping anti&#45;windup）PID 控制器模块头文件">
<polygon fill="white" stroke="#666666" points="134.38,-80.5 92.12,-80.5 92.12,-58.25 134.38,-58.25 134.38,-80.5"/>
<text xml:space="preserve" text-anchor="middle" x="113.25" y="-65.1" font-family="Helvetica,sans-Serif" font-size="12.00">pid.h</text>
</a>
</g>
</g>
<!-- Node2&#45;&gt;Node5 -->
<g id="edge4_Node000002_Node000005" class="edge">
<title>Node2&#45;&gt;Node5</title>
<g id="a_edge4_Node000002_Node000005"><a xlink:title=" ">
<path fill="none" stroke="#63b8ff" d="M82.4,-116.04C87.28,-108.82 93.9,-99.01 99.76,-90.34"/>
<polygon fill="#63b8ff" stroke="#63b8ff" points="102.59,-92.41 105.29,-82.16 96.79,-88.49 102.59,-92.41"/>
</a>
</g>
</g>
<!-- Node4 -->
<g id="Node000004" class="node">
<title>Node4</title>
<g id="a_Node000004"><a xlink:title=" ">
<polygon fill="#e0e0e0" stroke="#999999" points="102.38,-22.25 48.12,-22.25 48.12,0 102.38,0 102.38,-22.25"/>
<text xml:space="preserve" text-anchor="middle" x="75.25" y="-6.85" font-family="Helvetica,sans-Serif" font-size="12.00">stdint.h</text>
</a>
</g>
</g>
<!-- Node3&#45;&gt;Node4 -->
<g id="edge3_Node000003_Node000004" class="edge">
<title>Node3&#45;&gt;Node4</title>
<g id="a_edge3_Node000003_Node000004"><a xlink:title=" ">
<path fill="none" stroke="#63b8ff" d="M44.4,-57.79C49.28,-50.57 55.9,-40.76 61.76,-32.09"/>
<polygon fill="#63b8ff" stroke="#63b8ff" points="64.59,-34.16 67.29,-23.91 58.79,-30.24 64.59,-34.16"/>
</a>
</g>
</g>
<!-- Node5&#45;&gt;Node4 -->
<g id="edge5_Node000005_Node000004" class="edge">
<title>Node5&#45;&gt;Node4</title>
<g id="a_edge5_Node000005_Node000004"><a xlink:title=" ">
<path fill="none" stroke="#63b8ff" d="M106.1,-57.79C101.22,-50.57 94.6,-40.76 88.74,-32.09"/>
<polygon fill="#63b8ff" stroke="#63b8ff" points="91.71,-30.24 83.21,-23.91 85.91,-34.16 91.71,-30.24"/>
</a>
</g>
</g>
</g>
</svg>
</svg>

<style type='text/css'>
<![CDATA[
[data-mouse-over-selected='false'] { opacity: 0.7; }
[data-mouse-over-selected='true']  { opacity: 1.0; }
]]>
</style>
<script type="application/ecmascript"><![CDATA[
document.addEventListener('DOMContentLoaded', (event) => {
  highlightEdges();
  highlightAdjacentNodes();
});
]]></script>
</svg>
