<?xml version="1.0" encoding="UTF-8" standalone="no"?>
<!DOCTYPE svg PUBLIC "-//W3C//DTD SVG 1.1//EN"
 "http://www.w3.org/Graphics/SVG/1.1/DTD/svg11.dtd">
<!-- Generated by graphviz version 15.1.0 (20260618.0150)
 -->
<!-- Title: FOC_Reset Pages: 1 -->
<!--zoomable 226 -->

<svg id="main" version="1.1" xmlns="http://www.w3.org/2000/svg" xmlns:xlink="http://www.w3.org/1999/xlink" xml:space="preserve" onload="init(evt)">

<style type="text/css"><![CDATA[
.node, .edge {opacity: 0.7;}
.node.selected, .edge.selected {opacity: 1;}
.edge:hover path { stroke: red; }
.edge:hover polygon { stroke: red; fill: red; }
]]></style>

<defs>
  <circle id="rim" cx="0" cy="0" r="7"/>
  <circle id="rim2" cx="0" cy="0" r="3.5"/>
  <g id="zoomPlus">
    <use xlink:href="#rim" fill="#404040"><set attributeName="fill" to="#808080" begin="zoomplus.mouseover" end="zoomplus.mouseout"/></use>
    <path d="M-4,0h8M0,-4v8" fill="none" stroke="white" stroke-width="1.5" pointer-events="none"/>
  </g>
  <g id="zoomMin">
    <use xlink:href="#rim" fill="#404040"><set attributeName="fill" to="#808080" begin="zoomminus.mouseover" end="zoomminus.mouseout"/></use>
    <path d="M-4,0h8" fill="none" stroke="white" stroke-width="1.5" pointer-events="none"/>
  </g>
  <g id="arrowUp" transform="translate(30 24)">
    <use xlink:href="#rim"/>
    <path pointer-events="none" fill="none" stroke="white" stroke-width="1.5" d="M0,-3.0v7 M-2.5,-0.5L0,-3.0L2.5,-0.5"/>
  </g>
  <g id="arrowRight" transform="rotate(90) translate(36 -43)">
    <use xlink:href="#rim"/>
    <path pointer-events="none" fill="none" stroke="white" stroke-width="1.5" d="M0,-3.0v7 M-2.5,-0.5L0,-3.0L2.5,-0.5"/>
  </g>
  <g id="arrowDown" transform="rotate(180) translate(-30 -48)">
    <use xlink:href="#rim"/>
    <path pointer-events="none" fill="none" stroke="white" stroke-width="1.5" d="M0,-3.0v7 M-2.5,-0.5L0,-3.0L2.5,-0.5"/>
  </g>
  <g id="arrowLeft" transform="rotate(270) translate(-36 17)">
    <use xlink:href="#rim"/>
    <path pointer-events="none" fill="none" stroke="white" stroke-width="1.5" d="M0,-3.0v7 M-2.5,-0.5L0,-3.0L2.5,-0.5"/>
  </g>
  <g id="resetDef">
    <use xlink:href="#rim2" fill="#404040"><set attributeName="fill" to="#808080" begin="reset.mouseover" end="reset.mouseout"/></use>
  </g>
</defs>
<script type="application/ecmascript">
var viewWidth = 1071;
var viewHeight = 226;
var sectionId = 'dynsection-7';
</script>
<script type="application/ecmascript" xlink:href="svg.min.js"/>
<svg id="graph" class="graph">
<g id="viewport">
<title>FOC_Reset</title>
<!-- Node1 -->
<g id="Node000001" class="node">
<title>Node1</title>
<g id="a_Node000001"><a xlink:title="复位电流环状态（封波后重新使能前调用，防止积分残留冲击）">
<polygon fill="#999999" stroke="#666666" points="1063.25,-82.25 983.5,-82.25 983.5,-60 1063.25,-60 1063.25,-82.25"/>
<text xml:space="preserve" text-anchor="middle" x="1023.38" y="-66.85" font-family="Helvetica,sans-Serif" font-size="12.00">FOC_Reset</text>
</a>
</g>
</g>
<!-- Node2 -->
<g id="Node000002" class="node">
<title>Node2</title>
<g id="a_Node000002"><a xlink:href="foc_8c.html#aebd9eaf8fdc1eec2e646d0ed4a4a3d2c" target="_top" xlink:title="初始化 FOC 电流环">
<polygon fill="white" stroke="#666666" points="917.12,-180.25 853.12,-180.25 853.12,-158 917.12,-158 917.12,-180.25"/>
<text xml:space="preserve" text-anchor="middle" x="885.12" y="-164.85" font-family="Helvetica,sans-Serif" font-size="12.00">FOC_Init</text>
</a>
</g>
</g>
<!-- Node1&#45;&gt;Node2 -->
<g id="edge1_Node000001_Node000002" class="edge">
<title>Node1&#45;&gt;Node2</title>
<g id="a_edge1_Node000001_Node000002"><a xlink:title=" ">
<path fill="none" stroke="#63b8ff" d="M997.37,-89.11C969.52,-109.14 925.35,-140.92 901.92,-157.76"/>
<polygon fill="#63b8ff" stroke="#63b8ff" points="999.18,-92.12 1005.25,-83.44 995.09,-86.44 999.18,-92.12"/>
</a>
</g>
</g>
<!-- Node6 -->
<g id="Node000006" class="node">
<title>Node6</title>
<g id="a_Node000006"><a xlink:href="motor__ctrl_8c.html#aceb46c7be868a0b12dffa105e3d0581e" target="_top" xlink:title="封波（ISR 安全）">
<polygon fill="white" stroke="#666666" points="926.5,-102.25 843.75,-102.25 843.75,-80 926.5,-80 926.5,-102.25"/>
<text xml:space="preserve" text-anchor="middle" x="885.12" y="-86.85" font-family="Helvetica,sans-Serif" font-size="12.00">MC_Disable</text>
</a>
</g>
</g>
<!-- Node1&#45;&gt;Node6 -->
<g id="edge5_Node000001_Node000006" class="edge">
<title>Node1&#45;&gt;Node6</title>
<g id="a_edge5_Node000001_Node000006"><a xlink:title=" ">
<path fill="none" stroke="#63b8ff" d="M972.15,-78.5C957.15,-80.7 940.89,-83.09 926.6,-85.18"/>
<polygon fill="#63b8ff" stroke="#63b8ff" points="972.45,-81.99 981.83,-77.08 971.43,-75.07 972.45,-81.99"/>
</a>
</g>
</g>
<!-- Node18 -->
<g id="Node000018" class="node">
<title>Node18</title>
<g id="a_Node000018"><a xlink:href="motor__ctrl_8c.html#a8d1ee75d00d8c0f2d2d78f89d002efec" target="_top" xlink:title="使能功率输出">
<polygon fill="white" stroke="#666666" points="925,-62.25 845.25,-62.25 845.25,-40 925,-40 925,-62.25"/>
<text xml:space="preserve" text-anchor="middle" x="885.12" y="-46.85" font-family="Helvetica,sans-Serif" font-size="12.00">MC_Enable</text>
</a>
</g>
</g>
<!-- Node1&#45;&gt;Node18 -->
<g id="edge25_Node000001_Node000018" class="edge">
<title>Node1&#45;&gt;Node18</title>
<g id="a_edge25_Node000001_Node000018"><a xlink:title=" ">
<path fill="none" stroke="#63b8ff" d="M972.3,-63.77C956.75,-61.49 939.86,-59.01 925.17,-56.86"/>
<polygon fill="#63b8ff" stroke="#63b8ff" points="971.43,-67.18 981.83,-65.17 972.45,-60.26 971.43,-67.18"/>
</a>
</g>
</g>
<!-- Node19 -->
<g id="Node000019" class="node">
<title>Node19</title>
<g id="a_Node000019"><a xlink:href="motor__ctrl_8c.html#afb3414a066c16e68add2218d01f59942" target="_top" xlink:title="启动预定位校准（封波状态下）">
<polygon fill="white" stroke="#666666" points="947.5,-22.25 822.75,-22.25 822.75,0 947.5,0 947.5,-22.25"/>
<text xml:space="preserve" text-anchor="middle" x="885.12" y="-6.85" font-family="Helvetica,sans-Serif" font-size="12.00">MC_StartCalibration</text>
</a>
</g>
</g>
<!-- Node1&#45;&gt;Node19 -->
<g id="edge29_Node000001_Node000019" class="edge">
<title>Node1&#45;&gt;Node19</title>
<g id="a_edge29_Node000001_Node000019"><a xlink:title=" ">
<path fill="none" stroke="#63b8ff" d="M993.35,-54.09C979.71,-46.48 963.06,-37.75 947.5,-31.12 940.39,-28.09 932.65,-25.24 925.14,-22.7"/>
<polygon fill="#63b8ff" stroke="#63b8ff" points="991.39,-57 1001.81,-58.89 994.84,-50.91 991.39,-57"/>
</a>
</g>
</g>
<!-- Node3 -->
<g id="Node000003" class="node">
<title>Node3</title>
<g id="a_Node000003"><a xlink:href="motor__ctrl_8c.html#a6289107a27126667fef8194dc34ad71f" target="_top" xlink:title="初始化电机控制模块">
<polygon fill="white" stroke="#666666" points="572,-218.25 514.75,-218.25 514.75,-196 572,-196 572,-218.25"/>
<text xml:space="preserve" text-anchor="middle" x="543.38" y="-202.85" font-family="Helvetica,sans-Serif" font-size="12.00">MC_Init</text>
</a>
</g>
</g>
<!-- Node2&#45;&gt;Node3 -->
<g id="edge2_Node000002_Node000003" class="edge">
<title>Node2&#45;&gt;Node3</title>
<g id="a_edge2_Node000002_Node000003"><a xlink:title=" ">
<path fill="none" stroke="#63b8ff" d="M841.71,-175.07C824.65,-177.39 804.78,-179.99 786.75,-182.12 709.24,-191.29 617.56,-200.23 572.4,-204.51"/>
<polygon fill="#63b8ff" stroke="#63b8ff" points="842.09,-178.55 851.52,-173.72 841.14,-171.61 842.09,-178.55"/>
</a>
</g>
</g>
<!-- Node4 -->
<g id="Node000004" class="node">
<title>Node4</title>
<g id="a_Node000004"><a xlink:href="app__main_8c.html#a4759d3fdff6b33e2c0a0ae151452112f" target="_top" xlink:title="应用初始化（main 的 USER CODE BEGIN 2 调用）">
<polygon fill="white" stroke="#666666" points="277.5,-140.25 214.25,-140.25 214.25,-118 277.5,-118 277.5,-140.25"/>
<text xml:space="preserve" text-anchor="middle" x="245.88" y="-124.85" font-family="Helvetica,sans-Serif" font-size="12.00">APP_Init</text>
</a>
</g>
</g>
<!-- Node3&#45;&gt;Node4 -->
<g id="edge3_Node000003_Node000004" class="edge">
<title>Node3&#45;&gt;Node4</title>
<g id="a_edge3_Node000003_Node000004"><a xlink:title=" ">
<path fill="none" stroke="#63b8ff" d="M503.2,-208.87C461.38,-209.5 393.75,-206.96 339,-188.12 308.11,-177.5 277.14,-154.52 260.14,-140.58"/>
<polygon fill="#63b8ff" stroke="#63b8ff" points="503.11,-212.37 513.02,-208.64 502.95,-205.37 503.11,-212.37"/>
</a>
</g>
</g>
<!-- Node5 -->
<g id="Node000005" class="node">
<title>Node5</title>
<g id="a_Node000005"><a xlink:href="main_8c.html#a840291bc02cba5474a4cb46a9b9566fe" target="_top" xlink:title="The application entry point.">
<polygon fill="white" stroke="#666666" points="42.25,-100.25 0,-100.25 0,-78 42.25,-78 42.25,-100.25"/>
<text xml:space="preserve" text-anchor="middle" x="21.12" y="-84.85" font-family="Helvetica,sans-Serif" font-size="12.00">main</text>
</a>
</g>
</g>
<!-- Node4&#45;&gt;Node5 -->
<g id="edge4_Node000004_Node000005" class="edge">
<title>Node4&#45;&gt;Node5</title>
<g id="a_edge4_Node000004_Node000005"><a xlink:title=" ">
<path fill="none" stroke="#63b8ff" d="M202.68,-121.55C154.83,-112.95 78.76,-99.3 42.56,-92.8"/>
<polygon fill="#63b8ff" stroke="#63b8ff" points="201.95,-124.97 212.41,-123.3 203.19,-118.08 201.95,-124.97"/>
</a>
</g>
</g>
<!-- Node7 -->
<g id="Node000007" class="node">
<title>Node7</title>
<g id="a_Node000007"><a xlink:href="app__can__protocol_8c.html#a962b5bb63f0dca9cd0efbd25455d6002" target="_top" xlink:title="配置通道处理">
<polygon fill="white" stroke="#666666" points="786.75,-62.25 648.5,-62.25 648.5,-40 786.75,-40 786.75,-62.25"/>
<text xml:space="preserve" text-anchor="middle" x="717.62" y="-46.85" font-family="Helvetica,sans-Serif" font-size="12.00">APP_CAN_HandleCfg</text>
</a>
</g>
</g>
<!-- Node6&#45;&gt;Node7 -->
<g id="edge6_Node000006_Node000007" class="edge">
<title>Node6&#45;&gt;Node7</title>
<g id="a_edge6_Node000006_Node000007"><a xlink:title=" ">
<path fill="none" stroke="#63b8ff" d="M832.63,-78.68C811.56,-73.59 787.33,-67.73 766.63,-62.73"/>
<polygon fill="#63b8ff" stroke="#63b8ff" points="831.63,-82.04 842.17,-80.98 833.27,-75.23 831.63,-82.04"/>
</a>
</g>
</g>
<!-- Node12 -->
<g id="Node000012" class="node">
<title>Node12</title>
<g id="a_Node000012"><a xlink:href="app__can__protocol_8c.html#a287ab0ebbb13b297320ec4082c51365b" target="_top" xlink:title="MIT 运控通道处理">
<polygon fill="white" stroke="#666666" points="785.25,-102.25 650,-102.25 650,-80 785.25,-80 785.25,-102.25"/>
<text xml:space="preserve" text-anchor="middle" x="717.62" y="-86.85" font-family="Helvetica,sans-Serif" font-size="12.00">APP_CAN_HandleMit</text>
</a>
</g>
</g>
<!-- Node6&#45;&gt;Node12 -->
<g id="edge13_Node000006_Node000012" class="edge">
<title>Node6&#45;&gt;Node12</title>
<g id="a_edge13_Node000006_Node000012"><a xlink:title=" ">
<path fill="none" stroke="#63b8ff" d="M832.14,-91.12C817.34,-91.12 801,-91.12 785.45,-91.12"/>
<polygon fill="#63b8ff" stroke="#63b8ff" points="832.13,-94.63 842.13,-91.13 832.13,-87.63 832.13,-94.63"/>
</a>
</g>
</g>
<!-- Node13 -->
<g id="Node000013" class="node">
<title>Node13</title>
<g id="a_Node000013"><a xlink:href="app__shell_8c.html#ad6303a346f63752b165b847c5dcefbb7" target="_top" xlink:title="解析并执行一行命令">
<polygon fill="white" stroke="#666666" points="786,-22.25 649.25,-22.25 649.25,0 786,0 786,-22.25"/>
<text xml:space="preserve" text-anchor="middle" x="717.62" y="-6.85" font-family="Helvetica,sans-Serif" font-size="12.00">APP_SHELL_Execute</text>
</a>
</g>
</g>
<!-- Node6&#45;&gt;Node13 -->
<g id="edge15_Node000006_Node000013" class="edge">
<title>Node6&#45;&gt;Node13</title>
<g id="a_edge15_Node000006_Node000013"><a xlink:title=" ">
<path fill="none" stroke="#63b8ff" d="M833.09,-76.86C829.48,-75.14 826,-73.24 822.75,-71.12 802.7,-58.09 806.99,-43.87 786.75,-31.12 781.43,-27.78 775.53,-24.97 769.48,-22.62"/>
<polygon fill="#63b8ff" stroke="#63b8ff" points="831.48,-79.98 842.06,-80.62 834.19,-73.53 831.48,-79.98"/>
</a>
</g>
</g>
<!-- Node15 -->
<g id="Node000015" class="node">
<title>Node15</title>
<g id="a_Node000015"><a xlink:href="motor__ctrl_8c.html#a5c982a7374da291bb0e5d06d26893def" target="_top" xlink:title="FOC 主循环（ADC 注入完成 ISR，20kHz）">
<polygon fill="white" stroke="#666666" points="425.88,-179.25 351.38,-179.25 351.38,-157 425.88,-157 425.88,-179.25"/>
<text xml:space="preserve" text-anchor="middle" x="388.62" y="-163.85" font-family="Helvetica,sans-Serif" font-size="12.00">MC_FocIsr</text>
</a>
</g>
</g>
<!-- Node6&#45;&gt;Node15 -->
<g id="edge18_Node000006_Node000015" class="edge">
<title>Node6&#45;&gt;Node15</title>
<g id="a_edge18_Node000006_Node000015"><a xlink:title=" ">
<path fill="none" stroke="#63b8ff" d="M851.73,-107.67C833.18,-116.4 809.2,-126.44 786.75,-132.12 657.06,-164.95 496.87,-168.73 426.13,-168.61"/>
<polygon fill="#63b8ff" stroke="#63b8ff" points="853.12,-110.89 860.61,-103.39 850.08,-104.58 853.12,-110.89"/>
</a>
</g>
</g>
<!-- Node16 -->
<g id="Node000016" class="node">
<title>Node16</title>
<g id="a_Node000016"><a xlink:href="motor__ctrl_8c.html#a0254f4cdae07bdb4781c9df4b540ffe8" target="_top" xlink:title="触发故障：立即封波并锁存（ISR 安全）">
<polygon fill="white" stroke="#666666" points="587.75,-140.25 499,-140.25 499,-118 587.75,-118 587.75,-140.25"/>
<text xml:space="preserve" text-anchor="middle" x="543.38" y="-124.85" font-family="Helvetica,sans-Serif" font-size="12.00">MC_TripFault</text>
</a>
</g>
</g>
<!-- Node6&#45;&gt;Node16 -->
<g id="edge20_Node000006_Node000016" class="edge">
<title>Node6&#45;&gt;Node16</title>
<g id="a_edge20_Node000006_Node000016"><a xlink:title=" ">
<path fill="none" stroke="#63b8ff" d="M832.62,-102.99C817.87,-106.04 801.73,-109.04 786.75,-111.12 717.58,-120.76 636.55,-125.46 587.9,-127.58"/>
<polygon fill="#63b8ff" stroke="#63b8ff" points="833.04,-106.48 842.1,-100.98 831.59,-99.63 833.04,-106.48"/>
</a>
</g>
</g>
<!-- Node8 -->
<g id="Node000008" class="node">
<title>Node8</title>
<g id="a_Node000008"><a xlink:href="app__can__protocol_8c.html#a0c342291cd7188f387f12f9b2157c4e9" target="_top" xlink:title="CAN 接收分发（ISR 上下文）">
<polygon fill="white" stroke="#666666" points="612.5,-62.25 474.25,-62.25 474.25,-40 612.5,-40 612.5,-62.25"/>
<text xml:space="preserve" text-anchor="middle" x="543.38" y="-46.85" font-family="Helvetica,sans-Serif" font-size="12.00">APP_CAN_RxHandler</text>
</a>
</g>
</g>
<!-- Node7&#45;&gt;Node8 -->
<g id="edge7_Node000007_Node000008" class="edge">
<title>Node7&#45;&gt;Node8</title>
<g id="a_edge7_Node000007_Node000008"><a xlink:title=" ">
<path fill="none" stroke="#63b8ff" d="M636.58,-51.12C628.7,-51.12 620.75,-51.12 612.99,-51.12"/>
<polygon fill="#63b8ff" stroke="#63b8ff" points="636.54,-54.63 646.54,-51.13 636.54,-47.63 636.54,-54.63"/>
</a>
</g>
</g>
<!-- Node9 -->
<g id="Node000009" class="node">
<title>Node9</title>
<g id="a_Node000009"><a xlink:href="app__can__protocol_8c.html#af389bd7cff6ae0b5df76c2feb46f25f6" target="_top" xlink:title="初始化 CAN 应用协议（按持久化参数配置 BSP）">
<polygon fill="white" stroke="#666666" points="436.75,-61.25 340.5,-61.25 340.5,-39 436.75,-39 436.75,-61.25"/>
<text xml:space="preserve" text-anchor="middle" x="388.62" y="-45.85" font-family="Helvetica,sans-Serif" font-size="12.00">APP_CAN_Init</text>
</a>
</g>
</g>
<!-- Node8&#45;&gt;Node9 -->
<g id="edge8_Node000008_Node000009" class="edge">
<title>Node8&#45;&gt;Node9</title>
<g id="a_edge8_Node000008_Node000009"><a xlink:title=" ">
<path fill="none" stroke="#63b8ff" d="M462.82,-50.6C453.96,-50.55 445.16,-50.49 436.89,-50.43"/>
<polygon fill="#63b8ff" stroke="#63b8ff" points="462.51,-54.1 472.53,-50.67 462.55,-47.1 462.51,-54.1"/>
</a>
</g>
</g>
<!-- Node9&#45;&gt;Node4 -->
<g id="edge12_Node000009_Node000004" class="edge">
<title>Node9&#45;&gt;Node4</title>
<g id="a_edge12_Node000009_Node000004"><a xlink:title=" ">
<path fill="none" stroke="#63b8ff" d="M346.8,-66.28C344.14,-67.53 341.52,-68.82 339,-70.12 311.2,-84.59 280.97,-104.92 262.98,-117.54"/>
<polygon fill="#63b8ff" stroke="#63b8ff" points="348.06,-69.55 355.77,-62.29 345.21,-63.16 348.06,-69.55"/>
</a>
</g>
</g>
<!-- Node10 -->
<g id="Node000010" class="node">
<title>Node10</title>
<g id="a_Node000010"><a xlink:href="app__can__protocol_8c.html#a6c2f3bebbd2597376fd87038ef059996" target="_top" xlink:title="后台轮询：处理通信参数变更后的重新初始化">
<polygon fill="white" stroke="#666666" points="296.62,-62.25 195.12,-62.25 195.12,-40 296.62,-40 296.62,-62.25"/>
<text xml:space="preserve" text-anchor="middle" x="245.88" y="-46.85" font-family="Helvetica,sans-Serif" font-size="12.00">APP_CAN_Poll</text>
</a>
</g>
</g>
<!-- Node9&#45;&gt;Node10 -->
<g id="edge9_Node000009_Node000010" class="edge">
<title>Node9&#45;&gt;Node10</title>
<g id="a_edge9_Node000009_Node000010"><a xlink:title=" ">
<path fill="none" stroke="#63b8ff" d="M328.92,-50.54C318.19,-50.62 307.1,-50.7 296.66,-50.77"/>
<polygon fill="#63b8ff" stroke="#63b8ff" points="328.88,-54.04 338.85,-50.47 328.83,-47.04 328.88,-54.04"/>
</a>
</g>
</g>
<!-- Node11 -->
<g id="Node000011" class="node">
<title>Node11</title>
<g id="a_Node000011"><a xlink:href="app__main_8c.html#a6709d26bb67f905916b7c7f048b8396c" target="_top" xlink:title="后台超级循环体（main 的 while(1) 内调用）">
<polygon fill="white" stroke="#666666" points="152.75,-81.25 78.25,-81.25 78.25,-59 152.75,-59 152.75,-81.25"/>
<text xml:space="preserve" text-anchor="middle" x="115.5" y="-65.85" font-family="Helvetica,sans-Serif" font-size="12.00">APP_Loop</text>
</a>
</g>
</g>
<!-- Node10&#45;&gt;Node11 -->
<g id="edge10_Node000010_Node000011" class="edge">
<title>Node10&#45;&gt;Node11</title>
<g id="a_edge10_Node000010_Node000011"><a xlink:title=" ">
<path fill="none" stroke="#63b8ff" d="M183.62,-60.19C173.16,-61.74 162.6,-63.3 153.05,-64.72"/>
<polygon fill="#63b8ff" stroke="#63b8ff" points="184,-63.67 193.38,-58.75 182.97,-56.75 184,-63.67"/>
</a>
</g>
</g>
<!-- Node11&#45;&gt;Node5 -->
<g id="edge11_Node000011_Node000005" class="edge">
<title>Node11&#45;&gt;Node5</title>
<g id="a_edge11_Node000011_Node000005"><a xlink:title=" ">
<path fill="none" stroke="#63b8ff" d="M66.86,-79.92C58.35,-81.67 49.91,-83.41 42.69,-84.9"/>
<polygon fill="#63b8ff" stroke="#63b8ff" points="67.42,-83.38 76.51,-77.94 66.01,-76.53 67.42,-83.38"/>
</a>
</g>
</g>
<!-- Node12&#45;&gt;Node8 -->
<g id="edge14_Node000012_Node000008" class="edge">
<title>Node12&#45;&gt;Node8</title>
<g id="a_edge14_Node000012_Node000008"><a xlink:title=" ">
<path fill="none" stroke="#63b8ff" d="M655.87,-77.02C635.75,-72.34 613.6,-67.2 594.38,-62.74"/>
<polygon fill="#63b8ff" stroke="#63b8ff" points="654.8,-80.36 665.33,-79.21 656.38,-73.54 654.8,-80.36"/>
</a>
</g>
</g>
<!-- Node14 -->
<g id="Node000014" class="node">
<title>Node14</title>
<g id="a_Node000014"><a xlink:href="app__shell_8c.html#ab93a15148be82ad3c0999b099de7c29e" target="_top" xlink:title="shell 轮询（后台调用）">
<polygon fill="white" stroke="#666666" points="303,-22.25 188.75,-22.25 188.75,0 303,0 303,-22.25"/>
<text xml:space="preserve" text-anchor="middle" x="245.88" y="-6.85" font-family="Helvetica,sans-Serif" font-size="12.00">APP_SHELL_Poll</text>
</a>
</g>
</g>
<!-- Node13&#45;&gt;Node14 -->
<g id="edge16_Node000013_Node000014" class="edge">
<title>Node13&#45;&gt;Node14</title>
<g id="a_edge16_Node000013_Node000014"><a xlink:title=" ">
<path fill="none" stroke="#63b8ff" d="M637.59,-11.12C542.87,-11.12 386.55,-11.12 303.25,-11.12"/>
<polygon fill="#63b8ff" stroke="#63b8ff" points="637.31,-14.63 647.31,-11.13 637.31,-7.63 637.31,-14.63"/>
</a>
</g>
</g>
<!-- Node14&#45;&gt;Node11 -->
<g id="edge17_Node000014_Node000011" class="edge">
<title>Node14&#45;&gt;Node11</title>
<g id="a_edge17_Node000014_Node000011"><a xlink:title=" ">
<path fill="none" stroke="#63b8ff" d="M199.16,-26.76C195.61,-28.17 192.11,-29.63 188.75,-31.12 170.39,-39.3 150.33,-50.3 136.02,-58.53"/>
<polygon fill="#63b8ff" stroke="#63b8ff" points="200.31,-30.06 208.41,-23.23 197.81,-23.52 200.31,-30.06"/>
</a>
</g>
</g>
<!-- Node15&#45;&gt;Node4 -->
<g id="edge19_Node000015_Node000004" class="edge">
<title>Node15&#45;&gt;Node4</title>
<g id="a_edge19_Node000015_Node000004"><a xlink:title=" ">
<path fill="none" stroke="#63b8ff" d="M339.92,-154.91C319.32,-149.2 295.82,-142.69 277.59,-137.64"/>
<polygon fill="#63b8ff" stroke="#63b8ff" points="338.98,-158.28 349.55,-157.58 340.85,-151.53 338.98,-158.28"/>
</a>
</g>
</g>
<!-- Node16&#45;&gt;Node4 -->
<g id="edge21_Node000016_Node000004" class="edge">
<title>Node16&#45;&gt;Node4</title>
<g id="a_edge21_Node000016_Node000004"><a xlink:title=" ">
<path fill="none" stroke="#63b8ff" d="M487.31,-129.12C425.58,-129.12 327.65,-129.12 277.97,-129.12"/>
<polygon fill="#63b8ff" stroke="#63b8ff" points="487.26,-132.63 497.26,-129.13 487.26,-125.63 487.26,-132.63"/>
</a>
</g>
</g>
<!-- Node16&#45;&gt;Node15 -->
<g id="edge24_Node000016_Node000015" class="edge">
<title>Node16&#45;&gt;Node15</title>
<g id="a_edge24_Node000016_Node000015"><a xlink:title=" ">
<path fill="none" stroke="#63b8ff" d="M487.55,-143.12C467.16,-148.33 444.54,-154.1 426.18,-158.79"/>
<polygon fill="#63b8ff" stroke="#63b8ff" points="488.31,-146.54 497.14,-140.68 486.58,-139.76 488.31,-146.54"/>
</a>
</g>
</g>
<!-- Node17 -->
<g id="Node000017" class="node">
<title>Node17</title>
<g id="a_Node000017"><a xlink:href="app__main_8c.html#a9d7a99f268e16f853238569586d275aa" target="_top" xlink:title="慢任务：温度采样/过温保护/CAN 指令超时">
<polygon fill="white" stroke="#666666" points="438.25,-101.25 339,-101.25 339,-79 438.25,-79 438.25,-101.25"/>
<text xml:space="preserve" text-anchor="middle" x="388.62" y="-85.85" font-family="Helvetica,sans-Serif" font-size="12.00">APP_SlowTask</text>
</a>
</g>
</g>
<!-- Node16&#45;&gt;Node17 -->
<g id="edge22_Node000016_Node000017" class="edge">
<title>Node16&#45;&gt;Node17</title>
<g id="a_edge22_Node000016_Node000017"><a xlink:title=" ">
<path fill="none" stroke="#63b8ff" d="M487.55,-115.13C470.32,-110.73 451.5,-105.92 435,-101.71"/>
<polygon fill="#63b8ff" stroke="#63b8ff" points="486.58,-118.49 497.14,-117.57 488.31,-111.71 486.58,-118.49"/>
</a>
</g>
</g>
<!-- Node17&#45;&gt;Node11 -->
<g id="edge23_Node000017_Node000011" class="edge">
<title>Node17&#45;&gt;Node11</title>
<g id="a_edge23_Node000017_Node000011"><a xlink:title=" ">
<path fill="none" stroke="#63b8ff" d="M327.16,-85.66C273.78,-81.73 197.7,-76.11 153.08,-72.82"/>
<polygon fill="#63b8ff" stroke="#63b8ff" points="326.79,-89.15 337.02,-86.39 327.3,-82.17 326.79,-89.15"/>
</a>
</g>
</g>
<!-- Node18&#45;&gt;Node7 -->
<g id="edge26_Node000018_Node000007" class="edge">
<title>Node18&#45;&gt;Node7</title>
<g id="a_edge26_Node000018_Node000007"><a xlink:title=" ">
<path fill="none" stroke="#63b8ff" d="M833.53,-51.12C818.86,-51.12 802.59,-51.12 787.02,-51.12"/>
<polygon fill="#63b8ff" stroke="#63b8ff" points="833.39,-54.63 843.39,-51.13 833.39,-47.63 833.39,-54.63"/>
</a>
</g>
</g>
<!-- Node18&#45;&gt;Node12 -->
<g id="edge27_Node000018_Node000012" class="edge">
<title>Node18&#45;&gt;Node12</title>
<g id="a_edge27_Node000018_Node000012"><a xlink:title=" ">
<path fill="none" stroke="#63b8ff" d="M833.74,-63.3C812.35,-68.47 787.53,-74.47 766.42,-79.57"/>
<polygon fill="#63b8ff" stroke="#63b8ff" points="834.53,-66.71 843.43,-60.96 832.89,-59.91 834.53,-66.71"/>
</a>
</g>
</g>
<!-- Node18&#45;&gt;Node13 -->
<g id="edge28_Node000018_Node000013" class="edge">
<title>Node18&#45;&gt;Node13</title>
<g id="a_edge28_Node000018_Node000013"><a xlink:title=" ">
<path fill="none" stroke="#63b8ff" d="M833.74,-38.95C812.35,-33.78 787.53,-27.78 766.42,-22.68"/>
<polygon fill="#63b8ff" stroke="#63b8ff" points="832.89,-42.34 843.43,-41.29 834.53,-35.54 832.89,-42.34"/>
</a>
</g>
</g>
<!-- Node19&#45;&gt;Node7 -->
<g id="edge30_Node000019_Node000007" class="edge">
<title>Node19&#45;&gt;Node7</title>
<g id="a_edge30_Node000019_Node000007"><a xlink:title=" ">
<path fill="none" stroke="#63b8ff" d="M825.21,-25.36C806.02,-30 784.97,-35.09 766.67,-39.51"/>
<polygon fill="#63b8ff" stroke="#63b8ff" points="825.89,-28.8 834.78,-23.05 824.24,-22 825.89,-28.8"/>
</a>
</g>
</g>
<!-- Node19&#45;&gt;Node13 -->
<g id="edge31_Node000019_Node000013" class="edge">
<title>Node19&#45;&gt;Node13</title>
<g id="a_edge31_Node000019_Node000013"><a xlink:title=" ">
<path fill="none" stroke="#63b8ff" d="M811.04,-11.12C802.85,-11.12 794.54,-11.12 786.42,-11.12"/>
<polygon fill="#63b8ff" stroke="#63b8ff" points="810.99,-14.63 820.99,-11.13 810.99,-7.63 810.99,-14.63"/>
</a>
</g>
</g>
</g>
</svg>

<g id="navigator" transform="translate(0 0)" fill="#404254">
  <rect fill="#f2f5e9" fill-opacity="0.5" stroke="#606060" stroke-width=".5" x="0" y="0" width="60" height="60"/>
  <use id="zoomplus" xlink:href="#zoomPlus" x="17" y="9" onmousedown="handleZoom(evt,'in')"/>
  <use id="zoomminus" xlink:href="#zoomMin" x="42" y="9" onmousedown="handleZoom(evt,'out')"/>
  <use id="reset" xlink:href="#resetDef" x="30" y="36" onmousedown="handleReset()"/>
   <use id="arrowup" xlink:href="#arrowUp" x="0" y="0" onmousedown="handlePan(0,-1)"/>
  <use id="arrowright" xlink:href="#arrowRight" x="0" y="0" onmousedown="handlePan(1,0)"/>
  <use id="arrowdown" xlink:href="#arrowDown" x="0" y="0" onmousedown="handlePan(0,1)"/>
  <use id="arrowleft" xlink:href="#arrowLeft" x="0" y="0" onmousedown="handlePan(-1,0)"/>
</g>
<svg viewBox="0 0 15 15" width="100%" height="30px" preserveAspectRatio="xMaxYMin meet">
 <g id="arrow_out" transform="scale(0.3 0.3)">
  <a xlink:href="foc_8h_aa25cf599086b4ad815ae5ad72dcfdec4_icgraph_org.svg" target="_base">
   <rect id="button" ry="5" rx="5" y="6" x="6" height="38" width="38"
        fill="#f2f5e9" fill-opacity="0.5" stroke="#606060" stroke-width="1.0"/>
   <path id="arrow"
     d="M 11.500037,31.436501 C 11.940474,20.09759 22.043105,11.32322 32.158766,21.979434 L 37.068811,17.246167 C 37.068811,17.246167 37.088388,32 37.088388,32 L 22.160133,31.978069 C 22.160133,31.978069 26.997745,27.140456 26.997745,27.140456 C 18.528582,18.264221 13.291696,25.230495 11.500037,31.436501 z"
     style="fill:#404040;"/>
  </a>
 </g>
</svg>

<style type='text/css'>
<![CDATA[
[data-mouse-over-selected='false'] { opacity: 0.7; }
[data-mouse-over-selected='true']  { opacity: 1.0; }
]]>
</style>
<script type="application/ecmascript"><![CDATA[
document.addEventListener('DOMContentLoaded', (event) => {
  highlightEdges();
  highlightAdjacentNodes();
});
]]></script>
</svg>
