<?xml version="1.0" encoding="UTF-8" standalone="no"?>
<!DOCTYPE svg PUBLIC "-//W3C//DTD SVG 1.1//EN"
 "http://www.w3.org/Graphics/SVG/1.1/DTD/svg11.dtd">
<!-- Generated by graphviz version 15.1.0 (20260618.0150)
 -->
<!-- Title: FOC_SVPWM Pages: 1 -->
<svg width="673pt" height="108pt"
 viewBox="0.00 0.00 673.00 108.00" xmlns="http://www.w3.org/2000/svg" xmlns:xlink="http://www.w3.org/1999/xlink">
<g id="graph0" class="graph" transform="scale(1 1) rotate(0) translate(4 104.25)">
<title>FOC_SVPWM</title>
<!-- Node1 -->
<g id="Node000001" class="node">
<title>Node1</title>
<g id="a_Node000001"><a xlink:title="SVPWM 调制（注入零序的 min&#45;max 中点平移法）">
<polygon fill="#999999" stroke="#666666" points="665.25,-80.25 571.25,-80.25 571.25,-58 665.25,-58 665.25,-80.25"/>
<text xml:space="preserve" text-anchor="middle" x="618.25" y="-64.85" font-family="Helvetica,sans-Serif" font-size="12.00">FOC_SVPWM</text>
</a>
</g>
</g>
<!-- Node2 -->
<g id="Node000002" class="node">
<title>Node2</title>
<g id="a_Node000002"><a xlink:href="foc_8c.html#ae75f2892abb7689a482d566582276071" target="_top" xlink:title="直接输出 d/q 电压矢量（开环模式 / 校准注入用，不经过电流 PI）">
<polygon fill="white" stroke="#666666" points="412,-100.25 288,-100.25 288,-78 412,-78 412,-100.25"/>
<text xml:space="preserve" text-anchor="middle" x="350" y="-84.85" font-family="Helvetica,sans-Serif" font-size="12.00">FOC_OutputVoltage</text>
</a>
</g>
</g>
<!-- Node1&#45;&gt;Node2 -->
<g id="edge1_Node000001_Node000002" class="edge">
<title>Node1&#45;&gt;Node2</title>
<g id="a_edge1_Node000001_Node000002"><a xlink:title=" ">
<path fill="none" stroke="#63b8ff" d="M559.63,-73.45C516.17,-76.72 456.66,-81.19 412.32,-84.52"/>
<polygon fill="#63b8ff" stroke="#63b8ff" points="559.65,-76.96 569.36,-72.72 559.13,-69.98 559.65,-76.96"/>
</a>
</g>
</g>
<!-- Node6 -->
<g id="Node000006" class="node">
<title>Node6</title>
<g id="a_Node000006"><a xlink:href="foc_8c.html#adeb37d340903f5f803d273080550032d" target="_top" xlink:title="执行一个电流环周期（在 ADC 注入转换完成 ISR 中调用）">
<polygon fill="white" stroke="#666666" points="535.25,-61.25 448,-61.25 448,-39 535.25,-39 535.25,-61.25"/>
<text xml:space="preserve" text-anchor="middle" x="491.62" y="-45.85" font-family="Helvetica,sans-Serif" font-size="12.00">FOC_Update</text>
</a>
</g>
</g>
<!-- Node1&#45;&gt;Node6 -->
<g id="edge5_Node000001_Node000006" class="edge">
<title>Node1&#45;&gt;Node6</title>
<g id="a_edge5_Node000001_Node000006"><a xlink:title=" ">
<path fill="none" stroke="#63b8ff" d="M559.49,-60.32C551.36,-59.08 543.14,-57.83 535.36,-56.64"/>
<polygon fill="#63b8ff" stroke="#63b8ff" points="558.93,-63.77 569.35,-61.82 559.99,-56.85 558.93,-63.77"/>
</a>
</g>
</g>
<!-- Node3 -->
<g id="Node000003" class="node">
<title>Node3</title>
<g id="a_Node000003"><a xlink:href="motor__ctrl_8c.html#a5c982a7374da291bb0e5d06d26893def" target="_top" xlink:title="FOC 主循环（ADC 注入完成 ISR，20kHz）">
<polygon fill="white" stroke="#666666" points="252,-61.25 177.5,-61.25 177.5,-39 252,-39 252,-61.25"/>
<text xml:space="preserve" text-anchor="middle" x="214.75" y="-45.85" font-family="Helvetica,sans-Serif" font-size="12.00">MC_FocIsr</text>
</a>
</g>
</g>
<!-- Node2&#45;&gt;Node3 -->
<g id="edge2_Node000002_Node000003" class="edge">
<title>Node2&#45;&gt;Node3</title>
<g id="a_edge2_Node000002_Node000003"><a xlink:title=" ">
<path fill="none" stroke="#63b8ff" d="M298.46,-74.33C283.09,-69.83 266.51,-64.98 252.26,-60.81"/>
<polygon fill="#63b8ff" stroke="#63b8ff" points="297.35,-77.65 307.93,-77.1 299.31,-70.94 297.35,-77.65"/>
</a>
</g>
</g>
<!-- Node4 -->
<g id="Node000004" class="node">
<title>Node4</title>
<g id="a_Node000004"><a xlink:href="app__main_8c.html#a4759d3fdff6b33e2c0a0ae151452112f" target="_top" xlink:title="应用初始化（main 的 USER CODE BEGIN 2 调用）">
<polygon fill="white" stroke="#666666" points="141.5,-61.25 78.25,-61.25 78.25,-39 141.5,-39 141.5,-61.25"/>
<text xml:space="preserve" text-anchor="middle" x="109.88" y="-45.85" font-family="Helvetica,sans-Serif" font-size="12.00">APP_Init</text>
</a>
</g>
</g>
<!-- Node3&#45;&gt;Node4 -->
<g id="edge3_Node000003_Node000004" class="edge">
<title>Node3&#45;&gt;Node4</title>
<g id="a_edge3_Node000003_Node000004"><a xlink:title=" ">
<path fill="none" stroke="#63b8ff" d="M165.84,-50.12C157.7,-50.12 149.43,-50.12 141.87,-50.12"/>
<polygon fill="#63b8ff" stroke="#63b8ff" points="165.68,-53.63 175.68,-50.13 165.68,-46.63 165.68,-53.63"/>
</a>
</g>
</g>
<!-- Node5 -->
<g id="Node000005" class="node">
<title>Node5</title>
<g id="a_Node000005"><a xlink:href="main_8c.html#a840291bc02cba5474a4cb46a9b9566fe" target="_top" xlink:title="The application entry point.">
<polygon fill="white" stroke="#666666" points="42.25,-61.25 0,-61.25 0,-39 42.25,-39 42.25,-61.25"/>
<text xml:space="preserve" text-anchor="middle" x="21.12" y="-45.85" font-family="Helvetica,sans-Serif" font-size="12.00">main</text>
</a>
</g>
</g>
<!-- Node4&#45;&gt;Node5 -->
<g id="edge4_Node000004_Node000005" class="edge">
<title>Node4&#45;&gt;Node5</title>
<g id="a_edge4_Node000004_Node000005"><a xlink:title=" ">
<path fill="none" stroke="#63b8ff" d="M66.72,-50.12C58.3,-50.12 49.82,-50.12 42.54,-50.12"/>
<polygon fill="#63b8ff" stroke="#63b8ff" points="66.53,-53.63 76.53,-50.13 66.53,-46.63 66.53,-53.63"/>
</a>
</g>
</g>
<!-- Node6&#45;&gt;Node3 -->
<g id="edge8_Node000006_Node000003" class="edge">
<title>Node6&#45;&gt;Node3</title>
<g id="a_edge8_Node000006_Node000003"><a xlink:title=" ">
<path fill="none" stroke="#63b8ff" d="M436.5,-50.12C382,-50.12 299.44,-50.12 252.25,-50.12"/>
<polygon fill="#63b8ff" stroke="#63b8ff" points="436.16,-53.63 446.16,-50.13 436.16,-46.63 436.16,-53.63"/>
</a>
</g>
</g>
<!-- Node7 -->
<g id="Node000007" class="node">
<title>Node7</title>
<g id="a_Node000007"><a xlink:href="calibration_8c.html#a51f1133ceba653e8e1e600c24b54987e" target="_top" xlink:title="校准状态机单步（电流环 ISR 调用，模式 = MC_MODE_CALIB）">
<polygon fill="white" stroke="#666666" points="379.75,-22.25 320.25,-22.25 320.25,0 379.75,0 379.75,-22.25"/>
<text xml:space="preserve" text-anchor="middle" x="350" y="-6.85" font-family="Helvetica,sans-Serif" font-size="12.00">CAL_Isr</text>
</a>
</g>
</g>
<!-- Node6&#45;&gt;Node7 -->
<g id="edge6_Node000006_Node000007" class="edge">
<title>Node6&#45;&gt;Node7</title>
<g id="a_edge6_Node000006_Node000007"><a xlink:title=" ">
<path fill="none" stroke="#63b8ff" d="M438.14,-35.47C418.52,-29.99 396.95,-23.96 380.18,-19.27"/>
<polygon fill="#63b8ff" stroke="#63b8ff" points="437.08,-38.8 447.65,-38.12 438.96,-32.06 437.08,-38.8"/>
</a>
</g>
</g>
<!-- Node7&#45;&gt;Node3 -->
<g id="edge7_Node000007_Node000003" class="edge">
<title>Node7&#45;&gt;Node3</title>
<g id="a_edge7_Node000007_Node000003"><a xlink:title=" ">
<path fill="none" stroke="#63b8ff" d="M308.96,-22.84C290.88,-28.14 269.67,-34.34 252.06,-39.5"/>
<polygon fill="#63b8ff" stroke="#63b8ff" points="309.69,-26.28 318.31,-20.11 307.72,-19.56 309.69,-26.28"/>
</a>
</g>
</g>
</g>
</svg>
