<?xml version="1.0" encoding="UTF-8" standalone="no"?>
<!DOCTYPE svg PUBLIC "-//W3C//DTD SVG 1.1//EN"
 "http://www.w3.org/Graphics/SVG/1.1/DTD/svg11.dtd">
<!-- Generated by graphviz version 15.1.0 (20260618.0150)
 -->
<!-- Title: FOC_Clarke Pages: 1 -->
<svg width="598pt" height="50pt"
 viewBox="0.00 0.00 598.00 50.00" xmlns="http://www.w3.org/2000/svg" xmlns:xlink="http://www.w3.org/1999/xlink">
<g id="graph0" class="graph" transform="scale(1 1) rotate(0) translate(4 46.25)">
<title>FOC_Clarke</title>
<!-- Node1 -->
<g id="Node000001" class="node">
<title>Node1</title>
<g id="a_Node000001"><a xlink:title="Clarke 变换（等幅值变换，3 相 &#45;&gt; alpha/beta）">
<polygon fill="#999999" stroke="#666666" points="590.25,-22.25 506.75,-22.25 506.75,0 590.25,0 590.25,-22.25"/>
<text xml:space="preserve" text-anchor="middle" x="548.5" y="-6.85" font-family="Helvetica,sans-Serif" font-size="12.00">FOC_Clarke</text>
</a>
</g>
</g>
<!-- Node2 -->
<g id="Node000002" class="node">
<title>Node2</title>
<g id="a_Node000002"><a xlink:href="foc_8c.html#adeb37d340903f5f803d273080550032d" target="_top" xlink:title="执行一个电流环周期（在 ADC 注入转换完成 ISR 中调用）">
<polygon fill="white" stroke="#666666" points="470.75,-22.25 383.5,-22.25 383.5,0 470.75,0 470.75,-22.25"/>
<text xml:space="preserve" text-anchor="middle" x="427.12" y="-6.85" font-family="Helvetica,sans-Serif" font-size="12.00">FOC_Update</text>
</a>
</g>
</g>
<!-- Node1&#45;&gt;Node2 -->
<g id="edge1_Node000001_Node000002" class="edge">
<title>Node1&#45;&gt;Node2</title>
<g id="a_edge1_Node000001_Node000002"><a xlink:title=" ">
<path fill="none" stroke="#63b8ff" d="M495.15,-11.12C487.05,-11.12 478.77,-11.12 470.91,-11.12"/>
<polygon fill="#63b8ff" stroke="#63b8ff" points="494.9,-14.63 504.9,-11.13 494.9,-7.63 494.9,-14.63"/>
</a>
</g>
</g>
<!-- Node3 -->
<g id="Node000003" class="node">
<title>Node3</title>
<g id="a_Node000003"><a xlink:href="calibration_8c.html#a51f1133ceba653e8e1e600c24b54987e" target="_top" xlink:title="校准状态机单步（电流环 ISR 调用，模式 = MC_MODE_CALIB）">
<polygon fill="white" stroke="#666666" points="347.5,-42.25 288,-42.25 288,-20 347.5,-20 347.5,-42.25"/>
<text xml:space="preserve" text-anchor="middle" x="317.75" y="-26.85" font-family="Helvetica,sans-Serif" font-size="12.00">CAL_Isr</text>
</a>
</g>
</g>
<!-- Node2&#45;&gt;Node3 -->
<g id="edge2_Node000002_Node000003" class="edge">
<title>Node2&#45;&gt;Node3</title>
<g id="a_edge2_Node000002_Node000003"><a xlink:title=" ">
<path fill="none" stroke="#63b8ff" d="M371.89,-21.23C363.64,-22.76 355.41,-24.3 347.97,-25.68"/>
<polygon fill="#63b8ff" stroke="#63b8ff" points="372.39,-24.69 381.58,-19.42 371.11,-17.81 372.39,-24.69"/>
</a>
</g>
</g>
<!-- Node4 -->
<g id="Node000004" class="node">
<title>Node4</title>
<g id="a_Node000004"><a xlink:href="motor__ctrl_8c.html#a5c982a7374da291bb0e5d06d26893def" target="_top" xlink:title="FOC 主循环（ADC 注入完成 ISR，20kHz）">
<polygon fill="white" stroke="#666666" points="252,-22.25 177.5,-22.25 177.5,0 252,0 252,-22.25"/>
<text xml:space="preserve" text-anchor="middle" x="214.75" y="-6.85" font-family="Helvetica,sans-Serif" font-size="12.00">MC_FocIsr</text>
</a>
</g>
</g>
<!-- Node2&#45;&gt;Node4 -->
<g id="edge6_Node000002_Node000004" class="edge">
<title>Node2&#45;&gt;Node4</title>
<g id="a_edge6_Node000002_Node000004"><a xlink:title=" ">
<path fill="none" stroke="#63b8ff" d="M371.8,-11.12C334.3,-11.12 285.43,-11.12 252.45,-11.12"/>
<polygon fill="#63b8ff" stroke="#63b8ff" points="371.53,-14.63 381.53,-11.13 371.53,-7.63 371.53,-14.63"/>
</a>
</g>
</g>
<!-- Node3&#45;&gt;Node4 -->
<g id="edge3_Node000003_Node000004" class="edge">
<title>Node3&#45;&gt;Node4</title>
<g id="a_edge3_Node000003_Node000004"><a xlink:title=" ">
<path fill="none" stroke="#63b8ff" d="M276.32,-23.12C268.44,-21.56 260.21,-19.93 252.45,-18.39"/>
<polygon fill="#63b8ff" stroke="#63b8ff" points="275.56,-26.54 286.05,-25.05 276.92,-19.67 275.56,-26.54"/>
</a>
</g>
</g>
<!-- Node5 -->
<g id="Node000005" class="node">
<title>Node5</title>
<g id="a_Node000005"><a xlink:href="app__main_8c.html#a4759d3fdff6b33e2c0a0ae151452112f" target="_top" xlink:title="应用初始化（main 的 USER CODE BEGIN 2 调用）">
<polygon fill="white" stroke="#666666" points="141.5,-22.25 78.25,-22.25 78.25,0 141.5,0 141.5,-22.25"/>
<text xml:space="preserve" text-anchor="middle" x="109.88" y="-6.85" font-family="Helvetica,sans-Serif" font-size="12.00">APP_Init</text>
</a>
</g>
</g>
<!-- Node4&#45;&gt;Node5 -->
<g id="edge4_Node000004_Node000005" class="edge">
<title>Node4&#45;&gt;Node5</title>
<g id="a_edge4_Node000004_Node000005"><a xlink:title=" ">
<path fill="none" stroke="#63b8ff" d="M165.84,-11.12C157.7,-11.12 149.43,-11.12 141.87,-11.12"/>
<polygon fill="#63b8ff" stroke="#63b8ff" points="165.68,-14.63 175.68,-11.13 165.68,-7.63 165.68,-14.63"/>
</a>
</g>
</g>
<!-- Node6 -->
<g id="Node000006" class="node">
<title>Node6</title>
<g id="a_Node000006"><a xlink:href="main_8c.html#a840291bc02cba5474a4cb46a9b9566fe" target="_top" xlink:title="The application entry point.">
<polygon fill="white" stroke="#666666" points="42.25,-22.25 0,-22.25 0,0 42.25,0 42.25,-22.25"/>
<text xml:space="preserve" text-anchor="middle" x="21.12" y="-6.85" font-family="Helvetica,sans-Serif" font-size="12.00">main</text>
</a>
</g>
</g>
<!-- Node5&#45;&gt;Node6 -->
<g id="edge5_Node000005_Node000006" class="edge">
<title>Node5&#45;&gt;Node6</title>
<g id="a_edge5_Node000005_Node000006"><a xlink:title=" ">
<path fill="none" stroke="#63b8ff" d="M66.72,-11.12C58.3,-11.12 49.82,-11.12 42.54,-11.12"/>
<polygon fill="#63b8ff" stroke="#63b8ff" points="66.53,-14.63 76.53,-11.13 66.53,-7.63 66.53,-14.63"/>
</a>
</g>
</g>
</g>
</svg>
