<?xml version="1.0" encoding="UTF-8" standalone="no"?>
<!DOCTYPE svg PUBLIC "-//W3C//DTD SVG 1.1//EN"
 "http://www.w3.org/Graphics/SVG/1.1/DTD/svg11.dtd">
<!-- Generated by graphviz version 15.1.0 (20260618.0150)
 -->
<!-- Title: FOC_Init Pages: 1 -->
<svg width="298pt" height="70pt"
 viewBox="0.00 0.00 298.00 70.00" xmlns="http://www.w3.org/2000/svg" xmlns:xlink="http://www.w3.org/1999/xlink">
<g id="graph0" class="graph" transform="scale(1 1) rotate(0) translate(4 66.25)">
<title>FOC_Init</title>
<!-- Node1 -->
<g id="Node000001" class="node">
<title>Node1</title>
<g id="a_Node000001"><a xlink:title="初始化 FOC 电流环">
<polygon fill="#999999" stroke="#666666" points="64,-42.25 0,-42.25 0,-20 64,-20 64,-42.25"/>
<text xml:space="preserve" text-anchor="middle" x="32" y="-26.85" font-family="Helvetica,sans-Serif" font-size="12.00">FOC_Init</text>
</a>
</g>
</g>
<!-- Node2 -->
<g id="Node000002" class="node">
<title>Node2</title>
<g id="a_Node000002"><a xlink:href="foc_8c.html#aa25cf599086b4ad815ae5ad72dcfdec4" target="_top" xlink:title="复位电流环状态（封波后重新使能前调用，防止积分残留冲击）">
<polygon fill="white" stroke="#666666" points="179.75,-62.25 100,-62.25 100,-40 179.75,-40 179.75,-62.25"/>
<text xml:space="preserve" text-anchor="middle" x="139.88" y="-46.85" font-family="Helvetica,sans-Serif" font-size="12.00">FOC_Reset</text>
</a>
</g>
</g>
<!-- Node1&#45;&gt;Node2 -->
<g id="edge1_Node000001_Node000002" class="edge">
<title>Node1&#45;&gt;Node2</title>
<g id="a_edge1_Node000001_Node000002"><a xlink:title=" ">
<path fill="none" stroke="#63b8ff" d="M64.48,-37.07C72.11,-38.51 80.45,-40.09 88.7,-41.65"/>
<polygon fill="#63b8ff" stroke="#63b8ff" points="87.86,-45.05 98.34,-43.47 89.16,-38.17 87.86,-45.05"/>
</a>
</g>
</g>
<!-- Node4 -->
<g id="Node000004" class="node">
<title>Node4</title>
<g id="a_Node000004"><a xlink:href="pid_8c.html#a476429033a7322ee2bd627805ca46816" target="_top" xlink:title="初始化 PID 控制器">
<polygon fill="white" stroke="#666666" points="169.25,-22.25 110.5,-22.25 110.5,0 169.25,0 169.25,-22.25"/>
<text xml:space="preserve" text-anchor="middle" x="139.88" y="-6.85" font-family="Helvetica,sans-Serif" font-size="12.00">PID_Init</text>
</a>
</g>
</g>
<!-- Node1&#45;&gt;Node4 -->
<g id="edge3_Node000001_Node000004" class="edge">
<title>Node1&#45;&gt;Node4</title>
<g id="a_edge3_Node000001_Node000004"><a xlink:title=" ">
<path fill="none" stroke="#63b8ff" d="M64.48,-25.18C75.36,-23.12 87.7,-20.79 99.15,-18.63"/>
<polygon fill="#63b8ff" stroke="#63b8ff" points="99.56,-22.11 108.74,-16.82 98.26,-15.24 99.56,-22.11"/>
</a>
</g>
</g>
<!-- Node3 -->
<g id="Node000003" class="node">
<title>Node3</title>
<g id="a_Node000003"><a xlink:href="pid_8c.html#acb76685b15d3fde29d9bd5548b3268c1" target="_top" xlink:title="复位 PID 内部状态（积分/历史误差/输出）">
<polygon fill="white" stroke="#666666" points="290.25,-42.25 215.75,-42.25 215.75,-20 290.25,-20 290.25,-42.25"/>
<text xml:space="preserve" text-anchor="middle" x="253" y="-26.85" font-family="Helvetica,sans-Serif" font-size="12.00">PID_Reset</text>
</a>
</g>
</g>
<!-- Node2&#45;&gt;Node3 -->
<g id="edge2_Node000002_Node000003" class="edge">
<title>Node2&#45;&gt;Node3</title>
<g id="a_edge2_Node000002_Node000003"><a xlink:title=" ">
<path fill="none" stroke="#63b8ff" d="M180.05,-44.07C187.87,-42.67 196.16,-41.18 204.22,-39.72"/>
<polygon fill="#63b8ff" stroke="#63b8ff" points="204.7,-43.2 213.92,-37.98 203.46,-36.31 204.7,-43.2"/>
</a>
</g>
</g>
<!-- Node4&#45;&gt;Node3 -->
<g id="edge4_Node000004_Node000003" class="edge">
<title>Node4&#45;&gt;Node3</title>
<g id="a_edge4_Node000004_Node000003"><a xlink:title=" ">
<path fill="none" stroke="#63b8ff" d="M169.49,-16.28C180.12,-18.19 192.47,-20.41 204.34,-22.55"/>
<polygon fill="#63b8ff" stroke="#63b8ff" points="203.54,-25.96 214.01,-24.29 204.78,-19.07 203.54,-25.96"/>
</a>
</g>
</g>
</g>
</svg>
