<?xml version="1.0" encoding="UTF-8" standalone="no"?>
<!DOCTYPE svg PUBLIC "-//W3C//DTD SVG 1.1//EN"
 "http://www.w3.org/Graphics/SVG/1.1/DTD/svg11.dtd">
<!-- Generated by graphviz version 15.1.0 (20260618.0150)
 -->
<!-- Title: FOC_OutputVoltage Pages: 1 -->
<svg width="443pt" height="110pt"
 viewBox="0.00 0.00 443.00 110.00" xmlns="http://www.w3.org/2000/svg" xmlns:xlink="http://www.w3.org/1999/xlink">
<g id="graph0" class="graph" transform="scale(1 1) rotate(0) translate(4 106.25)">
<title>FOC_OutputVoltage</title>
<!-- Node1 -->
<g id="Node000001" class="node">
<title>Node1</title>
<g id="a_Node000001"><a xlink:title="直接输出 d/q 电压矢量（开环模式 / 校准注入用，不经过电流 PI）">
<polygon fill="#999999" stroke="#666666" points="124,-62.25 0,-62.25 0,-40 124,-40 124,-62.25"/>
<text xml:space="preserve" text-anchor="middle" x="62" y="-46.85" font-family="Helvetica,sans-Serif" font-size="12.00">FOC_OutputVoltage</text>
</a>
</g>
</g>
<!-- Node2 -->
<g id="Node000002" class="node">
<title>Node2</title>
<g id="a_Node000002"><a xlink:href="foc__math_8c.html#ae7e0a68727625c071145c38236b08cfe" target="_top" xlink:title="Park 反变换（d/q &#45;&gt; alpha/beta）">
<polygon fill="white" stroke="#666666" points="251.38,-102.25 162.62,-102.25 162.62,-80 251.38,-80 251.38,-102.25"/>
<text xml:space="preserve" text-anchor="middle" x="207" y="-86.85" font-family="Helvetica,sans-Serif" font-size="12.00">FOC_InvPark</text>
</a>
</g>
</g>
<!-- Node1&#45;&gt;Node2 -->
<g id="edge1_Node000001_Node000002" class="edge">
<title>Node1&#45;&gt;Node2</title>
<g id="a_edge1_Node000001_Node000002"><a xlink:title=" ">
<path fill="none" stroke="#63b8ff" d="M104.36,-62.69C119.78,-67.01 137.48,-71.96 153.75,-76.51"/>
<polygon fill="#63b8ff" stroke="#63b8ff" points="152.7,-79.85 163.27,-79.17 154.59,-73.11 152.7,-79.85"/>
</a>
</g>
</g>
<!-- Node3 -->
<g id="Node000003" class="node">
<title>Node3</title>
<g id="a_Node000003"><a xlink:href="foc__math_8c.html#a39d4aea10aec434cb4d2490fafb98632" target="_top" xlink:title="查表+线性插值同时计算 sin/cos">
<polygon fill="white" stroke="#666666" points="251,-62.25 163,-62.25 163,-40 251,-40 251,-62.25"/>
<text xml:space="preserve" text-anchor="middle" x="207" y="-46.85" font-family="Helvetica,sans-Serif" font-size="12.00">FOC_SinCos</text>
</a>
</g>
</g>
<!-- Node1&#45;&gt;Node3 -->
<g id="edge2_Node000001_Node000003" class="edge">
<title>Node1&#45;&gt;Node3</title>
<g id="a_edge2_Node000001_Node000003"><a xlink:title=" ">
<path fill="none" stroke="#63b8ff" d="M124.47,-51.12C133.42,-51.12 142.58,-51.12 151.38,-51.12"/>
<polygon fill="#63b8ff" stroke="#63b8ff" points="151.18,-54.63 161.18,-51.13 151.18,-47.63 151.18,-54.63"/>
</a>
</g>
</g>
<!-- Node6 -->
<g id="Node000006" class="node">
<title>Node6</title>
<g id="a_Node000006"><a xlink:href="foc__math_8c.html#a81c018372d65f69c5d8bd6abdeb9f1d2" target="_top" xlink:title="SVPWM 调制（注入零序的 min&#45;max 中点平移法）">
<polygon fill="white" stroke="#666666" points="254,-22.25 160,-22.25 160,0 254,0 254,-22.25"/>
<text xml:space="preserve" text-anchor="middle" x="207" y="-6.85" font-family="Helvetica,sans-Serif" font-size="12.00">FOC_SVPWM</text>
</a>
</g>
</g>
<!-- Node1&#45;&gt;Node6 -->
<g id="edge5_Node000001_Node000006" class="edge">
<title>Node1&#45;&gt;Node6</title>
<g id="a_edge5_Node000001_Node000006"><a xlink:title=" ">
<path fill="none" stroke="#63b8ff" d="M104.36,-39.56C119.78,-35.24 137.48,-30.29 153.75,-25.74"/>
<polygon fill="#63b8ff" stroke="#63b8ff" points="154.59,-29.14 163.27,-23.08 152.7,-22.4 154.59,-29.14"/>
</a>
</g>
</g>
<!-- Node4 -->
<g id="Node000004" class="node">
<title>Node4</title>
<g id="a_Node000004"><a xlink:href="foc__math_8c.html#ac63ab3ffd2685338c76dc6de24c953b1" target="_top" xlink:title="构建 sin 查找表（仅初始化时执行一次）">
<polygon fill="white" stroke="#666666" points="435,-82.25 290,-82.25 290,-60 435,-60 435,-82.25"/>
<text xml:space="preserve" text-anchor="middle" x="362.5" y="-66.85" font-family="Helvetica,sans-Serif" font-size="12.00">FOC_MATH_BuildTable</text>
</a>
</g>
</g>
<!-- Node3&#45;&gt;Node4 -->
<g id="edge3_Node000003_Node000004" class="edge">
<title>Node3&#45;&gt;Node4</title>
<g id="a_edge3_Node000003_Node000004"><a xlink:title=" ">
<path fill="none" stroke="#63b8ff" d="M251.17,-56.75C259.68,-57.86 268.87,-59.06 278.2,-60.27"/>
<polygon fill="#63b8ff" stroke="#63b8ff" points="277.74,-63.74 288.1,-61.56 278.64,-56.8 277.74,-63.74"/>
</a>
</g>
</g>
<!-- Node5 -->
<g id="Node000005" class="node">
<title>Node5</title>
<g id="a_Node000005"><a xlink:href="foc__math_8c.html#a4cc9d35ffa1c5f6ab5668cbe7623d018" target="_top" xlink:title="角度归一化到 [0, 2pi)">
<polygon fill="white" stroke="#666666" points="429.75,-42.25 295.25,-42.25 295.25,-20 429.75,-20 429.75,-42.25"/>
<text xml:space="preserve" text-anchor="middle" x="362.5" y="-26.85" font-family="Helvetica,sans-Serif" font-size="12.00">FOC_NormalizeAngle</text>
</a>
</g>
</g>
<!-- Node3&#45;&gt;Node5 -->
<g id="edge4_Node000003_Node000005" class="edge">
<title>Node3&#45;&gt;Node5</title>
<g id="a_edge4_Node000003_Node000005"><a xlink:title=" ">
<path fill="none" stroke="#63b8ff" d="M251.17,-45.5C261.34,-44.17 272.5,-42.72 283.69,-41.26"/>
<polygon fill="#63b8ff" stroke="#63b8ff" points="283.88,-44.77 293.35,-40.01 282.98,-37.83 283.88,-44.77"/>
</a>
</g>
</g>
</g>
</svg>
