<?xml version="1.0" encoding="UTF-8" standalone="no"?>
<!DOCTYPE svg PUBLIC "-//W3C//DTD SVG 1.1//EN"
 "http://www.w3.org/Graphics/SVG/1.1/DTD/svg11.dtd">
<!-- Generated by graphviz version 15.1.0 (20260618.0150)
 -->
<!-- Title: FOC_SetCurrentRef Pages: 1 -->
<svg width="552pt" height="108pt"
 viewBox="0.00 0.00 552.00 108.00" xmlns="http://www.w3.org/2000/svg" xmlns:xlink="http://www.w3.org/1999/xlink">
<g id="graph0" class="graph" transform="scale(1 1) rotate(0) translate(4 104.25)">
<title>FOC_SetCurrentRef</title>
<!-- Node1 -->
<g id="Node000001" class="node">
<title>Node1</title>
<g id="a_Node000001"><a xlink:title="设置 d/q 电流给定">
<polygon fill="#999999" stroke="#666666" points="544.25,-61.25 419.5,-61.25 419.5,-39 544.25,-39 544.25,-61.25"/>
<text xml:space="preserve" text-anchor="middle" x="481.88" y="-45.85" font-family="Helvetica,sans-Serif" font-size="12.00">FOC_SetCurrentRef</text>
</a>
</g>
</g>
<!-- Node2 -->
<g id="Node000002" class="node">
<title>Node2</title>
<g id="a_Node000002"><a xlink:href="calibration_8c.html#a51f1133ceba653e8e1e600c24b54987e" target="_top" xlink:title="校准状态机单步（电流环 ISR 调用，模式 = MC_MODE_CALIB）">
<polygon fill="white" stroke="#666666" points="365.5,-100.25 306,-100.25 306,-78 365.5,-78 365.5,-100.25"/>
<text xml:space="preserve" text-anchor="middle" x="335.75" y="-84.85" font-family="Helvetica,sans-Serif" font-size="12.00">CAL_Isr</text>
</a>
</g>
</g>
<!-- Node1&#45;&gt;Node2 -->
<g id="edge1_Node000001_Node000002" class="edge">
<title>Node1&#45;&gt;Node2</title>
<g id="a_edge1_Node000001_Node000002"><a xlink:title=" ">
<path fill="none" stroke="#63b8ff" d="M427.11,-64.67C406.4,-70.28 383.53,-76.47 365.98,-81.22"/>
<polygon fill="#63b8ff" stroke="#63b8ff" points="427.82,-68.11 436.56,-62.12 425.99,-61.35 427.82,-68.11"/>
</a>
</g>
</g>
<!-- Node3 -->
<g id="Node000003" class="node">
<title>Node3</title>
<g id="a_Node000003"><a xlink:href="motor__ctrl_8c.html#a5c982a7374da291bb0e5d06d26893def" target="_top" xlink:title="FOC 主循环（ADC 注入完成 ISR，20kHz）">
<polygon fill="white" stroke="#666666" points="252,-61.25 177.5,-61.25 177.5,-39 252,-39 252,-61.25"/>
<text xml:space="preserve" text-anchor="middle" x="214.75" y="-45.85" font-family="Helvetica,sans-Serif" font-size="12.00">MC_FocIsr</text>
</a>
</g>
</g>
<!-- Node1&#45;&gt;Node3 -->
<g id="edge5_Node000001_Node000003" class="edge">
<title>Node1&#45;&gt;Node3</title>
<g id="a_edge5_Node000001_Node000003"><a xlink:title=" ">
<path fill="none" stroke="#63b8ff" d="M407.54,-50.12C357.07,-50.12 292.19,-50.12 252.31,-50.12"/>
<polygon fill="#63b8ff" stroke="#63b8ff" points="407.54,-53.63 417.54,-50.13 407.54,-46.63 407.54,-53.63"/>
</a>
</g>
</g>
<!-- Node6 -->
<g id="Node000006" class="node">
<title>Node6</title>
<g id="a_Node000006"><a xlink:href="motor__ctrl_8c.html#a9dd4aa02cb15dd5ea27aa8085155adb7" target="_top" xlink:title="慢环（1kHz）：电流限幅刷新与速度/位置外环">
<polygon fill="white" stroke="#666666" points="383.5,-22.25 288,-22.25 288,0 383.5,0 383.5,-22.25"/>
<text xml:space="preserve" text-anchor="middle" x="335.75" y="-6.85" font-family="Helvetica,sans-Serif" font-size="12.00">MC_SlowLoop</text>
</a>
</g>
</g>
<!-- Node1&#45;&gt;Node6 -->
<g id="edge6_Node000001_Node000006" class="edge">
<title>Node1&#45;&gt;Node6</title>
<g id="a_edge6_Node000001_Node000006"><a xlink:title=" ">
<path fill="none" stroke="#63b8ff" d="M426.92,-35.53C411.33,-31.31 394.52,-26.76 379.69,-22.74"/>
<polygon fill="#63b8ff" stroke="#63b8ff" points="425.99,-38.9 436.56,-38.13 427.82,-32.14 425.99,-38.9"/>
</a>
</g>
</g>
<!-- Node2&#45;&gt;Node3 -->
<g id="edge2_Node000002_Node000003" class="edge">
<title>Node2&#45;&gt;Node3</title>
<g id="a_edge2_Node000002_Node000003"><a xlink:title=" ">
<path fill="none" stroke="#63b8ff" d="M295.11,-76.13C280.82,-71.45 264.8,-66.2 250.92,-61.65"/>
<polygon fill="#63b8ff" stroke="#63b8ff" points="293.61,-79.32 304.2,-79.11 295.79,-72.67 293.61,-79.32"/>
</a>
</g>
</g>
<!-- Node4 -->
<g id="Node000004" class="node">
<title>Node4</title>
<g id="a_Node000004"><a xlink:href="app__main_8c.html#a4759d3fdff6b33e2c0a0ae151452112f" target="_top" xlink:title="应用初始化（main 的 USER CODE BEGIN 2 调用）">
<polygon fill="white" stroke="#666666" points="141.5,-61.25 78.25,-61.25 78.25,-39 141.5,-39 141.5,-61.25"/>
<text xml:space="preserve" text-anchor="middle" x="109.88" y="-45.85" font-family="Helvetica,sans-Serif" font-size="12.00">APP_Init</text>
</a>
</g>
</g>
<!-- Node3&#45;&gt;Node4 -->
<g id="edge3_Node000003_Node000004" class="edge">
<title>Node3&#45;&gt;Node4</title>
<g id="a_edge3_Node000003_Node000004"><a xlink:title=" ">
<path fill="none" stroke="#63b8ff" d="M165.84,-50.12C157.7,-50.12 149.43,-50.12 141.87,-50.12"/>
<polygon fill="#63b8ff" stroke="#63b8ff" points="165.68,-53.63 175.68,-50.13 165.68,-46.63 165.68,-53.63"/>
</a>
</g>
</g>
<!-- Node5 -->
<g id="Node000005" class="node">
<title>Node5</title>
<g id="a_Node000005"><a xlink:href="main_8c.html#a840291bc02cba5474a4cb46a9b9566fe" target="_top" xlink:title="The application entry point.">
<polygon fill="white" stroke="#666666" points="42.25,-61.25 0,-61.25 0,-39 42.25,-39 42.25,-61.25"/>
<text xml:space="preserve" text-anchor="middle" x="21.12" y="-45.85" font-family="Helvetica,sans-Serif" font-size="12.00">main</text>
</a>
</g>
</g>
<!-- Node4&#45;&gt;Node5 -->
<g id="edge4_Node000004_Node000005" class="edge">
<title>Node4&#45;&gt;Node5</title>
<g id="a_edge4_Node000004_Node000005"><a xlink:title=" ">
<path fill="none" stroke="#63b8ff" d="M66.72,-50.12C58.3,-50.12 49.82,-50.12 42.54,-50.12"/>
<polygon fill="#63b8ff" stroke="#63b8ff" points="66.53,-53.63 76.53,-50.13 66.53,-46.63 66.53,-53.63"/>
</a>
</g>
</g>
<!-- Node6&#45;&gt;Node3 -->
<g id="edge7_Node000006_Node000003" class="edge">
<title>Node6&#45;&gt;Node3</title>
<g id="a_edge7_Node000006_Node000003"><a xlink:title=" ">
<path fill="none" stroke="#63b8ff" d="M288.7,-26.22C276.25,-30.3 262.97,-34.65 251.2,-38.51"/>
<polygon fill="#63b8ff" stroke="#63b8ff" points="289.52,-29.63 297.93,-23.19 287.34,-22.98 289.52,-29.63"/>
</a>
</g>
</g>
</g>
</svg>
