<?xml version="1.0" encoding="UTF-8" standalone="no"?>
<!DOCTYPE svg PUBLIC "-//W3C//DTD SVG 1.1//EN"
 "http://www.w3.org/Graphics/SVG/1.1/DTD/svg11.dtd">
<!-- Generated by graphviz version 15.1.0 (20260618.0150)
 -->
<!-- Title: FOC_SinCos Pages: 1 -->
<svg width="640pt" height="147pt"
 viewBox="0.00 0.00 640.00 147.00" xmlns="http://www.w3.org/2000/svg" xmlns:xlink="http://www.w3.org/1999/xlink">
<g id="graph0" class="graph" transform="scale(1 1) rotate(0) translate(4 143.25)">
<title>FOC_SinCos</title>
<!-- Node1 -->
<g id="Node000001" class="node">
<title>Node1</title>
<g id="a_Node000001"><a xlink:title="查表+线性插值同时计算 sin/cos">
<polygon fill="#999999" stroke="#666666" points="631.5,-80.25 543.5,-80.25 543.5,-58 631.5,-58 631.5,-80.25"/>
<text xml:space="preserve" text-anchor="middle" x="587.5" y="-64.85" font-family="Helvetica,sans-Serif" font-size="12.00">FOC_SinCos</text>
</a>
</g>
</g>
<!-- Node2 -->
<g id="Node000002" class="node">
<title>Node2</title>
<g id="a_Node000002"><a xlink:href="calibration_8c.html#a51f1133ceba653e8e1e600c24b54987e" target="_top" xlink:title="校准状态机单步（电流环 ISR 调用，模式 = MC_MODE_CALIB）">
<polygon fill="white" stroke="#666666" points="347.5,-100.25 288,-100.25 288,-78 347.5,-78 347.5,-100.25"/>
<text xml:space="preserve" text-anchor="middle" x="317.75" y="-84.85" font-family="Helvetica,sans-Serif" font-size="12.00">CAL_Isr</text>
</a>
</g>
</g>
<!-- Node1&#45;&gt;Node2 -->
<g id="edge1_Node000001_Node000002" class="edge">
<title>Node1&#45;&gt;Node2</title>
<g id="a_edge1_Node000001_Node000002"><a xlink:title=" ">
<path fill="none" stroke="#63b8ff" d="M531.76,-73.21C476.1,-77.37 391.97,-83.66 347.95,-86.94"/>
<polygon fill="#63b8ff" stroke="#63b8ff" points="531.96,-76.71 541.67,-72.47 531.44,-69.73 531.96,-76.71"/>
</a>
</g>
</g>
<!-- Node6 -->
<g id="Node000006" class="node">
<title>Node6</title>
<g id="a_Node000006"><a xlink:href="foc_8c.html#ae75f2892abb7689a482d566582276071" target="_top" xlink:title="直接输出 d/q 电压矢量（开环模式 / 校准注入用，不经过电流 PI）">
<polygon fill="white" stroke="#666666" points="507.5,-61.25 383.5,-61.25 383.5,-39 507.5,-39 507.5,-61.25"/>
<text xml:space="preserve" text-anchor="middle" x="445.5" y="-45.85" font-family="Helvetica,sans-Serif" font-size="12.00">FOC_OutputVoltage</text>
</a>
</g>
</g>
<!-- Node1&#45;&gt;Node6 -->
<g id="edge5_Node000001_Node000006" class="edge">
<title>Node1&#45;&gt;Node6</title>
<g id="a_edge5_Node000001_Node000006"><a xlink:title=" ">
<path fill="none" stroke="#63b8ff" d="M531.98,-61.73C524.05,-60.65 515.83,-59.53 507.78,-58.44"/>
<polygon fill="#63b8ff" stroke="#63b8ff" points="531.47,-65.19 541.85,-63.07 532.41,-58.25 531.47,-65.19"/>
</a>
</g>
</g>
<!-- Node7 -->
<g id="Node000007" class="node">
<title>Node7</title>
<g id="a_Node000007"><a xlink:href="foc_8c.html#adeb37d340903f5f803d273080550032d" target="_top" xlink:title="执行一个电流环周期（在 ADC 注入转换完成 ISR 中调用）">
<polygon fill="white" stroke="#666666" points="489.12,-139.25 401.88,-139.25 401.88,-117 489.12,-117 489.12,-139.25"/>
<text xml:space="preserve" text-anchor="middle" x="445.5" y="-123.85" font-family="Helvetica,sans-Serif" font-size="12.00">FOC_Update</text>
</a>
</g>
</g>
<!-- Node1&#45;&gt;Node7 -->
<g id="edge7_Node000001_Node000007" class="edge">
<title>Node1&#45;&gt;Node7</title>
<g id="a_edge7_Node000001_Node000007"><a xlink:title=" ">
<path fill="none" stroke="#63b8ff" d="M549.67,-85.14C536.4,-90.86 521.3,-97.33 507.5,-103.12 496.95,-107.56 485.33,-112.34 475.09,-116.53"/>
<polygon fill="#63b8ff" stroke="#63b8ff" points="550.68,-88.51 558.47,-81.33 547.9,-82.09 550.68,-88.51"/>
</a>
</g>
</g>
<!-- Node8 -->
<g id="Node000008" class="node">
<title>Node8</title>
<g id="a_Node000008"><a xlink:href="motor__ctrl_8c.html#a6289107a27126667fef8194dc34ad71f" target="_top" xlink:title="初始化电机控制模块">
<polygon fill="white" stroke="#666666" points="346.38,-22.25 289.12,-22.25 289.12,0 346.38,0 346.38,-22.25"/>
<text xml:space="preserve" text-anchor="middle" x="317.75" y="-6.85" font-family="Helvetica,sans-Serif" font-size="12.00">MC_Init</text>
</a>
</g>
</g>
<!-- Node1&#45;&gt;Node8 -->
<g id="edge10_Node000001_Node000008" class="edge">
<title>Node1&#45;&gt;Node8</title>
<g id="a_edge10_Node000001_Node000008"><a xlink:title=" ">
<path fill="none" stroke="#63b8ff" d="M558.2,-52.07C543.57,-44.06 525.13,-35.18 507.5,-30.12 452.1,-14.23 384.24,-11.19 346.84,-10.85"/>
<polygon fill="#63b8ff" stroke="#63b8ff" points="556.37,-55.05 566.8,-56.93 559.82,-48.96 556.37,-55.05"/>
</a>
</g>
</g>
<!-- Node3 -->
<g id="Node000003" class="node">
<title>Node3</title>
<g id="a_Node000003"><a xlink:href="motor__ctrl_8c.html#a5c982a7374da291bb0e5d06d26893def" target="_top" xlink:title="FOC 主循环（ADC 注入完成 ISR，20kHz）">
<polygon fill="white" stroke="#666666" points="252,-61.25 177.5,-61.25 177.5,-39 252,-39 252,-61.25"/>
<text xml:space="preserve" text-anchor="middle" x="214.75" y="-45.85" font-family="Helvetica,sans-Serif" font-size="12.00">MC_FocIsr</text>
</a>
</g>
</g>
<!-- Node2&#45;&gt;Node3 -->
<g id="edge2_Node000002_Node000003" class="edge">
<title>Node2&#45;&gt;Node3</title>
<g id="a_edge2_Node000002_Node000003"><a xlink:title=" ">
<path fill="none" stroke="#63b8ff" d="M276.96,-73.76C266.51,-69.73 255.43,-65.45 245.6,-61.65"/>
<polygon fill="#63b8ff" stroke="#63b8ff" points="275.54,-76.96 286.12,-77.3 278.06,-70.43 275.54,-76.96"/>
</a>
</g>
</g>
<!-- Node4 -->
<g id="Node000004" class="node">
<title>Node4</title>
<g id="a_Node000004"><a xlink:href="app__main_8c.html#a4759d3fdff6b33e2c0a0ae151452112f" target="_top" xlink:title="应用初始化（main 的 USER CODE BEGIN 2 调用）">
<polygon fill="white" stroke="#666666" points="141.5,-41.25 78.25,-41.25 78.25,-19 141.5,-19 141.5,-41.25"/>
<text xml:space="preserve" text-anchor="middle" x="109.88" y="-25.85" font-family="Helvetica,sans-Serif" font-size="12.00">APP_Init</text>
</a>
</g>
</g>
<!-- Node3&#45;&gt;Node4 -->
<g id="edge3_Node000003_Node000004" class="edge">
<title>Node3&#45;&gt;Node4</title>
<g id="a_edge3_Node000003_Node000004"><a xlink:title=" ">
<path fill="none" stroke="#63b8ff" d="M166.12,-40.87C157.89,-39.26 149.52,-37.64 141.87,-36.15"/>
<polygon fill="#63b8ff" stroke="#63b8ff" points="165.22,-44.26 175.7,-42.73 166.56,-37.38 165.22,-44.26"/>
</a>
</g>
</g>
<!-- Node5 -->
<g id="Node000005" class="node">
<title>Node5</title>
<g id="a_Node000005"><a xlink:href="main_8c.html#a840291bc02cba5474a4cb46a9b9566fe" target="_top" xlink:title="The application entry point.">
<polygon fill="white" stroke="#666666" points="42.25,-41.25 0,-41.25 0,-19 42.25,-19 42.25,-41.25"/>
<text xml:space="preserve" text-anchor="middle" x="21.12" y="-25.85" font-family="Helvetica,sans-Serif" font-size="12.00">main</text>
</a>
</g>
</g>
<!-- Node4&#45;&gt;Node5 -->
<g id="edge4_Node000004_Node000005" class="edge">
<title>Node4&#45;&gt;Node5</title>
<g id="a_edge4_Node000004_Node000005"><a xlink:title=" ">
<path fill="none" stroke="#63b8ff" d="M66.72,-30.12C58.3,-30.12 49.82,-30.12 42.54,-30.12"/>
<polygon fill="#63b8ff" stroke="#63b8ff" points="66.53,-33.63 76.53,-30.13 66.53,-26.63 66.53,-33.63"/>
</a>
</g>
</g>
<!-- Node6&#45;&gt;Node3 -->
<g id="edge6_Node000006_Node000003" class="edge">
<title>Node6&#45;&gt;Node3</title>
<g id="a_edge6_Node000006_Node000003"><a xlink:title=" ">
<path fill="none" stroke="#63b8ff" d="M371.91,-50.12C332.04,-50.12 284.3,-50.12 252.19,-50.12"/>
<polygon fill="#63b8ff" stroke="#63b8ff" points="371.69,-53.63 381.69,-50.13 371.69,-46.63 371.69,-53.63"/>
</a>
</g>
</g>
<!-- Node7&#45;&gt;Node2 -->
<g id="edge8_Node000007_Node000002" class="edge">
<title>Node7&#45;&gt;Node2</title>
<g id="a_edge8_Node000007_Node000002"><a xlink:title=" ">
<path fill="none" stroke="#63b8ff" d="M396.58,-113.26C380.15,-108.17 362.28,-102.63 347.81,-98.14"/>
<polygon fill="#63b8ff" stroke="#63b8ff" points="395.08,-116.46 405.67,-116.08 397.15,-109.78 395.08,-116.46"/>
</a>
</g>
</g>
<!-- Node7&#45;&gt;Node3 -->
<g id="edge9_Node000007_Node000003" class="edge">
<title>Node7&#45;&gt;Node3</title>
<g id="a_edge9_Node000007_Node000003"><a xlink:title=" ">
<path fill="none" stroke="#63b8ff" d="M390.19,-128.91C359.16,-127.58 320.15,-122.82 288,-109.12 262.37,-98.21 238.57,-75.33 225.7,-61.49"/>
<polygon fill="#63b8ff" stroke="#63b8ff" points="390.05,-132.41 400.15,-129.22 390.27,-125.42 390.05,-132.41"/>
</a>
</g>
</g>
<!-- Node8&#45;&gt;Node4 -->
<g id="edge11_Node000008_Node000004" class="edge">
<title>Node8&#45;&gt;Node4</title>
<g id="a_edge11_Node000008_Node000004"><a xlink:title=" ">
<path fill="none" stroke="#63b8ff" d="M277.71,-14.73C238.28,-18.37 178.17,-23.91 141.89,-27.26"/>
<polygon fill="#63b8ff" stroke="#63b8ff" points="277.84,-18.23 287.48,-13.83 277.2,-11.26 277.84,-18.23"/>
</a>
</g>
</g>
</g>
</svg>
