<?xml version="1.0" encoding="UTF-8" standalone="no"?>
<!DOCTYPE svg PUBLIC "-//W3C//DTD SVG 1.1//EN"
 "http://www.w3.org/Graphics/SVG/1.1/DTD/svg11.dtd">
<!-- Generated by graphviz version 15.1.0 (20260618.0150)
 -->
<!-- Title: FOC_SinCos Pages: 1 -->
<svg width="277pt" height="70pt"
 viewBox="0.00 0.00 277.00 70.00" xmlns="http://www.w3.org/2000/svg" xmlns:xlink="http://www.w3.org/1999/xlink">
<g id="graph0" class="graph" transform="scale(1 1) rotate(0) translate(4 66.25)">
<title>FOC_SinCos</title>
<!-- Node1 -->
<g id="Node000001" class="node">
<title>Node1</title>
<g id="a_Node000001"><a xlink:title="查表+线性插值同时计算 sin/cos">
<polygon fill="#999999" stroke="#666666" points="88,-42.25 0,-42.25 0,-20 88,-20 88,-42.25"/>
<text xml:space="preserve" text-anchor="middle" x="44" y="-26.85" font-family="Helvetica,sans-Serif" font-size="12.00">FOC_SinCos</text>
</a>
</g>
</g>
<!-- Node2 -->
<g id="Node000002" class="node">
<title>Node2</title>
<g id="a_Node000002"><a xlink:href="foc__math_8c.html#ac63ab3ffd2685338c76dc6de24c953b1" target="_top" xlink:title="构建 sin 查找表（仅初始化时执行一次）">
<polygon fill="white" stroke="#666666" points="269,-62.25 124,-62.25 124,-40 269,-40 269,-62.25"/>
<text xml:space="preserve" text-anchor="middle" x="196.5" y="-46.85" font-family="Helvetica,sans-Serif" font-size="12.00">FOC_MATH_BuildTable</text>
</a>
</g>
</g>
<!-- Node1&#45;&gt;Node2 -->
<g id="edge1_Node000001_Node000002" class="edge">
<title>Node1&#45;&gt;Node2</title>
<g id="a_edge1_Node000001_Node000002"><a xlink:title=" ">
<path fill="none" stroke="#63b8ff" d="M88.13,-36.86C95.77,-37.87 103.96,-38.96 112.28,-40.07"/>
<polygon fill="#63b8ff" stroke="#63b8ff" points="111.79,-43.53 122.17,-41.38 112.71,-36.59 111.79,-43.53"/>
</a>
</g>
</g>
<!-- Node3 -->
<g id="Node000003" class="node">
<title>Node3</title>
<g id="a_Node000003"><a xlink:href="foc__math_8c.html#a4cc9d35ffa1c5f6ab5668cbe7623d018" target="_top" xlink:title="角度归一化到 [0, 2pi)">
<polygon fill="white" stroke="#666666" points="263.75,-22.25 129.25,-22.25 129.25,0 263.75,0 263.75,-22.25"/>
<text xml:space="preserve" text-anchor="middle" x="196.5" y="-6.85" font-family="Helvetica,sans-Serif" font-size="12.00">FOC_NormalizeAngle</text>
</a>
</g>
</g>
<!-- Node1&#45;&gt;Node3 -->
<g id="edge2_Node000001_Node000003" class="edge">
<title>Node1&#45;&gt;Node3</title>
<g id="a_edge2_Node000001_Node000003"><a xlink:title=" ">
<path fill="none" stroke="#63b8ff" d="M88.13,-25.39C97.34,-24.17 107.35,-22.84 117.42,-21.5"/>
<polygon fill="#63b8ff" stroke="#63b8ff" points="117.83,-24.98 127.28,-20.19 116.91,-18.04 117.83,-24.98"/>
</a>
</g>
</g>
</g>
</svg>
