<?xml version="1.0" encoding="UTF-8" standalone="no"?>
<!DOCTYPE svg PUBLIC "-//W3C//DTD SVG 1.1//EN"
 "http://www.w3.org/Graphics/SVG/1.1/DTD/svg11.dtd">
<!-- Generated by graphviz version 15.1.0 (20260618.0150)
 -->
<!-- Title: FOC_Update Pages: 1 -->
<svg width="406pt" height="310pt"
 viewBox="0.00 0.00 406.00 310.00" xmlns="http://www.w3.org/2000/svg" xmlns:xlink="http://www.w3.org/1999/xlink">
<g id="graph0" class="graph" transform="scale(1 1) rotate(0) translate(4 306.25)">
<title>FOC_Update</title>
<!-- Node1 -->
<g id="Node000001" class="node">
<title>Node1</title>
<g id="a_Node000001"><a xlink:title="执行一个电流环周期（在 ADC 注入转换完成 ISR 中调用）">
<polygon fill="#999999" stroke="#666666" points="87.25,-162.25 0,-162.25 0,-140 87.25,-140 87.25,-162.25"/>
<text xml:space="preserve" text-anchor="middle" x="43.62" y="-146.85" font-family="Helvetica,sans-Serif" font-size="12.00">FOC_Update</text>
</a>
</g>
</g>
<!-- Node2 -->
<g id="Node000002" class="node">
<title>Node2</title>
<g id="a_Node000002"><a xlink:href="foc__math_8c.html#a7b6dc337ca6db7a63bc15c20d5772fb7" target="_top" xlink:title="Clarke 变换（等幅值变换，3 相 &#45;&gt; alpha/beta）">
<polygon fill="white" stroke="#666666" points="212,-302.25 128.5,-302.25 128.5,-280 212,-280 212,-302.25"/>
<text xml:space="preserve" text-anchor="middle" x="170.25" y="-286.85" font-family="Helvetica,sans-Serif" font-size="12.00">FOC_Clarke</text>
</a>
</g>
</g>
<!-- Node1&#45;&gt;Node2 -->
<g id="edge1_Node000001_Node000002" class="edge">
<title>Node1&#45;&gt;Node2</title>
<g id="a_edge1_Node000001_Node000002"><a xlink:title=" ">
<path fill="none" stroke="#63b8ff" d="M49.41,-162.63C59.67,-186.03 85.93,-239.66 123.25,-271.12 124.34,-272.04 125.47,-272.92 126.64,-273.77"/>
<polygon fill="#63b8ff" stroke="#63b8ff" points="124.54,-276.58 134.9,-278.79 128.18,-270.6 124.54,-276.58"/>
</a>
</g>
</g>
<!-- Node3 -->
<g id="Node000003" class="node">
<title>Node3</title>
<g id="a_Node000003"><a xlink:href="foc_8c.html#aa9db75377abf9b36c243b87f58172dd6" target="_top" xlink:title="快速平方根（M4F 上编译为 VSQRT 单指令）">
<polygon fill="white" stroke="#666666" points="216.88,-262.25 123.62,-262.25 123.62,-240 216.88,-240 216.88,-262.25"/>
<text xml:space="preserve" text-anchor="middle" x="170.25" y="-246.85" font-family="Helvetica,sans-Serif" font-size="12.00">FOC_FastSqrt</text>
</a>
</g>
</g>
<!-- Node1&#45;&gt;Node3 -->
<g id="edge2_Node000001_Node000003" class="edge">
<title>Node1&#45;&gt;Node3</title>
<g id="a_edge2_Node000001_Node000003"><a xlink:title=" ">
<path fill="none" stroke="#63b8ff" d="M53.44,-162.56C66.92,-179.44 94.2,-211.16 123.25,-231.12 124.83,-232.21 126.48,-233.26 128.17,-234.26"/>
<polygon fill="#63b8ff" stroke="#63b8ff" points="126.38,-237.27 136.85,-238.87 129.66,-231.09 126.38,-237.27"/>
</a>
</g>
</g>
<!-- Node4 -->
<g id="Node000004" class="node">
<title>Node4</title>
<g id="a_Node000004"><a xlink:href="foc__math_8c.html#ae7e0a68727625c071145c38236b08cfe" target="_top" xlink:title="Park 反变换（d/q &#45;&gt; alpha/beta）">
<polygon fill="white" stroke="#666666" points="214.62,-222.25 125.88,-222.25 125.88,-200 214.62,-200 214.62,-222.25"/>
<text xml:space="preserve" text-anchor="middle" x="170.25" y="-206.85" font-family="Helvetica,sans-Serif" font-size="12.00">FOC_InvPark</text>
</a>
</g>
</g>
<!-- Node1&#45;&gt;Node4 -->
<g id="edge3_Node000001_Node000004" class="edge">
<title>Node1&#45;&gt;Node4</title>
<g id="a_edge3_Node000001_Node000004"><a xlink:title=" ">
<path fill="none" stroke="#63b8ff" d="M66.48,-162.69C82.16,-170.88 103.85,-181.99 123.25,-191.12 125.96,-192.4 128.78,-193.7 131.62,-194.99"/>
<polygon fill="#63b8ff" stroke="#63b8ff" points="129.94,-198.07 140.5,-198.94 132.79,-191.67 129.94,-198.07"/>
</a>
</g>
</g>
<!-- Node5 -->
<g id="Node000005" class="node">
<title>Node5</title>
<g id="a_Node000005"><a xlink:href="foc__math_8c.html#a002780099733b401167923e53120d292" target="_top" xlink:title="Park 变换（alpha/beta &#45;&gt; d/q）">
<polygon fill="white" stroke="#666666" points="206.75,-182.25 133.75,-182.25 133.75,-160 206.75,-160 206.75,-182.25"/>
<text xml:space="preserve" text-anchor="middle" x="170.25" y="-166.85" font-family="Helvetica,sans-Serif" font-size="12.00">FOC_Park</text>
</a>
</g>
</g>
<!-- Node1&#45;&gt;Node5 -->
<g id="edge4_Node000001_Node000005" class="edge">
<title>Node1&#45;&gt;Node5</title>
<g id="a_edge4_Node000001_Node000005"><a xlink:title=" ">
<path fill="none" stroke="#63b8ff" d="M87.51,-158.01C98.71,-159.8 110.83,-161.75 122.23,-163.58"/>
<polygon fill="#63b8ff" stroke="#63b8ff" points="121.4,-166.99 131.83,-165.12 122.51,-160.08 121.4,-166.99"/>
</a>
</g>
</g>
<!-- Node6 -->
<g id="Node000006" class="node">
<title>Node6</title>
<g id="a_Node000006"><a xlink:href="foc__math_8c.html#a39d4aea10aec434cb4d2490fafb98632" target="_top" xlink:title="查表+线性插值同时计算 sin/cos">
<polygon fill="white" stroke="#666666" points="214.25,-142.25 126.25,-142.25 126.25,-120 214.25,-120 214.25,-142.25"/>
<text xml:space="preserve" text-anchor="middle" x="170.25" y="-126.85" font-family="Helvetica,sans-Serif" font-size="12.00">FOC_SinCos</text>
</a>
</g>
</g>
<!-- Node1&#45;&gt;Node6 -->
<g id="edge5_Node000001_Node000006" class="edge">
<title>Node1&#45;&gt;Node6</title>
<g id="a_edge5_Node000001_Node000006"><a xlink:title=" ">
<path fill="none" stroke="#63b8ff" d="M87.51,-144.24C96.23,-142.84 105.5,-141.36 114.56,-139.9"/>
<polygon fill="#63b8ff" stroke="#63b8ff" points="115.05,-143.37 124.36,-138.33 113.94,-136.46 115.05,-143.37"/>
</a>
</g>
</g>
<!-- Node9 -->
<g id="Node000009" class="node">
<title>Node9</title>
<g id="a_Node000009"><a xlink:href="foc__math_8c.html#a81c018372d65f69c5d8bd6abdeb9f1d2" target="_top" xlink:title="SVPWM 调制（注入零序的 min&#45;max 中点平移法）">
<polygon fill="white" stroke="#666666" points="217.25,-102.25 123.25,-102.25 123.25,-80 217.25,-80 217.25,-102.25"/>
<text xml:space="preserve" text-anchor="middle" x="170.25" y="-86.85" font-family="Helvetica,sans-Serif" font-size="12.00">FOC_SVPWM</text>
</a>
</g>
</g>
<!-- Node1&#45;&gt;Node9 -->
<g id="edge8_Node000001_Node000009" class="edge">
<title>Node1&#45;&gt;Node9</title>
<g id="a_edge8_Node000001_Node000009"><a xlink:title=" ">
<path fill="none" stroke="#63b8ff" d="M66.48,-139.56C82.16,-131.37 103.85,-120.26 123.25,-111.12 125.96,-109.85 128.78,-108.55 131.62,-107.26"/>
<polygon fill="#63b8ff" stroke="#63b8ff" points="132.79,-110.58 140.5,-103.31 129.94,-104.18 132.79,-110.58"/>
</a>
</g>
</g>
<!-- Node10 -->
<g id="Node000010" class="node">
<title>Node10</title>
<g id="a_Node000010"><a xlink:href="pid_8c.html#ad7fced70a610f756fa6319fccc4ae725" target="_top" xlink:title="运行中修改输出限幅，并把积分收拢到新限幅内">
<polygon fill="white" stroke="#666666" points="216.5,-62.25 124,-62.25 124,-40 216.5,-40 216.5,-62.25"/>
<text xml:space="preserve" text-anchor="middle" x="170.25" y="-46.85" font-family="Helvetica,sans-Serif" font-size="12.00">PID_SetLimits</text>
</a>
</g>
</g>
<!-- Node1&#45;&gt;Node10 -->
<g id="edge9_Node000001_Node000010" class="edge">
<title>Node1&#45;&gt;Node10</title>
<g id="a_edge9_Node000001_Node000010"><a xlink:title=" ">
<path fill="none" stroke="#63b8ff" d="M53.44,-139.69C66.92,-122.81 94.2,-91.09 123.25,-71.12 124.83,-70.04 126.48,-68.99 128.17,-67.99"/>
<polygon fill="#63b8ff" stroke="#63b8ff" points="129.66,-71.16 136.85,-63.38 126.38,-64.98 129.66,-71.16"/>
</a>
</g>
</g>
<!-- Node11 -->
<g id="Node000011" class="node">
<title>Node11</title>
<g id="a_Node000011"><a xlink:href="pid_8c.html#a0cc51ef261cec84e3e35382345ac95a0" target="_top" xlink:title="执行一次 PID 计算">
<polygon fill="white" stroke="#666666" points="211.25,-22.25 129.25,-22.25 129.25,0 211.25,0 211.25,-22.25"/>
<text xml:space="preserve" text-anchor="middle" x="170.25" y="-6.85" font-family="Helvetica,sans-Serif" font-size="12.00">PID_Update</text>
</a>
</g>
</g>
<!-- Node1&#45;&gt;Node11 -->
<g id="edge10_Node000001_Node000011" class="edge">
<title>Node1&#45;&gt;Node11</title>
<g id="a_edge10_Node000001_Node000011"><a xlink:title=" ">
<path fill="none" stroke="#63b8ff" d="M49.41,-139.62C59.67,-116.22 85.93,-62.59 123.25,-31.12 124.34,-30.21 125.47,-29.33 126.64,-28.48"/>
<polygon fill="#63b8ff" stroke="#63b8ff" points="128.18,-31.65 134.9,-23.46 124.54,-25.67 128.18,-31.65"/>
</a>
</g>
</g>
<!-- Node7 -->
<g id="Node000007" class="node">
<title>Node7</title>
<g id="a_Node000007"><a xlink:href="foc__math_8c.html#ac63ab3ffd2685338c76dc6de24c953b1" target="_top" xlink:title="构建 sin 查找表（仅初始化时执行一次）">
<polygon fill="white" stroke="#666666" points="398.25,-162.25 253.25,-162.25 253.25,-140 398.25,-140 398.25,-162.25"/>
<text xml:space="preserve" text-anchor="middle" x="325.75" y="-146.85" font-family="Helvetica,sans-Serif" font-size="12.00">FOC_MATH_BuildTable</text>
</a>
</g>
</g>
<!-- Node6&#45;&gt;Node7 -->
<g id="edge6_Node000006_Node000007" class="edge">
<title>Node6&#45;&gt;Node7</title>
<g id="a_edge6_Node000006_Node000007"><a xlink:title=" ">
<path fill="none" stroke="#63b8ff" d="M214.42,-136.75C222.93,-137.86 232.12,-139.06 241.45,-140.27"/>
<polygon fill="#63b8ff" stroke="#63b8ff" points="240.99,-143.74 251.35,-141.56 241.89,-136.8 240.99,-143.74"/>
</a>
</g>
</g>
<!-- Node8 -->
<g id="Node000008" class="node">
<title>Node8</title>
<g id="a_Node000008"><a xlink:href="foc__math_8c.html#a4cc9d35ffa1c5f6ab5668cbe7623d018" target="_top" xlink:title="角度归一化到 [0, 2pi)">
<polygon fill="white" stroke="#666666" points="393,-122.25 258.5,-122.25 258.5,-100 393,-100 393,-122.25"/>
<text xml:space="preserve" text-anchor="middle" x="325.75" y="-106.85" font-family="Helvetica,sans-Serif" font-size="12.00">FOC_NormalizeAngle</text>
</a>
</g>
</g>
<!-- Node6&#45;&gt;Node8 -->
<g id="edge7_Node000006_Node000008" class="edge">
<title>Node6&#45;&gt;Node8</title>
<g id="a_edge7_Node000006_Node000008"><a xlink:title=" ">
<path fill="none" stroke="#63b8ff" d="M214.42,-125.5C224.59,-124.17 235.75,-122.72 246.94,-121.26"/>
<polygon fill="#63b8ff" stroke="#63b8ff" points="247.13,-124.77 256.6,-120.01 246.23,-117.83 247.13,-124.77"/>
</a>
</g>
</g>
</g>
</svg>
