<?xml version="1.0" encoding="UTF-8" standalone="no"?>
<!DOCTYPE svg PUBLIC "-//W3C//DTD SVG 1.1//EN"
 "http://www.w3.org/Graphics/SVG/1.1/DTD/svg11.dtd">
<!-- Generated by graphviz version 15.1.0 (20260618.0150)
 -->
<!-- Title: FOC_NormalizeAngle Pages: 1 -->
<svg width="902pt" height="205pt"
 viewBox="0.00 0.00 902.00 205.00" xmlns="http://www.w3.org/2000/svg" xmlns:xlink="http://www.w3.org/1999/xlink">
<g id="graph0" class="graph" transform="scale(1 1) rotate(0) translate(4 201.25)">
<title>FOC_NormalizeAngle</title>
<!-- Node1 -->
<g id="Node000001" class="node">
<title>Node1</title>
<g id="a_Node000001"><a xlink:title="角度归一化到 [0, 2pi)">
<polygon fill="#999999" stroke="#666666" points="894.25,-101.25 759.75,-101.25 759.75,-79 894.25,-79 894.25,-101.25"/>
<text xml:space="preserve" text-anchor="middle" x="827" y="-85.85" font-family="Helvetica,sans-Serif" font-size="12.00">FOC_NormalizeAngle</text>
</a>
</g>
</g>
<!-- Node2 -->
<g id="Node000002" class="node">
<title>Node2</title>
<g id="a_Node000002"><a xlink:href="foc__math_8c.html#a39d4aea10aec434cb4d2490fafb98632" target="_top" xlink:title="查表+线性插值同时计算 sin/cos">
<polygon fill="white" stroke="#666666" points="723.75,-101.25 635.75,-101.25 635.75,-79 723.75,-79 723.75,-101.25"/>
<text xml:space="preserve" text-anchor="middle" x="679.75" y="-85.85" font-family="Helvetica,sans-Serif" font-size="12.00">FOC_SinCos</text>
</a>
</g>
</g>
<!-- Node1&#45;&gt;Node2 -->
<g id="edge1_Node000001_Node000002" class="edge">
<title>Node1&#45;&gt;Node2</title>
<g id="a_edge1_Node000001_Node000002"><a xlink:title=" ">
<path fill="none" stroke="#63b8ff" d="M747.84,-90.12C739.72,-90.12 731.7,-90.12 724.18,-90.12"/>
<polygon fill="#63b8ff" stroke="#63b8ff" points="747.81,-93.63 757.81,-90.13 747.81,-86.63 747.81,-93.63"/>
</a>
</g>
</g>
<!-- Node10 -->
<g id="Node000010" class="node">
<title>Node10</title>
<g id="a_Node000010"><a xlink:href="filter_8c.html#a92c4dfa4557978b294c448b59f485614" target="_top" xlink:title="预置 PLL 跟踪角度（上电对准编码器初值，避免速度冲击）">
<polygon fill="white" stroke="#666666" points="439.75,-197.25 353.25,-197.25 353.25,-175 439.75,-175 439.75,-197.25"/>
<text xml:space="preserve" text-anchor="middle" x="396.5" y="-181.85" font-family="Helvetica,sans-Serif" font-size="12.00">PLL_Preload</text>
</a>
</g>
</g>
<!-- Node1&#45;&gt;Node10 -->
<g id="edge13_Node000001_Node000010" class="edge">
<title>Node1&#45;&gt;Node10</title>
<g id="a_edge13_Node000001_Node000010"><a xlink:title=" ">
<path fill="none" stroke="#63b8ff" d="M763.1,-104.22C674.65,-124.03 515.85,-159.61 440.04,-176.59"/>
<polygon fill="#63b8ff" stroke="#63b8ff" points="763.84,-107.64 772.84,-102.04 762.31,-100.81 763.84,-107.64"/>
</a>
</g>
</g>
<!-- Node13 -->
<g id="Node000013" class="node">
<title>Node13</title>
<g id="a_Node000013"><a xlink:href="filter_8c.html#a684e4c63e2e5d52d06110c3b0a486c28" target="_top" xlink:title="执行一次 PLL 跟踪">
<polygon fill="white" stroke="#666666" points="721.5,-22.25 638,-22.25 638,0 721.5,0 721.5,-22.25"/>
<text xml:space="preserve" text-anchor="middle" x="679.75" y="-6.85" font-family="Helvetica,sans-Serif" font-size="12.00">PLL_Update</text>
</a>
</g>
</g>
<!-- Node1&#45;&gt;Node13 -->
<g id="edge19_Node000001_Node000013" class="edge">
<title>Node1&#45;&gt;Node13</title>
<g id="a_edge19_Node000001_Node000013"><a xlink:title=" ">
<path fill="none" stroke="#63b8ff" d="M794.8,-73.15C766.75,-57.9 726.33,-35.91 701.9,-22.63"/>
<polygon fill="#63b8ff" stroke="#63b8ff" points="793.09,-76.21 803.55,-77.91 796.44,-70.06 793.09,-76.21"/>
</a>
</g>
</g>
<!-- Node3 -->
<g id="Node000003" class="node">
<title>Node3</title>
<g id="a_Node000003"><a xlink:href="calibration_8c.html#a51f1133ceba653e8e1e600c24b54987e" target="_top" xlink:title="校准状态机单步（电流环 ISR 调用，模式 = MC_MODE_CALIB）">
<polygon fill="white" stroke="#666666" points="426.25,-119.25 366.75,-119.25 366.75,-97 426.25,-97 426.25,-119.25"/>
<text xml:space="preserve" text-anchor="middle" x="396.5" y="-103.85" font-family="Helvetica,sans-Serif" font-size="12.00">CAL_Isr</text>
</a>
</g>
</g>
<!-- Node2&#45;&gt;Node3 -->
<g id="edge2_Node000002_Node000003" class="edge">
<title>Node2&#45;&gt;Node3</title>
<g id="a_edge2_Node000002_Node000003"><a xlink:title=" ">
<path fill="none" stroke="#63b8ff" d="M624.07,-93.62C565.04,-97.4 473.23,-103.28 426.68,-106.26"/>
<polygon fill="#63b8ff" stroke="#63b8ff" points="624.15,-97.13 633.91,-92.99 623.71,-90.14 624.15,-97.13"/>
</a>
</g>
</g>
<!-- Node7 -->
<g id="Node000007" class="node">
<title>Node7</title>
<g id="a_Node000007"><a xlink:href="foc_8c.html#ae75f2892abb7689a482d566582276071" target="_top" xlink:title="直接输出 d/q 电压矢量（开环模式 / 校准注入用，不经过电流 PI）">
<polygon fill="white" stroke="#666666" points="599.75,-41.25 475.75,-41.25 475.75,-19 599.75,-19 599.75,-41.25"/>
<text xml:space="preserve" text-anchor="middle" x="537.75" y="-25.85" font-family="Helvetica,sans-Serif" font-size="12.00">FOC_OutputVoltage</text>
</a>
</g>
</g>
<!-- Node2&#45;&gt;Node7 -->
<g id="edge6_Node000002_Node000007" class="edge">
<title>Node2&#45;&gt;Node7</title>
<g id="a_edge6_Node000002_Node000007"><a xlink:title=" ">
<path fill="none" stroke="#63b8ff" d="M648.14,-73.26C633.71,-65.66 616.09,-56.9 599.75,-50.12 592.54,-47.14 584.72,-44.29 577.15,-41.73"/>
<polygon fill="#63b8ff" stroke="#63b8ff" points="646.23,-76.21 656.7,-77.83 649.53,-70.03 646.23,-76.21"/>
</a>
</g>
</g>
<!-- Node8 -->
<g id="Node000008" class="node">
<title>Node8</title>
<g id="a_Node000008"><a xlink:href="foc_8c.html#adeb37d340903f5f803d273080550032d" target="_top" xlink:title="执行一个电流环周期（在 ADC 注入转换完成 ISR 中调用）">
<polygon fill="white" stroke="#666666" points="581.38,-81.25 494.12,-81.25 494.12,-59 581.38,-59 581.38,-81.25"/>
<text xml:space="preserve" text-anchor="middle" x="537.75" y="-65.85" font-family="Helvetica,sans-Serif" font-size="12.00">FOC_Update</text>
</a>
</g>
</g>
<!-- Node2&#45;&gt;Node8 -->
<g id="edge8_Node000002_Node000008" class="edge">
<title>Node2&#45;&gt;Node8</title>
<g id="a_edge8_Node000002_Node000008"><a xlink:title=" ">
<path fill="none" stroke="#63b8ff" d="M624.43,-82.37C610.2,-80.33 595.05,-78.17 581.51,-76.23"/>
<polygon fill="#63b8ff" stroke="#63b8ff" points="623.71,-85.8 634.1,-83.75 624.7,-78.87 623.71,-85.8"/>
</a>
</g>
</g>
<!-- Node9 -->
<g id="Node000009" class="node">
<title>Node9</title>
<g id="a_Node000009"><a xlink:href="motor__ctrl_8c.html#a6289107a27126667fef8194dc34ad71f" target="_top" xlink:title="初始化电机控制模块">
<polygon fill="white" stroke="#666666" points="281.62,-157.25 224.38,-157.25 224.38,-135 281.62,-135 281.62,-157.25"/>
<text xml:space="preserve" text-anchor="middle" x="253" y="-141.85" font-family="Helvetica,sans-Serif" font-size="12.00">MC_Init</text>
</a>
</g>
</g>
<!-- Node2&#45;&gt;Node9 -->
<g id="edge11_Node000002_Node000009" class="edge">
<title>Node2&#45;&gt;Node9</title>
<g id="a_edge11_Node000002_Node000009"><a xlink:title=" ">
<path fill="none" stroke="#63b8ff" d="M633.13,-104.99C622.28,-108.08 610.68,-111.03 599.75,-113.12 483.08,-135.47 341.23,-142.97 282.04,-145.24"/>
<polygon fill="#63b8ff" stroke="#63b8ff" points="634.04,-108.37 642.64,-102.18 632.06,-101.65 634.04,-108.37"/>
</a>
</g>
</g>
<!-- Node4 -->
<g id="Node000004" class="node">
<title>Node4</title>
<g id="a_Node000004"><a xlink:href="motor__ctrl_8c.html#a5c982a7374da291bb0e5d06d26893def" target="_top" xlink:title="FOC 主循环（ADC 注入完成 ISR，20kHz）">
<polygon fill="white" stroke="#666666" points="290.25,-99.25 215.75,-99.25 215.75,-77 290.25,-77 290.25,-99.25"/>
<text xml:space="preserve" text-anchor="middle" x="253" y="-83.85" font-family="Helvetica,sans-Serif" font-size="12.00">MC_FocIsr</text>
</a>
</g>
</g>
<!-- Node3&#45;&gt;Node4 -->
<g id="edge3_Node000003_Node000004" class="edge">
<title>Node3&#45;&gt;Node4</title>
<g id="a_edge3_Node000003_Node000004"><a xlink:title=" ">
<path fill="none" stroke="#63b8ff" d="M355.37,-102.45C334.97,-99.57 310.36,-96.09 290.5,-93.28"/>
<polygon fill="#63b8ff" stroke="#63b8ff" points="354.63,-105.88 365.03,-103.82 355.61,-98.95 354.63,-105.88"/>
</a>
</g>
</g>
<!-- Node5 -->
<g id="Node000005" class="node">
<title>Node5</title>
<g id="a_Node000005"><a xlink:href="app__main_8c.html#a4759d3fdff6b33e2c0a0ae151452112f" target="_top" xlink:title="应用初始化（main 的 USER CODE BEGIN 2 调用）">
<polygon fill="white" stroke="#666666" points="147.12,-157.25 83.88,-157.25 83.88,-135 147.12,-135 147.12,-157.25"/>
<text xml:space="preserve" text-anchor="middle" x="115.5" y="-141.85" font-family="Helvetica,sans-Serif" font-size="12.00">APP_Init</text>
</a>
</g>
</g>
<!-- Node4&#45;&gt;Node5 -->
<g id="edge4_Node000004_Node000005" class="edge">
<title>Node4&#45;&gt;Node5</title>
<g id="a_edge4_Node000004_Node000005"><a xlink:title=" ">
<path fill="none" stroke="#63b8ff" d="M214.37,-104.23C191.89,-113.86 163.85,-125.86 143.55,-134.55"/>
<polygon fill="#63b8ff" stroke="#63b8ff" points="215.7,-107.47 223.51,-100.32 212.94,-101.04 215.7,-107.47"/>
</a>
</g>
</g>
<!-- Node6 -->
<g id="Node000006" class="node">
<title>Node6</title>
<g id="a_Node000006"><a xlink:href="main_8c.html#a840291bc02cba5474a4cb46a9b9566fe" target="_top" xlink:title="The application entry point.">
<polygon fill="white" stroke="#666666" points="42.25,-177.25 0,-177.25 0,-155 42.25,-155 42.25,-177.25"/>
<text xml:space="preserve" text-anchor="middle" x="21.12" y="-161.85" font-family="Helvetica,sans-Serif" font-size="12.00">main</text>
</a>
</g>
</g>
<!-- Node5&#45;&gt;Node6 -->
<g id="edge5_Node000005_Node000006" class="edge">
<title>Node5&#45;&gt;Node6</title>
<g id="a_edge5_Node000005_Node000006"><a xlink:title=" ">
<path fill="none" stroke="#63b8ff" d="M72.48,-155.22C62.15,-157.46 51.54,-159.76 42.74,-161.66"/>
<polygon fill="#63b8ff" stroke="#63b8ff" points="72.97,-158.7 82,-153.16 71.49,-151.86 72.97,-158.7"/>
</a>
</g>
</g>
<!-- Node7&#45;&gt;Node4 -->
<g id="edge7_Node000007_Node000004" class="edge">
<title>Node7&#45;&gt;Node4</title>
<g id="a_edge7_Node000007_Node000004"><a xlink:title=" ">
<path fill="none" stroke="#63b8ff" d="M468.97,-44.03C413,-55.51 335.71,-71.36 290.67,-80.6"/>
<polygon fill="#63b8ff" stroke="#63b8ff" points="469.64,-47.47 478.73,-42.03 468.23,-40.61 469.64,-47.47"/>
</a>
</g>
</g>
<!-- Node8&#45;&gt;Node3 -->
<g id="edge9_Node000008_Node000003" class="edge">
<title>Node8&#45;&gt;Node3</title>
<g id="a_edge9_Node000008_Node000003"><a xlink:title=" ">
<path fill="none" stroke="#63b8ff" d="M483.13,-84.76C463.89,-90.01 442.93,-95.73 426.56,-100.2"/>
<polygon fill="#63b8ff" stroke="#63b8ff" points="484.03,-88.14 492.75,-82.13 482.18,-81.39 484.03,-88.14"/>
</a>
</g>
</g>
<!-- Node8&#45;&gt;Node4 -->
<g id="edge10_Node000008_Node000004" class="edge">
<title>Node8&#45;&gt;Node4</title>
<g id="a_edge10_Node000008_Node000004"><a xlink:title=" ">
<path fill="none" stroke="#63b8ff" d="M482.6,-73.57C426.2,-77.16 339.4,-82.69 290.59,-85.8"/>
<polygon fill="#63b8ff" stroke="#63b8ff" points="482.54,-77.08 492.3,-72.95 482.09,-70.1 482.54,-77.08"/>
</a>
</g>
</g>
<!-- Node9&#45;&gt;Node5 -->
<g id="edge12_Node000009_Node000005" class="edge">
<title>Node9&#45;&gt;Node5</title>
<g id="a_edge12_Node000009_Node000005"><a xlink:title=" ">
<path fill="none" stroke="#63b8ff" d="M212.59,-146.12C191.82,-146.12 166.71,-146.12 147.37,-146.12"/>
<polygon fill="#63b8ff" stroke="#63b8ff" points="212.41,-149.63 222.41,-146.13 212.41,-142.63 212.41,-149.63"/>
</a>
</g>
</g>
<!-- Node10&#45;&gt;Node4 -->
<g id="edge14_Node000010_Node000004" class="edge">
<title>Node10&#45;&gt;Node4</title>
<g id="a_edge14_Node000010_Node000004"><a xlink:title=" ">
<path fill="none" stroke="#63b8ff" d="M372.66,-167.52C357.32,-155.29 336.47,-139.21 317.25,-126.12 303.38,-116.68 287.14,-106.95 274.59,-99.7"/>
<polygon fill="#63b8ff" stroke="#63b8ff" points="370.27,-170.09 380.26,-173.62 374.65,-164.63 370.27,-170.09"/>
</a>
</g>
</g>
<!-- Node10&#45;&gt;Node9 -->
<g id="edge15_Node000010_Node000009" class="edge">
<title>Node10&#45;&gt;Node9</title>
<g id="a_edge15_Node000010_Node000009"><a xlink:title=" ">
<path fill="none" stroke="#63b8ff" d="M343.58,-171.45C322.68,-165.54 299.42,-158.97 281.84,-154"/>
<polygon fill="#63b8ff" stroke="#63b8ff" points="342.54,-174.79 353.12,-174.14 344.45,-168.06 342.54,-174.79"/>
</a>
</g>
</g>
<!-- Node11 -->
<g id="Node000011" class="node">
<title>Node11</title>
<g id="a_Node000011"><a xlink:href="motor__ctrl_8c.html#a9c872c216c8943d5ba135b71957aea31" target="_top" xlink:title="重建编码器多圈基准并保持用户位置连续（参数落盘后调用）">
<polygon fill="white" stroke="#666666" points="317.25,-197.25 188.75,-197.25 188.75,-175 317.25,-175 317.25,-197.25"/>
<text xml:space="preserve" text-anchor="middle" x="253" y="-181.85" font-family="Helvetica,sans-Serif" font-size="12.00">MC_RebaseEncoder</text>
</a>
</g>
</g>
<!-- Node10&#45;&gt;Node11 -->
<g id="edge16_Node000010_Node000011" class="edge">
<title>Node10&#45;&gt;Node11</title>
<g id="a_edge16_Node000010_Node000011"><a xlink:title=" ">
<path fill="none" stroke="#63b8ff" d="M341.75,-186.12C333.87,-186.12 325.68,-186.12 317.62,-186.12"/>
<polygon fill="#63b8ff" stroke="#63b8ff" points="341.53,-189.63 351.53,-186.13 341.53,-182.63 341.53,-189.63"/>
</a>
</g>
</g>
<!-- Node12 -->
<g id="Node000012" class="node">
<title>Node12</title>
<g id="a_Node000012"><a xlink:href="app__main_8c.html#a6709d26bb67f905916b7c7f048b8396c" target="_top" xlink:title="后台超级循环体（main 的 while(1) 内调用）">
<polygon fill="white" stroke="#666666" points="152.75,-197.25 78.25,-197.25 78.25,-175 152.75,-175 152.75,-197.25"/>
<text xml:space="preserve" text-anchor="middle" x="115.5" y="-181.85" font-family="Helvetica,sans-Serif" font-size="12.00">APP_Loop</text>
</a>
</g>
</g>
<!-- Node11&#45;&gt;Node12 -->
<g id="edge17_Node000011_Node000012" class="edge">
<title>Node11&#45;&gt;Node12</title>
<g id="a_edge17_Node000011_Node000012"><a xlink:title=" ">
<path fill="none" stroke="#63b8ff" d="M177.24,-186.12C168.93,-186.12 160.76,-186.12 153.25,-186.12"/>
<polygon fill="#63b8ff" stroke="#63b8ff" points="177.1,-189.63 187.1,-186.13 177.1,-182.63 177.1,-189.63"/>
</a>
</g>
</g>
<!-- Node12&#45;&gt;Node6 -->
<g id="edge18_Node000012_Node000006" class="edge">
<title>Node12&#45;&gt;Node6</title>
<g id="a_edge18_Node000012_Node000006"><a xlink:title=" ">
<path fill="none" stroke="#63b8ff" d="M66.86,-175.81C58.35,-173.97 49.91,-172.14 42.69,-170.58"/>
<polygon fill="#63b8ff" stroke="#63b8ff" points="66,-179.2 76.51,-177.9 67.48,-172.36 66,-179.2"/>
</a>
</g>
</g>
<!-- Node13&#45;&gt;Node4 -->
<g id="edge20_Node000013_Node000004" class="edge">
<title>Node13&#45;&gt;Node4</title>
<g id="a_edge20_Node000013_Node000004"><a xlink:title=" ">
<path fill="none" stroke="#63b8ff" d="M626.3,-10.37C617.44,-10.27 608.33,-10.18 599.75,-10.12 544.64,-9.78 530.3,-2.28 475.75,-10.12 419.58,-18.21 406.69,-27.04 353.25,-46.12 327.52,-55.31 298.86,-67.68 278.98,-76.62"/>
<polygon fill="#63b8ff" stroke="#63b8ff" points="626.19,-13.87 636.23,-10.49 626.28,-6.87 626.19,-13.87"/>
</a>
</g>
</g>
</g>
</svg>
