<?xml version="1.0" encoding="UTF-8" standalone="no"?>
<!DOCTYPE svg PUBLIC "-//W3C//DTD SVG 1.1//EN"
 "http://www.w3.org/Graphics/SVG/1.1/DTD/svg11.dtd">
<!-- Generated by graphviz version 15.1.0 (20260618.0150)
 -->
<!-- Title: 图例 Pages: 1 -->
<svg width="575pt" height="175pt"
 viewBox="0.00 0.00 575.00 175.00" xmlns="http://www.w3.org/2000/svg" xmlns:xlink="http://www.w3.org/1999/xlink">
<g id="graph0" class="graph" transform="scale(1 1) rotate(0) translate(4 171.25)">
<title>图例</title>
<!-- Node9 -->
<g id="Node000009" class="node">
<title>Node9</title>
<g id="a_Node000009"><a xlink:title=" ">
<polygon fill="#999999" stroke="#666666" points="334,-22.25 271.5,-22.25 271.5,0 334,0 334,-22.25"/>
<text xml:space="preserve" text-anchor="middle" x="302.75" y="-6.85" font-family="Helvetica,sans-Serif" font-size="12.00">Inherited</text>
</a>
</g>
</g>
<!-- Node10 -->
<g id="Node000010" class="node">
<title>Node10</title>
<g id="a_Node000010"><a xlink:title=" ">
<polygon fill="white" stroke="#666666" points="77.5,-94.75 0,-94.75 0,-72.5 77.5,-72.5 77.5,-94.75"/>
<text xml:space="preserve" text-anchor="middle" x="38.75" y="-79.35" font-family="Helvetica,sans-Serif" font-size="12.00">PublicBase</text>
</a>
</g>
</g>
<!-- Node10&#45;&gt;Node9 -->
<g id="edge1" class="edge">
<title>Node10&#45;&gt;Node9</title>
<g id="a_edge1"><a xlink:title=" ">
<path fill="none" stroke="#63b8ff" d="M88.96,-69.22C142.62,-54.89 226.03,-32.61 271.17,-20.56"/>
<polygon fill="#63b8ff" stroke="#63b8ff" points="88.21,-65.79 79.45,-71.76 90.02,-72.56 88.21,-65.79"/>
</a>
</g>
</g>
<!-- Node11 -->
<g id="Node000011" class="node">
<title>Node11</title>
<g id="a_Node000011"><a xlink:title=" ">
<polygon fill="#fff0f0" stroke="red" points="73.38,-167.25 4.12,-167.25 4.12,-145 73.38,-145 73.38,-167.25"/>
<text xml:space="preserve" text-anchor="middle" x="38.75" y="-151.85" font-family="Helvetica,sans-Serif" font-size="12.00">Truncated</text>
</a>
</g>
</g>
<!-- Node11&#45;&gt;Node10 -->
<g id="edge2" class="edge">
<title>Node11&#45;&gt;Node10</title>
<g id="a_edge2"><a xlink:title=" ">
<path fill="none" stroke="#63b8ff" d="M38.75,-133.22C38.75,-120.51 38.75,-105.08 38.75,-95.07"/>
<polygon fill="#63b8ff" stroke="#63b8ff" points="35.25,-133.21 38.75,-143.21 42.25,-133.21 35.25,-133.21"/>
</a>
</g>
</g>
<!-- Node13 -->
<g id="node4" class="node">
<title>Node13</title>
<g id="a_node4"><a xlink:title=" ">
<polygon fill="white" stroke="#666666" points="190.12,-94.75 95.38,-94.75 95.38,-72.5 190.12,-72.5 190.12,-94.75"/>
<text xml:space="preserve" text-anchor="middle" x="142.75" y="-79.35" font-family="Helvetica,sans-Serif" font-size="12.00">ProtectedBase</text>
</a>
</g>
</g>
<!-- Node13&#45;&gt;Node9 -->
<g id="edge3" class="edge">
<title>Node13&#45;&gt;Node9</title>
<g id="a_edge3"><a xlink:title=" ">
<path fill="none" stroke="darkgreen" d="M176.94,-67.56C207.63,-54.04 251.88,-34.54 278.89,-22.64"/>
<polygon fill="darkgreen" stroke="darkgreen" points="175.83,-64.23 168.09,-71.46 178.65,-70.63 175.83,-64.23"/>
</a>
</g>
</g>
<!-- Node14 -->
<g id="node5" class="node">
<title>Node14</title>
<g id="a_node5"><a xlink:title=" ">
<polygon fill="white" stroke="#666666" points="289.38,-94.75 208.12,-94.75 208.12,-72.5 289.38,-72.5 289.38,-94.75"/>
<text xml:space="preserve" text-anchor="middle" x="248.75" y="-79.35" font-family="Helvetica,sans-Serif" font-size="12.00">PrivateBase</text>
</a>
</g>
</g>
<!-- Node14&#45;&gt;Node9 -->
<g id="edge4" class="edge">
<title>Node14&#45;&gt;Node9</title>
<g id="a_edge4"><a xlink:title=" ">
<path fill="none" stroke="#8b1a1a" d="M263.44,-63.45C273.52,-50.29 286.52,-33.31 294.75,-22.57"/>
<polygon fill="#8b1a1a" stroke="#8b1a1a" points="260.94,-60.95 257.64,-71.02 266.5,-65.21 260.94,-60.95"/>
</a>
</g>
</g>
<!-- Node15 -->
<g id="Node000015" class="node">
<title>Node15</title>
<g id="a_Node000015"><a xlink:title=" ">
<polygon fill="#e0e0e0" stroke="#999999" points="405.62,-94.75 307.88,-94.75 307.88,-72.5 405.62,-72.5 405.62,-94.75"/>
<text xml:space="preserve" text-anchor="middle" x="356.75" y="-79.35" font-family="Helvetica,sans-Serif" font-size="12.00">Undocumented</text>
</a>
</g>
</g>
<!-- Node15&#45;&gt;Node9 -->
<g id="edge5" class="edge">
<title>Node15&#45;&gt;Node9</title>
<g id="a_edge5"><a xlink:title=" ">
<path fill="none" stroke="#63b8ff" d="M342.06,-63.45C331.98,-50.29 318.98,-33.31 310.75,-22.57"/>
<polygon fill="#63b8ff" stroke="#63b8ff" points="339,-65.21 347.86,-71.02 344.56,-60.95 339,-65.21"/>
</a>
</g>
</g>
<!-- Node16 -->
<g id="node7" class="node">
<title>Node16</title>
<g id="a_node7"><a xlink:title=" ">
<polygon fill="white" stroke="#666666" points="504,-94.75 423.5,-94.75 423.5,-72.5 504,-72.5 504,-94.75"/>
<text xml:space="preserve" text-anchor="middle" x="463.75" y="-79.35" font-family="Helvetica,sans-Serif" font-size="12.00">Templ&lt; int &gt;</text>
</a>
</g>
</g>
<!-- Node16&#45;&gt;Node9 -->
<g id="edge6" class="edge">
<title>Node16&#45;&gt;Node9</title>
<g id="a_edge6"><a xlink:title=" ">
<path fill="none" stroke="#63b8ff" d="M429.34,-67.56C398.47,-54.04 353.94,-34.54 326.75,-22.64"/>
<polygon fill="#63b8ff" stroke="#63b8ff" points="427.7,-70.66 438.26,-71.46 430.5,-64.25 427.7,-70.66"/>
</a>
</g>
</g>
<!-- Node17 -->
<g id="node8" class="node">
<title>Node17</title>
<g id="a_node8"><a xlink:title=" ">
<polygon fill="white" stroke="#666666" points="501,-167.25 426.5,-167.25 426.5,-145 501,-145 501,-167.25"/>
<text xml:space="preserve" text-anchor="middle" x="463.75" y="-151.85" font-family="Helvetica,sans-Serif" font-size="12.00">Templ&lt; T &gt;</text>
</a>
</g>
</g>
<!-- Node17&#45;&gt;Node16 -->
<g id="edge7" class="edge">
<title>Node17&#45;&gt;Node16</title>
<g id="a_edge7"><a xlink:title=" ">
<path fill="none" stroke="orange" stroke-dasharray="5,2" d="M463.75,-133.22C463.75,-120.51 463.75,-105.08 463.75,-95.07"/>
<polygon fill="orange" stroke="orange" points="460.25,-133.21 463.75,-143.21 467.25,-133.21 460.25,-133.21"/>
</a>
</g>
<text xml:space="preserve" text-anchor="middle" x="479.88" y="-115.6" font-family="Helvetica,sans-Serif" font-size="12.00" fill="grey">&lt; int &gt;</text>
</g>
<!-- Node18 -->
<g id="node9" class="node">
<title>Node18</title>
<g id="a_node9"><a xlink:title=" ">
<polygon fill="white" stroke="#666666" points="567,-94.75 522.5,-94.75 522.5,-72.5 567,-72.5 567,-94.75"/>
<text xml:space="preserve" text-anchor="middle" x="544.75" y="-79.35" font-family="Helvetica,sans-Serif" font-size="12.00">Used</text>
</a>
</g>
</g>
<!-- Node18&#45;&gt;Node9 -->
<g id="edge8" class="edge">
<title>Node18&#45;&gt;Node9</title>
<g id="a_edge8"><a xlink:title=" ">
<path fill="none" stroke="#9a32cd" stroke-dasharray="5,2" d="M511.45,-72.16C442.59,-51.45 373.67,-31.94 334.49,-20.97"/>
<polygon fill="#9a32cd" stroke="#9a32cd" points="510.01,-75.39 520.6,-74.92 512.04,-68.68 510.01,-75.39"/>
</a>
</g>
<text xml:space="preserve" text-anchor="middle" x="486.15" y="-43.1" font-family="Helvetica,sans-Serif" font-size="12.00" fill="grey">m_usedClass</text>
</g>
</g>
</svg>
