<?xml version="1.0" encoding="UTF-8" standalone="no"?>
<!DOCTYPE svg PUBLIC "-//W3C//DTD SVG 1.1//EN"
 "http://www.w3.org/Graphics/SVG/1.1/DTD/svg11.dtd">
<!-- Generated by graphviz version 15.1.0 (20260618.0150)
 -->
<!-- Title: Error_Handler Pages: 1 -->
<!--zoomable 773 -->

<svg id="main" version="1.1" xmlns="http://www.w3.org/2000/svg" xmlns:xlink="http://www.w3.org/1999/xlink" xml:space="preserve" onload="init(evt)">

<style type="text/css"><![CDATA[
.node, .edge {opacity: 0.7;}
.node.selected, .edge.selected {opacity: 1;}
.edge:hover path { stroke: red; }
.edge:hover polygon { stroke: red; fill: red; }
]]></style>

<defs>
  <circle id="rim" cx="0" cy="0" r="7"/>
  <circle id="rim2" cx="0" cy="0" r="3.5"/>
  <g id="zoomPlus">
    <use xlink:href="#rim" fill="#404040"><set attributeName="fill" to="#808080" begin="zoomplus.mouseover" end="zoomplus.mouseout"/></use>
    <path d="M-4,0h8M0,-4v8" fill="none" stroke="white" stroke-width="1.5" pointer-events="none"/>
  </g>
  <g id="zoomMin">
    <use xlink:href="#rim" fill="#404040"><set attributeName="fill" to="#808080" begin="zoomminus.mouseover" end="zoomminus.mouseout"/></use>
    <path d="M-4,0h8" fill="none" stroke="white" stroke-width="1.5" pointer-events="none"/>
  </g>
  <g id="arrowUp" transform="translate(30 24)">
    <use xlink:href="#rim"/>
    <path pointer-events="none" fill="none" stroke="white" stroke-width="1.5" d="M0,-3.0v7 M-2.5,-0.5L0,-3.0L2.5,-0.5"/>
  </g>
  <g id="arrowRight" transform="rotate(90) translate(36 -43)">
    <use xlink:href="#rim"/>
    <path pointer-events="none" fill="none" stroke="white" stroke-width="1.5" d="M0,-3.0v7 M-2.5,-0.5L0,-3.0L2.5,-0.5"/>
  </g>
  <g id="arrowDown" transform="rotate(180) translate(-30 -48)">
    <use xlink:href="#rim"/>
    <path pointer-events="none" fill="none" stroke="white" stroke-width="1.5" d="M0,-3.0v7 M-2.5,-0.5L0,-3.0L2.5,-0.5"/>
  </g>
  <g id="arrowLeft" transform="rotate(270) translate(-36 17)">
    <use xlink:href="#rim"/>
    <path pointer-events="none" fill="none" stroke="white" stroke-width="1.5" d="M0,-3.0v7 M-2.5,-0.5L0,-3.0L2.5,-0.5"/>
  </g>
  <g id="resetDef">
    <use xlink:href="#rim2" fill="#404040"><set attributeName="fill" to="#808080" begin="reset.mouseover" end="reset.mouseout"/></use>
  </g>
</defs>
<script type="application/ecmascript">
var viewWidth = 836;
var viewHeight = 773;
var sectionId = 'dynsection-1';
</script>
<script type="application/ecmascript" xlink:href="svg.min.js"/>
<svg id="graph" class="graph">
<g id="viewport">
<title>Error_Handler</title>
<!-- Node1 -->
<g id="Node000001" class="node">
<title>Node1</title>
<g id="a_Node000001"><a xlink:title="This function is executed in case of error occurrence.">
<polygon fill="#999999" stroke="#666666" points="828,-414.53 736.25,-414.53 736.25,-392.28 828,-392.28 828,-414.53"/>
<text xml:space="preserve" text-anchor="middle" x="782.12" y="-399.13" font-family="Helvetica,sans-Serif" font-size="12.00">Error_Handler</text>
</a>
</g>
</g>
<!-- Node2 -->
<g id="Node000002" class="node">
<title>Node2</title>
<g id="a_Node000002"><a xlink:href="bsp__adc_8c.html#abbd45eefc365e2ea364f387bd828f32c" target="_top" xlink:title="初始化 ADC（重配注入组/触发/校准）">
<polygon fill="white" stroke="#666666" points="519.62,-604.53 423.38,-604.53 423.38,-582.28 519.62,-582.28 519.62,-604.53"/>
<text xml:space="preserve" text-anchor="middle" x="471.5" y="-589.13" font-family="Helvetica,sans-Serif" font-size="12.00">BSP_ADC_Init</text>
</a>
</g>
</g>
<!-- Node1&#45;&gt;Node2 -->
<g id="edge1_Node000001_Node000002" class="edge">
<title>Node1&#45;&gt;Node2</title>
<g id="a_edge1_Node000001_Node000002"><a xlink:title=" ">
<path fill="none" stroke="#63b8ff" d="M778.25,-425.97C771.94,-465 752.99,-544.35 700.25,-580.4 646.96,-616.83 569.2,-612.14 519.73,-603.92"/>
<polygon fill="#63b8ff" stroke="#63b8ff" points="781.7,-426.51 779.68,-416.11 774.78,-425.5 781.7,-426.51"/>
</a>
</g>
</g>
<!-- Node5 -->
<g id="Node000005" class="node">
<title>Node5</title>
<g id="a_Node000005"><a xlink:href="bsp__can_8c.html#a8bb055feb01e6f0fdee0f7921f821e5c" target="_top" xlink:title="初始化 CAN（重配位时序 + 滤波器 + 中断）">
<polygon fill="white" stroke="#666666" points="681.12,-764.53 584.88,-764.53 584.88,-742.28 681.12,-742.28 681.12,-764.53"/>
<text xml:space="preserve" text-anchor="middle" x="633" y="-749.13" font-family="Helvetica,sans-Serif" font-size="12.00">BSP_CAN_Init</text>
</a>
</g>
</g>
<!-- Node1&#45;&gt;Node5 -->
<g id="edge4_Node000001_Node000005" class="edge">
<title>Node1&#45;&gt;Node5</title>
<g id="a_edge4_Node000001_Node000005"><a xlink:title=" ">
<path fill="none" stroke="#63b8ff" d="M778.24,-425.74C769.36,-491.31 740.6,-681.47 700.25,-727.4 694.87,-733.53 687.86,-738.22 680.42,-741.82"/>
<polygon fill="#63b8ff" stroke="#63b8ff" points="781.66,-426.56 779.5,-416.19 774.72,-425.64 781.66,-426.56"/>
</a>
</g>
</g>
<!-- Node9 -->
<g id="Node000009" class="node">
<title>Node9</title>
<g id="a_Node000009"><a xlink:href="bsp__pwm_8c.html#ad3148d9d4af95cdc11e217528051c84c" target="_top" xlink:title="初始化三相 PWM（重配 TIM1，输出保持封波）">
<polygon fill="white" stroke="#666666" points="521.12,-684.53 421.88,-684.53 421.88,-662.28 521.12,-662.28 521.12,-684.53"/>
<text xml:space="preserve" text-anchor="middle" x="471.5" y="-669.13" font-family="Helvetica,sans-Serif" font-size="12.00">BSP_PWM_Init</text>
</a>
</g>
</g>
<!-- Node1&#45;&gt;Node9 -->
<g id="edge10_Node000001_Node000009" class="edge">
<title>Node1&#45;&gt;Node9</title>
<g id="a_edge10_Node000001_Node000009"><a xlink:title=" ">
<path fill="none" stroke="#63b8ff" d="M780.8,-426.16C778.77,-474.27 766.75,-586.36 700.25,-641.4 650.27,-682.77 571.97,-684.52 521.45,-680.27"/>
<polygon fill="#63b8ff" stroke="#63b8ff" points="784.29,-426.5 781.09,-416.4 777.29,-426.29 784.29,-426.5"/>
</a>
</g>
</g>
<!-- Node10 -->
<g id="Node000010" class="node">
<title>Node10</title>
<g id="a_Node000010"><a xlink:href="bsp__uart_8c.html#a95db1d8588b8f6c4a2ab1ba8d8a81aad" target="_top" xlink:title="初始化调试串口（重配波特率 + DMA + 中断）">
<polygon fill="white" stroke="#666666" points="523,-644.53 420,-644.53 420,-622.28 523,-622.28 523,-644.53"/>
<text xml:space="preserve" text-anchor="middle" x="471.5" y="-629.13" font-family="Helvetica,sans-Serif" font-size="12.00">BSP_UART_Init</text>
</a>
</g>
</g>
<!-- Node1&#45;&gt;Node10 -->
<g id="edge12_Node000001_Node000010" class="edge">
<title>Node1&#45;&gt;Node10</title>
<g id="a_edge12_Node000001_Node000010"><a xlink:title=" ">
<path fill="none" stroke="#63b8ff" d="M779.62,-425.94C775.4,-469.36 759.51,-564.27 700.25,-609.4 649.64,-647.94 573.33,-647.68 523.21,-642.07"/>
<polygon fill="#63b8ff" stroke="#63b8ff" points="783.09,-426.45 780.43,-416.2 776.11,-425.87 783.09,-426.45"/>
</a>
</g>
</g>
<!-- Node11 -->
<g id="Node000011" class="node">
<title>Node11</title>
<g id="a_Node000011"><a xlink:href="bsp__ws2812_8c.html#acad123fd7d3377dda0013ffc74a9445a" target="_top" xlink:title="初始化 WS2812 驱动（重配 TIM2 + DMA）">
<polygon fill="white" stroke="#666666" points="529.75,-724.53 413.25,-724.53 413.25,-702.28 529.75,-702.28 529.75,-724.53"/>
<text xml:space="preserve" text-anchor="middle" x="471.5" y="-709.13" font-family="Helvetica,sans-Serif" font-size="12.00">BSP_WS2812_Init</text>
</a>
</g>
</g>
<!-- Node1&#45;&gt;Node11 -->
<g id="edge14_Node000001_Node000011" class="edge">
<title>Node1&#45;&gt;Node11</title>
<g id="a_edge14_Node000001_Node000011"><a xlink:title=" ">
<path fill="none" stroke="#63b8ff" d="M781.81,-426.28C782.03,-479.04 774.61,-609.71 700.25,-675.4 653.98,-716.27 580.96,-721.72 530.12,-719.58"/>
<polygon fill="#63b8ff" stroke="#63b8ff" points="785.31,-426.36 781.65,-416.42 778.31,-426.47 785.31,-426.36"/>
</a>
</g>
</g>
<!-- Node12 -->
<g id="Node000012" class="node">
<title>Node12</title>
<g id="a_Node000012"><a xlink:href="adc_8c.html#ac3139540667c403c5dfd37a99c610b1c" target="_top" xlink:title=" ">
<polygon fill="white" stroke="#666666" points="692,-571.53 574,-571.53 574,-549.28 692,-549.28 692,-571.53"/>
<text xml:space="preserve" text-anchor="middle" x="633" y="-556.13" font-family="Helvetica,sans-Serif" font-size="12.00">HAL_ADC_MspInit</text>
</a>
</g>
</g>
<!-- Node1&#45;&gt;Node12 -->
<g id="edge16_Node000001_Node000012" class="edge">
<title>Node1&#45;&gt;Node12</title>
<g id="a_edge16_Node000001_Node000012"><a xlink:title=" ">
<path fill="none" stroke="#63b8ff" d="M773.84,-425.64C762.77,-456.01 738.81,-510.15 700.25,-540.4 696,-543.74 691.19,-546.52 686.16,-548.84"/>
<polygon fill="#63b8ff" stroke="#63b8ff" points="777.1,-426.93 777.08,-416.34 770.49,-424.63 777.1,-426.93"/>
</a>
</g>
</g>
<!-- Node13 -->
<g id="Node000013" class="node">
<title>Node13</title>
<g id="a_Node000013"><a xlink:href="fdcan_8c.html#a93a2756cf80884d125eecad39c785c5d" target="_top" xlink:title=" ">
<polygon fill="white" stroke="#666666" points="700.25,-531.53 565.75,-531.53 565.75,-509.28 700.25,-509.28 700.25,-531.53"/>
<text xml:space="preserve" text-anchor="middle" x="633" y="-516.13" font-family="Helvetica,sans-Serif" font-size="12.00">HAL_FDCAN_MspInit</text>
</a>
</g>
</g>
<!-- Node1&#45;&gt;Node13 -->
<g id="edge17_Node000001_Node000013" class="edge">
<title>Node1&#45;&gt;Node13</title>
<g id="a_edge17_Node000001_Node000013"><a xlink:title=" ">
<path fill="none" stroke="#63b8ff" d="M768.73,-424.58C754.78,-446.63 730.11,-480.65 700.25,-500.4 695.24,-503.72 689.66,-506.5 683.92,-508.83"/>
<polygon fill="#63b8ff" stroke="#63b8ff" points="771.67,-426.48 773.91,-416.13 765.7,-422.83 771.67,-426.48"/>
</a>
</g>
</g>
<!-- Node14 -->
<g id="Node000014" class="node">
<title>Node14</title>
<g id="a_Node000014"><a xlink:href="usart_8c.html#a62a25476866998c7aadfb5c0864fa349" target="_top" xlink:title=" ">
<polygon fill="white" stroke="#666666" points="695.38,-491.53 570.62,-491.53 570.62,-469.28 695.38,-469.28 695.38,-491.53"/>
<text xml:space="preserve" text-anchor="middle" x="633" y="-476.13" font-family="Helvetica,sans-Serif" font-size="12.00">HAL_UART_MspInit</text>
</a>
</g>
</g>
<!-- Node1&#45;&gt;Node14 -->
<g id="edge18_Node000001_Node000014" class="edge">
<title>Node1&#45;&gt;Node14</title>
<g id="a_edge18_Node000001_Node000014"><a xlink:title=" ">
<path fill="none" stroke="#63b8ff" d="M755.88,-421.6C740.32,-432.3 719.7,-445.62 700.25,-455.4 690.26,-460.43 679,-465.04 668.63,-468.9"/>
<polygon fill="#63b8ff" stroke="#63b8ff" points="757.88,-424.47 764.06,-415.87 753.86,-418.74 757.88,-424.47"/>
</a>
</g>
</g>
<!-- Node15 -->
<g id="Node000015" class="node">
<title>Node15</title>
<g id="a_Node000015"><a xlink:href="adc_8c.html#acccd58aa70215a6b184ad242312ffd0c" target="_top" xlink:title=" ">
<polygon fill="white" stroke="#666666" points="201.88,-455.53 105.62,-455.53 105.62,-433.28 201.88,-433.28 201.88,-455.53"/>
<text xml:space="preserve" text-anchor="middle" x="153.75" y="-440.13" font-family="Helvetica,sans-Serif" font-size="12.00">MX_ADC1_Init</text>
</a>
</g>
</g>
<!-- Node1&#45;&gt;Node15 -->
<g id="edge19_Node000001_Node000015" class="edge">
<title>Node1&#45;&gt;Node15</title>
<g id="a_edge19_Node000001_Node000015"><a xlink:title=" ">
<path fill="none" stroke="#63b8ff" d="M724.88,-414.85C716.64,-416.23 708.25,-417.47 700.25,-418.4 517.07,-439.66 297.35,-443.62 202.35,-444.3"/>
<polygon fill="#63b8ff" stroke="#63b8ff" points="725.22,-418.34 734.46,-413.16 724,-411.45 725.22,-418.34"/>
</a>
</g>
</g>
<!-- Node16 -->
<g id="Node000016" class="node">
<title>Node16</title>
<g id="a_Node000016"><a xlink:href="adc_8c.html#a101e2e3433dfe72bbbd0ae3a84489263" target="_top" xlink:title=" ">
<polygon fill="white" stroke="#666666" points="369.38,-416.53 273.12,-416.53 273.12,-394.28 369.38,-394.28 369.38,-416.53"/>
<text xml:space="preserve" text-anchor="middle" x="321.25" y="-401.13" font-family="Helvetica,sans-Serif" font-size="12.00">MX_ADC2_Init</text>
</a>
</g>
</g>
<!-- Node1&#45;&gt;Node16 -->
<g id="edge21_Node000001_Node000016" class="edge">
<title>Node1&#45;&gt;Node16</title>
<g id="a_edge21_Node000001_Node000016"><a xlink:title=" ">
<path fill="none" stroke="#63b8ff" d="M724.36,-403.65C632.9,-404.05 454.59,-404.82 369.56,-405.2"/>
<polygon fill="#63b8ff" stroke="#63b8ff" points="724.37,-407.15 734.36,-403.61 724.34,-400.15 724.37,-407.15"/>
</a>
</g>
</g>
<!-- Node17 -->
<g id="Node000017" class="node">
<title>Node17</title>
<g id="a_Node000017"><a xlink:href="fdcan_8c.html#af122e1c28b11c5b8771e82328e10fa2c" target="_top" xlink:title=" ">
<polygon fill="white" stroke="#666666" points="210.12,-377.53 97.38,-377.53 97.38,-355.28 210.12,-355.28 210.12,-377.53"/>
<text xml:space="preserve" text-anchor="middle" x="153.75" y="-362.13" font-family="Helvetica,sans-Serif" font-size="12.00">MX_FDCAN1_Init</text>
</a>
</g>
</g>
<!-- Node1&#45;&gt;Node17 -->
<g id="edge23_Node000001_Node000017" class="edge">
<title>Node1&#45;&gt;Node17</title>
<g id="a_edge23_Node000001_Node000017"><a xlink:title=" ">
<path fill="none" stroke="#63b8ff" d="M724.43,-400.05C604.99,-393 328.77,-376.68 210.32,-369.68"/>
<polygon fill="#63b8ff" stroke="#63b8ff" points="724.13,-403.54 734.31,-400.64 724.54,-396.55 724.13,-403.54"/>
</a>
</g>
</g>
<!-- Node18 -->
<g id="Node000018" class="node">
<title>Node18</title>
<g id="a_Node000018"><a xlink:href="opamp_8c.html#ae79cc2f9370135e331deba88fe78da9f" target="_top" xlink:title=" ">
<polygon fill="white" stroke="#666666" points="377.25,-338.53 265.25,-338.53 265.25,-316.28 377.25,-316.28 377.25,-338.53"/>
<text xml:space="preserve" text-anchor="middle" x="321.25" y="-323.13" font-family="Helvetica,sans-Serif" font-size="12.00">MX_OPAMP1_Init</text>
</a>
</g>
</g>
<!-- Node1&#45;&gt;Node18 -->
<g id="edge25_Node000001_Node000018" class="edge">
<title>Node1&#45;&gt;Node18</title>
<g id="a_edge25_Node000001_Node000018"><a xlink:title=" ">
<path fill="none" stroke="#63b8ff" d="M759.19,-384.89C743.76,-373.03 722.05,-358.56 700.25,-351.4 590.3,-315.28 452.87,-317.48 377.71,-322.39"/>
<polygon fill="#63b8ff" stroke="#63b8ff" points="756.74,-387.41 766.74,-390.9 761.1,-381.94 756.74,-387.41"/>
</a>
</g>
</g>
<!-- Node19 -->
<g id="Node000019" class="node">
<title>Node19</title>
<g id="a_Node000019"><a xlink:href="opamp_8c.html#add65a8f7f8132534ddf7f54fa6125176" target="_top" xlink:title=" ">
<polygon fill="white" stroke="#666666" points="209.75,-299.53 97.75,-299.53 97.75,-277.28 209.75,-277.28 209.75,-299.53"/>
<text xml:space="preserve" text-anchor="middle" x="153.75" y="-284.13" font-family="Helvetica,sans-Serif" font-size="12.00">MX_OPAMP2_Init</text>
</a>
</g>
</g>
<!-- Node1&#45;&gt;Node19 -->
<g id="edge27_Node000001_Node000019" class="edge">
<title>Node1&#45;&gt;Node19</title>
<g id="a_edge27_Node000001_Node000019"><a xlink:title=" ">
<path fill="none" stroke="#63b8ff" d="M767.39,-382.44C753.2,-362.78 729.09,-334.5 700.25,-321.4 614.08,-282.26 330.93,-284.08 210.14,-286.8"/>
<polygon fill="#63b8ff" stroke="#63b8ff" points="764.45,-384.34 773.02,-390.57 770.21,-380.35 764.45,-384.34"/>
</a>
</g>
</g>
<!-- Node20 -->
<g id="Node000020" class="node">
<title>Node20</title>
<g id="a_Node000020"><a xlink:href="opamp_8c.html#a52d1ae7d2fceaebb7fa0f31235bfee5f" target="_top" xlink:title=" ">
<polygon fill="white" stroke="#666666" points="377.25,-260.53 265.25,-260.53 265.25,-238.28 377.25,-238.28 377.25,-260.53"/>
<text xml:space="preserve" text-anchor="middle" x="321.25" y="-245.13" font-family="Helvetica,sans-Serif" font-size="12.00">MX_OPAMP3_Init</text>
</a>
</g>
</g>
<!-- Node1&#45;&gt;Node20 -->
<g id="edge29_Node000001_Node000020" class="edge">
<title>Node1&#45;&gt;Node20</title>
<g id="a_edge29_Node000001_Node000020"><a xlink:title=" ">
<path fill="none" stroke="#63b8ff" d="M774.33,-381.21C763.82,-351.14 740.52,-298.45 700.25,-274.4 599.46,-214.2 455.45,-225.8 377.49,-238.34"/>
<polygon fill="#63b8ff" stroke="#63b8ff" points="770.91,-382.03 777.37,-390.43 777.56,-379.84 770.91,-382.03"/>
</a>
</g>
</g>
<!-- Node21 -->
<g id="Node000021" class="node">
<title>Node21</title>
<g id="a_Node000021"><a xlink:href="spi_8c.html#af81398f9775695df0b172367651ca3e6" target="_top" xlink:title=" ">
<polygon fill="white" stroke="#666666" points="198.5,-221.53 109,-221.53 109,-199.28 198.5,-199.28 198.5,-221.53"/>
<text xml:space="preserve" text-anchor="middle" x="153.75" y="-206.13" font-family="Helvetica,sans-Serif" font-size="12.00">MX_SPI1_Init</text>
</a>
</g>
</g>
<!-- Node1&#45;&gt;Node21 -->
<g id="edge31_Node000001_Node000021" class="edge">
<title>Node1&#45;&gt;Node21</title>
<g id="a_edge31_Node000001_Node000021"><a xlink:title=" ">
<path fill="none" stroke="#63b8ff" d="M778.16,-380.39C771.76,-341.4 752.74,-263.2 700.25,-228.4 618.71,-174.34 313.78,-195.78 198.9,-206.1"/>
<polygon fill="#63b8ff" stroke="#63b8ff" points="774.69,-380.9 779.62,-390.28 781.62,-379.88 774.69,-380.9"/>
</a>
</g>
</g>
<!-- Node22 -->
<g id="Node000022" class="node">
<title>Node22</title>
<g id="a_Node000022"><a xlink:href="tim_8c.html#ad1f9d42690163f73f73e5b820c81ca14" target="_top" xlink:title=" ">
<polygon fill="white" stroke="#666666" points="516.62,-182.53 426.38,-182.53 426.38,-160.28 516.62,-160.28 516.62,-182.53"/>
<text xml:space="preserve" text-anchor="middle" x="471.5" y="-167.13" font-family="Helvetica,sans-Serif" font-size="12.00">MX_TIM1_Init</text>
</a>
</g>
</g>
<!-- Node1&#45;&gt;Node22 -->
<g id="edge33_Node000001_Node000022" class="edge">
<title>Node1&#45;&gt;Node22</title>
<g id="a_edge33_Node000001_Node000022"><a xlink:title=" ">
<path fill="none" stroke="#63b8ff" d="M779.64,-380.78C775.45,-337.2 759.62,-241.9 700.25,-196.4 647.52,-156 566.67,-157.67 516.82,-163.72"/>
<polygon fill="#63b8ff" stroke="#63b8ff" points="776.13,-380.89 780.44,-390.57 783.11,-380.31 776.13,-380.89"/>
</a>
</g>
</g>
<!-- Node23 -->
<g id="Node000023" class="node">
<title>Node23</title>
<g id="a_Node000023"><a xlink:href="tim_8c.html#a4b8ff887fd3fdf26605e35927e4ff202" target="_top" xlink:title=" ">
<polygon fill="white" stroke="#666666" points="366.38,-143.53 276.12,-143.53 276.12,-121.28 366.38,-121.28 366.38,-143.53"/>
<text xml:space="preserve" text-anchor="middle" x="321.25" y="-128.13" font-family="Helvetica,sans-Serif" font-size="12.00">MX_TIM2_Init</text>
</a>
</g>
</g>
<!-- Node1&#45;&gt;Node23 -->
<g id="edge35_Node000001_Node000023" class="edge">
<title>Node1&#45;&gt;Node23</title>
<g id="a_edge35_Node000001_Node000023"><a xlink:title=" ">
<path fill="none" stroke="#63b8ff" d="M781.44,-380.42C780.75,-330.33 771.31,-211.42 700.25,-156.4 649.36,-117 455.29,-123.82 366.75,-129.22"/>
<polygon fill="#63b8ff" stroke="#63b8ff" points="777.94,-380.34 781.46,-390.33 784.94,-380.33 777.94,-380.34"/>
</a>
</g>
</g>
<!-- Node24 -->
<g id="Node000024" class="node">
<title>Node24</title>
<g id="a_Node000024"><a xlink:href="usart_8c.html#a3d04b903a77089f6ce08dd0bf1c81a81" target="_top" xlink:title=" ">
<polygon fill="white" stroke="#666666" points="229.25,-105.53 78.25,-105.53 78.25,-83.28 229.25,-83.28 229.25,-105.53"/>
<text xml:space="preserve" text-anchor="middle" x="153.75" y="-90.13" font-family="Helvetica,sans-Serif" font-size="12.00">MX_USART3_UART_Init</text>
</a>
</g>
</g>
<!-- Node1&#45;&gt;Node24 -->
<g id="edge37_Node000001_Node000024" class="edge">
<title>Node1&#45;&gt;Node24</title>
<g id="a_edge37_Node000001_Node000024"><a xlink:title=" ">
<path fill="none" stroke="#63b8ff" d="M777.97,-380.77C769.02,-320.09 741.4,-156.09 700.25,-123.4 629.52,-67.21 361.99,-78.59 229.72,-88.09"/>
<polygon fill="#63b8ff" stroke="#63b8ff" points="774.49,-381.17 779.38,-390.57 781.42,-380.18 774.49,-381.17"/>
</a>
</g>
</g>
<!-- Node25 -->
<g id="Node000025" class="node">
<title>Node25</title>
<g id="a_Node000025"><a xlink:href="main_8c.html#a70af21c671abfcc773614a9a4f63d920" target="_top" xlink:title="System Clock Configuration">
<polygon fill="white" stroke="#666666" points="697.25,-65.53 568.75,-65.53 568.75,-43.28 697.25,-43.28 697.25,-65.53"/>
<text xml:space="preserve" text-anchor="middle" x="633" y="-50.13" font-family="Helvetica,sans-Serif" font-size="12.00">SystemClock_Config</text>
</a>
</g>
</g>
<!-- Node1&#45;&gt;Node25 -->
<g id="edge39_Node000001_Node000025" class="edge">
<title>Node1&#45;&gt;Node25</title>
<g id="a_edge39_Node000001_Node000025"><a xlink:title=" ">
<path fill="none" stroke="#63b8ff" d="M778.26,-381.04C769.46,-315.4 740.9,-125.07 700.25,-79.4 695.18,-73.71 688.68,-69.31 681.74,-65.9"/>
<polygon fill="#63b8ff" stroke="#63b8ff" points="774.75,-381.14 779.52,-390.6 781.69,-380.23 774.75,-381.14"/>
</a>
</g>
</g>
<!-- Node3 -->
<g id="Node000003" class="node">
<title>Node3</title>
<g id="a_Node000003"><a xlink:href="app__main_8c.html#a4759d3fdff6b33e2c0a0ae151452112f" target="_top" xlink:title="应用初始化（main 的 USER CODE BEGIN 2 调用）">
<polygon fill="white" stroke="#666666" points="352.88,-664.53 289.62,-664.53 289.62,-642.28 352.88,-642.28 352.88,-664.53"/>
<text xml:space="preserve" text-anchor="middle" x="321.25" y="-649.13" font-family="Helvetica,sans-Serif" font-size="12.00">APP_Init</text>
</a>
</g>
</g>
<!-- Node2&#45;&gt;Node3 -->
<g id="edge2_Node000002_Node000003" class="edge">
<title>Node2&#45;&gt;Node3</title>
<g id="a_edge2_Node000002_Node000003"><a xlink:title=" ">
<path fill="none" stroke="#63b8ff" d="M425.16,-608.87C421.12,-610.36 417.1,-611.89 413.25,-613.4 390.61,-622.32 365.3,-633.55 347.14,-641.84"/>
<polygon fill="#63b8ff" stroke="#63b8ff" points="426.18,-612.22 434.4,-605.54 423.81,-605.64 426.18,-612.22"/>
</a>
</g>
</g>
<!-- Node4 -->
<g id="Node000004" class="node">
<title>Node4</title>
<g id="a_Node000004"><a xlink:href="main_8c.html#a840291bc02cba5474a4cb46a9b9566fe" target="_top" xlink:title="The application entry point.">
<polygon fill="white" stroke="#666666" points="42.25,-299.53 0,-299.53 0,-277.28 42.25,-277.28 42.25,-299.53"/>
<text xml:space="preserve" text-anchor="middle" x="21.12" y="-284.13" font-family="Helvetica,sans-Serif" font-size="12.00">main</text>
</a>
</g>
</g>
<!-- Node3&#45;&gt;Node4 -->
<g id="edge3_Node000003_Node000004" class="edge">
<title>Node3&#45;&gt;Node4</title>
<g id="a_edge3_Node000003_Node000004"><a xlink:title=" ">
<path fill="none" stroke="#63b8ff" d="M287.54,-636.42C235.64,-607.84 134.53,-545.24 78.25,-464.4 40.5,-410.18 27.16,-329.26 23.39,-299.72"/>
<polygon fill="#63b8ff" stroke="#63b8ff" points="285.75,-639.43 296.21,-641.12 289.08,-633.28 285.75,-639.43"/>
</a>
</g>
</g>
<!-- Node6 -->
<g id="Node000006" class="node">
<title>Node6</title>
<g id="a_Node000006"><a xlink:href="app__can__protocol_8c.html#af389bd7cff6ae0b5df76c2feb46f25f6" target="_top" xlink:title="初始化 CAN 应用协议（按持久化参数配置 BSP）">
<polygon fill="white" stroke="#666666" points="519.62,-764.53 423.38,-764.53 423.38,-742.28 519.62,-742.28 519.62,-764.53"/>
<text xml:space="preserve" text-anchor="middle" x="471.5" y="-749.13" font-family="Helvetica,sans-Serif" font-size="12.00">APP_CAN_Init</text>
</a>
</g>
</g>
<!-- Node5&#45;&gt;Node6 -->
<g id="edge5_Node000005_Node000006" class="edge">
<title>Node5&#45;&gt;Node6</title>
<g id="a_edge5_Node000005_Node000006"><a xlink:title=" ">
<path fill="none" stroke="#63b8ff" d="M573.3,-753.4C555.75,-753.4 536.75,-753.4 520.02,-753.4"/>
<polygon fill="#63b8ff" stroke="#63b8ff" points="573.06,-756.9 583.06,-753.4 573.06,-749.9 573.06,-756.9"/>
</a>
</g>
</g>
<!-- Node6&#45;&gt;Node3 -->
<g id="edge9_Node000006_Node000003" class="edge">
<title>Node6&#45;&gt;Node3</title>
<g id="a_edge9_Node000006_Node000003"><a xlink:title=" ">
<path fill="none" stroke="#63b8ff" d="M420.42,-737.22C417.96,-736.02 415.55,-734.75 413.25,-733.4 404.53,-728.31 357.7,-685.86 334.83,-664.95"/>
<polygon fill="#63b8ff" stroke="#63b8ff" points="418.85,-740.36 429.42,-741.18 421.67,-733.95 418.85,-740.36"/>
</a>
</g>
</g>
<!-- Node7 -->
<g id="Node000007" class="node">
<title>Node7</title>
<g id="a_Node000007"><a xlink:href="app__can__protocol_8c.html#a6c2f3bebbd2597376fd87038ef059996" target="_top" xlink:title="后台轮询：处理通信参数变更后的重新初始化">
<polygon fill="white" stroke="#666666" points="372,-734.53 270.5,-734.53 270.5,-712.28 372,-712.28 372,-734.53"/>
<text xml:space="preserve" text-anchor="middle" x="321.25" y="-719.13" font-family="Helvetica,sans-Serif" font-size="12.00">APP_CAN_Poll</text>
</a>
</g>
</g>
<!-- Node6&#45;&gt;Node7 -->
<g id="edge6_Node000006_Node000007" class="edge">
<title>Node6&#45;&gt;Node7</title>
<g id="a_edge6_Node000006_Node000007"><a xlink:title=" ">
<path fill="none" stroke="#63b8ff" d="M411.92,-741.55C398.86,-738.91 385.13,-736.13 372.44,-733.56"/>
<polygon fill="#63b8ff" stroke="#63b8ff" points="411.21,-744.97 421.7,-743.53 412.59,-738.11 411.21,-744.97"/>
</a>
</g>
</g>
<!-- Node8 -->
<g id="Node000008" class="node">
<title>Node8</title>
<g id="a_Node000008"><a xlink:href="app__main_8c.html#a6709d26bb67f905916b7c7f048b8396c" target="_top" xlink:title="后台超级循环体（main 的 while(1) 内调用）">
<polygon fill="white" stroke="#666666" points="191,-683.53 116.5,-683.53 116.5,-661.28 191,-661.28 191,-683.53"/>
<text xml:space="preserve" text-anchor="middle" x="153.75" y="-668.13" font-family="Helvetica,sans-Serif" font-size="12.00">APP_Loop</text>
</a>
</g>
</g>
<!-- Node7&#45;&gt;Node8 -->
<g id="edge7_Node000007_Node000008" class="edge">
<title>Node7&#45;&gt;Node8</title>
<g id="a_edge7_Node000007_Node000008"><a xlink:title=" ">
<path fill="none" stroke="#63b8ff" d="M272.02,-708.54C246.25,-700.6 215.04,-690.98 191.3,-683.67"/>
<polygon fill="#63b8ff" stroke="#63b8ff" points="270.66,-711.78 281.25,-711.38 272.72,-705.09 270.66,-711.78"/>
</a>
</g>
</g>
<!-- Node8&#45;&gt;Node4 -->
<g id="edge8_Node000008_Node000004" class="edge">
<title>Node8&#45;&gt;Node4</title>
<g id="a_edge8_Node000008_Node000004"><a xlink:title=" ">
<path fill="none" stroke="#63b8ff" d="M137.64,-651.87C120.75,-627.95 93.73,-586.68 78.25,-547.4 42.23,-456.01 27.25,-336.92 23.27,-299.89"/>
<polygon fill="#63b8ff" stroke="#63b8ff" points="134.64,-653.69 143.32,-659.77 140.33,-649.61 134.64,-653.69"/>
</a>
</g>
</g>
<!-- Node9&#45;&gt;Node3 -->
<g id="edge11_Node000009_Node000003" class="edge">
<title>Node9&#45;&gt;Node3</title>
<g id="a_edge11_Node000009_Node000003"><a xlink:title=" ">
<path fill="none" stroke="#63b8ff" d="M410.18,-665.26C390.54,-662.61 369.55,-659.78 353.01,-657.55"/>
<polygon fill="#63b8ff" stroke="#63b8ff" points="409.67,-668.73 420.05,-666.6 410.6,-661.79 409.67,-668.73"/>
</a>
</g>
</g>
<!-- Node10&#45;&gt;Node3 -->
<g id="edge13_Node000010_Node000003" class="edge">
<title>Node10&#45;&gt;Node3</title>
<g id="a_edge13_Node000010_Node000003"><a xlink:title=" ">
<path fill="none" stroke="#63b8ff" d="M408.52,-641.76C389.43,-644.34 369.24,-647.06 353.2,-649.23"/>
<polygon fill="#63b8ff" stroke="#63b8ff" points="408.95,-645.24 418.4,-640.43 408.02,-638.3 408.95,-645.24"/>
</a>
</g>
</g>
<!-- Node11&#45;&gt;Node3 -->
<g id="edge15_Node000011_Node000003" class="edge">
<title>Node11&#45;&gt;Node3</title>
<g id="a_edge15_Node000011_Node000003"><a xlink:title=" ">
<path fill="none" stroke="#63b8ff" d="M425.16,-697.93C421.12,-696.44 417.1,-694.92 413.25,-693.4 390.61,-684.49 365.3,-673.26 347.14,-664.97"/>
<polygon fill="#63b8ff" stroke="#63b8ff" points="423.81,-701.16 434.4,-701.26 426.18,-694.58 423.81,-701.16"/>
</a>
</g>
</g>
<!-- Node15&#45;&gt;Node4 -->
<g id="edge20_Node000015_Node000004" class="edge">
<title>Node15&#45;&gt;Node4</title>
<g id="a_edge20_Node000015_Node000004"><a xlink:title=" ">
<path fill="none" stroke="#63b8ff" d="M94.92,-430.63C88.85,-427.6 83.13,-423.9 78.25,-419.4 41.87,-385.86 28.08,-324.77 23.78,-299.65"/>
<polygon fill="#63b8ff" stroke="#63b8ff" points="93.4,-433.79 103.97,-434.53 96.17,-427.36 93.4,-433.79"/>
</a>
</g>
</g>
<!-- Node16&#45;&gt;Node4 -->
<g id="edge22_Node000016_Node000004" class="edge">
<title>Node16&#45;&gt;Node4</title>
<g id="a_edge22_Node000016_Node000004"><a xlink:title=" ">
<path fill="none" stroke="#63b8ff" d="M261.58,-415.31C209.38,-420.95 133.03,-421.09 78.25,-386.4 46.45,-366.26 30.78,-321.21 24.93,-299.94"/>
<polygon fill="#63b8ff" stroke="#63b8ff" points="261.98,-418.79 271.49,-414.13 261.15,-411.84 261.98,-418.79"/>
</a>
</g>
</g>
<!-- Node17&#45;&gt;Node4 -->
<g id="edge24_Node000017_Node000004" class="edge">
<title>Node17&#45;&gt;Node4</title>
<g id="a_edge24_Node000017_Node000004"><a xlink:title=" ">
<path fill="none" stroke="#63b8ff" d="M97.49,-350.9C90.81,-348.15 84.24,-344.99 78.25,-341.4 59.4,-330.1 41.67,-311.52 31.36,-299.64"/>
<polygon fill="#63b8ff" stroke="#63b8ff" points="96.01,-354.08 106.6,-354.35 98.49,-347.53 96.01,-354.08"/>
</a>
</g>
</g>
<!-- Node18&#45;&gt;Node4 -->
<g id="edge26_Node000018_Node000004" class="edge">
<title>Node18&#45;&gt;Node4</title>
<g id="a_edge26_Node000018_Node000004"><a xlink:title=" ">
<path fill="none" stroke="#63b8ff" d="M253.47,-326.88C204.49,-325.35 136.63,-320.87 78.25,-308.4 66.11,-305.81 53.02,-301.25 42.54,-297.14"/>
<polygon fill="#63b8ff" stroke="#63b8ff" points="253.27,-330.37 263.36,-327.15 253.46,-323.37 253.27,-330.37"/>
</a>
</g>
</g>
<!-- Node19&#45;&gt;Node4 -->
<g id="edge28_Node000019_Node000004" class="edge">
<title>Node19&#45;&gt;Node4</title>
<g id="a_edge28_Node000019_Node000004"><a xlink:title=" ">
<path fill="none" stroke="#63b8ff" d="M85.86,-288.4C70.03,-288.4 54.33,-288.4 42.47,-288.4"/>
<polygon fill="#63b8ff" stroke="#63b8ff" points="85.84,-291.9 95.84,-288.4 85.84,-284.9 85.84,-291.9"/>
</a>
</g>
</g>
<!-- Node20&#45;&gt;Node4 -->
<g id="edge30_Node000020_Node000004" class="edge">
<title>Node20&#45;&gt;Node4</title>
<g id="a_edge30_Node000020_Node000004"><a xlink:title=" ">
<path fill="none" stroke="#63b8ff" d="M253.47,-249.93C204.49,-251.45 136.63,-255.94 78.25,-268.4 66.11,-270.99 53.02,-275.55 42.54,-279.66"/>
<polygon fill="#63b8ff" stroke="#63b8ff" points="253.46,-253.43 263.36,-249.66 253.27,-246.43 253.46,-253.43"/>
</a>
</g>
</g>
<!-- Node21&#45;&gt;Node4 -->
<g id="edge32_Node000021_Node000004" class="edge">
<title>Node21&#45;&gt;Node4</title>
<g id="a_edge32_Node000021_Node000004"><a xlink:title=" ">
<path fill="none" stroke="#63b8ff" d="M98.5,-225.5C91.47,-228.34 84.54,-231.63 78.25,-235.4 59.4,-246.71 41.67,-265.28 31.36,-277.17"/>
<polygon fill="#63b8ff" stroke="#63b8ff" points="99.24,-228.95 107.38,-222.17 96.79,-222.4 99.24,-228.95"/>
</a>
</g>
</g>
<!-- Node22&#45;&gt;Node4 -->
<g id="edge34_Node000022_Node000004" class="edge">
<title>Node22&#45;&gt;Node4</title>
<g id="a_edge34_Node000022_Node000004"><a xlink:title=" ">
<path fill="none" stroke="#63b8ff" d="M414.7,-167.68C320.08,-162.41 133.09,-156.82 78.25,-190.4 45.98,-210.17 30.47,-255.83 24.79,-277.11"/>
<polygon fill="#63b8ff" stroke="#63b8ff" points="414.34,-171.16 424.53,-168.25 414.75,-164.18 414.34,-171.16"/>
</a>
</g>
</g>
<!-- Node23&#45;&gt;Node4 -->
<g id="edge36_Node000023_Node000004" class="edge">
<title>Node23&#45;&gt;Node4</title>
<g id="a_edge36_Node000023_Node000004"><a xlink:title=" ">
<path fill="none" stroke="#63b8ff" d="M264.55,-123.19C211.5,-117.59 131.97,-117.87 78.25,-157.4 38.2,-186.88 26.44,-250.83 23.24,-276.94"/>
<polygon fill="#63b8ff" stroke="#63b8ff" points="263.94,-126.64 274.28,-124.32 264.75,-119.69 263.94,-126.64"/>
</a>
</g>
</g>
<!-- Node24&#45;&gt;Node4 -->
<g id="edge38_Node000024_Node000004" class="edge">
<title>Node24&#45;&gt;Node4</title>
<g id="a_edge38_Node000024_Node000004"><a xlink:title=" ">
<path fill="none" stroke="#63b8ff" d="M88.3,-111.37C84.67,-113.71 81.27,-116.37 78.25,-119.4 33.07,-164.72 24.26,-247.25 22.54,-277.18"/>
<polygon fill="#63b8ff" stroke="#63b8ff" points="89.94,-114.47 97.06,-106.62 86.6,-108.31 89.94,-114.47"/>
</a>
</g>
</g>
<!-- Node25&#45;&gt;Node4 -->
<g id="edge40_Node000025_Node000004" class="edge">
<title>Node25&#45;&gt;Node4</title>
<g id="a_edge40_Node000025_Node000004"><a xlink:title=" ">
<path fill="none" stroke="#63b8ff" d="M585.66,-39.59C481.94,-9.58 228.44,45.86 78.25,-74.4 45.72,-100.45 28.01,-236.1 23.37,-276.83"/>
<polygon fill="#63b8ff" stroke="#63b8ff" points="584.65,-42.94 595.23,-42.42 586.63,-36.23 584.65,-42.94"/>
</a>
</g>
</g>
</g>
</svg>

<g id="navigator" transform="translate(0 0)" fill="#404254">
  <rect fill="#f2f5e9" fill-opacity="0.5" stroke="#606060" stroke-width=".5" x="0" y="0" width="60" height="60"/>
  <use id="zoomplus" xlink:href="#zoomPlus" x="17" y="9" onmousedown="handleZoom(evt,'in')"/>
  <use id="zoomminus" xlink:href="#zoomMin" x="42" y="9" onmousedown="handleZoom(evt,'out')"/>
  <use id="reset" xlink:href="#resetDef" x="30" y="36" onmousedown="handleReset()"/>
   <use id="arrowup" xlink:href="#arrowUp" x="0" y="0" onmousedown="handlePan(0,-1)"/>
  <use id="arrowright" xlink:href="#arrowRight" x="0" y="0" onmousedown="handlePan(1,0)"/>
  <use id="arrowdown" xlink:href="#arrowDown" x="0" y="0" onmousedown="handlePan(0,1)"/>
  <use id="arrowleft" xlink:href="#arrowLeft" x="0" y="0" onmousedown="handlePan(-1,0)"/>
</g>
<svg viewBox="0 0 15 15" width="100%" height="30px" preserveAspectRatio="xMaxYMin meet">
 <g id="arrow_out" transform="scale(0.3 0.3)">
  <a xlink:href="main_8c_a1730ffe1e560465665eb47d9264826f9_icgraph_org.svg" target="_base">
   <rect id="button" ry="5" rx="5" y="6" x="6" height="38" width="38"
        fill="#f2f5e9" fill-opacity="0.5" stroke="#606060" stroke-width="1.0"/>
   <path id="arrow"
     d="M 11.500037,31.436501 C 11.940474,20.09759 22.043105,11.32322 32.158766,21.979434 L 37.068811,17.246167 C 37.068811,17.246167 37.088388,32 37.088388,32 L 22.160133,31.978069 C 22.160133,31.978069 26.997745,27.140456 26.997745,27.140456 C 18.528582,18.264221 13.291696,25.230495 11.500037,31.436501 z"
     style="fill:#404040;"/>
  </a>
 </g>
</svg>

<style type='text/css'>
<![CDATA[
[data-mouse-over-selected='false'] { opacity: 0.7; }
[data-mouse-over-selected='true']  { opacity: 1.0; }
]]>
</style>
<script type="application/ecmascript"><![CDATA[
document.addEventListener('DOMContentLoaded', (event) => {
  highlightEdges();
  highlightAdjacentNodes();
});
]]></script>
</svg>
