<?xml version="1.0" encoding="UTF-8" standalone="no"?>
<!DOCTYPE svg PUBLIC "-//W3C//DTD SVG 1.1//EN"
 "http://www.w3.org/Graphics/SVG/1.1/DTD/svg11.dtd">
<!-- Generated by graphviz version 15.1.0 (20260618.0150)
 -->
<!-- Title: Core/Src/main.c Pages: 1 -->
<!--zoomable 205 -->

<svg id="main" version="1.1" xmlns="http://www.w3.org/2000/svg" xmlns:xlink="http://www.w3.org/1999/xlink" xml:space="preserve" onload="init(evt)">

<style type="text/css"><![CDATA[
.node, .edge {opacity: 0.7;}
.node.selected, .edge.selected {opacity: 1;}
.edge:hover path { stroke: red; }
.edge:hover polygon { stroke: red; fill: red; }
]]></style>

<defs>
  <circle id="rim" cx="0" cy="0" r="7"/>
  <circle id="rim2" cx="0" cy="0" r="3.5"/>
  <g id="zoomPlus">
    <use xlink:href="#rim" fill="#404040"><set attributeName="fill" to="#808080" begin="zoomplus.mouseover" end="zoomplus.mouseout"/></use>
    <path d="M-4,0h8M0,-4v8" fill="none" stroke="white" stroke-width="1.5" pointer-events="none"/>
  </g>
  <g id="zoomMin">
    <use xlink:href="#rim" fill="#404040"><set attributeName="fill" to="#808080" begin="zoomminus.mouseover" end="zoomminus.mouseout"/></use>
    <path d="M-4,0h8" fill="none" stroke="white" stroke-width="1.5" pointer-events="none"/>
  </g>
  <g id="arrowUp" transform="translate(30 24)">
    <use xlink:href="#rim"/>
    <path pointer-events="none" fill="none" stroke="white" stroke-width="1.5" d="M0,-3.0v7 M-2.5,-0.5L0,-3.0L2.5,-0.5"/>
  </g>
  <g id="arrowRight" transform="rotate(90) translate(36 -43)">
    <use xlink:href="#rim"/>
    <path pointer-events="none" fill="none" stroke="white" stroke-width="1.5" d="M0,-3.0v7 M-2.5,-0.5L0,-3.0L2.5,-0.5"/>
  </g>
  <g id="arrowDown" transform="rotate(180) translate(-30 -48)">
    <use xlink:href="#rim"/>
    <path pointer-events="none" fill="none" stroke="white" stroke-width="1.5" d="M0,-3.0v7 M-2.5,-0.5L0,-3.0L2.5,-0.5"/>
  </g>
  <g id="arrowLeft" transform="rotate(270) translate(-36 17)">
    <use xlink:href="#rim"/>
    <path pointer-events="none" fill="none" stroke="white" stroke-width="1.5" d="M0,-3.0v7 M-2.5,-0.5L0,-3.0L2.5,-0.5"/>
  </g>
  <g id="resetDef">
    <use xlink:href="#rim2" fill="#404040"><set attributeName="fill" to="#808080" begin="reset.mouseover" end="reset.mouseout"/></use>
  </g>
</defs>
<script type="application/ecmascript">
var viewWidth = 580;
var viewHeight = 205;
var sectionId = 'dynsection-0';
</script>
<script type="application/ecmascript" xlink:href="svg.min.js"/>
<svg id="graph" class="graph">
<g id="viewport">
<title>Core/Src/main.c</title>
<!-- Node1 -->
<g id="Node000001" class="node">
<title>Node1</title>
<g id="a_Node000001"><a xlink:title=": Main program body">
<polygon fill="#999999" stroke="#666666" points="307.35,-197 205.85,-197 205.85,-174.75 307.35,-174.75 307.35,-197"/>
<text xml:space="preserve" text-anchor="middle" x="256.6" y="-181.6" font-family="Helvetica,sans-Serif" font-size="12.00">Core/Src/main.c</text>
</a>
</g>
</g>
<!-- Node2 -->
<g id="Node000002" class="node">
<title>Node2</title>
<g id="a_Node000002"><a xlink:href="main_8h.html" target="_top" xlink:title=": Header for main.c file.">
<polygon fill="white" stroke="#666666" points="247.6,-80.5 195.6,-80.5 195.6,-58.25 247.6,-58.25 247.6,-80.5"/>
<text xml:space="preserve" text-anchor="middle" x="221.6" y="-65.1" font-family="Helvetica,sans-Serif" font-size="12.00">main.h</text>
</a>
</g>
</g>
<!-- Node1&#45;&gt;Node2 -->
<g id="edge1_Node000001_Node000002" class="edge">
<title>Node1&#45;&gt;Node2</title>
<g id="a_edge1_Node000001_Node000002"><a xlink:title=" ">
<path fill="none" stroke="#63b8ff" d="M205.38,-182.76C140.45,-178.89 33.98,-168.11 9.6,-138.75 -38.74,-80.56 110.57,-71.37 183.7,-70.28"/>
<polygon fill="#63b8ff" stroke="#63b8ff" points="183.68,-73.78 193.65,-70.18 183.61,-66.78 183.68,-73.78"/>
</a>
</g>
</g>
<!-- Node4 -->
<g id="Node000004" class="node">
<title>Node4</title>
<g id="a_Node000004"><a xlink:href="adc_8h.html" target="_top" xlink:title="This file contains all the function prototypes for the adc.c file">
<polygon fill="white" stroke="#666666" points="64.22,-138.75 18.97,-138.75 18.97,-116.5 64.22,-116.5 64.22,-138.75"/>
<text xml:space="preserve" text-anchor="middle" x="41.6" y="-123.35" font-family="Helvetica,sans-Serif" font-size="12.00">adc.h</text>
</a>
</g>
</g>
<!-- Node1&#45;&gt;Node4 -->
<g id="edge3_Node000001_Node000004" class="edge">
<title>Node1&#45;&gt;Node4</title>
<g id="a_edge3_Node000001_Node000004"><a xlink:title=" ">
<path fill="none" stroke="#63b8ff" d="M210.61,-174.29C175.72,-166.05 126.37,-153.95 75.45,-139.45"/>
<polygon fill="#63b8ff" stroke="#63b8ff" points="76.6,-136.14 66.02,-136.74 74.66,-142.87 76.6,-136.14"/>
</a>
</g>
</g>
<!-- Node5 -->
<g id="Node000005" class="node">
<title>Node5</title>
<g id="a_Node000005"><a xlink:href="fdcan_8h.html" target="_top" xlink:title="This file contains all the function prototypes for the fdcan.c file">
<polygon fill="white" stroke="#666666" points="137.1,-138.75 82.1,-138.75 82.1,-116.5 137.1,-116.5 137.1,-138.75"/>
<text xml:space="preserve" text-anchor="middle" x="109.6" y="-123.35" font-family="Helvetica,sans-Serif" font-size="12.00">fdcan.h</text>
</a>
</g>
</g>
<!-- Node1&#45;&gt;Node5 -->
<g id="edge5_Node000001_Node000005" class="edge">
<title>Node1&#45;&gt;Node5</title>
<g id="a_edge5_Node000001_Node000005"><a xlink:title=" ">
<path fill="none" stroke="#63b8ff" d="M228.95,-174.29C206.05,-165.53 173.28,-152.99 147.86,-143.27"/>
<polygon fill="#63b8ff" stroke="#63b8ff" points="149.12,-140 138.53,-139.7 146.62,-146.54 149.12,-140"/>
</a>
</g>
</g>
<!-- Node6 -->
<g id="Node000006" class="node">
<title>Node6</title>
<g id="a_Node000006"><a xlink:href="opamp_8h.html" target="_top" xlink:title="This file contains all the function prototypes for the opamp.c file">
<polygon fill="white" stroke="#666666" points="217.85,-138.75 155.35,-138.75 155.35,-116.5 217.85,-116.5 217.85,-138.75"/>
<text xml:space="preserve" text-anchor="middle" x="186.6" y="-123.35" font-family="Helvetica,sans-Serif" font-size="12.00">opamp.h</text>
</a>
</g>
</g>
<!-- Node1&#45;&gt;Node6 -->
<g id="edge7_Node000001_Node000006" class="edge">
<title>Node1&#45;&gt;Node6</title>
<g id="a_edge7_Node000001_Node000006"><a xlink:title=" ">
<path fill="none" stroke="#63b8ff" d="M243.43,-174.29C233.65,-166.44 220.09,-155.54 208.67,-146.36"/>
<polygon fill="#63b8ff" stroke="#63b8ff" points="210.87,-143.64 200.88,-140.11 206.49,-149.1 210.87,-143.64"/>
</a>
</g>
</g>
<!-- Node7 -->
<g id="Node000007" class="node">
<title>Node7</title>
<g id="a_Node000007"><a xlink:href="spi_8h.html" target="_top" xlink:title="This file contains all the function prototypes for the spi.c file">
<polygon fill="white" stroke="#666666" points="277.35,-138.75 235.85,-138.75 235.85,-116.5 277.35,-116.5 277.35,-138.75"/>
<text xml:space="preserve" text-anchor="middle" x="256.6" y="-123.35" font-family="Helvetica,sans-Serif" font-size="12.00">spi.h</text>
</a>
</g>
</g>
<!-- Node1&#45;&gt;Node7 -->
<g id="edge9_Node000001_Node000007" class="edge">
<title>Node1&#45;&gt;Node7</title>
<g id="a_edge9_Node000001_Node000007"><a xlink:title=" ">
<path fill="none" stroke="#63b8ff" d="M256.6,-174.29C256.6,-167.62 256.6,-158.74 256.6,-150.59"/>
<polygon fill="#63b8ff" stroke="#63b8ff" points="260.1,-150.67 256.6,-140.67 253.1,-150.67 260.1,-150.67"/>
</a>
</g>
</g>
<!-- Node8 -->
<g id="Node000008" class="node">
<title>Node8</title>
<g id="a_Node000008"><a xlink:href="tim_8h.html" target="_top" xlink:title="This file contains all the function prototypes for the tim.c file">
<polygon fill="white" stroke="#666666" points="337.35,-138.75 295.85,-138.75 295.85,-116.5 337.35,-116.5 337.35,-138.75"/>
<text xml:space="preserve" text-anchor="middle" x="316.6" y="-123.35" font-family="Helvetica,sans-Serif" font-size="12.00">tim.h</text>
</a>
</g>
</g>
<!-- Node1&#45;&gt;Node8 -->
<g id="edge11_Node000001_Node000008" class="edge">
<title>Node1&#45;&gt;Node8</title>
<g id="a_edge11_Node000001_Node000008"><a xlink:title=" ">
<path fill="none" stroke="#63b8ff" d="M267.88,-174.29C276.09,-166.6 287.42,-155.97 297.09,-146.91"/>
<polygon fill="#63b8ff" stroke="#63b8ff" points="299.35,-149.59 304.26,-140.19 294.57,-144.48 299.35,-149.59"/>
</a>
</g>
</g>
<!-- Node9 -->
<g id="Node000009" class="node">
<title>Node9</title>
<g id="a_Node000009"><a xlink:href="usart_8h.html" target="_top" xlink:title="This file contains all the function prototypes for the usart.c file">
<polygon fill="white" stroke="#666666" points="407.6,-138.75 355.6,-138.75 355.6,-116.5 407.6,-116.5 407.6,-138.75"/>
<text xml:space="preserve" text-anchor="middle" x="381.6" y="-123.35" font-family="Helvetica,sans-Serif" font-size="12.00">usart.h</text>
</a>
</g>
</g>
<!-- Node1&#45;&gt;Node9 -->
<g id="edge13_Node000001_Node000009" class="edge">
<title>Node1&#45;&gt;Node9</title>
<g id="a_edge13_Node000001_Node000009"><a xlink:title=" ">
<path fill="none" stroke="#63b8ff" d="M280.11,-174.29C299.22,-165.69 326.45,-153.44 347.89,-143.79"/>
<polygon fill="#63b8ff" stroke="#63b8ff" points="349.13,-147.07 356.81,-139.78 346.25,-140.69 349.13,-147.07"/>
</a>
</g>
</g>
<!-- Node10 -->
<g id="Node000010" class="node">
<title>Node10</title>
<g id="a_Node000010"><a xlink:href="gpio_8h.html" target="_top" xlink:title="This file contains all the function prototypes for the gpio.c file">
<polygon fill="white" stroke="#666666" points="475.1,-138.75 426.1,-138.75 426.1,-116.5 475.1,-116.5 475.1,-138.75"/>
<text xml:space="preserve" text-anchor="middle" x="450.6" y="-123.35" font-family="Helvetica,sans-Serif" font-size="12.00">gpio.h</text>
</a>
</g>
</g>
<!-- Node1&#45;&gt;Node10 -->
<g id="edge15_Node000001_Node000010" class="edge">
<title>Node1&#45;&gt;Node10</title>
<g id="a_edge15_Node000001_Node000010"><a xlink:title=" ">
<path fill="none" stroke="#63b8ff" d="M293.48,-174.34C323.65,-165.7 367.69,-153.04 414.95,-139.22"/>
<polygon fill="#63b8ff" stroke="#63b8ff" points="415.66,-142.66 424.27,-136.49 413.69,-135.94 415.66,-142.66"/>
</a>
</g>
</g>
<!-- Node11 -->
<g id="Node000011" class="node">
<title>Node11</title>
<g id="a_Node000011"><a xlink:href="app__main_8h.html" target="_top" xlink:title="应用入口模块头文件（前后台调度）">
<polygon fill="white" stroke="#666666" points="572.1,-138.75 493.1,-138.75 493.1,-116.5 572.1,-116.5 572.1,-138.75"/>
<text xml:space="preserve" text-anchor="middle" x="532.6" y="-123.35" font-family="Helvetica,sans-Serif" font-size="12.00">app_main.h</text>
</a>
</g>
</g>
<!-- Node1&#45;&gt;Node11 -->
<g id="edge17_Node000001_Node000011" class="edge">
<title>Node1&#45;&gt;Node11</title>
<g id="a_edge17_Node000001_Node000011"><a xlink:title=" ">
<path fill="none" stroke="#63b8ff" d="M307.78,-174.65C351.57,-165.87 416.58,-152.77 481.88,-139.3"/>
<polygon fill="#63b8ff" stroke="#63b8ff" points="482.22,-142.8 491.31,-137.35 480.8,-135.95 482.22,-142.8"/>
</a>
</g>
</g>
<!-- Node3 -->
<g id="Node000003" class="node">
<title>Node3</title>
<g id="a_Node000003"><a xlink:title=" ">
<polygon fill="#e0e0e0" stroke="#999999" points="274.97,-22.25 168.22,-22.25 168.22,0 274.97,0 274.97,-22.25"/>
<text xml:space="preserve" text-anchor="middle" x="221.6" y="-6.85" font-family="Helvetica,sans-Serif" font-size="12.00">stm32g4xx_hal.h</text>
</a>
</g>
</g>
<!-- Node2&#45;&gt;Node3 -->
<g id="edge2_Node000002_Node000003" class="edge">
<title>Node2&#45;&gt;Node3</title>
<g id="a_edge2_Node000002_Node000003"><a xlink:title=" ">
<path fill="none" stroke="#63b8ff" d="M221.6,-57.79C221.6,-51.12 221.6,-42.24 221.6,-34.09"/>
<polygon fill="#63b8ff" stroke="#63b8ff" points="225.1,-34.17 221.6,-24.17 218.1,-34.17 225.1,-34.17"/>
</a>
</g>
</g>
<!-- Node4&#45;&gt;Node2 -->
<g id="edge4_Node000004_Node000002" class="edge">
<title>Node4&#45;&gt;Node2</title>
<g id="a_edge4_Node000004_Node000002"><a xlink:title=" ">
<path fill="none" stroke="#63b8ff" d="M64.61,-119.07C67.3,-118.19 70.01,-117.32 72.6,-116.5 110.58,-104.42 154.14,-90.98 184.31,-81.74"/>
<polygon fill="#63b8ff" stroke="#63b8ff" points="185.19,-85.13 193.73,-78.86 183.15,-78.44 185.19,-85.13"/>
</a>
</g>
</g>
<!-- Node5&#45;&gt;Node2 -->
<g id="edge6_Node000005_Node000002" class="edge">
<title>Node5&#45;&gt;Node2</title>
<g id="a_edge6_Node000005_Node000002"><a xlink:title=" ">
<path fill="none" stroke="#63b8ff" d="M130.66,-116.04C147.56,-107.56 171.52,-95.53 190.6,-85.94"/>
<polygon fill="#63b8ff" stroke="#63b8ff" points="191.91,-89.2 199.27,-81.59 188.76,-82.95 191.91,-89.2"/>
</a>
</g>
</g>
<!-- Node6&#45;&gt;Node2 -->
<g id="edge8_Node000006_Node000002" class="edge">
<title>Node6&#45;&gt;Node2</title>
<g id="a_edge8_Node000006_Node000002"><a xlink:title=" ">
<path fill="none" stroke="#63b8ff" d="M193.18,-116.04C197.63,-108.9 203.64,-99.23 208.99,-90.63"/>
<polygon fill="#63b8ff" stroke="#63b8ff" points="211.93,-92.53 214.24,-82.19 205.99,-88.83 211.93,-92.53"/>
</a>
</g>
</g>
<!-- Node7&#45;&gt;Node2 -->
<g id="edge10_Node000007_Node000002" class="edge">
<title>Node7&#45;&gt;Node2</title>
<g id="a_edge10_Node000007_Node000002"><a xlink:title=" ">
<path fill="none" stroke="#63b8ff" d="M250.01,-116.04C245.56,-108.9 239.55,-99.23 234.2,-90.63"/>
<polygon fill="#63b8ff" stroke="#63b8ff" points="237.2,-88.83 228.95,-82.19 231.26,-92.53 237.2,-88.83"/>
</a>
</g>
</g>
<!-- Node8&#45;&gt;Node2 -->
<g id="edge12_Node000008_Node000002" class="edge">
<title>Node8&#45;&gt;Node2</title>
<g id="a_edge12_Node000008_Node000002"><a xlink:title=" ">
<path fill="none" stroke="#63b8ff" d="M298.73,-116.04C284.79,-107.8 265.2,-96.19 249.25,-86.75"/>
<polygon fill="#63b8ff" stroke="#63b8ff" points="251.07,-83.76 240.69,-81.68 247.51,-89.79 251.07,-83.76"/>
</a>
</g>
</g>
<!-- Node9&#45;&gt;Node2 -->
<g id="edge14_Node000009_Node000002" class="edge">
<title>Node9&#45;&gt;Node2</title>
<g id="a_edge14_Node000009_Node000002"><a xlink:title=" ">
<path fill="none" stroke="#63b8ff" d="M355.17,-117.34C328.89,-108.09 288.32,-93.83 258.78,-83.45"/>
<polygon fill="#63b8ff" stroke="#63b8ff" points="260.08,-80.19 249.48,-80.18 257.76,-86.8 260.08,-80.19"/>
</a>
</g>
</g>
<!-- Node10&#45;&gt;Node2 -->
<g id="edge16_Node000010_Node000002" class="edge">
<title>Node10&#45;&gt;Node2</title>
<g id="a_edge16_Node000010_Node000002"><a xlink:title=" ">
<path fill="none" stroke="#63b8ff" d="M425.76,-119.05C422.68,-118.16 419.57,-117.29 416.6,-116.5 362.11,-101.96 298.43,-87.33 259.05,-78.57"/>
<polygon fill="#63b8ff" stroke="#63b8ff" points="259.89,-75.17 249.37,-76.42 258.38,-82 259.89,-75.17"/>
</a>
</g>
</g>
</g>
</svg>

<g id="navigator" transform="translate(0 0)" fill="#404254">
  <rect fill="#f2f5e9" fill-opacity="0.5" stroke="#606060" stroke-width=".5" x="0" y="0" width="60" height="60"/>
  <use id="zoomplus" xlink:href="#zoomPlus" x="17" y="9" onmousedown="handleZoom(evt,'in')"/>
  <use id="zoomminus" xlink:href="#zoomMin" x="42" y="9" onmousedown="handleZoom(evt,'out')"/>
  <use id="reset" xlink:href="#resetDef" x="30" y="36" onmousedown="handleReset()"/>
   <use id="arrowup" xlink:href="#arrowUp" x="0" y="0" onmousedown="handlePan(0,-1)"/>
  <use id="arrowright" xlink:href="#arrowRight" x="0" y="0" onmousedown="handlePan(1,0)"/>
  <use id="arrowdown" xlink:href="#arrowDown" x="0" y="0" onmousedown="handlePan(0,1)"/>
  <use id="arrowleft" xlink:href="#arrowLeft" x="0" y="0" onmousedown="handlePan(-1,0)"/>
</g>
<svg viewBox="0 0 15 15" width="100%" height="30px" preserveAspectRatio="xMaxYMin meet">
 <g id="arrow_out" transform="scale(0.3 0.3)">
  <a xlink:href="main_8c__incl_org.svg" target="_base">
   <rect id="button" ry="5" rx="5" y="6" x="6" height="38" width="38"
        fill="#f2f5e9" fill-opacity="0.5" stroke="#606060" stroke-width="1.0"/>
   <path id="arrow"
     d="M 11.500037,31.436501 C 11.940474,20.09759 22.043105,11.32322 32.158766,21.979434 L 37.068811,17.246167 C 37.068811,17.246167 37.088388,32 37.088388,32 L 22.160133,31.978069 C 22.160133,31.978069 26.997745,27.140456 26.997745,27.140456 C 18.528582,18.264221 13.291696,25.230495 11.500037,31.436501 z"
     style="fill:#404040;"/>
  </a>
 </g>
</svg>

<style type='text/css'>
<![CDATA[
[data-mouse-over-selected='false'] { opacity: 0.7; }
[data-mouse-over-selected='true']  { opacity: 1.0; }
]]>
</style>
<script type="application/ecmascript"><![CDATA[
document.addEventListener('DOMContentLoaded', (event) => {
  highlightEdges();
  highlightAdjacentNodes();
});
]]></script>
</svg>
