<?xml version="1.0" encoding="UTF-8" standalone="no"?>
<!DOCTYPE svg PUBLIC "-//W3C//DTD SVG 1.1//EN"
 "http://www.w3.org/Graphics/SVG/1.1/DTD/svg11.dtd">
<!-- Generated by graphviz version 15.1.0 (20260618.0150)
 -->
<!-- Title: MC_RebaseEncoder Pages: 1 -->
<svg width="608pt" height="110pt"
 viewBox="0.00 0.00 608.00 110.00" xmlns="http://www.w3.org/2000/svg" xmlns:xlink="http://www.w3.org/1999/xlink">
<g id="graph0" class="graph" transform="scale(1 1) rotate(0) translate(4 106.25)">
<title>MC_RebaseEncoder</title>
<!-- Node1 -->
<g id="Node000001" class="node">
<title>Node1</title>
<g id="a_Node000001"><a xlink:title="重建编码器多圈基准并保持用户位置连续（参数落盘后调用）">
<polygon fill="#999999" stroke="#666666" points="128.5,-62.25 0,-62.25 0,-40 128.5,-40 128.5,-62.25"/>
<text xml:space="preserve" text-anchor="middle" x="64.25" y="-46.85" font-family="Helvetica,sans-Serif" font-size="12.00">MC_RebaseEncoder</text>
</a>
</g>
</g>
<!-- Node2 -->
<g id="Node000002" class="node">
<title>Node2</title>
<g id="a_Node000002"><a xlink:href="bsp__encoder_8c.html#a9f9d4545ad55a3bc5bc15920257754d3" target="_top" xlink:title="预置编码器状态（上电首读，避免多圈计数误跳）">
<polygon fill="white" stroke="#666666" points="287,-102.25 164.5,-102.25 164.5,-80 287,-80 287,-102.25"/>
<text xml:space="preserve" text-anchor="middle" x="225.75" y="-86.85" font-family="Helvetica,sans-Serif" font-size="12.00">BSP_ENC_Preload</text>
</a>
</g>
</g>
<!-- Node1&#45;&gt;Node2 -->
<g id="edge1_Node000001_Node000002" class="edge">
<title>Node1&#45;&gt;Node2</title>
<g id="a_edge1_Node000001_Node000002"><a xlink:title=" ">
<path fill="none" stroke="#63b8ff" d="M111.38,-62.69C128.91,-67.09 149.1,-72.15 167.53,-76.78"/>
<polygon fill="#63b8ff" stroke="#63b8ff" points="166.42,-80.11 176.98,-79.14 168.13,-73.32 166.42,-80.11"/>
</a>
</g>
</g>
<!-- Node5 -->
<g id="Node000005" class="node">
<title>Node5</title>
<g id="a_Node000005"><a xlink:href="motor__ctrl_8c.html#a314b8aad615262b23be0463fa16b9ceb" target="_top" xlink:title="转子展开机械角 [rad]：整数圈 + 单圈角分离合成">
<polygon fill="white" stroke="#666666" points="271.62,-62.25 179.88,-62.25 179.88,-40 271.62,-40 271.62,-62.25"/>
<text xml:space="preserve" text-anchor="middle" x="225.75" y="-46.85" font-family="Helvetica,sans-Serif" font-size="12.00">MC_PosRotor</text>
</a>
</g>
</g>
<!-- Node1&#45;&gt;Node5 -->
<g id="edge4_Node000001_Node000005" class="edge">
<title>Node1&#45;&gt;Node5</title>
<g id="a_edge4_Node000001_Node000005"><a xlink:title=" ">
<path fill="none" stroke="#63b8ff" d="M128.75,-51.12C141.78,-51.12 155.43,-51.12 168.2,-51.12"/>
<polygon fill="#63b8ff" stroke="#63b8ff" points="168.13,-54.63 178.13,-51.13 168.13,-47.63 168.13,-54.63"/>
</a>
</g>
</g>
<!-- Node6 -->
<g id="Node000006" class="node">
<title>Node6</title>
<g id="a_Node000006"><a xlink:href="filter_8c.html#a92c4dfa4557978b294c448b59f485614" target="_top" xlink:title="预置 PLL 跟踪角度（上电对准编码器初值，避免速度冲击）">
<polygon fill="white" stroke="#666666" points="269,-22.25 182.5,-22.25 182.5,0 269,0 269,-22.25"/>
<text xml:space="preserve" text-anchor="middle" x="225.75" y="-6.85" font-family="Helvetica,sans-Serif" font-size="12.00">PLL_Preload</text>
</a>
</g>
</g>
<!-- Node1&#45;&gt;Node6 -->
<g id="edge5_Node000001_Node000006" class="edge">
<title>Node1&#45;&gt;Node6</title>
<g id="a_edge5_Node000001_Node000006"><a xlink:title=" ">
<path fill="none" stroke="#63b8ff" d="M111.38,-39.56C130.07,-34.87 151.78,-29.43 171.16,-24.56"/>
<polygon fill="#63b8ff" stroke="#63b8ff" points="171.95,-27.97 180.8,-22.15 170.25,-21.18 171.95,-27.97"/>
</a>
</g>
</g>
<!-- Node3 -->
<g id="Node000003" class="node">
<title>Node3</title>
<g id="a_Node000003"><a xlink:href="bsp__encoder_8c.html#a952d9a4a6bd64cde7ae4b60a8757c430" target="_top" xlink:title="读取一次编码器角度（ISR 安全，阻塞约 5us）">
<polygon fill="white" stroke="#666666" points="445.12,-102.25 335.38,-102.25 335.38,-80 445.12,-80 445.12,-102.25"/>
<text xml:space="preserve" text-anchor="middle" x="390.25" y="-86.85" font-family="Helvetica,sans-Serif" font-size="12.00">BSP_ENC_Read</text>
</a>
</g>
</g>
<!-- Node2&#45;&gt;Node3 -->
<g id="edge2_Node000002_Node000003" class="edge">
<title>Node2&#45;&gt;Node3</title>
<g id="a_edge2_Node000002_Node000003"><a xlink:title=" ">
<path fill="none" stroke="#63b8ff" d="M287.26,-91.12C299.16,-91.12 311.69,-91.12 323.75,-91.12"/>
<polygon fill="#63b8ff" stroke="#63b8ff" points="323.61,-94.63 333.61,-91.13 323.61,-87.63 323.61,-94.63"/>
</a>
</g>
</g>
<!-- Node4 -->
<g id="Node000004" class="node">
<title>Node4</title>
<g id="a_Node000004"><a xlink:href="bsp__encoder_8c.html#a05a73d1c3440289f913db2b8a47a954a" target="_top" xlink:title="CRC6 计算（X^6 + X + 1，初值 0，MSB 先入）">
<polygon fill="white" stroke="#666666" points="599.5,-102.25 493.5,-102.25 493.5,-80 599.5,-80 599.5,-102.25"/>
<text xml:space="preserve" text-anchor="middle" x="546.5" y="-86.85" font-family="Helvetica,sans-Serif" font-size="12.00">BSP_ENC_Crc6</text>
</a>
</g>
</g>
<!-- Node3&#45;&gt;Node4 -->
<g id="edge3_Node000003_Node000004" class="edge">
<title>Node3&#45;&gt;Node4</title>
<g id="a_edge3_Node000003_Node000004"><a xlink:title=" ">
<path fill="none" stroke="#63b8ff" d="M445.2,-91.12C456.98,-91.12 469.56,-91.12 481.69,-91.12"/>
<polygon fill="#63b8ff" stroke="#63b8ff" points="481.63,-94.63 491.63,-91.13 481.63,-87.63 481.63,-94.63"/>
</a>
</g>
</g>
<!-- Node7 -->
<g id="Node000007" class="node">
<title>Node7</title>
<g id="a_Node000007"><a xlink:href="foc__math_8c.html#a4cc9d35ffa1c5f6ab5668cbe7623d018" target="_top" xlink:title="角度归一化到 [0, 2pi)">
<polygon fill="white" stroke="#666666" points="457.5,-22.25 323,-22.25 323,0 457.5,0 457.5,-22.25"/>
<text xml:space="preserve" text-anchor="middle" x="390.25" y="-6.85" font-family="Helvetica,sans-Serif" font-size="12.00">FOC_NormalizeAngle</text>
</a>
</g>
</g>
<!-- Node6&#45;&gt;Node7 -->
<g id="edge6_Node000006_Node000007" class="edge">
<title>Node6&#45;&gt;Node7</title>
<g id="a_edge6_Node000006_Node000007"><a xlink:title=" ">
<path fill="none" stroke="#63b8ff" d="M269.44,-11.12C282.28,-11.12 296.79,-11.12 311.17,-11.12"/>
<polygon fill="#63b8ff" stroke="#63b8ff" points="311.12,-14.63 321.12,-11.13 311.12,-7.63 311.12,-14.63"/>
</a>
</g>
</g>
</g>
</svg>
