<?xml version="1.0" encoding="UTF-8" standalone="no"?>
<!DOCTYPE svg PUBLIC "-//W3C//DTD SVG 1.1//EN"
 "http://www.w3.org/Graphics/SVG/1.1/DTD/svg11.dtd">
<!-- Generated by graphviz version 15.1.0 (20260618.0150)
 -->
<!-- Title: MC_StartCalibration Pages: 1 -->
<svg width="478pt" height="110pt"
 viewBox="0.00 0.00 478.00 110.00" xmlns="http://www.w3.org/2000/svg" xmlns:xlink="http://www.w3.org/1999/xlink">
<g id="graph0" class="graph" transform="scale(1 1) rotate(0) translate(4 106.25)">
<title>MC_StartCalibration</title>
<!-- Node1 -->
<g id="Node000001" class="node">
<title>Node1</title>
<g id="a_Node000001"><a xlink:title="启动预定位校准（封波状态下）">
<polygon fill="#999999" stroke="#666666" points="124.75,-62.25 0,-62.25 0,-40 124.75,-40 124.75,-62.25"/>
<text xml:space="preserve" text-anchor="middle" x="62.38" y="-46.85" font-family="Helvetica,sans-Serif" font-size="12.00">MC_StartCalibration</text>
</a>
</g>
</g>
<!-- Node2 -->
<g id="Node000002" class="node">
<title>Node2</title>
<g id="a_Node000002"><a xlink:href="bsp__pwm_8c.html#a4bdefcd18b0b080f1e8db825e33c80e8" target="_top" xlink:title="使能功率输出（解除封波）">
<polygon fill="white" stroke="#666666" points="282.5,-102.25 160.75,-102.25 160.75,-80 282.5,-80 282.5,-102.25"/>
<text xml:space="preserve" text-anchor="middle" x="221.62" y="-86.85" font-family="Helvetica,sans-Serif" font-size="12.00">BSP_PWM_Enable</text>
</a>
</g>
</g>
<!-- Node1&#45;&gt;Node2 -->
<g id="edge1_Node000001_Node000002" class="edge">
<title>Node1&#45;&gt;Node2</title>
<g id="a_edge1_Node000001_Node000002"><a xlink:title=" ">
<path fill="none" stroke="#63b8ff" d="M108.86,-62.69C126.06,-67.07 145.85,-72.1 163.96,-76.71"/>
<polygon fill="#63b8ff" stroke="#63b8ff" points="162.95,-80.07 173.51,-79.14 164.68,-73.28 162.95,-80.07"/>
</a>
</g>
</g>
<!-- Node4 -->
<g id="Node000004" class="node">
<title>Node4</title>
<g id="a_Node000004"><a xlink:href="calibration_8c.html#a799bd918d9fd1f5b3c231d1d92b7fe0d" target="_top" xlink:title="启动校准状态机">
<polygon fill="white" stroke="#666666" points="257.38,-62.25 185.88,-62.25 185.88,-40 257.38,-40 257.38,-62.25"/>
<text xml:space="preserve" text-anchor="middle" x="221.62" y="-46.85" font-family="Helvetica,sans-Serif" font-size="12.00">CAL_Start</text>
</a>
</g>
</g>
<!-- Node1&#45;&gt;Node4 -->
<g id="edge3_Node000001_Node000004" class="edge">
<title>Node1&#45;&gt;Node4</title>
<g id="a_edge3_Node000001_Node000004"><a xlink:title=" ">
<path fill="none" stroke="#63b8ff" d="M125.07,-51.12C141.39,-51.12 158.73,-51.12 174.1,-51.12"/>
<polygon fill="#63b8ff" stroke="#63b8ff" points="173.9,-54.63 183.9,-51.13 173.9,-47.63 173.9,-54.63"/>
</a>
</g>
</g>
<!-- Node6 -->
<g id="Node000006" class="node">
<title>Node6</title>
<g id="a_Node000006"><a xlink:href="foc_8c.html#aa25cf599086b4ad815ae5ad72dcfdec4" target="_top" xlink:title="复位电流环状态（封波后重新使能前调用，防止积分残留冲击）">
<polygon fill="white" stroke="#666666" points="261.5,-22.25 181.75,-22.25 181.75,0 261.5,0 261.5,-22.25"/>
<text xml:space="preserve" text-anchor="middle" x="221.62" y="-6.85" font-family="Helvetica,sans-Serif" font-size="12.00">FOC_Reset</text>
</a>
</g>
</g>
<!-- Node1&#45;&gt;Node6 -->
<g id="edge5_Node000001_Node000006" class="edge">
<title>Node1&#45;&gt;Node6</title>
<g id="a_edge5_Node000001_Node000006"><a xlink:title=" ">
<path fill="none" stroke="#63b8ff" d="M108.86,-39.56C128.13,-34.65 150.66,-28.92 170.42,-23.9"/>
<polygon fill="#63b8ff" stroke="#63b8ff" points="171.08,-27.34 179.91,-21.48 169.36,-20.56 171.08,-27.34"/>
</a>
</g>
</g>
<!-- Node3 -->
<g id="Node000003" class="node">
<title>Node3</title>
<g id="a_Node000003"><a xlink:href="bsp__pwm_8c.html#af4a87e2cef845a3eba6d0170011ff08d" target="_top" xlink:title="三相占空比清零（低侧全导通：自举预充/动态刹车态）">
<polygon fill="white" stroke="#666666" points="469.5,-102.25 318.5,-102.25 318.5,-80 469.5,-80 469.5,-102.25"/>
<text xml:space="preserve" text-anchor="middle" x="394" y="-86.85" font-family="Helvetica,sans-Serif" font-size="12.00">BSP_PWM_SetDutyZero</text>
</a>
</g>
</g>
<!-- Node2&#45;&gt;Node3 -->
<g id="edge2_Node000002_Node000003" class="edge">
<title>Node2&#45;&gt;Node3</title>
<g id="a_edge2_Node000002_Node000003"><a xlink:title=" ">
<path fill="none" stroke="#63b8ff" d="M282.69,-91.12C290.51,-91.12 298.63,-91.12 306.77,-91.12"/>
<polygon fill="#63b8ff" stroke="#63b8ff" points="306.73,-94.63 316.73,-91.13 306.73,-87.63 306.73,-94.63"/>
</a>
</g>
</g>
<!-- Node5 -->
<g id="Node000005" class="node">
<title>Node5</title>
<g id="a_Node000005"><a xlink:href="bsp__encoder_8c.html#a3daa1572c53aadb74b5ef71eb5422da8" target="_top" xlink:title="读取方向反转标志">
<polygon fill="white" stroke="#666666" points="458.25,-62.25 329.75,-62.25 329.75,-40 458.25,-40 458.25,-62.25"/>
<text xml:space="preserve" text-anchor="middle" x="394" y="-46.85" font-family="Helvetica,sans-Serif" font-size="12.00">BSP_ENC_GetInvert</text>
</a>
</g>
</g>
<!-- Node4&#45;&gt;Node5 -->
<g id="edge4_Node000004_Node000005" class="edge">
<title>Node4&#45;&gt;Node5</title>
<g id="a_edge4_Node000004_Node000005"><a xlink:title=" ">
<path fill="none" stroke="#63b8ff" d="M257.51,-51.12C275.09,-51.12 297.12,-51.12 318.27,-51.12"/>
<polygon fill="#63b8ff" stroke="#63b8ff" points="318.05,-54.63 328.05,-51.13 318.05,-47.63 318.05,-54.63"/>
</a>
</g>
</g>
<!-- Node7 -->
<g id="Node000007" class="node">
<title>Node7</title>
<g id="a_Node000007"><a xlink:href="pid_8c.html#acb76685b15d3fde29d9bd5548b3268c1" target="_top" xlink:title="复位 PID 内部状态（积分/历史误差/输出）">
<polygon fill="white" stroke="#666666" points="431.25,-22.25 356.75,-22.25 356.75,0 431.25,0 431.25,-22.25"/>
<text xml:space="preserve" text-anchor="middle" x="394" y="-6.85" font-family="Helvetica,sans-Serif" font-size="12.00">PID_Reset</text>
</a>
</g>
</g>
<!-- Node6&#45;&gt;Node7 -->
<g id="edge6_Node000006_Node000007" class="edge">
<title>Node6&#45;&gt;Node7</title>
<g id="a_edge6_Node000006_Node000007"><a xlink:title=" ">
<path fill="none" stroke="#63b8ff" d="M261.71,-11.12C286.53,-11.12 318.82,-11.12 345.16,-11.12"/>
<polygon fill="#63b8ff" stroke="#63b8ff" points="344.91,-14.63 354.91,-11.13 344.91,-7.63 344.91,-14.63"/>
</a>
</g>
</g>
</g>
</svg>
