<?xml version="1.0" encoding="UTF-8" standalone="no"?>
<!DOCTYPE svg PUBLIC "-//W3C//DTD SVG 1.1//EN"
 "http://www.w3.org/Graphics/SVG/1.1/DTD/svg11.dtd">
<!-- Generated by graphviz version 15.1.0 (20260618.0150)
 -->
<!-- Title: MC_TripFault Pages: 1 -->
<svg width="421pt" height="83pt"
 viewBox="0.00 0.00 421.00 83.00" xmlns="http://www.w3.org/2000/svg" xmlns:xlink="http://www.w3.org/1999/xlink">

<svg id="main" version="1.1" xmlns="http://www.w3.org/2000/svg" xmlns:xlink="http://www.w3.org/1999/xlink" xml:space="preserve">

<style type="text/css"><![CDATA[
.node, .edge {opacity: 0.7;}
.node.selected, .edge.selected {opacity: 1;}
.edge:hover path { stroke: red; }
.edge:hover polygon { stroke: red; fill: red; }
]]></style>
<script type="application/ecmascript" xlink:href="svg.min.js"/>
<svg id="graph" class="graph">
<g id="graph0" class="graph" transform="scale(1 1) rotate(0) translate(4 79.45)">
<title>MC_TripFault</title>
<!-- Node1 -->
<g id="Node000001" class="node">
<title>Node1</title>
<g id="a_Node000001"><a xlink:title="触发故障：立即封波并锁存（ISR 安全）">
<polygon fill="#999999" stroke="#666666" points="412.75,-62.25 324,-62.25 324,-40 412.75,-40 412.75,-62.25"/>
<text xml:space="preserve" text-anchor="middle" x="368.38" y="-46.85" font-family="Helvetica,sans-Serif" font-size="12.00">MC_TripFault</text>
</a>
</g>
</g>
<!-- Node2 -->
<g id="Node000002" class="node">
<title>Node2</title>
<g id="a_Node000002"><a xlink:href="app__main_8c.html#a4759d3fdff6b33e2c0a0ae151452112f" target="_top" xlink:title="应用初始化（main 的 USER CODE BEGIN 2 调用）">
<polygon fill="white" stroke="#666666" points="147.12,-62.25 83.88,-62.25 83.88,-40 147.12,-40 147.12,-62.25"/>
<text xml:space="preserve" text-anchor="middle" x="115.5" y="-46.85" font-family="Helvetica,sans-Serif" font-size="12.00">APP_Init</text>
</a>
</g>
</g>
<!-- Node1&#45;&gt;Node2 -->
<g id="edge1_Node000001_Node000002" class="edge">
<title>Node1&#45;&gt;Node2</title>
<g id="a_edge1_Node000001_Node000002"><a xlink:title=" ">
<path fill="none" stroke="#63b8ff" d="M318.4,-65.47C308.42,-67.82 297.94,-69.89 288,-71.12 244.22,-76.56 232.46,-77.06 188.75,-71.12 174.95,-69.25 160.06,-65.45 147.41,-61.66"/>
<polygon fill="#63b8ff" stroke="#63b8ff" points="319.06,-68.91 327.91,-63.09 317.36,-62.12 319.06,-68.91"/>
</a>
</g>
</g>
<!-- Node4 -->
<g id="Node000004" class="node">
<title>Node4</title>
<g id="a_Node000004"><a xlink:href="app__main_8c.html#a9d7a99f268e16f853238569586d275aa" target="_top" xlink:title="慢任务：温度采样/过温保护/CAN 指令超时">
<polygon fill="white" stroke="#666666" points="288,-22.25 188.75,-22.25 188.75,0 288,0 288,-22.25"/>
<text xml:space="preserve" text-anchor="middle" x="238.38" y="-6.85" font-family="Helvetica,sans-Serif" font-size="12.00">APP_SlowTask</text>
</a>
</g>
</g>
<!-- Node1&#45;&gt;Node4 -->
<g id="edge3_Node000001_Node000004" class="edge">
<title>Node1&#45;&gt;Node4</title>
<g id="a_edge3_Node000001_Node000004"><a xlink:title=" ">
<path fill="none" stroke="#63b8ff" d="M319.67,-36.22C305.34,-31.74 289.84,-26.9 276.31,-22.67"/>
<polygon fill="#63b8ff" stroke="#63b8ff" points="318.32,-39.46 328.91,-39.1 320.41,-32.78 318.32,-39.46"/>
</a>
</g>
</g>
<!-- Node6 -->
<g id="Node000006" class="node">
<title>Node6</title>
<g id="a_Node000006"><a xlink:href="motor__ctrl_8c.html#a5c982a7374da291bb0e5d06d26893def" target="_top" xlink:title="FOC 主循环（ADC 注入完成 ISR，20kHz）">
<polygon fill="white" stroke="#666666" points="275.62,-62.25 201.12,-62.25 201.12,-40 275.62,-40 275.62,-62.25"/>
<text xml:space="preserve" text-anchor="middle" x="238.38" y="-46.85" font-family="Helvetica,sans-Serif" font-size="12.00">MC_FocIsr</text>
</a>
</g>
</g>
<!-- Node1&#45;&gt;Node6 -->
<g id="edge6_Node000001_Node000006" class="edge">
<title>Node1&#45;&gt;Node6</title>
<g id="a_edge6_Node000001_Node000006"><a xlink:title=" ">
<path fill="none" stroke="#63b8ff" d="M312.17,-51.12C299.96,-51.12 287.32,-51.12 276.06,-51.12"/>
<polygon fill="#63b8ff" stroke="#63b8ff" points="312.17,-54.63 322.17,-51.13 312.17,-47.63 312.17,-54.63"/>
</a>
</g>
</g>
<!-- Node3 -->
<g id="Node000003" class="node">
<title>Node3</title>
<g id="a_Node000003"><a xlink:href="main_8c.html#a840291bc02cba5474a4cb46a9b9566fe" target="_top" xlink:title="The application entry point.">
<polygon fill="white" stroke="#666666" points="42.25,-42.25 0,-42.25 0,-20 42.25,-20 42.25,-42.25"/>
<text xml:space="preserve" text-anchor="middle" x="21.12" y="-26.85" font-family="Helvetica,sans-Serif" font-size="12.00">main</text>
</a>
</g>
</g>
<!-- Node2&#45;&gt;Node3 -->
<g id="edge2_Node000002_Node000003" class="edge">
<title>Node2&#45;&gt;Node3</title>
<g id="a_edge2_Node000002_Node000003"><a xlink:title=" ">
<path fill="none" stroke="#63b8ff" d="M72.48,-42.03C62.15,-39.79 51.54,-37.49 42.74,-35.59"/>
<polygon fill="#63b8ff" stroke="#63b8ff" points="71.49,-45.39 82,-44.09 72.97,-38.55 71.49,-45.39"/>
</a>
</g>
</g>
<!-- Node5 -->
<g id="Node000005" class="node">
<title>Node5</title>
<g id="a_Node000005"><a xlink:href="app__main_8c.html#a6709d26bb67f905916b7c7f048b8396c" target="_top" xlink:title="后台超级循环体（main 的 while(1) 内调用）">
<polygon fill="white" stroke="#666666" points="152.75,-22.25 78.25,-22.25 78.25,0 152.75,0 152.75,-22.25"/>
<text xml:space="preserve" text-anchor="middle" x="115.5" y="-6.85" font-family="Helvetica,sans-Serif" font-size="12.00">APP_Loop</text>
</a>
</g>
</g>
<!-- Node4&#45;&gt;Node5 -->
<g id="edge4_Node000004_Node000005" class="edge">
<title>Node4&#45;&gt;Node5</title>
<g id="a_edge4_Node000004_Node000005"><a xlink:title=" ">
<path fill="none" stroke="#63b8ff" d="M177.1,-11.12C168.95,-11.12 160.79,-11.12 153.23,-11.12"/>
<polygon fill="#63b8ff" stroke="#63b8ff" points="177.05,-14.63 187.05,-11.13 177.05,-7.63 177.05,-14.63"/>
</a>
</g>
</g>
<!-- Node5&#45;&gt;Node3 -->
<g id="edge5_Node000005_Node000003" class="edge">
<title>Node5&#45;&gt;Node3</title>
<g id="a_edge5_Node000005_Node000003"><a xlink:title=" ">
<path fill="none" stroke="#63b8ff" d="M66.86,-21.44C58.35,-23.28 49.91,-25.11 42.69,-26.67"/>
<polygon fill="#63b8ff" stroke="#63b8ff" points="67.48,-24.89 76.51,-19.35 66,-18.05 67.48,-24.89"/>
</a>
</g>
</g>
<!-- Node6&#45;&gt;Node2 -->
<g id="edge7_Node000006_Node000002" class="edge">
<title>Node6&#45;&gt;Node2</title>
<g id="a_edge7_Node000006_Node000002"><a xlink:title=" ">
<path fill="none" stroke="#63b8ff" d="M189.62,-51.12C175.37,-51.12 160.13,-51.12 147.27,-51.12"/>
<polygon fill="#63b8ff" stroke="#63b8ff" points="189.27,-54.63 199.27,-51.13 189.27,-47.63 189.27,-54.63"/>
</a>
</g>
</g>
</g>
</svg>
</svg>

<style type='text/css'>
<![CDATA[
[data-mouse-over-selected='false'] { opacity: 0.7; }
[data-mouse-over-selected='true']  { opacity: 1.0; }
]]>
</style>
<script type="application/ecmascript"><![CDATA[
document.addEventListener('DOMContentLoaded', (event) => {
  highlightEdges();
  highlightAdjacentNodes();
});
]]></script>
</svg>
