<?xml version="1.0" encoding="UTF-8" standalone="no"?>
<!DOCTYPE svg PUBLIC "-//W3C//DTD SVG 1.1//EN"
 "http://www.w3.org/Graphics/SVG/1.1/DTD/svg11.dtd">
<!-- Generated by graphviz version 15.1.0 (20260618.0150)
 -->
<!-- Title: MC_Enable Pages: 1 -->
<svg width="472pt" height="148pt"
 viewBox="0.00 0.00 472.00 148.00" xmlns="http://www.w3.org/2000/svg" xmlns:xlink="http://www.w3.org/1999/xlink">
<g id="graph0" class="graph" transform="scale(1 1) rotate(0) translate(4 144.25)">
<title>MC_Enable</title>
<!-- Node1 -->
<g id="Node000001" class="node">
<title>Node1</title>
<g id="a_Node000001"><a xlink:title="使能功率输出">
<polygon fill="#999999" stroke="#666666" points="79.75,-80.25 0,-80.25 0,-58 79.75,-58 79.75,-80.25"/>
<text xml:space="preserve" text-anchor="middle" x="39.88" y="-64.85" font-family="Helvetica,sans-Serif" font-size="12.00">MC_Enable</text>
</a>
</g>
</g>
<!-- Node2 -->
<g id="Node000002" class="node">
<title>Node2</title>
<g id="a_Node000002"><a xlink:href="bsp__pwm_8c.html#a4bdefcd18b0b080f1e8db825e33c80e8" target="_top" xlink:title="使能功率输出（解除封波）">
<polygon fill="white" stroke="#666666" points="257,-140.25 135.25,-140.25 135.25,-118 257,-118 257,-140.25"/>
<text xml:space="preserve" text-anchor="middle" x="196.12" y="-124.85" font-family="Helvetica,sans-Serif" font-size="12.00">BSP_PWM_Enable</text>
</a>
</g>
</g>
<!-- Node1&#45;&gt;Node2 -->
<g id="edge1_Node000001_Node000002" class="edge">
<title>Node1&#45;&gt;Node2</title>
<g id="a_edge1_Node000001_Node000002"><a xlink:title=" ">
<path fill="none" stroke="#63b8ff" d="M59.35,-80.64C74.15,-89.45 95.68,-101.37 115.75,-109.12 120.63,-111.01 125.75,-112.77 130.93,-114.39"/>
<polygon fill="#63b8ff" stroke="#63b8ff" points="129.59,-117.65 140.17,-117.12 131.57,-110.93 129.59,-117.65"/>
</a>
</g>
</g>
<!-- Node4 -->
<g id="Node000004" class="node">
<title>Node4</title>
<g id="a_Node000004"><a xlink:href="foc_8c.html#aa25cf599086b4ad815ae5ad72dcfdec4" target="_top" xlink:title="复位电流环状态（封波后重新使能前调用，防止积分残留冲击）">
<polygon fill="white" stroke="#666666" points="236,-100.25 156.25,-100.25 156.25,-78 236,-78 236,-100.25"/>
<text xml:space="preserve" text-anchor="middle" x="196.12" y="-84.85" font-family="Helvetica,sans-Serif" font-size="12.00">FOC_Reset</text>
</a>
</g>
</g>
<!-- Node1&#45;&gt;Node4 -->
<g id="edge3_Node000001_Node000004" class="edge">
<title>Node1&#45;&gt;Node4</title>
<g id="a_edge3_Node000001_Node000004"><a xlink:title=" ">
<path fill="none" stroke="#63b8ff" d="M80.2,-74.22C99.78,-76.76 123.68,-79.86 144.6,-82.57"/>
<polygon fill="#63b8ff" stroke="#63b8ff" points="144.01,-86.03 154.37,-83.84 144.91,-79.08 144.01,-86.03"/>
</a>
</g>
</g>
<!-- Node5 -->
<g id="Node000005" class="node">
<title>Node5</title>
<g id="a_Node000005"><a xlink:href="pid_8c.html#acb76685b15d3fde29d9bd5548b3268c1" target="_top" xlink:title="复位 PID 内部状态（积分/历史误差/输出）">
<polygon fill="white" stroke="#666666" points="425.25,-81.25 350.75,-81.25 350.75,-59 425.25,-59 425.25,-81.25"/>
<text xml:space="preserve" text-anchor="middle" x="388" y="-65.85" font-family="Helvetica,sans-Serif" font-size="12.00">PID_Reset</text>
</a>
</g>
</g>
<!-- Node1&#45;&gt;Node5 -->
<g id="edge5_Node000001_Node000005" class="edge">
<title>Node1&#45;&gt;Node5</title>
<g id="a_edge5_Node000001_Node000005"><a xlink:title=" ">
<path fill="none" stroke="#63b8ff" d="M80.07,-69.02C126.82,-68.91 207.37,-68.81 276.5,-69.12 297.01,-69.22 319.66,-69.41 339.09,-69.6"/>
<polygon fill="#63b8ff" stroke="#63b8ff" points="338.87,-73.09 348.91,-69.7 338.94,-66.1 338.87,-73.09"/>
</a>
</g>
</g>
<!-- Node6 -->
<g id="Node000006" class="node">
<title>Node6</title>
<g id="a_Node000006"><a xlink:href="protection_8c.html#a06029022ac7e5b95690b0119794c83d6" target="_top" xlink:title="喂 CAN 指令看门狗（收到有效运动指令时调用）">
<polygon fill="white" stroke="#666666" points="276.5,-22.25 115.75,-22.25 115.75,0 276.5,0 276.5,-22.25"/>
<text xml:space="preserve" text-anchor="middle" x="196.12" y="-6.85" font-family="Helvetica,sans-Serif" font-size="12.00">PROT_FeedCanWatchdog</text>
</a>
</g>
</g>
<!-- Node1&#45;&gt;Node6 -->
<g id="edge6_Node000001_Node000006" class="edge">
<title>Node1&#45;&gt;Node6</title>
<g id="a_edge6_Node000001_Node000006"><a xlink:title=" ">
<path fill="none" stroke="#63b8ff" d="M65.21,-57.59C79.72,-50.91 98.6,-42.58 115.75,-36.12 124.98,-32.65 134.94,-29.25 144.58,-26.13"/>
<polygon fill="#63b8ff" stroke="#63b8ff" points="145.35,-29.56 153.82,-23.2 143.23,-22.88 145.35,-29.56"/>
</a>
</g>
</g>
<!-- Node3 -->
<g id="Node000003" class="node">
<title>Node3</title>
<g id="a_Node000003"><a xlink:href="bsp__pwm_8c.html#af4a87e2cef845a3eba6d0170011ff08d" target="_top" xlink:title="三相占空比清零（低侧全导通：自举预充/动态刹车态）">
<polygon fill="white" stroke="#666666" points="463.5,-140.25 312.5,-140.25 312.5,-118 463.5,-118 463.5,-140.25"/>
<text xml:space="preserve" text-anchor="middle" x="388" y="-124.85" font-family="Helvetica,sans-Serif" font-size="12.00">BSP_PWM_SetDutyZero</text>
</a>
</g>
</g>
<!-- Node2&#45;&gt;Node3 -->
<g id="edge2_Node000002_Node000003" class="edge">
<title>Node2&#45;&gt;Node3</title>
<g id="a_edge2_Node000002_Node000003"><a xlink:title=" ">
<path fill="none" stroke="#63b8ff" d="M257.46,-129.12C271.31,-129.12 286.29,-129.12 300.99,-129.12"/>
<polygon fill="#63b8ff" stroke="#63b8ff" points="300.63,-132.63 310.63,-129.13 300.63,-125.63 300.63,-132.63"/>
</a>
</g>
</g>
<!-- Node4&#45;&gt;Node5 -->
<g id="edge4_Node000004_Node000005" class="edge">
<title>Node4&#45;&gt;Node5</title>
<g id="a_edge4_Node000004_Node000005"><a xlink:title=" ">
<path fill="none" stroke="#63b8ff" d="M236.47,-85.19C266.26,-82.21 307.34,-78.1 339.06,-74.92"/>
<polygon fill="#63b8ff" stroke="#63b8ff" points="339.18,-78.43 348.78,-73.95 338.48,-71.46 339.18,-78.43"/>
</a>
</g>
</g>
</g>
</svg>
