<?xml version="1.0" encoding="UTF-8" standalone="no"?>
<!DOCTYPE svg PUBLIC "-//W3C//DTD SVG 1.1//EN"
 "http://www.w3.org/Graphics/SVG/1.1/DTD/svg11.dtd">
<!-- Generated by graphviz version 15.1.0 (20260618.0150)
 -->
<!-- Title: MC_RebaseEncoder Pages: 1 -->
<!--zoomable 110 -->

<svg id="main" version="1.1" xmlns="http://www.w3.org/2000/svg" xmlns:xlink="http://www.w3.org/1999/xlink" xml:space="preserve" onload="init(evt)">

<style type="text/css"><![CDATA[
.node, .edge {opacity: 0.7;}
.node.selected, .edge.selected {opacity: 1;}
.edge:hover path { stroke: red; }
.edge:hover polygon { stroke: red; fill: red; }
]]></style>

<defs>
  <circle id="rim" cx="0" cy="0" r="7"/>
  <circle id="rim2" cx="0" cy="0" r="3.5"/>
  <g id="zoomPlus">
    <use xlink:href="#rim" fill="#404040"><set attributeName="fill" to="#808080" begin="zoomplus.mouseover" end="zoomplus.mouseout"/></use>
    <path d="M-4,0h8M0,-4v8" fill="none" stroke="white" stroke-width="1.5" pointer-events="none"/>
  </g>
  <g id="zoomMin">
    <use xlink:href="#rim" fill="#404040"><set attributeName="fill" to="#808080" begin="zoomminus.mouseover" end="zoomminus.mouseout"/></use>
    <path d="M-4,0h8" fill="none" stroke="white" stroke-width="1.5" pointer-events="none"/>
  </g>
  <g id="arrowUp" transform="translate(30 24)">
    <use xlink:href="#rim"/>
    <path pointer-events="none" fill="none" stroke="white" stroke-width="1.5" d="M0,-3.0v7 M-2.5,-0.5L0,-3.0L2.5,-0.5"/>
  </g>
  <g id="arrowRight" transform="rotate(90) translate(36 -43)">
    <use xlink:href="#rim"/>
    <path pointer-events="none" fill="none" stroke="white" stroke-width="1.5" d="M0,-3.0v7 M-2.5,-0.5L0,-3.0L2.5,-0.5"/>
  </g>
  <g id="arrowDown" transform="rotate(180) translate(-30 -48)">
    <use xlink:href="#rim"/>
    <path pointer-events="none" fill="none" stroke="white" stroke-width="1.5" d="M0,-3.0v7 M-2.5,-0.5L0,-3.0L2.5,-0.5"/>
  </g>
  <g id="arrowLeft" transform="rotate(270) translate(-36 17)">
    <use xlink:href="#rim"/>
    <path pointer-events="none" fill="none" stroke="white" stroke-width="1.5" d="M0,-3.0v7 M-2.5,-0.5L0,-3.0L2.5,-0.5"/>
  </g>
  <g id="resetDef">
    <use xlink:href="#rim2" fill="#404040"><set attributeName="fill" to="#808080" begin="reset.mouseover" end="reset.mouseout"/></use>
  </g>
</defs>
<script type="application/ecmascript">
var viewWidth = 608;
var viewHeight = 110;
var sectionId = 'dynsection-14';
</script>
<script type="application/ecmascript" xlink:href="svg.min.js"/>
<svg id="graph" class="graph">
<g id="viewport">
<title>MC_RebaseEncoder</title>
<!-- Node1 -->
<g id="Node000001" class="node">
<title>Node1</title>
<g id="a_Node000001"><a xlink:title="重建编码器多圈基准并保持用户位置连续（参数落盘后调用）">
<polygon fill="#999999" stroke="#666666" points="128.5,-62.25 0,-62.25 0,-40 128.5,-40 128.5,-62.25"/>
<text xml:space="preserve" text-anchor="middle" x="64.25" y="-46.85" font-family="Helvetica,sans-Serif" font-size="12.00">MC_RebaseEncoder</text>
</a>
</g>
</g>
<!-- Node2 -->
<g id="Node000002" class="node">
<title>Node2</title>
<g id="a_Node000002"><a xlink:href="bsp__encoder_8c.html#a9f9d4545ad55a3bc5bc15920257754d3" target="_top" xlink:title="预置编码器状态（上电首读，避免多圈计数误跳）">
<polygon fill="white" stroke="#666666" points="287,-102.25 164.5,-102.25 164.5,-80 287,-80 287,-102.25"/>
<text xml:space="preserve" text-anchor="middle" x="225.75" y="-86.85" font-family="Helvetica,sans-Serif" font-size="12.00">BSP_ENC_Preload</text>
</a>
</g>
</g>
<!-- Node1&#45;&gt;Node2 -->
<g id="edge1_Node000001_Node000002" class="edge">
<title>Node1&#45;&gt;Node2</title>
<g id="a_edge1_Node000001_Node000002"><a xlink:title=" ">
<path fill="none" stroke="#63b8ff" d="M111.38,-62.69C128.91,-67.09 149.1,-72.15 167.53,-76.78"/>
<polygon fill="#63b8ff" stroke="#63b8ff" points="166.42,-80.11 176.98,-79.14 168.13,-73.32 166.42,-80.11"/>
</a>
</g>
</g>
<!-- Node5 -->
<g id="Node000005" class="node">
<title>Node5</title>
<g id="a_Node000005"><a xlink:href="motor__ctrl_8c.html#a314b8aad615262b23be0463fa16b9ceb" target="_top" xlink:title="转子展开机械角 [rad]：整数圈 + 单圈角分离合成">
<polygon fill="white" stroke="#666666" points="271.62,-62.25 179.88,-62.25 179.88,-40 271.62,-40 271.62,-62.25"/>
<text xml:space="preserve" text-anchor="middle" x="225.75" y="-46.85" font-family="Helvetica,sans-Serif" font-size="12.00">MC_PosRotor</text>
</a>
</g>
</g>
<!-- Node1&#45;&gt;Node5 -->
<g id="edge4_Node000001_Node000005" class="edge">
<title>Node1&#45;&gt;Node5</title>
<g id="a_edge4_Node000001_Node000005"><a xlink:title=" ">
<path fill="none" stroke="#63b8ff" d="M128.75,-51.12C141.78,-51.12 155.43,-51.12 168.2,-51.12"/>
<polygon fill="#63b8ff" stroke="#63b8ff" points="168.13,-54.63 178.13,-51.13 168.13,-47.63 168.13,-54.63"/>
</a>
</g>
</g>
<!-- Node6 -->
<g id="Node000006" class="node">
<title>Node6</title>
<g id="a_Node000006"><a xlink:href="filter_8c.html#a92c4dfa4557978b294c448b59f485614" target="_top" xlink:title="预置 PLL 跟踪角度（上电对准编码器初值，避免速度冲击）">
<polygon fill="white" stroke="#666666" points="269,-22.25 182.5,-22.25 182.5,0 269,0 269,-22.25"/>
<text xml:space="preserve" text-anchor="middle" x="225.75" y="-6.85" font-family="Helvetica,sans-Serif" font-size="12.00">PLL_Preload</text>
</a>
</g>
</g>
<!-- Node1&#45;&gt;Node6 -->
<g id="edge5_Node000001_Node000006" class="edge">
<title>Node1&#45;&gt;Node6</title>
<g id="a_edge5_Node000001_Node000006"><a xlink:title=" ">
<path fill="none" stroke="#63b8ff" d="M111.38,-39.56C130.07,-34.87 151.78,-29.43 171.16,-24.56"/>
<polygon fill="#63b8ff" stroke="#63b8ff" points="171.95,-27.97 180.8,-22.15 170.25,-21.18 171.95,-27.97"/>
</a>
</g>
</g>
<!-- Node3 -->
<g id="Node000003" class="node">
<title>Node3</title>
<g id="a_Node000003"><a xlink:href="bsp__encoder_8c.html#a952d9a4a6bd64cde7ae4b60a8757c430" target="_top" xlink:title="读取一次编码器角度（ISR 安全，阻塞约 5us）">
<polygon fill="white" stroke="#666666" points="445.12,-102.25 335.38,-102.25 335.38,-80 445.12,-80 445.12,-102.25"/>
<text xml:space="preserve" text-anchor="middle" x="390.25" y="-86.85" font-family="Helvetica,sans-Serif" font-size="12.00">BSP_ENC_Read</text>
</a>
</g>
</g>
<!-- Node2&#45;&gt;Node3 -->
<g id="edge2_Node000002_Node000003" class="edge">
<title>Node2&#45;&gt;Node3</title>
<g id="a_edge2_Node000002_Node000003"><a xlink:title=" ">
<path fill="none" stroke="#63b8ff" d="M287.26,-91.12C299.16,-91.12 311.69,-91.12 323.75,-91.12"/>
<polygon fill="#63b8ff" stroke="#63b8ff" points="323.61,-94.63 333.61,-91.13 323.61,-87.63 323.61,-94.63"/>
</a>
</g>
</g>
<!-- Node4 -->
<g id="Node000004" class="node">
<title>Node4</title>
<g id="a_Node000004"><a xlink:href="bsp__encoder_8c.html#a05a73d1c3440289f913db2b8a47a954a" target="_top" xlink:title="CRC6 计算（X^6 + X + 1，初值 0，MSB 先入）">
<polygon fill="white" stroke="#666666" points="599.5,-102.25 493.5,-102.25 493.5,-80 599.5,-80 599.5,-102.25"/>
<text xml:space="preserve" text-anchor="middle" x="546.5" y="-86.85" font-family="Helvetica,sans-Serif" font-size="12.00">BSP_ENC_Crc6</text>
</a>
</g>
</g>
<!-- Node3&#45;&gt;Node4 -->
<g id="edge3_Node000003_Node000004" class="edge">
<title>Node3&#45;&gt;Node4</title>
<g id="a_edge3_Node000003_Node000004"><a xlink:title=" ">
<path fill="none" stroke="#63b8ff" d="M445.2,-91.12C456.98,-91.12 469.56,-91.12 481.69,-91.12"/>
<polygon fill="#63b8ff" stroke="#63b8ff" points="481.63,-94.63 491.63,-91.13 481.63,-87.63 481.63,-94.63"/>
</a>
</g>
</g>
<!-- Node7 -->
<g id="Node000007" class="node">
<title>Node7</title>
<g id="a_Node000007"><a xlink:href="foc__math_8c.html#a4cc9d35ffa1c5f6ab5668cbe7623d018" target="_top" xlink:title="角度归一化到 [0, 2pi)">
<polygon fill="white" stroke="#666666" points="457.5,-22.25 323,-22.25 323,0 457.5,0 457.5,-22.25"/>
<text xml:space="preserve" text-anchor="middle" x="390.25" y="-6.85" font-family="Helvetica,sans-Serif" font-size="12.00">FOC_NormalizeAngle</text>
</a>
</g>
</g>
<!-- Node6&#45;&gt;Node7 -->
<g id="edge6_Node000006_Node000007" class="edge">
<title>Node6&#45;&gt;Node7</title>
<g id="a_edge6_Node000006_Node000007"><a xlink:title=" ">
<path fill="none" stroke="#63b8ff" d="M269.44,-11.12C282.28,-11.12 296.79,-11.12 311.17,-11.12"/>
<polygon fill="#63b8ff" stroke="#63b8ff" points="311.12,-14.63 321.12,-11.13 311.12,-7.63 311.12,-14.63"/>
</a>
</g>
</g>
</g>
</svg>

<g id="navigator" transform="translate(0 0)" fill="#404254">
  <rect fill="#f2f5e9" fill-opacity="0.5" stroke="#606060" stroke-width=".5" x="0" y="0" width="60" height="60"/>
  <use id="zoomplus" xlink:href="#zoomPlus" x="17" y="9" onmousedown="handleZoom(evt,'in')"/>
  <use id="zoomminus" xlink:href="#zoomMin" x="42" y="9" onmousedown="handleZoom(evt,'out')"/>
  <use id="reset" xlink:href="#resetDef" x="30" y="36" onmousedown="handleReset()"/>
   <use id="arrowup" xlink:href="#arrowUp" x="0" y="0" onmousedown="handlePan(0,-1)"/>
  <use id="arrowright" xlink:href="#arrowRight" x="0" y="0" onmousedown="handlePan(1,0)"/>
  <use id="arrowdown" xlink:href="#arrowDown" x="0" y="0" onmousedown="handlePan(0,1)"/>
  <use id="arrowleft" xlink:href="#arrowLeft" x="0" y="0" onmousedown="handlePan(-1,0)"/>
</g>
<svg viewBox="0 0 15 15" width="100%" height="30px" preserveAspectRatio="xMaxYMin meet">
 <g id="arrow_out" transform="scale(0.3 0.3)">
  <a xlink:href="motor__ctrl_8h_a9c872c216c8943d5ba135b71957aea31_cgraph_org.svg" target="_base">
   <rect id="button" ry="5" rx="5" y="6" x="6" height="38" width="38"
        fill="#f2f5e9" fill-opacity="0.5" stroke="#606060" stroke-width="1.0"/>
   <path id="arrow"
     d="M 11.500037,31.436501 C 11.940474,20.09759 22.043105,11.32322 32.158766,21.979434 L 37.068811,17.246167 C 37.068811,17.246167 37.088388,32 37.088388,32 L 22.160133,31.978069 C 22.160133,31.978069 26.997745,27.140456 26.997745,27.140456 C 18.528582,18.264221 13.291696,25.230495 11.500037,31.436501 z"
     style="fill:#404040;"/>
  </a>
 </g>
</svg>

<style type='text/css'>
<![CDATA[
[data-mouse-over-selected='false'] { opacity: 0.7; }
[data-mouse-over-selected='true']  { opacity: 1.0; }
]]>
</style>
<script type="application/ecmascript"><![CDATA[
document.addEventListener('DOMContentLoaded', (event) => {
  highlightEdges();
  highlightAdjacentNodes();
});
]]></script>
</svg>
