<?xml version="1.0" encoding="UTF-8" standalone="no"?>
<!DOCTYPE svg PUBLIC "-//W3C//DTD SVG 1.1//EN"
 "http://www.w3.org/Graphics/SVG/1.1/DTD/svg11.dtd">
<!-- Generated by graphviz version 15.1.0 (20260618.0150)
 -->
<!-- Title: Application/control/motor_ctrl.h Pages: 1 -->
<svg width="468pt" height="219pt"
 viewBox="0.00 0.00 468.00 219.00" xmlns="http://www.w3.org/2000/svg" xmlns:xlink="http://www.w3.org/1999/xlink">

<svg id="main" version="1.1" xmlns="http://www.w3.org/2000/svg" xmlns:xlink="http://www.w3.org/1999/xlink" xml:space="preserve">

<style type="text/css"><![CDATA[
.node, .edge {opacity: 0.7;}
.node.selected, .edge.selected {opacity: 1;}
.edge:hover path { stroke: red; }
.edge:hover polygon { stroke: red; fill: red; }
]]></style>
<script type="application/ecmascript" xlink:href="svg.min.js"/>
<svg id="graph" class="graph">
<g id="graph0" class="graph" transform="scale(1 1) rotate(0) translate(4 215.25)">
<title>Application/control/motor_ctrl.h</title>
<!-- Node1 -->
<g id="Node000001" class="node">
<title>Node1</title>
<g id="a_Node000001"><a xlink:title="电机控制核心模块头文件（模式状态机 + FOC 主循环）">
<polygon fill="#999999" stroke="#666666" points="265.62,-211.25 150.62,-211.25 150.62,-174.75 265.62,-174.75 265.62,-211.25"/>
<text xml:space="preserve" text-anchor="start" x="158.62" y="-195.85" font-family="Helvetica,sans-Serif" font-size="12.00">Application/control</text>
<text xml:space="preserve" text-anchor="middle" x="208.12" y="-181.6" font-family="Helvetica,sans-Serif" font-size="12.00">/motor_ctrl.h</text>
</a>
</g>
</g>
<!-- Node2 -->
<g id="Node000002" class="node">
<title>Node2</title>
<g id="a_Node000002"><a xlink:href="foc_8h.html" target="_top" xlink:title="FOC 电流环模块头文件">
<polygon fill="white" stroke="#666666" points="153.88,-138.75 112.38,-138.75 112.38,-116.5 153.88,-116.5 153.88,-138.75"/>
<text xml:space="preserve" text-anchor="middle" x="133.12" y="-123.35" font-family="Helvetica,sans-Serif" font-size="12.00">foc.h</text>
</a>
</g>
</g>
<!-- Node1&#45;&gt;Node2 -->
<g id="edge1_Node000001_Node000002" class="edge">
<title>Node1&#45;&gt;Node2</title>
<g id="a_edge1_Node000001_Node000002"><a xlink:title=" ">
<path fill="none" stroke="#63b8ff" d="M187.23,-174.35C177.01,-165.71 164.73,-155.33 154.45,-146.64"/>
<polygon fill="#63b8ff" stroke="#63b8ff" points="156.74,-144 146.85,-140.22 152.23,-149.35 156.74,-144"/>
</a>
</g>
</g>
<!-- Node5 -->
<g id="Node000005" class="node">
<title>Node5</title>
<g id="a_Node000005"><a xlink:href="pid_8h.html" target="_top" xlink:title="位置式抗饱和（clamping anti&#45;windup）PID 控制器模块头文件">
<polygon fill="white" stroke="#666666" points="230.25,-80.5 188,-80.5 188,-58.25 230.25,-58.25 230.25,-80.5"/>
<text xml:space="preserve" text-anchor="middle" x="209.12" y="-65.1" font-family="Helvetica,sans-Serif" font-size="12.00">pid.h</text>
</a>
</g>
</g>
<!-- Node1&#45;&gt;Node5 -->
<g id="edge6_Node000001_Node000005" class="edge">
<title>Node1&#45;&gt;Node5</title>
<g id="a_edge6_Node000001_Node000005"><a xlink:title=" ">
<path fill="none" stroke="#63b8ff" d="M204.7,-174.31C202.16,-159.01 199.42,-136.3 201.12,-116.5 201.81,-108.52 203.16,-99.85 204.55,-92.2"/>
<polygon fill="#63b8ff" stroke="#63b8ff" points="207.98,-92.91 206.47,-82.42 201.11,-91.56 207.98,-92.91"/>
</a>
</g>
</g>
<!-- Node6 -->
<g id="Node000006" class="node">
<title>Node6</title>
<g id="a_Node000006"><a xlink:href="filter_8h.html" target="_top" xlink:title="滤波与状态估计模块头文件（一阶低通滤波器、PLL 速度估计器）">
<polygon fill="white" stroke="#666666" points="257.88,-138.75 210.38,-138.75 210.38,-116.5 257.88,-116.5 257.88,-138.75"/>
<text xml:space="preserve" text-anchor="middle" x="234.12" y="-123.35" font-family="Helvetica,sans-Serif" font-size="12.00">filter.h</text>
</a>
</g>
</g>
<!-- Node1&#45;&gt;Node6 -->
<g id="edge7_Node000001_Node000006" class="edge">
<title>Node1&#45;&gt;Node6</title>
<g id="a_edge7_Node000001_Node000006"><a xlink:title=" ">
<path fill="none" stroke="#63b8ff" d="M215.37,-174.35C218.51,-166.68 222.22,-157.64 225.51,-149.63"/>
<polygon fill="#63b8ff" stroke="#63b8ff" points="228.64,-151.22 229.19,-140.64 222.16,-148.57 228.64,-151.22"/>
</a>
</g>
</g>
<!-- Node7 -->
<g id="Node000007" class="node">
<title>Node7</title>
<g id="a_Node000007"><a xlink:href="protection_8h.html" target="_top" xlink:title="保护与故障管理模块头文件">
<polygon fill="white" stroke="#666666" points="78.25,-80.5 0,-80.5 0,-58.25 78.25,-58.25 78.25,-80.5"/>
<text xml:space="preserve" text-anchor="middle" x="39.12" y="-65.1" font-family="Helvetica,sans-Serif" font-size="12.00">protection.h</text>
</a>
</g>
</g>
<!-- Node1&#45;&gt;Node7 -->
<g id="edge9_Node000001_Node000007" class="edge">
<title>Node1&#45;&gt;Node7</title>
<g id="a_edge9_Node000001_Node000007"><a xlink:title=" ">
<path fill="none" stroke="#63b8ff" d="M165.02,-174.29C145.22,-165.15 122.01,-152.92 103.12,-138.75 84.14,-124.5 65.99,-104.26 53.9,-89.5"/>
<polygon fill="#63b8ff" stroke="#63b8ff" points="56.8,-87.52 47.83,-81.89 51.33,-91.89 56.8,-87.52"/>
</a>
</g>
</g>
<!-- Node8 -->
<g id="Node000008" class="node">
<title>Node8</title>
<g id="a_Node000008"><a xlink:href="bsp__encoder_8h.html" target="_top" xlink:title="MT6701 磁编码器 BSP 头文件（GPIO 位带模拟 SSI）">
<polygon fill="white" stroke="#666666" points="370.5,-138.75 275.75,-138.75 275.75,-116.5 370.5,-116.5 370.5,-138.75"/>
<text xml:space="preserve" text-anchor="middle" x="323.12" y="-123.35" font-family="Helvetica,sans-Serif" font-size="12.00">bsp_encoder.h</text>
</a>
</g>
</g>
<!-- Node1&#45;&gt;Node8 -->
<g id="edge11_Node000001_Node000008" class="edge">
<title>Node1&#45;&gt;Node8</title>
<g id="a_edge11_Node000001_Node000008"><a xlink:title=" ">
<path fill="none" stroke="#63b8ff" d="M240.16,-174.35C257.11,-165 277.76,-153.62 294.22,-144.55"/>
<polygon fill="#63b8ff" stroke="#63b8ff" points="295.46,-147.87 302.53,-139.97 292.08,-141.74 295.46,-147.87"/>
</a>
</g>
</g>
<!-- Node11 -->
<g id="Node000011" class="node">
<title>Node11</title>
<g id="a_Node000011"><a xlink:href="bsp__adc_8h.html" target="_top" xlink:title="ADC 采样 BSP 头文件（电流/母线电压注入组 + 温度规则组）">
<polygon fill="white" stroke="#666666" points="459.88,-138.75 388.38,-138.75 388.38,-116.5 459.88,-116.5 459.88,-138.75"/>
<text xml:space="preserve" text-anchor="middle" x="424.12" y="-123.35" font-family="Helvetica,sans-Serif" font-size="12.00">bsp_adc.h</text>
</a>
</g>
</g>
<!-- Node1&#45;&gt;Node11 -->
<g id="edge15_Node000001_Node000011" class="edge">
<title>Node1&#45;&gt;Node11</title>
<g id="a_edge15_Node000001_Node000011"><a xlink:title=" ">
<path fill="none" stroke="#63b8ff" d="M266.01,-175.02C300.93,-164.77 344.82,-151.89 377.5,-142.31"/>
<polygon fill="#63b8ff" stroke="#63b8ff" points="378.06,-145.79 386.67,-139.61 376.09,-139.07 378.06,-145.79"/>
</a>
</g>
</g>
<!-- Node3 -->
<g id="Node000003" class="node">
<title>Node3</title>
<g id="a_Node000003"><a xlink:href="foc__math_8h.html" target="_top" xlink:title="FOC 数学基础模块头文件（快速三角函数、坐标变换、角度工具）">
<polygon fill="white" stroke="#666666" points="170.38,-80.5 95.88,-80.5 95.88,-58.25 170.38,-58.25 170.38,-80.5"/>
<text xml:space="preserve" text-anchor="middle" x="133.12" y="-65.1" font-family="Helvetica,sans-Serif" font-size="12.00">foc_math.h</text>
</a>
</g>
</g>
<!-- Node2&#45;&gt;Node3 -->
<g id="edge2_Node000002_Node000003" class="edge">
<title>Node2&#45;&gt;Node3</title>
<g id="a_edge2_Node000002_Node000003"><a xlink:title=" ">
<path fill="none" stroke="#63b8ff" d="M133.12,-116.04C133.12,-109.37 133.12,-100.49 133.12,-92.34"/>
<polygon fill="#63b8ff" stroke="#63b8ff" points="136.63,-92.42 133.13,-82.42 129.63,-92.42 136.63,-92.42"/>
</a>
</g>
</g>
<!-- Node2&#45;&gt;Node5 -->
<g id="edge4_Node000002_Node000005" class="edge">
<title>Node2&#45;&gt;Node5</title>
<g id="a_edge4_Node000002_Node000005"><a xlink:title=" ">
<path fill="none" stroke="#63b8ff" d="M147.42,-116.04C158.25,-108.03 173.35,-96.85 185.9,-87.56"/>
<polygon fill="#63b8ff" stroke="#63b8ff" points="187.72,-90.57 193.68,-81.81 183.56,-84.94 187.72,-90.57"/>
</a>
</g>
</g>
<!-- Node4 -->
<g id="Node000004" class="node">
<title>Node4</title>
<g id="a_Node000004"><a xlink:title=" ">
<polygon fill="#e0e0e0" stroke="#999999" points="282.25,-22.25 228,-22.25 228,0 282.25,0 282.25,-22.25"/>
<text xml:space="preserve" text-anchor="middle" x="255.12" y="-6.85" font-family="Helvetica,sans-Serif" font-size="12.00">stdint.h</text>
</a>
</g>
</g>
<!-- Node3&#45;&gt;Node4 -->
<g id="edge3_Node000003_Node000004" class="edge">
<title>Node3&#45;&gt;Node4</title>
<g id="a_edge3_Node000003_Node000004"><a xlink:title=" ">
<path fill="none" stroke="#63b8ff" d="M156.07,-57.79C174.65,-49.23 201.06,-37.05 221.94,-27.43"/>
<polygon fill="#63b8ff" stroke="#63b8ff" points="223.29,-30.66 230.91,-23.29 220.36,-24.3 223.29,-30.66"/>
</a>
</g>
</g>
<!-- Node5&#45;&gt;Node4 -->
<g id="edge5_Node000005_Node000004" class="edge">
<title>Node5&#45;&gt;Node4</title>
<g id="a_edge5_Node000005_Node000004"><a xlink:title=" ">
<path fill="none" stroke="#63b8ff" d="M217.78,-57.79C223.82,-50.41 232.05,-40.34 239.26,-31.53"/>
<polygon fill="#63b8ff" stroke="#63b8ff" points="241.93,-33.79 245.55,-23.83 236.51,-29.35 241.93,-33.79"/>
</a>
</g>
</g>
<!-- Node6&#45;&gt;Node4 -->
<g id="edge8_Node000006_Node000004" class="edge">
<title>Node6&#45;&gt;Node4</title>
<g id="a_edge8_Node000006_Node000004"><a xlink:title=" ">
<path fill="none" stroke="#63b8ff" d="M236.06,-116.06C239.49,-97.4 246.66,-58.26 251.17,-33.7"/>
<polygon fill="#63b8ff" stroke="#63b8ff" points="254.56,-34.62 252.92,-24.15 247.67,-33.36 254.56,-34.62"/>
</a>
</g>
</g>
<!-- Node7&#45;&gt;Node4 -->
<g id="edge10_Node000007_Node000004" class="edge">
<title>Node7&#45;&gt;Node4</title>
<g id="a_edge10_Node000007_Node000004"><a xlink:title=" ">
<path fill="none" stroke="#63b8ff" d="M78.74,-58.06C118.09,-47.81 178.02,-32.2 216.88,-22.08"/>
<polygon fill="#63b8ff" stroke="#63b8ff" points="217.48,-25.55 226.27,-19.64 215.71,-18.77 217.48,-25.55"/>
</a>
</g>
</g>
<!-- Node8&#45;&gt;Node4 -->
<g id="edge14_Node000008_Node000004" class="edge">
<title>Node8&#45;&gt;Node4</title>
<g id="a_edge14_Node000008_Node000004"><a xlink:title=" ">
<path fill="none" stroke="#63b8ff" d="M316.85,-116.06C305.57,-97.06 281.67,-56.83 267.15,-32.37"/>
<polygon fill="#63b8ff" stroke="#63b8ff" points="270.27,-30.78 262.16,-23.97 264.26,-34.35 270.27,-30.78"/>
</a>
</g>
</g>
<!-- Node9 -->
<g id="Node000009" class="node">
<title>Node9</title>
<g id="a_Node000009"><a xlink:href="main_8h.html" target="_top" xlink:title=": Header for main.c file.">
<polygon fill="white" stroke="#666666" points="388.12,-80.5 336.12,-80.5 336.12,-58.25 388.12,-58.25 388.12,-80.5"/>
<text xml:space="preserve" text-anchor="middle" x="362.12" y="-65.1" font-family="Helvetica,sans-Serif" font-size="12.00">main.h</text>
</a>
</g>
</g>
<!-- Node8&#45;&gt;Node9 -->
<g id="edge12_Node000008_Node000009" class="edge">
<title>Node8&#45;&gt;Node9</title>
<g id="a_edge12_Node000008_Node000009"><a xlink:title=" ">
<path fill="none" stroke="#63b8ff" d="M330.46,-116.04C335.47,-108.82 342.27,-99.01 348.28,-90.34"/>
<polygon fill="#63b8ff" stroke="#63b8ff" points="351.14,-92.36 353.96,-82.15 345.39,-88.38 351.14,-92.36"/>
</a>
</g>
</g>
<!-- Node10 -->
<g id="Node000010" class="node">
<title>Node10</title>
<g id="a_Node000010"><a xlink:title=" ">
<polygon fill="#e0e0e0" stroke="#999999" points="415.5,-22.25 308.75,-22.25 308.75,0 415.5,0 415.5,-22.25"/>
<text xml:space="preserve" text-anchor="middle" x="362.12" y="-6.85" font-family="Helvetica,sans-Serif" font-size="12.00">stm32g4xx_hal.h</text>
</a>
</g>
</g>
<!-- Node9&#45;&gt;Node10 -->
<g id="edge13_Node000009_Node000010" class="edge">
<title>Node9&#45;&gt;Node10</title>
<g id="a_edge13_Node000009_Node000010"><a xlink:title=" ">
<path fill="none" stroke="#63b8ff" d="M362.12,-57.79C362.12,-51.12 362.12,-42.24 362.12,-34.09"/>
<polygon fill="#63b8ff" stroke="#63b8ff" points="365.63,-34.17 362.13,-24.17 358.63,-34.17 365.63,-34.17"/>
</a>
</g>
</g>
<!-- Node11&#45;&gt;Node4 -->
<g id="edge17_Node000011_Node000004" class="edge">
<title>Node11&#45;&gt;Node4</title>
<g id="a_edge17_Node000011_Node000004"><a xlink:title=" ">
<path fill="none" stroke="#63b8ff" d="M422.78,-116.03C420.34,-101.09 413.77,-73.9 397.12,-58.25 381.98,-44.01 330.06,-29.51 293.4,-20.66"/>
<polygon fill="#63b8ff" stroke="#63b8ff" points="294.58,-17.34 284.04,-18.45 292.97,-24.16 294.58,-17.34"/>
</a>
</g>
</g>
<!-- Node11&#45;&gt;Node9 -->
<g id="edge16_Node000011_Node000009" class="edge">
<title>Node11&#45;&gt;Node9</title>
<g id="a_edge16_Node000011_Node000009"><a xlink:title=" ">
<path fill="none" stroke="#63b8ff" d="M412.46,-116.04C403.89,-108.27 392.03,-97.51 381.98,-88.39"/>
<polygon fill="#63b8ff" stroke="#63b8ff" points="384.61,-86.05 374.86,-81.92 379.91,-91.24 384.61,-86.05"/>
</a>
</g>
</g>
</g>
</svg>
</svg>

<style type='text/css'>
<![CDATA[
[data-mouse-over-selected='false'] { opacity: 0.7; }
[data-mouse-over-selected='true']  { opacity: 1.0; }
]]>
</style>
<script type="application/ecmascript"><![CDATA[
document.addEventListener('DOMContentLoaded', (event) => {
  highlightEdges();
  highlightAdjacentNodes();
});
]]></script>
</svg>
