<?xml version="1.0" encoding="UTF-8" standalone="no"?>
<!DOCTYPE svg PUBLIC "-//W3C//DTD SVG 1.1//EN"
 "http://www.w3.org/Graphics/SVG/1.1/DTD/svg11.dtd">
<!-- Generated by graphviz version 15.1.0 (20260618.0150)
 -->
<!-- Title: Application/control/motor_ctrl.h Pages: 1 -->
<svg width="828pt" height="117pt"
 viewBox="0.00 0.00 828.00 117.00" xmlns="http://www.w3.org/2000/svg" xmlns:xlink="http://www.w3.org/1999/xlink">
<g id="graph0" class="graph" transform="scale(1 1) rotate(0) translate(4 113)">
<title>Application/control/motor_ctrl.h</title>
<!-- Node1 -->
<g id="Node000001" class="node">
<title>Node1</title>
<g id="a_Node000001"><a xlink:title="电机控制核心模块头文件（模式状态机 + FOC 主循环）">
<polygon fill="#999999" stroke="#666666" points="470.75,-109 355.75,-109 355.75,-72.5 470.75,-72.5 470.75,-109"/>
<text xml:space="preserve" text-anchor="start" x="363.75" y="-93.6" font-family="Helvetica,sans-Serif" font-size="12.00">Application/control</text>
<text xml:space="preserve" text-anchor="middle" x="413.25" y="-79.35" font-family="Helvetica,sans-Serif" font-size="12.00">/motor_ctrl.h</text>
</a>
</g>
</g>
<!-- Node2 -->
<g id="Node000002" class="node">
<title>Node2</title>
<g id="a_Node000002"><a xlink:href="app__can__protocol_8c.html" target="_top" xlink:title="CAN 应用协议（MIT 运控协议 + 配置协议）">
<polygon fill="white" stroke="#666666" points="122.5,-36.5 0,-36.5 0,0 122.5,0 122.5,-36.5"/>
<text xml:space="preserve" text-anchor="start" x="8" y="-21.1" font-family="Helvetica,sans-Serif" font-size="12.00">Application/app/app</text>
<text xml:space="preserve" text-anchor="middle" x="61.25" y="-6.85" font-family="Helvetica,sans-Serif" font-size="12.00">_can_protocol.c</text>
</a>
</g>
</g>
<!-- Node1&#45;&gt;Node2 -->
<g id="edge1_Node000001_Node000002" class="edge">
<title>Node1&#45;&gt;Node2</title>
<g id="a_edge1_Node000001_Node000002"><a xlink:title=" ">
<path fill="none" stroke="#63b8ff" d="M344.45,-77.72C287.44,-67.52 204.37,-52.08 132.25,-36.5 129.15,-35.83 125.98,-35.13 122.78,-34.4"/>
<polygon fill="#63b8ff" stroke="#63b8ff" points="343.54,-81.12 354,-79.43 344.77,-74.23 343.54,-81.12"/>
</a>
</g>
</g>
<!-- Node3 -->
<g id="Node000003" class="node">
<title>Node3</title>
<g id="a_Node000003"><a xlink:href="app__led_8c.html" target="_top" xlink:title="状态灯语模块（单颗 WS2812，亮度全局可调）">
<polygon fill="white" stroke="#666666" points="263.5,-36.5 141,-36.5 141,0 263.5,0 263.5,-36.5"/>
<text xml:space="preserve" text-anchor="start" x="149" y="-21.1" font-family="Helvetica,sans-Serif" font-size="12.00">Application/app/app</text>
<text xml:space="preserve" text-anchor="middle" x="202.25" y="-6.85" font-family="Helvetica,sans-Serif" font-size="12.00">_led.c</text>
</a>
</g>
</g>
<!-- Node1&#45;&gt;Node3 -->
<g id="edge2_Node000001_Node000003" class="edge">
<title>Node1&#45;&gt;Node3</title>
<g id="a_edge2_Node000001_Node000003"><a xlink:title=" ">
<path fill="none" stroke="#63b8ff" d="M349.45,-68.43C319.35,-58.37 283.84,-46.51 255.24,-36.96"/>
<polygon fill="#63b8ff" stroke="#63b8ff" points="348.25,-71.72 358.84,-71.57 350.47,-65.08 348.25,-71.72"/>
</a>
</g>
</g>
<!-- Node4 -->
<g id="Node000004" class="node">
<title>Node4</title>
<g id="a_Node000004"><a xlink:href="app__main_8c.html" target="_top" xlink:title="应用入口模块（前后台调度）">
<polygon fill="white" stroke="#666666" points="404.5,-36.5 282,-36.5 282,0 404.5,0 404.5,-36.5"/>
<text xml:space="preserve" text-anchor="start" x="290" y="-21.1" font-family="Helvetica,sans-Serif" font-size="12.00">Application/app/app</text>
<text xml:space="preserve" text-anchor="middle" x="343.25" y="-6.85" font-family="Helvetica,sans-Serif" font-size="12.00">_main.c</text>
</a>
</g>
</g>
<!-- Node1&#45;&gt;Node4 -->
<g id="edge3_Node000001_Node000004" class="edge">
<title>Node1&#45;&gt;Node4</title>
<g id="a_edge3_Node000001_Node000004"><a xlink:title=" ">
<path fill="none" stroke="#63b8ff" d="M388.02,-64.33C379.01,-55.26 369.06,-45.25 360.84,-36.97"/>
<polygon fill="#63b8ff" stroke="#63b8ff" points="385.35,-66.62 394.88,-71.25 390.32,-61.69 385.35,-66.62"/>
</a>
</g>
</g>
<!-- Node5 -->
<g id="Node000005" class="node">
<title>Node5</title>
<g id="a_Node000005"><a xlink:href="app__monitor_8c.html" target="_top" xlink:title="调试数据打印模块">
<polygon fill="white" stroke="#666666" points="545.5,-36.5 423,-36.5 423,0 545.5,0 545.5,-36.5"/>
<text xml:space="preserve" text-anchor="start" x="431" y="-21.1" font-family="Helvetica,sans-Serif" font-size="12.00">Application/app/app</text>
<text xml:space="preserve" text-anchor="middle" x="484.25" y="-6.85" font-family="Helvetica,sans-Serif" font-size="12.00">_monitor.c</text>
</a>
</g>
</g>
<!-- Node1&#45;&gt;Node5 -->
<g id="edge4_Node000001_Node000005" class="edge">
<title>Node1&#45;&gt;Node5</title>
<g id="a_edge4_Node000001_Node000005"><a xlink:title=" ">
<path fill="none" stroke="#63b8ff" d="M438.85,-64.33C447.98,-55.26 458.07,-45.25 466.41,-36.97"/>
<polygon fill="#63b8ff" stroke="#63b8ff" points="436.5,-61.73 431.87,-71.26 441.44,-66.69 436.5,-61.73"/>
</a>
</g>
</g>
<!-- Node6 -->
<g id="Node000006" class="node">
<title>Node6</title>
<g id="a_Node000006"><a xlink:href="app__shell_8c.html" target="_top" xlink:title="调试 shell 模块（USART3，行式命令）">
<polygon fill="white" stroke="#666666" points="686.5,-36.5 564,-36.5 564,0 686.5,0 686.5,-36.5"/>
<text xml:space="preserve" text-anchor="start" x="572" y="-21.1" font-family="Helvetica,sans-Serif" font-size="12.00">Application/app/app</text>
<text xml:space="preserve" text-anchor="middle" x="625.25" y="-6.85" font-family="Helvetica,sans-Serif" font-size="12.00">_shell.c</text>
</a>
</g>
</g>
<!-- Node1&#45;&gt;Node6 -->
<g id="edge5_Node000001_Node000006" class="edge">
<title>Node1&#45;&gt;Node6</title>
<g id="a_edge5_Node000001_Node000006"><a xlink:title=" ">
<path fill="none" stroke="#63b8ff" d="M477.35,-68.43C507.6,-58.37 543.27,-46.51 572.01,-36.96"/>
<polygon fill="#63b8ff" stroke="#63b8ff" points="476.29,-65.1 467.91,-71.57 478.5,-71.74 476.29,-65.1"/>
</a>
</g>
</g>
<!-- Node7 -->
<g id="Node000007" class="node">
<title>Node7</title>
<g id="a_Node000007"><a xlink:href="motor__ctrl_8c.html" target="_top" xlink:title="电机控制核心模块（模式状态机 + 20kHz FOC 主循环）">
<polygon fill="white" stroke="#666666" points="819.75,-36.5 704.75,-36.5 704.75,0 819.75,0 819.75,-36.5"/>
<text xml:space="preserve" text-anchor="start" x="712.75" y="-21.1" font-family="Helvetica,sans-Serif" font-size="12.00">Application/control</text>
<text xml:space="preserve" text-anchor="middle" x="762.25" y="-6.85" font-family="Helvetica,sans-Serif" font-size="12.00">/motor_ctrl.c</text>
</a>
</g>
</g>
<!-- Node1&#45;&gt;Node7 -->
<g id="edge6_Node000001_Node000007" class="edge">
<title>Node1&#45;&gt;Node7</title>
<g id="a_edge6_Node000001_Node000007"><a xlink:title=" ">
<path fill="none" stroke="#63b8ff" d="M482.09,-78.05C539.34,-68 622.87,-52.63 695.25,-36.5 698.3,-35.82 701.42,-35.1 704.56,-34.36"/>
<polygon fill="#63b8ff" stroke="#63b8ff" points="481.74,-74.56 472.49,-79.72 482.94,-81.45 481.74,-74.56"/>
</a>
</g>
</g>
</g>
</svg>
