<?xml version="1.0" encoding="UTF-8" standalone="no"?>
<!DOCTYPE svg PUBLIC "-//W3C//DTD SVG 1.1//EN"
 "http://www.w3.org/Graphics/SVG/1.1/DTD/svg11.dtd">
<!-- Generated by graphviz version 15.1.0 (20260618.0150)
 -->
<!-- Title: MC_SlowLoop Pages: 1 -->
<svg width="264pt" height="190pt"
 viewBox="0.00 0.00 264.00 190.00" xmlns="http://www.w3.org/2000/svg" xmlns:xlink="http://www.w3.org/1999/xlink">

<svg id="main" version="1.1" xmlns="http://www.w3.org/2000/svg" xmlns:xlink="http://www.w3.org/1999/xlink" xml:space="preserve">

<style type="text/css"><![CDATA[
.node, .edge {opacity: 0.7;}
.node.selected, .edge.selected {opacity: 1;}
.edge:hover path { stroke: red; }
.edge:hover polygon { stroke: red; fill: red; }
]]></style>
<script type="application/ecmascript" xlink:href="svg.min.js"/>
<svg id="graph" class="graph">
<g id="graph0" class="graph" transform="scale(1 1) rotate(0) translate(4 186.25)">
<title>MC_SlowLoop</title>
<!-- Node1 -->
<g id="Node000001" class="node">
<title>Node1</title>
<g id="a_Node000001"><a xlink:title="慢环（1kHz）：电流限幅刷新与速度/位置外环">
<polygon fill="#999999" stroke="#666666" points="95.5,-102.25 0,-102.25 0,-80 95.5,-80 95.5,-102.25"/>
<text xml:space="preserve" text-anchor="middle" x="47.75" y="-86.85" font-family="Helvetica,sans-Serif" font-size="12.00">MC_SlowLoop</text>
</a>
</g>
</g>
<!-- Node2 -->
<g id="Node000002" class="node">
<title>Node2</title>
<g id="a_Node000002"><a xlink:href="foc_8c.html#a42501e789c00841a74f2ce755c5d03d6" target="_top" xlink:title="设置 d/q 电流给定">
<polygon fill="white" stroke="#666666" points="256.25,-182.25 131.5,-182.25 131.5,-160 256.25,-160 256.25,-182.25"/>
<text xml:space="preserve" text-anchor="middle" x="193.88" y="-166.85" font-family="Helvetica,sans-Serif" font-size="12.00">FOC_SetCurrentRef</text>
</a>
</g>
</g>
<!-- Node1&#45;&gt;Node2 -->
<g id="edge1_Node000001_Node000002" class="edge">
<title>Node1&#45;&gt;Node2</title>
<g id="a_edge1_Node000001_Node000002"><a xlink:title=" ">
<path fill="none" stroke="#63b8ff" d="M61.95,-102.72C77.6,-115.98 104.94,-137.59 131.5,-151.12 134.4,-152.6 137.44,-154 140.54,-155.33"/>
<polygon fill="#63b8ff" stroke="#63b8ff" points="139.23,-158.57 149.81,-158.96 141.78,-152.05 139.23,-158.57"/>
</a>
</g>
</g>
<!-- Node3 -->
<g id="Node000003" class="node">
<title>Node3</title>
<g id="a_Node000003"><a xlink:href="motor__ctrl_8c.html#a5cbc0a7993d542a75e755f2e4dc5ab1e" target="_top" xlink:title="对称限幅">
<polygon fill="white" stroke="#666666" points="232.25,-142.25 155.5,-142.25 155.5,-120 232.25,-120 232.25,-142.25"/>
<text xml:space="preserve" text-anchor="middle" x="193.88" y="-126.85" font-family="Helvetica,sans-Serif" font-size="12.00">MC_Clamp</text>
</a>
</g>
</g>
<!-- Node1&#45;&gt;Node3 -->
<g id="edge2_Node000001_Node000003" class="edge">
<title>Node1&#45;&gt;Node3</title>
<g id="a_edge2_Node000001_Node000003"><a xlink:title=" ">
<path fill="none" stroke="#63b8ff" d="M90.44,-102.69C107.37,-107.4 127.05,-112.86 144.6,-117.73"/>
<polygon fill="#63b8ff" stroke="#63b8ff" points="143.19,-120.97 153.76,-120.27 145.06,-114.22 143.19,-120.97"/>
</a>
</g>
</g>
<!-- Node4 -->
<g id="Node000004" class="node">
<title>Node4</title>
<g id="a_Node000004"><a xlink:href="pid_8c.html#ad7fced70a610f756fa6319fccc4ae725" target="_top" xlink:title="运行中修改输出限幅，并把积分收拢到新限幅内">
<polygon fill="white" stroke="#666666" points="240.12,-102.25 147.62,-102.25 147.62,-80 240.12,-80 240.12,-102.25"/>
<text xml:space="preserve" text-anchor="middle" x="193.88" y="-86.85" font-family="Helvetica,sans-Serif" font-size="12.00">PID_SetLimits</text>
</a>
</g>
</g>
<!-- Node1&#45;&gt;Node4 -->
<g id="edge3_Node000001_Node000004" class="edge">
<title>Node1&#45;&gt;Node4</title>
<g id="a_edge3_Node000001_Node000004"><a xlink:title=" ">
<path fill="none" stroke="#63b8ff" d="M95.94,-91.12C108.77,-91.12 122.79,-91.12 136.09,-91.12"/>
<polygon fill="#63b8ff" stroke="#63b8ff" points="136.03,-94.63 146.03,-91.13 136.03,-87.63 136.03,-94.63"/>
</a>
</g>
</g>
<!-- Node5 -->
<g id="Node000005" class="node">
<title>Node5</title>
<g id="a_Node000005"><a xlink:href="pid_8c.html#a0cc51ef261cec84e3e35382345ac95a0" target="_top" xlink:title="执行一次 PID 计算">
<polygon fill="white" stroke="#666666" points="234.88,-62.25 152.88,-62.25 152.88,-40 234.88,-40 234.88,-62.25"/>
<text xml:space="preserve" text-anchor="middle" x="193.88" y="-46.85" font-family="Helvetica,sans-Serif" font-size="12.00">PID_Update</text>
</a>
</g>
</g>
<!-- Node1&#45;&gt;Node5 -->
<g id="edge4_Node000001_Node000005" class="edge">
<title>Node1&#45;&gt;Node5</title>
<g id="a_edge4_Node000001_Node000005"><a xlink:title=" ">
<path fill="none" stroke="#63b8ff" d="M90.44,-79.56C106.53,-75.09 125.1,-69.93 141.97,-65.25"/>
<polygon fill="#63b8ff" stroke="#63b8ff" points="142.61,-68.71 151.31,-62.66 140.74,-61.96 142.61,-68.71"/>
</a>
</g>
</g>
<!-- Node6 -->
<g id="Node000006" class="node">
<title>Node6</title>
<g id="a_Node000006"><a xlink:href="protection_8c.html#a87d1ad0c7e39a4c5c88dc7b62e964da7" target="_top" xlink:title="读取温度降额系数（乘到电流限幅上；0 表示已达过温故障）">
<polygon fill="white" stroke="#666666" points="254.38,-22.25 133.38,-22.25 133.38,0 254.38,0 254.38,-22.25"/>
<text xml:space="preserve" text-anchor="middle" x="193.88" y="-6.85" font-family="Helvetica,sans-Serif" font-size="12.00">PROT_GetDerating</text>
</a>
</g>
</g>
<!-- Node1&#45;&gt;Node6 -->
<g id="edge5_Node000001_Node000006" class="edge">
<title>Node1&#45;&gt;Node6</title>
<g id="a_edge5_Node000001_Node000006"><a xlink:title=" ">
<path fill="none" stroke="#63b8ff" d="M61.95,-79.53C77.6,-66.27 104.94,-44.66 131.5,-31.12 134.4,-29.65 137.44,-28.25 140.54,-26.92"/>
<polygon fill="#63b8ff" stroke="#63b8ff" points="141.78,-30.2 149.81,-23.29 139.23,-23.68 141.78,-30.2"/>
</a>
</g>
</g>
</g>
</svg>
</svg>

<style type='text/css'>
<![CDATA[
[data-mouse-over-selected='false'] { opacity: 0.7; }
[data-mouse-over-selected='true']  { opacity: 1.0; }
]]>
</style>
<script type="application/ecmascript"><![CDATA[
document.addEventListener('DOMContentLoaded', (event) => {
  highlightEdges();
  highlightAdjacentNodes();
});
]]></script>
</svg>
