<?xml version="1.0" encoding="UTF-8" standalone="no"?>
<!DOCTYPE svg PUBLIC "-//W3C//DTD SVG 1.1//EN"
 "http://www.w3.org/Graphics/SVG/1.1/DTD/svg11.dtd">
<!-- Generated by graphviz version 15.1.0 (20260618.0150)
 -->
<!-- Title: MC_Init Pages: 1 -->
<!--zoomable 308 -->

<svg id="main" version="1.1" xmlns="http://www.w3.org/2000/svg" xmlns:xlink="http://www.w3.org/1999/xlink" xml:space="preserve" onload="init(evt)">

<style type="text/css"><![CDATA[
.node, .edge {opacity: 0.7;}
.node.selected, .edge.selected {opacity: 1;}
.edge:hover path { stroke: red; }
.edge:hover polygon { stroke: red; fill: red; }
]]></style>

<defs>
  <circle id="rim" cx="0" cy="0" r="7"/>
  <circle id="rim2" cx="0" cy="0" r="3.5"/>
  <g id="zoomPlus">
    <use xlink:href="#rim" fill="#404040"><set attributeName="fill" to="#808080" begin="zoomplus.mouseover" end="zoomplus.mouseout"/></use>
    <path d="M-4,0h8M0,-4v8" fill="none" stroke="white" stroke-width="1.5" pointer-events="none"/>
  </g>
  <g id="zoomMin">
    <use xlink:href="#rim" fill="#404040"><set attributeName="fill" to="#808080" begin="zoomminus.mouseover" end="zoomminus.mouseout"/></use>
    <path d="M-4,0h8" fill="none" stroke="white" stroke-width="1.5" pointer-events="none"/>
  </g>
  <g id="arrowUp" transform="translate(30 24)">
    <use xlink:href="#rim"/>
    <path pointer-events="none" fill="none" stroke="white" stroke-width="1.5" d="M0,-3.0v7 M-2.5,-0.5L0,-3.0L2.5,-0.5"/>
  </g>
  <g id="arrowRight" transform="rotate(90) translate(36 -43)">
    <use xlink:href="#rim"/>
    <path pointer-events="none" fill="none" stroke="white" stroke-width="1.5" d="M0,-3.0v7 M-2.5,-0.5L0,-3.0L2.5,-0.5"/>
  </g>
  <g id="arrowDown" transform="rotate(180) translate(-30 -48)">
    <use xlink:href="#rim"/>
    <path pointer-events="none" fill="none" stroke="white" stroke-width="1.5" d="M0,-3.0v7 M-2.5,-0.5L0,-3.0L2.5,-0.5"/>
  </g>
  <g id="arrowLeft" transform="rotate(270) translate(-36 17)">
    <use xlink:href="#rim"/>
    <path pointer-events="none" fill="none" stroke="white" stroke-width="1.5" d="M0,-3.0v7 M-2.5,-0.5L0,-3.0L2.5,-0.5"/>
  </g>
  <g id="resetDef">
    <use xlink:href="#rim2" fill="#404040"><set attributeName="fill" to="#808080" begin="reset.mouseover" end="reset.mouseout"/></use>
  </g>
</defs>
<script type="application/ecmascript">
var viewWidth = 552;
var viewHeight = 308;
var sectionId = 'dynsection-12';
</script>
<script type="application/ecmascript" xlink:href="svg.min.js"/>
<svg id="graph" class="graph">
<g id="viewport">
<title>MC_Init</title>
<!-- Node1 -->
<g id="Node000001" class="node">
<title>Node1</title>
<g id="a_Node000001"><a xlink:title="初始化电机控制模块">
<polygon fill="#999999" stroke="#666666" points="57.25,-161.25 0,-161.25 0,-139 57.25,-139 57.25,-161.25"/>
<text xml:space="preserve" text-anchor="middle" x="28.62" y="-145.85" font-family="Helvetica,sans-Serif" font-size="12.00">MC_Init</text>
</a>
</g>
</g>
<!-- Node2 -->
<g id="Node000002" class="node">
<title>Node2</title>
<g id="a_Node000002"><a xlink:href="bsp__encoder_8c.html#a9f9d4545ad55a3bc5bc15920257754d3" target="_top" xlink:title="预置编码器状态（上电首读，避免多圈计数误跳）">
<polygon fill="white" stroke="#666666" points="218.38,-300.25 95.88,-300.25 95.88,-278 218.38,-278 218.38,-300.25"/>
<text xml:space="preserve" text-anchor="middle" x="157.12" y="-284.85" font-family="Helvetica,sans-Serif" font-size="12.00">BSP_ENC_Preload</text>
</a>
</g>
</g>
<!-- Node1&#45;&gt;Node2 -->
<g id="edge1_Node000001_Node000002" class="edge">
<title>Node1&#45;&gt;Node2</title>
<g id="a_edge1_Node000001_Node000002"><a xlink:title=" ">
<path fill="none" stroke="#63b8ff" d="M32.55,-161.47C39.22,-185.05 57.77,-239.61 93.25,-269.12 94.52,-270.18 95.84,-271.18 97.21,-272.12"/>
<polygon fill="#63b8ff" stroke="#63b8ff" points="95.06,-274.93 105.48,-276.88 98.55,-268.86 95.06,-274.93"/>
</a>
</g>
</g>
<!-- Node5 -->
<g id="Node000005" class="node">
<title>Node5</title>
<g id="a_Node000005"><a xlink:href="bsp__encoder_8c.html#aeb49ab86be385a4a6edd057538820937" target="_top" xlink:title="设置方向反转标志（预定位校准结果）">
<polygon fill="white" stroke="#666666" points="221,-260.25 93.25,-260.25 93.25,-238 221,-238 221,-260.25"/>
<text xml:space="preserve" text-anchor="middle" x="157.12" y="-244.85" font-family="Helvetica,sans-Serif" font-size="12.00">BSP_ENC_SetInvert</text>
</a>
</g>
</g>
<!-- Node1&#45;&gt;Node5 -->
<g id="edge4_Node000001_Node000005" class="edge">
<title>Node1&#45;&gt;Node5</title>
<g id="a_edge4_Node000001_Node000005"><a xlink:title=" ">
<path fill="none" stroke="#63b8ff" d="M35.87,-161.57C45.8,-178.73 66.8,-211.02 93.25,-229.12 95.06,-230.36 96.95,-231.53 98.89,-232.62"/>
<polygon fill="#63b8ff" stroke="#63b8ff" points="97.13,-235.66 107.65,-236.88 100.19,-229.36 97.13,-235.66"/>
</a>
</g>
</g>
<!-- Node6 -->
<g id="Node000006" class="node">
<title>Node6</title>
<g id="a_Node000006"><a xlink:href="foc_8c.html#aebd9eaf8fdc1eec2e646d0ed4a4a3d2c" target="_top" xlink:title="初始化 FOC 电流环">
<polygon fill="white" stroke="#666666" points="189.12,-220.25 125.12,-220.25 125.12,-198 189.12,-198 189.12,-220.25"/>
<text xml:space="preserve" text-anchor="middle" x="157.12" y="-204.85" font-family="Helvetica,sans-Serif" font-size="12.00">FOC_Init</text>
</a>
</g>
</g>
<!-- Node1&#45;&gt;Node6 -->
<g id="edge5_Node000001_Node000006" class="edge">
<title>Node1&#45;&gt;Node6</title>
<g id="a_edge5_Node000001_Node000006"><a xlink:title=" ">
<path fill="none" stroke="#63b8ff" d="M49.96,-161.74C62.31,-168.61 78.48,-177.27 93.25,-184.12 100.04,-187.28 107.35,-190.41 114.5,-193.34"/>
<polygon fill="#63b8ff" stroke="#63b8ff" points="113.14,-196.57 123.73,-197.04 115.75,-190.07 113.14,-196.57"/>
</a>
</g>
</g>
<!-- Node9 -->
<g id="Node000009" class="node">
<title>Node9</title>
<g id="a_Node000009"><a xlink:href="pid_8c.html#a476429033a7322ee2bd627805ca46816" target="_top" xlink:title="初始化 PID 控制器">
<polygon fill="white" stroke="#666666" points="358.88,-182.25 300.12,-182.25 300.12,-160 358.88,-160 358.88,-182.25"/>
<text xml:space="preserve" text-anchor="middle" x="329.5" y="-166.85" font-family="Helvetica,sans-Serif" font-size="12.00">PID_Init</text>
</a>
</g>
</g>
<!-- Node1&#45;&gt;Node9 -->
<g id="edge14_Node000001_Node000009" class="edge">
<title>Node1&#45;&gt;Node9</title>
<g id="a_edge14_Node000001_Node000009"><a xlink:title=" ">
<path fill="none" stroke="#63b8ff" d="M57.74,-152.1C111.12,-155.85 227.27,-164.01 288.65,-168.32"/>
<polygon fill="#63b8ff" stroke="#63b8ff" points="288.07,-171.79 298.29,-169 288.56,-164.81 288.07,-171.79"/>
</a>
</g>
</g>
<!-- Node10 -->
<g id="Node000010" class="node">
<title>Node10</title>
<g id="a_Node000010"><a xlink:href="foc__math_8c.html#a39d4aea10aec434cb4d2490fafb98632" target="_top" xlink:title="查表+线性插值同时计算 sin/cos">
<polygon fill="white" stroke="#666666" points="201.12,-142.25 113.12,-142.25 113.12,-120 201.12,-120 201.12,-142.25"/>
<text xml:space="preserve" text-anchor="middle" x="157.12" y="-126.85" font-family="Helvetica,sans-Serif" font-size="12.00">FOC_SinCos</text>
</a>
</g>
</g>
<!-- Node1&#45;&gt;Node10 -->
<g id="edge10_Node000001_Node000010" class="edge">
<title>Node1&#45;&gt;Node10</title>
<g id="a_edge10_Node000001_Node000010"><a xlink:title=" ">
<path fill="none" stroke="#63b8ff" d="M57.7,-145.91C70.58,-143.97 86.31,-141.61 101.38,-139.35"/>
<polygon fill="#63b8ff" stroke="#63b8ff" points="101.85,-142.82 111.22,-137.87 100.81,-135.89 101.85,-142.82"/>
</a>
</g>
</g>
<!-- Node13 -->
<g id="Node000013" class="node">
<title>Node13</title>
<g id="a_Node000013"><a xlink:href="motor__ctrl_8c.html#a314b8aad615262b23be0463fa16b9ceb" target="_top" xlink:title="转子展开机械角 [rad]：整数圈 + 单圈角分离合成">
<polygon fill="white" stroke="#666666" points="203,-102.25 111.25,-102.25 111.25,-80 203,-80 203,-102.25"/>
<text xml:space="preserve" text-anchor="middle" x="157.12" y="-86.85" font-family="Helvetica,sans-Serif" font-size="12.00">MC_PosRotor</text>
</a>
</g>
</g>
<!-- Node1&#45;&gt;Node13 -->
<g id="edge13_Node000001_Node000013" class="edge">
<title>Node1&#45;&gt;Node13</title>
<g id="a_edge13_Node000001_Node000013"><a xlink:title=" ">
<path fill="none" stroke="#63b8ff" d="M46.02,-138.54C58.52,-130.1 76.4,-118.83 93.25,-111.12 96.74,-109.53 100.4,-108.01 104.11,-106.57"/>
<polygon fill="#63b8ff" stroke="#63b8ff" points="105.03,-109.96 113.24,-103.26 102.64,-103.38 105.03,-109.96"/>
</a>
</g>
</g>
<!-- Node14 -->
<g id="Node000014" class="node">
<title>Node14</title>
<g id="a_Node000014"><a xlink:href="filter_8c.html#aefdb8f4eed7a1e65aec91e54f7a0f790" target="_top" xlink:title="初始化 PLL 速度估计器">
<polygon fill="white" stroke="#666666" points="187.25,-62.25 127,-62.25 127,-40 187.25,-40 187.25,-62.25"/>
<text xml:space="preserve" text-anchor="middle" x="157.12" y="-46.85" font-family="Helvetica,sans-Serif" font-size="12.00">PLL_Init</text>
</a>
</g>
</g>
<!-- Node1&#45;&gt;Node14 -->
<g id="edge15_Node000001_Node000014" class="edge">
<title>Node1&#45;&gt;Node14</title>
<g id="a_edge15_Node000001_Node000014"><a xlink:title=" ">
<path fill="none" stroke="#63b8ff" d="M35.87,-138.68C45.8,-121.52 66.8,-89.23 93.25,-71.12 100,-66.51 107.87,-62.91 115.71,-60.12"/>
<polygon fill="#63b8ff" stroke="#63b8ff" points="116.72,-63.47 125.22,-57.15 114.63,-56.79 116.72,-63.47"/>
</a>
</g>
</g>
<!-- Node15 -->
<g id="Node000015" class="node">
<title>Node15</title>
<g id="a_Node000015"><a xlink:href="filter_8c.html#a92c4dfa4557978b294c448b59f485614" target="_top" xlink:title="预置 PLL 跟踪角度（上电对准编码器初值，避免速度冲击）">
<polygon fill="white" stroke="#666666" points="200.38,-22.25 113.88,-22.25 113.88,0 200.38,0 200.38,-22.25"/>
<text xml:space="preserve" text-anchor="middle" x="157.12" y="-6.85" font-family="Helvetica,sans-Serif" font-size="12.00">PLL_Preload</text>
</a>
</g>
</g>
<!-- Node1&#45;&gt;Node15 -->
<g id="edge16_Node000001_Node000015" class="edge">
<title>Node1&#45;&gt;Node15</title>
<g id="a_edge16_Node000001_Node000015"><a xlink:title=" ">
<path fill="none" stroke="#63b8ff" d="M32.55,-138.78C39.22,-115.2 57.77,-60.64 93.25,-31.12 96.29,-28.59 99.66,-26.38 103.21,-24.45"/>
<polygon fill="#63b8ff" stroke="#63b8ff" points="104.55,-27.68 112.19,-20.34 101.64,-21.32 104.55,-27.68"/>
</a>
</g>
</g>
<!-- Node3 -->
<g id="Node000003" class="node">
<title>Node3</title>
<g id="a_Node000003"><a xlink:href="bsp__encoder_8c.html#a952d9a4a6bd64cde7ae4b60a8757c430" target="_top" xlink:title="读取一次编码器角度（ISR 安全，阻塞约 5us）">
<polygon fill="white" stroke="#666666" points="384.38,-300.25 274.62,-300.25 274.62,-278 384.38,-278 384.38,-300.25"/>
<text xml:space="preserve" text-anchor="middle" x="329.5" y="-284.85" font-family="Helvetica,sans-Serif" font-size="12.00">BSP_ENC_Read</text>
</a>
</g>
</g>
<!-- Node2&#45;&gt;Node3 -->
<g id="edge2_Node000002_Node000003" class="edge">
<title>Node2&#45;&gt;Node3</title>
<g id="a_edge2_Node000002_Node000003"><a xlink:title=" ">
<path fill="none" stroke="#63b8ff" d="M218.67,-289.12C233.01,-289.12 248.37,-289.12 262.92,-289.12"/>
<polygon fill="#63b8ff" stroke="#63b8ff" points="262.87,-292.63 272.87,-289.13 262.87,-285.63 262.87,-292.63"/>
</a>
</g>
</g>
<!-- Node4 -->
<g id="Node000004" class="node">
<title>Node4</title>
<g id="a_Node000004"><a xlink:href="bsp__encoder_8c.html#a05a73d1c3440289f913db2b8a47a954a" target="_top" xlink:title="CRC6 计算（X^6 + X + 1，初值 0，MSB 先入）">
<polygon fill="white" stroke="#666666" points="544,-300.25 438,-300.25 438,-278 544,-278 544,-300.25"/>
<text xml:space="preserve" text-anchor="middle" x="491" y="-284.85" font-family="Helvetica,sans-Serif" font-size="12.00">BSP_ENC_Crc6</text>
</a>
</g>
</g>
<!-- Node3&#45;&gt;Node4 -->
<g id="edge3_Node000003_Node000004" class="edge">
<title>Node3&#45;&gt;Node4</title>
<g id="a_edge3_Node000003_Node000004"><a xlink:title=" ">
<path fill="none" stroke="#63b8ff" d="M384.5,-289.12C397.91,-289.12 412.42,-289.12 426.25,-289.12"/>
<polygon fill="#63b8ff" stroke="#63b8ff" points="426.16,-292.63 436.16,-289.13 426.16,-285.63 426.16,-292.63"/>
</a>
</g>
</g>
<!-- Node7 -->
<g id="Node000007" class="node">
<title>Node7</title>
<g id="a_Node000007"><a xlink:href="foc_8c.html#aa25cf599086b4ad815ae5ad72dcfdec4" target="_top" xlink:title="复位电流环状态（封波后重新使能前调用，防止积分残留冲击）">
<polygon fill="white" stroke="#666666" points="369.38,-222.25 289.62,-222.25 289.62,-200 369.38,-200 369.38,-222.25"/>
<text xml:space="preserve" text-anchor="middle" x="329.5" y="-206.85" font-family="Helvetica,sans-Serif" font-size="12.00">FOC_Reset</text>
</a>
</g>
</g>
<!-- Node6&#45;&gt;Node7 -->
<g id="edge6_Node000006_Node000007" class="edge">
<title>Node6&#45;&gt;Node7</title>
<g id="a_edge6_Node000006_Node000007"><a xlink:title=" ">
<path fill="none" stroke="#63b8ff" d="M189.37,-209.49C214.11,-209.78 249.16,-210.19 277.89,-210.53"/>
<polygon fill="#63b8ff" stroke="#63b8ff" points="277.81,-214.03 287.85,-210.65 277.89,-207.03 277.81,-214.03"/>
</a>
</g>
</g>
<!-- Node6&#45;&gt;Node9 -->
<g id="edge8_Node000006_Node000009" class="edge">
<title>Node6&#45;&gt;Node9</title>
<g id="a_edge8_Node000006_Node000009"><a xlink:title=" ">
<path fill="none" stroke="#63b8ff" d="M189.37,-202.16C217.31,-195.92 258.41,-186.76 288.69,-180"/>
<polygon fill="#63b8ff" stroke="#63b8ff" points="289.24,-183.47 298.24,-177.87 287.72,-176.63 289.24,-183.47"/>
</a>
</g>
</g>
<!-- Node8 -->
<g id="Node000008" class="node">
<title>Node8</title>
<g id="a_Node000008"><a xlink:href="pid_8c.html#acb76685b15d3fde29d9bd5548b3268c1" target="_top" xlink:title="复位 PID 内部状态（积分/历史误差/输出）">
<polygon fill="white" stroke="#666666" points="528.25,-202.25 453.75,-202.25 453.75,-180 528.25,-180 528.25,-202.25"/>
<text xml:space="preserve" text-anchor="middle" x="491" y="-186.85" font-family="Helvetica,sans-Serif" font-size="12.00">PID_Reset</text>
</a>
</g>
</g>
<!-- Node7&#45;&gt;Node8 -->
<g id="edge7_Node000007_Node000008" class="edge">
<title>Node7&#45;&gt;Node8</title>
<g id="a_edge7_Node000007_Node000008"><a xlink:title=" ">
<path fill="none" stroke="#63b8ff" d="M369.52,-206.23C391.37,-203.49 418.81,-200.05 441.97,-197.15"/>
<polygon fill="#63b8ff" stroke="#63b8ff" points="442.31,-200.63 451.8,-195.92 441.44,-193.69 442.31,-200.63"/>
</a>
</g>
</g>
<!-- Node9&#45;&gt;Node8 -->
<g id="edge9_Node000009_Node000008" class="edge">
<title>Node9&#45;&gt;Node8</title>
<g id="a_edge9_Node000009_Node000008"><a xlink:title=" ">
<path fill="none" stroke="#63b8ff" d="M359.02,-174.7C382.07,-177.59 415.02,-181.72 442.11,-185.12"/>
<polygon fill="#63b8ff" stroke="#63b8ff" points="441.45,-188.56 451.81,-186.34 442.32,-181.62 441.45,-188.56"/>
</a>
</g>
</g>
<!-- Node11 -->
<g id="Node000011" class="node">
<title>Node11</title>
<g id="a_Node000011"><a xlink:href="foc__math_8c.html#ac63ab3ffd2685338c76dc6de24c953b1" target="_top" xlink:title="构建 sin 查找表（仅初始化时执行一次）">
<polygon fill="white" stroke="#666666" points="402,-142.25 257,-142.25 257,-120 402,-120 402,-142.25"/>
<text xml:space="preserve" text-anchor="middle" x="329.5" y="-126.85" font-family="Helvetica,sans-Serif" font-size="12.00">FOC_MATH_BuildTable</text>
</a>
</g>
</g>
<!-- Node10&#45;&gt;Node11 -->
<g id="edge11_Node000010_Node000011" class="edge">
<title>Node10&#45;&gt;Node11</title>
<g id="a_edge11_Node000010_Node000011"><a xlink:title=" ">
<path fill="none" stroke="#63b8ff" d="M201.56,-131.12C214.91,-131.12 230.09,-131.12 245.19,-131.12"/>
<polygon fill="#63b8ff" stroke="#63b8ff" points="245.17,-134.63 255.17,-131.13 245.17,-127.63 245.17,-134.63"/>
</a>
</g>
</g>
<!-- Node12 -->
<g id="Node000012" class="node">
<title>Node12</title>
<g id="a_Node000012"><a xlink:href="foc__math_8c.html#a4cc9d35ffa1c5f6ab5668cbe7623d018" target="_top" xlink:title="角度归一化到 [0, 2pi)">
<polygon fill="white" stroke="#666666" points="396.75,-62.25 262.25,-62.25 262.25,-40 396.75,-40 396.75,-62.25"/>
<text xml:space="preserve" text-anchor="middle" x="329.5" y="-46.85" font-family="Helvetica,sans-Serif" font-size="12.00">FOC_NormalizeAngle</text>
</a>
</g>
</g>
<!-- Node10&#45;&gt;Node12 -->
<g id="edge12_Node000010_Node000012" class="edge">
<title>Node10&#45;&gt;Node12</title>
<g id="a_edge12_Node000010_Node000012"><a xlink:title=" ">
<path fill="none" stroke="#63b8ff" d="M198.82,-119.5C206.29,-117 213.96,-114.17 221,-111.12 249.15,-98.94 279.52,-81.56 300.78,-68.64"/>
<polygon fill="#63b8ff" stroke="#63b8ff" points="302.46,-71.71 309.14,-63.49 298.79,-65.75 302.46,-71.71"/>
</a>
</g>
</g>
<!-- Node15&#45;&gt;Node12 -->
<g id="edge17_Node000015_Node000012" class="edge">
<title>Node15&#45;&gt;Node12</title>
<g id="a_edge17_Node000015_Node000012"><a xlink:title=" ">
<path fill="none" stroke="#63b8ff" d="M200.68,-21.12C221.08,-25.91 245.88,-31.73 268.19,-36.97"/>
<polygon fill="#63b8ff" stroke="#63b8ff" points="267.24,-40.34 277.78,-39.22 268.84,-33.52 267.24,-40.34"/>
</a>
</g>
</g>
</g>
</svg>

<g id="navigator" transform="translate(0 0)" fill="#404254">
  <rect fill="#f2f5e9" fill-opacity="0.5" stroke="#606060" stroke-width=".5" x="0" y="0" width="60" height="60"/>
  <use id="zoomplus" xlink:href="#zoomPlus" x="17" y="9" onmousedown="handleZoom(evt,'in')"/>
  <use id="zoomminus" xlink:href="#zoomMin" x="42" y="9" onmousedown="handleZoom(evt,'out')"/>
  <use id="reset" xlink:href="#resetDef" x="30" y="36" onmousedown="handleReset()"/>
   <use id="arrowup" xlink:href="#arrowUp" x="0" y="0" onmousedown="handlePan(0,-1)"/>
  <use id="arrowright" xlink:href="#arrowRight" x="0" y="0" onmousedown="handlePan(1,0)"/>
  <use id="arrowdown" xlink:href="#arrowDown" x="0" y="0" onmousedown="handlePan(0,1)"/>
  <use id="arrowleft" xlink:href="#arrowLeft" x="0" y="0" onmousedown="handlePan(-1,0)"/>
</g>
<svg viewBox="0 0 15 15" width="100%" height="30px" preserveAspectRatio="xMaxYMin meet">
 <g id="arrow_out" transform="scale(0.3 0.3)">
  <a xlink:href="motor__ctrl_8c_a6289107a27126667fef8194dc34ad71f_cgraph_org.svg" target="_base">
   <rect id="button" ry="5" rx="5" y="6" x="6" height="38" width="38"
        fill="#f2f5e9" fill-opacity="0.5" stroke="#606060" stroke-width="1.0"/>
   <path id="arrow"
     d="M 11.500037,31.436501 C 11.940474,20.09759 22.043105,11.32322 32.158766,21.979434 L 37.068811,17.246167 C 37.068811,17.246167 37.088388,32 37.088388,32 L 22.160133,31.978069 C 22.160133,31.978069 26.997745,27.140456 26.997745,27.140456 C 18.528582,18.264221 13.291696,25.230495 11.500037,31.436501 z"
     style="fill:#404040;"/>
  </a>
 </g>
</svg>

<style type='text/css'>
<![CDATA[
[data-mouse-over-selected='false'] { opacity: 0.7; }
[data-mouse-over-selected='true']  { opacity: 1.0; }
]]>
</style>
<script type="application/ecmascript"><![CDATA[
document.addEventListener('DOMContentLoaded', (event) => {
  highlightEdges();
  highlightAdjacentNodes();
});
]]></script>
</svg>
