<?xml version="1.0" encoding="UTF-8" standalone="no"?>
<!DOCTYPE svg PUBLIC "-//W3C//DTD SVG 1.1//EN"
 "http://www.w3.org/Graphics/SVG/1.1/DTD/svg11.dtd">
<!-- Generated by graphviz version 15.1.0 (20260618.0150)
 -->
<!-- Title: MC_FocIsr Pages: 1 -->
<!--zoomable 732 -->

<svg id="main" version="1.1" xmlns="http://www.w3.org/2000/svg" xmlns:xlink="http://www.w3.org/1999/xlink" xml:space="preserve" onload="init(evt)">

<style type="text/css"><![CDATA[
.node, .edge {opacity: 0.7;}
.node.selected, .edge.selected {opacity: 1;}
.edge:hover path { stroke: red; }
.edge:hover polygon { stroke: red; fill: red; }
]]></style>

<defs>
  <circle id="rim" cx="0" cy="0" r="7"/>
  <circle id="rim2" cx="0" cy="0" r="3.5"/>
  <g id="zoomPlus">
    <use xlink:href="#rim" fill="#404040"><set attributeName="fill" to="#808080" begin="zoomplus.mouseover" end="zoomplus.mouseout"/></use>
    <path d="M-4,0h8M0,-4v8" fill="none" stroke="white" stroke-width="1.5" pointer-events="none"/>
  </g>
  <g id="zoomMin">
    <use xlink:href="#rim" fill="#404040"><set attributeName="fill" to="#808080" begin="zoomminus.mouseover" end="zoomminus.mouseout"/></use>
    <path d="M-4,0h8" fill="none" stroke="white" stroke-width="1.5" pointer-events="none"/>
  </g>
  <g id="arrowUp" transform="translate(30 24)">
    <use xlink:href="#rim"/>
    <path pointer-events="none" fill="none" stroke="white" stroke-width="1.5" d="M0,-3.0v7 M-2.5,-0.5L0,-3.0L2.5,-0.5"/>
  </g>
  <g id="arrowRight" transform="rotate(90) translate(36 -43)">
    <use xlink:href="#rim"/>
    <path pointer-events="none" fill="none" stroke="white" stroke-width="1.5" d="M0,-3.0v7 M-2.5,-0.5L0,-3.0L2.5,-0.5"/>
  </g>
  <g id="arrowDown" transform="rotate(180) translate(-30 -48)">
    <use xlink:href="#rim"/>
    <path pointer-events="none" fill="none" stroke="white" stroke-width="1.5" d="M0,-3.0v7 M-2.5,-0.5L0,-3.0L2.5,-0.5"/>
  </g>
  <g id="arrowLeft" transform="rotate(270) translate(-36 17)">
    <use xlink:href="#rim"/>
    <path pointer-events="none" fill="none" stroke="white" stroke-width="1.5" d="M0,-3.0v7 M-2.5,-0.5L0,-3.0L2.5,-0.5"/>
  </g>
  <g id="resetDef">
    <use xlink:href="#rim2" fill="#404040"><set attributeName="fill" to="#808080" begin="reset.mouseover" end="reset.mouseout"/></use>
  </g>
</defs>
<script type="application/ecmascript">
var viewWidth = 810;
var viewHeight = 732;
var sectionId = 'dynsection-10';
</script>
<script type="application/ecmascript" xlink:href="svg.min.js"/>
<svg id="graph" class="graph">
<g id="viewport">
<title>MC_FocIsr</title>
<!-- Node1 -->
<g id="Node000001" class="node">
<title>Node1</title>
<g id="a_Node000001"><a xlink:title="FOC 主循环（ADC 注入完成 ISR，20kHz）">
<polygon fill="#999999" stroke="#666666" points="74.5,-373.25 0,-373.25 0,-351 74.5,-351 74.5,-373.25"/>
<text xml:space="preserve" text-anchor="middle" x="37.25" y="-357.85" font-family="Helvetica,sans-Serif" font-size="12.00">MC_FocIsr</text>
</a>
</g>
</g>
<!-- Node2 -->
<g id="Node000002" class="node">
<title>Node2</title>
<g id="a_Node000002"><a xlink:href="app__params_8c.html#a2c145abd191edf697c7d319f120390fb" target="_top" xlink:title="请求保存参数（任意上下文安全，后台择机执行）">
<polygon fill="white" stroke="#666666" points="287.75,-724.25 110.5,-724.25 110.5,-702 287.75,-702 287.75,-724.25"/>
<text xml:space="preserve" text-anchor="middle" x="199.12" y="-708.85" font-family="Helvetica,sans-Serif" font-size="12.00">APP_PARAMS_RequestSave</text>
</a>
</g>
</g>
<!-- Node1&#45;&gt;Node2 -->
<g id="edge1_Node000001_Node000002" class="edge">
<title>Node1&#45;&gt;Node2</title>
<g id="a_edge1_Node000001_Node000002"><a xlink:title=" ">
<path fill="none" stroke="#63b8ff" d="M39.24,-373.57C43.96,-425.76 65.88,-640.76 110.5,-688.12 113.24,-691.03 116.29,-693.61 119.57,-695.9"/>
<polygon fill="#63b8ff" stroke="#63b8ff" points="117.62,-698.81 128.02,-700.83 121.15,-692.76 117.62,-698.81"/>
</a>
</g>
</g>
<!-- Node3 -->
<g id="Node000003" class="node">
<title>Node3</title>
<g id="a_Node000003"><a xlink:href="bsp__encoder_8c.html#a9f9d4545ad55a3bc5bc15920257754d3" target="_top" xlink:title="预置编码器状态（上电首读，避免多圈计数误跳）">
<polygon fill="white" stroke="#666666" points="260.38,-646.25 137.88,-646.25 137.88,-624 260.38,-624 260.38,-646.25"/>
<text xml:space="preserve" text-anchor="middle" x="199.12" y="-630.85" font-family="Helvetica,sans-Serif" font-size="12.00">BSP_ENC_Preload</text>
</a>
</g>
</g>
<!-- Node1&#45;&gt;Node3 -->
<g id="edge2_Node000001_Node000003" class="edge">
<title>Node1&#45;&gt;Node3</title>
<g id="a_edge2_Node000001_Node000003"><a xlink:title=" ">
<path fill="none" stroke="#63b8ff" d="M37.96,-373.67C37.62,-412.82 41.97,-541.98 110.5,-610.12 115.43,-615.03 121.25,-618.99 127.52,-622.18"/>
<polygon fill="#63b8ff" stroke="#63b8ff" points="125.7,-625.2 136.27,-625.98 128.49,-618.79 125.7,-625.2"/>
</a>
</g>
</g>
<!-- Node4 -->
<g id="Node000004" class="node">
<title>Node4</title>
<g id="a_Node000004"><a xlink:href="bsp__encoder_8c.html#a952d9a4a6bd64cde7ae4b60a8757c430" target="_top" xlink:title="读取一次编码器角度（ISR 安全，阻塞约 5us）">
<polygon fill="white" stroke="#666666" points="446.62,-668.25 336.88,-668.25 336.88,-646 446.62,-646 446.62,-668.25"/>
<text xml:space="preserve" text-anchor="middle" x="391.75" y="-652.85" font-family="Helvetica,sans-Serif" font-size="12.00">BSP_ENC_Read</text>
</a>
</g>
</g>
<!-- Node1&#45;&gt;Node4 -->
<g id="edge5_Node000001_Node000004" class="edge">
<title>Node1&#45;&gt;Node4</title>
<g id="a_edge5_Node000001_Node000004"><a xlink:title=" ">
<path fill="none" stroke="#63b8ff" d="M39.26,-373.67C43.85,-423.47 64.64,-618.94 110.5,-655.12 178.14,-708.5 286.3,-688.99 346.56,-671.89"/>
<polygon fill="#63b8ff" stroke="#63b8ff" points="347.54,-675.25 356.14,-669.06 345.56,-668.53 347.54,-675.25"/>
</a>
</g>
</g>
<!-- Node6 -->
<g id="Node000006" class="node">
<title>Node6</title>
<g id="a_Node000006"><a xlink:href="bsp__encoder_8c.html#aeb49ab86be385a4a6edd057538820937" target="_top" xlink:title="设置方向反转标志（预定位校准结果）">
<polygon fill="white" stroke="#666666" points="455.62,-590.25 327.88,-590.25 327.88,-568 455.62,-568 455.62,-590.25"/>
<text xml:space="preserve" text-anchor="middle" x="391.75" y="-574.85" font-family="Helvetica,sans-Serif" font-size="12.00">BSP_ENC_SetInvert</text>
</a>
</g>
</g>
<!-- Node1&#45;&gt;Node6 -->
<g id="edge6_Node000001_Node000006" class="edge">
<title>Node1&#45;&gt;Node6</title>
<g id="a_edge6_Node000001_Node000006"><a xlink:title=" ">
<path fill="none" stroke="#63b8ff" d="M37.94,-373.6C37.62,-410.66 42.25,-527.69 110.5,-577.12 179.36,-627 284.78,-609.72 344.78,-593.72"/>
<polygon fill="#63b8ff" stroke="#63b8ff" points="345.63,-597.12 354.33,-591.07 343.76,-590.37 345.63,-597.12"/>
</a>
</g>
</g>
<!-- Node7 -->
<g id="Node000007" class="node">
<title>Node7</title>
<g id="a_Node000007"><a xlink:href="bsp__pwm_8c.html#a733fb50d63fb8078b605200dc54981d9" target="_top" xlink:title="写入三相占空比（电流环 ISR 中调用）">
<polygon fill="white" stroke="#666666" points="262.25,-568.25 136,-568.25 136,-546 262.25,-546 262.25,-568.25"/>
<text xml:space="preserve" text-anchor="middle" x="199.12" y="-552.85" font-family="Helvetica,sans-Serif" font-size="12.00">BSP_PWM_SetDuty</text>
</a>
</g>
</g>
<!-- Node1&#45;&gt;Node7 -->
<g id="edge7_Node000001_Node000007" class="edge">
<title>Node1&#45;&gt;Node7</title>
<g id="a_edge7_Node000001_Node000007"><a xlink:title=" ">
<path fill="none" stroke="#63b8ff" d="M39.41,-373.62C43.22,-405.05 58.29,-492.99 110.5,-537.12 114.93,-540.87 119.92,-543.95 125.22,-546.48"/>
<polygon fill="#63b8ff" stroke="#63b8ff" points="123.72,-549.65 134.3,-550.12 126.33,-543.15 123.72,-549.65"/>
</a>
</g>
</g>
<!-- Node8 -->
<g id="Node000008" class="node">
<title>Node8</title>
<g id="a_Node000008"><a xlink:href="bsp__pwm_8c.html#af4a87e2cef845a3eba6d0170011ff08d" target="_top" xlink:title="三相占空比清零（低侧全导通：自举预充/动态刹车态）">
<polygon fill="white" stroke="#666666" points="274.62,-528.25 123.62,-528.25 123.62,-506 274.62,-506 274.62,-528.25"/>
<text xml:space="preserve" text-anchor="middle" x="199.12" y="-512.85" font-family="Helvetica,sans-Serif" font-size="12.00">BSP_PWM_SetDutyZero</text>
</a>
</g>
</g>
<!-- Node1&#45;&gt;Node8 -->
<g id="edge8_Node000001_Node000008" class="edge">
<title>Node1&#45;&gt;Node8</title>
<g id="a_edge8_Node000001_Node000008"><a xlink:title=" ">
<path fill="none" stroke="#63b8ff" d="M41.3,-373.46C48.7,-398.74 70.05,-460.03 110.5,-492.12 114.77,-495.51 119.47,-498.44 124.42,-500.97"/>
<polygon fill="#63b8ff" stroke="#63b8ff" points="122.91,-504.13 133.47,-505.01 125.77,-497.74 122.91,-504.13"/>
</a>
</g>
</g>
<!-- Node9 -->
<g id="Node000009" class="node">
<title>Node9</title>
<g id="a_Node000009"><a xlink:href="calibration_8c.html#a51f1133ceba653e8e1e600c24b54987e" target="_top" xlink:title="校准状态机单步（电流环 ISR 调用，模式 = MC_MODE_CALIB）">
<polygon fill="white" stroke="#666666" points="228.88,-450.25 169.38,-450.25 169.38,-428 228.88,-428 228.88,-450.25"/>
<text xml:space="preserve" text-anchor="middle" x="199.12" y="-434.85" font-family="Helvetica,sans-Serif" font-size="12.00">CAL_Isr</text>
</a>
</g>
</g>
<!-- Node1&#45;&gt;Node9 -->
<g id="edge9_Node000001_Node000009" class="edge">
<title>Node1&#45;&gt;Node9</title>
<g id="a_edge9_Node000001_Node000009"><a xlink:title=" ">
<path fill="none" stroke="#63b8ff" d="M51.21,-373.6C65.02,-385.29 87.97,-403.22 110.5,-414.12 125.51,-421.39 143.02,-426.91 158.42,-430.89"/>
<polygon fill="#63b8ff" stroke="#63b8ff" points="157.18,-434.19 167.72,-433.16 158.84,-427.39 157.18,-434.19"/>
</a>
</g>
</g>
<!-- Node11 -->
<g id="Node000011" class="node">
<title>Node11</title>
<g id="a_Node000011"><a xlink:href="foc_8c.html#a42501e789c00841a74f2ce755c5d03d6" target="_top" xlink:title="设置 d/q 电流给定">
<polygon fill="white" stroke="#666666" points="454.12,-374.25 329.38,-374.25 329.38,-352 454.12,-352 454.12,-374.25"/>
<text xml:space="preserve" text-anchor="middle" x="391.75" y="-358.85" font-family="Helvetica,sans-Serif" font-size="12.00">FOC_SetCurrentRef</text>
</a>
</g>
</g>
<!-- Node1&#45;&gt;Node11 -->
<g id="edge29_Node000001_Node000011" class="edge">
<title>Node1&#45;&gt;Node11</title>
<g id="a_edge29_Node000001_Node000011"><a xlink:title=" ">
<path fill="none" stroke="#63b8ff" d="M74.98,-362.23C132.25,-362.39 243.95,-362.71 317.97,-362.92"/>
<polygon fill="#63b8ff" stroke="#63b8ff" points="317.53,-366.42 327.54,-362.95 317.55,-359.42 317.53,-366.42"/>
</a>
</g>
</g>
<!-- Node15 -->
<g id="Node000015" class="node">
<title>Node15</title>
<g id="a_Node000015"><a xlink:href="foc_8c.html#adeb37d340903f5f803d273080550032d" target="_top" xlink:title="执行一个电流环周期（在 ADC 注入转换完成 ISR 中调用）">
<polygon fill="white" stroke="#666666" points="435.38,-532.25 348.12,-532.25 348.12,-510 435.38,-510 435.38,-532.25"/>
<text xml:space="preserve" text-anchor="middle" x="391.75" y="-516.85" font-family="Helvetica,sans-Serif" font-size="12.00">FOC_Update</text>
</a>
</g>
</g>
<!-- Node1&#45;&gt;Node15 -->
<g id="edge30_Node000001_Node000015" class="edge">
<title>Node1&#45;&gt;Node15</title>
<g id="a_edge30_Node000001_Node000015"><a xlink:title=" ">
<path fill="none" stroke="#63b8ff" d="M43.33,-373.52C53.14,-394.12 76.75,-437.45 110.5,-459.12 178.29,-502.66 209.13,-479.54 287.75,-497.12 303.61,-500.67 320.82,-504.64 336.54,-508.3"/>
<polygon fill="#63b8ff" stroke="#63b8ff" points="335.68,-511.7 346.22,-510.57 337.28,-504.88 335.68,-511.7"/>
</a>
</g>
</g>
<!-- Node23 -->
<g id="Node000023" class="node">
<title>Node23</title>
<g id="a_Node000023"><a xlink:href="foc_8c.html#ae75f2892abb7689a482d566582276071" target="_top" xlink:title="直接输出 d/q 电压矢量（开环模式 / 校准注入用，不经过电流 PI）">
<polygon fill="white" stroke="#666666" points="453.75,-452.25 329.75,-452.25 329.75,-430 453.75,-430 453.75,-452.25"/>
<text xml:space="preserve" text-anchor="middle" x="391.75" y="-436.85" font-family="Helvetica,sans-Serif" font-size="12.00">FOC_OutputVoltage</text>
</a>
</g>
</g>
<!-- Node1&#45;&gt;Node23 -->
<g id="edge25_Node000001_Node000023" class="edge">
<title>Node1&#45;&gt;Node23</title>
<g id="a_edge25_Node000001_Node000023"><a xlink:title=" ">
<path fill="none" stroke="#63b8ff" d="M74.98,-370.36C134.94,-383.79 254.54,-410.6 328.11,-427.09"/>
<polygon fill="#63b8ff" stroke="#63b8ff" points="327.06,-430.44 337.59,-429.21 328.59,-423.61 327.06,-430.44"/>
</a>
</g>
</g>
<!-- Node24 -->
<g id="Node000024" class="node">
<title>Node24</title>
<g id="a_Node000024"><a xlink:href="motor__ctrl_8c.html#a5cbc0a7993d542a75e755f2e4dc5ab1e" target="_top" xlink:title="对称限幅">
<polygon fill="white" stroke="#666666" points="430.12,-218.25 353.38,-218.25 353.38,-196 430.12,-196 430.12,-218.25"/>
<text xml:space="preserve" text-anchor="middle" x="391.75" y="-202.85" font-family="Helvetica,sans-Serif" font-size="12.00">MC_Clamp</text>
</a>
</g>
</g>
<!-- Node1&#45;&gt;Node24 -->
<g id="edge31_Node000001_Node000024" class="edge">
<title>Node1&#45;&gt;Node24</title>
<g id="a_edge31_Node000001_Node000024"><a xlink:title=" ">
<path fill="none" stroke="#63b8ff" d="M48.83,-350.66C61.97,-337.15 85.69,-315.05 110.5,-303.12 183.12,-268.23 212.4,-293.66 287.75,-265.12 289.7,-264.39 330.83,-241.13 360.51,-224.29"/>
<polygon fill="#63b8ff" stroke="#63b8ff" points="362.17,-227.38 369.14,-219.4 358.71,-221.29 362.17,-227.38"/>
</a>
</g>
</g>
<!-- Node25 -->
<g id="Node000025" class="node">
<title>Node25</title>
<g id="a_Node000025"><a xlink:href="motor__ctrl_8c.html#aceb46c7be868a0b12dffa105e3d0581e" target="_top" xlink:title="封波（ISR 安全）">
<polygon fill="white" stroke="#666666" points="433.12,-178.25 350.38,-178.25 350.38,-156 433.12,-156 433.12,-178.25"/>
<text xml:space="preserve" text-anchor="middle" x="391.75" y="-162.85" font-family="Helvetica,sans-Serif" font-size="12.00">MC_Disable</text>
</a>
</g>
</g>
<!-- Node1&#45;&gt;Node25 -->
<g id="edge32_Node000001_Node000025" class="edge">
<title>Node1&#45;&gt;Node25</title>
<g id="a_edge32_Node000001_Node000025"><a xlink:title=" ">
<path fill="none" stroke="#63b8ff" d="M40.74,-350.77C47.2,-324.2 67.09,-257.77 110.5,-225.12 115.08,-221.68 258.88,-193.02 338.67,-177.32"/>
<polygon fill="#63b8ff" stroke="#63b8ff" points="339.33,-180.76 348.46,-175.4 337.98,-173.89 339.33,-180.76"/>
</a>
</g>
</g>
<!-- Node29 -->
<g id="Node000029" class="node">
<title>Node29</title>
<g id="a_Node000029"><a xlink:href="motor__ctrl_8c.html#a314b8aad615262b23be0463fa16b9ceb" target="_top" xlink:title="转子展开机械角 [rad]：整数圈 + 单圈角分离合成">
<polygon fill="white" stroke="#666666" points="245,-256.25 153.25,-256.25 153.25,-234 245,-234 245,-256.25"/>
<text xml:space="preserve" text-anchor="middle" x="199.12" y="-240.85" font-family="Helvetica,sans-Serif" font-size="12.00">MC_PosRotor</text>
</a>
</g>
</g>
<!-- Node1&#45;&gt;Node29 -->
<g id="edge37_Node000001_Node000029" class="edge">
<title>Node1&#45;&gt;Node29</title>
<g id="a_edge37_Node000001_Node000029"><a xlink:title=" ">
<path fill="none" stroke="#63b8ff" d="M44.13,-350.61C54.7,-331.05 78.81,-291.41 110.5,-270.12 119.96,-263.77 131.02,-259.02 142.05,-255.46"/>
<polygon fill="#63b8ff" stroke="#63b8ff" points="142.91,-258.86 151.54,-252.71 140.97,-252.13 142.91,-258.86"/>
</a>
</g>
</g>
<!-- Node30 -->
<g id="Node000030" class="node">
<title>Node30</title>
<g id="a_Node000030"><a xlink:href="motor__ctrl_8c.html#a9dd4aa02cb15dd5ea27aa8085155adb7" target="_top" xlink:title="慢环（1kHz）：电流限幅刷新与速度/位置外环">
<polygon fill="white" stroke="#666666" points="246.88,-334.25 151.38,-334.25 151.38,-312 246.88,-312 246.88,-334.25"/>
<text xml:space="preserve" text-anchor="middle" x="199.12" y="-318.85" font-family="Helvetica,sans-Serif" font-size="12.00">MC_SlowLoop</text>
</a>
</g>
</g>
<!-- Node1&#45;&gt;Node30 -->
<g id="edge38_Node000001_Node000030" class="edge">
<title>Node1&#45;&gt;Node30</title>
<g id="a_edge38_Node000001_Node000030"><a xlink:title=" ">
<path fill="none" stroke="#63b8ff" d="M74.93,-353.18C94.16,-348.49 118.18,-342.63 139.88,-337.33"/>
<polygon fill="#63b8ff" stroke="#63b8ff" points="140.63,-340.75 149.52,-334.98 138.97,-333.95 140.63,-340.75"/>
</a>
</g>
</g>
<!-- Node32 -->
<g id="Node000032" class="node">
<title>Node32</title>
<g id="a_Node000032"><a xlink:href="motor__ctrl_8c.html#a0254f4cdae07bdb4781c9df4b540ffe8" target="_top" xlink:title="触发故障：立即封波并锁存（ISR 安全）">
<polygon fill="white" stroke="#666666" points="243.5,-178.25 154.75,-178.25 154.75,-156 243.5,-156 243.5,-178.25"/>
<text xml:space="preserve" text-anchor="middle" x="199.12" y="-162.85" font-family="Helvetica,sans-Serif" font-size="12.00">MC_TripFault</text>
</a>
</g>
</g>
<!-- Node1&#45;&gt;Node32 -->
<g id="edge44_Node000001_Node000032" class="edge">
<title>Node1&#45;&gt;Node32</title>
<g id="a_edge44_Node000001_Node000032"><a xlink:title=" ">
<path fill="none" stroke="#63b8ff" d="M39.71,-350.65C44.21,-320.1 60.74,-236.07 110.5,-192.12 119.76,-183.95 131.52,-178.43 143.4,-174.72"/>
<polygon fill="#63b8ff" stroke="#63b8ff" points="144.07,-178.16 152.82,-172.18 142.25,-171.4 144.07,-178.16"/>
</a>
</g>
</g>
<!-- Node33 -->
<g id="Node000033" class="node">
<title>Node33</title>
<g id="a_Node000033"><a xlink:href="motor__ctrl_8c.html#adc1f5b8a41b8c741dd3a8be02c3dff49" target="_top" xlink:title="由单圈原始计数计算电角度">
<polygon fill="white" stroke="#666666" points="267.12,-138.25 131.12,-138.25 131.12,-116 267.12,-116 267.12,-138.25"/>
<text xml:space="preserve" text-anchor="middle" x="199.12" y="-122.85" font-family="Helvetica,sans-Serif" font-size="12.00">MC_UpdateElecAngle</text>
</a>
</g>
</g>
<!-- Node1&#45;&gt;Node33 -->
<g id="edge46_Node000001_Node000033" class="edge">
<title>Node1&#45;&gt;Node33</title>
<g id="a_edge46_Node000001_Node000033"><a xlink:title=" ">
<path fill="none" stroke="#63b8ff" d="M38.42,-350.73C39.59,-314.87 48.31,-203.4 110.5,-147.12 113.63,-144.29 117.09,-141.83 120.76,-139.7"/>
<polygon fill="#63b8ff" stroke="#63b8ff" points="122.06,-142.95 129.54,-135.45 119.01,-136.65 122.06,-142.95"/>
</a>
</g>
</g>
<!-- Node34 -->
<g id="Node000034" class="node">
<title>Node34</title>
<g id="a_Node000034"><a xlink:href="filter_8c.html#a92c4dfa4557978b294c448b59f485614" target="_top" xlink:title="预置 PLL 跟踪角度（上电对准编码器初值，避免速度冲击）">
<polygon fill="white" stroke="#666666" points="435,-101.25 348.5,-101.25 348.5,-79 435,-79 435,-101.25"/>
<text xml:space="preserve" text-anchor="middle" x="391.75" y="-85.85" font-family="Helvetica,sans-Serif" font-size="12.00">PLL_Preload</text>
</a>
</g>
</g>
<!-- Node1&#45;&gt;Node34 -->
<g id="edge47_Node000001_Node000034" class="edge">
<title>Node1&#45;&gt;Node34</title>
<g id="a_edge47_Node000001_Node000034"><a xlink:title=" ">
<path fill="none" stroke="#63b8ff" d="M39.75,-350.61C45.94,-305.13 70.98,-138.93 110.5,-107.12 174.4,-55.7 275.39,-64.54 337.09,-76.63"/>
<polygon fill="#63b8ff" stroke="#63b8ff" points="336.15,-80.01 346.65,-78.61 337.57,-73.15 336.15,-80.01"/>
</a>
</g>
</g>
<!-- Node35 -->
<g id="Node000035" class="node">
<title>Node35</title>
<g id="a_Node000035"><a xlink:href="filter_8c.html#a684e4c63e2e5d52d06110c3b0a486c28" target="_top" xlink:title="执行一次 PLL 跟踪">
<polygon fill="white" stroke="#666666" points="433.5,-61.25 350,-61.25 350,-39 433.5,-39 433.5,-61.25"/>
<text xml:space="preserve" text-anchor="middle" x="391.75" y="-45.85" font-family="Helvetica,sans-Serif" font-size="12.00">PLL_Update</text>
</a>
</g>
</g>
<!-- Node1&#45;&gt;Node35 -->
<g id="edge49_Node000001_Node000035" class="edge">
<title>Node1&#45;&gt;Node35</title>
<g id="a_edge49_Node000001_Node000035"><a xlink:title=" ">
<path fill="none" stroke="#63b8ff" d="M39.23,-350.77C43.79,-300.9 64.67,-102.06 110.5,-64.12 143.96,-36.43 266.79,-40.52 338.24,-45.56"/>
<polygon fill="#63b8ff" stroke="#63b8ff" points="337.94,-49.05 348.17,-46.29 338.45,-42.07 337.94,-49.05"/>
</a>
</g>
</g>
<!-- Node36 -->
<g id="Node000036" class="node">
<title>Node36</title>
<g id="a_Node000036"><a xlink:href="protection_8c.html#addca5297e672b45c65c3ae3e7ead254d" target="_top" xlink:title="快速保护检查（电流环 ISR 调用）">
<polygon fill="white" stroke="#666666" points="256.25,-22.25 142,-22.25 142,0 256.25,0 256.25,-22.25"/>
<text xml:space="preserve" text-anchor="middle" x="199.12" y="-6.85" font-family="Helvetica,sans-Serif" font-size="12.00">PROT_CheckFast</text>
</a>
</g>
</g>
<!-- Node1&#45;&gt;Node36 -->
<g id="edge51_Node000001_Node000036" class="edge">
<title>Node1&#45;&gt;Node36</title>
<g id="a_edge51_Node000001_Node000036"><a xlink:title=" ">
<path fill="none" stroke="#63b8ff" d="M39.24,-350.68C43.96,-298.49 65.88,-83.49 110.5,-36.12 116.24,-30.03 123.36,-25.38 131.03,-21.85"/>
<polygon fill="#63b8ff" stroke="#63b8ff" points="132.29,-25.12 140.35,-18.24 129.76,-18.59 132.29,-25.12"/>
</a>
</g>
</g>
<!-- Node3&#45;&gt;Node4 -->
<g id="edge3_Node000003_Node000004" class="edge">
<title>Node3&#45;&gt;Node4</title>
<g id="a_edge3_Node000003_Node000004"><a xlink:title=" ">
<path fill="none" stroke="#63b8ff" d="M260.7,-642.12C281.21,-644.48 304.21,-647.14 325.1,-649.55"/>
<polygon fill="#63b8ff" stroke="#63b8ff" points="324.62,-653.02 334.96,-650.69 325.42,-646.06 324.62,-653.02"/>
</a>
</g>
</g>
<!-- Node5 -->
<g id="Node000005" class="node">
<title>Node5</title>
<g id="a_Node000005"><a xlink:href="bsp__encoder_8c.html#a05a73d1c3440289f913db2b8a47a954a" target="_top" xlink:title="CRC6 计算（X^6 + X + 1，初值 0，MSB 先入）">
<polygon fill="white" stroke="#666666" points="611.12,-668.25 505.12,-668.25 505.12,-646 611.12,-646 611.12,-668.25"/>
<text xml:space="preserve" text-anchor="middle" x="558.12" y="-652.85" font-family="Helvetica,sans-Serif" font-size="12.00">BSP_ENC_Crc6</text>
</a>
</g>
</g>
<!-- Node4&#45;&gt;Node5 -->
<g id="edge4_Node000004_Node000005" class="edge">
<title>Node4&#45;&gt;Node5</title>
<g id="a_edge4_Node000004_Node000005"><a xlink:title=" ">
<path fill="none" stroke="#63b8ff" d="M447.03,-657.12C461.86,-657.12 478.06,-657.12 493.37,-657.12"/>
<polygon fill="#63b8ff" stroke="#63b8ff" points="493.35,-660.63 503.35,-657.13 493.35,-653.63 493.35,-660.63"/>
</a>
</g>
</g>
<!-- Node9&#45;&gt;Node6 -->
<g id="edge10_Node000009_Node000006" class="edge">
<title>Node9&#45;&gt;Node6</title>
<g id="a_edge10_Node000009_Node000006"><a xlink:title=" ">
<path fill="none" stroke="#63b8ff" d="M221.21,-450.65C239.79,-461.35 267.04,-478.41 287.75,-497.12 306.5,-514.07 304.43,-524.84 323.75,-541.12 333.28,-549.16 344.75,-556.38 355.49,-562.32"/>
<polygon fill="#63b8ff" stroke="#63b8ff" points="353.66,-565.31 364.13,-566.89 356.93,-559.12 353.66,-565.31"/>
</a>
</g>
</g>
<!-- Node10 -->
<g id="Node000010" class="node">
<title>Node10</title>
<g id="a_Node000010"><a xlink:href="calibration_8c.html#a26fea34b7ac90079fc8454f8012f95e0" target="_top" xlink:title="偏置测量点的强制角序列">
<polygon fill="white" stroke="#666666" points="459.75,-492.25 323.75,-492.25 323.75,-470 459.75,-470 459.75,-492.25"/>
<text xml:space="preserve" text-anchor="middle" x="391.75" y="-476.85" font-family="Helvetica,sans-Serif" font-size="12.00">CAL_OffsetPointTheta</text>
</a>
</g>
</g>
<!-- Node9&#45;&gt;Node10 -->
<g id="edge11_Node000009_Node000010" class="edge">
<title>Node9&#45;&gt;Node10</title>
<g id="a_edge11_Node000009_Node000010"><a xlink:title=" ">
<path fill="none" stroke="#63b8ff" d="M229.08,-445.5C255,-451.21 293.92,-459.79 327.07,-467.1"/>
<polygon fill="#63b8ff" stroke="#63b8ff" points="326.07,-470.46 336.59,-469.19 327.58,-463.62 326.07,-470.46"/>
</a>
</g>
</g>
<!-- Node9&#45;&gt;Node11 -->
<g id="edge12_Node000009_Node000011" class="edge">
<title>Node9&#45;&gt;Node11</title>
<g id="a_edge12_Node000009_Node000011"><a xlink:title=" ">
<path fill="none" stroke="#63b8ff" d="M227.51,-427.51C252.49,-417 290.47,-401.19 323.75,-388.12 331.7,-385 340.23,-381.75 348.43,-378.67"/>
<polygon fill="#63b8ff" stroke="#63b8ff" points="349.41,-382.04 357.55,-375.26 346.96,-375.48 349.41,-382.04"/>
</a>
</g>
</g>
<!-- Node12 -->
<g id="Node000012" class="node">
<title>Node12</title>
<g id="a_Node000012"><a xlink:href="foc__math_8c.html#a39d4aea10aec434cb4d2490fafb98632" target="_top" xlink:title="查表+线性插值同时计算 sin/cos">
<polygon fill="white" stroke="#666666" points="602.12,-412.25 514.12,-412.25 514.12,-390 602.12,-390 602.12,-412.25"/>
<text xml:space="preserve" text-anchor="middle" x="558.12" y="-396.85" font-family="Helvetica,sans-Serif" font-size="12.00">FOC_SinCos</text>
</a>
</g>
</g>
<!-- Node9&#45;&gt;Node12 -->
<g id="edge13_Node000009_Node000012" class="edge">
<title>Node9&#45;&gt;Node12</title>
<g id="a_edge13_Node000009_Node000012"><a xlink:title=" ">
<path fill="none" stroke="#63b8ff" d="M229.04,-434.42C254.05,-430.47 291.22,-424.88 323.75,-421.12 384.95,-414.05 455.45,-408.35 502.81,-404.87"/>
<polygon fill="#63b8ff" stroke="#63b8ff" points="502.81,-408.38 512.53,-404.16 502.3,-401.39 502.81,-408.38"/>
</a>
</g>
</g>
<!-- Node9&#45;&gt;Node15 -->
<g id="edge16_Node000009_Node000015" class="edge">
<title>Node9&#45;&gt;Node15</title>
<g id="a_edge16_Node000009_Node000015"><a xlink:title=" ">
<path fill="none" stroke="#63b8ff" d="M229.27,-443.5C247.09,-447.1 269.82,-453.42 287.75,-464.12 307.45,-475.89 304.13,-489.24 323.75,-501.12 328.01,-503.71 332.63,-505.97 337.38,-507.96"/>
<polygon fill="#63b8ff" stroke="#63b8ff" points="335.89,-511.14 346.48,-511.35 338.33,-504.58 335.89,-511.14"/>
</a>
</g>
</g>
<!-- Node13 -->
<g id="Node000013" class="node">
<title>Node13</title>
<g id="a_Node000013"><a xlink:href="foc__math_8c.html#ac63ab3ffd2685338c76dc6de24c953b1" target="_top" xlink:title="构建 sin 查找表（仅初始化时执行一次）">
<polygon fill="white" stroke="#666666" points="801.5,-412.25 656.5,-412.25 656.5,-390 801.5,-390 801.5,-412.25"/>
<text xml:space="preserve" text-anchor="middle" x="729" y="-396.85" font-family="Helvetica,sans-Serif" font-size="12.00">FOC_MATH_BuildTable</text>
</a>
</g>
</g>
<!-- Node12&#45;&gt;Node13 -->
<g id="edge14_Node000012_Node000013" class="edge">
<title>Node12&#45;&gt;Node13</title>
<g id="a_edge14_Node000012_Node000013"><a xlink:title=" ">
<path fill="none" stroke="#63b8ff" d="M602.61,-401.12C615.62,-401.12 630.34,-401.12 644.99,-401.12"/>
<polygon fill="#63b8ff" stroke="#63b8ff" points="644.65,-404.63 654.65,-401.13 644.65,-397.63 644.65,-404.63"/>
</a>
</g>
</g>
<!-- Node14 -->
<g id="Node000014" class="node">
<title>Node14</title>
<g id="a_Node000014"><a xlink:href="foc__math_8c.html#a4cc9d35ffa1c5f6ab5668cbe7623d018" target="_top" xlink:title="角度归一化到 [0, 2pi)">
<polygon fill="white" stroke="#666666" points="796.25,-101.25 661.75,-101.25 661.75,-79 796.25,-79 796.25,-101.25"/>
<text xml:space="preserve" text-anchor="middle" x="729" y="-85.85" font-family="Helvetica,sans-Serif" font-size="12.00">FOC_NormalizeAngle</text>
</a>
</g>
</g>
<!-- Node12&#45;&gt;Node14 -->
<g id="edge15_Node000012_Node000014" class="edge">
<title>Node12&#45;&gt;Node14</title>
<g id="a_edge15_Node000012_Node000014"><a xlink:title=" ">
<path fill="none" stroke="#63b8ff" d="M588.02,-389.58C599.84,-383.44 612.58,-374.71 620.5,-363.12 670.23,-290.36 617.2,-247.01 656.5,-168.12 668.11,-144.82 688.79,-123.41 704.93,-108.94"/>
<polygon fill="#63b8ff" stroke="#63b8ff" points="706.93,-111.83 712.2,-102.64 702.35,-106.54 706.93,-111.83"/>
</a>
</g>
</g>
<!-- Node15&#45;&gt;Node12 -->
<g id="edge21_Node000015_Node000012" class="edge">
<title>Node15&#45;&gt;Node12</title>
<g id="a_edge21_Node000015_Node000012"><a xlink:title=" ">
<path fill="none" stroke="#63b8ff" d="M435.59,-514.26C444.31,-511.32 452.9,-507.12 459.75,-501.12 489.09,-475.44 466.73,-447.17 495.75,-421.12 498.17,-418.95 500.84,-417.01 503.66,-415.28"/>
<polygon fill="#63b8ff" stroke="#63b8ff" points="505.03,-418.51 512.36,-410.86 501.86,-412.27 505.03,-418.51"/>
</a>
</g>
</g>
<!-- Node16 -->
<g id="Node000016" class="node">
<title>Node16</title>
<g id="a_Node000016"><a xlink:href="foc__math_8c.html#a7b6dc337ca6db7a63bc15c20d5772fb7" target="_top" xlink:title="Clarke 变换（等幅值变换，3 相 &#45;&gt; alpha/beta）">
<polygon fill="white" stroke="#666666" points="599.88,-612.25 516.38,-612.25 516.38,-590 599.88,-590 599.88,-612.25"/>
<text xml:space="preserve" text-anchor="middle" x="558.12" y="-596.85" font-family="Helvetica,sans-Serif" font-size="12.00">FOC_Clarke</text>
</a>
</g>
</g>
<!-- Node15&#45;&gt;Node16 -->
<g id="edge17_Node000015_Node000016" class="edge">
<title>Node15&#45;&gt;Node16</title>
<g id="a_edge17_Node000015_Node000016"><a xlink:title=" ">
<path fill="none" stroke="#63b8ff" d="M413.38,-532.59C426.68,-540.05 444.31,-550.03 459.75,-559.12 475.91,-568.64 478.72,-573.28 495.75,-581.12 499.11,-582.67 502.62,-584.15 506.19,-585.56"/>
<polygon fill="#63b8ff" stroke="#63b8ff" points="504.97,-588.84 515.57,-589.02 507.4,-582.27 504.97,-588.84"/>
</a>
</g>
</g>
<!-- Node17 -->
<g id="Node000017" class="node">
<title>Node17</title>
<g id="a_Node000017"><a xlink:href="foc_8c.html#aa9db75377abf9b36c243b87f58172dd6" target="_top" xlink:title="快速平方根（M4F 上编译为 VSQRT 单指令）">
<polygon fill="white" stroke="#666666" points="604.75,-572.25 511.5,-572.25 511.5,-550 604.75,-550 604.75,-572.25"/>
<text xml:space="preserve" text-anchor="middle" x="558.12" y="-556.85" font-family="Helvetica,sans-Serif" font-size="12.00">FOC_FastSqrt</text>
</a>
</g>
</g>
<!-- Node15&#45;&gt;Node17 -->
<g id="edge18_Node000015_Node000017" class="edge">
<title>Node15&#45;&gt;Node17</title>
<g id="a_edge18_Node000015_Node000017"><a xlink:title=" ">
<path fill="none" stroke="#63b8ff" d="M435.51,-531.53C455.18,-536.32 478.81,-542.07 499.98,-547.22"/>
<polygon fill="#63b8ff" stroke="#63b8ff" points="499.11,-550.61 509.65,-549.57 500.76,-543.81 499.11,-550.61"/>
</a>
</g>
</g>
<!-- Node18 -->
<g id="Node000018" class="node">
<title>Node18</title>
<g id="a_Node000018"><a xlink:href="foc__math_8c.html#ae7e0a68727625c071145c38236b08cfe" target="_top" xlink:title="Park 反变换（d/q &#45;&gt; alpha/beta）">
<polygon fill="white" stroke="#666666" points="602.5,-492.25 513.75,-492.25 513.75,-470 602.5,-470 602.5,-492.25"/>
<text xml:space="preserve" text-anchor="middle" x="558.12" y="-476.85" font-family="Helvetica,sans-Serif" font-size="12.00">FOC_InvPark</text>
</a>
</g>
</g>
<!-- Node15&#45;&gt;Node18 -->
<g id="edge19_Node000015_Node000018" class="edge">
<title>Node15&#45;&gt;Node18</title>
<g id="a_edge19_Node000015_Node000018"><a xlink:title=" ">
<path fill="none" stroke="#63b8ff" d="M435.51,-510.72C455.92,-505.75 480.59,-499.75 502.36,-494.45"/>
<polygon fill="#63b8ff" stroke="#63b8ff" points="503.08,-497.88 511.97,-492.11 501.42,-491.08 503.08,-497.88"/>
</a>
</g>
</g>
<!-- Node19 -->
<g id="Node000019" class="node">
<title>Node19</title>
<g id="a_Node000019"><a xlink:href="foc__math_8c.html#a002780099733b401167923e53120d292" target="_top" xlink:title="Park 变换（alpha/beta &#45;&gt; d/q）">
<polygon fill="white" stroke="#666666" points="594.62,-532.25 521.62,-532.25 521.62,-510 594.62,-510 594.62,-532.25"/>
<text xml:space="preserve" text-anchor="middle" x="558.12" y="-516.85" font-family="Helvetica,sans-Serif" font-size="12.00">FOC_Park</text>
</a>
</g>
</g>
<!-- Node15&#45;&gt;Node19 -->
<g id="edge20_Node000015_Node000019" class="edge">
<title>Node15&#45;&gt;Node19</title>
<g id="a_edge20_Node000015_Node000019"><a xlink:title=" ">
<path fill="none" stroke="#63b8ff" d="M435.51,-521.12C458.29,-521.12 486.38,-521.12 509.82,-521.12"/>
<polygon fill="#63b8ff" stroke="#63b8ff" points="509.74,-524.63 519.74,-521.13 509.74,-517.63 509.74,-524.63"/>
</a>
</g>
</g>
<!-- Node20 -->
<g id="Node000020" class="node">
<title>Node20</title>
<g id="a_Node000020"><a xlink:href="foc__math_8c.html#a81c018372d65f69c5d8bd6abdeb9f1d2" target="_top" xlink:title="SVPWM 调制（注入零序的 min&#45;max 中点平移法）">
<polygon fill="white" stroke="#666666" points="605.12,-452.25 511.12,-452.25 511.12,-430 605.12,-430 605.12,-452.25"/>
<text xml:space="preserve" text-anchor="middle" x="558.12" y="-436.85" font-family="Helvetica,sans-Serif" font-size="12.00">FOC_SVPWM</text>
</a>
</g>
</g>
<!-- Node15&#45;&gt;Node20 -->
<g id="edge22_Node000015_Node000020" class="edge">
<title>Node15&#45;&gt;Node20</title>
<g id="a_edge22_Node000015_Node000020"><a xlink:title=" ">
<path fill="none" stroke="#63b8ff" d="M435.74,-512.11C444.07,-509.32 452.47,-505.73 459.75,-501.12 479.96,-488.34 475.7,-474.16 495.75,-461.12 497.73,-459.84 499.8,-458.62 501.94,-457.49"/>
<polygon fill="#63b8ff" stroke="#63b8ff" points="503.31,-460.71 510.9,-453.31 500.35,-454.36 503.31,-460.71"/>
</a>
</g>
</g>
<!-- Node21 -->
<g id="Node000021" class="node">
<title>Node21</title>
<g id="a_Node000021"><a xlink:href="pid_8c.html#ad7fced70a610f756fa6319fccc4ae725" target="_top" xlink:title="运行中修改输出限幅，并把积分收拢到新限幅内">
<polygon fill="white" stroke="#666666" points="604.38,-354.25 511.88,-354.25 511.88,-332 604.38,-332 604.38,-354.25"/>
<text xml:space="preserve" text-anchor="middle" x="558.12" y="-338.85" font-family="Helvetica,sans-Serif" font-size="12.00">PID_SetLimits</text>
</a>
</g>
</g>
<!-- Node15&#45;&gt;Node21 -->
<g id="edge23_Node000015_Node000021" class="edge">
<title>Node15&#45;&gt;Node21</title>
<g id="a_edge23_Node000015_Node000021"><a xlink:title=" ">
<path fill="none" stroke="#63b8ff" d="M435.86,-515.04C444.66,-512.06 453.22,-507.64 459.75,-501.12 499.15,-461.78 461.88,-425.32 495.75,-381.12 502.12,-372.81 510.87,-365.88 519.77,-360.31"/>
<polygon fill="#63b8ff" stroke="#63b8ff" points="521.5,-363.35 528.44,-355.35 518.02,-357.27 521.5,-363.35"/>
</a>
</g>
</g>
<!-- Node22 -->
<g id="Node000022" class="node">
<title>Node22</title>
<g id="a_Node000022"><a xlink:href="pid_8c.html#a0cc51ef261cec84e3e35382345ac95a0" target="_top" xlink:title="执行一次 PID 计算">
<polygon fill="white" stroke="#666666" points="599.12,-277.25 517.12,-277.25 517.12,-255 599.12,-255 599.12,-277.25"/>
<text xml:space="preserve" text-anchor="middle" x="558.12" y="-261.85" font-family="Helvetica,sans-Serif" font-size="12.00">PID_Update</text>
</a>
</g>
</g>
<!-- Node15&#45;&gt;Node22 -->
<g id="edge24_Node000015_Node000022" class="edge">
<title>Node15&#45;&gt;Node22</title>
<g id="a_edge24_Node000015_Node000022"><a xlink:title=" ">
<path fill="none" stroke="#63b8ff" d="M435.62,-515.7C444.65,-512.7 453.36,-508.12 459.75,-501.12 514.18,-441.53 456.28,-393.53 495.75,-323.12 504.25,-307.96 518.19,-294.53 530.64,-284.52"/>
<polygon fill="#63b8ff" stroke="#63b8ff" points="532.73,-287.33 538.55,-278.48 528.48,-281.77 532.73,-287.33"/>
</a>
</g>
</g>
<!-- Node23&#45;&gt;Node12 -->
<g id="edge27_Node000023_Node000012" class="edge">
<title>Node23&#45;&gt;Node12</title>
<g id="a_edge27_Node000023_Node000012"><a xlink:title=" ">
<path fill="none" stroke="#63b8ff" d="M440.29,-429.56C459.89,-424.79 482.71,-419.23 502.95,-414.31"/>
<polygon fill="#63b8ff" stroke="#63b8ff" points="503.54,-417.77 512.43,-412 501.88,-410.97 503.54,-417.77"/>
</a>
</g>
</g>
<!-- Node23&#45;&gt;Node18 -->
<g id="edge26_Node000023_Node000018" class="edge">
<title>Node23&#45;&gt;Node18</title>
<g id="a_edge26_Node000023_Node000018"><a xlink:title=" ">
<path fill="none" stroke="#63b8ff" d="M440.29,-452.69C459.64,-457.4 482.13,-462.88 502.18,-467.75"/>
<polygon fill="#63b8ff" stroke="#63b8ff" points="501.33,-471.15 511.87,-470.11 502.98,-464.35 501.33,-471.15"/>
</a>
</g>
</g>
<!-- Node23&#45;&gt;Node20 -->
<g id="edge28_Node000023_Node000020" class="edge">
<title>Node23&#45;&gt;Node20</title>
<g id="a_edge28_Node000023_Node000020"><a xlink:title=" ">
<path fill="none" stroke="#63b8ff" d="M453.96,-441.12C468.79,-441.12 484.61,-441.12 499.28,-441.12"/>
<polygon fill="#63b8ff" stroke="#63b8ff" points="499.26,-444.63 509.26,-441.13 499.26,-437.63 499.26,-444.63"/>
</a>
</g>
</g>
<!-- Node26 -->
<g id="Node000026" class="node">
<title>Node26</title>
<g id="a_Node000026"><a xlink:href="bsp__pwm_8c.html#a2664b56ad93d867fb05741e710ff942d" target="_top" xlink:title="封波（输出高阻，电机 freewheel）">
<polygon fill="white" stroke="#666666" points="620.5,-140.25 495.75,-140.25 495.75,-118 620.5,-118 620.5,-140.25"/>
<text xml:space="preserve" text-anchor="middle" x="558.12" y="-124.85" font-family="Helvetica,sans-Serif" font-size="12.00">BSP_PWM_Disable</text>
</a>
</g>
</g>
<!-- Node25&#45;&gt;Node26 -->
<g id="edge33_Node000025_Node000026" class="edge">
<title>Node25&#45;&gt;Node26</title>
<g id="a_edge33_Node000025_Node000026"><a xlink:title=" ">
<path fill="none" stroke="#63b8ff" d="M433.38,-157.73C452.24,-153.37 475.06,-148.1 495.94,-143.27"/>
<polygon fill="#63b8ff" stroke="#63b8ff" points="496.54,-146.72 505.5,-141.06 494.97,-139.9 496.54,-146.72"/>
</a>
</g>
</g>
<!-- Node27 -->
<g id="Node000027" class="node">
<title>Node27</title>
<g id="a_Node000027"><a xlink:href="foc_8c.html#aa25cf599086b4ad815ae5ad72dcfdec4" target="_top" xlink:title="复位电流环状态（封波后重新使能前调用，防止积分残留冲击）">
<polygon fill="white" stroke="#666666" points="598,-218.25 518.25,-218.25 518.25,-196 598,-196 598,-218.25"/>
<text xml:space="preserve" text-anchor="middle" x="558.12" y="-202.85" font-family="Helvetica,sans-Serif" font-size="12.00">FOC_Reset</text>
</a>
</g>
</g>
<!-- Node25&#45;&gt;Node27 -->
<g id="edge34_Node000025_Node000027" class="edge">
<title>Node25&#45;&gt;Node27</title>
<g id="a_edge34_Node000025_Node000027"><a xlink:title=" ">
<path fill="none" stroke="#63b8ff" d="M433.38,-177.01C455.52,-182.4 483.12,-189.12 506.64,-194.84"/>
<polygon fill="#63b8ff" stroke="#63b8ff" points="505.8,-198.24 516.34,-197.2 507.45,-191.43 505.8,-198.24"/>
</a>
</g>
</g>
<!-- Node28 -->
<g id="Node000028" class="node">
<title>Node28</title>
<g id="a_Node000028"><a xlink:href="pid_8c.html#acb76685b15d3fde29d9bd5548b3268c1" target="_top" xlink:title="复位 PID 内部状态（积分/历史误差/输出）">
<polygon fill="white" stroke="#666666" points="766.25,-199.25 691.75,-199.25 691.75,-177 766.25,-177 766.25,-199.25"/>
<text xml:space="preserve" text-anchor="middle" x="729" y="-183.85" font-family="Helvetica,sans-Serif" font-size="12.00">PID_Reset</text>
</a>
</g>
</g>
<!-- Node25&#45;&gt;Node28 -->
<g id="edge36_Node000025_Node000028" class="edge">
<title>Node25&#45;&gt;Node28</title>
<g id="a_edge36_Node000025_Node000028"><a xlink:title=" ">
<path fill="none" stroke="#63b8ff" d="M433.52,-169.68C495.67,-173.57 613.83,-180.97 680.01,-185.12"/>
<polygon fill="#63b8ff" stroke="#63b8ff" points="679.64,-188.6 689.84,-185.73 680.08,-181.62 679.64,-188.6"/>
</a>
</g>
</g>
<!-- Node27&#45;&gt;Node28 -->
<g id="edge35_Node000027_Node000028" class="edge">
<title>Node27&#45;&gt;Node28</title>
<g id="a_edge35_Node000027_Node000028"><a xlink:title=" ">
<path fill="none" stroke="#63b8ff" d="M598.29,-202.72C622.63,-199.98 654.08,-196.44 679.92,-193.53"/>
<polygon fill="#63b8ff" stroke="#63b8ff" points="680.31,-197.01 689.85,-192.42 679.52,-190.06 680.31,-197.01"/>
</a>
</g>
</g>
<!-- Node30&#45;&gt;Node11 -->
<g id="edge39_Node000030_Node000011" class="edge">
<title>Node30&#45;&gt;Node11</title>
<g id="a_edge39_Node000030_Node000011"><a xlink:title=" ">
<path fill="none" stroke="#63b8ff" d="M247.25,-333.01C270.49,-337.89 298.92,-343.86 324.32,-349.19"/>
<polygon fill="#63b8ff" stroke="#63b8ff" points="323.39,-352.57 333.9,-351.19 324.83,-345.72 323.39,-352.57"/>
</a>
</g>
</g>
<!-- Node30&#45;&gt;Node21 -->
<g id="edge41_Node000030_Node000021" class="edge">
<title>Node30&#45;&gt;Node21</title>
<g id="a_edge41_Node000030_Node000021"><a xlink:title=" ">
<path fill="none" stroke="#63b8ff" d="M247.16,-325.76C312.36,-329.41 430.05,-336.01 500.15,-339.93"/>
<polygon fill="#63b8ff" stroke="#63b8ff" points="499.7,-343.41 509.88,-340.48 500.1,-336.42 499.7,-343.41"/>
</a>
</g>
</g>
<!-- Node30&#45;&gt;Node22 -->
<g id="edge42_Node000030_Node000022" class="edge">
<title>Node30&#45;&gt;Node22</title>
<g id="a_edge42_Node000030_Node000022"><a xlink:title=" ">
<path fill="none" stroke="#63b8ff" d="M247.2,-313.99C260.8,-310.23 275.32,-305.07 287.75,-298.12 306.69,-287.53 303.52,-272.99 323.75,-265.12 382.83,-242.14 456.86,-247.63 505.51,-255.37"/>
<polygon fill="#63b8ff" stroke="#63b8ff" points="504.76,-258.79 515.2,-257 505.93,-251.89 504.76,-258.79"/>
</a>
</g>
</g>
<!-- Node30&#45;&gt;Node24 -->
<g id="edge40_Node000030_Node000024" class="edge">
<title>Node30&#45;&gt;Node24</title>
<g id="a_edge40_Node000030_Node000024"><a xlink:title=" ">
<path fill="none" stroke="#63b8ff" d="M247.03,-316.92C261.24,-313.25 276.14,-307.41 287.75,-298.12 313.84,-277.25 298.5,-254.01 323.75,-232.12 329.36,-227.26 336,-223.31 342.89,-220.1"/>
<polygon fill="#63b8ff" stroke="#63b8ff" points="343.75,-223.53 351.67,-216.5 341.09,-217.06 343.75,-223.53"/>
</a>
</g>
</g>
<!-- Node31 -->
<g id="Node000031" class="node">
<title>Node31</title>
<g id="a_Node000031"><a xlink:href="protection_8c.html#a87d1ad0c7e39a4c5c88dc7b62e964da7" target="_top" xlink:title="读取温度降额系数（乘到电流限幅上；0 表示已达过温故障）">
<polygon fill="white" stroke="#666666" points="452.25,-296.25 331.25,-296.25 331.25,-274 452.25,-274 452.25,-296.25"/>
<text xml:space="preserve" text-anchor="middle" x="391.75" y="-280.85" font-family="Helvetica,sans-Serif" font-size="12.00">PROT_GetDerating</text>
</a>
</g>
</g>
<!-- Node30&#45;&gt;Node31 -->
<g id="edge43_Node000030_Node000031" class="edge">
<title>Node30&#45;&gt;Node31</title>
<g id="a_edge43_Node000030_Node000031"><a xlink:title=" ">
<path fill="none" stroke="#63b8ff" d="M247.25,-313.73C269.62,-309.27 296.8,-303.85 321.46,-298.94"/>
<polygon fill="#63b8ff" stroke="#63b8ff" points="321.98,-302.4 331.11,-297.01 320.61,-295.54 321.98,-302.4"/>
</a>
</g>
</g>
<!-- Node32&#45;&gt;Node25 -->
<g id="edge45_Node000032_Node000025" class="edge">
<title>Node32&#45;&gt;Node25</title>
<g id="a_edge45_Node000032_Node000025"><a xlink:title=" ">
<path fill="none" stroke="#63b8ff" d="M243.86,-167.12C272.1,-167.12 308.98,-167.12 338.72,-167.12"/>
<polygon fill="#63b8ff" stroke="#63b8ff" points="338.64,-170.63 348.64,-167.13 338.64,-163.63 338.64,-170.63"/>
</a>
</g>
</g>
<!-- Node34&#45;&gt;Node14 -->
<g id="edge48_Node000034_Node000014" class="edge">
<title>Node34&#45;&gt;Node14</title>
<g id="a_edge48_Node000034_Node000014"><a xlink:title=" ">
<path fill="none" stroke="#63b8ff" d="M435.21,-90.12C489.09,-90.12 583.06,-90.12 650.01,-90.12"/>
<polygon fill="#63b8ff" stroke="#63b8ff" points="649.83,-93.63 659.83,-90.13 649.83,-86.63 649.83,-93.63"/>
</a>
</g>
</g>
<!-- Node35&#45;&gt;Node14 -->
<g id="edge50_Node000035_Node000014" class="edge">
<title>Node35&#45;&gt;Node14</title>
<g id="a_edge50_Node000035_Node000014"><a xlink:title=" ">
<path fill="none" stroke="#63b8ff" d="M433.86,-55.03C487.49,-61.43 582.44,-72.76 649.95,-80.81"/>
<polygon fill="#63b8ff" stroke="#63b8ff" points="649.53,-84.29 659.87,-82 650.36,-77.34 649.53,-84.29"/>
</a>
</g>
</g>
</g>
</svg>

<g id="navigator" transform="translate(0 0)" fill="#404254">
  <rect fill="#f2f5e9" fill-opacity="0.5" stroke="#606060" stroke-width=".5" x="0" y="0" width="60" height="60"/>
  <use id="zoomplus" xlink:href="#zoomPlus" x="17" y="9" onmousedown="handleZoom(evt,'in')"/>
  <use id="zoomminus" xlink:href="#zoomMin" x="42" y="9" onmousedown="handleZoom(evt,'out')"/>
  <use id="reset" xlink:href="#resetDef" x="30" y="36" onmousedown="handleReset()"/>
   <use id="arrowup" xlink:href="#arrowUp" x="0" y="0" onmousedown="handlePan(0,-1)"/>
  <use id="arrowright" xlink:href="#arrowRight" x="0" y="0" onmousedown="handlePan(1,0)"/>
  <use id="arrowdown" xlink:href="#arrowDown" x="0" y="0" onmousedown="handlePan(0,1)"/>
  <use id="arrowleft" xlink:href="#arrowLeft" x="0" y="0" onmousedown="handlePan(-1,0)"/>
</g>
<svg viewBox="0 0 15 15" width="100%" height="30px" preserveAspectRatio="xMaxYMin meet">
 <g id="arrow_out" transform="scale(0.3 0.3)">
  <a xlink:href="motor__ctrl_8c_a5c982a7374da291bb0e5d06d26893def_cgraph_org.svg" target="_base">
   <rect id="button" ry="5" rx="5" y="6" x="6" height="38" width="38"
        fill="#f2f5e9" fill-opacity="0.5" stroke="#606060" stroke-width="1.0"/>
   <path id="arrow"
     d="M 11.500037,31.436501 C 11.940474,20.09759 22.043105,11.32322 32.158766,21.979434 L 37.068811,17.246167 C 37.068811,17.246167 37.088388,32 37.088388,32 L 22.160133,31.978069 C 22.160133,31.978069 26.997745,27.140456 26.997745,27.140456 C 18.528582,18.264221 13.291696,25.230495 11.500037,31.436501 z"
     style="fill:#404040;"/>
  </a>
 </g>
</svg>

<style type='text/css'>
<![CDATA[
[data-mouse-over-selected='false'] { opacity: 0.7; }
[data-mouse-over-selected='true']  { opacity: 1.0; }
]]>
</style>
<script type="application/ecmascript"><![CDATA[
document.addEventListener('DOMContentLoaded', (event) => {
  highlightEdges();
  highlightAdjacentNodes();
});
]]></script>
</svg>
