<?xml version="1.0" encoding="UTF-8" standalone="no"?>
<!DOCTYPE svg PUBLIC "-//W3C//DTD SVG 1.1//EN"
 "http://www.w3.org/Graphics/SVG/1.1/DTD/svg11.dtd">
<!-- Generated by graphviz version 15.1.0 (20260618.0150)
 -->
<!-- Title: Application/config/motor_config.h Pages: 1 -->
<!--zoomable 117 -->

<svg id="main" version="1.1" xmlns="http://www.w3.org/2000/svg" xmlns:xlink="http://www.w3.org/1999/xlink" xml:space="preserve" onload="init(evt)">

<style type="text/css"><![CDATA[
.node, .edge {opacity: 0.7;}
.node.selected, .edge.selected {opacity: 1;}
.edge:hover path { stroke: red; }
.edge:hover polygon { stroke: red; fill: red; }
]]></style>

<defs>
  <circle id="rim" cx="0" cy="0" r="7"/>
  <circle id="rim2" cx="0" cy="0" r="3.5"/>
  <g id="zoomPlus">
    <use xlink:href="#rim" fill="#404040"><set attributeName="fill" to="#808080" begin="zoomplus.mouseover" end="zoomplus.mouseout"/></use>
    <path d="M-4,0h8M0,-4v8" fill="none" stroke="white" stroke-width="1.5" pointer-events="none"/>
  </g>
  <g id="zoomMin">
    <use xlink:href="#rim" fill="#404040"><set attributeName="fill" to="#808080" begin="zoomminus.mouseover" end="zoomminus.mouseout"/></use>
    <path d="M-4,0h8" fill="none" stroke="white" stroke-width="1.5" pointer-events="none"/>
  </g>
  <g id="arrowUp" transform="translate(30 24)">
    <use xlink:href="#rim"/>
    <path pointer-events="none" fill="none" stroke="white" stroke-width="1.5" d="M0,-3.0v7 M-2.5,-0.5L0,-3.0L2.5,-0.5"/>
  </g>
  <g id="arrowRight" transform="rotate(90) translate(36 -43)">
    <use xlink:href="#rim"/>
    <path pointer-events="none" fill="none" stroke="white" stroke-width="1.5" d="M0,-3.0v7 M-2.5,-0.5L0,-3.0L2.5,-0.5"/>
  </g>
  <g id="arrowDown" transform="rotate(180) translate(-30 -48)">
    <use xlink:href="#rim"/>
    <path pointer-events="none" fill="none" stroke="white" stroke-width="1.5" d="M0,-3.0v7 M-2.5,-0.5L0,-3.0L2.5,-0.5"/>
  </g>
  <g id="arrowLeft" transform="rotate(270) translate(-36 17)">
    <use xlink:href="#rim"/>
    <path pointer-events="none" fill="none" stroke="white" stroke-width="1.5" d="M0,-3.0v7 M-2.5,-0.5L0,-3.0L2.5,-0.5"/>
  </g>
  <g id="resetDef">
    <use xlink:href="#rim2" fill="#404040"><set attributeName="fill" to="#808080" begin="reset.mouseover" end="reset.mouseout"/></use>
  </g>
</defs>
<script type="application/ecmascript">
var viewWidth = 953;
var viewHeight = 117;
var sectionId = 'dynsection-1';
</script>
<script type="application/ecmascript" xlink:href="svg.min.js"/>
<svg id="graph" class="graph">
<g id="viewport">
<title>Application/config/motor_config.h</title>
<!-- Node1 -->
<g id="Node000001" class="node">
<title>Node1</title>
<g id="a_Node000001"><a xlink:title="电机参数与控制参数统一配置">
<polygon fill="#999999" stroke="#666666" points="539.88,-109 428.62,-109 428.62,-72.5 539.88,-72.5 539.88,-109"/>
<text xml:space="preserve" text-anchor="start" x="436.62" y="-93.6" font-family="Helvetica,sans-Serif" font-size="12.00">Application/config</text>
<text xml:space="preserve" text-anchor="middle" x="484.25" y="-79.35" font-family="Helvetica,sans-Serif" font-size="12.00">/motor_config.h</text>
</a>
</g>
</g>
<!-- Node2 -->
<g id="Node000002" class="node">
<title>Node2</title>
<g id="a_Node000002"><a xlink:href="app__can__protocol_8c.html" target="_top" xlink:title="CAN 应用协议（MIT 运控协议 + 配置协议）">
<polygon fill="white" stroke="#666666" points="122.5,-36.5 0,-36.5 0,0 122.5,0 122.5,-36.5"/>
<text xml:space="preserve" text-anchor="start" x="8" y="-21.1" font-family="Helvetica,sans-Serif" font-size="12.00">Application/app/app</text>
<text xml:space="preserve" text-anchor="middle" x="61.25" y="-6.85" font-family="Helvetica,sans-Serif" font-size="12.00">_can_protocol.c</text>
</a>
</g>
</g>
<!-- Node1&#45;&gt;Node2 -->
<g id="edge1_Node000001_Node000002" class="edge">
<title>Node1&#45;&gt;Node2</title>
<g id="a_edge1_Node000001_Node000002"><a xlink:title=" ">
<path fill="none" stroke="#63b8ff" d="M417.19,-81.4C346.14,-72.13 230.83,-55.89 132.25,-36.5 129.14,-35.89 125.96,-35.23 122.75,-34.54"/>
<polygon fill="#63b8ff" stroke="#63b8ff" points="416.34,-84.81 426.7,-82.63 417.24,-77.87 416.34,-84.81"/>
</a>
</g>
</g>
<!-- Node3 -->
<g id="Node000003" class="node">
<title>Node3</title>
<g id="a_Node000003"><a xlink:href="app__main_8c.html" target="_top" xlink:title="应用入口模块（前后台调度）">
<polygon fill="white" stroke="#666666" points="263.5,-36.5 141,-36.5 141,0 263.5,0 263.5,-36.5"/>
<text xml:space="preserve" text-anchor="start" x="149" y="-21.1" font-family="Helvetica,sans-Serif" font-size="12.00">Application/app/app</text>
<text xml:space="preserve" text-anchor="middle" x="202.25" y="-6.85" font-family="Helvetica,sans-Serif" font-size="12.00">_main.c</text>
</a>
</g>
</g>
<!-- Node1&#45;&gt;Node3 -->
<g id="edge2_Node000001_Node000003" class="edge">
<title>Node1&#45;&gt;Node3</title>
<g id="a_edge2_Node000001_Node000003"><a xlink:title=" ">
<path fill="none" stroke="#63b8ff" d="M417.29,-73.01C370.65,-61.35 308.93,-45.92 263.58,-34.58"/>
<polygon fill="#63b8ff" stroke="#63b8ff" points="416.18,-76.34 426.73,-75.37 417.88,-69.55 416.18,-76.34"/>
</a>
</g>
</g>
<!-- Node4 -->
<g id="Node000004" class="node">
<title>Node4</title>
<g id="a_Node000004"><a xlink:href="app__monitor_8c.html" target="_top" xlink:title="调试数据打印模块">
<polygon fill="white" stroke="#666666" points="404.5,-36.5 282,-36.5 282,0 404.5,0 404.5,-36.5"/>
<text xml:space="preserve" text-anchor="start" x="290" y="-21.1" font-family="Helvetica,sans-Serif" font-size="12.00">Application/app/app</text>
<text xml:space="preserve" text-anchor="middle" x="343.25" y="-6.85" font-family="Helvetica,sans-Serif" font-size="12.00">_monitor.c</text>
</a>
</g>
</g>
<!-- Node1&#45;&gt;Node4 -->
<g id="edge3_Node000001_Node000004" class="edge">
<title>Node1&#45;&gt;Node4</title>
<g id="a_edge3_Node000001_Node000004"><a xlink:title=" ">
<path fill="none" stroke="#63b8ff" d="M438.82,-67.04C419.27,-57.26 396.77,-46.01 378.51,-36.88"/>
<polygon fill="#63b8ff" stroke="#63b8ff" points="437.17,-70.12 447.68,-71.46 440.3,-63.86 437.17,-70.12"/>
</a>
</g>
</g>
<!-- Node5 -->
<g id="Node000005" class="node">
<title>Node5</title>
<g id="a_Node000005"><a xlink:href="app__params_8c.html" target="_top" xlink:title="运行参数管理（RAM 副本 + Flash 持久化）">
<polygon fill="white" stroke="#666666" points="545.5,-36.5 423,-36.5 423,0 545.5,0 545.5,-36.5"/>
<text xml:space="preserve" text-anchor="start" x="431" y="-21.1" font-family="Helvetica,sans-Serif" font-size="12.00">Application/app/app</text>
<text xml:space="preserve" text-anchor="middle" x="484.25" y="-6.85" font-family="Helvetica,sans-Serif" font-size="12.00">_params.c</text>
</a>
</g>
</g>
<!-- Node1&#45;&gt;Node5 -->
<g id="edge4_Node000001_Node000005" class="edge">
<title>Node1&#45;&gt;Node5</title>
<g id="a_edge4_Node000001_Node000005"><a xlink:title=" ">
<path fill="none" stroke="#63b8ff" d="M484.25,-60.97C484.25,-52.84 484.25,-44.23 484.25,-36.97"/>
<polygon fill="#63b8ff" stroke="#63b8ff" points="480.75,-60.81 484.25,-70.81 487.75,-60.81 480.75,-60.81"/>
</a>
</g>
</g>
<!-- Node6 -->
<g id="Node000006" class="node">
<title>Node6</title>
<g id="a_Node000006"><a xlink:href="calibration_8c.html" target="_top" xlink:title="预定位校准模块（编码器方向/极对数/电角度偏置）">
<polygon fill="white" stroke="#666666" points="678.75,-36.5 563.75,-36.5 563.75,0 678.75,0 678.75,-36.5"/>
<text xml:space="preserve" text-anchor="start" x="571.75" y="-21.1" font-family="Helvetica,sans-Serif" font-size="12.00">Application/control</text>
<text xml:space="preserve" text-anchor="middle" x="621.25" y="-6.85" font-family="Helvetica,sans-Serif" font-size="12.00">/calibration.c</text>
</a>
</g>
</g>
<!-- Node1&#45;&gt;Node6 -->
<g id="edge5_Node000001_Node000006" class="edge">
<title>Node1&#45;&gt;Node6</title>
<g id="a_edge5_Node000001_Node000006"><a xlink:title=" ">
<path fill="none" stroke="#63b8ff" d="M528.65,-66.9C547.59,-57.16 569.33,-45.97 586.99,-36.88"/>
<polygon fill="#63b8ff" stroke="#63b8ff" points="527.1,-63.76 519.81,-71.45 530.31,-69.99 527.1,-63.76"/>
</a>
</g>
</g>
<!-- Node7 -->
<g id="Node000007" class="node">
<title>Node7</title>
<g id="a_Node000007"><a xlink:href="motor__ctrl_8c.html" target="_top" xlink:title="电机控制核心模块（模式状态机 + 20kHz FOC 主循环）">
<polygon fill="white" stroke="#666666" points="811.75,-36.5 696.75,-36.5 696.75,0 811.75,0 811.75,-36.5"/>
<text xml:space="preserve" text-anchor="start" x="704.75" y="-21.1" font-family="Helvetica,sans-Serif" font-size="12.00">Application/control</text>
<text xml:space="preserve" text-anchor="middle" x="754.25" y="-6.85" font-family="Helvetica,sans-Serif" font-size="12.00">/motor_ctrl.c</text>
</a>
</g>
</g>
<!-- Node1&#45;&gt;Node7 -->
<g id="edge6_Node000001_Node000007" class="edge">
<title>Node1&#45;&gt;Node7</title>
<g id="a_edge6_Node000001_Node000007"><a xlink:title=" ">
<path fill="none" stroke="#63b8ff" d="M551.01,-72.33C590.85,-61.93 642.44,-48.46 688.25,-36.5 690.89,-35.81 693.58,-35.11 696.3,-34.4"/>
<polygon fill="#63b8ff" stroke="#63b8ff" points="550.36,-68.88 541.56,-74.79 552.12,-75.66 550.36,-68.88"/>
</a>
</g>
</g>
<!-- Node8 -->
<g id="Node000008" class="node">
<title>Node8</title>
<g id="a_Node000008"><a xlink:href="protection_8c.html" target="_top" xlink:title="保护与故障管理模块">
<polygon fill="white" stroke="#666666" points="944.75,-36.5 829.75,-36.5 829.75,0 944.75,0 944.75,-36.5"/>
<text xml:space="preserve" text-anchor="start" x="837.75" y="-21.1" font-family="Helvetica,sans-Serif" font-size="12.00">Application/control</text>
<text xml:space="preserve" text-anchor="middle" x="887.25" y="-6.85" font-family="Helvetica,sans-Serif" font-size="12.00">/protection.c</text>
</a>
</g>
</g>
<!-- Node1&#45;&gt;Node8 -->
<g id="edge7_Node000001_Node000008" class="edge">
<title>Node1&#45;&gt;Node8</title>
<g id="a_edge7_Node000001_Node000008"><a xlink:title=" ">
<path fill="none" stroke="#63b8ff" d="M551.33,-81.14C619.6,-71.92 728.3,-55.94 821.25,-36.5 823.92,-35.94 826.64,-35.35 829.38,-34.72"/>
<polygon fill="#63b8ff" stroke="#63b8ff" points="551.26,-77.62 541.81,-82.42 552.19,-84.56 551.26,-77.62"/>
</a>
</g>
</g>
</g>
</svg>

<g id="navigator" transform="translate(0 0)" fill="#404254">
  <rect fill="#f2f5e9" fill-opacity="0.5" stroke="#606060" stroke-width=".5" x="0" y="0" width="60" height="60"/>
  <use id="zoomplus" xlink:href="#zoomPlus" x="17" y="9" onmousedown="handleZoom(evt,'in')"/>
  <use id="zoomminus" xlink:href="#zoomMin" x="42" y="9" onmousedown="handleZoom(evt,'out')"/>
  <use id="reset" xlink:href="#resetDef" x="30" y="36" onmousedown="handleReset()"/>
   <use id="arrowup" xlink:href="#arrowUp" x="0" y="0" onmousedown="handlePan(0,-1)"/>
  <use id="arrowright" xlink:href="#arrowRight" x="0" y="0" onmousedown="handlePan(1,0)"/>
  <use id="arrowdown" xlink:href="#arrowDown" x="0" y="0" onmousedown="handlePan(0,1)"/>
  <use id="arrowleft" xlink:href="#arrowLeft" x="0" y="0" onmousedown="handlePan(-1,0)"/>
</g>
<svg viewBox="0 0 15 15" width="100%" height="30px" preserveAspectRatio="xMaxYMin meet">
 <g id="arrow_out" transform="scale(0.3 0.3)">
  <a xlink:href="motor__config_8h__dep__incl_org.svg" target="_base">
   <rect id="button" ry="5" rx="5" y="6" x="6" height="38" width="38"
        fill="#f2f5e9" fill-opacity="0.5" stroke="#606060" stroke-width="1.0"/>
   <path id="arrow"
     d="M 11.500037,31.436501 C 11.940474,20.09759 22.043105,11.32322 32.158766,21.979434 L 37.068811,17.246167 C 37.068811,17.246167 37.088388,32 37.088388,32 L 22.160133,31.978069 C 22.160133,31.978069 26.997745,27.140456 26.997745,27.140456 C 18.528582,18.264221 13.291696,25.230495 11.500037,31.436501 z"
     style="fill:#404040;"/>
  </a>
 </g>
</svg>

<style type='text/css'>
<![CDATA[
[data-mouse-over-selected='false'] { opacity: 0.7; }
[data-mouse-over-selected='true']  { opacity: 1.0; }
]]>
</style>
<script type="application/ecmascript"><![CDATA[
document.addEventListener('DOMContentLoaded', (event) => {
  highlightEdges();
  highlightAdjacentNodes();
});
]]></script>
</svg>
