<?xml version="1.0" encoding="UTF-8" standalone="no"?>
<!DOCTYPE svg PUBLIC "-//W3C//DTD SVG 1.1//EN"
 "http://www.w3.org/Graphics/SVG/1.1/DTD/svg11.dtd">
<!-- Generated by graphviz version 15.1.0 (20260618.0150)
 -->
<!-- Title: MC_TripFault Pages: 1 -->
<svg width="487pt" height="90pt"
 viewBox="0.00 0.00 487.00 90.00" xmlns="http://www.w3.org/2000/svg" xmlns:xlink="http://www.w3.org/1999/xlink">
<g id="graph0" class="graph" transform="scale(1 1) rotate(0) translate(4 86.25)">
<title>MC_TripFault</title>
<!-- Node1 -->
<g id="Node000001" class="node">
<title>Node1</title>
<g id="a_Node000001"><a xlink:title="触发故障：立即封波并锁存（ISR 安全）">
<polygon fill="#999999" stroke="#666666" points="88.75,-42.25 0,-42.25 0,-20 88.75,-20 88.75,-42.25"/>
<text xml:space="preserve" text-anchor="middle" x="44.38" y="-26.85" font-family="Helvetica,sans-Serif" font-size="12.00">MC_TripFault</text>
</a>
</g>
</g>
<!-- Node2 -->
<g id="Node000002" class="node">
<title>Node2</title>
<g id="a_Node000002"><a xlink:href="motor__ctrl_8c.html#aceb46c7be868a0b12dffa105e3d0581e" target="_top" xlink:title="封波（ISR 安全）">
<polygon fill="white" stroke="#666666" points="207.5,-42.25 124.75,-42.25 124.75,-20 207.5,-20 207.5,-42.25"/>
<text xml:space="preserve" text-anchor="middle" x="166.12" y="-26.85" font-family="Helvetica,sans-Serif" font-size="12.00">MC_Disable</text>
</a>
</g>
</g>
<!-- Node1&#45;&gt;Node2 -->
<g id="edge1_Node000001_Node000002" class="edge">
<title>Node1&#45;&gt;Node2</title>
<g id="a_edge1_Node000001_Node000002"><a xlink:title=" ">
<path fill="none" stroke="#63b8ff" d="M88.95,-31.12C96.86,-31.12 105.17,-31.12 113.29,-31.12"/>
<polygon fill="#63b8ff" stroke="#63b8ff" points="113.06,-34.63 123.06,-31.13 113.06,-27.63 113.06,-34.63"/>
</a>
</g>
</g>
<!-- Node3 -->
<g id="Node000003" class="node">
<title>Node3</title>
<g id="a_Node000003"><a xlink:href="bsp__pwm_8c.html#a2664b56ad93d867fb05741e710ff942d" target="_top" xlink:title="封波（输出高阻，电机 freewheel）">
<polygon fill="white" stroke="#666666" points="368.25,-82.25 243.5,-82.25 243.5,-60 368.25,-60 368.25,-82.25"/>
<text xml:space="preserve" text-anchor="middle" x="305.88" y="-66.85" font-family="Helvetica,sans-Serif" font-size="12.00">BSP_PWM_Disable</text>
</a>
</g>
</g>
<!-- Node2&#45;&gt;Node3 -->
<g id="edge2_Node000002_Node000003" class="edge">
<title>Node2&#45;&gt;Node3</title>
<g id="a_edge2_Node000002_Node000003"><a xlink:title=" ">
<path fill="none" stroke="#63b8ff" d="M206.97,-42.69C221.67,-46.97 238.54,-51.86 254.09,-56.38"/>
<polygon fill="#63b8ff" stroke="#63b8ff" points="253.09,-59.73 263.67,-59.16 255.04,-53.01 253.09,-59.73"/>
</a>
</g>
</g>
<!-- Node4 -->
<g id="Node000004" class="node">
<title>Node4</title>
<g id="a_Node000004"><a xlink:href="foc_8c.html#aa25cf599086b4ad815ae5ad72dcfdec4" target="_top" xlink:title="复位电流环状态（封波后重新使能前调用，防止积分残留冲击）">
<polygon fill="white" stroke="#666666" points="345.75,-42.25 266,-42.25 266,-20 345.75,-20 345.75,-42.25"/>
<text xml:space="preserve" text-anchor="middle" x="305.88" y="-26.85" font-family="Helvetica,sans-Serif" font-size="12.00">FOC_Reset</text>
</a>
</g>
</g>
<!-- Node2&#45;&gt;Node4 -->
<g id="edge3_Node000002_Node000004" class="edge">
<title>Node2&#45;&gt;Node4</title>
<g id="a_edge3_Node000002_Node000004"><a xlink:title=" ">
<path fill="none" stroke="#63b8ff" d="M207.71,-31.12C222.25,-31.12 238.84,-31.12 254.14,-31.12"/>
<polygon fill="#63b8ff" stroke="#63b8ff" points="254.01,-34.63 264.01,-31.13 254.01,-27.63 254.01,-34.63"/>
</a>
</g>
</g>
<!-- Node5 -->
<g id="Node000005" class="node">
<title>Node5</title>
<g id="a_Node000005"><a xlink:href="pid_8c.html#acb76685b15d3fde29d9bd5548b3268c1" target="_top" xlink:title="复位 PID 内部状态（积分/历史误差/输出）">
<polygon fill="white" stroke="#666666" points="478.75,-22.25 404.25,-22.25 404.25,0 478.75,0 478.75,-22.25"/>
<text xml:space="preserve" text-anchor="middle" x="441.5" y="-6.85" font-family="Helvetica,sans-Serif" font-size="12.00">PID_Reset</text>
</a>
</g>
</g>
<!-- Node2&#45;&gt;Node5 -->
<g id="edge5_Node000002_Node000005" class="edge">
<title>Node2&#45;&gt;Node5</title>
<g id="a_edge5_Node000002_Node000005"><a xlink:title=" ">
<path fill="none" stroke="#63b8ff" d="M203.65,-19.53C216.15,-16.11 230.31,-12.82 243.5,-11.12 294.13,-4.61 352.69,-5.69 392.73,-7.73"/>
<polygon fill="#63b8ff" stroke="#63b8ff" points="392.32,-11.21 402.5,-8.27 392.71,-4.22 392.32,-11.21"/>
</a>
</g>
</g>
<!-- Node4&#45;&gt;Node5 -->
<g id="edge4_Node000004_Node000005" class="edge">
<title>Node4&#45;&gt;Node5</title>
<g id="a_edge4_Node000004_Node000005"><a xlink:title=" ">
<path fill="none" stroke="#63b8ff" d="M346.24,-25.23C360.84,-23.05 377.56,-20.55 392.82,-18.26"/>
<polygon fill="#63b8ff" stroke="#63b8ff" points="393.28,-21.73 402.65,-16.79 392.25,-14.81 393.28,-21.73"/>
</a>
</g>
</g>
</g>
</svg>
