<?xml version="1.0" encoding="UTF-8" standalone="no"?>
<!DOCTYPE svg PUBLIC "-//W3C//DTD SVG 1.1//EN"
 "http://www.w3.org/Graphics/SVG/1.1/DTD/svg11.dtd">
<!-- Generated by graphviz version 15.1.0 (20260618.0150)
 -->
<!-- Title: Application/control/motor_ctrl.c Pages: 1 -->
<svg width="766pt" height="278pt"
 viewBox="0.00 0.00 766.00 278.00" xmlns="http://www.w3.org/2000/svg" xmlns:xlink="http://www.w3.org/1999/xlink">
<g id="graph0" class="graph" transform="scale(1 1) rotate(0) translate(4 273.5)">
<title>Application/control/motor_ctrl.c</title>
<!-- Node1 -->
<g id="Node000001" class="node">
<title>Node1</title>
<g id="a_Node000001"><a xlink:title="电机控制核心模块（模式状态机 + 20kHz FOC 主循环）">
<polygon fill="#999999" stroke="#666666" points="585.25,-269.5 470.25,-269.5 470.25,-233 585.25,-233 585.25,-269.5"/>
<text xml:space="preserve" text-anchor="start" x="478.25" y="-254.1" font-family="Helvetica,sans-Serif" font-size="12.00">Application/control</text>
<text xml:space="preserve" text-anchor="middle" x="527.75" y="-239.85" font-family="Helvetica,sans-Serif" font-size="12.00">/motor_ctrl.c</text>
</a>
</g>
</g>
<!-- Node2 -->
<g id="Node000002" class="node">
<title>Node2</title>
<g id="a_Node000002"><a xlink:href="motor__ctrl_8h.html" target="_top" xlink:title="电机控制核心模块头文件（模式状态机 + FOC 主循环）">
<polygon fill="white" stroke="#666666" points="228.88,-197 150.62,-197 150.62,-174.75 228.88,-174.75 228.88,-197"/>
<text xml:space="preserve" text-anchor="middle" x="189.75" y="-181.6" font-family="Helvetica,sans-Serif" font-size="12.00">motor_ctrl.h</text>
</a>
</g>
</g>
<!-- Node1&#45;&gt;Node2 -->
<g id="edge1_Node000001_Node000002" class="edge">
<title>Node1&#45;&gt;Node2</title>
<g id="a_edge1_Node000001_Node000002"><a xlink:title=" ">
<path fill="none" stroke="#63b8ff" d="M470.03,-239.43C405.42,-227.31 301.75,-207.87 240.24,-196.34"/>
<polygon fill="#63b8ff" stroke="#63b8ff" points="241.23,-192.97 230.75,-194.56 239.94,-199.85 241.23,-192.97"/>
</a>
</g>
</g>
<!-- Node13 -->
<g id="Node000013" class="node">
<title>Node13</title>
<g id="a_Node000013"><a xlink:href="calibration_8h.html" target="_top" xlink:title="预定位校准模块头文件（编码器方向/极对数/电角度偏置）">
<polygon fill="white" stroke="#666666" points="406.38,-197 325.12,-197 325.12,-174.75 406.38,-174.75 406.38,-197"/>
<text xml:space="preserve" text-anchor="middle" x="365.75" y="-181.6" font-family="Helvetica,sans-Serif" font-size="12.00">calibration.h</text>
</a>
</g>
</g>
<!-- Node1&#45;&gt;Node13 -->
<g id="edge19_Node000001_Node000013" class="edge">
<title>Node1&#45;&gt;Node13</title>
<g id="a_edge19_Node000001_Node000013"><a xlink:title=" ">
<path fill="none" stroke="#63b8ff" d="M482.62,-232.6C457.73,-222.86 427.17,-210.9 403.55,-201.66"/>
<polygon fill="#63b8ff" stroke="#63b8ff" points="404.89,-198.43 394.3,-198.05 402.34,-204.95 404.89,-198.43"/>
</a>
</g>
</g>
<!-- Node14 -->
<g id="Node000014" class="node">
<title>Node14</title>
<g id="a_Node000014"><a xlink:href="bsp__pwm_8h.html" target="_top" xlink:title="TIM1 三相互补 PWM BSP 头文件">
<polygon fill="white" stroke="#666666" points="508.5,-138.75 431,-138.75 431,-116.5 508.5,-116.5 508.5,-138.75"/>
<text xml:space="preserve" text-anchor="middle" x="469.75" y="-123.35" font-family="Helvetica,sans-Serif" font-size="12.00">bsp_pwm.h</text>
</a>
</g>
</g>
<!-- Node1&#45;&gt;Node14 -->
<g id="edge22_Node000001_Node000014" class="edge">
<title>Node1&#45;&gt;Node14</title>
<g id="a_edge22_Node000001_Node000014"><a xlink:title=" ">
<path fill="none" stroke="#63b8ff" d="M519.32,-232.56C508.79,-210.48 490.8,-172.77 479.64,-149.36"/>
<polygon fill="#63b8ff" stroke="#63b8ff" points="482.88,-148.03 475.42,-140.51 476.56,-151.04 482.88,-148.03"/>
</a>
</g>
</g>
<!-- Node15 -->
<g id="Node000015" class="node">
<title>Node15</title>
<g id="a_Node000015"><a xlink:href="app__params_8h.html" target="_top" xlink:title="运行参数管理头文件（RAM 副本 + Flash 持久化）">
<polygon fill="white" stroke="#666666" points="619,-138.75 526.5,-138.75 526.5,-116.5 619,-116.5 619,-138.75"/>
<text xml:space="preserve" text-anchor="middle" x="572.75" y="-123.35" font-family="Helvetica,sans-Serif" font-size="12.00">app_params.h</text>
</a>
</g>
</g>
<!-- Node1&#45;&gt;Node15 -->
<g id="edge25_Node000001_Node000015" class="edge">
<title>Node1&#45;&gt;Node15</title>
<g id="a_edge25_Node000001_Node000015"><a xlink:title=" ">
<path fill="none" stroke="#63b8ff" d="M530.78,-232.75C533.79,-217.17 539.08,-193.96 546.75,-174.75 550.27,-165.95 555.17,-156.75 559.77,-148.91"/>
<polygon fill="#63b8ff" stroke="#63b8ff" points="562.68,-150.86 564.91,-140.5 556.7,-147.21 562.68,-150.86"/>
</a>
</g>
</g>
<!-- Node16 -->
<g id="Node000016" class="node">
<title>Node16</title>
<g id="a_Node000016"><a xlink:href="motor__config_8h.html" target="_top" xlink:title="电机参数与控制参数统一配置">
<polygon fill="white" stroke="#666666" points="650.12,-197 555.38,-197 555.38,-174.75 650.12,-174.75 650.12,-197"/>
<text xml:space="preserve" text-anchor="middle" x="602.75" y="-181.6" font-family="Helvetica,sans-Serif" font-size="12.00">motor_config.h</text>
</a>
</g>
</g>
<!-- Node1&#45;&gt;Node16 -->
<g id="edge28_Node000001_Node000016" class="edge">
<title>Node1&#45;&gt;Node16</title>
<g id="a_edge28_Node000001_Node000016"><a xlink:title=" ">
<path fill="none" stroke="#63b8ff" d="M548.64,-232.6C558.86,-223.96 571.15,-213.58 581.42,-204.89"/>
<polygon fill="#63b8ff" stroke="#63b8ff" points="583.65,-207.6 589.03,-198.47 579.13,-202.25 583.65,-207.6"/>
</a>
</g>
</g>
<!-- Node17 -->
<g id="Node000017" class="node">
<title>Node17</title>
<g id="a_Node000017"><a xlink:href="board__config_8h.html" target="_top" xlink:title="板级硬件参数统一配置（GIM4310/4305 电机控制器 V0.0 板）">
<polygon fill="white" stroke="#666666" points="732.5,-138.75 637,-138.75 637,-116.5 732.5,-116.5 732.5,-138.75"/>
<text xml:space="preserve" text-anchor="middle" x="684.75" y="-123.35" font-family="Helvetica,sans-Serif" font-size="12.00">board_config.h</text>
</a>
</g>
</g>
<!-- Node1&#45;&gt;Node17 -->
<g id="edge30_Node000001_Node000017" class="edge">
<title>Node1&#45;&gt;Node17</title>
<g id="a_edge30_Node000001_Node000017"><a xlink:title=" ">
<path fill="none" stroke="#63b8ff" d="M585.56,-237.85C610.82,-229.87 639.1,-217.1 658.75,-197 671.23,-184.23 677.85,-164.86 681.27,-149.99"/>
<polygon fill="#63b8ff" stroke="#63b8ff" points="684.69,-150.77 683.17,-140.29 677.82,-149.43 684.69,-150.77"/>
</a>
</g>
</g>
<!-- Node18 -->
<g id="Node000018" class="node">
<title>Node18</title>
<g id="a_Node000018"><a xlink:title=" ">
<polygon fill="#e0e0e0" stroke="#999999" points="757.75,-197 705.75,-197 705.75,-174.75 757.75,-174.75 757.75,-197"/>
<text xml:space="preserve" text-anchor="middle" x="731.75" y="-181.6" font-family="Helvetica,sans-Serif" font-size="12.00">math.h</text>
</a>
</g>
</g>
<!-- Node1&#45;&gt;Node18 -->
<g id="edge31_Node000001_Node000018" class="edge">
<title>Node1&#45;&gt;Node18</title>
<g id="a_edge31_Node000001_Node000018"><a xlink:title=" ">
<path fill="none" stroke="#63b8ff" d="M584.85,-232.51C620.01,-221.59 664.08,-207.9 694.73,-198.38"/>
<polygon fill="#63b8ff" stroke="#63b8ff" points="695.42,-201.83 703.93,-195.52 693.34,-195.14 695.42,-201.83"/>
</a>
</g>
</g>
<!-- Node3 -->
<g id="Node000003" class="node">
<title>Node3</title>
<g id="a_Node000003"><a xlink:href="foc_8h.html" target="_top" xlink:title="FOC 电流环模块头文件">
<polygon fill="white" stroke="#666666" points="210.5,-138.75 169,-138.75 169,-116.5 210.5,-116.5 210.5,-138.75"/>
<text xml:space="preserve" text-anchor="middle" x="189.75" y="-123.35" font-family="Helvetica,sans-Serif" font-size="12.00">foc.h</text>
</a>
</g>
</g>
<!-- Node2&#45;&gt;Node3 -->
<g id="edge2_Node000002_Node000003" class="edge">
<title>Node2&#45;&gt;Node3</title>
<g id="a_edge2_Node000002_Node000003"><a xlink:title=" ">
<path fill="none" stroke="#63b8ff" d="M189.75,-174.29C189.75,-167.62 189.75,-158.74 189.75,-150.59"/>
<polygon fill="#63b8ff" stroke="#63b8ff" points="193.25,-150.67 189.75,-140.67 186.25,-150.67 193.25,-150.67"/>
</a>
</g>
</g>
<!-- Node6 -->
<g id="Node000006" class="node">
<title>Node6</title>
<g id="a_Node000006"><a xlink:href="pid_8h.html" target="_top" xlink:title="位置式抗饱和（clamping anti&#45;windup）PID 控制器模块头文件">
<polygon fill="white" stroke="#666666" points="203.88,-80.5 161.62,-80.5 161.62,-58.25 203.88,-58.25 203.88,-80.5"/>
<text xml:space="preserve" text-anchor="middle" x="182.75" y="-65.1" font-family="Helvetica,sans-Serif" font-size="12.00">pid.h</text>
</a>
</g>
</g>
<!-- Node2&#45;&gt;Node6 -->
<g id="edge7_Node000002_Node000006" class="edge">
<title>Node2&#45;&gt;Node6</title>
<g id="a_edge7_Node000002_Node000006"><a xlink:title=" ">
<path fill="none" stroke="#63b8ff" d="M180.38,-174.41C173.17,-165.6 163.77,-152.3 159.75,-138.75 154.92,-122.45 161.67,-104.22 169.09,-90.68"/>
<polygon fill="#63b8ff" stroke="#63b8ff" points="172,-92.62 174.18,-82.25 166.01,-89 172,-92.62"/>
</a>
</g>
</g>
<!-- Node7 -->
<g id="Node000007" class="node">
<title>Node7</title>
<g id="a_Node000007"><a xlink:href="filter_8h.html" target="_top" xlink:title="滤波与状态估计模块头文件（一阶低通滤波器、PLL 速度估计器）">
<polygon fill="white" stroke="#666666" points="47.5,-80.5 0,-80.5 0,-58.25 47.5,-58.25 47.5,-80.5"/>
<text xml:space="preserve" text-anchor="middle" x="23.75" y="-65.1" font-family="Helvetica,sans-Serif" font-size="12.00">filter.h</text>
</a>
</g>
</g>
<!-- Node2&#45;&gt;Node7 -->
<g id="edge8_Node000002_Node000007" class="edge">
<title>Node2&#45;&gt;Node7</title>
<g id="a_edge8_Node000002_Node000007"><a xlink:title=" ">
<path fill="none" stroke="#63b8ff" d="M174.43,-174.31C145.65,-154.46 83.27,-111.43 48.47,-87.43"/>
<polygon fill="#63b8ff" stroke="#63b8ff" points="50.5,-84.57 40.28,-81.78 46.52,-90.33 50.5,-84.57"/>
</a>
</g>
</g>
<!-- Node8 -->
<g id="Node000008" class="node">
<title>Node8</title>
<g id="a_Node000008"><a xlink:href="protection_8h.html" target="_top" xlink:title="保护与故障管理模块头文件">
<polygon fill="white" stroke="#666666" points="143.88,-80.5 65.62,-80.5 65.62,-58.25 143.88,-58.25 143.88,-80.5"/>
<text xml:space="preserve" text-anchor="middle" x="104.75" y="-65.1" font-family="Helvetica,sans-Serif" font-size="12.00">protection.h</text>
</a>
</g>
</g>
<!-- Node2&#45;&gt;Node8 -->
<g id="edge10_Node000002_Node000008" class="edge">
<title>Node2&#45;&gt;Node8</title>
<g id="a_edge10_Node000002_Node000008"><a xlink:title=" ">
<path fill="none" stroke="#63b8ff" d="M181.33,-174.34C173.96,-165.06 163,-151.11 153.75,-138.75 141.5,-122.38 127.99,-103.46 118.27,-89.68"/>
<polygon fill="#63b8ff" stroke="#63b8ff" points="121.41,-88.07 112.8,-81.9 115.69,-92.09 121.41,-88.07"/>
</a>
</g>
</g>
<!-- Node9 -->
<g id="Node000009" class="node">
<title>Node9</title>
<g id="a_Node000009"><a xlink:href="bsp__encoder_8h.html" target="_top" xlink:title="MT6701 磁编码器 BSP 头文件（GPIO 位带模拟 SSI）">
<polygon fill="white" stroke="#666666" points="413.12,-138.75 318.38,-138.75 318.38,-116.5 413.12,-116.5 413.12,-138.75"/>
<text xml:space="preserve" text-anchor="middle" x="365.75" y="-123.35" font-family="Helvetica,sans-Serif" font-size="12.00">bsp_encoder.h</text>
</a>
</g>
</g>
<!-- Node2&#45;&gt;Node9 -->
<g id="edge12_Node000002_Node000009" class="edge">
<title>Node2&#45;&gt;Node9</title>
<g id="a_edge12_Node000002_Node000009"><a xlink:title=" ">
<path fill="none" stroke="#63b8ff" d="M222.85,-174.29C250.88,-165.34 291.27,-152.43 321.97,-142.62"/>
<polygon fill="#63b8ff" stroke="#63b8ff" points="322.89,-146 331.35,-139.62 320.76,-139.33 322.89,-146"/>
</a>
</g>
</g>
<!-- Node12 -->
<g id="Node000012" class="node">
<title>Node12</title>
<g id="a_Node000012"><a xlink:href="bsp__adc_8h.html" target="_top" xlink:title="ADC 采样 BSP 头文件（电流/母线电压注入组 + 温度规则组）">
<polygon fill="white" stroke="#666666" points="300.5,-138.75 229,-138.75 229,-116.5 300.5,-116.5 300.5,-138.75"/>
<text xml:space="preserve" text-anchor="middle" x="264.75" y="-123.35" font-family="Helvetica,sans-Serif" font-size="12.00">bsp_adc.h</text>
</a>
</g>
</g>
<!-- Node2&#45;&gt;Node12 -->
<g id="edge16_Node000002_Node000012" class="edge">
<title>Node2&#45;&gt;Node12</title>
<g id="a_edge16_Node000002_Node000012"><a xlink:title=" ">
<path fill="none" stroke="#63b8ff" d="M203.86,-174.29C214.54,-166.28 229.45,-155.1 241.83,-145.81"/>
<polygon fill="#63b8ff" stroke="#63b8ff" points="243.6,-148.87 249.5,-140.07 239.4,-143.27 243.6,-148.87"/>
</a>
</g>
</g>
<!-- Node4 -->
<g id="Node000004" class="node">
<title>Node4</title>
<g id="a_Node000004"><a xlink:href="foc__math_8h.html" target="_top" xlink:title="FOC 数学基础模块头文件（快速三角函数、坐标变换、角度工具）">
<polygon fill="white" stroke="#666666" points="296,-80.5 221.5,-80.5 221.5,-58.25 296,-58.25 296,-80.5"/>
<text xml:space="preserve" text-anchor="middle" x="258.75" y="-65.1" font-family="Helvetica,sans-Serif" font-size="12.00">foc_math.h</text>
</a>
</g>
</g>
<!-- Node3&#45;&gt;Node4 -->
<g id="edge3_Node000003_Node000004" class="edge">
<title>Node3&#45;&gt;Node4</title>
<g id="a_edge3_Node000003_Node000004"><a xlink:title=" ">
<path fill="none" stroke="#63b8ff" d="M202.73,-116.04C212.37,-108.19 225.73,-97.29 236.99,-88.11"/>
<polygon fill="#63b8ff" stroke="#63b8ff" points="239.12,-90.9 244.66,-81.86 234.69,-85.47 239.12,-90.9"/>
</a>
</g>
</g>
<!-- Node3&#45;&gt;Node6 -->
<g id="edge5_Node000003_Node000006" class="edge">
<title>Node3&#45;&gt;Node6</title>
<g id="a_edge5_Node000003_Node000006"><a xlink:title=" ">
<path fill="none" stroke="#63b8ff" d="M188.43,-116.04C187.59,-109.29 186.47,-100.28 185.45,-92.05"/>
<polygon fill="#63b8ff" stroke="#63b8ff" points="188.96,-91.9 184.25,-82.41 182.01,-92.77 188.96,-91.9"/>
</a>
</g>
</g>
<!-- Node5 -->
<g id="Node000005" class="node">
<title>Node5</title>
<g id="a_Node000005"><a xlink:title=" ">
<polygon fill="#e0e0e0" stroke="#999999" points="314.88,-22.25 260.62,-22.25 260.62,0 314.88,0 314.88,-22.25"/>
<text xml:space="preserve" text-anchor="middle" x="287.75" y="-6.85" font-family="Helvetica,sans-Serif" font-size="12.00">stdint.h</text>
</a>
</g>
</g>
<!-- Node4&#45;&gt;Node5 -->
<g id="edge4_Node000004_Node000005" class="edge">
<title>Node4&#45;&gt;Node5</title>
<g id="a_edge4_Node000004_Node000005"><a xlink:title=" ">
<path fill="none" stroke="#63b8ff" d="M264.2,-57.79C267.85,-50.72 272.77,-41.19 277.16,-32.66"/>
<polygon fill="#63b8ff" stroke="#63b8ff" points="280.15,-34.5 281.63,-24 273.93,-31.29 280.15,-34.5"/>
</a>
</g>
</g>
<!-- Node6&#45;&gt;Node5 -->
<g id="edge6_Node000006_Node000005" class="edge">
<title>Node6&#45;&gt;Node5</title>
<g id="a_edge6_Node000006_Node000005"><a xlink:title=" ">
<path fill="none" stroke="#63b8ff" d="M202.5,-57.79C218.12,-49.43 240.18,-37.61 257.94,-28.09"/>
<polygon fill="#63b8ff" stroke="#63b8ff" points="259.59,-31.18 266.75,-23.37 256.29,-25.01 259.59,-31.18"/>
</a>
</g>
</g>
<!-- Node7&#45;&gt;Node5 -->
<g id="edge9_Node000007_Node000005" class="edge">
<title>Node7&#45;&gt;Node5</title>
<g id="a_edge9_Node000007_Node000005"><a xlink:title=" ">
<path fill="none" stroke="#63b8ff" d="M47.82,-60.68C50.82,-59.82 53.84,-58.98 56.75,-58.25 123.68,-41.35 202.78,-26.68 248.9,-18.65"/>
<polygon fill="#63b8ff" stroke="#63b8ff" points="249.42,-22.11 258.68,-16.96 248.23,-15.21 249.42,-22.11"/>
</a>
</g>
</g>
<!-- Node8&#45;&gt;Node5 -->
<g id="edge11_Node000008_Node000005" class="edge">
<title>Node8&#45;&gt;Node5</title>
<g id="a_edge11_Node000008_Node000005"><a xlink:title=" ">
<path fill="none" stroke="#63b8ff" d="M139.17,-57.79C170.57,-48.14 216.89,-33.9 249.45,-23.9"/>
<polygon fill="#63b8ff" stroke="#63b8ff" points="250.37,-27.28 258.9,-20.99 248.31,-20.59 250.37,-27.28"/>
</a>
</g>
</g>
<!-- Node9&#45;&gt;Node5 -->
<g id="edge15_Node000009_Node000005" class="edge">
<title>Node9&#45;&gt;Node5</title>
<g id="a_edge15_Node000009_Node000005"><a xlink:title=" ">
<path fill="none" stroke="#63b8ff" d="M358.94,-116.4C350,-103.01 333.79,-78.8 319.75,-58.25 313.87,-49.65 307.33,-40.19 301.69,-32.09"/>
<polygon fill="#63b8ff" stroke="#63b8ff" points="304.62,-30.17 296.03,-23.96 298.88,-34.17 304.62,-30.17"/>
</a>
</g>
</g>
<!-- Node10 -->
<g id="Node000010" class="node">
<title>Node10</title>
<g id="a_Node000010"><a xlink:href="main_8h.html" target="_top" xlink:title=": Header for main.c file.">
<polygon fill="white" stroke="#666666" points="441.75,-80.5 389.75,-80.5 389.75,-58.25 441.75,-58.25 441.75,-80.5"/>
<text xml:space="preserve" text-anchor="middle" x="415.75" y="-65.1" font-family="Helvetica,sans-Serif" font-size="12.00">main.h</text>
</a>
</g>
</g>
<!-- Node9&#45;&gt;Node10 -->
<g id="edge13_Node000009_Node000010" class="edge">
<title>Node9&#45;&gt;Node10</title>
<g id="a_edge13_Node000009_Node000010"><a xlink:title=" ">
<path fill="none" stroke="#63b8ff" d="M375.15,-116.04C381.79,-108.58 390.86,-98.37 398.75,-89.5"/>
<polygon fill="#63b8ff" stroke="#63b8ff" points="401.35,-91.84 405.38,-82.04 396.12,-87.19 401.35,-91.84"/>
</a>
</g>
</g>
<!-- Node11 -->
<g id="Node000011" class="node">
<title>Node11</title>
<g id="a_Node000011"><a xlink:title=" ">
<polygon fill="#e0e0e0" stroke="#999999" points="469.12,-22.25 362.38,-22.25 362.38,0 469.12,0 469.12,-22.25"/>
<text xml:space="preserve" text-anchor="middle" x="415.75" y="-6.85" font-family="Helvetica,sans-Serif" font-size="12.00">stm32g4xx_hal.h</text>
</a>
</g>
</g>
<!-- Node10&#45;&gt;Node11 -->
<g id="edge14_Node000010_Node000011" class="edge">
<title>Node10&#45;&gt;Node11</title>
<g id="a_edge14_Node000010_Node000011"><a xlink:title=" ">
<path fill="none" stroke="#63b8ff" d="M415.75,-57.79C415.75,-51.12 415.75,-42.24 415.75,-34.09"/>
<polygon fill="#63b8ff" stroke="#63b8ff" points="419.25,-34.17 415.75,-24.17 412.25,-34.17 419.25,-34.17"/>
</a>
</g>
</g>
<!-- Node12&#45;&gt;Node5 -->
<g id="edge18_Node000012_Node000005" class="edge">
<title>Node12&#45;&gt;Node5</title>
<g id="a_edge18_Node000012_Node000005"><a xlink:title=" ">
<path fill="none" stroke="#63b8ff" d="M277.96,-116.08C287.42,-107.61 299.41,-94.8 304.75,-80.5 310.62,-64.77 305.31,-46.24 299.11,-32.45"/>
<polygon fill="#63b8ff" stroke="#63b8ff" points="302.44,-31.27 294.83,-23.89 296.18,-34.4 302.44,-31.27"/>
</a>
</g>
</g>
<!-- Node12&#45;&gt;Node10 -->
<g id="edge17_Node000012_Node000010" class="edge">
<title>Node12&#45;&gt;Node10</title>
<g id="a_edge17_Node000012_Node000010"><a xlink:title=" ">
<path fill="none" stroke="#63b8ff" d="M293.15,-116.04C317.37,-107.02 352.36,-93.99 378.76,-84.15"/>
<polygon fill="#63b8ff" stroke="#63b8ff" points="379.93,-87.45 388.08,-80.68 377.49,-80.89 379.93,-87.45"/>
</a>
</g>
</g>
<!-- Node13&#45;&gt;Node3 -->
<g id="edge20_Node000013_Node000003" class="edge">
<title>Node13&#45;&gt;Node3</title>
<g id="a_edge20_Node000013_Node000003"><a xlink:title=" ">
<path fill="none" stroke="#63b8ff" d="M331.47,-174.25C304.1,-165.73 264.52,-153.29 221.44,-139.26"/>
<polygon fill="#63b8ff" stroke="#63b8ff" points="222.74,-136.01 212.15,-136.23 220.57,-142.66 222.74,-136.01"/>
</a>
</g>
</g>
<!-- Node13&#45;&gt;Node9 -->
<g id="edge21_Node000013_Node000009" class="edge">
<title>Node13&#45;&gt;Node9</title>
<g id="a_edge21_Node000013_Node000009"><a xlink:title=" ">
<path fill="none" stroke="#63b8ff" d="M365.75,-174.29C365.75,-167.62 365.75,-158.74 365.75,-150.59"/>
<polygon fill="#63b8ff" stroke="#63b8ff" points="369.25,-150.67 365.75,-140.67 362.25,-150.67 369.25,-150.67"/>
</a>
</g>
</g>
<!-- Node14&#45;&gt;Node5 -->
<g id="edge24_Node000014_Node000005" class="edge">
<title>Node14&#45;&gt;Node5</title>
<g id="a_edge24_Node000014_Node000005"><a xlink:title=" ">
<path fill="none" stroke="#63b8ff" d="M469.85,-116.03C469.4,-101.08 466.31,-73.88 450.75,-58.25 433.36,-40.78 368.85,-26.41 326.39,-18.57"/>
<polygon fill="#63b8ff" stroke="#63b8ff" points="327.27,-15.18 316.81,-16.85 326.04,-22.07 327.27,-15.18"/>
</a>
</g>
</g>
<!-- Node14&#45;&gt;Node10 -->
<g id="edge23_Node000014_Node000010" class="edge">
<title>Node14&#45;&gt;Node10</title>
<g id="a_edge23_Node000014_Node000010"><a xlink:title=" ">
<path fill="none" stroke="#63b8ff" d="M459.59,-116.04C452.28,-108.42 442.21,-97.94 433.57,-88.94"/>
<polygon fill="#63b8ff" stroke="#63b8ff" points="436.36,-86.79 426.91,-82 431.31,-91.64 436.36,-86.79"/>
</a>
</g>
</g>
<!-- Node15&#45;&gt;Node5 -->
<g id="edge27_Node000015_Node000005" class="edge">
<title>Node15&#45;&gt;Node5</title>
<g id="a_edge27_Node000015_Node000005"><a xlink:title=" ">
<path fill="none" stroke="#63b8ff" d="M560.39,-116.25C541.99,-101.32 505.81,-73.85 470.75,-58.25 423.14,-37.06 364.05,-24.4 326.13,-17.84"/>
<polygon fill="#63b8ff" stroke="#63b8ff" points="327,-14.44 316.56,-16.25 325.85,-21.35 327,-14.44"/>
</a>
</g>
</g>
<!-- Node15&#45;&gt;Node10 -->
<g id="edge26_Node000015_Node000010" class="edge">
<title>Node15&#45;&gt;Node10</title>
<g id="a_edge26_Node000015_Node000010"><a xlink:title=" ">
<path fill="none" stroke="#63b8ff" d="M543.22,-116.04C517.61,-106.87 480.43,-93.55 452.83,-83.66"/>
<polygon fill="#63b8ff" stroke="#63b8ff" points="454.04,-80.37 443.44,-80.3 451.68,-86.96 454.04,-80.37"/>
</a>
</g>
</g>
<!-- Node16&#45;&gt;Node17 -->
<g id="edge29_Node000016_Node000017" class="edge">
<title>Node16&#45;&gt;Node17</title>
<g id="a_edge29_Node000016_Node000017"><a xlink:title=" ">
<path fill="none" stroke="#63b8ff" d="M618.17,-174.29C629.97,-166.2 646.47,-154.88 660.09,-145.54"/>
<polygon fill="#63b8ff" stroke="#63b8ff" points="661.88,-148.56 668.15,-140.01 657.92,-142.78 661.88,-148.56"/>
</a>
</g>
</g>
</g>
</svg>
