<?xml version="1.0" encoding="UTF-8" standalone="no"?>
<!DOCTYPE svg PUBLIC "-//W3C//DTD SVG 1.1//EN"
 "http://www.w3.org/Graphics/SVG/1.1/DTD/svg11.dtd">
<!-- Generated by graphviz version 15.1.0 (20260618.0150)
 -->
<!-- Title: Application/config/motor_config.h Pages: 1 -->
<svg width="953pt" height="117pt"
 viewBox="0.00 0.00 953.00 117.00" xmlns="http://www.w3.org/2000/svg" xmlns:xlink="http://www.w3.org/1999/xlink">
<g id="graph0" class="graph" transform="scale(1 1) rotate(0) translate(4 113)">
<title>Application/config/motor_config.h</title>
<!-- Node1 -->
<g id="Node000001" class="node">
<title>Node1</title>
<g id="a_Node000001"><a xlink:title="电机参数与控制参数统一配置">
<polygon fill="#999999" stroke="#666666" points="539.88,-109 428.62,-109 428.62,-72.5 539.88,-72.5 539.88,-109"/>
<text xml:space="preserve" text-anchor="start" x="436.62" y="-93.6" font-family="Helvetica,sans-Serif" font-size="12.00">Application/config</text>
<text xml:space="preserve" text-anchor="middle" x="484.25" y="-79.35" font-family="Helvetica,sans-Serif" font-size="12.00">/motor_config.h</text>
</a>
</g>
</g>
<!-- Node2 -->
<g id="Node000002" class="node">
<title>Node2</title>
<g id="a_Node000002"><a xlink:href="app__can__protocol_8c.html" target="_top" xlink:title="CAN 应用协议（MIT 运控协议 + 配置协议）">
<polygon fill="white" stroke="#666666" points="122.5,-36.5 0,-36.5 0,0 122.5,0 122.5,-36.5"/>
<text xml:space="preserve" text-anchor="start" x="8" y="-21.1" font-family="Helvetica,sans-Serif" font-size="12.00">Application/app/app</text>
<text xml:space="preserve" text-anchor="middle" x="61.25" y="-6.85" font-family="Helvetica,sans-Serif" font-size="12.00">_can_protocol.c</text>
</a>
</g>
</g>
<!-- Node1&#45;&gt;Node2 -->
<g id="edge1_Node000001_Node000002" class="edge">
<title>Node1&#45;&gt;Node2</title>
<g id="a_edge1_Node000001_Node000002"><a xlink:title=" ">
<path fill="none" stroke="#63b8ff" d="M417.19,-81.4C346.14,-72.13 230.83,-55.89 132.25,-36.5 129.14,-35.89 125.96,-35.23 122.75,-34.54"/>
<polygon fill="#63b8ff" stroke="#63b8ff" points="416.34,-84.81 426.7,-82.63 417.24,-77.87 416.34,-84.81"/>
</a>
</g>
</g>
<!-- Node3 -->
<g id="Node000003" class="node">
<title>Node3</title>
<g id="a_Node000003"><a xlink:href="app__main_8c.html" target="_top" xlink:title="应用入口模块（前后台调度）">
<polygon fill="white" stroke="#666666" points="263.5,-36.5 141,-36.5 141,0 263.5,0 263.5,-36.5"/>
<text xml:space="preserve" text-anchor="start" x="149" y="-21.1" font-family="Helvetica,sans-Serif" font-size="12.00">Application/app/app</text>
<text xml:space="preserve" text-anchor="middle" x="202.25" y="-6.85" font-family="Helvetica,sans-Serif" font-size="12.00">_main.c</text>
</a>
</g>
</g>
<!-- Node1&#45;&gt;Node3 -->
<g id="edge2_Node000001_Node000003" class="edge">
<title>Node1&#45;&gt;Node3</title>
<g id="a_edge2_Node000001_Node000003"><a xlink:title=" ">
<path fill="none" stroke="#63b8ff" d="M417.29,-73.01C370.65,-61.35 308.93,-45.92 263.58,-34.58"/>
<polygon fill="#63b8ff" stroke="#63b8ff" points="416.18,-76.34 426.73,-75.37 417.88,-69.55 416.18,-76.34"/>
</a>
</g>
</g>
<!-- Node4 -->
<g id="Node000004" class="node">
<title>Node4</title>
<g id="a_Node000004"><a xlink:href="app__monitor_8c.html" target="_top" xlink:title="调试数据打印模块">
<polygon fill="white" stroke="#666666" points="404.5,-36.5 282,-36.5 282,0 404.5,0 404.5,-36.5"/>
<text xml:space="preserve" text-anchor="start" x="290" y="-21.1" font-family="Helvetica,sans-Serif" font-size="12.00">Application/app/app</text>
<text xml:space="preserve" text-anchor="middle" x="343.25" y="-6.85" font-family="Helvetica,sans-Serif" font-size="12.00">_monitor.c</text>
</a>
</g>
</g>
<!-- Node1&#45;&gt;Node4 -->
<g id="edge3_Node000001_Node000004" class="edge">
<title>Node1&#45;&gt;Node4</title>
<g id="a_edge3_Node000001_Node000004"><a xlink:title=" ">
<path fill="none" stroke="#63b8ff" d="M438.82,-67.04C419.27,-57.26 396.77,-46.01 378.51,-36.88"/>
<polygon fill="#63b8ff" stroke="#63b8ff" points="437.17,-70.12 447.68,-71.46 440.3,-63.86 437.17,-70.12"/>
</a>
</g>
</g>
<!-- Node5 -->
<g id="Node000005" class="node">
<title>Node5</title>
<g id="a_Node000005"><a xlink:href="app__params_8c.html" target="_top" xlink:title="运行参数管理（RAM 副本 + Flash 持久化）">
<polygon fill="white" stroke="#666666" points="545.5,-36.5 423,-36.5 423,0 545.5,0 545.5,-36.5"/>
<text xml:space="preserve" text-anchor="start" x="431" y="-21.1" font-family="Helvetica,sans-Serif" font-size="12.00">Application/app/app</text>
<text xml:space="preserve" text-anchor="middle" x="484.25" y="-6.85" font-family="Helvetica,sans-Serif" font-size="12.00">_params.c</text>
</a>
</g>
</g>
<!-- Node1&#45;&gt;Node5 -->
<g id="edge4_Node000001_Node000005" class="edge">
<title>Node1&#45;&gt;Node5</title>
<g id="a_edge4_Node000001_Node000005"><a xlink:title=" ">
<path fill="none" stroke="#63b8ff" d="M484.25,-60.97C484.25,-52.84 484.25,-44.23 484.25,-36.97"/>
<polygon fill="#63b8ff" stroke="#63b8ff" points="480.75,-60.81 484.25,-70.81 487.75,-60.81 480.75,-60.81"/>
</a>
</g>
</g>
<!-- Node6 -->
<g id="Node000006" class="node">
<title>Node6</title>
<g id="a_Node000006"><a xlink:href="calibration_8c.html" target="_top" xlink:title="预定位校准模块（编码器方向/极对数/电角度偏置）">
<polygon fill="white" stroke="#666666" points="678.75,-36.5 563.75,-36.5 563.75,0 678.75,0 678.75,-36.5"/>
<text xml:space="preserve" text-anchor="start" x="571.75" y="-21.1" font-family="Helvetica,sans-Serif" font-size="12.00">Application/control</text>
<text xml:space="preserve" text-anchor="middle" x="621.25" y="-6.85" font-family="Helvetica,sans-Serif" font-size="12.00">/calibration.c</text>
</a>
</g>
</g>
<!-- Node1&#45;&gt;Node6 -->
<g id="edge5_Node000001_Node000006" class="edge">
<title>Node1&#45;&gt;Node6</title>
<g id="a_edge5_Node000001_Node000006"><a xlink:title=" ">
<path fill="none" stroke="#63b8ff" d="M528.65,-66.9C547.59,-57.16 569.33,-45.97 586.99,-36.88"/>
<polygon fill="#63b8ff" stroke="#63b8ff" points="527.1,-63.76 519.81,-71.45 530.31,-69.99 527.1,-63.76"/>
</a>
</g>
</g>
<!-- Node7 -->
<g id="Node000007" class="node">
<title>Node7</title>
<g id="a_Node000007"><a xlink:href="motor__ctrl_8c.html" target="_top" xlink:title="电机控制核心模块（模式状态机 + 20kHz FOC 主循环）">
<polygon fill="white" stroke="#666666" points="811.75,-36.5 696.75,-36.5 696.75,0 811.75,0 811.75,-36.5"/>
<text xml:space="preserve" text-anchor="start" x="704.75" y="-21.1" font-family="Helvetica,sans-Serif" font-size="12.00">Application/control</text>
<text xml:space="preserve" text-anchor="middle" x="754.25" y="-6.85" font-family="Helvetica,sans-Serif" font-size="12.00">/motor_ctrl.c</text>
</a>
</g>
</g>
<!-- Node1&#45;&gt;Node7 -->
<g id="edge6_Node000001_Node000007" class="edge">
<title>Node1&#45;&gt;Node7</title>
<g id="a_edge6_Node000001_Node000007"><a xlink:title=" ">
<path fill="none" stroke="#63b8ff" d="M551.01,-72.33C590.85,-61.93 642.44,-48.46 688.25,-36.5 690.89,-35.81 693.58,-35.11 696.3,-34.4"/>
<polygon fill="#63b8ff" stroke="#63b8ff" points="550.36,-68.88 541.56,-74.79 552.12,-75.66 550.36,-68.88"/>
</a>
</g>
</g>
<!-- Node8 -->
<g id="Node000008" class="node">
<title>Node8</title>
<g id="a_Node000008"><a xlink:href="protection_8c.html" target="_top" xlink:title="保护与故障管理模块">
<polygon fill="white" stroke="#666666" points="944.75,-36.5 829.75,-36.5 829.75,0 944.75,0 944.75,-36.5"/>
<text xml:space="preserve" text-anchor="start" x="837.75" y="-21.1" font-family="Helvetica,sans-Serif" font-size="12.00">Application/control</text>
<text xml:space="preserve" text-anchor="middle" x="887.25" y="-6.85" font-family="Helvetica,sans-Serif" font-size="12.00">/protection.c</text>
</a>
</g>
</g>
<!-- Node1&#45;&gt;Node8 -->
<g id="edge7_Node000001_Node000008" class="edge">
<title>Node1&#45;&gt;Node8</title>
<g id="a_edge7_Node000001_Node000008"><a xlink:title=" ">
<path fill="none" stroke="#63b8ff" d="M551.33,-81.14C619.6,-71.92 728.3,-55.94 821.25,-36.5 823.92,-35.94 826.64,-35.35 829.38,-34.72"/>
<polygon fill="#63b8ff" stroke="#63b8ff" points="551.26,-77.62 541.81,-82.42 552.19,-84.56 551.26,-77.62"/>
</a>
</g>
</g>
</g>
</svg>
