<?xml version="1.0" encoding="UTF-8" standalone="no"?>
<!DOCTYPE svg PUBLIC "-//W3C//DTD SVG 1.1//EN"
 "http://www.w3.org/Graphics/SVG/1.1/DTD/svg11.dtd">
<!-- Generated by graphviz version 15.1.0 (20260618.0150)
 -->
<!-- Title: Core/Inc/opamp.h Pages: 1 -->
<svg width="379pt" height="103pt"
 viewBox="0.00 0.00 379.00 103.00" xmlns="http://www.w3.org/2000/svg" xmlns:xlink="http://www.w3.org/1999/xlink">
<g id="graph0" class="graph" transform="scale(1 1) rotate(0) translate(4 98.75)">
<title>Core/Inc/opamp.h</title>
<!-- Node1 -->
<g id="Node000001" class="node">
<title>Node1</title>
<g id="a_Node000001"><a xlink:title="This file contains all the function prototypes for the opamp.c file">
<polygon fill="#999999" stroke="#666666" points="244.75,-94.75 134.25,-94.75 134.25,-72.5 244.75,-72.5 244.75,-94.75"/>
<text xml:space="preserve" text-anchor="middle" x="189.5" y="-79.35" font-family="Helvetica,sans-Serif" font-size="12.00">Core/Inc/opamp.h</text>
</a>
</g>
</g>
<!-- Node2 -->
<g id="Node000002" class="node">
<title>Node2</title>
<g id="a_Node000002"><a xlink:href="bsp__adc_8c.html" target="_top" xlink:title="ADC 采样 BSP（电流/母线电压注入组 + 温度规则组）">
<polygon fill="white" stroke="#666666" points="121,-36.5 0,-36.5 0,0 121,0 121,-36.5"/>
<text xml:space="preserve" text-anchor="start" x="8" y="-21.1" font-family="Helvetica,sans-Serif" font-size="12.00">Application/bsp/bsp</text>
<text xml:space="preserve" text-anchor="middle" x="60.5" y="-6.85" font-family="Helvetica,sans-Serif" font-size="12.00">_adc.c</text>
</a>
</g>
</g>
<!-- Node1&#45;&gt;Node2 -->
<g id="edge1_Node000001_Node000002" class="edge">
<title>Node1&#45;&gt;Node2</title>
<g id="a_edge1_Node000001_Node000002"><a xlink:title=" ">
<path fill="none" stroke="#63b8ff" d="M157.64,-66.97C139.13,-57.88 115.75,-46.39 96.57,-36.97"/>
<polygon fill="#63b8ff" stroke="#63b8ff" points="156.03,-70.08 166.55,-71.35 159.12,-63.8 156.03,-70.08"/>
</a>
</g>
</g>
<!-- Node3 -->
<g id="Node000003" class="node">
<title>Node3</title>
<g id="a_Node000003"><a xlink:href="main_8c.html" target="_top" xlink:title=": Main program body">
<polygon fill="white" stroke="#666666" points="240.25,-29.38 138.75,-29.38 138.75,-7.12 240.25,-7.12 240.25,-29.38"/>
<text xml:space="preserve" text-anchor="middle" x="189.5" y="-13.97" font-family="Helvetica,sans-Serif" font-size="12.00">Core/Src/main.c</text>
</a>
</g>
</g>
<!-- Node1&#45;&gt;Node3 -->
<g id="edge2_Node000001_Node000003" class="edge">
<title>Node1&#45;&gt;Node3</title>
<g id="a_edge2_Node000001_Node000003"><a xlink:title=" ">
<path fill="none" stroke="#63b8ff" d="M189.5,-60.79C189.5,-50.19 189.5,-37.95 189.5,-29.52"/>
<polygon fill="#63b8ff" stroke="#63b8ff" points="186,-60.65 189.5,-70.65 193,-60.65 186,-60.65"/>
</a>
</g>
</g>
<!-- Node4 -->
<g id="Node000004" class="node">
<title>Node4</title>
<g id="a_Node000004"><a xlink:href="opamp_8c.html" target="_top" xlink:title="This file provides code for the configuration of the OPAMP instances.">
<polygon fill="white" stroke="#666666" points="370.5,-29.38 258.5,-29.38 258.5,-7.12 370.5,-7.12 370.5,-29.38"/>
<text xml:space="preserve" text-anchor="middle" x="314.5" y="-13.97" font-family="Helvetica,sans-Serif" font-size="12.00">Core/Src/opamp.c</text>
</a>
</g>
</g>
<!-- Node1&#45;&gt;Node4 -->
<g id="edge3_Node000001_Node000004" class="edge">
<title>Node1&#45;&gt;Node4</title>
<g id="a_edge3_Node000001_Node000004"><a xlink:title=" ">
<path fill="none" stroke="#63b8ff" d="M220.66,-66.83C243.55,-55.22 274.01,-39.78 293.93,-29.68"/>
<polygon fill="#63b8ff" stroke="#63b8ff" points="219.11,-63.69 211.77,-71.33 222.27,-69.93 219.11,-63.69"/>
</a>
</g>
</g>
</g>
</svg>
