<?xml version="1.0" encoding="UTF-8" standalone="no"?>
<!DOCTYPE svg PUBLIC "-//W3C//DTD SVG 1.1//EN"
 "http://www.w3.org/Graphics/SVG/1.1/DTD/svg11.dtd">
<!-- Generated by graphviz version 15.1.0 (20260618.0150)
 -->
<!-- Title: PID_Init Pages: 1 -->
<svg width="438pt" height="50pt"
 viewBox="0.00 0.00 438.00 50.00" xmlns="http://www.w3.org/2000/svg" xmlns:xlink="http://www.w3.org/1999/xlink">
<g id="graph0" class="graph" transform="scale(1 1) rotate(0) translate(4 46.25)">
<title>PID_Init</title>
<!-- Node1 -->
<g id="Node000001" class="node">
<title>Node1</title>
<g id="a_Node000001"><a xlink:title="初始化 PID 控制器">
<polygon fill="#999999" stroke="#666666" points="429.5,-22.25 370.75,-22.25 370.75,0 429.5,0 429.5,-22.25"/>
<text xml:space="preserve" text-anchor="middle" x="400.12" y="-6.85" font-family="Helvetica,sans-Serif" font-size="12.00">PID_Init</text>
</a>
</g>
</g>
<!-- Node2 -->
<g id="Node000002" class="node">
<title>Node2</title>
<g id="a_Node000002"><a xlink:href="foc_8c.html#aebd9eaf8fdc1eec2e646d0ed4a4a3d2c" target="_top" xlink:title="初始化 FOC 电流环">
<polygon fill="white" stroke="#666666" points="334.75,-42.25 270.75,-42.25 270.75,-20 334.75,-20 334.75,-42.25"/>
<text xml:space="preserve" text-anchor="middle" x="302.75" y="-26.85" font-family="Helvetica,sans-Serif" font-size="12.00">FOC_Init</text>
</a>
</g>
</g>
<!-- Node1&#45;&gt;Node2 -->
<g id="edge1_Node000001_Node000002" class="edge">
<title>Node1&#45;&gt;Node2</title>
<g id="a_edge1_Node000001_Node000002"><a xlink:title=" ">
<path fill="none" stroke="#63b8ff" d="M359.21,-19.5C351.19,-21.18 342.87,-22.92 335.18,-24.53"/>
<polygon fill="#63b8ff" stroke="#63b8ff" points="359.7,-22.97 368.77,-17.49 358.26,-16.12 359.7,-22.97"/>
</a>
</g>
</g>
<!-- Node3 -->
<g id="Node000003" class="node">
<title>Node3</title>
<g id="a_Node000003"><a xlink:href="motor__ctrl_8c.html#a6289107a27126667fef8194dc34ad71f" target="_top" xlink:title="初始化电机控制模块">
<polygon fill="white" stroke="#666666" points="234.75,-22.25 177.5,-22.25 177.5,0 234.75,0 234.75,-22.25"/>
<text xml:space="preserve" text-anchor="middle" x="206.12" y="-6.85" font-family="Helvetica,sans-Serif" font-size="12.00">MC_Init</text>
</a>
</g>
</g>
<!-- Node1&#45;&gt;Node3 -->
<g id="edge5_Node000001_Node000003" class="edge">
<title>Node1&#45;&gt;Node3</title>
<g id="a_edge5_Node000001_Node000003"><a xlink:title=" ">
<path fill="none" stroke="#63b8ff" d="M358.99,-11.12C321.9,-11.12 267.75,-11.12 235.13,-11.12"/>
<polygon fill="#63b8ff" stroke="#63b8ff" points="358.87,-14.63 368.87,-11.13 358.87,-7.63 358.87,-14.63"/>
</a>
</g>
</g>
<!-- Node2&#45;&gt;Node3 -->
<g id="edge2_Node000002_Node000003" class="edge">
<title>Node2&#45;&gt;Node3</title>
<g id="a_edge2_Node000002_Node000003"><a xlink:title=" ">
<path fill="none" stroke="#63b8ff" d="M259.49,-22.19C251.24,-20.45 242.79,-18.66 235.15,-17.05"/>
<polygon fill="#63b8ff" stroke="#63b8ff" points="258.52,-25.56 269.02,-24.21 259.96,-18.72 258.52,-25.56"/>
</a>
</g>
</g>
<!-- Node4 -->
<g id="Node000004" class="node">
<title>Node4</title>
<g id="a_Node000004"><a xlink:href="app__main_8c.html#a4759d3fdff6b33e2c0a0ae151452112f" target="_top" xlink:title="应用初始化（main 的 USER CODE BEGIN 2 调用）">
<polygon fill="white" stroke="#666666" points="141.5,-22.25 78.25,-22.25 78.25,0 141.5,0 141.5,-22.25"/>
<text xml:space="preserve" text-anchor="middle" x="109.88" y="-6.85" font-family="Helvetica,sans-Serif" font-size="12.00">APP_Init</text>
</a>
</g>
</g>
<!-- Node3&#45;&gt;Node4 -->
<g id="edge3_Node000003_Node000004" class="edge">
<title>Node3&#45;&gt;Node4</title>
<g id="a_edge3_Node000003_Node000004"><a xlink:title=" ">
<path fill="none" stroke="#63b8ff" d="M165.77,-11.12C157.81,-11.12 149.55,-11.12 141.92,-11.12"/>
<polygon fill="#63b8ff" stroke="#63b8ff" points="165.59,-14.63 175.59,-11.13 165.59,-7.63 165.59,-14.63"/>
</a>
</g>
</g>
<!-- Node5 -->
<g id="Node000005" class="node">
<title>Node5</title>
<g id="a_Node000005"><a xlink:href="main_8c.html#a840291bc02cba5474a4cb46a9b9566fe" target="_top" xlink:title="The application entry point.">
<polygon fill="white" stroke="#666666" points="42.25,-22.25 0,-22.25 0,0 42.25,0 42.25,-22.25"/>
<text xml:space="preserve" text-anchor="middle" x="21.12" y="-6.85" font-family="Helvetica,sans-Serif" font-size="12.00">main</text>
</a>
</g>
</g>
<!-- Node4&#45;&gt;Node5 -->
<g id="edge4_Node000004_Node000005" class="edge">
<title>Node4&#45;&gt;Node5</title>
<g id="a_edge4_Node000004_Node000005"><a xlink:title=" ">
<path fill="none" stroke="#63b8ff" d="M66.72,-11.12C58.3,-11.12 49.82,-11.12 42.54,-11.12"/>
<polygon fill="#63b8ff" stroke="#63b8ff" points="66.53,-14.63 76.53,-11.13 66.53,-7.63 66.53,-14.63"/>
</a>
</g>
</g>
</g>
</svg>
