<?xml version="1.0" encoding="UTF-8" standalone="no"?>
<!DOCTYPE svg PUBLIC "-//W3C//DTD SVG 1.1//EN"
 "http://www.w3.org/Graphics/SVG/1.1/DTD/svg11.dtd">
<!-- Generated by graphviz version 15.1.0 (20260618.0150)
 -->
<!-- Title: Application/control/pid.h Pages: 1 -->
<!--zoomable 262 -->

<svg id="main" version="1.1" xmlns="http://www.w3.org/2000/svg" xmlns:xlink="http://www.w3.org/1999/xlink" xml:space="preserve" onload="init(evt)">

<style type="text/css"><![CDATA[
.node, .edge {opacity: 0.7;}
.node.selected, .edge.selected {opacity: 1;}
.edge:hover path { stroke: red; }
.edge:hover polygon { stroke: red; fill: red; }
]]></style>

<defs>
  <circle id="rim" cx="0" cy="0" r="7"/>
  <circle id="rim2" cx="0" cy="0" r="3.5"/>
  <g id="zoomPlus">
    <use xlink:href="#rim" fill="#404040"><set attributeName="fill" to="#808080" begin="zoomplus.mouseover" end="zoomplus.mouseout"/></use>
    <path d="M-4,0h8M0,-4v8" fill="none" stroke="white" stroke-width="1.5" pointer-events="none"/>
  </g>
  <g id="zoomMin">
    <use xlink:href="#rim" fill="#404040"><set attributeName="fill" to="#808080" begin="zoomminus.mouseover" end="zoomminus.mouseout"/></use>
    <path d="M-4,0h8" fill="none" stroke="white" stroke-width="1.5" pointer-events="none"/>
  </g>
  <g id="arrowUp" transform="translate(30 24)">
    <use xlink:href="#rim"/>
    <path pointer-events="none" fill="none" stroke="white" stroke-width="1.5" d="M0,-3.0v7 M-2.5,-0.5L0,-3.0L2.5,-0.5"/>
  </g>
  <g id="arrowRight" transform="rotate(90) translate(36 -43)">
    <use xlink:href="#rim"/>
    <path pointer-events="none" fill="none" stroke="white" stroke-width="1.5" d="M0,-3.0v7 M-2.5,-0.5L0,-3.0L2.5,-0.5"/>
  </g>
  <g id="arrowDown" transform="rotate(180) translate(-30 -48)">
    <use xlink:href="#rim"/>
    <path pointer-events="none" fill="none" stroke="white" stroke-width="1.5" d="M0,-3.0v7 M-2.5,-0.5L0,-3.0L2.5,-0.5"/>
  </g>
  <g id="arrowLeft" transform="rotate(270) translate(-36 17)">
    <use xlink:href="#rim"/>
    <path pointer-events="none" fill="none" stroke="white" stroke-width="1.5" d="M0,-3.0v7 M-2.5,-0.5L0,-3.0L2.5,-0.5"/>
  </g>
  <g id="resetDef">
    <use xlink:href="#rim2" fill="#404040"><set attributeName="fill" to="#808080" begin="reset.mouseover" end="reset.mouseout"/></use>
  </g>
</defs>
<script type="application/ecmascript">
var viewWidth = 961;
var viewHeight = 262;
var sectionId = 'dynsection-1';
</script>
<script type="application/ecmascript" xlink:href="svg.min.js"/>
<svg id="graph" class="graph">
<g id="viewport">
<title>Application/control/pid.h</title>
<!-- Node1 -->
<g id="Node000001" class="node">
<title>Node1</title>
<g id="a_Node000001"><a xlink:title="位置式抗饱和（clamping anti&#45;windup）PID 控制器模块头文件">
<polygon fill="#999999" stroke="#666666" points="508,-254 393,-254 393,-217.5 508,-217.5 508,-254"/>
<text xml:space="preserve" text-anchor="start" x="401" y="-238.6" font-family="Helvetica,sans-Serif" font-size="12.00">Application/control</text>
<text xml:space="preserve" text-anchor="middle" x="450.5" y="-224.35" font-family="Helvetica,sans-Serif" font-size="12.00">/pid.h</text>
</a>
</g>
</g>
<!-- Node2 -->
<g id="Node000002" class="node">
<title>Node2</title>
<g id="a_Node000002"><a xlink:href="foc_8h.html" target="_top" xlink:title="FOC 电流环模块头文件">
<polygon fill="white" stroke="#666666" points="408,-181.5 293,-181.5 293,-145 408,-145 408,-181.5"/>
<text xml:space="preserve" text-anchor="start" x="301" y="-166.1" font-family="Helvetica,sans-Serif" font-size="12.00">Application/control</text>
<text xml:space="preserve" text-anchor="middle" x="350.5" y="-151.85" font-family="Helvetica,sans-Serif" font-size="12.00">/foc.h</text>
</a>
</g>
</g>
<!-- Node1&#45;&gt;Node2 -->
<g id="edge1_Node000001_Node000002" class="edge">
<title>Node1&#45;&gt;Node2</title>
<g id="a_edge1_Node000001_Node000002"><a xlink:title=" ">
<path fill="none" stroke="#63b8ff" d="M416.16,-210.54C402.81,-201.13 387.8,-190.55 375.5,-181.88"/>
<polygon fill="#63b8ff" stroke="#63b8ff" points="414.1,-213.37 424.29,-216.27 418.13,-207.65 414.1,-213.37"/>
</a>
</g>
</g>
<!-- Node8 -->
<g id="Node000008" class="node">
<title>Node8</title>
<g id="a_Node000008"><a xlink:href="motor__ctrl_8h.html" target="_top" xlink:title="电机控制核心模块头文件（模式状态机 + FOC 主循环）">
<polygon fill="white" stroke="#666666" points="522,-109 407,-109 407,-72.5 522,-72.5 522,-109"/>
<text xml:space="preserve" text-anchor="start" x="415" y="-93.6" font-family="Helvetica,sans-Serif" font-size="12.00">Application/control</text>
<text xml:space="preserve" text-anchor="middle" x="464.5" y="-79.35" font-family="Helvetica,sans-Serif" font-size="12.00">/motor_ctrl.h</text>
</a>
</g>
</g>
<!-- Node1&#45;&gt;Node8 -->
<g id="edge14_Node000001_Node000008" class="edge">
<title>Node1&#45;&gt;Node8</title>
<g id="a_edge14_Node000001_Node000008"><a xlink:title=" ">
<path fill="none" stroke="#63b8ff" d="M453.33,-205.83C456.16,-176.96 460.41,-133.52 462.77,-109.43"/>
<polygon fill="#63b8ff" stroke="#63b8ff" points="449.86,-205.42 452.36,-215.71 456.82,-206.1 449.86,-205.42"/>
</a>
</g>
</g>
<!-- Node13 -->
<g id="Node000013" class="node">
<title>Node13</title>
<g id="a_Node000013"><a xlink:href="pid_8c.html" target="_top" xlink:title="位置式抗饱和 PID 控制器模块">
<polygon fill="white" stroke="#666666" points="594,-181.5 479,-181.5 479,-145 594,-145 594,-181.5"/>
<text xml:space="preserve" text-anchor="start" x="487" y="-166.1" font-family="Helvetica,sans-Serif" font-size="12.00">Application/control</text>
<text xml:space="preserve" text-anchor="middle" x="536.5" y="-151.85" font-family="Helvetica,sans-Serif" font-size="12.00">/pid.c</text>
</a>
</g>
</g>
<!-- Node1&#45;&gt;Node13 -->
<g id="edge15_Node000001_Node000013" class="edge">
<title>Node1&#45;&gt;Node13</title>
<g id="a_edge15_Node000001_Node000013"><a xlink:title=" ">
<path fill="none" stroke="#63b8ff" d="M480.49,-210.17C491.82,-200.88 504.48,-190.5 514.89,-181.97"/>
<polygon fill="#63b8ff" stroke="#63b8ff" points="478.44,-207.32 472.93,-216.36 482.88,-212.73 478.44,-207.32"/>
</a>
</g>
</g>
<!-- Node3 -->
<g id="Node000003" class="node">
<title>Node3</title>
<g id="a_Node000003"><a xlink:href="calibration_8h.html" target="_top" xlink:title="预定位校准模块头文件（编码器方向/极对数/电角度偏置）">
<polygon fill="white" stroke="#666666" points="385,-109 270,-109 270,-72.5 385,-72.5 385,-109"/>
<text xml:space="preserve" text-anchor="start" x="278" y="-93.6" font-family="Helvetica,sans-Serif" font-size="12.00">Application/control</text>
<text xml:space="preserve" text-anchor="middle" x="327.5" y="-79.35" font-family="Helvetica,sans-Serif" font-size="12.00">/calibration.h</text>
</a>
</g>
</g>
<!-- Node2&#45;&gt;Node3 -->
<g id="edge2_Node000002_Node000003" class="edge">
<title>Node2&#45;&gt;Node3</title>
<g id="a_edge2_Node000002_Node000003"><a xlink:title=" ">
<path fill="none" stroke="#63b8ff" d="M341.29,-134.03C338.59,-125.74 335.71,-116.9 333.28,-109.47"/>
<polygon fill="#63b8ff" stroke="#63b8ff" points="337.92,-134.96 344.35,-143.38 344.57,-132.79 337.92,-134.96"/>
</a>
</g>
</g>
<!-- Node7 -->
<g id="Node000007" class="node">
<title>Node7</title>
<g id="a_Node000007"><a xlink:href="foc_8c.html" target="_top" xlink:title="FOC 电流环模块">
<polygon fill="white" stroke="#666666" points="252,-109 137,-109 137,-72.5 252,-72.5 252,-109"/>
<text xml:space="preserve" text-anchor="start" x="145" y="-93.6" font-family="Helvetica,sans-Serif" font-size="12.00">Application/control</text>
<text xml:space="preserve" text-anchor="middle" x="194.5" y="-79.35" font-family="Helvetica,sans-Serif" font-size="12.00">/foc.c</text>
</a>
</g>
</g>
<!-- Node2&#45;&gt;Node7 -->
<g id="edge6_Node000002_Node000007" class="edge">
<title>Node2&#45;&gt;Node7</title>
<g id="a_edge6_Node000002_Node000007"><a xlink:title=" ">
<path fill="none" stroke="#63b8ff" d="M301.13,-139.94C279.3,-130.07 253.99,-118.63 233.51,-109.38"/>
<polygon fill="#63b8ff" stroke="#63b8ff" points="299.6,-143.09 310.16,-144.02 302.49,-136.71 299.6,-143.09"/>
</a>
</g>
</g>
<!-- Node2&#45;&gt;Node8 -->
<g id="edge7_Node000002_Node000008" class="edge">
<title>Node2&#45;&gt;Node8</title>
<g id="a_edge7_Node000002_Node000008"><a xlink:title=" ">
<path fill="none" stroke="#63b8ff" d="M388.33,-138.86C403.87,-129.24 421.57,-118.3 435.99,-109.38"/>
<polygon fill="#63b8ff" stroke="#63b8ff" points="386.92,-135.61 380.26,-143.85 390.61,-141.56 386.92,-135.61"/>
</a>
</g>
</g>
<!-- Node4 -->
<g id="Node000004" class="node">
<title>Node4</title>
<g id="a_Node000004"><a xlink:href="app__monitor_8c.html" target="_top" xlink:title="调试数据打印模块">
<polygon fill="white" stroke="#666666" points="388.75,-36.5 266.25,-36.5 266.25,0 388.75,0 388.75,-36.5"/>
<text xml:space="preserve" text-anchor="start" x="274.25" y="-21.1" font-family="Helvetica,sans-Serif" font-size="12.00">Application/app/app</text>
<text xml:space="preserve" text-anchor="middle" x="327.5" y="-6.85" font-family="Helvetica,sans-Serif" font-size="12.00">_monitor.c</text>
</a>
</g>
</g>
<!-- Node3&#45;&gt;Node4 -->
<g id="edge3_Node000003_Node000004" class="edge">
<title>Node3&#45;&gt;Node4</title>
<g id="a_edge3_Node000003_Node000004"><a xlink:title=" ">
<path fill="none" stroke="#63b8ff" d="M327.5,-60.97C327.5,-52.84 327.5,-44.23 327.5,-36.97"/>
<polygon fill="#63b8ff" stroke="#63b8ff" points="324,-60.81 327.5,-70.81 331,-60.81 324,-60.81"/>
</a>
</g>
</g>
<!-- Node5 -->
<g id="Node000005" class="node">
<title>Node5</title>
<g id="a_Node000005"><a xlink:href="calibration_8c.html" target="_top" xlink:title="预定位校准模块（编码器方向/极对数/电角度偏置）">
<polygon fill="white" stroke="#666666" points="115,-36.5 0,-36.5 0,0 115,0 115,-36.5"/>
<text xml:space="preserve" text-anchor="start" x="8" y="-21.1" font-family="Helvetica,sans-Serif" font-size="12.00">Application/control</text>
<text xml:space="preserve" text-anchor="middle" x="57.5" y="-6.85" font-family="Helvetica,sans-Serif" font-size="12.00">/calibration.c</text>
</a>
</g>
</g>
<!-- Node3&#45;&gt;Node5 -->
<g id="edge4_Node000003_Node000005" class="edge">
<title>Node3&#45;&gt;Node5</title>
<g id="a_edge4_Node000003_Node000005"><a xlink:title=" ">
<path fill="none" stroke="#63b8ff" d="M258.79,-71.82C219.23,-61.49 168.56,-48.27 123.5,-36.5 120.86,-35.81 118.17,-35.11 115.45,-34.4"/>
<polygon fill="#63b8ff" stroke="#63b8ff" points="257.88,-75.2 268.44,-74.34 259.65,-68.43 257.88,-75.2"/>
</a>
</g>
</g>
<!-- Node6 -->
<g id="Node000006" class="node">
<title>Node6</title>
<g id="a_Node000006"><a xlink:href="motor__ctrl_8c.html" target="_top" xlink:title="电机控制核心模块（模式状态机 + 20kHz FOC 主循环）">
<polygon fill="white" stroke="#666666" points="248,-36.5 133,-36.5 133,0 248,0 248,-36.5"/>
<text xml:space="preserve" text-anchor="start" x="141" y="-21.1" font-family="Helvetica,sans-Serif" font-size="12.00">Application/control</text>
<text xml:space="preserve" text-anchor="middle" x="190.5" y="-6.85" font-family="Helvetica,sans-Serif" font-size="12.00">/motor_ctrl.c</text>
</a>
</g>
</g>
<!-- Node3&#45;&gt;Node6 -->
<g id="edge5_Node000003_Node000006" class="edge">
<title>Node3&#45;&gt;Node6</title>
<g id="a_edge5_Node000003_Node000006"><a xlink:title=" ">
<path fill="none" stroke="#63b8ff" d="M283.1,-66.9C264.16,-57.16 242.42,-45.97 224.76,-36.88"/>
<polygon fill="#63b8ff" stroke="#63b8ff" points="281.44,-69.99 291.94,-71.45 284.65,-63.76 281.44,-69.99"/>
</a>
</g>
</g>
<!-- Node8&#45;&gt;Node4 -->
<g id="edge11_Node000008_Node000004" class="edge">
<title>Node8&#45;&gt;Node4</title>
<g id="a_edge11_Node000008_Node000004"><a xlink:title=" ">
<path fill="none" stroke="#63b8ff" d="M420.1,-66.9C401.16,-57.16 379.42,-45.97 361.76,-36.88"/>
<polygon fill="#63b8ff" stroke="#63b8ff" points="418.44,-69.99 428.94,-71.45 421.65,-63.76 418.44,-69.99"/>
</a>
</g>
</g>
<!-- Node8&#45;&gt;Node6 -->
<g id="edge13_Node000008_Node000006" class="edge">
<title>Node8&#45;&gt;Node6</title>
<g id="a_edge13_Node000008_Node000006"><a xlink:title=" ">
<path fill="none" stroke="#63b8ff" d="M395.47,-72C355.22,-61.64 303.49,-48.34 257.5,-36.5 254.48,-35.72 251.37,-34.92 248.24,-34.12"/>
<polygon fill="#63b8ff" stroke="#63b8ff" points="394.48,-75.36 405.04,-74.46 396.22,-68.58 394.48,-75.36"/>
</a>
</g>
</g>
<!-- Node9 -->
<g id="Node000009" class="node">
<title>Node9</title>
<g id="a_Node000009"><a xlink:href="app__can__protocol_8c.html" target="_top" xlink:title="CAN 应用协议（MIT 运控协议 + 配置协议）">
<polygon fill="white" stroke="#666666" points="952.75,-36.5 830.25,-36.5 830.25,0 952.75,0 952.75,-36.5"/>
<text xml:space="preserve" text-anchor="start" x="838.25" y="-21.1" font-family="Helvetica,sans-Serif" font-size="12.00">Application/app/app</text>
<text xml:space="preserve" text-anchor="middle" x="891.5" y="-6.85" font-family="Helvetica,sans-Serif" font-size="12.00">_can_protocol.c</text>
</a>
</g>
</g>
<!-- Node8&#45;&gt;Node9 -->
<g id="edge8_Node000008_Node000009" class="edge">
<title>Node8&#45;&gt;Node9</title>
<g id="a_edge8_Node000008_Node000009"><a xlink:title=" ">
<path fill="none" stroke="#63b8ff" d="M533.59,-81.29C605.55,-72.04 721.39,-55.91 820.5,-36.5 823.61,-35.89 826.79,-35.24 830,-34.55"/>
<polygon fill="#63b8ff" stroke="#63b8ff" points="533.4,-77.78 523.93,-82.52 534.29,-84.73 533.4,-77.78"/>
</a>
</g>
</g>
<!-- Node10 -->
<g id="Node000010" class="node">
<title>Node10</title>
<g id="a_Node000010"><a xlink:href="app__led_8c.html" target="_top" xlink:title="状态灯语模块（单颗 WS2812，亮度全局可调）">
<polygon fill="white" stroke="#666666" points="529.75,-36.5 407.25,-36.5 407.25,0 529.75,0 529.75,-36.5"/>
<text xml:space="preserve" text-anchor="start" x="415.25" y="-21.1" font-family="Helvetica,sans-Serif" font-size="12.00">Application/app/app</text>
<text xml:space="preserve" text-anchor="middle" x="468.5" y="-6.85" font-family="Helvetica,sans-Serif" font-size="12.00">_led.c</text>
</a>
</g>
</g>
<!-- Node8&#45;&gt;Node10 -->
<g id="edge9_Node000008_Node000010" class="edge">
<title>Node8&#45;&gt;Node10</title>
<g id="a_edge9_Node000008_Node000010"><a xlink:title=" ">
<path fill="none" stroke="#63b8ff" d="M466.13,-60.97C466.59,-52.84 467.08,-44.23 467.49,-36.97"/>
<polygon fill="#63b8ff" stroke="#63b8ff" points="462.65,-60.63 465.57,-70.81 469.64,-61.03 462.65,-60.63"/>
</a>
</g>
</g>
<!-- Node11 -->
<g id="Node000011" class="node">
<title>Node11</title>
<g id="a_Node000011"><a xlink:href="app__main_8c.html" target="_top" xlink:title="应用入口模块（前后台调度）">
<polygon fill="white" stroke="#666666" points="670.75,-36.5 548.25,-36.5 548.25,0 670.75,0 670.75,-36.5"/>
<text xml:space="preserve" text-anchor="start" x="556.25" y="-21.1" font-family="Helvetica,sans-Serif" font-size="12.00">Application/app/app</text>
<text xml:space="preserve" text-anchor="middle" x="609.5" y="-6.85" font-family="Helvetica,sans-Serif" font-size="12.00">_main.c</text>
</a>
</g>
</g>
<!-- Node8&#45;&gt;Node11 -->
<g id="edge10_Node000008_Node000011" class="edge">
<title>Node8&#45;&gt;Node11</title>
<g id="a_edge10_Node000008_Node000011"><a xlink:title=" ">
<path fill="none" stroke="#63b8ff" d="M510.94,-67.17C531.11,-57.36 554.38,-46.05 573.24,-36.88"/>
<polygon fill="#63b8ff" stroke="#63b8ff" points="509.54,-63.96 502.08,-71.48 512.6,-70.25 509.54,-63.96"/>
</a>
</g>
</g>
<!-- Node12 -->
<g id="Node000012" class="node">
<title>Node12</title>
<g id="a_Node000012"><a xlink:href="app__shell_8c.html" target="_top" xlink:title="调试 shell 模块（USART3，行式命令）">
<polygon fill="white" stroke="#666666" points="811.75,-36.5 689.25,-36.5 689.25,0 811.75,0 811.75,-36.5"/>
<text xml:space="preserve" text-anchor="start" x="697.25" y="-21.1" font-family="Helvetica,sans-Serif" font-size="12.00">Application/app/app</text>
<text xml:space="preserve" text-anchor="middle" x="750.5" y="-6.85" font-family="Helvetica,sans-Serif" font-size="12.00">_shell.c</text>
</a>
</g>
</g>
<!-- Node8&#45;&gt;Node12 -->
<g id="edge12_Node000008_Node000012" class="edge">
<title>Node8&#45;&gt;Node12</title>
<g id="a_edge12_Node000008_Node000012"><a xlink:title=" ">
<path fill="none" stroke="#63b8ff" d="M533.45,-72.75C580.78,-61.09 643.05,-45.74 688.75,-34.47"/>
<polygon fill="#63b8ff" stroke="#63b8ff" points="532.72,-69.33 523.85,-75.12 534.39,-76.13 532.72,-69.33"/>
</a>
</g>
</g>
</g>
</svg>

<g id="navigator" transform="translate(0 0)" fill="#404254">
  <rect fill="#f2f5e9" fill-opacity="0.5" stroke="#606060" stroke-width=".5" x="0" y="0" width="60" height="60"/>
  <use id="zoomplus" xlink:href="#zoomPlus" x="17" y="9" onmousedown="handleZoom(evt,'in')"/>
  <use id="zoomminus" xlink:href="#zoomMin" x="42" y="9" onmousedown="handleZoom(evt,'out')"/>
  <use id="reset" xlink:href="#resetDef" x="30" y="36" onmousedown="handleReset()"/>
   <use id="arrowup" xlink:href="#arrowUp" x="0" y="0" onmousedown="handlePan(0,-1)"/>
  <use id="arrowright" xlink:href="#arrowRight" x="0" y="0" onmousedown="handlePan(1,0)"/>
  <use id="arrowdown" xlink:href="#arrowDown" x="0" y="0" onmousedown="handlePan(0,1)"/>
  <use id="arrowleft" xlink:href="#arrowLeft" x="0" y="0" onmousedown="handlePan(-1,0)"/>
</g>
<svg viewBox="0 0 15 15" width="100%" height="30px" preserveAspectRatio="xMaxYMin meet">
 <g id="arrow_out" transform="scale(0.3 0.3)">
  <a xlink:href="pid_8h__dep__incl_org.svg" target="_base">
   <rect id="button" ry="5" rx="5" y="6" x="6" height="38" width="38"
        fill="#f2f5e9" fill-opacity="0.5" stroke="#606060" stroke-width="1.0"/>
   <path id="arrow"
     d="M 11.500037,31.436501 C 11.940474,20.09759 22.043105,11.32322 32.158766,21.979434 L 37.068811,17.246167 C 37.068811,17.246167 37.088388,32 37.088388,32 L 22.160133,31.978069 C 22.160133,31.978069 26.997745,27.140456 26.997745,27.140456 C 18.528582,18.264221 13.291696,25.230495 11.500037,31.436501 z"
     style="fill:#404040;"/>
  </a>
 </g>
</svg>

<style type='text/css'>
<![CDATA[
[data-mouse-over-selected='false'] { opacity: 0.7; }
[data-mouse-over-selected='true']  { opacity: 1.0; }
]]>
</style>
<script type="application/ecmascript"><![CDATA[
document.addEventListener('DOMContentLoaded', (event) => {
  highlightEdges();
  highlightAdjacentNodes();
});
]]></script>
</svg>
