<?xml version="1.0" encoding="UTF-8" standalone="no"?>
<!DOCTYPE svg PUBLIC "-//W3C//DTD SVG 1.1//EN"
 "http://www.w3.org/Graphics/SVG/1.1/DTD/svg11.dtd">
<!-- Generated by graphviz version 15.1.0 (20260618.0150)
 -->
<!-- Title: PID_Reset Pages: 1 -->
<svg width="1182pt" height="226pt"
 viewBox="0.00 0.00 1182.00 226.00" xmlns="http://www.w3.org/2000/svg" xmlns:xlink="http://www.w3.org/1999/xlink">
<g id="graph0" class="graph" transform="scale(1 1) rotate(0) translate(4 222.25)">
<title>PID_Reset</title>
<!-- Node1 -->
<g id="Node000001" class="node">
<title>Node1</title>
<g id="a_Node000001"><a xlink:title="复位 PID 内部状态（积分/历史误差/输出）">
<polygon fill="#999999" stroke="#666666" points="1173.75,-119.25 1099.25,-119.25 1099.25,-97 1173.75,-97 1173.75,-119.25"/>
<text xml:space="preserve" text-anchor="middle" x="1136.5" y="-103.85" font-family="Helvetica,sans-Serif" font-size="12.00">PID_Reset</text>
</a>
</g>
</g>
<!-- Node2 -->
<g id="Node000002" class="node">
<title>Node2</title>
<g id="a_Node000002"><a xlink:href="foc_8c.html#aa25cf599086b4ad815ae5ad72dcfdec4" target="_top" xlink:title="复位电流环状态（封波后重新使能前调用，防止积分残留冲击）">
<polygon fill="white" stroke="#666666" points="1063.25,-139.25 983.5,-139.25 983.5,-117 1063.25,-117 1063.25,-139.25"/>
<text xml:space="preserve" text-anchor="middle" x="1023.38" y="-123.85" font-family="Helvetica,sans-Serif" font-size="12.00">FOC_Reset</text>
</a>
</g>
</g>
<!-- Node1&#45;&gt;Node2 -->
<g id="edge1_Node000001_Node000002" class="edge">
<title>Node1&#45;&gt;Node2</title>
<g id="a_edge1_Node000001_Node000002"><a xlink:title=" ">
<path fill="none" stroke="#63b8ff" d="M1087.7,-116.73C1079.7,-118.17 1071.47,-119.65 1063.71,-121.05"/>
<polygon fill="#63b8ff" stroke="#63b8ff" points="1088.09,-120.21 1097.32,-115 1086.85,-113.32 1088.09,-120.21"/>
</a>
</g>
</g>
<!-- Node7 -->
<g id="Node000007" class="node">
<title>Node7</title>
<g id="a_Node000007"><a xlink:href="motor__ctrl_8c.html#aceb46c7be868a0b12dffa105e3d0581e" target="_top" xlink:title="封波（ISR 安全）">
<polygon fill="white" stroke="#666666" points="926.5,-138.25 843.75,-138.25 843.75,-116 926.5,-116 926.5,-138.25"/>
<text xml:space="preserve" text-anchor="middle" x="885.12" y="-122.85" font-family="Helvetica,sans-Serif" font-size="12.00">MC_Disable</text>
</a>
</g>
</g>
<!-- Node1&#45;&gt;Node7 -->
<g id="edge33_Node000001_Node000007" class="edge">
<title>Node1&#45;&gt;Node7</title>
<g id="a_edge33_Node000001_Node000007"><a xlink:title=" ">
<path fill="none" stroke="#63b8ff" d="M1087.45,-105.77C1057.49,-104.88 1018.17,-104.77 983.5,-108.12 964.64,-109.95 944.01,-113.71 926.61,-117.41"/>
<polygon fill="#63b8ff" stroke="#63b8ff" points="1087.23,-109.26 1097.34,-106.1 1087.47,-102.26 1087.23,-109.26"/>
</a>
</g>
</g>
<!-- Node19 -->
<g id="Node000019" class="node">
<title>Node19</title>
<g id="a_Node000019"><a xlink:href="motor__ctrl_8c.html#a8d1ee75d00d8c0f2d2d78f89d002efec" target="_top" xlink:title="使能功率输出">
<polygon fill="white" stroke="#666666" points="925,-178.25 845.25,-178.25 845.25,-156 925,-156 925,-178.25"/>
<text xml:space="preserve" text-anchor="middle" x="885.12" y="-162.85" font-family="Helvetica,sans-Serif" font-size="12.00">MC_Enable</text>
</a>
</g>
</g>
<!-- Node1&#45;&gt;Node19 -->
<g id="edge34_Node000001_Node000019" class="edge">
<title>Node1&#45;&gt;Node19</title>
<g id="a_edge34_Node000001_Node000019"><a xlink:title=" ">
<path fill="none" stroke="#63b8ff" d="M1109.73,-125.7C1096.42,-133.9 1079.59,-142.96 1063.25,-148.12 1017.4,-162.62 961.89,-166.52 925.39,-167.34"/>
<polygon fill="#63b8ff" stroke="#63b8ff" points="1111.33,-128.83 1117.87,-120.5 1107.56,-122.93 1111.33,-128.83"/>
</a>
</g>
</g>
<!-- Node21 -->
<g id="Node000021" class="node">
<title>Node21</title>
<g id="a_Node000021"><a xlink:href="pid_8c.html#a476429033a7322ee2bd627805ca46816" target="_top" xlink:title="初始化 PID 控制器">
<polygon fill="white" stroke="#666666" points="1052.75,-61.25 994,-61.25 994,-39 1052.75,-39 1052.75,-61.25"/>
<text xml:space="preserve" text-anchor="middle" x="1023.38" y="-45.85" font-family="Helvetica,sans-Serif" font-size="12.00">PID_Init</text>
</a>
</g>
</g>
<!-- Node1&#45;&gt;Node21 -->
<g id="edge35_Node000001_Node000021" class="edge">
<title>Node1&#45;&gt;Node21</title>
<g id="a_edge35_Node000001_Node000021"><a xlink:title=" ">
<path fill="none" stroke="#63b8ff" d="M1103.12,-91.23C1084.95,-81.74 1062.75,-70.15 1046.56,-61.7"/>
<polygon fill="#63b8ff" stroke="#63b8ff" points="1101.45,-94.3 1111.94,-95.83 1104.69,-88.1 1101.45,-94.3"/>
</a>
</g>
</g>
<!-- Node3 -->
<g id="Node000003" class="node">
<title>Node3</title>
<g id="a_Node000003"><a xlink:href="foc_8c.html#aebd9eaf8fdc1eec2e646d0ed4a4a3d2c" target="_top" xlink:title="初始化 FOC 电流环">
<polygon fill="white" stroke="#666666" points="917.12,-61.25 853.12,-61.25 853.12,-39 917.12,-39 917.12,-61.25"/>
<text xml:space="preserve" text-anchor="middle" x="885.12" y="-45.85" font-family="Helvetica,sans-Serif" font-size="12.00">FOC_Init</text>
</a>
</g>
</g>
<!-- Node2&#45;&gt;Node3 -->
<g id="edge2_Node000002_Node000003" class="edge">
<title>Node2&#45;&gt;Node3</title>
<g id="a_edge2_Node000002_Node000003"><a xlink:title=" ">
<path fill="none" stroke="#63b8ff" d="M992.51,-111.03C966.36,-96.06 929.09,-74.72 906.31,-61.68"/>
<polygon fill="#63b8ff" stroke="#63b8ff" points="990.54,-113.93 1000.96,-115.86 994.02,-107.86 990.54,-113.93"/>
</a>
</g>
</g>
<!-- Node2&#45;&gt;Node7 -->
<g id="edge6_Node000002_Node000007" class="edge">
<title>Node2&#45;&gt;Node7</title>
<g id="a_edge6_Node000002_Node000007"><a xlink:title=" ">
<path fill="none" stroke="#63b8ff" d="M972.15,-127.76C957.15,-127.65 940.89,-127.53 926.6,-127.42"/>
<polygon fill="#63b8ff" stroke="#63b8ff" points="971.79,-131.25 981.82,-127.83 971.84,-124.25 971.79,-131.25"/>
</a>
</g>
</g>
<!-- Node2&#45;&gt;Node19 -->
<g id="edge26_Node000002_Node000019" class="edge">
<title>Node2&#45;&gt;Node19</title>
<g id="a_edge26_Node000002_Node000019"><a xlink:title=" ">
<path fill="none" stroke="#63b8ff" d="M972.3,-142.46C956.75,-146.91 939.86,-151.75 925.17,-155.95"/>
<polygon fill="#63b8ff" stroke="#63b8ff" points="973.23,-145.83 981.88,-139.72 971.3,-139.1 973.23,-145.83"/>
</a>
</g>
</g>
<!-- Node20 -->
<g id="Node000020" class="node">
<title>Node20</title>
<g id="a_Node000020"><a xlink:href="motor__ctrl_8c.html#afb3414a066c16e68add2218d01f59942" target="_top" xlink:title="启动预定位校准（封波状态下）">
<polygon fill="white" stroke="#666666" points="947.5,-218.25 822.75,-218.25 822.75,-196 947.5,-196 947.5,-218.25"/>
<text xml:space="preserve" text-anchor="middle" x="885.12" y="-202.85" font-family="Helvetica,sans-Serif" font-size="12.00">MC_StartCalibration</text>
</a>
</g>
</g>
<!-- Node2&#45;&gt;Node20 -->
<g id="edge30_Node000002_Node000020" class="edge">
<title>Node2&#45;&gt;Node20</title>
<g id="a_edge30_Node000002_Node000020"><a xlink:title=" ">
<path fill="none" stroke="#63b8ff" d="M1002.5,-147C988.15,-159.78 967.8,-176.26 947.5,-187.12 941.47,-190.35 934.83,-193.17 928.21,-195.6"/>
<polygon fill="#63b8ff" stroke="#63b8ff" points="1004.46,-149.95 1009.49,-140.62 999.74,-144.78 1004.46,-149.95"/>
</a>
</g>
</g>
<!-- Node4 -->
<g id="Node000004" class="node">
<title>Node4</title>
<g id="a_Node000004"><a xlink:href="motor__ctrl_8c.html#a6289107a27126667fef8194dc34ad71f" target="_top" xlink:title="初始化电机控制模块">
<polygon fill="white" stroke="#666666" points="746.25,-22.25 689,-22.25 689,0 746.25,0 746.25,-22.25"/>
<text xml:space="preserve" text-anchor="middle" x="717.62" y="-6.85" font-family="Helvetica,sans-Serif" font-size="12.00">MC_Init</text>
</a>
</g>
</g>
<!-- Node3&#45;&gt;Node4 -->
<g id="edge3_Node000003_Node000004" class="edge">
<title>Node3&#45;&gt;Node4</title>
<g id="a_edge3_Node000003_Node000004"><a xlink:title=" ">
<path fill="none" stroke="#63b8ff" d="M842.03,-40.21C812.1,-33.15 772.72,-23.87 746.58,-17.71"/>
<polygon fill="#63b8ff" stroke="#63b8ff" points="840.99,-43.56 851.52,-42.44 842.59,-36.74 840.99,-43.56"/>
</a>
</g>
</g>
<!-- Node5 -->
<g id="Node000005" class="node">
<title>Node5</title>
<g id="a_Node000005"><a xlink:href="app__main_8c.html#a4759d3fdff6b33e2c0a0ae151452112f" target="_top" xlink:title="应用初始化（main 的 USER CODE BEGIN 2 调用）">
<polygon fill="white" stroke="#666666" points="277.5,-100.25 214.25,-100.25 214.25,-78 277.5,-78 277.5,-100.25"/>
<text xml:space="preserve" text-anchor="middle" x="245.88" y="-84.85" font-family="Helvetica,sans-Serif" font-size="12.00">APP_Init</text>
</a>
</g>
</g>
<!-- Node4&#45;&gt;Node5 -->
<g id="edge4_Node000004_Node000005" class="edge">
<title>Node4&#45;&gt;Node5</title>
<g id="a_edge4_Node000004_Node000005"><a xlink:title=" ">
<path fill="none" stroke="#63b8ff" d="M677.44,-6.63C607.52,-0.01 457.49,7.82 339,-30.12 307.71,-40.15 276.64,-63.57 259.78,-77.7"/>
<polygon fill="#63b8ff" stroke="#63b8ff" points="676.94,-10.1 687.24,-7.61 677.64,-3.13 676.94,-10.1"/>
</a>
</g>
</g>
<!-- Node6 -->
<g id="Node000006" class="node">
<title>Node6</title>
<g id="a_Node000006"><a xlink:href="main_8c.html#a840291bc02cba5474a4cb46a9b9566fe" target="_top" xlink:title="The application entry point.">
<polygon fill="white" stroke="#666666" points="42.25,-138.25 0,-138.25 0,-116 42.25,-116 42.25,-138.25"/>
<text xml:space="preserve" text-anchor="middle" x="21.12" y="-122.85" font-family="Helvetica,sans-Serif" font-size="12.00">main</text>
</a>
</g>
</g>
<!-- Node5&#45;&gt;Node6 -->
<g id="edge5_Node000005_Node000006" class="edge">
<title>Node5&#45;&gt;Node6</title>
<g id="a_edge5_Node000005_Node000006"><a xlink:title=" ">
<path fill="none" stroke="#63b8ff" d="M202.68,-96.32C154.83,-104.49 78.76,-117.46 42.56,-123.64"/>
<polygon fill="#63b8ff" stroke="#63b8ff" points="203.14,-99.8 212.41,-94.66 201.96,-92.89 203.14,-99.8"/>
</a>
</g>
</g>
<!-- Node8 -->
<g id="Node000008" class="node">
<title>Node8</title>
<g id="a_Node000008"><a xlink:href="app__can__protocol_8c.html#a962b5bb63f0dca9cd0efbd25455d6002" target="_top" xlink:title="配置通道处理">
<polygon fill="white" stroke="#666666" points="786.75,-178.25 648.5,-178.25 648.5,-156 786.75,-156 786.75,-178.25"/>
<text xml:space="preserve" text-anchor="middle" x="717.62" y="-162.85" font-family="Helvetica,sans-Serif" font-size="12.00">APP_CAN_HandleCfg</text>
</a>
</g>
</g>
<!-- Node7&#45;&gt;Node8 -->
<g id="edge7_Node000007_Node000008" class="edge">
<title>Node7&#45;&gt;Node8</title>
<g id="a_edge7_Node000007_Node000008"><a xlink:title=" ">
<path fill="none" stroke="#63b8ff" d="M832.63,-139.57C811.56,-144.66 787.33,-150.52 766.63,-155.52"/>
<polygon fill="#63b8ff" stroke="#63b8ff" points="833.27,-143.02 842.17,-137.27 831.63,-136.21 833.27,-143.02"/>
</a>
</g>
</g>
<!-- Node13 -->
<g id="Node000013" class="node">
<title>Node13</title>
<g id="a_Node000013"><a xlink:href="app__can__protocol_8c.html#a287ab0ebbb13b297320ec4082c51365b" target="_top" xlink:title="MIT 运控通道处理">
<polygon fill="white" stroke="#666666" points="785.25,-138.25 650,-138.25 650,-116 785.25,-116 785.25,-138.25"/>
<text xml:space="preserve" text-anchor="middle" x="717.62" y="-122.85" font-family="Helvetica,sans-Serif" font-size="12.00">APP_CAN_HandleMit</text>
</a>
</g>
</g>
<!-- Node7&#45;&gt;Node13 -->
<g id="edge14_Node000007_Node000013" class="edge">
<title>Node7&#45;&gt;Node13</title>
<g id="a_edge14_Node000007_Node000013"><a xlink:title=" ">
<path fill="none" stroke="#63b8ff" d="M832.14,-127.12C817.34,-127.12 801,-127.12 785.45,-127.12"/>
<polygon fill="#63b8ff" stroke="#63b8ff" points="832.13,-130.63 842.13,-127.13 832.13,-123.63 832.13,-130.63"/>
</a>
</g>
</g>
<!-- Node14 -->
<g id="Node000014" class="node">
<title>Node14</title>
<g id="a_Node000014"><a xlink:href="app__shell_8c.html#ad6303a346f63752b165b847c5dcefbb7" target="_top" xlink:title="解析并执行一行命令">
<polygon fill="white" stroke="#666666" points="786,-218.25 649.25,-218.25 649.25,-196 786,-196 786,-218.25"/>
<text xml:space="preserve" text-anchor="middle" x="717.62" y="-202.85" font-family="Helvetica,sans-Serif" font-size="12.00">APP_SHELL_Execute</text>
</a>
</g>
</g>
<!-- Node7&#45;&gt;Node14 -->
<g id="edge16_Node000007_Node000014" class="edge">
<title>Node7&#45;&gt;Node14</title>
<g id="a_edge16_Node000007_Node000014"><a xlink:title=" ">
<path fill="none" stroke="#63b8ff" d="M833.09,-141.39C829.48,-143.11 826,-145.01 822.75,-147.12 802.7,-160.16 806.99,-174.38 786.75,-187.12 781.43,-190.47 775.53,-193.28 769.48,-195.63"/>
<polygon fill="#63b8ff" stroke="#63b8ff" points="834.19,-144.72 842.06,-137.63 831.48,-138.27 834.19,-144.72"/>
</a>
</g>
</g>
<!-- Node16 -->
<g id="Node000016" class="node">
<title>Node16</title>
<g id="a_Node000016"><a xlink:href="motor__ctrl_8c.html#a5c982a7374da291bb0e5d06d26893def" target="_top" xlink:title="FOC 主循环（ADC 注入完成 ISR，20kHz）">
<polygon fill="white" stroke="#666666" points="425.88,-61.25 351.38,-61.25 351.38,-39 425.88,-39 425.88,-61.25"/>
<text xml:space="preserve" text-anchor="middle" x="388.62" y="-45.85" font-family="Helvetica,sans-Serif" font-size="12.00">MC_FocIsr</text>
</a>
</g>
</g>
<!-- Node7&#45;&gt;Node16 -->
<g id="edge19_Node000007_Node000016" class="edge">
<title>Node7&#45;&gt;Node16</title>
<g id="a_edge19_Node000007_Node000016"><a xlink:title=" ">
<path fill="none" stroke="#63b8ff" d="M848.63,-111.25C830.46,-103.74 807.79,-95.31 786.75,-90.12 656.89,-58.14 497.12,-51.65 426.35,-50.39"/>
<polygon fill="#63b8ff" stroke="#63b8ff" points="847.07,-114.39 857.64,-115.06 849.8,-107.94 847.07,-114.39"/>
</a>
</g>
</g>
<!-- Node17 -->
<g id="Node000017" class="node">
<title>Node17</title>
<g id="a_Node000017"><a xlink:href="motor__ctrl_8c.html#a0254f4cdae07bdb4781c9df4b540ffe8" target="_top" xlink:title="触发故障：立即封波并锁存（ISR 安全）">
<polygon fill="white" stroke="#666666" points="587.75,-100.25 499,-100.25 499,-78 587.75,-78 587.75,-100.25"/>
<text xml:space="preserve" text-anchor="middle" x="543.38" y="-84.85" font-family="Helvetica,sans-Serif" font-size="12.00">MC_TripFault</text>
</a>
</g>
</g>
<!-- Node7&#45;&gt;Node17 -->
<g id="edge21_Node000007_Node000017" class="edge">
<title>Node7&#45;&gt;Node17</title>
<g id="a_edge21_Node000007_Node000017"><a xlink:title=" ">
<path fill="none" stroke="#63b8ff" d="M832.62,-115.26C817.87,-112.21 801.73,-109.21 786.75,-107.12 717.58,-97.49 636.55,-92.79 587.9,-90.67"/>
<polygon fill="#63b8ff" stroke="#63b8ff" points="831.59,-118.62 842.1,-117.27 833.04,-111.77 831.59,-118.62"/>
</a>
</g>
</g>
<!-- Node9 -->
<g id="Node000009" class="node">
<title>Node9</title>
<g id="a_Node000009"><a xlink:href="app__can__protocol_8c.html#a0c342291cd7188f387f12f9b2157c4e9" target="_top" xlink:title="CAN 接收分发（ISR 上下文）">
<polygon fill="white" stroke="#666666" points="612.5,-178.25 474.25,-178.25 474.25,-156 612.5,-156 612.5,-178.25"/>
<text xml:space="preserve" text-anchor="middle" x="543.38" y="-162.85" font-family="Helvetica,sans-Serif" font-size="12.00">APP_CAN_RxHandler</text>
</a>
</g>
</g>
<!-- Node8&#45;&gt;Node9 -->
<g id="edge8_Node000008_Node000009" class="edge">
<title>Node8&#45;&gt;Node9</title>
<g id="a_edge8_Node000008_Node000009"><a xlink:title=" ">
<path fill="none" stroke="#63b8ff" d="M636.58,-167.12C628.7,-167.12 620.75,-167.12 612.99,-167.12"/>
<polygon fill="#63b8ff" stroke="#63b8ff" points="636.54,-170.63 646.54,-167.13 636.54,-163.63 636.54,-170.63"/>
</a>
</g>
</g>
<!-- Node10 -->
<g id="Node000010" class="node">
<title>Node10</title>
<g id="a_Node000010"><a xlink:href="app__can__protocol_8c.html#af389bd7cff6ae0b5df76c2feb46f25f6" target="_top" xlink:title="初始化 CAN 应用协议（按持久化参数配置 BSP）">
<polygon fill="white" stroke="#666666" points="436.75,-179.25 340.5,-179.25 340.5,-157 436.75,-157 436.75,-179.25"/>
<text xml:space="preserve" text-anchor="middle" x="388.62" y="-163.85" font-family="Helvetica,sans-Serif" font-size="12.00">APP_CAN_Init</text>
</a>
</g>
</g>
<!-- Node9&#45;&gt;Node10 -->
<g id="edge9_Node000009_Node000010" class="edge">
<title>Node9&#45;&gt;Node10</title>
<g id="a_edge9_Node000009_Node000010"><a xlink:title=" ">
<path fill="none" stroke="#63b8ff" d="M462.82,-167.65C453.96,-167.7 445.16,-167.76 436.89,-167.82"/>
<polygon fill="#63b8ff" stroke="#63b8ff" points="462.55,-171.15 472.53,-167.58 462.51,-164.15 462.55,-171.15"/>
</a>
</g>
</g>
<!-- Node10&#45;&gt;Node5 -->
<g id="edge13_Node000010_Node000005" class="edge">
<title>Node10&#45;&gt;Node5</title>
<g id="a_edge13_Node000010_Node000005"><a xlink:title=" ">
<path fill="none" stroke="#63b8ff" d="M346.8,-151.97C344.14,-150.72 341.52,-149.43 339,-148.12 311.2,-133.66 280.97,-113.33 262.98,-100.71"/>
<polygon fill="#63b8ff" stroke="#63b8ff" points="345.21,-155.09 355.77,-155.96 348.06,-148.7 345.21,-155.09"/>
</a>
</g>
</g>
<!-- Node11 -->
<g id="Node000011" class="node">
<title>Node11</title>
<g id="a_Node000011"><a xlink:href="app__can__protocol_8c.html#a6c2f3bebbd2597376fd87038ef059996" target="_top" xlink:title="后台轮询：处理通信参数变更后的重新初始化">
<polygon fill="white" stroke="#666666" points="296.62,-178.25 195.12,-178.25 195.12,-156 296.62,-156 296.62,-178.25"/>
<text xml:space="preserve" text-anchor="middle" x="245.88" y="-162.85" font-family="Helvetica,sans-Serif" font-size="12.00">APP_CAN_Poll</text>
</a>
</g>
</g>
<!-- Node10&#45;&gt;Node11 -->
<g id="edge10_Node000010_Node000011" class="edge">
<title>Node10&#45;&gt;Node11</title>
<g id="a_edge10_Node000010_Node000011"><a xlink:title=" ">
<path fill="none" stroke="#63b8ff" d="M328.92,-167.71C318.19,-167.63 307.1,-167.55 296.66,-167.48"/>
<polygon fill="#63b8ff" stroke="#63b8ff" points="328.83,-171.21 338.85,-167.78 328.88,-164.21 328.83,-171.21"/>
</a>
</g>
</g>
<!-- Node12 -->
<g id="Node000012" class="node">
<title>Node12</title>
<g id="a_Node000012"><a xlink:href="app__main_8c.html#a6709d26bb67f905916b7c7f048b8396c" target="_top" xlink:title="后台超级循环体（main 的 while(1) 内调用）">
<polygon fill="white" stroke="#666666" points="152.75,-168.25 78.25,-168.25 78.25,-146 152.75,-146 152.75,-168.25"/>
<text xml:space="preserve" text-anchor="middle" x="115.5" y="-152.85" font-family="Helvetica,sans-Serif" font-size="12.00">APP_Loop</text>
</a>
</g>
</g>
<!-- Node11&#45;&gt;Node12 -->
<g id="edge11_Node000011_Node000012" class="edge">
<title>Node11&#45;&gt;Node12</title>
<g id="a_edge11_Node000011_Node000012"><a xlink:title=" ">
<path fill="none" stroke="#63b8ff" d="M183.62,-162.35C173.16,-161.54 162.6,-160.72 153.05,-159.97"/>
<polygon fill="#63b8ff" stroke="#63b8ff" points="183.12,-165.83 193.37,-163.11 183.67,-158.85 183.12,-165.83"/>
</a>
</g>
</g>
<!-- Node12&#45;&gt;Node6 -->
<g id="edge12_Node000012_Node000006" class="edge">
<title>Node12&#45;&gt;Node6</title>
<g id="a_edge12_Node000012_Node000006"><a xlink:title=" ">
<path fill="none" stroke="#63b8ff" d="M67.96,-142.01C59.02,-139.11 50.09,-136.21 42.53,-133.75"/>
<polygon fill="#63b8ff" stroke="#63b8ff" points="66.75,-145.3 77.35,-145.06 68.92,-138.64 66.75,-145.3"/>
</a>
</g>
</g>
<!-- Node13&#45;&gt;Node9 -->
<g id="edge15_Node000013_Node000009" class="edge">
<title>Node13&#45;&gt;Node9</title>
<g id="a_edge15_Node000013_Node000009"><a xlink:title=" ">
<path fill="none" stroke="#63b8ff" d="M655.87,-141.23C635.75,-145.91 613.6,-151.05 594.38,-155.51"/>
<polygon fill="#63b8ff" stroke="#63b8ff" points="656.38,-144.71 665.33,-139.04 654.8,-137.89 656.38,-144.71"/>
</a>
</g>
</g>
<!-- Node15 -->
<g id="Node000015" class="node">
<title>Node15</title>
<g id="a_Node000015"><a xlink:href="app__shell_8c.html#ab93a15148be82ad3c0999b099de7c29e" target="_top" xlink:title="shell 轮询（后台调用）">
<polygon fill="white" stroke="#666666" points="303,-218.25 188.75,-218.25 188.75,-196 303,-196 303,-218.25"/>
<text xml:space="preserve" text-anchor="middle" x="245.88" y="-202.85" font-family="Helvetica,sans-Serif" font-size="12.00">APP_SHELL_Poll</text>
</a>
</g>
</g>
<!-- Node14&#45;&gt;Node15 -->
<g id="edge17_Node000014_Node000015" class="edge">
<title>Node14&#45;&gt;Node15</title>
<g id="a_edge17_Node000014_Node000015"><a xlink:title=" ">
<path fill="none" stroke="#63b8ff" d="M637.59,-207.12C542.87,-207.12 386.55,-207.12 303.25,-207.12"/>
<polygon fill="#63b8ff" stroke="#63b8ff" points="637.31,-210.63 647.31,-207.13 637.31,-203.63 637.31,-210.63"/>
</a>
</g>
</g>
<!-- Node15&#45;&gt;Node12 -->
<g id="edge18_Node000015_Node000012" class="edge">
<title>Node15&#45;&gt;Node12</title>
<g id="a_edge18_Node000015_Node000012"><a xlink:title=" ">
<path fill="none" stroke="#63b8ff" d="M200.79,-191.66C196.71,-190.15 192.65,-188.63 188.75,-187.12 173.67,-181.31 157,-174.42 143.47,-168.71"/>
<polygon fill="#63b8ff" stroke="#63b8ff" points="199.52,-194.92 210.11,-195.04 201.91,-188.34 199.52,-194.92"/>
</a>
</g>
</g>
<!-- Node16&#45;&gt;Node5 -->
<g id="edge20_Node000016_Node000005" class="edge">
<title>Node16&#45;&gt;Node5</title>
<g id="a_edge20_Node000016_Node000005"><a xlink:title=" ">
<path fill="none" stroke="#63b8ff" d="M339.92,-63.34C319.32,-69.05 295.82,-75.56 277.59,-80.61"/>
<polygon fill="#63b8ff" stroke="#63b8ff" points="340.85,-66.72 349.55,-60.67 338.98,-59.97 340.85,-66.72"/>
</a>
</g>
</g>
<!-- Node17&#45;&gt;Node5 -->
<g id="edge22_Node000017_Node000005" class="edge">
<title>Node17&#45;&gt;Node5</title>
<g id="a_edge22_Node000017_Node000005"><a xlink:title=" ">
<path fill="none" stroke="#63b8ff" d="M487.31,-89.12C425.58,-89.12 327.65,-89.12 277.97,-89.12"/>
<polygon fill="#63b8ff" stroke="#63b8ff" points="487.26,-92.63 497.26,-89.13 487.26,-85.63 487.26,-92.63"/>
</a>
</g>
</g>
<!-- Node17&#45;&gt;Node16 -->
<g id="edge25_Node000017_Node000016" class="edge">
<title>Node17&#45;&gt;Node16</title>
<g id="a_edge25_Node000017_Node000016"><a xlink:title=" ">
<path fill="none" stroke="#63b8ff" d="M487.55,-75.13C467.16,-69.92 444.54,-64.15 426.18,-59.46"/>
<polygon fill="#63b8ff" stroke="#63b8ff" points="486.58,-78.49 497.14,-77.57 488.31,-71.71 486.58,-78.49"/>
</a>
</g>
</g>
<!-- Node18 -->
<g id="Node000018" class="node">
<title>Node18</title>
<g id="a_Node000018"><a xlink:href="app__main_8c.html#a9d7a99f268e16f853238569586d275aa" target="_top" xlink:title="慢任务：温度采样/过温保护/CAN 指令超时">
<polygon fill="white" stroke="#666666" points="438.25,-139.25 339,-139.25 339,-117 438.25,-117 438.25,-139.25"/>
<text xml:space="preserve" text-anchor="middle" x="388.62" y="-123.85" font-family="Helvetica,sans-Serif" font-size="12.00">APP_SlowTask</text>
</a>
</g>
</g>
<!-- Node17&#45;&gt;Node18 -->
<g id="edge23_Node000017_Node000018" class="edge">
<title>Node17&#45;&gt;Node18</title>
<g id="a_edge23_Node000017_Node000018"><a xlink:title=" ">
<path fill="none" stroke="#63b8ff" d="M487.55,-103.12C470.32,-107.52 451.5,-112.33 435,-116.54"/>
<polygon fill="#63b8ff" stroke="#63b8ff" points="488.31,-106.54 497.14,-100.68 486.58,-99.76 488.31,-106.54"/>
</a>
</g>
</g>
<!-- Node18&#45;&gt;Node12 -->
<g id="edge24_Node000018_Node000012" class="edge">
<title>Node18&#45;&gt;Node12</title>
<g id="a_edge24_Node000018_Node000012"><a xlink:title=" ">
<path fill="none" stroke="#63b8ff" d="M327.25,-133.23C287.79,-136.72 235.15,-141.7 188.75,-147.12 177.18,-148.48 164.59,-150.15 153.22,-151.74"/>
<polygon fill="#63b8ff" stroke="#63b8ff" points="327.36,-136.73 337.02,-132.37 326.75,-129.76 327.36,-136.73"/>
</a>
</g>
</g>
<!-- Node19&#45;&gt;Node8 -->
<g id="edge27_Node000019_Node000008" class="edge">
<title>Node19&#45;&gt;Node8</title>
<g id="a_edge27_Node000019_Node000008"><a xlink:title=" ">
<path fill="none" stroke="#63b8ff" d="M833.53,-167.12C818.86,-167.12 802.59,-167.12 787.02,-167.12"/>
<polygon fill="#63b8ff" stroke="#63b8ff" points="833.39,-170.63 843.39,-167.13 833.39,-163.63 833.39,-170.63"/>
</a>
</g>
</g>
<!-- Node19&#45;&gt;Node13 -->
<g id="edge28_Node000019_Node000013" class="edge">
<title>Node19&#45;&gt;Node13</title>
<g id="a_edge28_Node000019_Node000013"><a xlink:title=" ">
<path fill="none" stroke="#63b8ff" d="M833.74,-154.95C812.35,-149.78 787.53,-143.78 766.42,-138.68"/>
<polygon fill="#63b8ff" stroke="#63b8ff" points="832.89,-158.34 843.43,-157.29 834.53,-151.54 832.89,-158.34"/>
</a>
</g>
</g>
<!-- Node19&#45;&gt;Node14 -->
<g id="edge29_Node000019_Node000014" class="edge">
<title>Node19&#45;&gt;Node14</title>
<g id="a_edge29_Node000019_Node000014"><a xlink:title=" ">
<path fill="none" stroke="#63b8ff" d="M833.74,-179.3C812.35,-184.47 787.53,-190.47 766.42,-195.57"/>
<polygon fill="#63b8ff" stroke="#63b8ff" points="834.53,-182.71 843.43,-176.96 832.89,-175.91 834.53,-182.71"/>
</a>
</g>
</g>
<!-- Node20&#45;&gt;Node8 -->
<g id="edge31_Node000020_Node000008" class="edge">
<title>Node20&#45;&gt;Node8</title>
<g id="a_edge31_Node000020_Node000008"><a xlink:title=" ">
<path fill="none" stroke="#63b8ff" d="M825.21,-192.89C806.02,-188.25 784.97,-183.16 766.67,-178.74"/>
<polygon fill="#63b8ff" stroke="#63b8ff" points="824.24,-196.25 834.78,-195.2 825.89,-189.45 824.24,-196.25"/>
</a>
</g>
</g>
<!-- Node20&#45;&gt;Node14 -->
<g id="edge32_Node000020_Node000014" class="edge">
<title>Node20&#45;&gt;Node14</title>
<g id="a_edge32_Node000020_Node000014"><a xlink:title=" ">
<path fill="none" stroke="#63b8ff" d="M811.04,-207.12C802.85,-207.12 794.54,-207.12 786.42,-207.12"/>
<polygon fill="#63b8ff" stroke="#63b8ff" points="810.99,-210.63 820.99,-207.13 810.99,-203.63 810.99,-210.63"/>
</a>
</g>
</g>
<!-- Node21&#45;&gt;Node3 -->
<g id="edge36_Node000021_Node000003" class="edge">
<title>Node21&#45;&gt;Node3</title>
<g id="a_edge36_Node000021_Node000003"><a xlink:title=" ">
<path fill="none" stroke="#63b8ff" d="M982.49,-50.12C961.77,-50.12 936.82,-50.12 917.5,-50.12"/>
<polygon fill="#63b8ff" stroke="#63b8ff" points="982.3,-53.63 992.3,-50.13 982.3,-46.63 982.3,-53.63"/>
</a>
</g>
</g>
<!-- Node21&#45;&gt;Node4 -->
<g id="edge37_Node000021_Node000004" class="edge">
<title>Node21&#45;&gt;Node4</title>
<g id="a_edge37_Node000021_Node000004"><a xlink:title=" ">
<path fill="none" stroke="#63b8ff" d="M982.94,-38.18C971.59,-35.13 959.13,-32.14 947.5,-30.12 875.81,-17.68 790.01,-13.32 746.66,-11.85"/>
<polygon fill="#63b8ff" stroke="#63b8ff" points="981.81,-41.5 992.38,-40.81 983.69,-34.76 981.81,-41.5"/>
</a>
</g>
</g>
</g>
</svg>
