<?xml version="1.0" encoding="UTF-8" standalone="no"?>
<!DOCTYPE svg PUBLIC "-//W3C//DTD SVG 1.1//EN"
 "http://www.w3.org/Graphics/SVG/1.1/DTD/svg11.dtd">
<!-- Generated by graphviz version 15.1.0 (20260618.0150)
 -->
<!-- Title: PROT_GetDerating Pages: 1 -->
<svg width="817pt" height="70pt"
 viewBox="0.00 0.00 817.00 70.00" xmlns="http://www.w3.org/2000/svg" xmlns:xlink="http://www.w3.org/1999/xlink">
<g id="graph0" class="graph" transform="scale(1 1) rotate(0) translate(4 66.25)">
<title>PROT_GetDerating</title>
<!-- Node1 -->
<g id="Node000001" class="node">
<title>Node1</title>
<g id="a_Node000001"><a xlink:title="读取温度降额系数（乘到电流限幅上；0 表示已达过温故障）">
<polygon fill="#999999" stroke="#666666" points="809.25,-42.25 688.25,-42.25 688.25,-20 809.25,-20 809.25,-42.25"/>
<text xml:space="preserve" text-anchor="middle" x="748.75" y="-26.85" font-family="Helvetica,sans-Serif" font-size="12.00">PROT_GetDerating</text>
</a>
</g>
</g>
<!-- Node2 -->
<g id="Node000002" class="node">
<title>Node2</title>
<g id="a_Node000002"><a xlink:href="app__monitor_8c.html#a9bb383e6ceed1252d51dd3ebbc075668" target="_top" xlink:title="打印完整状态快照（shell &quot;status&quot;）">
<polygon fill="white" stroke="#666666" points="652.25,-62.25 511.75,-62.25 511.75,-40 652.25,-40 652.25,-62.25"/>
<text xml:space="preserve" text-anchor="middle" x="582" y="-46.85" font-family="Helvetica,sans-Serif" font-size="12.00">APP_MON_PrintStatus</text>
</a>
</g>
</g>
<!-- Node1&#45;&gt;Node2 -->
<g id="edge1_Node000001_Node000002" class="edge">
<title>Node1&#45;&gt;Node2</title>
<g id="a_edge1_Node000001_Node000002"><a xlink:title=" ">
<path fill="none" stroke="#63b8ff" d="M676.41,-39.79C668.54,-40.74 660.53,-41.71 652.69,-42.67"/>
<polygon fill="#63b8ff" stroke="#63b8ff" points="676.8,-43.26 686.3,-38.58 675.95,-36.32 676.8,-43.26"/>
</a>
</g>
</g>
<!-- Node7 -->
<g id="Node000007" class="node">
<title>Node7</title>
<g id="a_Node000007"><a xlink:href="motor__ctrl_8c.html#a9dd4aa02cb15dd5ea27aa8085155adb7" target="_top" xlink:title="慢环（1kHz）：电流限幅刷新与速度/位置外环">
<polygon fill="white" stroke="#666666" points="629.75,-22.25 534.25,-22.25 534.25,0 629.75,0 629.75,-22.25"/>
<text xml:space="preserve" text-anchor="middle" x="582" y="-6.85" font-family="Helvetica,sans-Serif" font-size="12.00">MC_SlowLoop</text>
</a>
</g>
</g>
<!-- Node1&#45;&gt;Node7 -->
<g id="edge6_Node000001_Node000007" class="edge">
<title>Node1&#45;&gt;Node7</title>
<g id="a_edge6_Node000001_Node000007"><a xlink:title=" ">
<path fill="none" stroke="#63b8ff" d="M676.48,-22.47C660.75,-20.56 644.47,-18.59 629.99,-16.83"/>
<polygon fill="#63b8ff" stroke="#63b8ff" points="675.95,-25.93 686.3,-23.67 676.8,-18.99 675.95,-25.93"/>
</a>
</g>
</g>
<!-- Node3 -->
<g id="Node000003" class="node">
<title>Node3</title>
<g id="a_Node000003"><a xlink:href="app__shell_8c.html#ad6303a346f63752b165b847c5dcefbb7" target="_top" xlink:title="解析并执行一行命令">
<polygon fill="white" stroke="#666666" points="475.75,-62.25 339,-62.25 339,-40 475.75,-40 475.75,-62.25"/>
<text xml:space="preserve" text-anchor="middle" x="407.38" y="-46.85" font-family="Helvetica,sans-Serif" font-size="12.00">APP_SHELL_Execute</text>
</a>
</g>
</g>
<!-- Node2&#45;&gt;Node3 -->
<g id="edge2_Node000002_Node000003" class="edge">
<title>Node2&#45;&gt;Node3</title>
<g id="a_edge2_Node000002_Node000003"><a xlink:title=" ">
<path fill="none" stroke="#63b8ff" d="M500.04,-51.12C492.03,-51.12 483.96,-51.12 476.11,-51.12"/>
<polygon fill="#63b8ff" stroke="#63b8ff" points="499.77,-54.63 509.77,-51.13 499.77,-47.63 499.77,-54.63"/>
</a>
</g>
</g>
<!-- Node4 -->
<g id="Node000004" class="node">
<title>Node4</title>
<g id="a_Node000004"><a xlink:href="app__shell_8c.html#ab93a15148be82ad3c0999b099de7c29e" target="_top" xlink:title="shell 轮询（后台调用）">
<polygon fill="white" stroke="#666666" points="303,-62.25 188.75,-62.25 188.75,-40 303,-40 303,-62.25"/>
<text xml:space="preserve" text-anchor="middle" x="245.88" y="-46.85" font-family="Helvetica,sans-Serif" font-size="12.00">APP_SHELL_Poll</text>
</a>
</g>
</g>
<!-- Node3&#45;&gt;Node4 -->
<g id="edge3_Node000003_Node000004" class="edge">
<title>Node3&#45;&gt;Node4</title>
<g id="a_edge3_Node000003_Node000004"><a xlink:title=" ">
<path fill="none" stroke="#63b8ff" d="M327.23,-51.12C319.07,-51.12 310.9,-51.12 303.06,-51.12"/>
<polygon fill="#63b8ff" stroke="#63b8ff" points="327.22,-54.63 337.22,-51.13 327.22,-47.63 327.22,-54.63"/>
</a>
</g>
</g>
<!-- Node5 -->
<g id="Node000005" class="node">
<title>Node5</title>
<g id="a_Node000005"><a xlink:href="app__main_8c.html#a6709d26bb67f905916b7c7f048b8396c" target="_top" xlink:title="后台超级循环体（main 的 while(1) 内调用）">
<polygon fill="white" stroke="#666666" points="152.75,-62.25 78.25,-62.25 78.25,-40 152.75,-40 152.75,-62.25"/>
<text xml:space="preserve" text-anchor="middle" x="115.5" y="-46.85" font-family="Helvetica,sans-Serif" font-size="12.00">APP_Loop</text>
</a>
</g>
</g>
<!-- Node4&#45;&gt;Node5 -->
<g id="edge4_Node000004_Node000005" class="edge">
<title>Node4&#45;&gt;Node5</title>
<g id="a_edge4_Node000004_Node000005"><a xlink:title=" ">
<path fill="none" stroke="#63b8ff" d="M177.27,-51.12C168.98,-51.12 160.77,-51.12 153.18,-51.12"/>
<polygon fill="#63b8ff" stroke="#63b8ff" points="177.05,-54.63 187.05,-51.13 177.05,-47.63 177.05,-54.63"/>
</a>
</g>
</g>
<!-- Node6 -->
<g id="Node000006" class="node">
<title>Node6</title>
<g id="a_Node000006"><a xlink:href="main_8c.html#a840291bc02cba5474a4cb46a9b9566fe" target="_top" xlink:title="The application entry point.">
<polygon fill="white" stroke="#666666" points="42.25,-42.25 0,-42.25 0,-20 42.25,-20 42.25,-42.25"/>
<text xml:space="preserve" text-anchor="middle" x="21.12" y="-26.85" font-family="Helvetica,sans-Serif" font-size="12.00">main</text>
</a>
</g>
</g>
<!-- Node5&#45;&gt;Node6 -->
<g id="edge5_Node000005_Node000006" class="edge">
<title>Node5&#45;&gt;Node6</title>
<g id="a_edge5_Node000005_Node000006"><a xlink:title=" ">
<path fill="none" stroke="#63b8ff" d="M66.86,-40.81C58.35,-38.97 49.91,-37.14 42.69,-35.58"/>
<polygon fill="#63b8ff" stroke="#63b8ff" points="66,-44.2 76.51,-42.9 67.48,-37.36 66,-44.2"/>
</a>
</g>
</g>
<!-- Node8 -->
<g id="Node000008" class="node">
<title>Node8</title>
<g id="a_Node000008"><a xlink:href="motor__ctrl_8c.html#a5c982a7374da291bb0e5d06d26893def" target="_top" xlink:title="FOC 主循环（ADC 注入完成 ISR，20kHz）">
<polygon fill="white" stroke="#666666" points="444.62,-22.25 370.12,-22.25 370.12,0 444.62,0 444.62,-22.25"/>
<text xml:space="preserve" text-anchor="middle" x="407.38" y="-6.85" font-family="Helvetica,sans-Serif" font-size="12.00">MC_FocIsr</text>
</a>
</g>
</g>
<!-- Node7&#45;&gt;Node8 -->
<g id="edge7_Node000007_Node000008" class="edge">
<title>Node7&#45;&gt;Node8</title>
<g id="a_edge7_Node000007_Node000008"><a xlink:title=" ">
<path fill="none" stroke="#63b8ff" d="M522.36,-11.12C496.77,-11.12 467.54,-11.12 445.09,-11.12"/>
<polygon fill="#63b8ff" stroke="#63b8ff" points="522.32,-14.63 532.32,-11.13 522.32,-7.63 522.32,-14.63"/>
</a>
</g>
</g>
<!-- Node9 -->
<g id="Node000009" class="node">
<title>Node9</title>
<g id="a_Node000009"><a xlink:href="app__main_8c.html#a4759d3fdff6b33e2c0a0ae151452112f" target="_top" xlink:title="应用初始化（main 的 USER CODE BEGIN 2 调用）">
<polygon fill="white" stroke="#666666" points="147.12,-22.25 83.88,-22.25 83.88,0 147.12,0 147.12,-22.25"/>
<text xml:space="preserve" text-anchor="middle" x="115.5" y="-6.85" font-family="Helvetica,sans-Serif" font-size="12.00">APP_Init</text>
</a>
</g>
</g>
<!-- Node8&#45;&gt;Node9 -->
<g id="edge8_Node000008_Node000009" class="edge">
<title>Node8&#45;&gt;Node9</title>
<g id="a_edge8_Node000008_Node000009"><a xlink:title=" ">
<path fill="none" stroke="#63b8ff" d="M358.27,-11.12C298.48,-11.12 198.16,-11.12 147.61,-11.12"/>
<polygon fill="#63b8ff" stroke="#63b8ff" points="358.15,-14.63 368.15,-11.13 358.15,-7.63 358.15,-14.63"/>
</a>
</g>
</g>
<!-- Node9&#45;&gt;Node6 -->
<g id="edge9_Node000009_Node000006" class="edge">
<title>Node9&#45;&gt;Node6</title>
<g id="a_edge9_Node000009_Node000006"><a xlink:title=" ">
<path fill="none" stroke="#63b8ff" d="M72.48,-20.22C62.15,-22.46 51.54,-24.76 42.74,-26.66"/>
<polygon fill="#63b8ff" stroke="#63b8ff" points="72.97,-23.7 82,-18.16 71.49,-16.86 72.97,-23.7"/>
</a>
</g>
</g>
</g>
</svg>
