<?xml version="1.0" encoding="UTF-8" standalone="no"?>
<!DOCTYPE svg PUBLIC "-//W3C//DTD SVG 1.1//EN"
 "http://www.w3.org/Graphics/SVG/1.1/DTD/svg11.dtd">
<!-- Generated by graphviz version 15.1.0 (20260618.0150)
 -->
<!-- Title: PROT_GetDerating Pages: 1 -->
<!--zoomable 70 -->

<svg id="main" version="1.1" xmlns="http://www.w3.org/2000/svg" xmlns:xlink="http://www.w3.org/1999/xlink" xml:space="preserve" onload="init(evt)">

<style type="text/css"><![CDATA[
.node, .edge {opacity: 0.7;}
.node.selected, .edge.selected {opacity: 1;}
.edge:hover path { stroke: red; }
.edge:hover polygon { stroke: red; fill: red; }
]]></style>

<defs>
  <circle id="rim" cx="0" cy="0" r="7"/>
  <circle id="rim2" cx="0" cy="0" r="3.5"/>
  <g id="zoomPlus">
    <use xlink:href="#rim" fill="#404040"><set attributeName="fill" to="#808080" begin="zoomplus.mouseover" end="zoomplus.mouseout"/></use>
    <path d="M-4,0h8M0,-4v8" fill="none" stroke="white" stroke-width="1.5" pointer-events="none"/>
  </g>
  <g id="zoomMin">
    <use xlink:href="#rim" fill="#404040"><set attributeName="fill" to="#808080" begin="zoomminus.mouseover" end="zoomminus.mouseout"/></use>
    <path d="M-4,0h8" fill="none" stroke="white" stroke-width="1.5" pointer-events="none"/>
  </g>
  <g id="arrowUp" transform="translate(30 24)">
    <use xlink:href="#rim"/>
    <path pointer-events="none" fill="none" stroke="white" stroke-width="1.5" d="M0,-3.0v7 M-2.5,-0.5L0,-3.0L2.5,-0.5"/>
  </g>
  <g id="arrowRight" transform="rotate(90) translate(36 -43)">
    <use xlink:href="#rim"/>
    <path pointer-events="none" fill="none" stroke="white" stroke-width="1.5" d="M0,-3.0v7 M-2.5,-0.5L0,-3.0L2.5,-0.5"/>
  </g>
  <g id="arrowDown" transform="rotate(180) translate(-30 -48)">
    <use xlink:href="#rim"/>
    <path pointer-events="none" fill="none" stroke="white" stroke-width="1.5" d="M0,-3.0v7 M-2.5,-0.5L0,-3.0L2.5,-0.5"/>
  </g>
  <g id="arrowLeft" transform="rotate(270) translate(-36 17)">
    <use xlink:href="#rim"/>
    <path pointer-events="none" fill="none" stroke="white" stroke-width="1.5" d="M0,-3.0v7 M-2.5,-0.5L0,-3.0L2.5,-0.5"/>
  </g>
  <g id="resetDef">
    <use xlink:href="#rim2" fill="#404040"><set attributeName="fill" to="#808080" begin="reset.mouseover" end="reset.mouseout"/></use>
  </g>
</defs>
<script type="application/ecmascript">
var viewWidth = 817;
var viewHeight = 70;
var sectionId = 'dynsection-7';
</script>
<script type="application/ecmascript" xlink:href="svg.min.js"/>
<svg id="graph" class="graph">
<g id="viewport">
<title>PROT_GetDerating</title>
<!-- Node1 -->
<g id="Node000001" class="node">
<title>Node1</title>
<g id="a_Node000001"><a xlink:title="读取温度降额系数（乘到电流限幅上；0 表示已达过温故障）">
<polygon fill="#999999" stroke="#666666" points="809.25,-42.25 688.25,-42.25 688.25,-20 809.25,-20 809.25,-42.25"/>
<text xml:space="preserve" text-anchor="middle" x="748.75" y="-26.85" font-family="Helvetica,sans-Serif" font-size="12.00">PROT_GetDerating</text>
</a>
</g>
</g>
<!-- Node2 -->
<g id="Node000002" class="node">
<title>Node2</title>
<g id="a_Node000002"><a xlink:href="app__monitor_8c.html#a9bb383e6ceed1252d51dd3ebbc075668" target="_top" xlink:title="打印完整状态快照（shell &quot;status&quot;）">
<polygon fill="white" stroke="#666666" points="652.25,-62.25 511.75,-62.25 511.75,-40 652.25,-40 652.25,-62.25"/>
<text xml:space="preserve" text-anchor="middle" x="582" y="-46.85" font-family="Helvetica,sans-Serif" font-size="12.00">APP_MON_PrintStatus</text>
</a>
</g>
</g>
<!-- Node1&#45;&gt;Node2 -->
<g id="edge1_Node000001_Node000002" class="edge">
<title>Node1&#45;&gt;Node2</title>
<g id="a_edge1_Node000001_Node000002"><a xlink:title=" ">
<path fill="none" stroke="#63b8ff" d="M676.41,-39.79C668.54,-40.74 660.53,-41.71 652.69,-42.67"/>
<polygon fill="#63b8ff" stroke="#63b8ff" points="676.8,-43.26 686.3,-38.58 675.95,-36.32 676.8,-43.26"/>
</a>
</g>
</g>
<!-- Node7 -->
<g id="Node000007" class="node">
<title>Node7</title>
<g id="a_Node000007"><a xlink:href="motor__ctrl_8c.html#a9dd4aa02cb15dd5ea27aa8085155adb7" target="_top" xlink:title="慢环（1kHz）：电流限幅刷新与速度/位置外环">
<polygon fill="white" stroke="#666666" points="629.75,-22.25 534.25,-22.25 534.25,0 629.75,0 629.75,-22.25"/>
<text xml:space="preserve" text-anchor="middle" x="582" y="-6.85" font-family="Helvetica,sans-Serif" font-size="12.00">MC_SlowLoop</text>
</a>
</g>
</g>
<!-- Node1&#45;&gt;Node7 -->
<g id="edge6_Node000001_Node000007" class="edge">
<title>Node1&#45;&gt;Node7</title>
<g id="a_edge6_Node000001_Node000007"><a xlink:title=" ">
<path fill="none" stroke="#63b8ff" d="M676.48,-22.47C660.75,-20.56 644.47,-18.59 629.99,-16.83"/>
<polygon fill="#63b8ff" stroke="#63b8ff" points="675.95,-25.93 686.3,-23.67 676.8,-18.99 675.95,-25.93"/>
</a>
</g>
</g>
<!-- Node3 -->
<g id="Node000003" class="node">
<title>Node3</title>
<g id="a_Node000003"><a xlink:href="app__shell_8c.html#ad6303a346f63752b165b847c5dcefbb7" target="_top" xlink:title="解析并执行一行命令">
<polygon fill="white" stroke="#666666" points="475.75,-62.25 339,-62.25 339,-40 475.75,-40 475.75,-62.25"/>
<text xml:space="preserve" text-anchor="middle" x="407.38" y="-46.85" font-family="Helvetica,sans-Serif" font-size="12.00">APP_SHELL_Execute</text>
</a>
</g>
</g>
<!-- Node2&#45;&gt;Node3 -->
<g id="edge2_Node000002_Node000003" class="edge">
<title>Node2&#45;&gt;Node3</title>
<g id="a_edge2_Node000002_Node000003"><a xlink:title=" ">
<path fill="none" stroke="#63b8ff" d="M500.04,-51.12C492.03,-51.12 483.96,-51.12 476.11,-51.12"/>
<polygon fill="#63b8ff" stroke="#63b8ff" points="499.77,-54.63 509.77,-51.13 499.77,-47.63 499.77,-54.63"/>
</a>
</g>
</g>
<!-- Node4 -->
<g id="Node000004" class="node">
<title>Node4</title>
<g id="a_Node000004"><a xlink:href="app__shell_8c.html#ab93a15148be82ad3c0999b099de7c29e" target="_top" xlink:title="shell 轮询（后台调用）">
<polygon fill="white" stroke="#666666" points="303,-62.25 188.75,-62.25 188.75,-40 303,-40 303,-62.25"/>
<text xml:space="preserve" text-anchor="middle" x="245.88" y="-46.85" font-family="Helvetica,sans-Serif" font-size="12.00">APP_SHELL_Poll</text>
</a>
</g>
</g>
<!-- Node3&#45;&gt;Node4 -->
<g id="edge3_Node000003_Node000004" class="edge">
<title>Node3&#45;&gt;Node4</title>
<g id="a_edge3_Node000003_Node000004"><a xlink:title=" ">
<path fill="none" stroke="#63b8ff" d="M327.23,-51.12C319.07,-51.12 310.9,-51.12 303.06,-51.12"/>
<polygon fill="#63b8ff" stroke="#63b8ff" points="327.22,-54.63 337.22,-51.13 327.22,-47.63 327.22,-54.63"/>
</a>
</g>
</g>
<!-- Node5 -->
<g id="Node000005" class="node">
<title>Node5</title>
<g id="a_Node000005"><a xlink:href="app__main_8c.html#a6709d26bb67f905916b7c7f048b8396c" target="_top" xlink:title="后台超级循环体（main 的 while(1) 内调用）">
<polygon fill="white" stroke="#666666" points="152.75,-62.25 78.25,-62.25 78.25,-40 152.75,-40 152.75,-62.25"/>
<text xml:space="preserve" text-anchor="middle" x="115.5" y="-46.85" font-family="Helvetica,sans-Serif" font-size="12.00">APP_Loop</text>
</a>
</g>
</g>
<!-- Node4&#45;&gt;Node5 -->
<g id="edge4_Node000004_Node000005" class="edge">
<title>Node4&#45;&gt;Node5</title>
<g id="a_edge4_Node000004_Node000005"><a xlink:title=" ">
<path fill="none" stroke="#63b8ff" d="M177.27,-51.12C168.98,-51.12 160.77,-51.12 153.18,-51.12"/>
<polygon fill="#63b8ff" stroke="#63b8ff" points="177.05,-54.63 187.05,-51.13 177.05,-47.63 177.05,-54.63"/>
</a>
</g>
</g>
<!-- Node6 -->
<g id="Node000006" class="node">
<title>Node6</title>
<g id="a_Node000006"><a xlink:href="main_8c.html#a840291bc02cba5474a4cb46a9b9566fe" target="_top" xlink:title="The application entry point.">
<polygon fill="white" stroke="#666666" points="42.25,-42.25 0,-42.25 0,-20 42.25,-20 42.25,-42.25"/>
<text xml:space="preserve" text-anchor="middle" x="21.12" y="-26.85" font-family="Helvetica,sans-Serif" font-size="12.00">main</text>
</a>
</g>
</g>
<!-- Node5&#45;&gt;Node6 -->
<g id="edge5_Node000005_Node000006" class="edge">
<title>Node5&#45;&gt;Node6</title>
<g id="a_edge5_Node000005_Node000006"><a xlink:title=" ">
<path fill="none" stroke="#63b8ff" d="M66.86,-40.81C58.35,-38.97 49.91,-37.14 42.69,-35.58"/>
<polygon fill="#63b8ff" stroke="#63b8ff" points="66,-44.2 76.51,-42.9 67.48,-37.36 66,-44.2"/>
</a>
</g>
</g>
<!-- Node8 -->
<g id="Node000008" class="node">
<title>Node8</title>
<g id="a_Node000008"><a xlink:href="motor__ctrl_8c.html#a5c982a7374da291bb0e5d06d26893def" target="_top" xlink:title="FOC 主循环（ADC 注入完成 ISR，20kHz）">
<polygon fill="white" stroke="#666666" points="444.62,-22.25 370.12,-22.25 370.12,0 444.62,0 444.62,-22.25"/>
<text xml:space="preserve" text-anchor="middle" x="407.38" y="-6.85" font-family="Helvetica,sans-Serif" font-size="12.00">MC_FocIsr</text>
</a>
</g>
</g>
<!-- Node7&#45;&gt;Node8 -->
<g id="edge7_Node000007_Node000008" class="edge">
<title>Node7&#45;&gt;Node8</title>
<g id="a_edge7_Node000007_Node000008"><a xlink:title=" ">
<path fill="none" stroke="#63b8ff" d="M522.36,-11.12C496.77,-11.12 467.54,-11.12 445.09,-11.12"/>
<polygon fill="#63b8ff" stroke="#63b8ff" points="522.32,-14.63 532.32,-11.13 522.32,-7.63 522.32,-14.63"/>
</a>
</g>
</g>
<!-- Node9 -->
<g id="Node000009" class="node">
<title>Node9</title>
<g id="a_Node000009"><a xlink:href="app__main_8c.html#a4759d3fdff6b33e2c0a0ae151452112f" target="_top" xlink:title="应用初始化（main 的 USER CODE BEGIN 2 调用）">
<polygon fill="white" stroke="#666666" points="147.12,-22.25 83.88,-22.25 83.88,0 147.12,0 147.12,-22.25"/>
<text xml:space="preserve" text-anchor="middle" x="115.5" y="-6.85" font-family="Helvetica,sans-Serif" font-size="12.00">APP_Init</text>
</a>
</g>
</g>
<!-- Node8&#45;&gt;Node9 -->
<g id="edge8_Node000008_Node000009" class="edge">
<title>Node8&#45;&gt;Node9</title>
<g id="a_edge8_Node000008_Node000009"><a xlink:title=" ">
<path fill="none" stroke="#63b8ff" d="M358.27,-11.12C298.48,-11.12 198.16,-11.12 147.61,-11.12"/>
<polygon fill="#63b8ff" stroke="#63b8ff" points="358.15,-14.63 368.15,-11.13 358.15,-7.63 358.15,-14.63"/>
</a>
</g>
</g>
<!-- Node9&#45;&gt;Node6 -->
<g id="edge9_Node000009_Node000006" class="edge">
<title>Node9&#45;&gt;Node6</title>
<g id="a_edge9_Node000009_Node000006"><a xlink:title=" ">
<path fill="none" stroke="#63b8ff" d="M72.48,-20.22C62.15,-22.46 51.54,-24.76 42.74,-26.66"/>
<polygon fill="#63b8ff" stroke="#63b8ff" points="72.97,-23.7 82,-18.16 71.49,-16.86 72.97,-23.7"/>
</a>
</g>
</g>
</g>
</svg>

<g id="navigator" transform="translate(0 0)" fill="#404254">
  <rect fill="#f2f5e9" fill-opacity="0.5" stroke="#606060" stroke-width=".5" x="0" y="0" width="60" height="60"/>
  <use id="zoomplus" xlink:href="#zoomPlus" x="17" y="9" onmousedown="handleZoom(evt,'in')"/>
  <use id="zoomminus" xlink:href="#zoomMin" x="42" y="9" onmousedown="handleZoom(evt,'out')"/>
  <use id="reset" xlink:href="#resetDef" x="30" y="36" onmousedown="handleReset()"/>
   <use id="arrowup" xlink:href="#arrowUp" x="0" y="0" onmousedown="handlePan(0,-1)"/>
  <use id="arrowright" xlink:href="#arrowRight" x="0" y="0" onmousedown="handlePan(1,0)"/>
  <use id="arrowdown" xlink:href="#arrowDown" x="0" y="0" onmousedown="handlePan(0,1)"/>
  <use id="arrowleft" xlink:href="#arrowLeft" x="0" y="0" onmousedown="handlePan(-1,0)"/>
</g>
<svg viewBox="0 0 15 15" width="100%" height="30px" preserveAspectRatio="xMaxYMin meet">
 <g id="arrow_out" transform="scale(0.3 0.3)">
  <a xlink:href="protection_8h_a87d1ad0c7e39a4c5c88dc7b62e964da7_icgraph_org.svg" target="_base">
   <rect id="button" ry="5" rx="5" y="6" x="6" height="38" width="38"
        fill="#f2f5e9" fill-opacity="0.5" stroke="#606060" stroke-width="1.0"/>
   <path id="arrow"
     d="M 11.500037,31.436501 C 11.940474,20.09759 22.043105,11.32322 32.158766,21.979434 L 37.068811,17.246167 C 37.068811,17.246167 37.088388,32 37.088388,32 L 22.160133,31.978069 C 22.160133,31.978069 26.997745,27.140456 26.997745,27.140456 C 18.528582,18.264221 13.291696,25.230495 11.500037,31.436501 z"
     style="fill:#404040;"/>
  </a>
 </g>
</svg>

<style type='text/css'>
<![CDATA[
[data-mouse-over-selected='false'] { opacity: 0.7; }
[data-mouse-over-selected='true']  { opacity: 1.0; }
]]>
</style>
<script type="application/ecmascript"><![CDATA[
document.addEventListener('DOMContentLoaded', (event) => {
  highlightEdges();
  highlightAdjacentNodes();
});
]]></script>
</svg>
