<?xml version="1.0" encoding="UTF-8" standalone="no"?>
<!DOCTYPE svg PUBLIC "-//W3C//DTD SVG 1.1//EN"
 "http://www.w3.org/Graphics/SVG/1.1/DTD/svg11.dtd">
<!-- Generated by graphviz version 15.1.0 (20260618.0150)
 -->
<!-- Title: Application/control/protection.c Pages: 1 -->
<svg width="335pt" height="161pt"
 viewBox="0.00 0.00 335.00 161.00" xmlns="http://www.w3.org/2000/svg" xmlns:xlink="http://www.w3.org/1999/xlink">
<g id="graph0" class="graph" transform="scale(1 1) rotate(0) translate(4 157)">
<title>Application/control/protection.c</title>
<!-- Node1 -->
<g id="Node000001" class="node">
<title>Node1</title>
<g id="a_Node000001"><a xlink:title="保护与故障管理模块">
<polygon fill="#999999" stroke="#666666" points="238.62,-153 123.62,-153 123.62,-116.5 238.62,-116.5 238.62,-153"/>
<text xml:space="preserve" text-anchor="start" x="131.62" y="-137.6" font-family="Helvetica,sans-Serif" font-size="12.00">Application/control</text>
<text xml:space="preserve" text-anchor="middle" x="181.12" y="-123.35" font-family="Helvetica,sans-Serif" font-size="12.00">/protection.c</text>
</a>
</g>
</g>
<!-- Node2 -->
<g id="Node000002" class="node">
<title>Node2</title>
<g id="a_Node000002"><a xlink:href="protection_8h.html" target="_top" xlink:title="保护与故障管理模块头文件">
<polygon fill="white" stroke="#666666" points="78.25,-80.5 0,-80.5 0,-58.25 78.25,-58.25 78.25,-80.5"/>
<text xml:space="preserve" text-anchor="middle" x="39.12" y="-65.1" font-family="Helvetica,sans-Serif" font-size="12.00">protection.h</text>
</a>
</g>
</g>
<!-- Node1&#45;&gt;Node2 -->
<g id="edge1_Node000001_Node000002" class="edge">
<title>Node1&#45;&gt;Node2</title>
<g id="a_edge1_Node000001_Node000002"><a xlink:title=" ">
<path fill="none" stroke="#63b8ff" d="M141.57,-116.1C120.15,-106.53 93.93,-94.84 73.39,-85.67"/>
<polygon fill="#63b8ff" stroke="#63b8ff" points="74.86,-82.49 64.3,-81.61 72.01,-88.88 74.86,-82.49"/>
</a>
</g>
</g>
<!-- Node4 -->
<g id="Node000004" class="node">
<title>Node4</title>
<g id="a_Node000004"><a xlink:href="motor__config_8h.html" target="_top" xlink:title="电机参数与控制参数统一配置">
<polygon fill="white" stroke="#666666" points="191.5,-80.5 96.75,-80.5 96.75,-58.25 191.5,-58.25 191.5,-80.5"/>
<text xml:space="preserve" text-anchor="middle" x="144.12" y="-65.1" font-family="Helvetica,sans-Serif" font-size="12.00">motor_config.h</text>
</a>
</g>
</g>
<!-- Node1&#45;&gt;Node4 -->
<g id="edge3_Node000001_Node000004" class="edge">
<title>Node1&#45;&gt;Node4</title>
<g id="a_edge3_Node000001_Node000004"><a xlink:title=" ">
<path fill="none" stroke="#63b8ff" d="M170.82,-116.1C166.24,-108.25 160.82,-98.97 156.07,-90.83"/>
<polygon fill="#63b8ff" stroke="#63b8ff" points="159.15,-89.17 151.09,-82.3 153.11,-92.7 159.15,-89.17"/>
</a>
</g>
</g>
<!-- Node5 -->
<g id="Node000005" class="node">
<title>Node5</title>
<g id="a_Node000005"><a xlink:href="board__config_8h.html" target="_top" xlink:title="板级硬件参数统一配置（GIM4310/4305 电机控制器 V0.0 板）">
<polygon fill="white" stroke="#666666" points="196.88,-22.25 101.38,-22.25 101.38,0 196.88,0 196.88,-22.25"/>
<text xml:space="preserve" text-anchor="middle" x="149.12" y="-6.85" font-family="Helvetica,sans-Serif" font-size="12.00">board_config.h</text>
</a>
</g>
</g>
<!-- Node1&#45;&gt;Node5 -->
<g id="edge5_Node000001_Node000005" class="edge">
<title>Node1&#45;&gt;Node5</title>
<g id="a_edge5_Node000001_Node000005"><a xlink:title=" ">
<path fill="none" stroke="#63b8ff" d="M191.95,-116.1C200.09,-100.43 208.52,-77.15 200.12,-58.25 195.08,-46.87 185.68,-37.12 176.32,-29.54"/>
<polygon fill="#63b8ff" stroke="#63b8ff" points="178.46,-26.77 168.34,-23.62 174.28,-32.39 178.46,-26.77"/>
</a>
</g>
</g>
<!-- Node6 -->
<g id="Node000006" class="node">
<title>Node6</title>
<g id="a_Node000006"><a xlink:href="main_8h.html" target="_top" xlink:title=": Header for main.c file.">
<polygon fill="white" stroke="#666666" points="299.12,-80.5 247.12,-80.5 247.12,-58.25 299.12,-58.25 299.12,-80.5"/>
<text xml:space="preserve" text-anchor="middle" x="273.12" y="-65.1" font-family="Helvetica,sans-Serif" font-size="12.00">main.h</text>
</a>
</g>
</g>
<!-- Node1&#45;&gt;Node6 -->
<g id="edge6_Node000001_Node000006" class="edge">
<title>Node1&#45;&gt;Node6</title>
<g id="a_edge6_Node000001_Node000006"><a xlink:title=" ">
<path fill="none" stroke="#63b8ff" d="M206.75,-116.1C219.8,-107.11 235.59,-96.23 248.5,-87.34"/>
<polygon fill="#63b8ff" stroke="#63b8ff" points="250.21,-90.41 256.46,-81.85 246.24,-84.64 250.21,-90.41"/>
</a>
</g>
</g>
<!-- Node3 -->
<g id="Node000003" class="node">
<title>Node3</title>
<g id="a_Node000003"><a xlink:title=" ">
<polygon fill="#e0e0e0" stroke="#999999" points="66.25,-22.25 12,-22.25 12,0 66.25,0 66.25,-22.25"/>
<text xml:space="preserve" text-anchor="middle" x="39.12" y="-6.85" font-family="Helvetica,sans-Serif" font-size="12.00">stdint.h</text>
</a>
</g>
</g>
<!-- Node2&#45;&gt;Node3 -->
<g id="edge2_Node000002_Node000003" class="edge">
<title>Node2&#45;&gt;Node3</title>
<g id="a_edge2_Node000002_Node000003"><a xlink:title=" ">
<path fill="none" stroke="#63b8ff" d="M39.12,-57.79C39.12,-51.12 39.12,-42.24 39.12,-34.09"/>
<polygon fill="#63b8ff" stroke="#63b8ff" points="42.63,-34.17 39.13,-24.17 35.63,-34.17 42.63,-34.17"/>
</a>
</g>
</g>
<!-- Node4&#45;&gt;Node5 -->
<g id="edge4_Node000004_Node000005" class="edge">
<title>Node4&#45;&gt;Node5</title>
<g id="a_edge4_Node000004_Node000005"><a xlink:title=" ">
<path fill="none" stroke="#63b8ff" d="M145.07,-57.79C145.66,-51.12 146.45,-42.24 147.17,-34.09"/>
<polygon fill="#63b8ff" stroke="#63b8ff" points="150.66,-34.44 148.05,-24.17 143.68,-33.82 150.66,-34.44"/>
</a>
</g>
</g>
<!-- Node7 -->
<g id="Node000007" class="node">
<title>Node7</title>
<g id="a_Node000007"><a xlink:title=" ">
<polygon fill="#e0e0e0" stroke="#999999" points="326.5,-22.25 219.75,-22.25 219.75,0 326.5,0 326.5,-22.25"/>
<text xml:space="preserve" text-anchor="middle" x="273.12" y="-6.85" font-family="Helvetica,sans-Serif" font-size="12.00">stm32g4xx_hal.h</text>
</a>
</g>
</g>
<!-- Node6&#45;&gt;Node7 -->
<g id="edge7_Node000006_Node000007" class="edge">
<title>Node6&#45;&gt;Node7</title>
<g id="a_edge7_Node000006_Node000007"><a xlink:title=" ">
<path fill="none" stroke="#63b8ff" d="M273.12,-57.79C273.12,-51.12 273.12,-42.24 273.12,-34.09"/>
<polygon fill="#63b8ff" stroke="#63b8ff" points="276.63,-34.17 273.13,-24.17 269.63,-34.17 276.63,-34.17"/>
</a>
</g>
</g>
</g>
</svg>
