<?xml version="1.0" encoding="UTF-8" standalone="no"?>
<!DOCTYPE svg PUBLIC "-//W3C//DTD SVG 1.1//EN"
 "http://www.w3.org/Graphics/SVG/1.1/DTD/svg11.dtd">
<!-- Generated by graphviz version 15.1.0 (20260618.0150)
 -->
<!-- Title: Core/Src/stm32g4xx_it.c Pages: 1 -->
<svg width="502pt" height="205pt"
 viewBox="0.00 0.00 502.00 205.00" xmlns="http://www.w3.org/2000/svg" xmlns:xlink="http://www.w3.org/1999/xlink">
<g id="graph0" class="graph" transform="scale(1 1) rotate(0) translate(4 201)">
<title>Core/Src/stm32g4xx_it.c</title>
<!-- Node1 -->
<g id="Node000001" class="node">
<title>Node1</title>
<g id="a_Node000001"><a xlink:title="Interrupt Service Routines.">
<polygon fill="#999999" stroke="#666666" points="259.51,-197 113.76,-197 113.76,-174.75 259.51,-174.75 259.51,-197"/>
<text xml:space="preserve" text-anchor="middle" x="186.64" y="-181.6" font-family="Helvetica,sans-Serif" font-size="12.00">Core/Src/stm32g4xx_it.c</text>
</a>
</g>
</g>
<!-- Node2 -->
<g id="Node000002" class="node">
<title>Node2</title>
<g id="a_Node000002"><a xlink:href="main_8h.html" target="_top" xlink:title=": Header for main.c file.">
<polygon fill="white" stroke="#666666" points="167.64,-80.5 115.64,-80.5 115.64,-58.25 167.64,-58.25 167.64,-80.5"/>
<text xml:space="preserve" text-anchor="middle" x="141.64" y="-65.1" font-family="Helvetica,sans-Serif" font-size="12.00">main.h</text>
</a>
</g>
</g>
<!-- Node1&#45;&gt;Node2 -->
<g id="edge1_Node000001_Node000002" class="edge">
<title>Node1&#45;&gt;Node2</title>
<g id="a_edge1_Node000001_Node000002"><a xlink:title=" ">
<path fill="none" stroke="#63b8ff" d="M113.44,-175.31C69.68,-167.93 20.04,-156.02 6.64,-138.75 -22.14,-101.67 55.01,-83.04 104.25,-75.17"/>
<polygon fill="#63b8ff" stroke="#63b8ff" points="104.62,-78.65 113.99,-73.71 103.58,-71.73 104.62,-78.65"/>
</a>
</g>
</g>
<!-- Node4 -->
<g id="Node000004" class="node">
<title>Node4</title>
<g id="a_Node000004"><a xlink:href="stm32g4xx__it_8h.html" target="_top" xlink:title="This file contains the headers of the interrupt handlers.">
<polygon fill="white" stroke="#666666" points="493.76,-138.75 397.51,-138.75 397.51,-116.5 493.76,-116.5 493.76,-138.75"/>
<text xml:space="preserve" text-anchor="middle" x="445.64" y="-123.35" font-family="Helvetica,sans-Serif" font-size="12.00">stm32g4xx_it.h</text>
</a>
</g>
</g>
<!-- Node1&#45;&gt;Node4 -->
<g id="edge3_Node000001_Node000004" class="edge">
<title>Node1&#45;&gt;Node4</title>
<g id="a_edge3_Node000001_Node000004"><a xlink:title=" ">
<path fill="none" stroke="#63b8ff" d="M235.35,-174.29C278.04,-165.02 340.23,-151.52 385.9,-141.6"/>
<polygon fill="#63b8ff" stroke="#63b8ff" points="386.63,-145.02 395.66,-139.48 385.14,-138.18 386.63,-145.02"/>
</a>
</g>
</g>
<!-- Node5 -->
<g id="Node000005" class="node">
<title>Node5</title>
<g id="a_Node000005"><a xlink:href="bsp__adc_8h.html" target="_top" xlink:title="ADC 采样 BSP 头文件（电流/母线电压注入组 + 温度规则组）">
<polygon fill="white" stroke="#666666" points="87.39,-138.75 15.89,-138.75 15.89,-116.5 87.39,-116.5 87.39,-138.75"/>
<text xml:space="preserve" text-anchor="middle" x="51.64" y="-123.35" font-family="Helvetica,sans-Serif" font-size="12.00">bsp_adc.h</text>
</a>
</g>
</g>
<!-- Node1&#45;&gt;Node5 -->
<g id="edge4_Node000001_Node000005" class="edge">
<title>Node1&#45;&gt;Node5</title>
<g id="a_edge4_Node000001_Node000005"><a xlink:title=" ">
<path fill="none" stroke="#63b8ff" d="M161.24,-174.29C140.41,-165.61 110.66,-153.22 87.41,-143.53"/>
<polygon fill="#63b8ff" stroke="#63b8ff" points="88.89,-140.36 78.31,-139.74 86.2,-146.82 88.89,-140.36"/>
</a>
</g>
</g>
<!-- Node7 -->
<g id="Node000007" class="node">
<title>Node7</title>
<g id="a_Node000007"><a xlink:href="bsp__can_8h.html" target="_top" xlink:title="FDCAN1 通信 BSP 头文件（经典 CAN 模式）">
<polygon fill="white" stroke="#666666" points="177.39,-138.75 105.89,-138.75 105.89,-116.5 177.39,-116.5 177.39,-138.75"/>
<text xml:space="preserve" text-anchor="middle" x="141.64" y="-123.35" font-family="Helvetica,sans-Serif" font-size="12.00">bsp_can.h</text>
</a>
</g>
</g>
<!-- Node1&#45;&gt;Node7 -->
<g id="edge7_Node000001_Node000007" class="edge">
<title>Node1&#45;&gt;Node7</title>
<g id="a_edge7_Node000001_Node000007"><a xlink:title=" ">
<path fill="none" stroke="#63b8ff" d="M178.17,-174.29C172.26,-166.91 164.21,-156.84 157.16,-148.03"/>
<polygon fill="#63b8ff" stroke="#63b8ff" points="159.99,-145.96 151.01,-140.34 154.52,-150.33 159.99,-145.96"/>
</a>
</g>
</g>
<!-- Node8 -->
<g id="Node000008" class="node">
<title>Node8</title>
<g id="a_Node000008"><a xlink:href="bsp__uart_8h.html" target="_top" xlink:title="USART3 调试串口 BSP 头文件（DMA TX 环形缓冲 + RXNE 中断接收）">
<polygon fill="white" stroke="#666666" points="267.76,-138.75 195.51,-138.75 195.51,-116.5 267.76,-116.5 267.76,-138.75"/>
<text xml:space="preserve" text-anchor="middle" x="231.64" y="-123.35" font-family="Helvetica,sans-Serif" font-size="12.00">bsp_uart.h</text>
</a>
</g>
</g>
<!-- Node1&#45;&gt;Node8 -->
<g id="edge10_Node000001_Node000008" class="edge">
<title>Node1&#45;&gt;Node8</title>
<g id="a_edge10_Node000001_Node000008"><a xlink:title=" ">
<path fill="none" stroke="#63b8ff" d="M195.1,-174.29C201.01,-166.91 209.07,-156.84 216.11,-148.03"/>
<polygon fill="#63b8ff" stroke="#63b8ff" points="218.75,-150.33 222.26,-140.34 213.28,-145.96 218.75,-150.33"/>
</a>
</g>
</g>
<!-- Node9 -->
<g id="Node000009" class="node">
<title>Node9</title>
<g id="a_Node000009"><a xlink:href="bsp__ws2812_8h.html" target="_top" xlink:title="WS2812 类 RGB 状态灯 BSP 头文件（TIM2_CH1 PWM + DMA）">
<polygon fill="white" stroke="#666666" points="379.64,-138.75 285.64,-138.75 285.64,-116.5 379.64,-116.5 379.64,-138.75"/>
<text xml:space="preserve" text-anchor="middle" x="332.64" y="-123.35" font-family="Helvetica,sans-Serif" font-size="12.00">bsp_ws2812.h</text>
</a>
</g>
</g>
<!-- Node1&#45;&gt;Node9 -->
<g id="edge13_Node000001_Node000009" class="edge">
<title>Node1&#45;&gt;Node9</title>
<g id="a_edge13_Node000001_Node000009"><a xlink:title=" ">
<path fill="none" stroke="#63b8ff" d="M214.1,-174.29C236.84,-165.53 269.39,-152.99 294.63,-143.27"/>
<polygon fill="#63b8ff" stroke="#63b8ff" points="295.81,-146.56 303.89,-139.7 293.3,-140.03 295.81,-146.56"/>
</a>
</g>
</g>
<!-- Node3 -->
<g id="Node000003" class="node">
<title>Node3</title>
<g id="a_Node000003"><a xlink:title=" ">
<polygon fill="#e0e0e0" stroke="#999999" points="195.01,-22.25 88.26,-22.25 88.26,0 195.01,0 195.01,-22.25"/>
<text xml:space="preserve" text-anchor="middle" x="141.64" y="-6.85" font-family="Helvetica,sans-Serif" font-size="12.00">stm32g4xx_hal.h</text>
</a>
</g>
</g>
<!-- Node2&#45;&gt;Node3 -->
<g id="edge2_Node000002_Node000003" class="edge">
<title>Node2&#45;&gt;Node3</title>
<g id="a_edge2_Node000002_Node000003"><a xlink:title=" ">
<path fill="none" stroke="#63b8ff" d="M141.64,-57.79C141.64,-51.12 141.64,-42.24 141.64,-34.09"/>
<polygon fill="#63b8ff" stroke="#63b8ff" points="145.14,-34.17 141.64,-24.17 138.14,-34.17 145.14,-34.17"/>
</a>
</g>
</g>
<!-- Node5&#45;&gt;Node2 -->
<g id="edge5_Node000005_Node000002" class="edge">
<title>Node5&#45;&gt;Node2</title>
<g id="a_edge5_Node000005_Node000002"><a xlink:title=" ">
<path fill="none" stroke="#63b8ff" d="M68.56,-116.04C81.76,-107.8 100.33,-96.19 115.44,-86.75"/>
<polygon fill="#63b8ff" stroke="#63b8ff" points="116.88,-89.98 123.5,-81.71 113.17,-84.04 116.88,-89.98"/>
</a>
</g>
</g>
<!-- Node6 -->
<g id="Node000006" class="node">
<title>Node6</title>
<g id="a_Node000006"><a xlink:title=" ">
<polygon fill="#e0e0e0" stroke="#999999" points="248.76,-80.5 194.51,-80.5 194.51,-58.25 248.76,-58.25 248.76,-80.5"/>
<text xml:space="preserve" text-anchor="middle" x="221.64" y="-65.1" font-family="Helvetica,sans-Serif" font-size="12.00">stdint.h</text>
</a>
</g>
</g>
<!-- Node5&#45;&gt;Node6 -->
<g id="edge6_Node000005_Node000006" class="edge">
<title>Node5&#45;&gt;Node6</title>
<g id="a_edge6_Node000005_Node000006"><a xlink:title=" ">
<path fill="none" stroke="#63b8ff" d="M83.61,-116.04C111.84,-106.7 153.06,-93.06 183.1,-83.12"/>
<polygon fill="#63b8ff" stroke="#63b8ff" points="184.19,-86.45 192.58,-79.99 181.99,-79.81 184.19,-86.45"/>
</a>
</g>
</g>
<!-- Node7&#45;&gt;Node2 -->
<g id="edge8_Node000007_Node000002" class="edge">
<title>Node7&#45;&gt;Node2</title>
<g id="a_edge8_Node000007_Node000002"><a xlink:title=" ">
<path fill="none" stroke="#63b8ff" d="M141.64,-116.04C141.64,-109.37 141.64,-100.49 141.64,-92.34"/>
<polygon fill="#63b8ff" stroke="#63b8ff" points="145.14,-92.42 141.64,-82.42 138.14,-92.42 145.14,-92.42"/>
</a>
</g>
</g>
<!-- Node7&#45;&gt;Node6 -->
<g id="edge9_Node000007_Node000006" class="edge">
<title>Node7&#45;&gt;Node6</title>
<g id="a_edge9_Node000007_Node000006"><a xlink:title=" ">
<path fill="none" stroke="#63b8ff" d="M156.68,-116.04C168.19,-107.95 184.29,-96.63 197.58,-87.29"/>
<polygon fill="#63b8ff" stroke="#63b8ff" points="199.25,-90.39 205.42,-81.78 195.23,-84.67 199.25,-90.39"/>
</a>
</g>
</g>
<!-- Node8&#45;&gt;Node2 -->
<g id="edge11_Node000008_Node000002" class="edge">
<title>Node8&#45;&gt;Node2</title>
<g id="a_edge11_Node000008_Node000002"><a xlink:title=" ">
<path fill="none" stroke="#63b8ff" d="M214.71,-116.04C201.51,-107.8 182.94,-96.19 167.83,-86.75"/>
<polygon fill="#63b8ff" stroke="#63b8ff" points="170.11,-84.04 159.77,-81.71 166.4,-89.98 170.11,-84.04"/>
</a>
</g>
</g>
<!-- Node8&#45;&gt;Node6 -->
<g id="edge12_Node000008_Node000006" class="edge">
<title>Node8&#45;&gt;Node6</title>
<g id="a_edge12_Node000008_Node000006"><a xlink:title=" ">
<path fill="none" stroke="#63b8ff" d="M229.76,-116.04C228.55,-109.29 226.95,-100.28 225.49,-92.05"/>
<polygon fill="#63b8ff" stroke="#63b8ff" points="228.97,-91.63 223.77,-82.4 222.08,-92.86 228.97,-91.63"/>
</a>
</g>
</g>
<!-- Node9&#45;&gt;Node2 -->
<g id="edge14_Node000009_Node000002" class="edge">
<title>Node9&#45;&gt;Node2</title>
<g id="a_edge14_Node000009_Node000002"><a xlink:title=" ">
<path fill="none" stroke="#63b8ff" d="M296.71,-116.04C263.02,-106.12 212.86,-91.35 178.78,-81.31"/>
<polygon fill="#63b8ff" stroke="#63b8ff" points="179.92,-78 169.34,-78.53 177.94,-84.72 179.92,-78"/>
</a>
</g>
</g>
<!-- Node9&#45;&gt;Node6 -->
<g id="edge15_Node000009_Node000006" class="edge">
<title>Node9&#45;&gt;Node6</title>
<g id="a_edge15_Node000009_Node000006"><a xlink:title=" ">
<path fill="none" stroke="#63b8ff" d="M311.76,-116.04C295.09,-107.6 271.49,-95.64 252.62,-86.08"/>
<polygon fill="#63b8ff" stroke="#63b8ff" points="254.27,-82.99 243.77,-81.59 251.11,-89.23 254.27,-82.99"/>
</a>
</g>
</g>
</g>
</svg>
