<?xml version="1.0" encoding="UTF-8" standalone="no"?>
<!DOCTYPE svg PUBLIC "-//W3C//DTD SVG 1.1//EN"
 "http://www.w3.org/Graphics/SVG/1.1/DTD/svg11.dtd">
<!-- Generated by graphviz version 15.1.0 (20260618.0150)
 -->
<!-- Title: MC_HandleTypeDef Pages: 1 -->
<svg width="519pt" height="224pt"
 viewBox="0.00 0.00 519.00 224.00" xmlns="http://www.w3.org/2000/svg" xmlns:xlink="http://www.w3.org/1999/xlink">
<g id="graph0" class="graph" transform="scale(1 1) rotate(0) translate(4 219.75)">
<title>MC_HandleTypeDef</title>
<!-- Node1 -->
<g id="Node000001" class="node">
<title>Node1</title>
<g id="a_Node000001"><a xlink:title="电机控制运行数据结构体（telemetry 直接读取）">
<polygon fill="#999999" stroke="#666666" points="314.5,-22.25 189,-22.25 189,0 314.5,0 314.5,-22.25"/>
<text xml:space="preserve" text-anchor="middle" x="251.75" y="-6.85" font-family="Helvetica,sans-Serif" font-size="12.00">MC_HandleTypeDef</text>
</a>
</g>
</g>
<!-- Node2 -->
<g id="Node000002" class="node">
<title>Node2</title>
<g id="a_Node000002"><a xlink:href="struct_e_n_c___data_type_def.html" target="_top" xlink:title="编码器运行数据结构体">
<polygon fill="white" stroke="#666666" points="119.5,-100.75 0,-100.75 0,-78.5 119.5,-78.5 119.5,-100.75"/>
<text xml:space="preserve" text-anchor="middle" x="59.75" y="-85.35" font-family="Helvetica,sans-Serif" font-size="12.00">ENC_DataTypeDef</text>
</a>
</g>
</g>
<!-- Node2&#45;&gt;Node1 -->
<g id="edge1_Node000001_Node000002" class="edge">
<title>Node2&#45;&gt;Node1</title>
<g id="a_edge1_Node000001_Node000002"><a xlink:title=" ">
<path fill="none" stroke="#9a32cd" stroke-dasharray="5,2" d="M96.57,-73.96C134.2,-58.96 191.74,-36.04 225.16,-22.72"/>
<polygon fill="#9a32cd" stroke="#9a32cd" points="95.44,-70.64 87.45,-77.59 98.04,-77.14 95.44,-70.64"/>
</a>
</g>
<text xml:space="preserve" text-anchor="start" x="181.59" y="-46.25" font-family="Helvetica,sans-Serif" font-size="12.00" fill="grey">Enc</text>
</g>
<!-- Node3 -->
<g id="Node000003" class="node">
<title>Node3</title>
<g id="a_Node000003"><a xlink:href="struct_p_l_l___handle_type_def.html" target="_top" xlink:title="PLL 型角度跟踪速度估计器句柄">
<polygon fill="white" stroke="#666666" points="266,-100.75 137.5,-100.75 137.5,-78.5 266,-78.5 266,-100.75"/>
<text xml:space="preserve" text-anchor="middle" x="201.75" y="-85.35" font-family="Helvetica,sans-Serif" font-size="12.00">PLL_HandleTypeDef</text>
</a>
</g>
</g>
<!-- Node3&#45;&gt;Node1 -->
<g id="edge2_Node000001_Node000003" class="edge">
<title>Node3&#45;&gt;Node1</title>
<g id="a_edge2_Node000001_Node000003"><a xlink:title=" ">
<path fill="none" stroke="#9a32cd" stroke-dasharray="5,2" d="M214.62,-68.94C224.37,-54.02 237.36,-34.13 245.11,-22.28"/>
<polygon fill="#9a32cd" stroke="#9a32cd" points="211.86,-66.76 209.32,-77.04 217.72,-70.59 211.86,-66.76"/>
</a>
</g>
<text xml:space="preserve" text-anchor="start" x="235.7" y="-46.25" font-family="Helvetica,sans-Serif" font-size="12.00" fill="grey">Pll</text>
</g>
<!-- Node4 -->
<g id="Node000004" class="node">
<title>Node4</title>
<g id="a_Node000004"><a xlink:href="struct_f_o_c___handle_type_def.html" target="_top" xlink:title="FOC 运行句柄结构体">
<polygon fill="white" stroke="#666666" points="510.88,-100.75 378.62,-100.75 378.62,-78.5 510.88,-78.5 510.88,-100.75"/>
<text xml:space="preserve" text-anchor="middle" x="444.75" y="-85.35" font-family="Helvetica,sans-Serif" font-size="12.00">FOC_HandleTypeDef</text>
</a>
</g>
</g>
<!-- Node4&#45;&gt;Node1 -->
<g id="edge3_Node000001_Node000004" class="edge">
<title>Node4&#45;&gt;Node1</title>
<g id="a_edge3_Node000001_Node000004"><a xlink:title=" ">
<path fill="none" stroke="#9a32cd" stroke-dasharray="5,2" d="M407.74,-73.96C369.91,-58.96 312.08,-36.04 278.48,-22.72"/>
<polygon fill="#9a32cd" stroke="#9a32cd" points="406.33,-77.16 416.91,-77.59 408.91,-70.65 406.33,-77.16"/>
</a>
</g>
<text xml:space="preserve" text-anchor="start" x="374.21" y="-46.25" font-family="Helvetica,sans-Serif" font-size="12.00" fill="grey">Foc</text>
</g>
<!-- Node5 -->
<g id="Node000005" class="node">
<title>Node5</title>
<g id="a_Node000005"><a xlink:href="struct_p_i_d___handle_type_def.html" target="_top" xlink:title="PID 控制器句柄结构体">
<polygon fill="white" stroke="#666666" points="366.25,-215.75 239.25,-215.75 239.25,-193.5 366.25,-193.5 366.25,-215.75"/>
<text xml:space="preserve" text-anchor="middle" x="302.75" y="-200.35" font-family="Helvetica,sans-Serif" font-size="12.00">PID_HandleTypeDef</text>
</a>
</g>
</g>
<!-- Node5&#45;&gt;Node1 -->
<g id="edge6_Node000001_Node000005" class="edge">
<title>Node5&#45;&gt;Node1</title>
<g id="a_edge6_Node000001_Node000005"><a xlink:title=" ">
<path fill="none" stroke="#9a32cd" stroke-dasharray="5,2" d="M298.69,-182.04C293.8,-156.95 284.95,-114.4 274.75,-78.5 269.02,-58.32 260.6,-35.3 255.7,-22.36"/>
<polygon fill="#9a32cd" stroke="#9a32cd" points="295.22,-182.49 300.54,-191.66 302.09,-181.18 295.22,-182.49"/>
</a>
</g>
<text xml:space="preserve" text-anchor="start" x="283.3" y="-85.5" font-family="Helvetica,sans-Serif" font-size="12.00" fill="grey">SpeedPid</text>
</g>
<!-- Node5&#45;&gt;Node4 -->
<g id="edge4_Node000004_Node000005" class="edge">
<title>Node5&#45;&gt;Node4</title>
<g id="a_edge4_Node000004_Node000005"><a xlink:title=" ">
<path fill="none" stroke="#9a32cd" stroke-dasharray="5,2" d="M323.82,-186.03C344.73,-168.67 377.78,-141.51 407,-118.75 414.61,-112.82 423.22,-106.38 430.3,-101.17"/>
<polygon fill="#9a32cd" stroke="#9a32cd" points="321.74,-183.2 316.29,-192.29 326.22,-188.59 321.74,-183.2"/>
</a>
</g>
<text xml:space="preserve" text-anchor="start" x="410" y="-152.12" font-family="Helvetica,sans-Serif" font-size="12.00" fill="grey">PidId</text>
<text xml:space="preserve" text-anchor="start" x="410" y="-133.88" font-family="Helvetica,sans-Serif" font-size="12.00" fill="grey">PidIq</text>
</g>
<!-- Node6 -->
<g id="Node000006" class="node">
<title>Node6</title>
<g id="a_Node000006"><a xlink:href="struct_f_o_c___vec2_type_def.html" target="_top" xlink:title="两相正交量（alpha&#45;beta 或 d&#45;q）">
<polygon fill="white" stroke="#666666" points="504.88,-215.75 384.62,-215.75 384.62,-193.5 504.88,-193.5 504.88,-215.75"/>
<text xml:space="preserve" text-anchor="middle" x="444.75" y="-200.35" font-family="Helvetica,sans-Serif" font-size="12.00">FOC_Vec2TypeDef</text>
</a>
</g>
</g>
<!-- Node6&#45;&gt;Node4 -->
<g id="edge5_Node000004_Node000006" class="edge">
<title>Node6&#45;&gt;Node4</title>
<g id="a_edge5_Node000004_Node000006"><a xlink:title=" ">
<path fill="none" stroke="#9a32cd" stroke-dasharray="5,2" d="M444.75,-181.97C444.75,-157.69 444.75,-119.34 444.75,-101.03"/>
<polygon fill="#9a32cd" stroke="#9a32cd" points="441.25,-181.68 444.75,-191.68 448.25,-181.68 441.25,-181.68"/>
</a>
</g>
<text xml:space="preserve" text-anchor="start" x="447.75" y="-161.25" font-family="Helvetica,sans-Serif" font-size="12.00" fill="grey">IAlphaBeta</text>
<text xml:space="preserve" text-anchor="start" x="447.75" y="-143" font-family="Helvetica,sans-Serif" font-size="12.00" fill="grey">Idq</text>
<text xml:space="preserve" text-anchor="start" x="447.75" y="-124.75" font-family="Helvetica,sans-Serif" font-size="12.00" fill="grey">Vdq</text>
</g>
</g>
</svg>
