<?xml version="1.0" encoding="UTF-8" standalone="no"?>
<!DOCTYPE svg PUBLIC "-//W3C//DTD SVG 1.1//EN"
 "http://www.w3.org/Graphics/SVG/1.1/DTD/svg11.dtd">
<!-- Generated by graphviz version 15.1.0 (20260618.0150)
 -->
<!-- Title: MC_HandleTypeDef Pages: 1 -->
<!--zoomable 224 -->

<svg id="main" version="1.1" xmlns="http://www.w3.org/2000/svg" xmlns:xlink="http://www.w3.org/1999/xlink" xml:space="preserve" onload="init(evt)">

<style type="text/css"><![CDATA[
.node, .edge {opacity: 0.7;}
.node.selected, .edge.selected {opacity: 1;}
.edge:hover path { stroke: red; }
.edge:hover polygon { stroke: red; fill: red; }
]]></style>

<defs>
  <circle id="rim" cx="0" cy="0" r="7"/>
  <circle id="rim2" cx="0" cy="0" r="3.5"/>
  <g id="zoomPlus">
    <use xlink:href="#rim" fill="#404040"><set attributeName="fill" to="#808080" begin="zoomplus.mouseover" end="zoomplus.mouseout"/></use>
    <path d="M-4,0h8M0,-4v8" fill="none" stroke="white" stroke-width="1.5" pointer-events="none"/>
  </g>
  <g id="zoomMin">
    <use xlink:href="#rim" fill="#404040"><set attributeName="fill" to="#808080" begin="zoomminus.mouseover" end="zoomminus.mouseout"/></use>
    <path d="M-4,0h8" fill="none" stroke="white" stroke-width="1.5" pointer-events="none"/>
  </g>
  <g id="arrowUp" transform="translate(30 24)">
    <use xlink:href="#rim"/>
    <path pointer-events="none" fill="none" stroke="white" stroke-width="1.5" d="M0,-3.0v7 M-2.5,-0.5L0,-3.0L2.5,-0.5"/>
  </g>
  <g id="arrowRight" transform="rotate(90) translate(36 -43)">
    <use xlink:href="#rim"/>
    <path pointer-events="none" fill="none" stroke="white" stroke-width="1.5" d="M0,-3.0v7 M-2.5,-0.5L0,-3.0L2.5,-0.5"/>
  </g>
  <g id="arrowDown" transform="rotate(180) translate(-30 -48)">
    <use xlink:href="#rim"/>
    <path pointer-events="none" fill="none" stroke="white" stroke-width="1.5" d="M0,-3.0v7 M-2.5,-0.5L0,-3.0L2.5,-0.5"/>
  </g>
  <g id="arrowLeft" transform="rotate(270) translate(-36 17)">
    <use xlink:href="#rim"/>
    <path pointer-events="none" fill="none" stroke="white" stroke-width="1.5" d="M0,-3.0v7 M-2.5,-0.5L0,-3.0L2.5,-0.5"/>
  </g>
  <g id="resetDef">
    <use xlink:href="#rim2" fill="#404040"><set attributeName="fill" to="#808080" begin="reset.mouseover" end="reset.mouseout"/></use>
  </g>
</defs>
<script type="application/ecmascript">
var viewWidth = 519;
var viewHeight = 224;
var sectionId = 'dynsection-0';
</script>
<script type="application/ecmascript" xlink:href="svg.min.js"/>
<svg id="graph" class="graph">
<g id="viewport">
<title>MC_HandleTypeDef</title>
<!-- Node1 -->
<g id="Node000001" class="node">
<title>Node1</title>
<g id="a_Node000001"><a xlink:title="电机控制运行数据结构体（telemetry 直接读取）">
<polygon fill="#999999" stroke="#666666" points="314.5,-22.25 189,-22.25 189,0 314.5,0 314.5,-22.25"/>
<text xml:space="preserve" text-anchor="middle" x="251.75" y="-6.85" font-family="Helvetica,sans-Serif" font-size="12.00">MC_HandleTypeDef</text>
</a>
</g>
</g>
<!-- Node2 -->
<g id="Node000002" class="node">
<title>Node2</title>
<g id="a_Node000002"><a xlink:href="struct_e_n_c___data_type_def.html" target="_top" xlink:title="编码器运行数据结构体">
<polygon fill="white" stroke="#666666" points="119.5,-100.75 0,-100.75 0,-78.5 119.5,-78.5 119.5,-100.75"/>
<text xml:space="preserve" text-anchor="middle" x="59.75" y="-85.35" font-family="Helvetica,sans-Serif" font-size="12.00">ENC_DataTypeDef</text>
</a>
</g>
</g>
<!-- Node2&#45;&gt;Node1 -->
<g id="edge1_Node000001_Node000002" class="edge">
<title>Node2&#45;&gt;Node1</title>
<g id="a_edge1_Node000001_Node000002"><a xlink:title=" ">
<path fill="none" stroke="#9a32cd" stroke-dasharray="5,2" d="M96.57,-73.96C134.2,-58.96 191.74,-36.04 225.16,-22.72"/>
<polygon fill="#9a32cd" stroke="#9a32cd" points="95.44,-70.64 87.45,-77.59 98.04,-77.14 95.44,-70.64"/>
</a>
</g>
<text xml:space="preserve" text-anchor="start" x="181.59" y="-46.25" font-family="Helvetica,sans-Serif" font-size="12.00" fill="grey">Enc</text>
</g>
<!-- Node3 -->
<g id="Node000003" class="node">
<title>Node3</title>
<g id="a_Node000003"><a xlink:href="struct_p_l_l___handle_type_def.html" target="_top" xlink:title="PLL 型角度跟踪速度估计器句柄">
<polygon fill="white" stroke="#666666" points="266,-100.75 137.5,-100.75 137.5,-78.5 266,-78.5 266,-100.75"/>
<text xml:space="preserve" text-anchor="middle" x="201.75" y="-85.35" font-family="Helvetica,sans-Serif" font-size="12.00">PLL_HandleTypeDef</text>
</a>
</g>
</g>
<!-- Node3&#45;&gt;Node1 -->
<g id="edge2_Node000001_Node000003" class="edge">
<title>Node3&#45;&gt;Node1</title>
<g id="a_edge2_Node000001_Node000003"><a xlink:title=" ">
<path fill="none" stroke="#9a32cd" stroke-dasharray="5,2" d="M214.62,-68.94C224.37,-54.02 237.36,-34.13 245.11,-22.28"/>
<polygon fill="#9a32cd" stroke="#9a32cd" points="211.86,-66.76 209.32,-77.04 217.72,-70.59 211.86,-66.76"/>
</a>
</g>
<text xml:space="preserve" text-anchor="start" x="235.7" y="-46.25" font-family="Helvetica,sans-Serif" font-size="12.00" fill="grey">Pll</text>
</g>
<!-- Node4 -->
<g id="Node000004" class="node">
<title>Node4</title>
<g id="a_Node000004"><a xlink:href="struct_f_o_c___handle_type_def.html" target="_top" xlink:title="FOC 运行句柄结构体">
<polygon fill="white" stroke="#666666" points="510.88,-100.75 378.62,-100.75 378.62,-78.5 510.88,-78.5 510.88,-100.75"/>
<text xml:space="preserve" text-anchor="middle" x="444.75" y="-85.35" font-family="Helvetica,sans-Serif" font-size="12.00">FOC_HandleTypeDef</text>
</a>
</g>
</g>
<!-- Node4&#45;&gt;Node1 -->
<g id="edge3_Node000001_Node000004" class="edge">
<title>Node4&#45;&gt;Node1</title>
<g id="a_edge3_Node000001_Node000004"><a xlink:title=" ">
<path fill="none" stroke="#9a32cd" stroke-dasharray="5,2" d="M407.74,-73.96C369.91,-58.96 312.08,-36.04 278.48,-22.72"/>
<polygon fill="#9a32cd" stroke="#9a32cd" points="406.33,-77.16 416.91,-77.59 408.91,-70.65 406.33,-77.16"/>
</a>
</g>
<text xml:space="preserve" text-anchor="start" x="374.21" y="-46.25" font-family="Helvetica,sans-Serif" font-size="12.00" fill="grey">Foc</text>
</g>
<!-- Node5 -->
<g id="Node000005" class="node">
<title>Node5</title>
<g id="a_Node000005"><a xlink:href="struct_p_i_d___handle_type_def.html" target="_top" xlink:title="PID 控制器句柄结构体">
<polygon fill="white" stroke="#666666" points="366.25,-215.75 239.25,-215.75 239.25,-193.5 366.25,-193.5 366.25,-215.75"/>
<text xml:space="preserve" text-anchor="middle" x="302.75" y="-200.35" font-family="Helvetica,sans-Serif" font-size="12.00">PID_HandleTypeDef</text>
</a>
</g>
</g>
<!-- Node5&#45;&gt;Node1 -->
<g id="edge6_Node000001_Node000005" class="edge">
<title>Node5&#45;&gt;Node1</title>
<g id="a_edge6_Node000001_Node000005"><a xlink:title=" ">
<path fill="none" stroke="#9a32cd" stroke-dasharray="5,2" d="M298.69,-182.04C293.8,-156.95 284.95,-114.4 274.75,-78.5 269.02,-58.32 260.6,-35.3 255.7,-22.36"/>
<polygon fill="#9a32cd" stroke="#9a32cd" points="295.22,-182.49 300.54,-191.66 302.09,-181.18 295.22,-182.49"/>
</a>
</g>
<text xml:space="preserve" text-anchor="start" x="283.3" y="-85.5" font-family="Helvetica,sans-Serif" font-size="12.00" fill="grey">SpeedPid</text>
</g>
<!-- Node5&#45;&gt;Node4 -->
<g id="edge4_Node000004_Node000005" class="edge">
<title>Node5&#45;&gt;Node4</title>
<g id="a_edge4_Node000004_Node000005"><a xlink:title=" ">
<path fill="none" stroke="#9a32cd" stroke-dasharray="5,2" d="M323.82,-186.03C344.73,-168.67 377.78,-141.51 407,-118.75 414.61,-112.82 423.22,-106.38 430.3,-101.17"/>
<polygon fill="#9a32cd" stroke="#9a32cd" points="321.74,-183.2 316.29,-192.29 326.22,-188.59 321.74,-183.2"/>
</a>
</g>
<text xml:space="preserve" text-anchor="start" x="410" y="-152.12" font-family="Helvetica,sans-Serif" font-size="12.00" fill="grey">PidId</text>
<text xml:space="preserve" text-anchor="start" x="410" y="-133.88" font-family="Helvetica,sans-Serif" font-size="12.00" fill="grey">PidIq</text>
</g>
<!-- Node6 -->
<g id="Node000006" class="node">
<title>Node6</title>
<g id="a_Node000006"><a xlink:href="struct_f_o_c___vec2_type_def.html" target="_top" xlink:title="两相正交量（alpha&#45;beta 或 d&#45;q）">
<polygon fill="white" stroke="#666666" points="504.88,-215.75 384.62,-215.75 384.62,-193.5 504.88,-193.5 504.88,-215.75"/>
<text xml:space="preserve" text-anchor="middle" x="444.75" y="-200.35" font-family="Helvetica,sans-Serif" font-size="12.00">FOC_Vec2TypeDef</text>
</a>
</g>
</g>
<!-- Node6&#45;&gt;Node4 -->
<g id="edge5_Node000004_Node000006" class="edge">
<title>Node6&#45;&gt;Node4</title>
<g id="a_edge5_Node000004_Node000006"><a xlink:title=" ">
<path fill="none" stroke="#9a32cd" stroke-dasharray="5,2" d="M444.75,-181.97C444.75,-157.69 444.75,-119.34 444.75,-101.03"/>
<polygon fill="#9a32cd" stroke="#9a32cd" points="441.25,-181.68 444.75,-191.68 448.25,-181.68 441.25,-181.68"/>
</a>
</g>
<text xml:space="preserve" text-anchor="start" x="447.75" y="-161.25" font-family="Helvetica,sans-Serif" font-size="12.00" fill="grey">IAlphaBeta</text>
<text xml:space="preserve" text-anchor="start" x="447.75" y="-143" font-family="Helvetica,sans-Serif" font-size="12.00" fill="grey">Idq</text>
<text xml:space="preserve" text-anchor="start" x="447.75" y="-124.75" font-family="Helvetica,sans-Serif" font-size="12.00" fill="grey">Vdq</text>
</g>
</g>
</svg>

<g id="navigator" transform="translate(0 0)" fill="#404254">
  <rect fill="#f2f5e9" fill-opacity="0.5" stroke="#606060" stroke-width=".5" x="0" y="0" width="60" height="60"/>
  <use id="zoomplus" xlink:href="#zoomPlus" x="17" y="9" onmousedown="handleZoom(evt,'in')"/>
  <use id="zoomminus" xlink:href="#zoomMin" x="42" y="9" onmousedown="handleZoom(evt,'out')"/>
  <use id="reset" xlink:href="#resetDef" x="30" y="36" onmousedown="handleReset()"/>
   <use id="arrowup" xlink:href="#arrowUp" x="0" y="0" onmousedown="handlePan(0,-1)"/>
  <use id="arrowright" xlink:href="#arrowRight" x="0" y="0" onmousedown="handlePan(1,0)"/>
  <use id="arrowdown" xlink:href="#arrowDown" x="0" y="0" onmousedown="handlePan(0,1)"/>
  <use id="arrowleft" xlink:href="#arrowLeft" x="0" y="0" onmousedown="handlePan(-1,0)"/>
</g>
<svg viewBox="0 0 15 15" width="100%" height="30px" preserveAspectRatio="xMaxYMin meet">
 <g id="arrow_out" transform="scale(0.3 0.3)">
  <a xlink:href="struct_m_c___handle_type_def__coll__graph_org.svg" target="_base">
   <rect id="button" ry="5" rx="5" y="6" x="6" height="38" width="38"
        fill="#f2f5e9" fill-opacity="0.5" stroke="#606060" stroke-width="1.0"/>
   <path id="arrow"
     d="M 11.500037,31.436501 C 11.940474,20.09759 22.043105,11.32322 32.158766,21.979434 L 37.068811,17.246167 C 37.068811,17.246167 37.088388,32 37.088388,32 L 22.160133,31.978069 C 22.160133,31.978069 26.997745,27.140456 26.997745,27.140456 C 18.528582,18.264221 13.291696,25.230495 11.500037,31.436501 z"
     style="fill:#404040;"/>
  </a>
 </g>
</svg>

<style type='text/css'>
<![CDATA[
[data-mouse-over-selected='false'] { opacity: 0.7; }
[data-mouse-over-selected='true']  { opacity: 1.0; }
]]>
</style>
<script type="application/ecmascript"><![CDATA[
document.addEventListener('DOMContentLoaded', (event) => {
  highlightEdges();
  highlightAdjacentNodes();
});
]]></script>
</svg>
