<?xml version="1.0" encoding="UTF-8" standalone="no"?>
<!DOCTYPE svg PUBLIC "-//W3C//DTD SVG 1.1//EN"
 "http://www.w3.org/Graphics/SVG/1.1/DTD/svg11.dtd">
<!-- Generated by graphviz version 15.1.0 (20260618.0150)
 -->
<!-- Title: FOC_HandleTypeDef Pages: 1 -->
<svg width="274pt" height="145pt"
 viewBox="0.00 0.00 274.00 145.00" xmlns="http://www.w3.org/2000/svg" xmlns:xlink="http://www.w3.org/1999/xlink">
<g id="graph0" class="graph" transform="scale(1 1) rotate(0) translate(4 141.25)">
<title>FOC_HandleTypeDef</title>
<!-- Node1 -->
<g id="Node000001" class="node">
<title>Node1</title>
<g id="a_Node000001"><a xlink:title="FOC 运行句柄结构体">
<polygon fill="#999999" stroke="#666666" points="200.62,-22.25 68.38,-22.25 68.38,0 200.62,0 200.62,-22.25"/>
<text xml:space="preserve" text-anchor="middle" x="134.5" y="-6.85" font-family="Helvetica,sans-Serif" font-size="12.00">FOC_HandleTypeDef</text>
</a>
</g>
</g>
<!-- Node2 -->
<g id="Node000002" class="node">
<title>Node2</title>
<g id="a_Node000002"><a xlink:href="struct_p_i_d___handle_type_def.html" target="_top" xlink:title="PID 控制器句柄结构体">
<polygon fill="white" stroke="#666666" points="127,-137.25 0,-137.25 0,-115 127,-115 127,-137.25"/>
<text xml:space="preserve" text-anchor="middle" x="63.5" y="-121.85" font-family="Helvetica,sans-Serif" font-size="12.00">PID_HandleTypeDef</text>
</a>
</g>
</g>
<!-- Node2&#45;&gt;Node1 -->
<g id="edge1_Node000001_Node000002" class="edge">
<title>Node2&#45;&gt;Node1</title>
<g id="a_edge1_Node000001_Node000002"><a xlink:title=" ">
<path fill="none" stroke="#9a32cd" stroke-dasharray="5,2" d="M76.07,-105.11C91.25,-80.96 116.19,-41.26 127.96,-22.53"/>
<polygon fill="#9a32cd" stroke="#9a32cd" points="73.21,-103.09 70.86,-113.42 79.14,-106.81 73.21,-103.09"/>
</a>
</g>
<text xml:space="preserve" text-anchor="start" x="118.46" y="-73.62" font-family="Helvetica,sans-Serif" font-size="12.00" fill="grey">PidId</text>
<text xml:space="preserve" text-anchor="start" x="118.46" y="-55.38" font-family="Helvetica,sans-Serif" font-size="12.00" fill="grey">PidIq</text>
</g>
<!-- Node3 -->
<g id="Node000003" class="node">
<title>Node3</title>
<g id="a_Node000003"><a xlink:href="struct_f_o_c___vec2_type_def.html" target="_top" xlink:title="两相正交量（alpha&#45;beta 或 d&#45;q）">
<polygon fill="white" stroke="#666666" points="265.62,-137.25 145.38,-137.25 145.38,-115 265.62,-115 265.62,-137.25"/>
<text xml:space="preserve" text-anchor="middle" x="205.5" y="-121.85" font-family="Helvetica,sans-Serif" font-size="12.00">FOC_Vec2TypeDef</text>
</a>
</g>
</g>
<!-- Node3&#45;&gt;Node1 -->
<g id="edge2_Node000001_Node000003" class="edge">
<title>Node3&#45;&gt;Node1</title>
<g id="a_edge2_Node000001_Node000003"><a xlink:title=" ">
<path fill="none" stroke="#9a32cd" stroke-dasharray="5,2" d="M193.5,-104.98C183.12,-87.68 167.6,-62.15 153.5,-40.25 149.74,-34.4 145.41,-27.97 141.83,-22.74"/>
<polygon fill="#9a32cd" stroke="#9a32cd" points="190.33,-106.49 198.47,-113.28 196.34,-102.9 190.33,-106.49"/>
</a>
</g>
<text xml:space="preserve" text-anchor="start" x="191.48" y="-82.75" font-family="Helvetica,sans-Serif" font-size="12.00" fill="grey">IAlphaBeta</text>
<text xml:space="preserve" text-anchor="start" x="191.48" y="-64.5" font-family="Helvetica,sans-Serif" font-size="12.00" fill="grey">Idq</text>
<text xml:space="preserve" text-anchor="start" x="191.48" y="-46.25" font-family="Helvetica,sans-Serif" font-size="12.00" fill="grey">Vdq</text>
</g>
</g>
</svg>
