<?xml version="1.0" encoding="UTF-8" standalone="no"?>
<!DOCTYPE svg PUBLIC "-//W3C//DTD SVG 1.1//EN"
 "http://www.w3.org/Graphics/SVG/1.1/DTD/svg11.dtd">
<!-- Generated by graphviz version 15.1.0 (20260618.0150)
 -->
<!-- Title: Core/Inc/tim.h Pages: 1 -->
<svg width="496pt" height="103pt"
 viewBox="0.00 0.00 496.00 103.00" xmlns="http://www.w3.org/2000/svg" xmlns:xlink="http://www.w3.org/1999/xlink">
<g id="graph0" class="graph" transform="scale(1 1) rotate(0) translate(4 98.75)">
<title>Core/Inc/tim.h</title>
<!-- Node1 -->
<g id="Node000001" class="node">
<title>Node1</title>
<g id="a_Node000001"><a xlink:title="This file contains all the function prototypes for the tim.c file">
<polygon fill="#999999" stroke="#666666" points="308.25,-94.75 218.75,-94.75 218.75,-72.5 308.25,-72.5 308.25,-94.75"/>
<text xml:space="preserve" text-anchor="middle" x="263.5" y="-79.35" font-family="Helvetica,sans-Serif" font-size="12.00">Core/Inc/tim.h</text>
</a>
</g>
</g>
<!-- Node2 -->
<g id="Node000002" class="node">
<title>Node2</title>
<g id="a_Node000002"><a xlink:href="bsp__pwm_8c.html" target="_top" xlink:title="TIM1 三相互补 PWM BSP">
<polygon fill="white" stroke="#666666" points="121,-36.5 0,-36.5 0,0 121,0 121,-36.5"/>
<text xml:space="preserve" text-anchor="start" x="8" y="-21.1" font-family="Helvetica,sans-Serif" font-size="12.00">Application/bsp/bsp</text>
<text xml:space="preserve" text-anchor="middle" x="60.5" y="-6.85" font-family="Helvetica,sans-Serif" font-size="12.00">_pwm.c</text>
</a>
</g>
</g>
<!-- Node1&#45;&gt;Node2 -->
<g id="edge1_Node000001_Node000002" class="edge">
<title>Node1&#45;&gt;Node2</title>
<g id="a_edge1_Node000001_Node000002"><a xlink:title=" ">
<path fill="none" stroke="#63b8ff" d="M218.59,-68.6C188.73,-59.28 149.28,-46.97 117.26,-36.97"/>
<polygon fill="#63b8ff" stroke="#63b8ff" points="217.49,-71.93 228.08,-71.57 219.57,-65.25 217.49,-71.93"/>
</a>
</g>
</g>
<!-- Node3 -->
<g id="Node000003" class="node">
<title>Node3</title>
<g id="a_Node000003"><a xlink:href="bsp__ws2812_8c.html" target="_top" xlink:title="WS2812 类 RGB 状态灯 BSP（TIM2_CH1 PWM + DMA，单灯）">
<polygon fill="white" stroke="#666666" points="260,-36.5 139,-36.5 139,0 260,0 260,-36.5"/>
<text xml:space="preserve" text-anchor="start" x="147" y="-21.1" font-family="Helvetica,sans-Serif" font-size="12.00">Application/bsp/bsp</text>
<text xml:space="preserve" text-anchor="middle" x="199.5" y="-6.85" font-family="Helvetica,sans-Serif" font-size="12.00">_ws2812.c</text>
</a>
</g>
</g>
<!-- Node1&#45;&gt;Node3 -->
<g id="edge2_Node000001_Node000003" class="edge">
<title>Node1&#45;&gt;Node3</title>
<g id="a_edge2_Node000001_Node000003"><a xlink:title=" ">
<path fill="none" stroke="#63b8ff" d="M244.91,-64.21C236.23,-55.62 225.94,-45.43 217.35,-36.92"/>
<polygon fill="#63b8ff" stroke="#63b8ff" points="242.29,-66.55 251.86,-71.09 247.21,-61.57 242.29,-66.55"/>
</a>
</g>
</g>
<!-- Node4 -->
<g id="Node000004" class="node">
<title>Node4</title>
<g id="a_Node000004"><a xlink:href="main_8c.html" target="_top" xlink:title=": Main program body">
<polygon fill="white" stroke="#666666" points="379.25,-29.38 277.75,-29.38 277.75,-7.12 379.25,-7.12 379.25,-29.38"/>
<text xml:space="preserve" text-anchor="middle" x="328.5" y="-13.97" font-family="Helvetica,sans-Serif" font-size="12.00">Core/Src/main.c</text>
</a>
</g>
</g>
<!-- Node1&#45;&gt;Node4 -->
<g id="edge3_Node000001_Node000004" class="edge">
<title>Node1&#45;&gt;Node4</title>
<g id="a_edge3_Node000001_Node000004"><a xlink:title=" ">
<path fill="none" stroke="#63b8ff" d="M282.41,-64.18C293.99,-52.89 308.38,-38.87 317.97,-29.52"/>
<polygon fill="#63b8ff" stroke="#63b8ff" points="280.03,-61.62 275.32,-71.1 284.92,-66.63 280.03,-61.62"/>
</a>
</g>
</g>
<!-- Node5 -->
<g id="Node000005" class="node">
<title>Node5</title>
<g id="a_Node000005"><a xlink:href="tim_8c.html" target="_top" xlink:title="This file provides code for the configuration of the TIM instances.">
<polygon fill="white" stroke="#666666" points="488,-29.38 397,-29.38 397,-7.12 488,-7.12 488,-29.38"/>
<text xml:space="preserve" text-anchor="middle" x="442.5" y="-13.97" font-family="Helvetica,sans-Serif" font-size="12.00">Core/Src/tim.c</text>
</a>
</g>
</g>
<!-- Node1&#45;&gt;Node5 -->
<g id="edge4_Node000001_Node000005" class="edge">
<title>Node1&#45;&gt;Node5</title>
<g id="a_edge4_Node000001_Node000005"><a xlink:title=" ">
<path fill="none" stroke="#63b8ff" d="M304.13,-68.24C337.18,-56.54 383.04,-40.3 412.74,-29.79"/>
<polygon fill="#63b8ff" stroke="#63b8ff" points="303.15,-64.88 294.89,-71.51 305.48,-71.47 303.15,-64.88"/>
</a>
</g>
</g>
</g>
</svg>
