<?xml version="1.0" encoding="UTF-8" standalone="no"?>
<!DOCTYPE svg PUBLIC "-//W3C//DTD SVG 1.1//EN"
 "http://www.w3.org/Graphics/SVG/1.1/DTD/svg11.dtd">
<!-- Generated by graphviz version 15.1.0 (20260618.0150)
 -->
<!-- Title: HAL_TIM_MspPostInit Pages: 1 -->
<svg width="349pt" height="70pt"
 viewBox="0.00 0.00 349.00 70.00" xmlns="http://www.w3.org/2000/svg" xmlns:xlink="http://www.w3.org/1999/xlink">

<svg id="main" version="1.1" xmlns="http://www.w3.org/2000/svg" xmlns:xlink="http://www.w3.org/1999/xlink" xml:space="preserve">

<style type="text/css"><![CDATA[
.node, .edge {opacity: 0.7;}
.node.selected, .edge.selected {opacity: 1;}
.edge:hover path { stroke: red; }
.edge:hover polygon { stroke: red; fill: red; }
]]></style>
<script type="application/ecmascript" xlink:href="svg.min.js"/>
<svg id="graph" class="graph">
<g id="graph0" class="graph" transform="scale(1 1) rotate(0) translate(4 66.25)">
<title>HAL_TIM_MspPostInit</title>
<!-- Node1 -->
<g id="Node000001" class="node">
<title>Node1</title>
<g id="a_Node000001"><a xlink:title=" ">
<polygon fill="#999999" stroke="#666666" points="340.5,-42.25 204.5,-42.25 204.5,-20 340.5,-20 340.5,-42.25"/>
<text xml:space="preserve" text-anchor="middle" x="272.5" y="-26.85" font-family="Helvetica,sans-Serif" font-size="12.00">HAL_TIM_MspPostInit</text>
</a>
</g>
</g>
<!-- Node2 -->
<g id="Node000002" class="node">
<title>Node2</title>
<g id="a_Node000002"><a xlink:href="tim_8c.html#ad1f9d42690163f73f73e5b820c81ca14" target="_top" xlink:title=" ">
<polygon fill="white" stroke="#666666" points="168.5,-62.25 78.25,-62.25 78.25,-40 168.5,-40 168.5,-62.25"/>
<text xml:space="preserve" text-anchor="middle" x="123.38" y="-46.85" font-family="Helvetica,sans-Serif" font-size="12.00">MX_TIM1_Init</text>
</a>
</g>
</g>
<!-- Node1&#45;&gt;Node2 -->
<g id="edge1_Node000001_Node000002" class="edge">
<title>Node1&#45;&gt;Node2</title>
<g id="a_edge1_Node000001_Node000002"><a xlink:title=" ">
<path fill="none" stroke="#63b8ff" d="M193,-41.8C184.65,-42.93 176.39,-44.05 168.64,-45.11"/>
<polygon fill="#63b8ff" stroke="#63b8ff" points="193.46,-45.27 202.9,-40.45 192.52,-38.33 193.46,-45.27"/>
</a>
</g>
</g>
<!-- Node4 -->
<g id="Node000004" class="node">
<title>Node4</title>
<g id="a_Node000004"><a xlink:href="tim_8c.html#a4b8ff887fd3fdf26605e35927e4ff202" target="_top" xlink:title=" ">
<polygon fill="white" stroke="#666666" points="168.5,-22.25 78.25,-22.25 78.25,0 168.5,0 168.5,-22.25"/>
<text xml:space="preserve" text-anchor="middle" x="123.38" y="-6.85" font-family="Helvetica,sans-Serif" font-size="12.00">MX_TIM2_Init</text>
</a>
</g>
</g>
<!-- Node1&#45;&gt;Node4 -->
<g id="edge3_Node000001_Node000004" class="edge">
<title>Node1&#45;&gt;Node4</title>
<g id="a_edge3_Node000001_Node000004"><a xlink:title=" ">
<path fill="none" stroke="#63b8ff" d="M193,-20.45C184.65,-19.32 176.39,-18.2 168.64,-17.14"/>
<polygon fill="#63b8ff" stroke="#63b8ff" points="192.52,-23.92 202.9,-21.8 193.46,-16.98 192.52,-23.92"/>
</a>
</g>
</g>
<!-- Node3 -->
<g id="Node000003" class="node">
<title>Node3</title>
<g id="a_Node000003"><a xlink:href="main_8c.html#a840291bc02cba5474a4cb46a9b9566fe" target="_top" xlink:title="The application entry point.">
<polygon fill="white" stroke="#666666" points="42.25,-42.25 0,-42.25 0,-20 42.25,-20 42.25,-42.25"/>
<text xml:space="preserve" text-anchor="middle" x="21.12" y="-26.85" font-family="Helvetica,sans-Serif" font-size="12.00">main</text>
</a>
</g>
</g>
<!-- Node2&#45;&gt;Node3 -->
<g id="edge2_Node000002_Node000003" class="edge">
<title>Node2&#45;&gt;Node3</title>
<g id="a_edge2_Node000002_Node000003"><a xlink:title=" ">
<path fill="none" stroke="#63b8ff" d="M66.59,-40C58.09,-38.3 49.8,-36.65 42.73,-35.24"/>
<polygon fill="#63b8ff" stroke="#63b8ff" points="65.84,-43.42 76.34,-41.94 67.21,-36.55 65.84,-43.42"/>
</a>
</g>
</g>
<!-- Node4&#45;&gt;Node3 -->
<g id="edge4_Node000004_Node000003" class="edge">
<title>Node4&#45;&gt;Node3</title>
<g id="a_edge4_Node000004_Node000003"><a xlink:title=" ">
<path fill="none" stroke="#63b8ff" d="M66.59,-22.25C58.09,-23.95 49.8,-25.6 42.73,-27.01"/>
<polygon fill="#63b8ff" stroke="#63b8ff" points="67.21,-25.7 76.34,-20.31 65.84,-18.83 67.21,-25.7"/>
</a>
</g>
</g>
</g>
</svg>
</svg>

<style type='text/css'>
<![CDATA[
[data-mouse-over-selected='false'] { opacity: 0.7; }
[data-mouse-over-selected='true']  { opacity: 1.0; }
]]>
</style>
<script type="application/ecmascript"><![CDATA[
document.addEventListener('DOMContentLoaded', (event) => {
  highlightEdges();
  highlightAdjacentNodes();
});
]]></script>
</svg>
