<?xml version="1.0" encoding="UTF-8" standalone="no"?>
<!DOCTYPE svg PUBLIC "-//W3C//DTD SVG 1.1//EN"
 "http://www.w3.org/Graphics/SVG/1.1/DTD/svg11.dtd">
<!-- Generated by graphviz version 15.1.0 (20260618.0150)
 -->
<!-- Title: MX_TIM2_Init Pages: 1 -->
<svg width="270pt" height="70pt"
 viewBox="0.00 0.00 270.00 70.00" xmlns="http://www.w3.org/2000/svg" xmlns:xlink="http://www.w3.org/1999/xlink">
<g id="graph0" class="graph" transform="scale(1 1) rotate(0) translate(4 66.25)">
<title>MX_TIM2_Init</title>
<!-- Node1 -->
<g id="Node000001" class="node">
<title>Node1</title>
<g id="a_Node000001"><a xlink:title=" ">
<polygon fill="#999999" stroke="#666666" points="90.25,-42.25 0,-42.25 0,-20 90.25,-20 90.25,-42.25"/>
<text xml:space="preserve" text-anchor="middle" x="45.12" y="-26.85" font-family="Helvetica,sans-Serif" font-size="12.00">MX_TIM2_Init</text>
</a>
</g>
</g>
<!-- Node2 -->
<g id="Node000002" class="node">
<title>Node2</title>
<g id="a_Node000002"><a xlink:href="main_8c.html#a1730ffe1e560465665eb47d9264826f9" target="_top" xlink:title="This function is executed in case of error occurrence.">
<polygon fill="white" stroke="#666666" points="240.12,-62.25 148.38,-62.25 148.38,-40 240.12,-40 240.12,-62.25"/>
<text xml:space="preserve" text-anchor="middle" x="194.25" y="-46.85" font-family="Helvetica,sans-Serif" font-size="12.00">Error_Handler</text>
</a>
</g>
</g>
<!-- Node1&#45;&gt;Node2 -->
<g id="edge1_Node000001_Node000002" class="edge">
<title>Node1&#45;&gt;Node2</title>
<g id="a_edge1_Node000001_Node000002"><a xlink:title=" ">
<path fill="none" stroke="#63b8ff" d="M90.67,-37.18C105.3,-39.17 121.76,-41.41 137.13,-43.5"/>
<polygon fill="#63b8ff" stroke="#63b8ff" points="136.22,-46.9 146.6,-44.78 137.16,-39.97 136.22,-46.9"/>
</a>
</g>
</g>
<!-- Node3 -->
<g id="Node000003" class="node">
<title>Node3</title>
<g id="a_Node000003"><a xlink:href="tim_8c.html#a708f19bbc41b292fccf38f2d9796c46a" target="_top" xlink:title=" ">
<polygon fill="white" stroke="#666666" points="262.25,-22.25 126.25,-22.25 126.25,0 262.25,0 262.25,-22.25"/>
<text xml:space="preserve" text-anchor="middle" x="194.25" y="-6.85" font-family="Helvetica,sans-Serif" font-size="12.00">HAL_TIM_MspPostInit</text>
</a>
</g>
</g>
<!-- Node1&#45;&gt;Node3 -->
<g id="edge2_Node000001_Node000003" class="edge">
<title>Node1&#45;&gt;Node3</title>
<g id="a_edge2_Node000001_Node000003"><a xlink:title=" ">
<path fill="none" stroke="#63b8ff" d="M90.67,-25.07C98.28,-24.03 106.4,-22.93 114.59,-21.82"/>
<polygon fill="#63b8ff" stroke="#63b8ff" points="114.85,-25.32 124.28,-20.5 113.9,-18.38 114.85,-25.32"/>
</a>
</g>
</g>
</g>
</svg>
