<?xml version="1.0" encoding="UTF-8" standalone="no"?>
<!DOCTYPE svg PUBLIC "-//W3C//DTD SVG 1.1//EN"
 "http://www.w3.org/Graphics/SVG/1.1/DTD/svg11.dtd">
<!-- Generated by graphviz version 15.1.0 (20260618.0150)
 -->
<!-- Title: Core/Src/usart.c Pages: 1 -->
<svg width="115pt" height="205pt"
 viewBox="0.00 0.00 115.00 205.00" xmlns="http://www.w3.org/2000/svg" xmlns:xlink="http://www.w3.org/1999/xlink">
<g id="graph0" class="graph" transform="scale(1 1) rotate(0) translate(4 201)">
<title>Core/Src/usart.c</title>
<!-- Node1 -->
<g id="Node000001" class="node">
<title>Node1</title>
<g id="a_Node000001"><a xlink:title="This file provides code for the configuration of the USART instances.">
<polygon fill="#999999" stroke="#666666" points="104.12,-197 2.62,-197 2.62,-174.75 104.12,-174.75 104.12,-197"/>
<text xml:space="preserve" text-anchor="middle" x="53.38" y="-181.6" font-family="Helvetica,sans-Serif" font-size="12.00">Core/Src/usart.c</text>
</a>
</g>
</g>
<!-- Node2 -->
<g id="Node000002" class="node">
<title>Node2</title>
<g id="a_Node000002"><a xlink:href="usart_8h.html" target="_top" xlink:title="This file contains all the function prototypes for the usart.c file">
<polygon fill="white" stroke="#666666" points="79.38,-138.75 27.38,-138.75 27.38,-116.5 79.38,-116.5 79.38,-138.75"/>
<text xml:space="preserve" text-anchor="middle" x="53.38" y="-123.35" font-family="Helvetica,sans-Serif" font-size="12.00">usart.h</text>
</a>
</g>
</g>
<!-- Node1&#45;&gt;Node2 -->
<g id="edge1_Node000001_Node000002" class="edge">
<title>Node1&#45;&gt;Node2</title>
<g id="a_edge1_Node000001_Node000002"><a xlink:title=" ">
<path fill="none" stroke="#63b8ff" d="M53.38,-174.29C53.38,-167.62 53.38,-158.74 53.38,-150.59"/>
<polygon fill="#63b8ff" stroke="#63b8ff" points="56.88,-150.67 53.38,-140.67 49.88,-150.67 56.88,-150.67"/>
</a>
</g>
</g>
<!-- Node3 -->
<g id="Node000003" class="node">
<title>Node3</title>
<g id="a_Node000003"><a xlink:href="main_8h.html" target="_top" xlink:title=": Header for main.c file.">
<polygon fill="white" stroke="#666666" points="79.38,-80.5 27.38,-80.5 27.38,-58.25 79.38,-58.25 79.38,-80.5"/>
<text xml:space="preserve" text-anchor="middle" x="53.38" y="-65.1" font-family="Helvetica,sans-Serif" font-size="12.00">main.h</text>
</a>
</g>
</g>
<!-- Node2&#45;&gt;Node3 -->
<g id="edge2_Node000002_Node000003" class="edge">
<title>Node2&#45;&gt;Node3</title>
<g id="a_edge2_Node000002_Node000003"><a xlink:title=" ">
<path fill="none" stroke="#63b8ff" d="M53.38,-116.04C53.38,-109.37 53.38,-100.49 53.38,-92.34"/>
<polygon fill="#63b8ff" stroke="#63b8ff" points="56.88,-92.42 53.38,-82.42 49.88,-92.42 56.88,-92.42"/>
</a>
</g>
</g>
<!-- Node4 -->
<g id="Node000004" class="node">
<title>Node4</title>
<g id="a_Node000004"><a xlink:title=" ">
<polygon fill="#e0e0e0" stroke="#999999" points="106.75,-22.25 0,-22.25 0,0 106.75,0 106.75,-22.25"/>
<text xml:space="preserve" text-anchor="middle" x="53.38" y="-6.85" font-family="Helvetica,sans-Serif" font-size="12.00">stm32g4xx_hal.h</text>
</a>
</g>
</g>
<!-- Node3&#45;&gt;Node4 -->
<g id="edge3_Node000003_Node000004" class="edge">
<title>Node3&#45;&gt;Node4</title>
<g id="a_edge3_Node000003_Node000004"><a xlink:title=" ">
<path fill="none" stroke="#63b8ff" d="M53.38,-57.79C53.38,-51.12 53.38,-42.24 53.38,-34.09"/>
<polygon fill="#63b8ff" stroke="#63b8ff" points="56.88,-34.17 53.38,-24.17 49.88,-34.17 56.88,-34.17"/>
</a>
</g>
</g>
</g>
</svg>
